%FSLAX45Y45*%
G04 Gerber Fmt 4.5, Leading zero omitted, Abs format (unit mm)*
G04 Created by KiCad (PCBNEW (5.1.10)-1) date 2022-01-23 15:25:30*
%MOMM*%
%LPD*%
G01*
G04 APERTURE LIST*
%TA.AperFunction,Profile*%
%ADD10C,0.050000*%
%TD*%
%ADD11C,0.200000*%
%ADD12C,0.300000*%
G04 APERTURE END LIST*
D10*
X20134580Y-10071100D02*
X11666220Y-8572500D01*
X22038310Y-10071100D02*
X20134580Y-10071100D01*
X30492700Y-8572500D02*
X22038310Y-10071100D01*
X32296480Y-8572500D02*
X30492700Y-8572500D01*
X43793410Y-8572500D02*
X32296480Y-8572500D01*
X44046140Y-8319770D02*
X44046140Y937260D01*
X12619077Y1189686D02*
X33296480Y1189990D01*
X33296480Y1189990D02*
X43793410Y1189990D01*
X9795890Y1189990D02*
X-699770Y1189990D01*
X-952500Y937260D02*
X-952500Y-8319770D01*
X9795890Y1189990D02*
X12619077Y1189686D01*
X-699770Y-8572500D02*
X10799018Y-8573770D01*
X10799018Y-8573770D02*
X11666220Y-8572500D01*
X-952500Y937260D02*
G75*
G02*
X-699770Y1189990I252730J0D01*
G01*
X-699770Y-8572500D02*
G75*
G02*
X-952500Y-8319770I0J252730D01*
G01*
X44046140Y-8319770D02*
G75*
G02*
X43793410Y-8572500I-252730J0D01*
G01*
X43793410Y1189990D02*
G75*
G02*
X44046140Y937260I0J-252730D01*
G01*
D11*
X932500Y-6482500D02*
X972500Y-6522500D01*
X972500Y-6482500D02*
X932500Y-6522500D01*
X2834960Y-4903790D02*
X2874960Y-4943790D01*
X2874960Y-4903790D02*
X2834960Y-4943790D01*
X2837500Y-2672500D02*
X2877500Y-2712500D01*
X2877500Y-2672500D02*
X2837500Y-2712500D01*
X2837500Y-6482500D02*
X2877500Y-6522500D01*
X2877500Y-6482500D02*
X2837500Y-6522500D01*
X2837500Y-8479375D02*
X2877500Y-8519375D01*
X2877500Y-8479375D02*
X2837500Y-8519375D01*
X3156270Y-8478840D02*
X3196270Y-8518840D01*
X3196270Y-8478840D02*
X3156270Y-8518840D01*
X3546060Y-6812500D02*
X3586060Y-6852500D01*
X3586060Y-6812500D02*
X3546060Y-6852500D01*
X3972880Y-8152450D02*
X4012880Y-8192450D01*
X4012880Y-8152450D02*
X3972880Y-8192450D01*
X4464370Y-5979480D02*
X4504370Y-6019480D01*
X4504370Y-5979480D02*
X4464370Y-6019480D01*
X4544380Y-7276150D02*
X4584380Y-7316150D01*
X4584380Y-7276150D02*
X4544380Y-7316150D01*
X4742500Y-2672500D02*
X4782500Y-2712500D01*
X4782500Y-2672500D02*
X4742500Y-2712500D01*
X4742500Y-3002500D02*
X4782500Y-3042500D01*
X4782500Y-3002500D02*
X4742500Y-3042500D01*
X4742500Y-4907500D02*
X4782500Y-4947500D01*
X4782500Y-4907500D02*
X4742500Y-4947500D01*
X4742500Y-6812500D02*
X4782500Y-6852500D01*
X4782500Y-6812500D02*
X4742500Y-6852500D01*
X4742500Y-8479375D02*
X4782500Y-8519375D01*
X4782500Y-8479375D02*
X4742500Y-8519375D01*
X5311460Y-1450660D02*
X5351460Y-1490660D01*
X5351460Y-1450660D02*
X5311460Y-1490660D01*
X7127560Y-3044510D02*
X7167560Y-3084510D01*
X7167560Y-3044510D02*
X7127560Y-3084510D01*
X8353110Y-8105460D02*
X8393110Y-8145460D01*
X8393110Y-8105460D02*
X8353110Y-8145460D01*
X9266875Y-8431750D02*
X9306875Y-8471750D01*
X9306875Y-8431750D02*
X9266875Y-8471750D01*
X10521100Y-8349200D02*
X10561100Y-8389200D01*
X10561100Y-8349200D02*
X10521100Y-8389200D01*
X10966770Y-5046030D02*
X11006770Y-5086030D01*
X11006770Y-5046030D02*
X10966770Y-5086030D01*
X11606850Y-1365570D02*
X11646850Y-1405570D01*
X11646850Y-1365570D02*
X11606850Y-1405570D01*
X11648125Y-8101750D02*
X11688125Y-8141750D01*
X11688125Y-8101750D02*
X11648125Y-8141750D01*
X12047540Y-8522020D02*
X12087540Y-8562020D01*
X12087540Y-8522020D02*
X12047540Y-8562020D01*
X12189780Y-8241350D02*
X12229780Y-8281350D01*
X12229780Y-8241350D02*
X12189780Y-8281350D01*
X12600625Y-6482500D02*
X12640625Y-6522500D01*
X12640625Y-6482500D02*
X12600625Y-6522500D01*
X12600625Y-6812500D02*
X12640625Y-6852500D01*
X12640625Y-6812500D02*
X12600625Y-6852500D01*
X12662220Y-4633280D02*
X12702220Y-4673280D01*
X12702220Y-4633280D02*
X12662220Y-4673280D01*
X14097878Y-4912613D02*
X14137878Y-4952613D01*
X14137878Y-4912613D02*
X14097878Y-4952613D01*
X14528562Y-6585337D02*
X14568562Y-6625337D01*
X14568562Y-6585337D02*
X14528562Y-6625337D01*
X15427010Y-5245420D02*
X15467010Y-5285420D01*
X15467010Y-5245420D02*
X15427010Y-5285420D01*
X15427010Y-5984560D02*
X15467010Y-6024560D01*
X15467010Y-5984560D02*
X15427010Y-6024560D01*
X15491780Y-7928930D02*
X15531780Y-7968930D01*
X15531780Y-7928930D02*
X15491780Y-7968930D01*
X15836508Y-3281933D02*
X15876508Y-3321933D01*
X15876508Y-3281933D02*
X15836508Y-3321933D01*
X15965818Y-5399418D02*
X16005818Y-5439418D01*
X16005818Y-5399418D02*
X15965818Y-5439418D01*
X16405622Y-6916807D02*
X16445622Y-6956807D01*
X16445622Y-6916807D02*
X16405622Y-6956807D01*
X16686850Y-7301550D02*
X16726850Y-7341550D01*
X16726850Y-7301550D02*
X16686850Y-7341550D01*
X16951010Y-7400610D02*
X16991010Y-7440610D01*
X16991010Y-7400610D02*
X16951010Y-7440610D01*
X17713010Y-7067870D02*
X17753010Y-7107870D01*
X17753010Y-7067870D02*
X17713010Y-7107870D01*
X17713568Y-3614673D02*
X17753568Y-3654673D01*
X17753568Y-3614673D02*
X17713568Y-3654673D01*
X17908032Y-5248027D02*
X17948032Y-5288027D01*
X17948032Y-5248027D02*
X17908032Y-5288027D01*
X18015270Y-4107500D02*
X18055270Y-4147500D01*
X18055270Y-4107500D02*
X18015270Y-4147500D01*
X18015270Y-4789490D02*
X18055270Y-4829490D01*
X18055270Y-4789490D02*
X18015270Y-4829490D01*
X18281412Y-7245737D02*
X18321412Y-7285737D01*
X18321412Y-7245737D02*
X18281412Y-7285737D01*
X18782908Y-9606533D02*
X18822908Y-9646533D01*
X18822908Y-9606533D02*
X18782908Y-9646533D01*
X19282656Y-6496296D02*
X19322656Y-6536296D01*
X19322656Y-6496296D02*
X19282656Y-6536296D01*
X19795810Y-3369630D02*
X19835810Y-3409630D01*
X19835810Y-3369630D02*
X19795810Y-3409630D01*
X20025680Y-3666810D02*
X20065680Y-3706810D01*
X20065680Y-3666810D02*
X20025680Y-3706810D01*
X20096800Y-7903530D02*
X20136800Y-7943530D01*
X20136800Y-7903530D02*
X20096800Y-7943530D01*
X20157202Y-7579747D02*
X20197202Y-7619747D01*
X20197202Y-7579747D02*
X20157202Y-7619747D01*
X20661238Y-9936733D02*
X20701238Y-9976733D01*
X20701238Y-9936733D02*
X20661238Y-9976733D01*
X20718542Y-9611747D02*
X20758542Y-9651747D01*
X20758542Y-9611747D02*
X20718542Y-9651747D01*
X21039140Y-2206451D02*
X21079140Y-2246451D01*
X21079140Y-2206451D02*
X21039140Y-2246451D01*
X21181380Y-3957640D02*
X21221380Y-3997640D01*
X21221380Y-3957640D02*
X21181380Y-3997640D01*
X21326160Y-6252530D02*
X21366160Y-6292530D01*
X21366160Y-6252530D02*
X21326160Y-6292530D01*
X21547140Y-2526350D02*
X21587140Y-2566350D01*
X21587140Y-2526350D02*
X21547140Y-2566350D01*
X21592860Y-3336610D02*
X21632860Y-3376610D01*
X21632860Y-3336610D02*
X21592860Y-3376610D01*
X21674286Y-8271684D02*
X21714286Y-8311684D01*
X21714286Y-8271684D02*
X21674286Y-8311684D01*
X21714780Y-5650550D02*
X21754780Y-5690550D01*
X21754780Y-5650550D02*
X21714780Y-5690550D01*
X21746786Y-6716080D02*
X21786786Y-6756080D01*
X21786786Y-6716080D02*
X21746786Y-6756080D01*
X21781378Y-9618097D02*
X21821378Y-9658097D01*
X21821378Y-9618097D02*
X21781378Y-9658097D01*
X21819286Y-5960430D02*
X21859286Y-6000430D01*
X21859286Y-5960430D02*
X21819286Y-6000430D01*
X21834160Y-9943150D02*
X21874160Y-9983150D01*
X21874160Y-9943150D02*
X21834160Y-9983150D01*
X21878216Y-3420430D02*
X21918216Y-3460430D01*
X21918216Y-3420430D02*
X21878216Y-3460430D01*
X21901470Y-6556060D02*
X21941470Y-6596060D01*
X21941470Y-6556060D02*
X21901470Y-6596060D01*
X21942110Y-7799390D02*
X21982110Y-7839390D01*
X21982110Y-7799390D02*
X21942110Y-7839390D01*
X22178330Y-5390200D02*
X22218330Y-5430200D01*
X22218330Y-5390200D02*
X22178330Y-5430200D01*
X22560600Y-6906580D02*
X22600600Y-6946580D01*
X22600600Y-6906580D02*
X22560600Y-6946580D01*
X23384272Y-7738363D02*
X23424272Y-7778363D01*
X23424272Y-7738363D02*
X23384272Y-7778363D01*
X23602558Y-3492887D02*
X23642558Y-3532887D01*
X23642558Y-3492887D02*
X23602558Y-3532887D01*
X24402658Y-5288667D02*
X24442658Y-5328667D01*
X24442658Y-5288667D02*
X24402658Y-5328667D01*
X24459962Y-5613653D02*
X24499962Y-5653653D01*
X24499962Y-5613653D02*
X24459962Y-5653653D01*
X24917720Y-6910390D02*
X24957720Y-6950390D01*
X24957720Y-6910390D02*
X24917720Y-6950390D01*
X26144540Y-1446850D02*
X26184540Y-1486850D01*
X26184540Y-1446850D02*
X26144540Y-1486850D01*
X26337022Y-5284723D02*
X26377022Y-5324723D01*
X26377022Y-5284723D02*
X26337022Y-5324723D01*
X26501410Y-4769170D02*
X26541410Y-4809170D01*
X26541410Y-4769170D02*
X26501410Y-4809170D01*
X26632220Y-4898710D02*
X26672220Y-4938710D01*
X26672220Y-4898710D02*
X26632220Y-4938710D01*
X27412712Y-3157473D02*
X27452712Y-3197473D01*
X27452712Y-3157473D02*
X27412712Y-3197473D01*
X27911110Y-8475030D02*
X27951110Y-8515030D01*
X27951110Y-8475030D02*
X27911110Y-8515030D01*
X29012912Y-6749033D02*
X29052912Y-6789033D01*
X29052912Y-6749033D02*
X29012912Y-6789033D01*
X29408440Y-3360740D02*
X29448440Y-3400740D01*
X29448440Y-3360740D02*
X29408440Y-3400740D01*
X29606560Y-4689160D02*
X29646560Y-4729160D01*
X29646560Y-4689160D02*
X29606560Y-4729160D01*
X29758904Y-2672500D02*
X29798904Y-2712500D01*
X29798904Y-2672500D02*
X29758904Y-2712500D01*
X29758904Y-3002500D02*
X29798904Y-3042500D01*
X29798904Y-3002500D02*
X29758904Y-3042500D01*
X30367290Y-6954840D02*
X30407290Y-6994840D01*
X30407290Y-6954840D02*
X30367290Y-6994840D01*
X30668280Y-7344730D02*
X30708280Y-7384730D01*
X30708280Y-7344730D02*
X30668280Y-7384730D01*
X30711404Y-4907500D02*
X30751404Y-4947500D01*
X30751404Y-4907500D02*
X30711404Y-4947500D01*
X30949529Y-6812500D02*
X30989529Y-6852500D01*
X30989529Y-6812500D02*
X30949529Y-6852500D01*
X31282904Y-5202875D02*
X31322904Y-5242875D01*
X31322904Y-5202875D02*
X31282904Y-5242875D01*
X31416382Y-8038078D02*
X31456382Y-8078078D01*
X31456382Y-8038078D02*
X31416382Y-8078078D01*
X31934935Y-8382785D02*
X31974935Y-8422785D01*
X31974935Y-8382785D02*
X31934935Y-8422785D01*
X32451360Y-7763830D02*
X32491360Y-7803830D01*
X32491360Y-7763830D02*
X32451360Y-7803830D01*
X32616404Y-4907500D02*
X32656404Y-4947500D01*
X32656404Y-4907500D02*
X32616404Y-4947500D01*
X32853950Y-6812600D02*
X32893950Y-6852600D01*
X32893950Y-6812600D02*
X32853950Y-6852600D01*
X32854529Y-8479375D02*
X32894529Y-8519375D01*
X32894529Y-8479375D02*
X32854529Y-8519375D01*
X37922520Y-7089460D02*
X37962520Y-7129460D01*
X37962520Y-7089460D02*
X37922520Y-7129460D01*
X38312404Y-8479375D02*
X38352404Y-8519375D01*
X38352404Y-8479375D02*
X38312404Y-8519375D01*
X40459660Y-647700D02*
G75*
G03*
X40459660Y-647700I-40640J0D01*
G01*
X40713660Y-647700D02*
G75*
G03*
X40713660Y-647700I-40640J0D01*
G01*
X40967660Y-647700D02*
G75*
G03*
X40967660Y-647700I-40640J0D01*
G01*
X41221660Y-647700D02*
G75*
G03*
X41221660Y-647700I-40640J0D01*
G01*
X42344904Y300000D02*
X42344904Y200000D01*
X42294904Y250000D02*
X42394904Y250000D01*
X42344904Y50000D02*
X42344904Y-50000D01*
X42294904Y0D02*
X42394904Y0D01*
X42344904Y-200000D02*
X42344904Y-300000D01*
X42294904Y-250000D02*
X42394904Y-250000D01*
X43794904Y300000D02*
X43794904Y200000D01*
X43744904Y250000D02*
X43844904Y250000D01*
X43794904Y-200000D02*
X43794904Y-300000D01*
X43744904Y-250000D02*
X43844904Y-250000D01*
X20589756Y766564D02*
X20589756Y843795D01*
X20512525Y843795D01*
X20512525Y766564D01*
X20589756Y766564D01*
X20589756Y512564D02*
X20589756Y589796D01*
X20512525Y589796D01*
X20512525Y512564D01*
X20589756Y512564D01*
X20589756Y258564D02*
X20589756Y335796D01*
X20512525Y335796D01*
X20512525Y258564D01*
X20589756Y258564D01*
X20589756Y4565D02*
X20589756Y81796D01*
X20512525Y81796D01*
X20512525Y4565D01*
X20589756Y4565D01*
X20589756Y-249435D02*
X20589756Y-172205D01*
X20512525Y-172205D01*
X20512525Y-249435D01*
X20589756Y-249435D01*
X20589756Y-503435D02*
X20589756Y-426204D01*
X20512525Y-426204D01*
X20512525Y-503435D01*
X20589756Y-503435D01*
X20589756Y-757435D02*
X20589756Y-680205D01*
X20512525Y-680205D01*
X20512525Y-757435D01*
X20589756Y-757435D01*
X20589756Y-1011435D02*
X20589756Y-934204D01*
X20512525Y-934204D01*
X20512525Y-1011435D01*
X20589756Y-1011435D01*
X20589756Y-1265436D02*
X20589756Y-1188205D01*
X20512525Y-1188205D01*
X20512525Y-1265436D01*
X20589756Y-1265436D01*
X20589756Y-1519435D02*
X20589756Y-1442204D01*
X20512525Y-1442204D01*
X20512525Y-1519435D01*
X20589756Y-1519435D01*
X20589756Y-1773435D02*
X20589756Y-1696204D01*
X20512525Y-1696204D01*
X20512525Y-1773435D01*
X20589756Y-1773435D01*
X20612616Y-2027435D02*
X20612616Y-1950204D01*
X20535385Y-1950204D01*
X20535385Y-2027435D01*
X20612616Y-2027435D01*
X20843756Y-2027435D02*
X20843756Y-1950204D01*
X20766525Y-1950204D01*
X20766525Y-2027435D01*
X20843756Y-2027435D01*
X21097756Y-2027435D02*
X21097756Y-1950204D01*
X21020525Y-1950204D01*
X21020525Y-2027435D01*
X21097756Y-2027435D01*
X21351756Y-2027435D02*
X21351756Y-1950204D01*
X21274525Y-1950204D01*
X21274525Y-2027435D01*
X21351756Y-2027435D01*
X21605756Y-2027435D02*
X21605756Y-1950204D01*
X21528525Y-1950204D01*
X21528525Y-2027435D01*
X21605756Y-2027435D01*
X21859756Y-2027435D02*
X21859756Y-1950204D01*
X21782525Y-1950204D01*
X21782525Y-2027435D01*
X21859756Y-2027435D01*
X22113756Y766564D02*
X22113756Y843795D01*
X22036525Y843795D01*
X22036525Y766564D01*
X22113756Y766564D01*
X22113756Y512564D02*
X22113756Y589796D01*
X22036525Y589796D01*
X22036525Y512564D01*
X22113756Y512564D01*
X22113756Y258564D02*
X22113756Y335796D01*
X22036525Y335796D01*
X22036525Y258564D01*
X22113756Y258564D01*
X22113756Y4565D02*
X22113756Y81796D01*
X22036525Y81796D01*
X22036525Y4565D01*
X22113756Y4565D01*
X22113756Y-249435D02*
X22113756Y-172205D01*
X22036525Y-172205D01*
X22036525Y-249435D01*
X22113756Y-249435D01*
X22113756Y-503435D02*
X22113756Y-426204D01*
X22036525Y-426204D01*
X22036525Y-503435D01*
X22113756Y-503435D01*
X22113756Y-757435D02*
X22113756Y-680205D01*
X22036525Y-680205D01*
X22036525Y-757435D01*
X22113756Y-757435D01*
X22113756Y-1011435D02*
X22113756Y-934204D01*
X22036525Y-934204D01*
X22036525Y-1011435D01*
X22113756Y-1011435D01*
X22113756Y-1265436D02*
X22113756Y-1188205D01*
X22036525Y-1188205D01*
X22036525Y-1265436D01*
X22113756Y-1265436D01*
X22113756Y-1519435D02*
X22113756Y-1442204D01*
X22036525Y-1442204D01*
X22036525Y-1519435D01*
X22113756Y-1519435D01*
X22113756Y-1773435D02*
X22113756Y-1696204D01*
X22036525Y-1696204D01*
X22036525Y-1773435D01*
X22113756Y-1773435D01*
X22113756Y-2027435D02*
X22113756Y-1950204D01*
X22036525Y-1950204D01*
X22036525Y-2027435D01*
X22113756Y-2027435D01*
X-381000Y180500D02*
X-307500Y254000D01*
X-381000Y327500D01*
X-454500Y254000D01*
X-381000Y180500D01*
X-381000Y-1724500D02*
X-307500Y-1651000D01*
X-381000Y-1577500D01*
X-454500Y-1651000D01*
X-381000Y-1724500D01*
X-381000Y-3629500D02*
X-307500Y-3556000D01*
X-381000Y-3482500D01*
X-454500Y-3556000D01*
X-381000Y-3629500D01*
X-381000Y-5534500D02*
X-307500Y-5461000D01*
X-381000Y-5387500D01*
X-454500Y-5461000D01*
X-381000Y-5534500D01*
X-381000Y-7439500D02*
X-307500Y-7366000D01*
X-381000Y-7292500D01*
X-454500Y-7366000D01*
X-381000Y-7439500D01*
X254000Y434500D02*
X327500Y508000D01*
X254000Y581500D01*
X180500Y508000D01*
X254000Y434500D01*
X254000Y-1470500D02*
X327500Y-1397000D01*
X254000Y-1323500D01*
X180500Y-1397000D01*
X254000Y-1470500D01*
X254000Y-3375500D02*
X327500Y-3302000D01*
X254000Y-3228500D01*
X180500Y-3302000D01*
X254000Y-3375500D01*
X254000Y-5280500D02*
X327500Y-5207000D01*
X254000Y-5133500D01*
X180500Y-5207000D01*
X254000Y-5280500D01*
X254000Y-7185500D02*
X327500Y-7112000D01*
X254000Y-7038500D01*
X180500Y-7112000D01*
X254000Y-7185500D01*
X571500Y-7439500D02*
X645000Y-7366000D01*
X571500Y-7292500D01*
X498000Y-7366000D01*
X571500Y-7439500D01*
X1206500Y-7185500D02*
X1280000Y-7112000D01*
X1206500Y-7038500D01*
X1133000Y-7112000D01*
X1206500Y-7185500D01*
X1524000Y180500D02*
X1597500Y254000D01*
X1524000Y327500D01*
X1450500Y254000D01*
X1524000Y180500D01*
X1524000Y-1724500D02*
X1597500Y-1651000D01*
X1524000Y-1577500D01*
X1450500Y-1651000D01*
X1524000Y-1724500D01*
X1524000Y-3629500D02*
X1597500Y-3556000D01*
X1524000Y-3482500D01*
X1450500Y-3556000D01*
X1524000Y-3629500D01*
X1524000Y-5534500D02*
X1597500Y-5461000D01*
X1524000Y-5387500D01*
X1450500Y-5461000D01*
X1524000Y-5534500D01*
X1524000Y-7439500D02*
X1597500Y-7366000D01*
X1524000Y-7292500D01*
X1450500Y-7366000D01*
X1524000Y-7439500D01*
X2159000Y434500D02*
X2232500Y508000D01*
X2159000Y581500D01*
X2085500Y508000D01*
X2159000Y434500D01*
X2159000Y-1470500D02*
X2232500Y-1397000D01*
X2159000Y-1323500D01*
X2085500Y-1397000D01*
X2159000Y-1470500D01*
X2159000Y-3375500D02*
X2232500Y-3302000D01*
X2159000Y-3228500D01*
X2085500Y-3302000D01*
X2159000Y-3375500D01*
X2159000Y-5280500D02*
X2232500Y-5207000D01*
X2159000Y-5133500D01*
X2085500Y-5207000D01*
X2159000Y-5280500D01*
X2159000Y-7185500D02*
X2232500Y-7112000D01*
X2159000Y-7038500D01*
X2085500Y-7112000D01*
X2159000Y-7185500D01*
X3429000Y180500D02*
X3502500Y254000D01*
X3429000Y327500D01*
X3355500Y254000D01*
X3429000Y180500D01*
X3429000Y-1724500D02*
X3502500Y-1651000D01*
X3429000Y-1577500D01*
X3355500Y-1651000D01*
X3429000Y-1724500D01*
X3429000Y-3629500D02*
X3502500Y-3556000D01*
X3429000Y-3482500D01*
X3355500Y-3556000D01*
X3429000Y-3629500D01*
X3429000Y-5534500D02*
X3502500Y-5461000D01*
X3429000Y-5387500D01*
X3355500Y-5461000D01*
X3429000Y-5534500D01*
X3429000Y-7439500D02*
X3502500Y-7366000D01*
X3429000Y-7292500D01*
X3355500Y-7366000D01*
X3429000Y-7439500D01*
X4064000Y434500D02*
X4137500Y508000D01*
X4064000Y581500D01*
X3990500Y508000D01*
X4064000Y434500D01*
X4064000Y-1470500D02*
X4137500Y-1397000D01*
X4064000Y-1323500D01*
X3990500Y-1397000D01*
X4064000Y-1470500D01*
X4064000Y-3375500D02*
X4137500Y-3302000D01*
X4064000Y-3228500D01*
X3990500Y-3302000D01*
X4064000Y-3375500D01*
X4064000Y-5280500D02*
X4137500Y-5207000D01*
X4064000Y-5133500D01*
X3990500Y-5207000D01*
X4064000Y-5280500D01*
X4064000Y-7185500D02*
X4137500Y-7112000D01*
X4064000Y-7038500D01*
X3990500Y-7112000D01*
X4064000Y-7185500D01*
X5207000Y-2677000D02*
X5280500Y-2603500D01*
X5207000Y-2530000D01*
X5133500Y-2603500D01*
X5207000Y-2677000D01*
X5207000Y-6487000D02*
X5280500Y-6413500D01*
X5207000Y-6340000D01*
X5133500Y-6413500D01*
X5207000Y-6487000D01*
X5334000Y180500D02*
X5407500Y254000D01*
X5334000Y327500D01*
X5260500Y254000D01*
X5334000Y180500D01*
X5461000Y-3312000D02*
X5534500Y-3238500D01*
X5461000Y-3165000D01*
X5387500Y-3238500D01*
X5461000Y-3312000D01*
X5461000Y-7122000D02*
X5534500Y-7048500D01*
X5461000Y-6975000D01*
X5387500Y-7048500D01*
X5461000Y-7122000D01*
X5969000Y434500D02*
X6042500Y508000D01*
X5969000Y581500D01*
X5895500Y508000D01*
X5969000Y434500D01*
X7477125Y418625D02*
X7550625Y492125D01*
X7477125Y565625D01*
X7403625Y492125D01*
X7477125Y418625D01*
X7715250Y-3629500D02*
X7788750Y-3556000D01*
X7715250Y-3482500D01*
X7641750Y-3556000D01*
X7715250Y-3629500D01*
X7715250Y-7439500D02*
X7788750Y-7366000D01*
X7715250Y-7292500D01*
X7641750Y-7366000D01*
X7715250Y-7439500D01*
X7953375Y-1724500D02*
X8026875Y-1651000D01*
X7953375Y-1577500D01*
X7879875Y-1651000D01*
X7953375Y-1724500D01*
X8112125Y672625D02*
X8185625Y746125D01*
X8112125Y819625D01*
X8038625Y746125D01*
X8112125Y672625D01*
X8191500Y-3629500D02*
X8265000Y-3556000D01*
X8191500Y-3482500D01*
X8118000Y-3556000D01*
X8191500Y-3629500D01*
X8350250Y-3375500D02*
X8423750Y-3302000D01*
X8350250Y-3228500D01*
X8276750Y-3302000D01*
X8350250Y-3375500D01*
X8350250Y-7185500D02*
X8423750Y-7112000D01*
X8350250Y-7038500D01*
X8276750Y-7112000D01*
X8350250Y-7185500D01*
X8429625Y-5534500D02*
X8503125Y-5461000D01*
X8429625Y-5387500D01*
X8356125Y-5461000D01*
X8429625Y-5534500D01*
X8588375Y-1470500D02*
X8661875Y-1397000D01*
X8588375Y-1323500D01*
X8514875Y-1397000D01*
X8588375Y-1470500D01*
X8826500Y-3375500D02*
X8900000Y-3302000D01*
X8826500Y-3228500D01*
X8753000Y-3302000D01*
X8826500Y-3375500D01*
X9064625Y-5280500D02*
X9138125Y-5207000D01*
X9064625Y-5133500D01*
X8991125Y-5207000D01*
X9064625Y-5280500D01*
X9382125Y180500D02*
X9455625Y254000D01*
X9382125Y327500D01*
X9308625Y254000D01*
X9382125Y180500D01*
X10017125Y434500D02*
X10090625Y508000D01*
X10017125Y581500D01*
X9943625Y508000D01*
X10017125Y434500D01*
X10096500Y-7439500D02*
X10170000Y-7366000D01*
X10096500Y-7292500D01*
X10023000Y-7366000D01*
X10096500Y-7439500D01*
X10334625Y-1724500D02*
X10408125Y-1651000D01*
X10334625Y-1577500D01*
X10261125Y-1651000D01*
X10334625Y-1724500D01*
X10731500Y-7185500D02*
X10805000Y-7112000D01*
X10731500Y-7038500D01*
X10658000Y-7112000D01*
X10731500Y-7185500D01*
X10810875Y-3629500D02*
X10884375Y-3556000D01*
X10810875Y-3482500D01*
X10737375Y-3556000D01*
X10810875Y-3629500D01*
X10969625Y-1470500D02*
X11043125Y-1397000D01*
X10969625Y-1323500D01*
X10896125Y-1397000D01*
X10969625Y-1470500D01*
X11287125Y180500D02*
X11360625Y254000D01*
X11287125Y327500D01*
X11213625Y254000D01*
X11287125Y180500D01*
X11287125Y-5534500D02*
X11360625Y-5461000D01*
X11287125Y-5387500D01*
X11213625Y-5461000D01*
X11287125Y-5534500D01*
X11445875Y-3375500D02*
X11519375Y-3302000D01*
X11445875Y-3228500D01*
X11372375Y-3302000D01*
X11445875Y-3375500D01*
X11922125Y434500D02*
X11995625Y508000D01*
X11922125Y581500D01*
X11848625Y508000D01*
X11922125Y434500D01*
X11922125Y-5280500D02*
X11995625Y-5207000D01*
X11922125Y-5133500D01*
X11848625Y-5207000D01*
X11922125Y-5280500D01*
X12863640Y-1701922D02*
X12937140Y-1628422D01*
X12863640Y-1554922D01*
X12790140Y-1628422D01*
X12863640Y-1701922D01*
X13001855Y-3660681D02*
X13075355Y-3587181D01*
X13001855Y-3513681D01*
X12928355Y-3587181D01*
X13001855Y-3660681D01*
X13192125Y418625D02*
X13265625Y492125D01*
X13192125Y565625D01*
X13118625Y492125D01*
X13192125Y418625D01*
X13214843Y-7663731D02*
X13288343Y-7590231D01*
X13214843Y-7516731D01*
X13141343Y-7590231D01*
X13214843Y-7663731D01*
X13374577Y-5660789D02*
X13448077Y-5587289D01*
X13374577Y-5513789D01*
X13301077Y-5587289D01*
X13374577Y-5660789D01*
X13533099Y-1562047D02*
X13606599Y-1488547D01*
X13533099Y-1415047D01*
X13459599Y-1488547D01*
X13533099Y-1562047D01*
X13671315Y-3520806D02*
X13744815Y-3447306D01*
X13671315Y-3373806D01*
X13597815Y-3447306D01*
X13671315Y-3520806D01*
X13827125Y672625D02*
X13900625Y746125D01*
X13827125Y819625D01*
X13753625Y746125D01*
X13827125Y672625D01*
X13884303Y-7523856D02*
X13957803Y-7450356D01*
X13884303Y-7376856D01*
X13810803Y-7450356D01*
X13884303Y-7523856D01*
X14044037Y-5520915D02*
X14117537Y-5447415D01*
X14044037Y-5373915D01*
X13970537Y-5447415D01*
X14044037Y-5520915D01*
X14739699Y-2032722D02*
X14813199Y-1959222D01*
X14739699Y-1885722D01*
X14666199Y-1959222D01*
X14739699Y-2032722D01*
X14877914Y-3991480D02*
X14951414Y-3917980D01*
X14877914Y-3844480D01*
X14804414Y-3917980D01*
X14877914Y-3991480D01*
X15250636Y-5991589D02*
X15324136Y-5918089D01*
X15250636Y-5844589D01*
X15177136Y-5918089D01*
X15250636Y-5991589D01*
X15305006Y-198013D02*
X15378506Y-124513D01*
X15305006Y-51013D01*
X15231506Y-124513D01*
X15305006Y-198013D01*
X15409158Y-1892847D02*
X15482658Y-1819347D01*
X15409158Y-1745847D01*
X15335658Y-1819347D01*
X15409158Y-1892847D01*
X15547373Y-3851606D02*
X15620873Y-3778106D01*
X15547373Y-3704606D01*
X15473873Y-3778106D01*
X15547373Y-3851606D01*
X15920095Y-5851714D02*
X15993595Y-5778214D01*
X15920095Y-5704714D01*
X15846595Y-5778214D01*
X15920095Y-5851714D01*
X15974465Y-58138D02*
X16047965Y15362D01*
X15974465Y88862D01*
X15900965Y15362D01*
X15974465Y-58138D01*
X16497946Y-8242630D02*
X16571446Y-8169130D01*
X16497946Y-8095630D01*
X16424446Y-8169130D01*
X16497946Y-8242630D01*
X16615757Y-2363521D02*
X16689257Y-2290021D01*
X16615757Y-2216521D01*
X16542257Y-2290021D01*
X16615757Y-2363521D01*
X16753972Y-4322280D02*
X16827473Y-4248780D01*
X16753972Y-4175280D01*
X16680472Y-4248780D01*
X16753972Y-4322280D01*
X17126695Y-6322388D02*
X17200195Y-6248888D01*
X17126695Y-6175388D01*
X17053195Y-6248888D01*
X17126695Y-6322388D01*
X17167406Y-8102756D02*
X17240906Y-8029256D01*
X17167406Y-7955756D01*
X17093906Y-8029256D01*
X17167406Y-8102756D01*
X17181064Y-528813D02*
X17254564Y-455312D01*
X17181064Y-381812D01*
X17107564Y-455312D01*
X17181064Y-528813D01*
X17285217Y-2223647D02*
X17358717Y-2150147D01*
X17285217Y-2076647D01*
X17211717Y-2150147D01*
X17285217Y-2223647D01*
X17423432Y-4182405D02*
X17496932Y-4108905D01*
X17423432Y-4035405D01*
X17349932Y-4108905D01*
X17423432Y-4182405D01*
X17796154Y-6182514D02*
X17869654Y-6109014D01*
X17796154Y-6035514D01*
X17722654Y-6109014D01*
X17796154Y-6182514D01*
X17850524Y-388938D02*
X17924024Y-315438D01*
X17850524Y-241938D01*
X17777024Y-315438D01*
X17850524Y-388938D01*
X18491816Y-2694321D02*
X18565316Y-2620821D01*
X18491816Y-2547321D01*
X18418316Y-2620821D01*
X18491816Y-2694321D01*
X18630031Y-4653080D02*
X18703531Y-4579580D01*
X18630031Y-4506080D01*
X18556531Y-4579580D01*
X18630031Y-4653080D01*
X19002753Y-6653188D02*
X19076253Y-6579688D01*
X19002753Y-6506188D01*
X18929253Y-6579688D01*
X19002753Y-6653188D01*
X19057123Y-859612D02*
X19130623Y-786112D01*
X19057123Y-712612D01*
X18983623Y-786112D01*
X19057123Y-859612D01*
X19161276Y-2554446D02*
X19234776Y-2480946D01*
X19161276Y-2407446D01*
X19087776Y-2480946D01*
X19161276Y-2554446D01*
X19299491Y-4513205D02*
X19372991Y-4439705D01*
X19299491Y-4366205D01*
X19225991Y-4439705D01*
X19299491Y-4513205D01*
X19563082Y-8686377D02*
X19636582Y-8612877D01*
X19563082Y-8539377D01*
X19489582Y-8612877D01*
X19563082Y-8686377D01*
X19672213Y-6513314D02*
X19745713Y-6439814D01*
X19672213Y-6366314D01*
X19598713Y-6439814D01*
X19672213Y-6513314D01*
X19726583Y-719738D02*
X19800083Y-646238D01*
X19726583Y-572738D01*
X19653083Y-646238D01*
X19726583Y-719738D01*
X20232541Y-8546502D02*
X20306041Y-8473002D01*
X20232541Y-8399502D01*
X20159041Y-8473002D01*
X20232541Y-8546502D01*
X21895250Y-6950908D02*
X21968750Y-6877408D01*
X21895250Y-6803908D01*
X21821750Y-6877408D01*
X21895250Y-6950908D01*
X22171680Y-3033391D02*
X22245180Y-2959891D01*
X22171680Y-2886391D01*
X22098180Y-2959891D01*
X22171680Y-3033391D01*
X22476496Y-6590500D02*
X22549996Y-6517000D01*
X22476496Y-6443500D01*
X22402996Y-6517000D01*
X22476496Y-6590500D01*
X22752926Y-2672983D02*
X22826426Y-2599483D01*
X22752926Y-2525983D01*
X22679426Y-2599483D01*
X22752926Y-2672983D01*
X22778910Y-991932D02*
X22852410Y-918432D01*
X22778910Y-844932D01*
X22705410Y-918432D01*
X22778910Y-991932D01*
X22971494Y-4826750D02*
X23044994Y-4753250D01*
X22971494Y-4679750D01*
X22897994Y-4753250D01*
X22971494Y-4826750D01*
X23360156Y-631524D02*
X23433656Y-558024D01*
X23360156Y-484524D01*
X23286656Y-558024D01*
X23360156Y-631524D01*
X23552741Y-4466342D02*
X23626241Y-4392842D01*
X23552741Y-4319342D01*
X23479241Y-4392842D01*
X23552741Y-4466342D01*
X23771309Y-6620108D02*
X23844809Y-6546608D01*
X23771309Y-6473108D01*
X23697809Y-6546608D01*
X23771309Y-6620108D01*
X23867601Y-8537517D02*
X23941101Y-8464017D01*
X23867601Y-8390517D01*
X23794101Y-8464017D01*
X23867601Y-8537517D01*
X24047739Y-2702591D02*
X24121239Y-2629091D01*
X24047739Y-2555591D01*
X23974239Y-2629091D01*
X24047739Y-2702591D01*
X24352555Y-6259700D02*
X24426055Y-6186200D01*
X24352555Y-6112700D01*
X24279055Y-6186200D01*
X24352555Y-6259700D01*
X24448847Y-8177109D02*
X24522347Y-8103609D01*
X24448847Y-8030109D01*
X24375347Y-8103609D01*
X24448847Y-8177109D01*
X24628985Y-2342183D02*
X24702485Y-2268683D01*
X24628985Y-2195183D01*
X24555485Y-2268683D01*
X24628985Y-2342183D01*
X24654968Y-661132D02*
X24728468Y-587632D01*
X24654968Y-514132D01*
X24581468Y-587632D01*
X24654968Y-661132D01*
X24847553Y-4495950D02*
X24921053Y-4422450D01*
X24847553Y-4348950D01*
X24774053Y-4422450D01*
X24847553Y-4495950D01*
X25236215Y-300725D02*
X25309715Y-227225D01*
X25236215Y-153725D01*
X25162715Y-227225D01*
X25236215Y-300725D01*
X25428799Y-4135542D02*
X25502299Y-4062042D01*
X25428799Y-3988542D01*
X25355299Y-4062042D01*
X25428799Y-4135542D01*
X25647368Y-6289308D02*
X25720868Y-6215808D01*
X25647368Y-6142308D01*
X25573868Y-6215808D01*
X25647368Y-6289308D01*
X25923797Y-2371791D02*
X25997297Y-2298291D01*
X25923797Y-2224791D01*
X25850297Y-2298291D01*
X25923797Y-2371791D01*
X26228614Y-5928901D02*
X26302114Y-5855401D01*
X26228614Y-5781901D01*
X26155114Y-5855401D01*
X26228614Y-5928901D01*
X26505044Y-2011383D02*
X26578544Y-1937883D01*
X26505044Y-1864383D01*
X26431544Y-1937883D01*
X26505044Y-2011383D01*
X26531027Y-330333D02*
X26604527Y-256833D01*
X26531027Y-183333D01*
X26457527Y-256833D01*
X26531027Y-330333D01*
X26723612Y-4165150D02*
X26797112Y-4091650D01*
X26723612Y-4018150D01*
X26650112Y-4091650D01*
X26723612Y-4165150D01*
X27112273Y30075D02*
X27185773Y103575D01*
X27112273Y177075D01*
X27038773Y103575D01*
X27112273Y30075D01*
X27304858Y-3804742D02*
X27378358Y-3731242D01*
X27304858Y-3657742D01*
X27231358Y-3731242D01*
X27304858Y-3804742D01*
X27523426Y-5958509D02*
X27596926Y-5885009D01*
X27523426Y-5811509D01*
X27449926Y-5885009D01*
X27523426Y-5958509D01*
X27619719Y-7875917D02*
X27693219Y-7802417D01*
X27619719Y-7728917D01*
X27546219Y-7802417D01*
X27619719Y-7875917D01*
X27799856Y-2040992D02*
X27873356Y-1967492D01*
X27799856Y-1893992D01*
X27726356Y-1967492D01*
X27799856Y-2040992D01*
X28104673Y-5598101D02*
X28178173Y-5524601D01*
X28104673Y-5451101D01*
X28031173Y-5524601D01*
X28104673Y-5598101D01*
X28200965Y-7515510D02*
X28274465Y-7442010D01*
X28200965Y-7368510D01*
X28127465Y-7442010D01*
X28200965Y-7515510D01*
X28381102Y-1680584D02*
X28454602Y-1607084D01*
X28381102Y-1533584D01*
X28307602Y-1607084D01*
X28381102Y-1680584D01*
X28407086Y467D02*
X28480586Y73967D01*
X28407086Y147467D01*
X28333586Y73967D01*
X28407086Y467D01*
X28599671Y-3834350D02*
X28673171Y-3760850D01*
X28599671Y-3687350D01*
X28526171Y-3760850D01*
X28599671Y-3834350D01*
X28988332Y360875D02*
X29061832Y434375D01*
X28988332Y507875D01*
X28914832Y434375D01*
X28988332Y360875D01*
X29180917Y-3473943D02*
X29254417Y-3400443D01*
X29180917Y-3326943D01*
X29107417Y-3400443D01*
X29180917Y-3473943D01*
X29399485Y-5627709D02*
X29472985Y-5554209D01*
X29399485Y-5480709D01*
X29325985Y-5554209D01*
X29399485Y-5627709D01*
X29675915Y-1710192D02*
X29749415Y-1636692D01*
X29675915Y-1563192D01*
X29602415Y-1636692D01*
X29675915Y-1710192D01*
X29980731Y-5267301D02*
X30054231Y-5193801D01*
X29980731Y-5120301D01*
X29907231Y-5193801D01*
X29980731Y-5267301D01*
X30257161Y-1349784D02*
X30330661Y-1276284D01*
X30257161Y-1202784D01*
X30183661Y-1276284D01*
X30257161Y-1349784D01*
X30588529Y418625D02*
X30662029Y492125D01*
X30588529Y565625D01*
X30515029Y492125D01*
X30588529Y418625D01*
X31223529Y672625D02*
X31297029Y746125D01*
X31223529Y819625D01*
X31150029Y746125D01*
X31223529Y672625D01*
X31302904Y-3629500D02*
X31376404Y-3556000D01*
X31302904Y-3482500D01*
X31229404Y-3556000D01*
X31302904Y-3629500D01*
X31302904Y-7439500D02*
X31376404Y-7366000D01*
X31302904Y-7292500D01*
X31229404Y-7366000D01*
X31302904Y-7439500D01*
X31541029Y-5534500D02*
X31614529Y-5461000D01*
X31541029Y-5387500D01*
X31467529Y-5461000D01*
X31541029Y-5534500D01*
X31779154Y-1724500D02*
X31852654Y-1651000D01*
X31779154Y-1577500D01*
X31705654Y-1651000D01*
X31779154Y-1724500D01*
X31937904Y-3375500D02*
X32011404Y-3302000D01*
X31937904Y-3228500D01*
X31864404Y-3302000D01*
X31937904Y-3375500D01*
X31937904Y-7185500D02*
X32011404Y-7112000D01*
X31937904Y-7038500D01*
X31864404Y-7112000D01*
X31937904Y-7185500D01*
X32176029Y-5280500D02*
X32249529Y-5207000D01*
X32176029Y-5133500D01*
X32102529Y-5207000D01*
X32176029Y-5280500D01*
X32414154Y-1470500D02*
X32487654Y-1397000D01*
X32414154Y-1323500D01*
X32340654Y-1397000D01*
X32414154Y-1470500D01*
X32493529Y180500D02*
X32567029Y254000D01*
X32493529Y327500D01*
X32420029Y254000D01*
X32493529Y180500D01*
X33128529Y434500D02*
X33202029Y508000D01*
X33128529Y581500D01*
X33055029Y508000D01*
X33128529Y434500D01*
X33207904Y-3629500D02*
X33281404Y-3556000D01*
X33207904Y-3482500D01*
X33134404Y-3556000D01*
X33207904Y-3629500D01*
X33684154Y-1724500D02*
X33757654Y-1651000D01*
X33684154Y-1577500D01*
X33610654Y-1651000D01*
X33684154Y-1724500D01*
X33684154Y-7439500D02*
X33757654Y-7366000D01*
X33684154Y-7292500D01*
X33610654Y-7366000D01*
X33684154Y-7439500D01*
X33842904Y-3375500D02*
X33916404Y-3302000D01*
X33842904Y-3228500D01*
X33769404Y-3302000D01*
X33842904Y-3375500D01*
X34319154Y-1470500D02*
X34392654Y-1397000D01*
X34319154Y-1323500D01*
X34245654Y-1397000D01*
X34319154Y-1470500D01*
X34319154Y-7185500D02*
X34392654Y-7112000D01*
X34319154Y-7038500D01*
X34245654Y-7112000D01*
X34319154Y-7185500D01*
X34398529Y180500D02*
X34472029Y254000D01*
X34398529Y327500D01*
X34325029Y254000D01*
X34398529Y180500D01*
X34636654Y-5534500D02*
X34710154Y-5461000D01*
X34636654Y-5387500D01*
X34563154Y-5461000D01*
X34636654Y-5534500D01*
X35033529Y434500D02*
X35107029Y508000D01*
X35033529Y581500D01*
X34960029Y508000D01*
X35033529Y434500D01*
X35112904Y-5534500D02*
X35186404Y-5461000D01*
X35112904Y-5387500D01*
X35039404Y-5461000D01*
X35112904Y-5534500D01*
X35271654Y-5280500D02*
X35345154Y-5207000D01*
X35271654Y-5133500D01*
X35198154Y-5207000D01*
X35271654Y-5280500D01*
X35747904Y-5280500D02*
X35821404Y-5207000D01*
X35747904Y-5133500D01*
X35674404Y-5207000D01*
X35747904Y-5280500D01*
X36065404Y-1724500D02*
X36138904Y-1651000D01*
X36065404Y-1577500D01*
X35991904Y-1651000D01*
X36065404Y-1724500D01*
X36065404Y-7439500D02*
X36138904Y-7366000D01*
X36065404Y-7292500D01*
X35991904Y-7366000D01*
X36065404Y-7439500D01*
X36303529Y-3629500D02*
X36377029Y-3556000D01*
X36303529Y-3482500D01*
X36230029Y-3556000D01*
X36303529Y-3629500D01*
X36700404Y-1470500D02*
X36773904Y-1397000D01*
X36700404Y-1323500D01*
X36626904Y-1397000D01*
X36700404Y-1470500D01*
X36700404Y-7185500D02*
X36773904Y-7112000D01*
X36700404Y-7038500D01*
X36626904Y-7112000D01*
X36700404Y-7185500D01*
X36938529Y-3375500D02*
X37012029Y-3302000D01*
X36938529Y-3228500D01*
X36865029Y-3302000D01*
X36938529Y-3375500D01*
X37256029Y180500D02*
X37329529Y254000D01*
X37256029Y327500D01*
X37182529Y254000D01*
X37256029Y180500D01*
X37732279Y-5534500D02*
X37805779Y-5461000D01*
X37732279Y-5387500D01*
X37658779Y-5461000D01*
X37732279Y-5534500D01*
X37891029Y434500D02*
X37964529Y508000D01*
X37891029Y581500D01*
X37817529Y508000D01*
X37891029Y434500D01*
X38367279Y-5280500D02*
X38440779Y-5207000D01*
X38367279Y-5133500D01*
X38293779Y-5207000D01*
X38367279Y-5280500D01*
X38903904Y-7439500D02*
X38977404Y-7366000D01*
X38903904Y-7292500D01*
X38830404Y-7366000D01*
X38903904Y-7439500D01*
X39538904Y-7185500D02*
X39612404Y-7112000D01*
X39538904Y-7038500D01*
X39465404Y-7112000D01*
X39538904Y-7185500D01*
X40808904Y-5534500D02*
X40882404Y-5461000D01*
X40808904Y-5387500D01*
X40735404Y-5461000D01*
X40808904Y-5534500D01*
X40808904Y-7439500D02*
X40882404Y-7366000D01*
X40808904Y-7292500D01*
X40735404Y-7366000D01*
X40808904Y-7439500D01*
X41443904Y-5280500D02*
X41517404Y-5207000D01*
X41443904Y-5133500D01*
X41370404Y-5207000D01*
X41443904Y-5280500D01*
X41443904Y-7185500D02*
X41517404Y-7112000D01*
X41443904Y-7038500D01*
X41370404Y-7112000D01*
X41443904Y-7185500D01*
X42713904Y-1724500D02*
X42787404Y-1651000D01*
X42713904Y-1577500D01*
X42640404Y-1651000D01*
X42713904Y-1724500D01*
X42713904Y-3629500D02*
X42787404Y-3556000D01*
X42713904Y-3482500D01*
X42640404Y-3556000D01*
X42713904Y-3629500D01*
X42713904Y-7439500D02*
X42787404Y-7366000D01*
X42713904Y-7292500D01*
X42640404Y-7366000D01*
X42713904Y-7439500D01*
X43348904Y-1470500D02*
X43422404Y-1397000D01*
X43348904Y-1323500D01*
X43275404Y-1397000D01*
X43348904Y-1470500D01*
X43348904Y-3375500D02*
X43422404Y-3302000D01*
X43348904Y-3228500D01*
X43275404Y-3302000D01*
X43348904Y-3375500D01*
X43348904Y-7185500D02*
X43422404Y-7112000D01*
X43348904Y-7038500D01*
X43275404Y-7112000D01*
X43348904Y-7185500D01*
X43019904Y635000D02*
X43169904Y485000D01*
X43169904Y635000D02*
X43019904Y485000D01*
X43169904Y560000D02*
G75*
G03*
X43169904Y560000I-75000J0D01*
G01*
X43029904Y495000D02*
X43159904Y495000D01*
X43029904Y625000D02*
X43159904Y625000D01*
X43159904Y495000D02*
G75*
G03*
X43159904Y625000I0J65000D01*
G01*
X43029904Y625000D02*
G75*
G03*
X43029904Y495000I0J-65000D01*
G01*
X43019904Y-485000D02*
X43169904Y-635000D01*
X43169904Y-485000D02*
X43019904Y-635000D01*
X43169904Y-560000D02*
G75*
G03*
X43169904Y-560000I-75000J0D01*
G01*
X43029904Y-625000D02*
X43159904Y-625000D01*
X43029904Y-495000D02*
X43159904Y-495000D01*
X43159904Y-625000D02*
G75*
G03*
X43159904Y-495000I0J65000D01*
G01*
X43029904Y-495000D02*
G75*
G03*
X43029904Y-625000I0J-65000D01*
G01*
X2747500Y66820D02*
X2967500Y-153180D01*
X2967500Y66820D02*
X2747500Y-153180D01*
X2857500Y66820D02*
X2857500Y-153180D01*
X2747500Y-43180D02*
X2967500Y-43180D01*
X3700000Y-6557500D02*
X3920000Y-6777500D01*
X3920000Y-6557500D02*
X3700000Y-6777500D01*
X3810000Y-6557500D02*
X3810000Y-6777500D01*
X3700000Y-6667500D02*
X3920000Y-6667500D01*
X12134070Y-3706350D02*
X12354070Y-3926350D01*
X12354070Y-3706350D02*
X12134070Y-3926350D01*
X12244070Y-3706350D02*
X12244070Y-3926350D01*
X12134070Y-3816350D02*
X12354070Y-3816350D01*
X17845260Y560850D02*
X18065260Y340850D01*
X18065260Y560850D02*
X17845260Y340850D01*
X17955260Y560850D02*
X17955260Y340850D01*
X17845260Y450850D02*
X18065260Y450850D01*
X21112970Y-4735050D02*
X21332970Y-4955050D01*
X21332970Y-4735050D02*
X21112970Y-4955050D01*
X21222970Y-4735050D02*
X21222970Y-4955050D01*
X21112970Y-4845050D02*
X21332970Y-4845050D01*
X21112970Y-9044160D02*
X21332970Y-9264160D01*
X21332970Y-9044160D02*
X21112970Y-9264160D01*
X21222970Y-9044160D02*
X21222970Y-9264160D01*
X21112970Y-9154160D02*
X21332970Y-9154160D01*
X24172400Y560850D02*
X24392400Y340850D01*
X24392400Y560850D02*
X24172400Y340850D01*
X24282400Y560850D02*
X24282400Y340850D01*
X24172400Y450850D02*
X24392400Y450850D01*
X30253160Y-3806680D02*
X30473160Y-4026680D01*
X30473160Y-3806680D02*
X30253160Y-4026680D01*
X30363160Y-3806680D02*
X30363160Y-4026680D01*
X30253160Y-3916680D02*
X30473160Y-3916680D01*
X39449230Y66820D02*
X39669230Y-153180D01*
X39669230Y66820D02*
X39449230Y-153180D01*
X39559230Y66820D02*
X39559230Y-153180D01*
X39449230Y-43180D02*
X39669230Y-43180D01*
X39449230Y-6275560D02*
X39669230Y-6495560D01*
X39669230Y-6275560D02*
X39449230Y-6495560D01*
X39559230Y-6275560D02*
X39559230Y-6495560D01*
X39449230Y-6385560D02*
X39669230Y-6385560D01*
X-595500Y87500D02*
X-420500Y-87500D01*
X-420500Y87500D02*
X-595500Y-87500D01*
X-446128Y-61872D02*
X-446128Y61872D01*
X-569872Y61872D01*
X-569872Y-61872D01*
X-446128Y-61872D01*
X-595500Y-1817500D02*
X-420500Y-1992500D01*
X-420500Y-1817500D02*
X-595500Y-1992500D01*
X-446128Y-1966872D02*
X-446128Y-1843128D01*
X-569872Y-1843128D01*
X-569872Y-1966872D01*
X-446128Y-1966872D01*
X-595500Y-3722500D02*
X-420500Y-3897500D01*
X-420500Y-3722500D02*
X-595500Y-3897500D01*
X-446128Y-3871872D02*
X-446128Y-3748128D01*
X-569872Y-3748128D01*
X-569872Y-3871872D01*
X-446128Y-3871872D01*
X-595500Y-5627500D02*
X-420500Y-5802500D01*
X-420500Y-5627500D02*
X-595500Y-5802500D01*
X-446128Y-5776872D02*
X-446128Y-5653128D01*
X-569872Y-5653128D01*
X-569872Y-5776872D01*
X-446128Y-5776872D01*
X-595500Y-7532500D02*
X-420500Y-7707500D01*
X-420500Y-7532500D02*
X-595500Y-7707500D01*
X-446128Y-7681872D02*
X-446128Y-7558128D01*
X-569872Y-7558128D01*
X-569872Y-7681872D01*
X-446128Y-7681872D01*
X357000Y-7532500D02*
X532000Y-7707500D01*
X532000Y-7532500D02*
X357000Y-7707500D01*
X506372Y-7681872D02*
X506372Y-7558128D01*
X382628Y-7558128D01*
X382628Y-7681872D01*
X506372Y-7681872D01*
X420500Y87500D02*
X595500Y-87500D01*
X595500Y87500D02*
X420500Y-87500D01*
X569872Y-61872D02*
X569872Y61872D01*
X446128Y61872D01*
X446128Y-61872D01*
X569872Y-61872D01*
X420500Y-1817500D02*
X595500Y-1992500D01*
X595500Y-1817500D02*
X420500Y-1992500D01*
X569872Y-1966872D02*
X569872Y-1843128D01*
X446128Y-1843128D01*
X446128Y-1966872D01*
X569872Y-1966872D01*
X420500Y-3722500D02*
X595500Y-3897500D01*
X595500Y-3722500D02*
X420500Y-3897500D01*
X569872Y-3871872D02*
X569872Y-3748128D01*
X446128Y-3748128D01*
X446128Y-3871872D01*
X569872Y-3871872D01*
X420500Y-5627500D02*
X595500Y-5802500D01*
X595500Y-5627500D02*
X420500Y-5802500D01*
X569872Y-5776872D02*
X569872Y-5653128D01*
X446128Y-5653128D01*
X446128Y-5776872D01*
X569872Y-5776872D01*
X420500Y-7532500D02*
X595500Y-7707500D01*
X595500Y-7532500D02*
X420500Y-7707500D01*
X569872Y-7681872D02*
X569872Y-7558128D01*
X446128Y-7558128D01*
X446128Y-7681872D01*
X569872Y-7681872D01*
X1309500Y87500D02*
X1484500Y-87500D01*
X1484500Y87500D02*
X1309500Y-87500D01*
X1458872Y-61872D02*
X1458872Y61872D01*
X1335128Y61872D01*
X1335128Y-61872D01*
X1458872Y-61872D01*
X1309500Y-1817500D02*
X1484500Y-1992500D01*
X1484500Y-1817500D02*
X1309500Y-1992500D01*
X1458872Y-1966872D02*
X1458872Y-1843128D01*
X1335128Y-1843128D01*
X1335128Y-1966872D01*
X1458872Y-1966872D01*
X1309500Y-3722500D02*
X1484500Y-3897500D01*
X1484500Y-3722500D02*
X1309500Y-3897500D01*
X1458872Y-3871872D02*
X1458872Y-3748128D01*
X1335128Y-3748128D01*
X1335128Y-3871872D01*
X1458872Y-3871872D01*
X1309500Y-5627500D02*
X1484500Y-5802500D01*
X1484500Y-5627500D02*
X1309500Y-5802500D01*
X1458872Y-5776872D02*
X1458872Y-5653128D01*
X1335128Y-5653128D01*
X1335128Y-5776872D01*
X1458872Y-5776872D01*
X1309500Y-7532500D02*
X1484500Y-7707500D01*
X1484500Y-7532500D02*
X1309500Y-7707500D01*
X1458872Y-7681872D02*
X1458872Y-7558128D01*
X1335128Y-7558128D01*
X1335128Y-7681872D01*
X1458872Y-7681872D01*
X1373000Y-7532500D02*
X1548000Y-7707500D01*
X1548000Y-7532500D02*
X1373000Y-7707500D01*
X1522372Y-7681872D02*
X1522372Y-7558128D01*
X1398628Y-7558128D01*
X1398628Y-7681872D01*
X1522372Y-7681872D01*
X2325500Y87500D02*
X2500500Y-87500D01*
X2500500Y87500D02*
X2325500Y-87500D01*
X2474872Y-61872D02*
X2474872Y61872D01*
X2351128Y61872D01*
X2351128Y-61872D01*
X2474872Y-61872D01*
X2325500Y-1817500D02*
X2500500Y-1992500D01*
X2500500Y-1817500D02*
X2325500Y-1992500D01*
X2474872Y-1966872D02*
X2474872Y-1843128D01*
X2351128Y-1843128D01*
X2351128Y-1966872D01*
X2474872Y-1966872D01*
X2325500Y-3722500D02*
X2500500Y-3897500D01*
X2500500Y-3722500D02*
X2325500Y-3897500D01*
X2474872Y-3871872D02*
X2474872Y-3748128D01*
X2351128Y-3748128D01*
X2351128Y-3871872D01*
X2474872Y-3871872D01*
X2325500Y-5627500D02*
X2500500Y-5802500D01*
X2500500Y-5627500D02*
X2325500Y-5802500D01*
X2474872Y-5776872D02*
X2474872Y-5653128D01*
X2351128Y-5653128D01*
X2351128Y-5776872D01*
X2474872Y-5776872D01*
X2325500Y-7532500D02*
X2500500Y-7707500D01*
X2500500Y-7532500D02*
X2325500Y-7707500D01*
X2474872Y-7681872D02*
X2474872Y-7558128D01*
X2351128Y-7558128D01*
X2351128Y-7681872D01*
X2474872Y-7681872D01*
X3214500Y87500D02*
X3389500Y-87500D01*
X3389500Y87500D02*
X3214500Y-87500D01*
X3363872Y-61872D02*
X3363872Y61872D01*
X3240128Y61872D01*
X3240128Y-61872D01*
X3363872Y-61872D01*
X3214500Y-1817500D02*
X3389500Y-1992500D01*
X3389500Y-1817500D02*
X3214500Y-1992500D01*
X3363872Y-1966872D02*
X3363872Y-1843128D01*
X3240128Y-1843128D01*
X3240128Y-1966872D01*
X3363872Y-1966872D01*
X3214500Y-3722500D02*
X3389500Y-3897500D01*
X3389500Y-3722500D02*
X3214500Y-3897500D01*
X3363872Y-3871872D02*
X3363872Y-3748128D01*
X3240128Y-3748128D01*
X3240128Y-3871872D01*
X3363872Y-3871872D01*
X3214500Y-5627500D02*
X3389500Y-5802500D01*
X3389500Y-5627500D02*
X3214500Y-5802500D01*
X3363872Y-5776872D02*
X3363872Y-5653128D01*
X3240128Y-5653128D01*
X3240128Y-5776872D01*
X3363872Y-5776872D01*
X3214500Y-7532500D02*
X3389500Y-7707500D01*
X3389500Y-7532500D02*
X3214500Y-7707500D01*
X3363872Y-7681872D02*
X3363872Y-7558128D01*
X3240128Y-7558128D01*
X3240128Y-7681872D01*
X3363872Y-7681872D01*
X4230500Y87500D02*
X4405500Y-87500D01*
X4405500Y87500D02*
X4230500Y-87500D01*
X4379872Y-61872D02*
X4379872Y61872D01*
X4256128Y61872D01*
X4256128Y-61872D01*
X4379872Y-61872D01*
X4230500Y-1817500D02*
X4405500Y-1992500D01*
X4405500Y-1817500D02*
X4230500Y-1992500D01*
X4379872Y-1966872D02*
X4379872Y-1843128D01*
X4256128Y-1843128D01*
X4256128Y-1966872D01*
X4379872Y-1966872D01*
X4230500Y-3722500D02*
X4405500Y-3897500D01*
X4405500Y-3722500D02*
X4230500Y-3897500D01*
X4379872Y-3871872D02*
X4379872Y-3748128D01*
X4256128Y-3748128D01*
X4256128Y-3871872D01*
X4379872Y-3871872D01*
X4230500Y-5627500D02*
X4405500Y-5802500D01*
X4405500Y-5627500D02*
X4230500Y-5802500D01*
X4379872Y-5776872D02*
X4379872Y-5653128D01*
X4256128Y-5653128D01*
X4256128Y-5776872D01*
X4379872Y-5776872D01*
X4230500Y-7532500D02*
X4405500Y-7707500D01*
X4405500Y-7532500D02*
X4230500Y-7707500D01*
X4379872Y-7681872D02*
X4379872Y-7558128D01*
X4256128Y-7558128D01*
X4256128Y-7681872D01*
X4379872Y-7681872D01*
X5119500Y87500D02*
X5294500Y-87500D01*
X5294500Y87500D02*
X5119500Y-87500D01*
X5268872Y-61872D02*
X5268872Y61872D01*
X5145128Y61872D01*
X5145128Y-61872D01*
X5268872Y-61872D01*
X5627500Y-2262000D02*
X5802500Y-2437000D01*
X5802500Y-2262000D02*
X5627500Y-2437000D01*
X5776872Y-2411372D02*
X5776872Y-2287628D01*
X5653128Y-2287628D01*
X5653128Y-2411372D01*
X5776872Y-2411372D01*
X5627500Y-3278000D02*
X5802500Y-3453000D01*
X5802500Y-3278000D02*
X5627500Y-3453000D01*
X5776872Y-3427372D02*
X5776872Y-3303628D01*
X5653128Y-3303628D01*
X5653128Y-3427372D01*
X5776872Y-3427372D01*
X5627500Y-6072000D02*
X5802500Y-6247000D01*
X5802500Y-6072000D02*
X5627500Y-6247000D01*
X5776872Y-6221372D02*
X5776872Y-6097628D01*
X5653128Y-6097628D01*
X5653128Y-6221372D01*
X5776872Y-6221372D01*
X5627500Y-7088000D02*
X5802500Y-7263000D01*
X5802500Y-7088000D02*
X5627500Y-7263000D01*
X5776872Y-7237372D02*
X5776872Y-7113628D01*
X5653128Y-7113628D01*
X5653128Y-7237372D01*
X5776872Y-7237372D01*
X6135500Y87500D02*
X6310500Y-87500D01*
X6310500Y87500D02*
X6135500Y-87500D01*
X6284872Y-61872D02*
X6284872Y61872D01*
X6161128Y61872D01*
X6161128Y-61872D01*
X6284872Y-61872D01*
X7262625Y325625D02*
X7437625Y150625D01*
X7437625Y325625D02*
X7262625Y150625D01*
X7411997Y176253D02*
X7411997Y299997D01*
X7288253Y299997D01*
X7288253Y176253D01*
X7411997Y176253D01*
X7500750Y-3722500D02*
X7675750Y-3897500D01*
X7675750Y-3722500D02*
X7500750Y-3897500D01*
X7650122Y-3871872D02*
X7650122Y-3748128D01*
X7526378Y-3748128D01*
X7526378Y-3871872D01*
X7650122Y-3871872D01*
X7500750Y-7532500D02*
X7675750Y-7707500D01*
X7675750Y-7532500D02*
X7500750Y-7707500D01*
X7650122Y-7681872D02*
X7650122Y-7558128D01*
X7526378Y-7558128D01*
X7526378Y-7681872D01*
X7650122Y-7681872D01*
X7738875Y-1817500D02*
X7913875Y-1992500D01*
X7913875Y-1817500D02*
X7738875Y-1992500D01*
X7888247Y-1966872D02*
X7888247Y-1843128D01*
X7764503Y-1843128D01*
X7764503Y-1966872D01*
X7888247Y-1966872D01*
X7977000Y-3722500D02*
X8152000Y-3897500D01*
X8152000Y-3722500D02*
X7977000Y-3897500D01*
X8126372Y-3871872D02*
X8126372Y-3748128D01*
X8002628Y-3748128D01*
X8002628Y-3871872D01*
X8126372Y-3871872D01*
X8215125Y-5627500D02*
X8390125Y-5802500D01*
X8390125Y-5627500D02*
X8215125Y-5802500D01*
X8364497Y-5776872D02*
X8364497Y-5653128D01*
X8240753Y-5653128D01*
X8240753Y-5776872D01*
X8364497Y-5776872D01*
X8278625Y325625D02*
X8453625Y150625D01*
X8453625Y325625D02*
X8278625Y150625D01*
X8427997Y176253D02*
X8427997Y299997D01*
X8304253Y299997D01*
X8304253Y176253D01*
X8427997Y176253D01*
X8516750Y-3722500D02*
X8691750Y-3897500D01*
X8691750Y-3722500D02*
X8516750Y-3897500D01*
X8666122Y-3871872D02*
X8666122Y-3748128D01*
X8542378Y-3748128D01*
X8542378Y-3871872D01*
X8666122Y-3871872D01*
X8516750Y-7532500D02*
X8691750Y-7707500D01*
X8691750Y-7532500D02*
X8516750Y-7707500D01*
X8666122Y-7681872D02*
X8666122Y-7558128D01*
X8542378Y-7558128D01*
X8542378Y-7681872D01*
X8666122Y-7681872D01*
X8754875Y-1817500D02*
X8929875Y-1992500D01*
X8929875Y-1817500D02*
X8754875Y-1992500D01*
X8904247Y-1966872D02*
X8904247Y-1843128D01*
X8780503Y-1843128D01*
X8780503Y-1966872D01*
X8904247Y-1966872D01*
X8993000Y-3722500D02*
X9168000Y-3897500D01*
X9168000Y-3722500D02*
X8993000Y-3897500D01*
X9142372Y-3871872D02*
X9142372Y-3748128D01*
X9018628Y-3748128D01*
X9018628Y-3871872D01*
X9142372Y-3871872D01*
X9167625Y87500D02*
X9342625Y-87500D01*
X9342625Y87500D02*
X9167625Y-87500D01*
X9316997Y-61872D02*
X9316997Y61872D01*
X9193253Y61872D01*
X9193253Y-61872D01*
X9316997Y-61872D01*
X9231125Y-5627500D02*
X9406125Y-5802500D01*
X9406125Y-5627500D02*
X9231125Y-5802500D01*
X9380497Y-5776872D02*
X9380497Y-5653128D01*
X9256753Y-5653128D01*
X9256753Y-5776872D01*
X9380497Y-5776872D01*
X9882000Y-7532500D02*
X10057000Y-7707500D01*
X10057000Y-7532500D02*
X9882000Y-7707500D01*
X10031372Y-7681872D02*
X10031372Y-7558128D01*
X9907628Y-7558128D01*
X9907628Y-7681872D01*
X10031372Y-7681872D01*
X10120125Y-1817500D02*
X10295125Y-1992500D01*
X10295125Y-1817500D02*
X10120125Y-1992500D01*
X10269497Y-1966872D02*
X10269497Y-1843128D01*
X10145753Y-1843128D01*
X10145753Y-1966872D01*
X10269497Y-1966872D01*
X10183625Y87500D02*
X10358625Y-87500D01*
X10358625Y87500D02*
X10183625Y-87500D01*
X10332997Y-61872D02*
X10332997Y61872D01*
X10209253Y61872D01*
X10209253Y-61872D01*
X10332997Y-61872D01*
X10596375Y-3722500D02*
X10771375Y-3897500D01*
X10771375Y-3722500D02*
X10596375Y-3897500D01*
X10745747Y-3871872D02*
X10745747Y-3748128D01*
X10622003Y-3748128D01*
X10622003Y-3871872D01*
X10745747Y-3871872D01*
X10898000Y-7532500D02*
X11073000Y-7707500D01*
X11073000Y-7532500D02*
X10898000Y-7707500D01*
X11047372Y-7681872D02*
X11047372Y-7558128D01*
X10923628Y-7558128D01*
X10923628Y-7681872D01*
X11047372Y-7681872D01*
X11072625Y87500D02*
X11247625Y-87500D01*
X11247625Y87500D02*
X11072625Y-87500D01*
X11221997Y-61872D02*
X11221997Y61872D01*
X11098253Y61872D01*
X11098253Y-61872D01*
X11221997Y-61872D01*
X11072625Y-5627500D02*
X11247625Y-5802500D01*
X11247625Y-5627500D02*
X11072625Y-5802500D01*
X11221997Y-5776872D02*
X11221997Y-5653128D01*
X11098253Y-5653128D01*
X11098253Y-5776872D01*
X11221997Y-5776872D01*
X11136125Y-1817500D02*
X11311125Y-1992500D01*
X11311125Y-1817500D02*
X11136125Y-1992500D01*
X11285497Y-1966872D02*
X11285497Y-1843128D01*
X11161753Y-1843128D01*
X11161753Y-1966872D01*
X11285497Y-1966872D01*
X11612375Y-3722500D02*
X11787375Y-3897500D01*
X11787375Y-3722500D02*
X11612375Y-3897500D01*
X11761747Y-3871872D02*
X11761747Y-3748128D01*
X11638003Y-3748128D01*
X11638003Y-3871872D01*
X11761747Y-3871872D01*
X12088625Y87500D02*
X12263625Y-87500D01*
X12263625Y87500D02*
X12088625Y-87500D01*
X12237997Y-61872D02*
X12237997Y61872D01*
X12114253Y61872D01*
X12114253Y-61872D01*
X12237997Y-61872D01*
X12088625Y-5627500D02*
X12263625Y-5802500D01*
X12263625Y-5627500D02*
X12088625Y-5802500D01*
X12237997Y-5776872D02*
X12237997Y-5653128D01*
X12114253Y-5653128D01*
X12114253Y-5776872D01*
X12237997Y-5776872D01*
X12606963Y-1769010D02*
X12781963Y-1944010D01*
X12781963Y-1769010D02*
X12606963Y-1944010D01*
X12756335Y-1918382D02*
X12756335Y-1794637D01*
X12632590Y-1794637D01*
X12632590Y-1918382D01*
X12756335Y-1918382D01*
X12745178Y-3727768D02*
X12920178Y-3902768D01*
X12920178Y-3727768D02*
X12745178Y-3902768D01*
X12894550Y-3877141D02*
X12894550Y-3753396D01*
X12770805Y-3753396D01*
X12770805Y-3877141D01*
X12894550Y-3877141D01*
X12958166Y-7730818D02*
X13133166Y-7905818D01*
X13133166Y-7730818D02*
X12958166Y-7905818D01*
X13107539Y-7880191D02*
X13107539Y-7756446D01*
X12983794Y-7756446D01*
X12983794Y-7880191D01*
X13107539Y-7880191D01*
X12977625Y325625D02*
X13152625Y150625D01*
X13152625Y325625D02*
X12977625Y150625D01*
X13126997Y176253D02*
X13126997Y299997D01*
X13003253Y299997D01*
X13003253Y176253D01*
X13126997Y176253D01*
X13117900Y-5727877D02*
X13292900Y-5902877D01*
X13292900Y-5727877D02*
X13117900Y-5902877D01*
X13267272Y-5877249D02*
X13267272Y-5753504D01*
X13143528Y-5753504D01*
X13143528Y-5877249D01*
X13267272Y-5877249D01*
X13607527Y-1945436D02*
X13782527Y-2120436D01*
X13782527Y-1945436D02*
X13607527Y-2120436D01*
X13756900Y-2094809D02*
X13756900Y-1971064D01*
X13633155Y-1971064D01*
X13633155Y-2094809D01*
X13756900Y-2094809D01*
X13745742Y-3904195D02*
X13920742Y-4079195D01*
X13920742Y-3904195D02*
X13745742Y-4079195D01*
X13895115Y-4053567D02*
X13895115Y-3929823D01*
X13771370Y-3929823D01*
X13771370Y-4053567D01*
X13895115Y-4053567D01*
X13958731Y-7907245D02*
X14133731Y-8082245D01*
X14133731Y-7907245D02*
X13958731Y-8082245D01*
X14108103Y-8056617D02*
X14108103Y-7932873D01*
X13984358Y-7932873D01*
X13984358Y-8056617D01*
X14108103Y-8056617D01*
X13993625Y325625D02*
X14168625Y150625D01*
X14168625Y325625D02*
X13993625Y150625D01*
X14142997Y176253D02*
X14142997Y299997D01*
X14019253Y299997D01*
X14019253Y176253D01*
X14142997Y176253D01*
X14118465Y-5904303D02*
X14293465Y-6079303D01*
X14293465Y-5904303D02*
X14118465Y-6079303D01*
X14267837Y-6053676D02*
X14267837Y-5929931D01*
X14144092Y-5929931D01*
X14144092Y-6053676D01*
X14267837Y-6053676D01*
X14483021Y-2099809D02*
X14658021Y-2274809D01*
X14658021Y-2099809D02*
X14483021Y-2274809D01*
X14632394Y-2249182D02*
X14632394Y-2125437D01*
X14508649Y-2125437D01*
X14508649Y-2249182D01*
X14632394Y-2249182D01*
X14621237Y-4058568D02*
X14796237Y-4233568D01*
X14796237Y-4058568D02*
X14621237Y-4233568D01*
X14770609Y-4207941D02*
X14770609Y-4084196D01*
X14646864Y-4084196D01*
X14646864Y-4207941D01*
X14770609Y-4207941D01*
X14993959Y-6058677D02*
X15168959Y-6233677D01*
X15168959Y-6058677D02*
X14993959Y-6233677D01*
X15143331Y-6208049D02*
X15143331Y-6084304D01*
X15019586Y-6084304D01*
X15019586Y-6208049D01*
X15143331Y-6208049D01*
X15048328Y-265101D02*
X15223328Y-440101D01*
X15223328Y-265101D02*
X15048328Y-440101D01*
X15197701Y-414473D02*
X15197701Y-290728D01*
X15073956Y-290728D01*
X15073956Y-414473D01*
X15197701Y-414473D01*
X15483586Y-2276236D02*
X15658586Y-2451236D01*
X15658586Y-2276236D02*
X15483586Y-2451236D01*
X15632958Y-2425608D02*
X15632958Y-2301864D01*
X15509214Y-2301864D01*
X15509214Y-2425608D01*
X15632958Y-2425608D01*
X15621801Y-4234995D02*
X15796801Y-4409995D01*
X15796801Y-4234995D02*
X15621801Y-4409995D01*
X15771174Y-4384367D02*
X15771174Y-4260622D01*
X15647429Y-4260622D01*
X15647429Y-4384367D01*
X15771174Y-4384367D01*
X15994523Y-6235103D02*
X16169523Y-6410103D01*
X16169523Y-6235103D02*
X15994523Y-6410103D01*
X16143896Y-6384476D02*
X16143896Y-6260731D01*
X16020151Y-6260731D01*
X16020151Y-6384476D01*
X16143896Y-6384476D01*
X16048893Y-441527D02*
X16223893Y-616527D01*
X16223893Y-441527D02*
X16048893Y-616527D01*
X16198265Y-590900D02*
X16198265Y-467155D01*
X16074521Y-467155D01*
X16074521Y-590900D01*
X16198265Y-590900D01*
X16241269Y-8309718D02*
X16416269Y-8484718D01*
X16416269Y-8309718D02*
X16241269Y-8484718D01*
X16390641Y-8459090D02*
X16390641Y-8335346D01*
X16266897Y-8335346D01*
X16266897Y-8459090D01*
X16390641Y-8459090D01*
X16359080Y-2430609D02*
X16534080Y-2605609D01*
X16534080Y-2430609D02*
X16359080Y-2605609D01*
X16508453Y-2579982D02*
X16508453Y-2456237D01*
X16384708Y-2456237D01*
X16384708Y-2579982D01*
X16508453Y-2579982D01*
X16497295Y-4389368D02*
X16672295Y-4564368D01*
X16672295Y-4389368D02*
X16497295Y-4564368D01*
X16646668Y-4538740D02*
X16646668Y-4414995D01*
X16522923Y-4414995D01*
X16522923Y-4538740D01*
X16646668Y-4538740D01*
X16870018Y-6389476D02*
X17045018Y-6564476D01*
X17045018Y-6389476D02*
X16870018Y-6564476D01*
X17019390Y-6538849D02*
X17019390Y-6415104D01*
X16895645Y-6415104D01*
X16895645Y-6538849D01*
X17019390Y-6538849D01*
X16924387Y-595900D02*
X17099387Y-770900D01*
X17099387Y-595900D02*
X16924387Y-770900D01*
X17073760Y-745273D02*
X17073760Y-621528D01*
X16950015Y-621528D01*
X16950015Y-745273D01*
X17073760Y-745273D01*
X17241834Y-8486145D02*
X17416834Y-8661145D01*
X17416834Y-8486145D02*
X17241834Y-8661145D01*
X17391206Y-8635517D02*
X17391206Y-8511772D01*
X17267461Y-8511772D01*
X17267461Y-8635517D01*
X17391206Y-8635517D01*
X17359645Y-2607036D02*
X17534645Y-2782036D01*
X17534645Y-2607036D02*
X17359645Y-2782036D01*
X17509017Y-2756408D02*
X17509017Y-2632663D01*
X17385272Y-2632663D01*
X17385272Y-2756408D01*
X17509017Y-2756408D01*
X17497860Y-4565794D02*
X17672860Y-4740794D01*
X17672860Y-4565794D02*
X17497860Y-4740794D01*
X17647232Y-4715167D02*
X17647232Y-4591422D01*
X17523488Y-4591422D01*
X17523488Y-4715167D01*
X17647232Y-4715167D01*
X17870582Y-6565903D02*
X18045582Y-6740903D01*
X18045582Y-6565903D02*
X17870582Y-6740903D01*
X18019955Y-6715275D02*
X18019955Y-6591530D01*
X17896210Y-6591530D01*
X17896210Y-6715275D01*
X18019955Y-6715275D01*
X17924952Y-772327D02*
X18099952Y-947327D01*
X18099952Y-772327D02*
X17924952Y-947327D01*
X18074324Y-921699D02*
X18074324Y-797954D01*
X17950579Y-797954D01*
X17950579Y-921699D01*
X18074324Y-921699D01*
X18235139Y-2761409D02*
X18410139Y-2936409D01*
X18410139Y-2761409D02*
X18235139Y-2936409D01*
X18384511Y-2910781D02*
X18384511Y-2787036D01*
X18260767Y-2787036D01*
X18260767Y-2910781D01*
X18384511Y-2910781D01*
X18373354Y-4720168D02*
X18548354Y-4895168D01*
X18548354Y-4720168D02*
X18373354Y-4895168D01*
X18522726Y-4869540D02*
X18522726Y-4745795D01*
X18398982Y-4745795D01*
X18398982Y-4869540D01*
X18522726Y-4869540D01*
X18746076Y-6720276D02*
X18921076Y-6895276D01*
X18921076Y-6720276D02*
X18746076Y-6895276D01*
X18895449Y-6869648D02*
X18895449Y-6745904D01*
X18771704Y-6745904D01*
X18771704Y-6869648D01*
X18895449Y-6869648D01*
X18800446Y-926700D02*
X18975446Y-1101700D01*
X18975446Y-926700D02*
X18800446Y-1101700D01*
X18949818Y-1076072D02*
X18949818Y-952328D01*
X18826074Y-952328D01*
X18826074Y-1076072D01*
X18949818Y-1076072D01*
X19235704Y-2937835D02*
X19410704Y-3112835D01*
X19410704Y-2937835D02*
X19235704Y-3112835D01*
X19385076Y-3087208D02*
X19385076Y-2963463D01*
X19261331Y-2963463D01*
X19261331Y-3087208D01*
X19385076Y-3087208D01*
X19306405Y-8753465D02*
X19481405Y-8928465D01*
X19481405Y-8753465D02*
X19306405Y-8928465D01*
X19455777Y-8902837D02*
X19455777Y-8779092D01*
X19332032Y-8779092D01*
X19332032Y-8902837D01*
X19455777Y-8902837D01*
X19373919Y-4896594D02*
X19548919Y-5071594D01*
X19548919Y-4896594D02*
X19373919Y-5071594D01*
X19523291Y-5045967D02*
X19523291Y-4922222D01*
X19399546Y-4922222D01*
X19399546Y-5045967D01*
X19523291Y-5045967D01*
X19746641Y-6896703D02*
X19921641Y-7071703D01*
X19921641Y-6896703D02*
X19746641Y-7071703D01*
X19896013Y-7046075D02*
X19896013Y-6922330D01*
X19772268Y-6922330D01*
X19772268Y-7046075D01*
X19896013Y-7046075D01*
X19801011Y-1103127D02*
X19976011Y-1278127D01*
X19976011Y-1103127D02*
X19801011Y-1278127D01*
X19950383Y-1252499D02*
X19950383Y-1128754D01*
X19826638Y-1128754D01*
X19826638Y-1252499D01*
X19950383Y-1252499D01*
X20306969Y-8929891D02*
X20481969Y-9104891D01*
X20481969Y-8929891D02*
X20306969Y-9104891D01*
X20456342Y-9079264D02*
X20456342Y-8955519D01*
X20332597Y-8955519D01*
X20332597Y-9079264D01*
X20456342Y-9079264D01*
X21726786Y-7062102D02*
X21901786Y-7237102D01*
X21901786Y-7062102D02*
X21726786Y-7237102D01*
X21876159Y-7211475D02*
X21876159Y-7087730D01*
X21752414Y-7087730D01*
X21752414Y-7211475D01*
X21876159Y-7211475D01*
X22003216Y-3144585D02*
X22178216Y-3319585D01*
X22178216Y-3144585D02*
X22003216Y-3319585D01*
X22152589Y-3293958D02*
X22152589Y-3170213D01*
X22028844Y-3170213D01*
X22028844Y-3293958D01*
X22152589Y-3293958D01*
X22610446Y-1103127D02*
X22785446Y-1278127D01*
X22785446Y-1103127D02*
X22610446Y-1278127D01*
X22759818Y-1252499D02*
X22759818Y-1128754D01*
X22636073Y-1128754D01*
X22636073Y-1252499D01*
X22759818Y-1252499D01*
X22727351Y-6885676D02*
X22902351Y-7060676D01*
X22902351Y-6885676D02*
X22727351Y-7060676D01*
X22876723Y-7035048D02*
X22876723Y-6911303D01*
X22752978Y-6911303D01*
X22752978Y-7035048D01*
X22876723Y-7035048D01*
X22803031Y-4937944D02*
X22978031Y-5112944D01*
X22978031Y-4937944D02*
X22803031Y-5112944D01*
X22952403Y-5087316D02*
X22952403Y-4963572D01*
X22828658Y-4963572D01*
X22828658Y-5087316D01*
X22952403Y-5087316D01*
X23003781Y-2968159D02*
X23178781Y-3143159D01*
X23178781Y-2968159D02*
X23003781Y-3143159D01*
X23153153Y-3117531D02*
X23153153Y-2993786D01*
X23029408Y-2993786D01*
X23029408Y-3117531D01*
X23153153Y-3117531D01*
X23602845Y-6731303D02*
X23777845Y-6906303D01*
X23777845Y-6731303D02*
X23602845Y-6906303D01*
X23752217Y-6880675D02*
X23752217Y-6756930D01*
X23628473Y-6756930D01*
X23628473Y-6880675D01*
X23752217Y-6880675D01*
X23611010Y-926700D02*
X23786010Y-1101700D01*
X23786010Y-926700D02*
X23611010Y-1101700D01*
X23760383Y-1076072D02*
X23760383Y-952328D01*
X23636638Y-952328D01*
X23636638Y-1076072D01*
X23760383Y-1076072D01*
X23699137Y-8648711D02*
X23874137Y-8823711D01*
X23874137Y-8648711D02*
X23699137Y-8823711D01*
X23848510Y-8798084D02*
X23848510Y-8674339D01*
X23724765Y-8674339D01*
X23724765Y-8798084D01*
X23848510Y-8798084D01*
X23803595Y-4761517D02*
X23978595Y-4936517D01*
X23978595Y-4761517D02*
X23803595Y-4936517D01*
X23952968Y-4910890D02*
X23952968Y-4787145D01*
X23829223Y-4787145D01*
X23829223Y-4910890D01*
X23952968Y-4910890D01*
X23879275Y-2813785D02*
X24054275Y-2988785D01*
X24054275Y-2813785D02*
X23879275Y-2988785D01*
X24028647Y-2963158D02*
X24028647Y-2839413D01*
X23904902Y-2839413D01*
X23904902Y-2963158D01*
X24028647Y-2963158D01*
X24486505Y-772327D02*
X24661505Y-947327D01*
X24661505Y-772327D02*
X24486505Y-947327D01*
X24635877Y-921699D02*
X24635877Y-797954D01*
X24512132Y-797954D01*
X24512132Y-921699D01*
X24635877Y-921699D01*
X24603410Y-6554876D02*
X24778410Y-6729876D01*
X24778410Y-6554876D02*
X24603410Y-6729876D01*
X24752782Y-6704248D02*
X24752782Y-6580504D01*
X24629037Y-6580504D01*
X24629037Y-6704248D01*
X24752782Y-6704248D01*
X24679089Y-4607144D02*
X24854089Y-4782144D01*
X24854089Y-4607144D02*
X24679089Y-4782144D01*
X24828462Y-4756517D02*
X24828462Y-4632772D01*
X24704717Y-4632772D01*
X24704717Y-4756517D01*
X24828462Y-4756517D01*
X24699702Y-8472285D02*
X24874702Y-8647285D01*
X24874702Y-8472285D02*
X24699702Y-8647285D01*
X24849074Y-8621657D02*
X24849074Y-8497912D01*
X24725329Y-8497912D01*
X24725329Y-8621657D01*
X24849074Y-8621657D01*
X24879839Y-2637359D02*
X25054839Y-2812359D01*
X25054839Y-2637359D02*
X24879839Y-2812359D01*
X25029212Y-2786731D02*
X25029212Y-2662987D01*
X24905467Y-2662987D01*
X24905467Y-2786731D01*
X25029212Y-2786731D01*
X25478904Y-6400503D02*
X25653904Y-6575503D01*
X25653904Y-6400503D02*
X25478904Y-6575503D01*
X25628276Y-6549875D02*
X25628276Y-6426131D01*
X25504531Y-6426131D01*
X25504531Y-6549875D01*
X25628276Y-6549875D01*
X25487069Y-595900D02*
X25662069Y-770900D01*
X25662069Y-595900D02*
X25487069Y-770900D01*
X25636442Y-745273D02*
X25636442Y-621528D01*
X25512697Y-621528D01*
X25512697Y-745273D01*
X25636442Y-745273D01*
X25679654Y-4430718D02*
X25854654Y-4605718D01*
X25854654Y-4430718D02*
X25679654Y-4605718D01*
X25829026Y-4580090D02*
X25829026Y-4456345D01*
X25705281Y-4456345D01*
X25705281Y-4580090D01*
X25829026Y-4580090D01*
X25755334Y-2482986D02*
X25930334Y-2657986D01*
X25930334Y-2482986D02*
X25755334Y-2657986D01*
X25904706Y-2632358D02*
X25904706Y-2508613D01*
X25780961Y-2508613D01*
X25780961Y-2632358D01*
X25904706Y-2632358D01*
X26362563Y-441527D02*
X26537563Y-616527D01*
X26537563Y-441527D02*
X26362563Y-616527D01*
X26511936Y-590900D02*
X26511936Y-467155D01*
X26388191Y-467155D01*
X26388191Y-590900D01*
X26511936Y-590900D01*
X26479468Y-6224076D02*
X26654468Y-6399076D01*
X26654468Y-6224076D02*
X26479468Y-6399076D01*
X26628841Y-6373449D02*
X26628841Y-6249704D01*
X26505096Y-6249704D01*
X26505096Y-6373449D01*
X26628841Y-6373449D01*
X26555148Y-4276345D02*
X26730148Y-4451345D01*
X26730148Y-4276345D02*
X26555148Y-4451345D01*
X26704520Y-4425717D02*
X26704520Y-4301972D01*
X26580776Y-4301972D01*
X26580776Y-4425717D01*
X26704520Y-4425717D01*
X26755898Y-2306559D02*
X26930898Y-2481559D01*
X26930898Y-2306559D02*
X26755898Y-2481559D01*
X26905271Y-2455932D02*
X26905271Y-2332187D01*
X26781526Y-2332187D01*
X26781526Y-2455932D01*
X26905271Y-2455932D01*
X27354962Y-6069703D02*
X27529962Y-6244703D01*
X27529962Y-6069703D02*
X27354962Y-6244703D01*
X27504335Y-6219076D02*
X27504335Y-6095331D01*
X27380590Y-6095331D01*
X27380590Y-6219076D01*
X27504335Y-6219076D01*
X27363128Y-265101D02*
X27538128Y-440101D01*
X27538128Y-265101D02*
X27363128Y-440101D01*
X27512500Y-414473D02*
X27512500Y-290728D01*
X27388755Y-290728D01*
X27388755Y-414473D01*
X27512500Y-414473D01*
X27451255Y-7987112D02*
X27626255Y-8162112D01*
X27626255Y-7987112D02*
X27451255Y-8162112D01*
X27600627Y-8136484D02*
X27600627Y-8012739D01*
X27476882Y-8012739D01*
X27476882Y-8136484D01*
X27600627Y-8136484D01*
X27555713Y-4099918D02*
X27730713Y-4274918D01*
X27730713Y-4099918D02*
X27555713Y-4274918D01*
X27705085Y-4249290D02*
X27705085Y-4125546D01*
X27581340Y-4125546D01*
X27581340Y-4249290D01*
X27705085Y-4249290D01*
X27631392Y-2152186D02*
X27806392Y-2327186D01*
X27806392Y-2152186D02*
X27631392Y-2327186D01*
X27780765Y-2301559D02*
X27780765Y-2177814D01*
X27657020Y-2177814D01*
X27657020Y-2301559D01*
X27780765Y-2301559D01*
X28238622Y-110727D02*
X28413622Y-285728D01*
X28413622Y-110727D02*
X28238622Y-285728D01*
X28387994Y-260100D02*
X28387994Y-136355D01*
X28264250Y-136355D01*
X28264250Y-260100D01*
X28387994Y-260100D01*
X28355527Y-5893277D02*
X28530527Y-6068277D01*
X28530527Y-5893277D02*
X28355527Y-6068277D01*
X28504899Y-6042649D02*
X28504899Y-5918904D01*
X28381155Y-5918904D01*
X28381155Y-6042649D01*
X28504899Y-6042649D01*
X28431207Y-3945545D02*
X28606207Y-4120545D01*
X28606207Y-3945545D02*
X28431207Y-4120545D01*
X28580579Y-4094917D02*
X28580579Y-3971172D01*
X28456834Y-3971172D01*
X28456834Y-4094917D01*
X28580579Y-4094917D01*
X28451819Y-7810685D02*
X28626819Y-7985685D01*
X28626819Y-7810685D02*
X28451819Y-7985685D01*
X28601192Y-7960058D02*
X28601192Y-7836313D01*
X28477447Y-7836313D01*
X28477447Y-7960058D01*
X28601192Y-7960058D01*
X28631957Y-1975759D02*
X28806957Y-2150760D01*
X28806957Y-1975759D02*
X28631957Y-2150760D01*
X28781329Y-2125132D02*
X28781329Y-2001387D01*
X28657584Y-2001387D01*
X28657584Y-2125132D01*
X28781329Y-2125132D01*
X29231021Y-5738904D02*
X29406021Y-5913904D01*
X29406021Y-5738904D02*
X29231021Y-5913904D01*
X29380393Y-5888276D02*
X29380393Y-5764531D01*
X29256649Y-5764531D01*
X29256649Y-5888276D01*
X29380393Y-5888276D01*
X29239187Y65699D02*
X29414187Y-109301D01*
X29414187Y65699D02*
X29239187Y-109301D01*
X29388559Y-83673D02*
X29388559Y40072D01*
X29264814Y40072D01*
X29264814Y-83673D01*
X29388559Y-83673D01*
X29431771Y-3769118D02*
X29606771Y-3944118D01*
X29606771Y-3769118D02*
X29431771Y-3944118D01*
X29581144Y-3918491D02*
X29581144Y-3794746D01*
X29457399Y-3794746D01*
X29457399Y-3918491D01*
X29581144Y-3918491D01*
X29507451Y-1821386D02*
X29682451Y-1996386D01*
X29682451Y-1821386D02*
X29507451Y-1996386D01*
X29656823Y-1970759D02*
X29656823Y-1847014D01*
X29533079Y-1847014D01*
X29533079Y-1970759D01*
X29656823Y-1970759D01*
X30231586Y-5562477D02*
X30406586Y-5737477D01*
X30406586Y-5562477D02*
X30231586Y-5737477D01*
X30380958Y-5711849D02*
X30380958Y-5588105D01*
X30257213Y-5588105D01*
X30257213Y-5711849D01*
X30380958Y-5711849D01*
X30374029Y325625D02*
X30549029Y150625D01*
X30549029Y325625D02*
X30374029Y150625D01*
X30523402Y176253D02*
X30523402Y299997D01*
X30399657Y299997D01*
X30399657Y176253D01*
X30523402Y176253D01*
X30508016Y-1644960D02*
X30683016Y-1819960D01*
X30683016Y-1644960D02*
X30508016Y-1819960D01*
X30657388Y-1794332D02*
X30657388Y-1670587D01*
X30533643Y-1670587D01*
X30533643Y-1794332D01*
X30657388Y-1794332D01*
X31088404Y-3722500D02*
X31263404Y-3897500D01*
X31263404Y-3722500D02*
X31088404Y-3897500D01*
X31237777Y-3871872D02*
X31237777Y-3748128D01*
X31114032Y-3748128D01*
X31114032Y-3871872D01*
X31237777Y-3871872D01*
X31088404Y-7532500D02*
X31263404Y-7707500D01*
X31263404Y-7532500D02*
X31088404Y-7707500D01*
X31237777Y-7681872D02*
X31237777Y-7558128D01*
X31114032Y-7558128D01*
X31114032Y-7681872D01*
X31237777Y-7681872D01*
X31326529Y-5627500D02*
X31501529Y-5802500D01*
X31501529Y-5627500D02*
X31326529Y-5802500D01*
X31475902Y-5776872D02*
X31475902Y-5653128D01*
X31352157Y-5653128D01*
X31352157Y-5776872D01*
X31475902Y-5776872D01*
X31390029Y325625D02*
X31565029Y150625D01*
X31565029Y325625D02*
X31390029Y150625D01*
X31539402Y176253D02*
X31539402Y299997D01*
X31415657Y299997D01*
X31415657Y176253D01*
X31539402Y176253D01*
X31564654Y-1817500D02*
X31739654Y-1992500D01*
X31739654Y-1817500D02*
X31564654Y-1992500D01*
X31714027Y-1966872D02*
X31714027Y-1843128D01*
X31590282Y-1843128D01*
X31590282Y-1966872D01*
X31714027Y-1966872D01*
X32104404Y-3722500D02*
X32279404Y-3897500D01*
X32279404Y-3722500D02*
X32104404Y-3897500D01*
X32253777Y-3871872D02*
X32253777Y-3748128D01*
X32130032Y-3748128D01*
X32130032Y-3871872D01*
X32253777Y-3871872D01*
X32104404Y-7532500D02*
X32279404Y-7707500D01*
X32279404Y-7532500D02*
X32104404Y-7707500D01*
X32253777Y-7681872D02*
X32253777Y-7558128D01*
X32130032Y-7558128D01*
X32130032Y-7681872D01*
X32253777Y-7681872D01*
X32279029Y87500D02*
X32454029Y-87500D01*
X32454029Y87500D02*
X32279029Y-87500D01*
X32428402Y-61872D02*
X32428402Y61872D01*
X32304657Y61872D01*
X32304657Y-61872D01*
X32428402Y-61872D01*
X32342529Y-5627500D02*
X32517529Y-5802500D01*
X32517529Y-5627500D02*
X32342529Y-5802500D01*
X32491902Y-5776872D02*
X32491902Y-5653128D01*
X32368157Y-5653128D01*
X32368157Y-5776872D01*
X32491902Y-5776872D01*
X32580654Y-1817500D02*
X32755654Y-1992500D01*
X32755654Y-1817500D02*
X32580654Y-1992500D01*
X32730027Y-1966872D02*
X32730027Y-1843128D01*
X32606282Y-1843128D01*
X32606282Y-1966872D01*
X32730027Y-1966872D01*
X32993404Y-3722500D02*
X33168404Y-3897500D01*
X33168404Y-3722500D02*
X32993404Y-3897500D01*
X33142777Y-3871872D02*
X33142777Y-3748128D01*
X33019032Y-3748128D01*
X33019032Y-3871872D01*
X33142777Y-3871872D01*
X33295029Y87500D02*
X33470029Y-87500D01*
X33470029Y87500D02*
X33295029Y-87500D01*
X33444402Y-61872D02*
X33444402Y61872D01*
X33320657Y61872D01*
X33320657Y-61872D01*
X33444402Y-61872D01*
X33469654Y-1817500D02*
X33644654Y-1992500D01*
X33644654Y-1817500D02*
X33469654Y-1992500D01*
X33619027Y-1966872D02*
X33619027Y-1843128D01*
X33495282Y-1843128D01*
X33495282Y-1966872D01*
X33619027Y-1966872D01*
X33469654Y-7532500D02*
X33644654Y-7707500D01*
X33644654Y-7532500D02*
X33469654Y-7707500D01*
X33619027Y-7681872D02*
X33619027Y-7558128D01*
X33495282Y-7558128D01*
X33495282Y-7681872D01*
X33619027Y-7681872D01*
X34009404Y-3722500D02*
X34184404Y-3897500D01*
X34184404Y-3722500D02*
X34009404Y-3897500D01*
X34158777Y-3871872D02*
X34158777Y-3748128D01*
X34035032Y-3748128D01*
X34035032Y-3871872D01*
X34158777Y-3871872D01*
X34184029Y87500D02*
X34359029Y-87500D01*
X34359029Y87500D02*
X34184029Y-87500D01*
X34333402Y-61872D02*
X34333402Y61872D01*
X34209657Y61872D01*
X34209657Y-61872D01*
X34333402Y-61872D01*
X34422154Y-5627500D02*
X34597154Y-5802500D01*
X34597154Y-5627500D02*
X34422154Y-5802500D01*
X34571527Y-5776872D02*
X34571527Y-5653128D01*
X34447782Y-5653128D01*
X34447782Y-5776872D01*
X34571527Y-5776872D01*
X34485654Y-1817500D02*
X34660654Y-1992500D01*
X34660654Y-1817500D02*
X34485654Y-1992500D01*
X34635027Y-1966872D02*
X34635027Y-1843128D01*
X34511282Y-1843128D01*
X34511282Y-1966872D01*
X34635027Y-1966872D01*
X34485654Y-7532500D02*
X34660654Y-7707500D01*
X34660654Y-7532500D02*
X34485654Y-7707500D01*
X34635027Y-7681872D02*
X34635027Y-7558128D01*
X34511282Y-7558128D01*
X34511282Y-7681872D01*
X34635027Y-7681872D01*
X34898404Y-5627500D02*
X35073404Y-5802500D01*
X35073404Y-5627500D02*
X34898404Y-5802500D01*
X35047777Y-5776872D02*
X35047777Y-5653128D01*
X34924032Y-5653128D01*
X34924032Y-5776872D01*
X35047777Y-5776872D01*
X35200029Y87500D02*
X35375029Y-87500D01*
X35375029Y87500D02*
X35200029Y-87500D01*
X35349402Y-61872D02*
X35349402Y61872D01*
X35225657Y61872D01*
X35225657Y-61872D01*
X35349402Y-61872D01*
X35438154Y-5627500D02*
X35613154Y-5802500D01*
X35613154Y-5627500D02*
X35438154Y-5802500D01*
X35587527Y-5776872D02*
X35587527Y-5653128D01*
X35463782Y-5653128D01*
X35463782Y-5776872D01*
X35587527Y-5776872D01*
X35850904Y-1817500D02*
X36025904Y-1992500D01*
X36025904Y-1817500D02*
X35850904Y-1992500D01*
X36000277Y-1966872D02*
X36000277Y-1843128D01*
X35876532Y-1843128D01*
X35876532Y-1966872D01*
X36000277Y-1966872D01*
X35850904Y-7532500D02*
X36025904Y-7707500D01*
X36025904Y-7532500D02*
X35850904Y-7707500D01*
X36000277Y-7681872D02*
X36000277Y-7558128D01*
X35876532Y-7558128D01*
X35876532Y-7681872D01*
X36000277Y-7681872D01*
X35914404Y-5627500D02*
X36089404Y-5802500D01*
X36089404Y-5627500D02*
X35914404Y-5802500D01*
X36063777Y-5776872D02*
X36063777Y-5653128D01*
X35940032Y-5653128D01*
X35940032Y-5776872D01*
X36063777Y-5776872D01*
X36089029Y-3722500D02*
X36264029Y-3897500D01*
X36264029Y-3722500D02*
X36089029Y-3897500D01*
X36238402Y-3871872D02*
X36238402Y-3748128D01*
X36114657Y-3748128D01*
X36114657Y-3871872D01*
X36238402Y-3871872D01*
X36866904Y-1817500D02*
X37041904Y-1992500D01*
X37041904Y-1817500D02*
X36866904Y-1992500D01*
X37016277Y-1966872D02*
X37016277Y-1843128D01*
X36892532Y-1843128D01*
X36892532Y-1966872D01*
X37016277Y-1966872D01*
X36866904Y-7532500D02*
X37041904Y-7707500D01*
X37041904Y-7532500D02*
X36866904Y-7707500D01*
X37016277Y-7681872D02*
X37016277Y-7558128D01*
X36892532Y-7558128D01*
X36892532Y-7681872D01*
X37016277Y-7681872D01*
X37041529Y87500D02*
X37216529Y-87500D01*
X37216529Y87500D02*
X37041529Y-87500D01*
X37190902Y-61872D02*
X37190902Y61872D01*
X37067157Y61872D01*
X37067157Y-61872D01*
X37190902Y-61872D01*
X37105029Y-3722500D02*
X37280029Y-3897500D01*
X37280029Y-3722500D02*
X37105029Y-3897500D01*
X37254402Y-3871872D02*
X37254402Y-3748128D01*
X37130657Y-3748128D01*
X37130657Y-3871872D01*
X37254402Y-3871872D01*
X37517779Y-5627500D02*
X37692779Y-5802500D01*
X37692779Y-5627500D02*
X37517779Y-5802500D01*
X37667152Y-5776872D02*
X37667152Y-5653128D01*
X37543407Y-5653128D01*
X37543407Y-5776872D01*
X37667152Y-5776872D01*
X38057529Y87500D02*
X38232529Y-87500D01*
X38232529Y87500D02*
X38057529Y-87500D01*
X38206902Y-61872D02*
X38206902Y61872D01*
X38083157Y61872D01*
X38083157Y-61872D01*
X38206902Y-61872D01*
X38533779Y-5627500D02*
X38708779Y-5802500D01*
X38708779Y-5627500D02*
X38533779Y-5802500D01*
X38683152Y-5776872D02*
X38683152Y-5653128D01*
X38559407Y-5653128D01*
X38559407Y-5776872D01*
X38683152Y-5776872D01*
X38689404Y-7532500D02*
X38864404Y-7707500D01*
X38864404Y-7532500D02*
X38689404Y-7707500D01*
X38838777Y-7681872D02*
X38838777Y-7558128D01*
X38715032Y-7558128D01*
X38715032Y-7681872D01*
X38838777Y-7681872D01*
X39705404Y-7532500D02*
X39880404Y-7707500D01*
X39880404Y-7532500D02*
X39705404Y-7707500D01*
X39854777Y-7681872D02*
X39854777Y-7558128D01*
X39731032Y-7558128D01*
X39731032Y-7681872D01*
X39854777Y-7681872D01*
X40594404Y-5627500D02*
X40769404Y-5802500D01*
X40769404Y-5627500D02*
X40594404Y-5802500D01*
X40743777Y-5776872D02*
X40743777Y-5653128D01*
X40620032Y-5653128D01*
X40620032Y-5776872D01*
X40743777Y-5776872D01*
X40594404Y-7532500D02*
X40769404Y-7707500D01*
X40769404Y-7532500D02*
X40594404Y-7707500D01*
X40743777Y-7681872D02*
X40743777Y-7558128D01*
X40620032Y-7558128D01*
X40620032Y-7681872D01*
X40743777Y-7681872D01*
X41610404Y-5627500D02*
X41785404Y-5802500D01*
X41785404Y-5627500D02*
X41610404Y-5802500D01*
X41759777Y-5776872D02*
X41759777Y-5653128D01*
X41636032Y-5653128D01*
X41636032Y-5776872D01*
X41759777Y-5776872D01*
X41610404Y-7532500D02*
X41785404Y-7707500D01*
X41785404Y-7532500D02*
X41610404Y-7707500D01*
X41759777Y-7681872D02*
X41759777Y-7558128D01*
X41636032Y-7558128D01*
X41636032Y-7681872D01*
X41759777Y-7681872D01*
X42499404Y-1817500D02*
X42674404Y-1992500D01*
X42674404Y-1817500D02*
X42499404Y-1992500D01*
X42648777Y-1966872D02*
X42648777Y-1843128D01*
X42525032Y-1843128D01*
X42525032Y-1966872D01*
X42648777Y-1966872D01*
X42499404Y-3722500D02*
X42674404Y-3897500D01*
X42674404Y-3722500D02*
X42499404Y-3897500D01*
X42648777Y-3871872D02*
X42648777Y-3748128D01*
X42525032Y-3748128D01*
X42525032Y-3871872D01*
X42648777Y-3871872D01*
X42499404Y-7532500D02*
X42674404Y-7707500D01*
X42674404Y-7532500D02*
X42499404Y-7707500D01*
X42648777Y-7681872D02*
X42648777Y-7558128D01*
X42525032Y-7558128D01*
X42525032Y-7681872D01*
X42648777Y-7681872D01*
X43515404Y-1817500D02*
X43690404Y-1992500D01*
X43690404Y-1817500D02*
X43515404Y-1992500D01*
X43664777Y-1966872D02*
X43664777Y-1843128D01*
X43541032Y-1843128D01*
X43541032Y-1966872D01*
X43664777Y-1966872D01*
X43515404Y-3722500D02*
X43690404Y-3897500D01*
X43690404Y-3722500D02*
X43515404Y-3897500D01*
X43664777Y-3871872D02*
X43664777Y-3748128D01*
X43541032Y-3748128D01*
X43541032Y-3871872D01*
X43664777Y-3871872D01*
X43515404Y-7532500D02*
X43690404Y-7707500D01*
X43690404Y-7532500D02*
X43515404Y-7707500D01*
X43664777Y-7681872D02*
X43664777Y-7558128D01*
X43541032Y-7558128D01*
X43541032Y-7681872D01*
X43664777Y-7681872D01*
X-390525Y-8166100D02*
X-85725Y-8470900D01*
X-85725Y-8166100D02*
X-390525Y-8470900D01*
X-238125Y-8470900D02*
X-85725Y-8318500D01*
X-238125Y-8166100D01*
X-390525Y-8318500D01*
X-238125Y-8470900D01*
X1990725Y-8166100D02*
X2295525Y-8470900D01*
X2295525Y-8166100D02*
X1990725Y-8470900D01*
X2143125Y-8470900D02*
X2295525Y-8318500D01*
X2143125Y-8166100D01*
X1990725Y-8318500D01*
X2143125Y-8470900D01*
X4864100Y-1514475D02*
X5168900Y-1819275D01*
X5168900Y-1514475D02*
X4864100Y-1819275D01*
X5016500Y-1819275D02*
X5168900Y-1666875D01*
X5016500Y-1514475D01*
X4864100Y-1666875D01*
X5016500Y-1819275D01*
X4864100Y-3895725D02*
X5168900Y-4200525D01*
X5168900Y-3895725D02*
X4864100Y-4200525D01*
X5016500Y-4200525D02*
X5168900Y-4048125D01*
X5016500Y-3895725D01*
X4864100Y-4048125D01*
X5016500Y-4200525D01*
X4864100Y-5324475D02*
X5168900Y-5629275D01*
X5168900Y-5324475D02*
X4864100Y-5629275D01*
X5016500Y-5629275D02*
X5168900Y-5476875D01*
X5016500Y-5324475D01*
X4864100Y-5476875D01*
X5016500Y-5629275D01*
X4864100Y-7705725D02*
X5168900Y-8010525D01*
X5168900Y-7705725D02*
X4864100Y-8010525D01*
X5016500Y-8010525D02*
X5168900Y-7858125D01*
X5016500Y-7705725D01*
X4864100Y-7858125D01*
X5016500Y-8010525D01*
X7467600Y-4864100D02*
X7772400Y-5168900D01*
X7772400Y-4864100D02*
X7467600Y-5168900D01*
X7620000Y-5168900D02*
X7772400Y-5016500D01*
X7620000Y-4864100D01*
X7467600Y-5016500D01*
X7620000Y-5168900D01*
X9848850Y-4864100D02*
X10153650Y-5168900D01*
X10153650Y-4864100D02*
X9848850Y-5168900D01*
X10001250Y-5168900D02*
X10153650Y-5016500D01*
X10001250Y-4864100D01*
X9848850Y-5016500D01*
X10001250Y-5168900D01*
X15382821Y-8814170D02*
X15687621Y-9118970D01*
X15687621Y-8814170D02*
X15382821Y-9118970D01*
X15535221Y-9118970D02*
X15687621Y-8966570D01*
X15535221Y-8814170D01*
X15382821Y-8966570D01*
X15535221Y-9118970D01*
X17727895Y-9227669D02*
X18032695Y-9532469D01*
X18032695Y-9227669D02*
X17727895Y-9532469D01*
X17880295Y-9532469D02*
X18032695Y-9380069D01*
X17880295Y-9227669D01*
X17727895Y-9380069D01*
X17880295Y-9532469D01*
X23083276Y-9390236D02*
X23388076Y-9695036D01*
X23388076Y-9390236D02*
X23083276Y-9695036D01*
X23235676Y-9695036D02*
X23388076Y-9542636D01*
X23235676Y-9390236D01*
X23083276Y-9542636D01*
X23235676Y-9695036D01*
X25428350Y-8976737D02*
X25733150Y-9281537D01*
X25733150Y-8976737D02*
X25428350Y-9281537D01*
X25580750Y-9281537D02*
X25733150Y-9129137D01*
X25580750Y-8976737D01*
X25428350Y-9129137D01*
X25580750Y-9281537D01*
X33674629Y-4864100D02*
X33979429Y-5168900D01*
X33979429Y-4864100D02*
X33674629Y-5168900D01*
X33827029Y-5168900D02*
X33979429Y-5016500D01*
X33827029Y-4864100D01*
X33674629Y-5016500D01*
X33827029Y-5168900D01*
X34150879Y-4864100D02*
X34455679Y-5168900D01*
X34455679Y-4864100D02*
X34150879Y-5168900D01*
X34303279Y-5168900D02*
X34455679Y-5016500D01*
X34303279Y-4864100D01*
X34150879Y-5016500D01*
X34303279Y-5168900D01*
X35341504Y-2959100D02*
X35646304Y-3263900D01*
X35646304Y-2959100D02*
X35341504Y-3263900D01*
X35493904Y-3263900D02*
X35646304Y-3111500D01*
X35493904Y-2959100D01*
X35341504Y-3111500D01*
X35493904Y-3263900D01*
X36055879Y-4864100D02*
X36360679Y-5168900D01*
X36360679Y-4864100D02*
X36055879Y-5168900D01*
X36208279Y-5168900D02*
X36360679Y-5016500D01*
X36208279Y-4864100D01*
X36055879Y-5016500D01*
X36208279Y-5168900D01*
X36294004Y850900D02*
X36598804Y546100D01*
X36598804Y850900D02*
X36294004Y546100D01*
X36446404Y546100D02*
X36598804Y698500D01*
X36446404Y850900D01*
X36294004Y698500D01*
X36446404Y546100D01*
X36532129Y-4864100D02*
X36836929Y-5168900D01*
X36836929Y-4864100D02*
X36532129Y-5168900D01*
X36684529Y-5168900D02*
X36836929Y-5016500D01*
X36684529Y-4864100D01*
X36532129Y-5016500D01*
X36684529Y-5168900D01*
X37722754Y-2959100D02*
X38027554Y-3263900D01*
X38027554Y-2959100D02*
X37722754Y-3263900D01*
X37875154Y-3263900D02*
X38027554Y-3111500D01*
X37875154Y-2959100D01*
X37722754Y-3111500D01*
X37875154Y-3263900D01*
X38675254Y850900D02*
X38980054Y546100D01*
X38980054Y850900D02*
X38675254Y546100D01*
X38827654Y546100D02*
X38980054Y698500D01*
X38827654Y850900D01*
X38675254Y698500D01*
X38827654Y546100D01*
X-238125Y-6595110D02*
X-238125Y-6993890D01*
X-437515Y-6794500D02*
X-38735Y-6794500D01*
X-38735Y-6794500D02*
G75*
G03*
X-38735Y-6794500I-199390J0D01*
G01*
X0Y199390D02*
X0Y-199390D01*
X-199390Y0D02*
X199390Y0D01*
X199390Y0D02*
G75*
G03*
X199390Y0I-199390J0D01*
G01*
X0Y-1705610D02*
X0Y-2104390D01*
X-199390Y-1905000D02*
X199390Y-1905000D01*
X199390Y-1905000D02*
G75*
G03*
X199390Y-1905000I-199390J0D01*
G01*
X0Y-3610610D02*
X0Y-4009390D01*
X-199390Y-3810000D02*
X199390Y-3810000D01*
X199390Y-3810000D02*
G75*
G03*
X199390Y-3810000I-199390J0D01*
G01*
X0Y-5515610D02*
X0Y-5914390D01*
X-199390Y-5715000D02*
X199390Y-5715000D01*
X199390Y-5715000D02*
G75*
G03*
X199390Y-5715000I-199390J0D01*
G01*
X0Y-7420610D02*
X0Y-7819390D01*
X-199390Y-7620000D02*
X199390Y-7620000D01*
X199390Y-7620000D02*
G75*
G03*
X199390Y-7620000I-199390J0D01*
G01*
X952500Y-7420610D02*
X952500Y-7819390D01*
X753110Y-7620000D02*
X1151890Y-7620000D01*
X1151890Y-7620000D02*
G75*
G03*
X1151890Y-7620000I-199390J0D01*
G01*
X1905000Y199390D02*
X1905000Y-199390D01*
X1705610Y0D02*
X2104390Y0D01*
X2104390Y0D02*
G75*
G03*
X2104390Y0I-199390J0D01*
G01*
X1905000Y-1705610D02*
X1905000Y-2104390D01*
X1705610Y-1905000D02*
X2104390Y-1905000D01*
X2104390Y-1905000D02*
G75*
G03*
X2104390Y-1905000I-199390J0D01*
G01*
X1905000Y-3610610D02*
X1905000Y-4009390D01*
X1705610Y-3810000D02*
X2104390Y-3810000D01*
X2104390Y-3810000D02*
G75*
G03*
X2104390Y-3810000I-199390J0D01*
G01*
X1905000Y-5515610D02*
X1905000Y-5914390D01*
X1705610Y-5715000D02*
X2104390Y-5715000D01*
X2104390Y-5715000D02*
G75*
G03*
X2104390Y-5715000I-199390J0D01*
G01*
X1905000Y-7420610D02*
X1905000Y-7819390D01*
X1705610Y-7620000D02*
X2104390Y-7620000D01*
X2104390Y-7620000D02*
G75*
G03*
X2104390Y-7620000I-199390J0D01*
G01*
X2143125Y-6595110D02*
X2143125Y-6993890D01*
X1943735Y-6794500D02*
X2342515Y-6794500D01*
X2342515Y-6794500D02*
G75*
G03*
X2342515Y-6794500I-199390J0D01*
G01*
X3810000Y199390D02*
X3810000Y-199390D01*
X3610610Y0D02*
X4009390Y0D01*
X4009390Y0D02*
G75*
G03*
X4009390Y0I-199390J0D01*
G01*
X3810000Y-1705610D02*
X3810000Y-2104390D01*
X3610610Y-1905000D02*
X4009390Y-1905000D01*
X4009390Y-1905000D02*
G75*
G03*
X4009390Y-1905000I-199390J0D01*
G01*
X3810000Y-3610610D02*
X3810000Y-4009390D01*
X3610610Y-3810000D02*
X4009390Y-3810000D01*
X4009390Y-3810000D02*
G75*
G03*
X4009390Y-3810000I-199390J0D01*
G01*
X3810000Y-5515610D02*
X3810000Y-5914390D01*
X3610610Y-5715000D02*
X4009390Y-5715000D01*
X4009390Y-5715000D02*
G75*
G03*
X4009390Y-5715000I-199390J0D01*
G01*
X3810000Y-7420610D02*
X3810000Y-7819390D01*
X3610610Y-7620000D02*
X4009390Y-7620000D01*
X4009390Y-7620000D02*
G75*
G03*
X4009390Y-7620000I-199390J0D01*
G01*
X5715000Y199390D02*
X5715000Y-199390D01*
X5515610Y0D02*
X5914390Y0D01*
X5914390Y0D02*
G75*
G03*
X5914390Y0I-199390J0D01*
G01*
X5715000Y-2658110D02*
X5715000Y-3056890D01*
X5515610Y-2857500D02*
X5914390Y-2857500D01*
X5914390Y-2857500D02*
G75*
G03*
X5914390Y-2857500I-199390J0D01*
G01*
X5715000Y-6468110D02*
X5715000Y-6866890D01*
X5515610Y-6667500D02*
X5914390Y-6667500D01*
X5914390Y-6667500D02*
G75*
G03*
X5914390Y-6667500I-199390J0D01*
G01*
X6540500Y-1467485D02*
X6540500Y-1866265D01*
X6341110Y-1666875D02*
X6739890Y-1666875D01*
X6739890Y-1666875D02*
G75*
G03*
X6739890Y-1666875I-199390J0D01*
G01*
X6540500Y-3848735D02*
X6540500Y-4247515D01*
X6341110Y-4048125D02*
X6739890Y-4048125D01*
X6739890Y-4048125D02*
G75*
G03*
X6739890Y-4048125I-199390J0D01*
G01*
X6540500Y-5277485D02*
X6540500Y-5676265D01*
X6341110Y-5476875D02*
X6739890Y-5476875D01*
X6739890Y-5476875D02*
G75*
G03*
X6739890Y-5476875I-199390J0D01*
G01*
X6540500Y-7658735D02*
X6540500Y-8057515D01*
X6341110Y-7858125D02*
X6739890Y-7858125D01*
X6739890Y-7858125D02*
G75*
G03*
X6739890Y-7858125I-199390J0D01*
G01*
X7620000Y-6341110D02*
X7620000Y-6739890D01*
X7420610Y-6540500D02*
X7819390Y-6540500D01*
X7819390Y-6540500D02*
G75*
G03*
X7819390Y-6540500I-199390J0D01*
G01*
X7858125Y437515D02*
X7858125Y38735D01*
X7658735Y238125D02*
X8057515Y238125D01*
X8057515Y238125D02*
G75*
G03*
X8057515Y238125I-199390J0D01*
G01*
X8096250Y-3610610D02*
X8096250Y-4009390D01*
X7896860Y-3810000D02*
X8295640Y-3810000D01*
X8295640Y-3810000D02*
G75*
G03*
X8295640Y-3810000I-199390J0D01*
G01*
X8096250Y-7420610D02*
X8096250Y-7819390D01*
X7896860Y-7620000D02*
X8295640Y-7620000D01*
X8295640Y-7620000D02*
G75*
G03*
X8295640Y-7620000I-199390J0D01*
G01*
X8334375Y-1705610D02*
X8334375Y-2104390D01*
X8134985Y-1905000D02*
X8533765Y-1905000D01*
X8533765Y-1905000D02*
G75*
G03*
X8533765Y-1905000I-199390J0D01*
G01*
X8572500Y-3610610D02*
X8572500Y-4009390D01*
X8373110Y-3810000D02*
X8771890Y-3810000D01*
X8771890Y-3810000D02*
G75*
G03*
X8771890Y-3810000I-199390J0D01*
G01*
X8810625Y-5515610D02*
X8810625Y-5914390D01*
X8611235Y-5715000D02*
X9010015Y-5715000D01*
X9010015Y-5715000D02*
G75*
G03*
X9010015Y-5715000I-199390J0D01*
G01*
X9763125Y199390D02*
X9763125Y-199390D01*
X9563735Y0D02*
X9962515Y0D01*
X9962515Y0D02*
G75*
G03*
X9962515Y0I-199390J0D01*
G01*
X10001250Y-6341110D02*
X10001250Y-6739890D01*
X9801860Y-6540500D02*
X10200640Y-6540500D01*
X10200640Y-6540500D02*
G75*
G03*
X10200640Y-6540500I-199390J0D01*
G01*
X10477500Y-7420610D02*
X10477500Y-7819390D01*
X10278110Y-7620000D02*
X10676890Y-7620000D01*
X10676890Y-7620000D02*
G75*
G03*
X10676890Y-7620000I-199390J0D01*
G01*
X10715625Y-1705610D02*
X10715625Y-2104390D01*
X10516235Y-1905000D02*
X10915015Y-1905000D01*
X10915015Y-1905000D02*
G75*
G03*
X10915015Y-1905000I-199390J0D01*
G01*
X11191875Y-3610610D02*
X11191875Y-4009390D01*
X10992485Y-3810000D02*
X11391265Y-3810000D01*
X11391265Y-3810000D02*
G75*
G03*
X11391265Y-3810000I-199390J0D01*
G01*
X11668125Y199390D02*
X11668125Y-199390D01*
X11468735Y0D02*
X11867515Y0D01*
X11867515Y0D02*
G75*
G03*
X11867515Y0I-199390J0D01*
G01*
X11668125Y-5515610D02*
X11668125Y-5914390D01*
X11468735Y-5715000D02*
X11867515Y-5715000D01*
X11867515Y-5715000D02*
G75*
G03*
X11867515Y-5715000I-199390J0D01*
G01*
X13194745Y-1745333D02*
X13194745Y-2144113D01*
X12995355Y-1944723D02*
X13394135Y-1944723D01*
X13394135Y-1944723D02*
G75*
G03*
X13394135Y-1944723I-199390J0D01*
G01*
X13332960Y-3704092D02*
X13332960Y-4102872D01*
X13133570Y-3903482D02*
X13532350Y-3903482D01*
X13532350Y-3903482D02*
G75*
G03*
X13532350Y-3903482I-199390J0D01*
G01*
X13545948Y-7707142D02*
X13545948Y-8105922D01*
X13346558Y-7906532D02*
X13745338Y-7906532D01*
X13745338Y-7906532D02*
G75*
G03*
X13745338Y-7906532I-199390J0D01*
G01*
X13573125Y437515D02*
X13573125Y38735D01*
X13373735Y238125D02*
X13772515Y238125D01*
X13772515Y238125D02*
G75*
G03*
X13772515Y238125I-199390J0D01*
G01*
X13705682Y-5704200D02*
X13705682Y-6102980D01*
X13506292Y-5903590D02*
X13905072Y-5903590D01*
X13905072Y-5903590D02*
G75*
G03*
X13905072Y-5903590I-199390J0D01*
G01*
X15070804Y-2076133D02*
X15070804Y-2474913D01*
X14871414Y-2275523D02*
X15270194Y-2275523D01*
X15270194Y-2275523D02*
G75*
G03*
X15270194Y-2275523I-199390J0D01*
G01*
X15209019Y-4034891D02*
X15209019Y-4433671D01*
X15009629Y-4234281D02*
X15408409Y-4234281D01*
X15408409Y-4234281D02*
G75*
G03*
X15408409Y-4234281I-199390J0D01*
G01*
X15581741Y-6035000D02*
X15581741Y-6433780D01*
X15382351Y-6234390D02*
X15781131Y-6234390D01*
X15781131Y-6234390D02*
G75*
G03*
X15781131Y-6234390I-199390J0D01*
G01*
X15636111Y-241424D02*
X15636111Y-640204D01*
X15436721Y-440814D02*
X15835501Y-440814D01*
X15835501Y-440814D02*
G75*
G03*
X15835501Y-440814I-199390J0D01*
G01*
X15799861Y-7266333D02*
X15799861Y-7665113D01*
X15600471Y-7465723D02*
X15999251Y-7465723D01*
X15999251Y-7465723D02*
G75*
G03*
X15999251Y-7465723I-199390J0D01*
G01*
X16829051Y-8286041D02*
X16829051Y-8684821D01*
X16629661Y-8485431D02*
X17028441Y-8485431D01*
X17028441Y-8485431D02*
G75*
G03*
X17028441Y-8485431I-199390J0D01*
G01*
X16946863Y-2406932D02*
X16946863Y-2805712D01*
X16747472Y-2606322D02*
X17146253Y-2606322D01*
X17146253Y-2606322D02*
G75*
G03*
X17146253Y-2606322I-199390J0D01*
G01*
X17085078Y-4365691D02*
X17085078Y-4764471D01*
X16885688Y-4565081D02*
X17284468Y-4565081D01*
X17284468Y-4565081D02*
G75*
G03*
X17284468Y-4565081I-199390J0D01*
G01*
X17457800Y-6365800D02*
X17457800Y-6764580D01*
X17258410Y-6565190D02*
X17657190Y-6565190D01*
X17657190Y-6565190D02*
G75*
G03*
X17657190Y-6565190I-199390J0D01*
G01*
X17512170Y-572224D02*
X17512170Y-971004D01*
X17312780Y-771614D02*
X17711560Y-771614D01*
X17711560Y-771614D02*
G75*
G03*
X17711560Y-771614I-199390J0D01*
G01*
X18144935Y-7679832D02*
X18144935Y-8078612D01*
X17945545Y-7879222D02*
X18344325Y-7879222D01*
X18344325Y-7879222D02*
G75*
G03*
X18344325Y-7879222I-199390J0D01*
G01*
X18822921Y-2737732D02*
X18822921Y-3136512D01*
X18623531Y-2937122D02*
X19022311Y-2937122D01*
X19022311Y-2937122D02*
G75*
G03*
X19022311Y-2937122I-199390J0D01*
G01*
X18961136Y-4696491D02*
X18961136Y-5095271D01*
X18761746Y-4895881D02*
X19160526Y-4895881D01*
X19160526Y-4895881D02*
G75*
G03*
X19160526Y-4895881I-199390J0D01*
G01*
X19333859Y-6696599D02*
X19333859Y-7095379D01*
X19134469Y-6895989D02*
X19533249Y-6895989D01*
X19533249Y-6895989D02*
G75*
G03*
X19533249Y-6895989I-199390J0D01*
G01*
X19388228Y-903023D02*
X19388228Y-1301803D01*
X19188838Y-1102413D02*
X19587618Y-1102413D01*
X19587618Y-1102413D02*
G75*
G03*
X19587618Y-1102413I-199390J0D01*
G01*
X19894187Y-8729788D02*
X19894187Y-9128568D01*
X19694797Y-8929178D02*
X20093577Y-8929178D01*
X20093577Y-8929178D02*
G75*
G03*
X20093577Y-8929178I-199390J0D01*
G01*
X22314569Y-6861999D02*
X22314569Y-7260779D01*
X22115179Y-7061389D02*
X22513959Y-7061389D01*
X22513959Y-7061389D02*
G75*
G03*
X22513959Y-7061389I-199390J0D01*
G01*
X22590998Y-2944482D02*
X22590998Y-3343262D01*
X22391608Y-3143872D02*
X22790388Y-3143872D01*
X22790388Y-3143872D02*
G75*
G03*
X22790388Y-3143872I-199390J0D01*
G01*
X22971036Y-7842399D02*
X22971036Y-8241179D01*
X22771646Y-8041789D02*
X23170426Y-8041789D01*
X23170426Y-8041789D02*
G75*
G03*
X23170426Y-8041789I-199390J0D01*
G01*
X23198228Y-903023D02*
X23198228Y-1301803D01*
X22998838Y-1102413D02*
X23397618Y-1102413D01*
X23397618Y-1102413D02*
G75*
G03*
X23397618Y-1102413I-199390J0D01*
G01*
X23390813Y-4737841D02*
X23390813Y-5136621D01*
X23191423Y-4937231D02*
X23590203Y-4937231D01*
X23590203Y-4937231D02*
G75*
G03*
X23590203Y-4937231I-199390J0D01*
G01*
X24190627Y-6531199D02*
X24190627Y-6929979D01*
X23991237Y-6730589D02*
X24390017Y-6730589D01*
X24390017Y-6730589D02*
G75*
G03*
X24390017Y-6730589I-199390J0D01*
G01*
X24286920Y-8448608D02*
X24286920Y-8847388D01*
X24087530Y-8647998D02*
X24486310Y-8647998D01*
X24486310Y-8647998D02*
G75*
G03*
X24486310Y-8647998I-199390J0D01*
G01*
X24467057Y-2613682D02*
X24467057Y-3012462D01*
X24267667Y-2813072D02*
X24666447Y-2813072D01*
X24666447Y-2813072D02*
G75*
G03*
X24666447Y-2813072I-199390J0D01*
G01*
X25074287Y-572224D02*
X25074287Y-971004D01*
X24874897Y-771614D02*
X25273677Y-771614D01*
X25273677Y-771614D02*
G75*
G03*
X25273677Y-771614I-199390J0D01*
G01*
X25266872Y-4407041D02*
X25266872Y-4805821D01*
X25067482Y-4606431D02*
X25466262Y-4606431D01*
X25466262Y-4606431D02*
G75*
G03*
X25466262Y-4606431I-199390J0D01*
G01*
X25316110Y-7428899D02*
X25316110Y-7827679D01*
X25116720Y-7628289D02*
X25515500Y-7628289D01*
X25515500Y-7628289D02*
G75*
G03*
X25515500Y-7628289I-199390J0D01*
G01*
X26066686Y-6200400D02*
X26066686Y-6599180D01*
X25867296Y-6399790D02*
X26266076Y-6399790D01*
X26266076Y-6399790D02*
G75*
G03*
X26266076Y-6399790I-199390J0D01*
G01*
X26343116Y-2282883D02*
X26343116Y-2681663D01*
X26143726Y-2482273D02*
X26542506Y-2482273D01*
X26542506Y-2482273D02*
G75*
G03*
X26542506Y-2482273I-199390J0D01*
G01*
X26950346Y-241424D02*
X26950346Y-640204D01*
X26750956Y-440814D02*
X27149736Y-440814D01*
X27149736Y-440814D02*
G75*
G03*
X27149736Y-440814I-199390J0D01*
G01*
X27142930Y-4076241D02*
X27142930Y-4475021D01*
X26943540Y-4275631D02*
X27342320Y-4275631D01*
X27342320Y-4275631D02*
G75*
G03*
X27342320Y-4275631I-199390J0D01*
G01*
X27942745Y-5869600D02*
X27942745Y-6268380D01*
X27743355Y-6068990D02*
X28142135Y-6068990D01*
X28142135Y-6068990D02*
G75*
G03*
X28142135Y-6068990I-199390J0D01*
G01*
X28039037Y-7787009D02*
X28039037Y-8185789D01*
X27839647Y-7986399D02*
X28238427Y-7986399D01*
X28238427Y-7986399D02*
G75*
G03*
X28238427Y-7986399I-199390J0D01*
G01*
X28219175Y-1952083D02*
X28219175Y-2350863D01*
X28019785Y-2151473D02*
X28418565Y-2151473D01*
X28418565Y-2151473D02*
G75*
G03*
X28418565Y-2151473I-199390J0D01*
G01*
X28826404Y89376D02*
X28826404Y-309404D01*
X28627014Y-110014D02*
X29025794Y-110014D01*
X29025794Y-110014D02*
G75*
G03*
X29025794Y-110014I-199390J0D01*
G01*
X29018989Y-3745442D02*
X29018989Y-4144222D01*
X28819599Y-3944832D02*
X29218379Y-3944832D01*
X29218379Y-3944832D02*
G75*
G03*
X29218379Y-3944832I-199390J0D01*
G01*
X29818803Y-5538800D02*
X29818803Y-5937580D01*
X29619413Y-5738190D02*
X30018193Y-5738190D01*
X30018193Y-5738190D02*
G75*
G03*
X30018193Y-5738190I-199390J0D01*
G01*
X30095233Y-1621283D02*
X30095233Y-2020063D01*
X29895843Y-1820673D02*
X30294623Y-1820673D01*
X30294623Y-1820673D02*
G75*
G03*
X30294623Y-1820673I-199390J0D01*
G01*
X30969529Y437515D02*
X30969529Y38735D01*
X30770139Y238125D02*
X31168919Y238125D01*
X31168919Y238125D02*
G75*
G03*
X31168919Y238125I-199390J0D01*
G01*
X31683904Y-3610610D02*
X31683904Y-4009390D01*
X31484514Y-3810000D02*
X31883294Y-3810000D01*
X31883294Y-3810000D02*
G75*
G03*
X31883294Y-3810000I-199390J0D01*
G01*
X31683904Y-7420610D02*
X31683904Y-7819390D01*
X31484514Y-7620000D02*
X31883294Y-7620000D01*
X31883294Y-7620000D02*
G75*
G03*
X31883294Y-7620000I-199390J0D01*
G01*
X31922029Y-5515610D02*
X31922029Y-5914390D01*
X31722639Y-5715000D02*
X32121419Y-5715000D01*
X32121419Y-5715000D02*
G75*
G03*
X32121419Y-5715000I-199390J0D01*
G01*
X32160154Y-1705610D02*
X32160154Y-2104390D01*
X31960764Y-1905000D02*
X32359544Y-1905000D01*
X32359544Y-1905000D02*
G75*
G03*
X32359544Y-1905000I-199390J0D01*
G01*
X32874529Y199390D02*
X32874529Y-199390D01*
X32675139Y0D02*
X33073919Y0D01*
X33073919Y0D02*
G75*
G03*
X33073919Y0I-199390J0D01*
G01*
X33588904Y-3610610D02*
X33588904Y-4009390D01*
X33389514Y-3810000D02*
X33788294Y-3810000D01*
X33788294Y-3810000D02*
G75*
G03*
X33788294Y-3810000I-199390J0D01*
G01*
X33827029Y-6341110D02*
X33827029Y-6739890D01*
X33627639Y-6540500D02*
X34026419Y-6540500D01*
X34026419Y-6540500D02*
G75*
G03*
X34026419Y-6540500I-199390J0D01*
G01*
X34065154Y-1705610D02*
X34065154Y-2104390D01*
X33865764Y-1905000D02*
X34264544Y-1905000D01*
X34264544Y-1905000D02*
G75*
G03*
X34264544Y-1905000I-199390J0D01*
G01*
X34065154Y-7420610D02*
X34065154Y-7819390D01*
X33865764Y-7620000D02*
X34264544Y-7620000D01*
X34264544Y-7620000D02*
G75*
G03*
X34264544Y-7620000I-199390J0D01*
G01*
X34303279Y-6341110D02*
X34303279Y-6739890D01*
X34103889Y-6540500D02*
X34502669Y-6540500D01*
X34502669Y-6540500D02*
G75*
G03*
X34502669Y-6540500I-199390J0D01*
G01*
X34779529Y199390D02*
X34779529Y-199390D01*
X34580139Y0D02*
X34978919Y0D01*
X34978919Y0D02*
G75*
G03*
X34978919Y0I-199390J0D01*
G01*
X35017654Y-5515610D02*
X35017654Y-5914390D01*
X34818264Y-5715000D02*
X35217044Y-5715000D01*
X35217044Y-5715000D02*
G75*
G03*
X35217044Y-5715000I-199390J0D01*
G01*
X35493904Y-4436110D02*
X35493904Y-4834890D01*
X35294514Y-4635500D02*
X35693294Y-4635500D01*
X35693294Y-4635500D02*
G75*
G03*
X35693294Y-4635500I-199390J0D01*
G01*
X35493904Y-5515610D02*
X35493904Y-5914390D01*
X35294514Y-5715000D02*
X35693294Y-5715000D01*
X35693294Y-5715000D02*
G75*
G03*
X35693294Y-5715000I-199390J0D01*
G01*
X36208279Y-6341110D02*
X36208279Y-6739890D01*
X36008889Y-6540500D02*
X36407669Y-6540500D01*
X36407669Y-6540500D02*
G75*
G03*
X36407669Y-6540500I-199390J0D01*
G01*
X36446404Y-626110D02*
X36446404Y-1024890D01*
X36247014Y-825500D02*
X36645794Y-825500D01*
X36645794Y-825500D02*
G75*
G03*
X36645794Y-825500I-199390J0D01*
G01*
X36446404Y-1705610D02*
X36446404Y-2104390D01*
X36247014Y-1905000D02*
X36645794Y-1905000D01*
X36645794Y-1905000D02*
G75*
G03*
X36645794Y-1905000I-199390J0D01*
G01*
X36446404Y-7420610D02*
X36446404Y-7819390D01*
X36247014Y-7620000D02*
X36645794Y-7620000D01*
X36645794Y-7620000D02*
G75*
G03*
X36645794Y-7620000I-199390J0D01*
G01*
X36684529Y-3610610D02*
X36684529Y-4009390D01*
X36485139Y-3810000D02*
X36883919Y-3810000D01*
X36883919Y-3810000D02*
G75*
G03*
X36883919Y-3810000I-199390J0D01*
G01*
X36684529Y-6341110D02*
X36684529Y-6739890D01*
X36485139Y-6540500D02*
X36883919Y-6540500D01*
X36883919Y-6540500D02*
G75*
G03*
X36883919Y-6540500I-199390J0D01*
G01*
X37637029Y199390D02*
X37637029Y-199390D01*
X37437639Y0D02*
X37836419Y0D01*
X37836419Y0D02*
G75*
G03*
X37836419Y0I-199390J0D01*
G01*
X37875154Y-4436110D02*
X37875154Y-4834890D01*
X37675764Y-4635500D02*
X38074544Y-4635500D01*
X38074544Y-4635500D02*
G75*
G03*
X38074544Y-4635500I-199390J0D01*
G01*
X38113279Y-5515610D02*
X38113279Y-5914390D01*
X37913889Y-5715000D02*
X38312669Y-5715000D01*
X38312669Y-5715000D02*
G75*
G03*
X38312669Y-5715000I-199390J0D01*
G01*
X38827654Y-626110D02*
X38827654Y-1024890D01*
X38628264Y-825500D02*
X39027044Y-825500D01*
X39027044Y-825500D02*
G75*
G03*
X39027044Y-825500I-199390J0D01*
G01*
X39284904Y-7420610D02*
X39284904Y-7819390D01*
X39085514Y-7620000D02*
X39484294Y-7620000D01*
X39484294Y-7620000D02*
G75*
G03*
X39484294Y-7620000I-199390J0D01*
G01*
X41189904Y-5515610D02*
X41189904Y-5914390D01*
X40990514Y-5715000D02*
X41389294Y-5715000D01*
X41389294Y-5715000D02*
G75*
G03*
X41389294Y-5715000I-199390J0D01*
G01*
X41189904Y-7420610D02*
X41189904Y-7819390D01*
X40990514Y-7620000D02*
X41389294Y-7620000D01*
X41389294Y-7620000D02*
G75*
G03*
X41389294Y-7620000I-199390J0D01*
G01*
X43094904Y-1705610D02*
X43094904Y-2104390D01*
X42895514Y-1905000D02*
X43294294Y-1905000D01*
X43294294Y-1905000D02*
G75*
G03*
X43294294Y-1905000I-199390J0D01*
G01*
X43094904Y-3610610D02*
X43094904Y-4009390D01*
X42895514Y-3810000D02*
X43294294Y-3810000D01*
X43294294Y-3810000D02*
G75*
G03*
X43294294Y-3810000I-199390J0D01*
G01*
X43094904Y-7420610D02*
X43094904Y-7819390D01*
X42895514Y-7620000D02*
X43294294Y-7620000D01*
X43294294Y-7620000D02*
G75*
G03*
X43294294Y-7620000I-199390J0D01*
G01*
D12*
X-668572Y-10539314D02*
X-668572Y-10239314D01*
X-597143Y-10239314D01*
X-554286Y-10253600D01*
X-525714Y-10282172D01*
X-511429Y-10310743D01*
X-497143Y-10367886D01*
X-497143Y-10410743D01*
X-511429Y-10467886D01*
X-525714Y-10496457D01*
X-554286Y-10525029D01*
X-597143Y-10539314D01*
X-668572Y-10539314D01*
X-368571Y-10539314D02*
X-368571Y-10339314D01*
X-368571Y-10396457D02*
X-354286Y-10367886D01*
X-340000Y-10353600D01*
X-311429Y-10339314D01*
X-282857Y-10339314D01*
X-182857Y-10539314D02*
X-182857Y-10339314D01*
X-182857Y-10239314D02*
X-197143Y-10253600D01*
X-182857Y-10267886D01*
X-168572Y-10253600D01*
X-182857Y-10239314D01*
X-182857Y-10267886D01*
X2857Y-10539314D02*
X-25714Y-10525029D01*
X-40000Y-10496457D01*
X-40000Y-10239314D01*
X160000Y-10539314D02*
X131428Y-10525029D01*
X117143Y-10496457D01*
X117143Y-10239314D01*
X502857Y-10539314D02*
X502857Y-10239314D01*
X602857Y-10453600D01*
X702857Y-10239314D01*
X702857Y-10539314D01*
X974286Y-10539314D02*
X974286Y-10382172D01*
X960000Y-10353600D01*
X931428Y-10339314D01*
X874286Y-10339314D01*
X845714Y-10353600D01*
X974286Y-10525029D02*
X945714Y-10539314D01*
X874286Y-10539314D01*
X845714Y-10525029D01*
X831428Y-10496457D01*
X831428Y-10467886D01*
X845714Y-10439314D01*
X874286Y-10425029D01*
X945714Y-10425029D01*
X974286Y-10410743D01*
X1117143Y-10339314D02*
X1117143Y-10639314D01*
X1117143Y-10353600D02*
X1145714Y-10339314D01*
X1202857Y-10339314D01*
X1231428Y-10353600D01*
X1245714Y-10367886D01*
X1260000Y-10396457D01*
X1260000Y-10482172D01*
X1245714Y-10510743D01*
X1231428Y-10525029D01*
X1202857Y-10539314D01*
X1145714Y-10539314D01*
X1117143Y-10525029D01*
X1388571Y-10510743D02*
X1402857Y-10525029D01*
X1388571Y-10539314D01*
X1374286Y-10525029D01*
X1388571Y-10510743D01*
X1388571Y-10539314D01*
X1388571Y-10353600D02*
X1402857Y-10367886D01*
X1388571Y-10382172D01*
X1374286Y-10367886D01*
X1388571Y-10353600D01*
X1388571Y-10382172D01*
X-995000Y-11013600D02*
X-955000Y-11053600D01*
X-955000Y-11013600D02*
X-995000Y-11053600D01*
X-611429Y-10869314D02*
X-582857Y-10869314D01*
X-554286Y-10883600D01*
X-540000Y-10897886D01*
X-525714Y-10926457D01*
X-511429Y-10983600D01*
X-511429Y-11055029D01*
X-525714Y-11112172D01*
X-540000Y-11140743D01*
X-554286Y-11155029D01*
X-582857Y-11169314D01*
X-611429Y-11169314D01*
X-640000Y-11155029D01*
X-654286Y-11140743D01*
X-668572Y-11112172D01*
X-682857Y-11055029D01*
X-682857Y-10983600D01*
X-668572Y-10926457D01*
X-654286Y-10897886D01*
X-640000Y-10883600D01*
X-611429Y-10869314D01*
X-382857Y-11140743D02*
X-368571Y-11155029D01*
X-382857Y-11169314D01*
X-397143Y-11155029D01*
X-382857Y-11140743D01*
X-382857Y-11169314D01*
X-111429Y-10969314D02*
X-111429Y-11169314D01*
X-182857Y-10855029D02*
X-254286Y-11069314D01*
X-68572Y-11069314D01*
X102857Y-10869314D02*
X131428Y-10869314D01*
X160000Y-10883600D01*
X174286Y-10897886D01*
X188571Y-10926457D01*
X202857Y-10983600D01*
X202857Y-11055029D01*
X188571Y-11112172D01*
X174286Y-11140743D01*
X160000Y-11155029D01*
X131428Y-11169314D01*
X102857Y-11169314D01*
X74286Y-11155029D01*
X60000Y-11140743D01*
X45714Y-11112172D01*
X31428Y-11055029D01*
X31428Y-10983600D01*
X45714Y-10926457D01*
X60000Y-10897886D01*
X74286Y-10883600D01*
X102857Y-10869314D01*
X388571Y-10869314D02*
X417143Y-10869314D01*
X445714Y-10883600D01*
X460000Y-10897886D01*
X474286Y-10926457D01*
X488571Y-10983600D01*
X488571Y-11055029D01*
X474286Y-11112172D01*
X460000Y-11140743D01*
X445714Y-11155029D01*
X417143Y-11169314D01*
X388571Y-11169314D01*
X360000Y-11155029D01*
X345714Y-11140743D01*
X331428Y-11112172D01*
X317143Y-11055029D01*
X317143Y-10983600D01*
X331428Y-10926457D01*
X345714Y-10897886D01*
X360000Y-10883600D01*
X388571Y-10869314D01*
X617143Y-11169314D02*
X617143Y-10969314D01*
X617143Y-10997886D02*
X631428Y-10983600D01*
X660000Y-10969314D01*
X702857Y-10969314D01*
X731428Y-10983600D01*
X745714Y-11012172D01*
X745714Y-11169314D01*
X745714Y-11012172D02*
X760000Y-10983600D01*
X788571Y-10969314D01*
X831428Y-10969314D01*
X860000Y-10983600D01*
X874286Y-11012172D01*
X874286Y-11169314D01*
X1017143Y-11169314D02*
X1017143Y-10969314D01*
X1017143Y-10997886D02*
X1031428Y-10983600D01*
X1060000Y-10969314D01*
X1102857Y-10969314D01*
X1131428Y-10983600D01*
X1145714Y-11012172D01*
X1145714Y-11169314D01*
X1145714Y-11012172D02*
X1160000Y-10983600D01*
X1188571Y-10969314D01*
X1231428Y-10969314D01*
X1260000Y-10983600D01*
X1274286Y-11012172D01*
X1274286Y-11169314D01*
X1860000Y-10855029D02*
X1602857Y-11240743D01*
X2245714Y-10869314D02*
X2274286Y-10869314D01*
X2302857Y-10883600D01*
X2317143Y-10897886D01*
X2331428Y-10926457D01*
X2345714Y-10983600D01*
X2345714Y-11055029D01*
X2331428Y-11112172D01*
X2317143Y-11140743D01*
X2302857Y-11155029D01*
X2274286Y-11169314D01*
X2245714Y-11169314D01*
X2217143Y-11155029D01*
X2202857Y-11140743D01*
X2188571Y-11112172D01*
X2174286Y-11055029D01*
X2174286Y-10983600D01*
X2188571Y-10926457D01*
X2202857Y-10897886D01*
X2217143Y-10883600D01*
X2245714Y-10869314D01*
X2474286Y-11140743D02*
X2488571Y-11155029D01*
X2474286Y-11169314D01*
X2460000Y-11155029D01*
X2474286Y-11140743D01*
X2474286Y-11169314D01*
X2674286Y-10869314D02*
X2702857Y-10869314D01*
X2731428Y-10883600D01*
X2745714Y-10897886D01*
X2760000Y-10926457D01*
X2774286Y-10983600D01*
X2774286Y-11055029D01*
X2760000Y-11112172D01*
X2745714Y-11140743D01*
X2731428Y-11155029D01*
X2702857Y-11169314D01*
X2674286Y-11169314D01*
X2645714Y-11155029D01*
X2631428Y-11140743D01*
X2617143Y-11112172D01*
X2602857Y-11055029D01*
X2602857Y-10983600D01*
X2617143Y-10926457D01*
X2631428Y-10897886D01*
X2645714Y-10883600D01*
X2674286Y-10869314D01*
X3060000Y-11169314D02*
X2888571Y-11169314D01*
X2974286Y-11169314D02*
X2974286Y-10869314D01*
X2945714Y-10912172D01*
X2917143Y-10940743D01*
X2888571Y-10955029D01*
X3331428Y-10869314D02*
X3188571Y-10869314D01*
X3174286Y-11012172D01*
X3188571Y-10997886D01*
X3217143Y-10983600D01*
X3288571Y-10983600D01*
X3317143Y-10997886D01*
X3331428Y-11012172D01*
X3345714Y-11040743D01*
X3345714Y-11112172D01*
X3331428Y-11140743D01*
X3317143Y-11155029D01*
X3288571Y-11169314D01*
X3217143Y-11169314D01*
X3188571Y-11155029D01*
X3174286Y-11140743D01*
X3445714Y-10869314D02*
X3645714Y-10869314D01*
X3517143Y-11169314D01*
X3745714Y-10869314D02*
X3745714Y-10926457D01*
X3860000Y-10869314D02*
X3860000Y-10926457D01*
X4302857Y-11283600D02*
X4288571Y-11269314D01*
X4260000Y-11226457D01*
X4245714Y-11197886D01*
X4231428Y-11155029D01*
X4217143Y-11083600D01*
X4217143Y-11026457D01*
X4231428Y-10955029D01*
X4245714Y-10912172D01*
X4260000Y-10883600D01*
X4288571Y-10840743D01*
X4302857Y-10826457D01*
X4431428Y-11169314D02*
X4488571Y-11169314D01*
X4517143Y-11155029D01*
X4531428Y-11140743D01*
X4560000Y-11097886D01*
X4574286Y-11040743D01*
X4574286Y-10926457D01*
X4560000Y-10897886D01*
X4545714Y-10883600D01*
X4517143Y-10869314D01*
X4460000Y-10869314D01*
X4431428Y-10883600D01*
X4417143Y-10897886D01*
X4402857Y-10926457D01*
X4402857Y-10997886D01*
X4417143Y-11026457D01*
X4431428Y-11040743D01*
X4460000Y-11055029D01*
X4517143Y-11055029D01*
X4545714Y-11040743D01*
X4560000Y-11026457D01*
X4574286Y-10997886D01*
X4674286Y-10869314D02*
X4874286Y-10869314D01*
X4745714Y-11169314D01*
X5217143Y-11169314D02*
X5217143Y-10869314D01*
X5345714Y-11169314D02*
X5345714Y-11012172D01*
X5331428Y-10983600D01*
X5302857Y-10969314D01*
X5260000Y-10969314D01*
X5231428Y-10983600D01*
X5217143Y-10997886D01*
X5531428Y-11169314D02*
X5502857Y-11155029D01*
X5488571Y-11140743D01*
X5474286Y-11112172D01*
X5474286Y-11026457D01*
X5488571Y-10997886D01*
X5502857Y-10983600D01*
X5531428Y-10969314D01*
X5574286Y-10969314D01*
X5602857Y-10983600D01*
X5617143Y-10997886D01*
X5631428Y-11026457D01*
X5631428Y-11112172D01*
X5617143Y-11140743D01*
X5602857Y-11155029D01*
X5574286Y-11169314D01*
X5531428Y-11169314D01*
X5802857Y-11169314D02*
X5774286Y-11155029D01*
X5760000Y-11126457D01*
X5760000Y-10869314D01*
X6031428Y-11155029D02*
X6002857Y-11169314D01*
X5945714Y-11169314D01*
X5917143Y-11155029D01*
X5902857Y-11126457D01*
X5902857Y-11012172D01*
X5917143Y-10983600D01*
X5945714Y-10969314D01*
X6002857Y-10969314D01*
X6031428Y-10983600D01*
X6045714Y-11012172D01*
X6045714Y-11040743D01*
X5902857Y-11069314D01*
X6160000Y-11155029D02*
X6188571Y-11169314D01*
X6245714Y-11169314D01*
X6274286Y-11155029D01*
X6288571Y-11126457D01*
X6288571Y-11112172D01*
X6274286Y-11083600D01*
X6245714Y-11069314D01*
X6202857Y-11069314D01*
X6174286Y-11055029D01*
X6160000Y-11026457D01*
X6160000Y-11012172D01*
X6174286Y-10983600D01*
X6202857Y-10969314D01*
X6245714Y-10969314D01*
X6274286Y-10983600D01*
X6388571Y-11283600D02*
X6402857Y-11269314D01*
X6431428Y-11226457D01*
X6445714Y-11197886D01*
X6460000Y-11155029D01*
X6474286Y-11083600D01*
X6474286Y-11026457D01*
X6460000Y-10955029D01*
X6445714Y-10912172D01*
X6431428Y-10883600D01*
X6402857Y-10840743D01*
X6388571Y-10826457D01*
X-955000Y-11429600D02*
G75*
G03*
X-955000Y-11429600I-40640J0D01*
G01*
X-611429Y-11265314D02*
X-582857Y-11265314D01*
X-554286Y-11279600D01*
X-540000Y-11293886D01*
X-525714Y-11322457D01*
X-511429Y-11379600D01*
X-511429Y-11451029D01*
X-525714Y-11508171D01*
X-540000Y-11536743D01*
X-554286Y-11551029D01*
X-582857Y-11565314D01*
X-611429Y-11565314D01*
X-640000Y-11551029D01*
X-654286Y-11536743D01*
X-668572Y-11508171D01*
X-682857Y-11451029D01*
X-682857Y-11379600D01*
X-668572Y-11322457D01*
X-654286Y-11293886D01*
X-640000Y-11279600D01*
X-611429Y-11265314D01*
X-382857Y-11536743D02*
X-368571Y-11551029D01*
X-382857Y-11565314D01*
X-397143Y-11551029D01*
X-382857Y-11536743D01*
X-382857Y-11565314D01*
X-197143Y-11393886D02*
X-225714Y-11379600D01*
X-240000Y-11365314D01*
X-254286Y-11336743D01*
X-254286Y-11322457D01*
X-240000Y-11293886D01*
X-225714Y-11279600D01*
X-197143Y-11265314D01*
X-140000Y-11265314D01*
X-111429Y-11279600D01*
X-97143Y-11293886D01*
X-82857Y-11322457D01*
X-82857Y-11336743D01*
X-97143Y-11365314D01*
X-111429Y-11379600D01*
X-140000Y-11393886D01*
X-197143Y-11393886D01*
X-225714Y-11408171D01*
X-240000Y-11422457D01*
X-254286Y-11451029D01*
X-254286Y-11508171D01*
X-240000Y-11536743D01*
X-225714Y-11551029D01*
X-197143Y-11565314D01*
X-140000Y-11565314D01*
X-111429Y-11551029D01*
X-97143Y-11536743D01*
X-82857Y-11508171D01*
X-82857Y-11451029D01*
X-97143Y-11422457D01*
X-111429Y-11408171D01*
X-140000Y-11393886D01*
X202857Y-11565314D02*
X31428Y-11565314D01*
X117143Y-11565314D02*
X117143Y-11265314D01*
X88571Y-11308171D01*
X60000Y-11336743D01*
X31428Y-11351029D01*
X302857Y-11265314D02*
X488571Y-11265314D01*
X388571Y-11379600D01*
X431428Y-11379600D01*
X460000Y-11393886D01*
X474286Y-11408171D01*
X488571Y-11436743D01*
X488571Y-11508171D01*
X474286Y-11536743D01*
X460000Y-11551029D01*
X431428Y-11565314D01*
X345714Y-11565314D01*
X317143Y-11551029D01*
X302857Y-11536743D01*
X617143Y-11565314D02*
X617143Y-11365314D01*
X617143Y-11393886D02*
X631428Y-11379600D01*
X660000Y-11365314D01*
X702857Y-11365314D01*
X731428Y-11379600D01*
X745714Y-11408171D01*
X745714Y-11565314D01*
X745714Y-11408171D02*
X760000Y-11379600D01*
X788571Y-11365314D01*
X831428Y-11365314D01*
X860000Y-11379600D01*
X874286Y-11408171D01*
X874286Y-11565314D01*
X1017143Y-11565314D02*
X1017143Y-11365314D01*
X1017143Y-11393886D02*
X1031428Y-11379600D01*
X1060000Y-11365314D01*
X1102857Y-11365314D01*
X1131428Y-11379600D01*
X1145714Y-11408171D01*
X1145714Y-11565314D01*
X1145714Y-11408171D02*
X1160000Y-11379600D01*
X1188571Y-11365314D01*
X1231428Y-11365314D01*
X1260000Y-11379600D01*
X1274286Y-11408171D01*
X1274286Y-11565314D01*
X1860000Y-11251029D02*
X1602857Y-11636743D01*
X2245714Y-11265314D02*
X2274286Y-11265314D01*
X2302857Y-11279600D01*
X2317143Y-11293886D01*
X2331428Y-11322457D01*
X2345714Y-11379600D01*
X2345714Y-11451029D01*
X2331428Y-11508171D01*
X2317143Y-11536743D01*
X2302857Y-11551029D01*
X2274286Y-11565314D01*
X2245714Y-11565314D01*
X2217143Y-11551029D01*
X2202857Y-11536743D01*
X2188571Y-11508171D01*
X2174286Y-11451029D01*
X2174286Y-11379600D01*
X2188571Y-11322457D01*
X2202857Y-11293886D01*
X2217143Y-11279600D01*
X2245714Y-11265314D01*
X2474286Y-11536743D02*
X2488571Y-11551029D01*
X2474286Y-11565314D01*
X2460000Y-11551029D01*
X2474286Y-11536743D01*
X2474286Y-11565314D01*
X2674286Y-11265314D02*
X2702857Y-11265314D01*
X2731428Y-11279600D01*
X2745714Y-11293886D01*
X2760000Y-11322457D01*
X2774286Y-11379600D01*
X2774286Y-11451029D01*
X2760000Y-11508171D01*
X2745714Y-11536743D01*
X2731428Y-11551029D01*
X2702857Y-11565314D01*
X2674286Y-11565314D01*
X2645714Y-11551029D01*
X2631428Y-11536743D01*
X2617143Y-11508171D01*
X2602857Y-11451029D01*
X2602857Y-11379600D01*
X2617143Y-11322457D01*
X2631428Y-11293886D01*
X2645714Y-11279600D01*
X2674286Y-11265314D01*
X2874286Y-11265314D02*
X3060000Y-11265314D01*
X2960000Y-11379600D01*
X3002857Y-11379600D01*
X3031428Y-11393886D01*
X3045714Y-11408171D01*
X3060000Y-11436743D01*
X3060000Y-11508171D01*
X3045714Y-11536743D01*
X3031428Y-11551029D01*
X3002857Y-11565314D01*
X2917143Y-11565314D01*
X2888571Y-11551029D01*
X2874286Y-11536743D01*
X3174286Y-11293886D02*
X3188571Y-11279600D01*
X3217143Y-11265314D01*
X3288571Y-11265314D01*
X3317143Y-11279600D01*
X3331428Y-11293886D01*
X3345714Y-11322457D01*
X3345714Y-11351029D01*
X3331428Y-11393886D01*
X3160000Y-11565314D01*
X3345714Y-11565314D01*
X3531428Y-11265314D02*
X3560000Y-11265314D01*
X3588571Y-11279600D01*
X3602857Y-11293886D01*
X3617143Y-11322457D01*
X3631428Y-11379600D01*
X3631428Y-11451029D01*
X3617143Y-11508171D01*
X3602857Y-11536743D01*
X3588571Y-11551029D01*
X3560000Y-11565314D01*
X3531428Y-11565314D01*
X3502857Y-11551029D01*
X3488571Y-11536743D01*
X3474286Y-11508171D01*
X3460000Y-11451029D01*
X3460000Y-11379600D01*
X3474286Y-11322457D01*
X3488571Y-11293886D01*
X3502857Y-11279600D01*
X3531428Y-11265314D01*
X3745714Y-11265314D02*
X3745714Y-11322457D01*
X3860000Y-11265314D02*
X3860000Y-11322457D01*
X4302857Y-11679600D02*
X4288571Y-11665314D01*
X4260000Y-11622457D01*
X4245714Y-11593886D01*
X4231428Y-11551029D01*
X4217143Y-11479600D01*
X4217143Y-11422457D01*
X4231428Y-11351029D01*
X4245714Y-11308171D01*
X4260000Y-11279600D01*
X4288571Y-11236743D01*
X4302857Y-11222457D01*
X4545714Y-11365314D02*
X4545714Y-11565314D01*
X4474286Y-11251029D02*
X4402857Y-11465314D01*
X4588571Y-11465314D01*
X4931428Y-11565314D02*
X4931428Y-11265314D01*
X5060000Y-11565314D02*
X5060000Y-11408171D01*
X5045714Y-11379600D01*
X5017143Y-11365314D01*
X4974286Y-11365314D01*
X4945714Y-11379600D01*
X4931428Y-11393886D01*
X5245714Y-11565314D02*
X5217143Y-11551029D01*
X5202857Y-11536743D01*
X5188571Y-11508171D01*
X5188571Y-11422457D01*
X5202857Y-11393886D01*
X5217143Y-11379600D01*
X5245714Y-11365314D01*
X5288571Y-11365314D01*
X5317143Y-11379600D01*
X5331428Y-11393886D01*
X5345714Y-11422457D01*
X5345714Y-11508171D01*
X5331428Y-11536743D01*
X5317143Y-11551029D01*
X5288571Y-11565314D01*
X5245714Y-11565314D01*
X5517143Y-11565314D02*
X5488571Y-11551029D01*
X5474286Y-11522457D01*
X5474286Y-11265314D01*
X5745714Y-11551029D02*
X5717143Y-11565314D01*
X5660000Y-11565314D01*
X5631428Y-11551029D01*
X5617143Y-11522457D01*
X5617143Y-11408171D01*
X5631428Y-11379600D01*
X5660000Y-11365314D01*
X5717143Y-11365314D01*
X5745714Y-11379600D01*
X5760000Y-11408171D01*
X5760000Y-11436743D01*
X5617143Y-11465314D01*
X5874286Y-11551029D02*
X5902857Y-11565314D01*
X5960000Y-11565314D01*
X5988571Y-11551029D01*
X6002857Y-11522457D01*
X6002857Y-11508171D01*
X5988571Y-11479600D01*
X5960000Y-11465314D01*
X5917143Y-11465314D01*
X5888571Y-11451029D01*
X5874286Y-11422457D01*
X5874286Y-11408171D01*
X5888571Y-11379600D01*
X5917143Y-11365314D01*
X5960000Y-11365314D01*
X5988571Y-11379600D01*
X6102857Y-11679600D02*
X6117143Y-11665314D01*
X6145714Y-11622457D01*
X6160000Y-11593886D01*
X6174286Y-11551029D01*
X6188571Y-11479600D01*
X6188571Y-11422457D01*
X6174286Y-11351029D01*
X6160000Y-11308171D01*
X6145714Y-11279600D01*
X6117143Y-11236743D01*
X6102857Y-11222457D01*
X-1005000Y-11775600D02*
X-1005000Y-11875600D01*
X-1055000Y-11825600D02*
X-955000Y-11825600D01*
X-511429Y-11961314D02*
X-682857Y-11961314D01*
X-597143Y-11961314D02*
X-597143Y-11661314D01*
X-625714Y-11704171D01*
X-654286Y-11732743D01*
X-682857Y-11747029D01*
X-382857Y-11932743D02*
X-368571Y-11947029D01*
X-382857Y-11961314D01*
X-397143Y-11947029D01*
X-382857Y-11932743D01*
X-382857Y-11961314D01*
X-182857Y-11661314D02*
X-154286Y-11661314D01*
X-125714Y-11675600D01*
X-111429Y-11689886D01*
X-97143Y-11718457D01*
X-82857Y-11775600D01*
X-82857Y-11847029D01*
X-97143Y-11904171D01*
X-111429Y-11932743D01*
X-125714Y-11947029D01*
X-154286Y-11961314D01*
X-182857Y-11961314D01*
X-211429Y-11947029D01*
X-225714Y-11932743D01*
X-240000Y-11904171D01*
X-254286Y-11847029D01*
X-254286Y-11775600D01*
X-240000Y-11718457D01*
X-225714Y-11689886D01*
X-211429Y-11675600D01*
X-182857Y-11661314D01*
X102857Y-11661314D02*
X131428Y-11661314D01*
X160000Y-11675600D01*
X174286Y-11689886D01*
X188571Y-11718457D01*
X202857Y-11775600D01*
X202857Y-11847029D01*
X188571Y-11904171D01*
X174286Y-11932743D01*
X160000Y-11947029D01*
X131428Y-11961314D01*
X102857Y-11961314D01*
X74286Y-11947029D01*
X60000Y-11932743D01*
X45714Y-11904171D01*
X31428Y-11847029D01*
X31428Y-11775600D01*
X45714Y-11718457D01*
X60000Y-11689886D01*
X74286Y-11675600D01*
X102857Y-11661314D01*
X388571Y-11661314D02*
X417143Y-11661314D01*
X445714Y-11675600D01*
X460000Y-11689886D01*
X474286Y-11718457D01*
X488571Y-11775600D01*
X488571Y-11847029D01*
X474286Y-11904171D01*
X460000Y-11932743D01*
X445714Y-11947029D01*
X417143Y-11961314D01*
X388571Y-11961314D01*
X360000Y-11947029D01*
X345714Y-11932743D01*
X331428Y-11904171D01*
X317143Y-11847029D01*
X317143Y-11775600D01*
X331428Y-11718457D01*
X345714Y-11689886D01*
X360000Y-11675600D01*
X388571Y-11661314D01*
X617143Y-11961314D02*
X617143Y-11761314D01*
X617143Y-11789886D02*
X631428Y-11775600D01*
X660000Y-11761314D01*
X702857Y-11761314D01*
X731428Y-11775600D01*
X745714Y-11804171D01*
X745714Y-11961314D01*
X745714Y-11804171D02*
X760000Y-11775600D01*
X788571Y-11761314D01*
X831428Y-11761314D01*
X860000Y-11775600D01*
X874286Y-11804171D01*
X874286Y-11961314D01*
X1017143Y-11961314D02*
X1017143Y-11761314D01*
X1017143Y-11789886D02*
X1031428Y-11775600D01*
X1060000Y-11761314D01*
X1102857Y-11761314D01*
X1131428Y-11775600D01*
X1145714Y-11804171D01*
X1145714Y-11961314D01*
X1145714Y-11804171D02*
X1160000Y-11775600D01*
X1188571Y-11761314D01*
X1231428Y-11761314D01*
X1260000Y-11775600D01*
X1274286Y-11804171D01*
X1274286Y-11961314D01*
X1860000Y-11647029D02*
X1602857Y-12032743D01*
X2245714Y-11661314D02*
X2274286Y-11661314D01*
X2302857Y-11675600D01*
X2317143Y-11689886D01*
X2331428Y-11718457D01*
X2345714Y-11775600D01*
X2345714Y-11847029D01*
X2331428Y-11904171D01*
X2317143Y-11932743D01*
X2302857Y-11947029D01*
X2274286Y-11961314D01*
X2245714Y-11961314D01*
X2217143Y-11947029D01*
X2202857Y-11932743D01*
X2188571Y-11904171D01*
X2174286Y-11847029D01*
X2174286Y-11775600D01*
X2188571Y-11718457D01*
X2202857Y-11689886D01*
X2217143Y-11675600D01*
X2245714Y-11661314D01*
X2474286Y-11932743D02*
X2488571Y-11947029D01*
X2474286Y-11961314D01*
X2460000Y-11947029D01*
X2474286Y-11932743D01*
X2474286Y-11961314D01*
X2674286Y-11661314D02*
X2702857Y-11661314D01*
X2731428Y-11675600D01*
X2745714Y-11689886D01*
X2760000Y-11718457D01*
X2774286Y-11775600D01*
X2774286Y-11847029D01*
X2760000Y-11904171D01*
X2745714Y-11932743D01*
X2731428Y-11947029D01*
X2702857Y-11961314D01*
X2674286Y-11961314D01*
X2645714Y-11947029D01*
X2631428Y-11932743D01*
X2617143Y-11904171D01*
X2602857Y-11847029D01*
X2602857Y-11775600D01*
X2617143Y-11718457D01*
X2631428Y-11689886D01*
X2645714Y-11675600D01*
X2674286Y-11661314D01*
X2874286Y-11661314D02*
X3060000Y-11661314D01*
X2960000Y-11775600D01*
X3002857Y-11775600D01*
X3031428Y-11789886D01*
X3045714Y-11804171D01*
X3060000Y-11832743D01*
X3060000Y-11904171D01*
X3045714Y-11932743D01*
X3031428Y-11947029D01*
X3002857Y-11961314D01*
X2917143Y-11961314D01*
X2888571Y-11947029D01*
X2874286Y-11932743D01*
X3202857Y-11961314D02*
X3260000Y-11961314D01*
X3288571Y-11947029D01*
X3302857Y-11932743D01*
X3331428Y-11889886D01*
X3345714Y-11832743D01*
X3345714Y-11718457D01*
X3331428Y-11689886D01*
X3317143Y-11675600D01*
X3288571Y-11661314D01*
X3231428Y-11661314D01*
X3202857Y-11675600D01*
X3188571Y-11689886D01*
X3174286Y-11718457D01*
X3174286Y-11789886D01*
X3188571Y-11818457D01*
X3202857Y-11832743D01*
X3231428Y-11847029D01*
X3288571Y-11847029D01*
X3317143Y-11832743D01*
X3331428Y-11818457D01*
X3345714Y-11789886D01*
X3602857Y-11761314D02*
X3602857Y-11961314D01*
X3531428Y-11647029D02*
X3460000Y-11861314D01*
X3645714Y-11861314D01*
X3745714Y-11661314D02*
X3745714Y-11718457D01*
X3860000Y-11661314D02*
X3860000Y-11718457D01*
X4302857Y-12075600D02*
X4288571Y-12061314D01*
X4260000Y-12018457D01*
X4245714Y-11989886D01*
X4231428Y-11947029D01*
X4217143Y-11875600D01*
X4217143Y-11818457D01*
X4231428Y-11747029D01*
X4245714Y-11704171D01*
X4260000Y-11675600D01*
X4288571Y-11632743D01*
X4302857Y-11618457D01*
X4560000Y-11661314D02*
X4417143Y-11661314D01*
X4402857Y-11804171D01*
X4417143Y-11789886D01*
X4445714Y-11775600D01*
X4517143Y-11775600D01*
X4545714Y-11789886D01*
X4560000Y-11804171D01*
X4574286Y-11832743D01*
X4574286Y-11904171D01*
X4560000Y-11932743D01*
X4545714Y-11947029D01*
X4517143Y-11961314D01*
X4445714Y-11961314D01*
X4417143Y-11947029D01*
X4402857Y-11932743D01*
X4931428Y-11961314D02*
X4931428Y-11661314D01*
X5060000Y-11961314D02*
X5060000Y-11804171D01*
X5045714Y-11775600D01*
X5017143Y-11761314D01*
X4974286Y-11761314D01*
X4945714Y-11775600D01*
X4931428Y-11789886D01*
X5245714Y-11961314D02*
X5217143Y-11947029D01*
X5202857Y-11932743D01*
X5188571Y-11904171D01*
X5188571Y-11818457D01*
X5202857Y-11789886D01*
X5217143Y-11775600D01*
X5245714Y-11761314D01*
X5288571Y-11761314D01*
X5317143Y-11775600D01*
X5331428Y-11789886D01*
X5345714Y-11818457D01*
X5345714Y-11904171D01*
X5331428Y-11932743D01*
X5317143Y-11947029D01*
X5288571Y-11961314D01*
X5245714Y-11961314D01*
X5517143Y-11961314D02*
X5488571Y-11947029D01*
X5474286Y-11918457D01*
X5474286Y-11661314D01*
X5745714Y-11947029D02*
X5717143Y-11961314D01*
X5660000Y-11961314D01*
X5631428Y-11947029D01*
X5617143Y-11918457D01*
X5617143Y-11804171D01*
X5631428Y-11775600D01*
X5660000Y-11761314D01*
X5717143Y-11761314D01*
X5745714Y-11775600D01*
X5760000Y-11804171D01*
X5760000Y-11832743D01*
X5617143Y-11861314D01*
X5874286Y-11947029D02*
X5902857Y-11961314D01*
X5960000Y-11961314D01*
X5988571Y-11947029D01*
X6002857Y-11918457D01*
X6002857Y-11904171D01*
X5988571Y-11875600D01*
X5960000Y-11861314D01*
X5917143Y-11861314D01*
X5888571Y-11847029D01*
X5874286Y-11818457D01*
X5874286Y-11804171D01*
X5888571Y-11775600D01*
X5917143Y-11761314D01*
X5960000Y-11761314D01*
X5988571Y-11775600D01*
X6102857Y-12075600D02*
X6117143Y-12061314D01*
X6145714Y-12018457D01*
X6160000Y-11989886D01*
X6174286Y-11947029D01*
X6188571Y-11875600D01*
X6188571Y-11818457D01*
X6174286Y-11747029D01*
X6160000Y-11704171D01*
X6145714Y-11675600D01*
X6117143Y-11632743D01*
X6102857Y-11618457D01*
X-970995Y-12260216D02*
X-970995Y-12182985D01*
X-1048226Y-12182985D01*
X-1048226Y-12260216D01*
X-970995Y-12260216D01*
X-511429Y-12357314D02*
X-682857Y-12357314D01*
X-597143Y-12357314D02*
X-597143Y-12057314D01*
X-625714Y-12100171D01*
X-654286Y-12128743D01*
X-682857Y-12143029D01*
X-382857Y-12328743D02*
X-368571Y-12343029D01*
X-382857Y-12357314D01*
X-397143Y-12343029D01*
X-382857Y-12328743D01*
X-382857Y-12357314D01*
X-182857Y-12057314D02*
X-154286Y-12057314D01*
X-125714Y-12071600D01*
X-111429Y-12085886D01*
X-97143Y-12114457D01*
X-82857Y-12171600D01*
X-82857Y-12243029D01*
X-97143Y-12300171D01*
X-111429Y-12328743D01*
X-125714Y-12343029D01*
X-154286Y-12357314D01*
X-182857Y-12357314D01*
X-211429Y-12343029D01*
X-225714Y-12328743D01*
X-240000Y-12300171D01*
X-254286Y-12243029D01*
X-254286Y-12171600D01*
X-240000Y-12114457D01*
X-225714Y-12085886D01*
X-211429Y-12071600D01*
X-182857Y-12057314D01*
X60000Y-12357314D02*
X117143Y-12357314D01*
X145714Y-12343029D01*
X160000Y-12328743D01*
X188571Y-12285886D01*
X202857Y-12228743D01*
X202857Y-12114457D01*
X188571Y-12085886D01*
X174286Y-12071600D01*
X145714Y-12057314D01*
X88571Y-12057314D01*
X60000Y-12071600D01*
X45714Y-12085886D01*
X31428Y-12114457D01*
X31428Y-12185886D01*
X45714Y-12214457D01*
X60000Y-12228743D01*
X88571Y-12243029D01*
X145714Y-12243029D01*
X174286Y-12228743D01*
X188571Y-12214457D01*
X202857Y-12185886D01*
X317143Y-12085886D02*
X331428Y-12071600D01*
X360000Y-12057314D01*
X431428Y-12057314D01*
X460000Y-12071600D01*
X474286Y-12085886D01*
X488571Y-12114457D01*
X488571Y-12143029D01*
X474286Y-12185886D01*
X302857Y-12357314D01*
X488571Y-12357314D01*
X617143Y-12357314D02*
X617143Y-12157314D01*
X617143Y-12185886D02*
X631428Y-12171600D01*
X660000Y-12157314D01*
X702857Y-12157314D01*
X731428Y-12171600D01*
X745714Y-12200171D01*
X745714Y-12357314D01*
X745714Y-12200171D02*
X760000Y-12171600D01*
X788571Y-12157314D01*
X831428Y-12157314D01*
X860000Y-12171600D01*
X874286Y-12200171D01*
X874286Y-12357314D01*
X1017143Y-12357314D02*
X1017143Y-12157314D01*
X1017143Y-12185886D02*
X1031428Y-12171600D01*
X1060000Y-12157314D01*
X1102857Y-12157314D01*
X1131428Y-12171600D01*
X1145714Y-12200171D01*
X1145714Y-12357314D01*
X1145714Y-12200171D02*
X1160000Y-12171600D01*
X1188571Y-12157314D01*
X1231428Y-12157314D01*
X1260000Y-12171600D01*
X1274286Y-12200171D01*
X1274286Y-12357314D01*
X1860000Y-12043029D02*
X1602857Y-12428743D01*
X2245714Y-12057314D02*
X2274286Y-12057314D01*
X2302857Y-12071600D01*
X2317143Y-12085886D01*
X2331428Y-12114457D01*
X2345714Y-12171600D01*
X2345714Y-12243029D01*
X2331428Y-12300171D01*
X2317143Y-12328743D01*
X2302857Y-12343029D01*
X2274286Y-12357314D01*
X2245714Y-12357314D01*
X2217143Y-12343029D01*
X2202857Y-12328743D01*
X2188571Y-12300171D01*
X2174286Y-12243029D01*
X2174286Y-12171600D01*
X2188571Y-12114457D01*
X2202857Y-12085886D01*
X2217143Y-12071600D01*
X2245714Y-12057314D01*
X2474286Y-12328743D02*
X2488571Y-12343029D01*
X2474286Y-12357314D01*
X2460000Y-12343029D01*
X2474286Y-12328743D01*
X2474286Y-12357314D01*
X2674286Y-12057314D02*
X2702857Y-12057314D01*
X2731428Y-12071600D01*
X2745714Y-12085886D01*
X2760000Y-12114457D01*
X2774286Y-12171600D01*
X2774286Y-12243029D01*
X2760000Y-12300171D01*
X2745714Y-12328743D01*
X2731428Y-12343029D01*
X2702857Y-12357314D01*
X2674286Y-12357314D01*
X2645714Y-12343029D01*
X2631428Y-12328743D01*
X2617143Y-12300171D01*
X2602857Y-12243029D01*
X2602857Y-12171600D01*
X2617143Y-12114457D01*
X2631428Y-12085886D01*
X2645714Y-12071600D01*
X2674286Y-12057314D01*
X3031428Y-12157314D02*
X3031428Y-12357314D01*
X2960000Y-12043029D02*
X2888571Y-12257314D01*
X3074286Y-12257314D01*
X3160000Y-12057314D02*
X3345714Y-12057314D01*
X3245714Y-12171600D01*
X3288571Y-12171600D01*
X3317143Y-12185886D01*
X3331428Y-12200171D01*
X3345714Y-12228743D01*
X3345714Y-12300171D01*
X3331428Y-12328743D01*
X3317143Y-12343029D01*
X3288571Y-12357314D01*
X3202857Y-12357314D01*
X3174286Y-12343029D01*
X3160000Y-12328743D01*
X3531428Y-12057314D02*
X3560000Y-12057314D01*
X3588571Y-12071600D01*
X3602857Y-12085886D01*
X3617143Y-12114457D01*
X3631428Y-12171600D01*
X3631428Y-12243029D01*
X3617143Y-12300171D01*
X3602857Y-12328743D01*
X3588571Y-12343029D01*
X3560000Y-12357314D01*
X3531428Y-12357314D01*
X3502857Y-12343029D01*
X3488571Y-12328743D01*
X3474286Y-12300171D01*
X3460000Y-12243029D01*
X3460000Y-12171600D01*
X3474286Y-12114457D01*
X3488571Y-12085886D01*
X3502857Y-12071600D01*
X3531428Y-12057314D01*
X3745714Y-12057314D02*
X3745714Y-12114457D01*
X3860000Y-12057314D02*
X3860000Y-12114457D01*
X4302857Y-12471600D02*
X4288571Y-12457314D01*
X4260000Y-12414457D01*
X4245714Y-12385886D01*
X4231428Y-12343029D01*
X4217143Y-12271600D01*
X4217143Y-12214457D01*
X4231428Y-12143029D01*
X4245714Y-12100171D01*
X4260000Y-12071600D01*
X4288571Y-12028743D01*
X4302857Y-12014457D01*
X4402857Y-12085886D02*
X4417143Y-12071600D01*
X4445714Y-12057314D01*
X4517143Y-12057314D01*
X4545714Y-12071600D01*
X4560000Y-12085886D01*
X4574286Y-12114457D01*
X4574286Y-12143029D01*
X4560000Y-12185886D01*
X4388571Y-12357314D01*
X4574286Y-12357314D01*
X4717143Y-12357314D02*
X4774286Y-12357314D01*
X4802857Y-12343029D01*
X4817143Y-12328743D01*
X4845714Y-12285886D01*
X4860000Y-12228743D01*
X4860000Y-12114457D01*
X4845714Y-12085886D01*
X4831428Y-12071600D01*
X4802857Y-12057314D01*
X4745714Y-12057314D01*
X4717143Y-12071600D01*
X4702857Y-12085886D01*
X4688571Y-12114457D01*
X4688571Y-12185886D01*
X4702857Y-12214457D01*
X4717143Y-12228743D01*
X4745714Y-12243029D01*
X4802857Y-12243029D01*
X4831428Y-12228743D01*
X4845714Y-12214457D01*
X4860000Y-12185886D01*
X5217143Y-12357314D02*
X5217143Y-12057314D01*
X5345714Y-12357314D02*
X5345714Y-12200171D01*
X5331428Y-12171600D01*
X5302857Y-12157314D01*
X5260000Y-12157314D01*
X5231428Y-12171600D01*
X5217143Y-12185886D01*
X5531428Y-12357314D02*
X5502857Y-12343029D01*
X5488571Y-12328743D01*
X5474286Y-12300171D01*
X5474286Y-12214457D01*
X5488571Y-12185886D01*
X5502857Y-12171600D01*
X5531428Y-12157314D01*
X5574286Y-12157314D01*
X5602857Y-12171600D01*
X5617143Y-12185886D01*
X5631428Y-12214457D01*
X5631428Y-12300171D01*
X5617143Y-12328743D01*
X5602857Y-12343029D01*
X5574286Y-12357314D01*
X5531428Y-12357314D01*
X5802857Y-12357314D02*
X5774286Y-12343029D01*
X5760000Y-12314457D01*
X5760000Y-12057314D01*
X6031428Y-12343029D02*
X6002857Y-12357314D01*
X5945714Y-12357314D01*
X5917143Y-12343029D01*
X5902857Y-12314457D01*
X5902857Y-12200171D01*
X5917143Y-12171600D01*
X5945714Y-12157314D01*
X6002857Y-12157314D01*
X6031428Y-12171600D01*
X6045714Y-12200171D01*
X6045714Y-12228743D01*
X5902857Y-12257314D01*
X6160000Y-12343029D02*
X6188571Y-12357314D01*
X6245714Y-12357314D01*
X6274286Y-12343029D01*
X6288571Y-12314457D01*
X6288571Y-12300171D01*
X6274286Y-12271600D01*
X6245714Y-12257314D01*
X6202857Y-12257314D01*
X6174286Y-12243029D01*
X6160000Y-12214457D01*
X6160000Y-12200171D01*
X6174286Y-12171600D01*
X6202857Y-12157314D01*
X6245714Y-12157314D01*
X6274286Y-12171600D01*
X6388571Y-12471600D02*
X6402857Y-12457314D01*
X6431428Y-12414457D01*
X6445714Y-12385886D01*
X6460000Y-12343029D01*
X6474286Y-12271600D01*
X6474286Y-12214457D01*
X6460000Y-12143029D01*
X6445714Y-12100171D01*
X6431428Y-12071600D01*
X6402857Y-12028743D01*
X6388571Y-12014457D01*
X-1028500Y-12691100D02*
X-955000Y-12617600D01*
X-1028500Y-12544100D01*
X-1102000Y-12617600D01*
X-1028500Y-12691100D01*
X-511429Y-12753314D02*
X-682857Y-12753314D01*
X-597143Y-12753314D02*
X-597143Y-12453314D01*
X-625714Y-12496171D01*
X-654286Y-12524743D01*
X-682857Y-12539029D01*
X-382857Y-12724743D02*
X-368571Y-12739029D01*
X-382857Y-12753314D01*
X-397143Y-12739029D01*
X-382857Y-12724743D01*
X-382857Y-12753314D01*
X-111429Y-12553314D02*
X-111429Y-12753314D01*
X-182857Y-12439029D02*
X-254286Y-12653314D01*
X-68572Y-12653314D01*
X17143Y-12453314D02*
X217143Y-12453314D01*
X88571Y-12753314D01*
X388571Y-12453314D02*
X417143Y-12453314D01*
X445714Y-12467600D01*
X460000Y-12481886D01*
X474286Y-12510457D01*
X488571Y-12567600D01*
X488571Y-12639029D01*
X474286Y-12696171D01*
X460000Y-12724743D01*
X445714Y-12739029D01*
X417143Y-12753314D01*
X388571Y-12753314D01*
X360000Y-12739029D01*
X345714Y-12724743D01*
X331428Y-12696171D01*
X317143Y-12639029D01*
X317143Y-12567600D01*
X331428Y-12510457D01*
X345714Y-12481886D01*
X360000Y-12467600D01*
X388571Y-12453314D01*
X617143Y-12753314D02*
X617143Y-12553314D01*
X617143Y-12581886D02*
X631428Y-12567600D01*
X660000Y-12553314D01*
X702857Y-12553314D01*
X731428Y-12567600D01*
X745714Y-12596171D01*
X745714Y-12753314D01*
X745714Y-12596171D02*
X760000Y-12567600D01*
X788571Y-12553314D01*
X831428Y-12553314D01*
X860000Y-12567600D01*
X874286Y-12596171D01*
X874286Y-12753314D01*
X1017143Y-12753314D02*
X1017143Y-12553314D01*
X1017143Y-12581886D02*
X1031428Y-12567600D01*
X1060000Y-12553314D01*
X1102857Y-12553314D01*
X1131428Y-12567600D01*
X1145714Y-12596171D01*
X1145714Y-12753314D01*
X1145714Y-12596171D02*
X1160000Y-12567600D01*
X1188571Y-12553314D01*
X1231428Y-12553314D01*
X1260000Y-12567600D01*
X1274286Y-12596171D01*
X1274286Y-12753314D01*
X1860000Y-12439029D02*
X1602857Y-12824743D01*
X2245714Y-12453314D02*
X2274286Y-12453314D01*
X2302857Y-12467600D01*
X2317143Y-12481886D01*
X2331428Y-12510457D01*
X2345714Y-12567600D01*
X2345714Y-12639029D01*
X2331428Y-12696171D01*
X2317143Y-12724743D01*
X2302857Y-12739029D01*
X2274286Y-12753314D01*
X2245714Y-12753314D01*
X2217143Y-12739029D01*
X2202857Y-12724743D01*
X2188571Y-12696171D01*
X2174286Y-12639029D01*
X2174286Y-12567600D01*
X2188571Y-12510457D01*
X2202857Y-12481886D01*
X2217143Y-12467600D01*
X2245714Y-12453314D01*
X2474286Y-12724743D02*
X2488571Y-12739029D01*
X2474286Y-12753314D01*
X2460000Y-12739029D01*
X2474286Y-12724743D01*
X2474286Y-12753314D01*
X2674286Y-12453314D02*
X2702857Y-12453314D01*
X2731428Y-12467600D01*
X2745714Y-12481886D01*
X2760000Y-12510457D01*
X2774286Y-12567600D01*
X2774286Y-12639029D01*
X2760000Y-12696171D01*
X2745714Y-12724743D01*
X2731428Y-12739029D01*
X2702857Y-12753314D01*
X2674286Y-12753314D01*
X2645714Y-12739029D01*
X2631428Y-12724743D01*
X2617143Y-12696171D01*
X2602857Y-12639029D01*
X2602857Y-12567600D01*
X2617143Y-12510457D01*
X2631428Y-12481886D01*
X2645714Y-12467600D01*
X2674286Y-12453314D01*
X3045714Y-12453314D02*
X2902857Y-12453314D01*
X2888571Y-12596171D01*
X2902857Y-12581886D01*
X2931428Y-12567600D01*
X3002857Y-12567600D01*
X3031428Y-12581886D01*
X3045714Y-12596171D01*
X3060000Y-12624743D01*
X3060000Y-12696171D01*
X3045714Y-12724743D01*
X3031428Y-12739029D01*
X3002857Y-12753314D01*
X2931428Y-12753314D01*
X2902857Y-12739029D01*
X2888571Y-12724743D01*
X3160000Y-12453314D02*
X3360000Y-12453314D01*
X3231428Y-12753314D01*
X3488571Y-12753314D02*
X3545714Y-12753314D01*
X3574286Y-12739029D01*
X3588571Y-12724743D01*
X3617143Y-12681886D01*
X3631428Y-12624743D01*
X3631428Y-12510457D01*
X3617143Y-12481886D01*
X3602857Y-12467600D01*
X3574286Y-12453314D01*
X3517143Y-12453314D01*
X3488571Y-12467600D01*
X3474286Y-12481886D01*
X3460000Y-12510457D01*
X3460000Y-12581886D01*
X3474286Y-12610457D01*
X3488571Y-12624743D01*
X3517143Y-12639029D01*
X3574286Y-12639029D01*
X3602857Y-12624743D01*
X3617143Y-12610457D01*
X3631428Y-12581886D01*
X3745714Y-12453314D02*
X3745714Y-12510457D01*
X3860000Y-12453314D02*
X3860000Y-12510457D01*
X4302857Y-12867600D02*
X4288571Y-12853314D01*
X4260000Y-12810457D01*
X4245714Y-12781886D01*
X4231428Y-12739029D01*
X4217143Y-12667600D01*
X4217143Y-12610457D01*
X4231428Y-12539029D01*
X4245714Y-12496171D01*
X4260000Y-12467600D01*
X4288571Y-12424743D01*
X4302857Y-12410457D01*
X4574286Y-12753314D02*
X4402857Y-12753314D01*
X4488571Y-12753314D02*
X4488571Y-12453314D01*
X4460000Y-12496171D01*
X4431428Y-12524743D01*
X4402857Y-12539029D01*
X4745714Y-12581886D02*
X4717143Y-12567600D01*
X4702857Y-12553314D01*
X4688571Y-12524743D01*
X4688571Y-12510457D01*
X4702857Y-12481886D01*
X4717143Y-12467600D01*
X4745714Y-12453314D01*
X4802857Y-12453314D01*
X4831428Y-12467600D01*
X4845714Y-12481886D01*
X4860000Y-12510457D01*
X4860000Y-12524743D01*
X4845714Y-12553314D01*
X4831428Y-12567600D01*
X4802857Y-12581886D01*
X4745714Y-12581886D01*
X4717143Y-12596171D01*
X4702857Y-12610457D01*
X4688571Y-12639029D01*
X4688571Y-12696171D01*
X4702857Y-12724743D01*
X4717143Y-12739029D01*
X4745714Y-12753314D01*
X4802857Y-12753314D01*
X4831428Y-12739029D01*
X4845714Y-12724743D01*
X4860000Y-12696171D01*
X4860000Y-12639029D01*
X4845714Y-12610457D01*
X4831428Y-12596171D01*
X4802857Y-12581886D01*
X5117143Y-12453314D02*
X5060000Y-12453314D01*
X5031428Y-12467600D01*
X5017143Y-12481886D01*
X4988571Y-12524743D01*
X4974286Y-12581886D01*
X4974286Y-12696171D01*
X4988571Y-12724743D01*
X5002857Y-12739029D01*
X5031428Y-12753314D01*
X5088571Y-12753314D01*
X5117143Y-12739029D01*
X5131428Y-12724743D01*
X5145714Y-12696171D01*
X5145714Y-12624743D01*
X5131428Y-12596171D01*
X5117143Y-12581886D01*
X5088571Y-12567600D01*
X5031428Y-12567600D01*
X5002857Y-12581886D01*
X4988571Y-12596171D01*
X4974286Y-12624743D01*
X5502857Y-12753314D02*
X5502857Y-12453314D01*
X5631428Y-12753314D02*
X5631428Y-12596171D01*
X5617143Y-12567600D01*
X5588571Y-12553314D01*
X5545714Y-12553314D01*
X5517143Y-12567600D01*
X5502857Y-12581886D01*
X5817143Y-12753314D02*
X5788571Y-12739029D01*
X5774286Y-12724743D01*
X5760000Y-12696171D01*
X5760000Y-12610457D01*
X5774286Y-12581886D01*
X5788571Y-12567600D01*
X5817143Y-12553314D01*
X5860000Y-12553314D01*
X5888571Y-12567600D01*
X5902857Y-12581886D01*
X5917143Y-12610457D01*
X5917143Y-12696171D01*
X5902857Y-12724743D01*
X5888571Y-12739029D01*
X5860000Y-12753314D01*
X5817143Y-12753314D01*
X6088571Y-12753314D02*
X6060000Y-12739029D01*
X6045714Y-12710457D01*
X6045714Y-12453314D01*
X6317143Y-12739029D02*
X6288571Y-12753314D01*
X6231428Y-12753314D01*
X6202857Y-12739029D01*
X6188571Y-12710457D01*
X6188571Y-12596171D01*
X6202857Y-12567600D01*
X6231428Y-12553314D01*
X6288571Y-12553314D01*
X6317143Y-12567600D01*
X6331428Y-12596171D01*
X6331428Y-12624743D01*
X6188571Y-12653314D01*
X6445714Y-12739029D02*
X6474286Y-12753314D01*
X6531428Y-12753314D01*
X6560000Y-12739029D01*
X6574286Y-12710457D01*
X6574286Y-12696171D01*
X6560000Y-12667600D01*
X6531428Y-12653314D01*
X6488571Y-12653314D01*
X6460000Y-12639029D01*
X6445714Y-12610457D01*
X6445714Y-12596171D01*
X6460000Y-12567600D01*
X6488571Y-12553314D01*
X6531428Y-12553314D01*
X6560000Y-12567600D01*
X6674286Y-12867600D02*
X6688571Y-12853314D01*
X6717143Y-12810457D01*
X6731428Y-12781886D01*
X6745714Y-12739029D01*
X6760000Y-12667600D01*
X6760000Y-12610457D01*
X6745714Y-12539029D01*
X6731428Y-12496171D01*
X6717143Y-12467600D01*
X6688571Y-12424743D01*
X6674286Y-12410457D01*
X-1105000Y-12938600D02*
X-955000Y-13088600D01*
X-955000Y-12938600D02*
X-1105000Y-13088600D01*
X-955000Y-13013600D02*
G75*
G03*
X-955000Y-13013600I-75000J0D01*
G01*
X-511429Y-13149314D02*
X-682857Y-13149314D01*
X-597143Y-13149314D02*
X-597143Y-12849314D01*
X-625714Y-12892171D01*
X-654286Y-12920743D01*
X-682857Y-12935029D01*
X-382857Y-13120743D02*
X-368571Y-13135029D01*
X-382857Y-13149314D01*
X-397143Y-13135029D01*
X-382857Y-13120743D01*
X-382857Y-13149314D01*
X-97143Y-12849314D02*
X-240000Y-12849314D01*
X-254286Y-12992171D01*
X-240000Y-12977886D01*
X-211429Y-12963600D01*
X-140000Y-12963600D01*
X-111429Y-12977886D01*
X-97143Y-12992171D01*
X-82857Y-13020743D01*
X-82857Y-13092171D01*
X-97143Y-13120743D01*
X-111429Y-13135029D01*
X-140000Y-13149314D01*
X-211429Y-13149314D01*
X-240000Y-13135029D01*
X-254286Y-13120743D01*
X102857Y-12849314D02*
X131428Y-12849314D01*
X160000Y-12863600D01*
X174286Y-12877886D01*
X188571Y-12906457D01*
X202857Y-12963600D01*
X202857Y-13035029D01*
X188571Y-13092171D01*
X174286Y-13120743D01*
X160000Y-13135029D01*
X131428Y-13149314D01*
X102857Y-13149314D01*
X74286Y-13135029D01*
X60000Y-13120743D01*
X45714Y-13092171D01*
X31428Y-13035029D01*
X31428Y-12963600D01*
X45714Y-12906457D01*
X60000Y-12877886D01*
X74286Y-12863600D01*
X102857Y-12849314D01*
X388571Y-12849314D02*
X417143Y-12849314D01*
X445714Y-12863600D01*
X460000Y-12877886D01*
X474286Y-12906457D01*
X488571Y-12963600D01*
X488571Y-13035029D01*
X474286Y-13092171D01*
X460000Y-13120743D01*
X445714Y-13135029D01*
X417143Y-13149314D01*
X388571Y-13149314D01*
X360000Y-13135029D01*
X345714Y-13120743D01*
X331428Y-13092171D01*
X317143Y-13035029D01*
X317143Y-12963600D01*
X331428Y-12906457D01*
X345714Y-12877886D01*
X360000Y-12863600D01*
X388571Y-12849314D01*
X617143Y-13149314D02*
X617143Y-12949314D01*
X617143Y-12977886D02*
X631428Y-12963600D01*
X660000Y-12949314D01*
X702857Y-12949314D01*
X731428Y-12963600D01*
X745714Y-12992171D01*
X745714Y-13149314D01*
X745714Y-12992171D02*
X760000Y-12963600D01*
X788571Y-12949314D01*
X831428Y-12949314D01*
X860000Y-12963600D01*
X874286Y-12992171D01*
X874286Y-13149314D01*
X1017143Y-13149314D02*
X1017143Y-12949314D01*
X1017143Y-12977886D02*
X1031428Y-12963600D01*
X1060000Y-12949314D01*
X1102857Y-12949314D01*
X1131428Y-12963600D01*
X1145714Y-12992171D01*
X1145714Y-13149314D01*
X1145714Y-12992171D02*
X1160000Y-12963600D01*
X1188571Y-12949314D01*
X1231428Y-12949314D01*
X1260000Y-12963600D01*
X1274286Y-12992171D01*
X1274286Y-13149314D01*
X1860000Y-12835029D02*
X1602857Y-13220743D01*
X2245714Y-12849314D02*
X2274286Y-12849314D01*
X2302857Y-12863600D01*
X2317143Y-12877886D01*
X2331428Y-12906457D01*
X2345714Y-12963600D01*
X2345714Y-13035029D01*
X2331428Y-13092171D01*
X2317143Y-13120743D01*
X2302857Y-13135029D01*
X2274286Y-13149314D01*
X2245714Y-13149314D01*
X2217143Y-13135029D01*
X2202857Y-13120743D01*
X2188571Y-13092171D01*
X2174286Y-13035029D01*
X2174286Y-12963600D01*
X2188571Y-12906457D01*
X2202857Y-12877886D01*
X2217143Y-12863600D01*
X2245714Y-12849314D01*
X2474286Y-13120743D02*
X2488571Y-13135029D01*
X2474286Y-13149314D01*
X2460000Y-13135029D01*
X2474286Y-13120743D01*
X2474286Y-13149314D01*
X2674286Y-12849314D02*
X2702857Y-12849314D01*
X2731428Y-12863600D01*
X2745714Y-12877886D01*
X2760000Y-12906457D01*
X2774286Y-12963600D01*
X2774286Y-13035029D01*
X2760000Y-13092171D01*
X2745714Y-13120743D01*
X2731428Y-13135029D01*
X2702857Y-13149314D01*
X2674286Y-13149314D01*
X2645714Y-13135029D01*
X2631428Y-13120743D01*
X2617143Y-13092171D01*
X2602857Y-13035029D01*
X2602857Y-12963600D01*
X2617143Y-12906457D01*
X2631428Y-12877886D01*
X2645714Y-12863600D01*
X2674286Y-12849314D01*
X3045714Y-12849314D02*
X2902857Y-12849314D01*
X2888571Y-12992171D01*
X2902857Y-12977886D01*
X2931428Y-12963600D01*
X3002857Y-12963600D01*
X3031428Y-12977886D01*
X3045714Y-12992171D01*
X3060000Y-13020743D01*
X3060000Y-13092171D01*
X3045714Y-13120743D01*
X3031428Y-13135029D01*
X3002857Y-13149314D01*
X2931428Y-13149314D01*
X2902857Y-13135029D01*
X2888571Y-13120743D01*
X3202857Y-13149314D02*
X3260000Y-13149314D01*
X3288571Y-13135029D01*
X3302857Y-13120743D01*
X3331428Y-13077886D01*
X3345714Y-13020743D01*
X3345714Y-12906457D01*
X3331428Y-12877886D01*
X3317143Y-12863600D01*
X3288571Y-12849314D01*
X3231428Y-12849314D01*
X3202857Y-12863600D01*
X3188571Y-12877886D01*
X3174286Y-12906457D01*
X3174286Y-12977886D01*
X3188571Y-13006457D01*
X3202857Y-13020743D01*
X3231428Y-13035029D01*
X3288571Y-13035029D01*
X3317143Y-13020743D01*
X3331428Y-13006457D01*
X3345714Y-12977886D01*
X3631428Y-13149314D02*
X3460000Y-13149314D01*
X3545714Y-13149314D02*
X3545714Y-12849314D01*
X3517143Y-12892171D01*
X3488571Y-12920743D01*
X3460000Y-12935029D01*
X3745714Y-12849314D02*
X3745714Y-12906457D01*
X3860000Y-12849314D02*
X3860000Y-12906457D01*
X4302857Y-13263600D02*
X4288571Y-13249314D01*
X4260000Y-13206457D01*
X4245714Y-13177886D01*
X4231428Y-13135029D01*
X4217143Y-13063600D01*
X4217143Y-13006457D01*
X4231428Y-12935029D01*
X4245714Y-12892171D01*
X4260000Y-12863600D01*
X4288571Y-12820743D01*
X4302857Y-12806457D01*
X4474286Y-12849314D02*
X4502857Y-12849314D01*
X4531428Y-12863600D01*
X4545714Y-12877886D01*
X4560000Y-12906457D01*
X4574286Y-12963600D01*
X4574286Y-13035029D01*
X4560000Y-13092171D01*
X4545714Y-13120743D01*
X4531428Y-13135029D01*
X4502857Y-13149314D01*
X4474286Y-13149314D01*
X4445714Y-13135029D01*
X4431428Y-13120743D01*
X4417143Y-13092171D01*
X4402857Y-13035029D01*
X4402857Y-12963600D01*
X4417143Y-12906457D01*
X4431428Y-12877886D01*
X4445714Y-12863600D01*
X4474286Y-12849314D01*
X4931428Y-13149314D02*
X4931428Y-12849314D01*
X5060000Y-13149314D02*
X5060000Y-12992171D01*
X5045714Y-12963600D01*
X5017143Y-12949314D01*
X4974286Y-12949314D01*
X4945714Y-12963600D01*
X4931428Y-12977886D01*
X5245714Y-13149314D02*
X5217143Y-13135029D01*
X5202857Y-13120743D01*
X5188571Y-13092171D01*
X5188571Y-13006457D01*
X5202857Y-12977886D01*
X5217143Y-12963600D01*
X5245714Y-12949314D01*
X5288571Y-12949314D01*
X5317143Y-12963600D01*
X5331428Y-12977886D01*
X5345714Y-13006457D01*
X5345714Y-13092171D01*
X5331428Y-13120743D01*
X5317143Y-13135029D01*
X5288571Y-13149314D01*
X5245714Y-13149314D01*
X5517143Y-13149314D02*
X5488571Y-13135029D01*
X5474286Y-13106457D01*
X5474286Y-12849314D01*
X5745714Y-13135029D02*
X5717143Y-13149314D01*
X5660000Y-13149314D01*
X5631428Y-13135029D01*
X5617143Y-13106457D01*
X5617143Y-12992171D01*
X5631428Y-12963600D01*
X5660000Y-12949314D01*
X5717143Y-12949314D01*
X5745714Y-12963600D01*
X5760000Y-12992171D01*
X5760000Y-13020743D01*
X5617143Y-13049314D01*
X5874286Y-13135029D02*
X5902857Y-13149314D01*
X5960000Y-13149314D01*
X5988571Y-13135029D01*
X6002857Y-13106457D01*
X6002857Y-13092171D01*
X5988571Y-13063600D01*
X5960000Y-13049314D01*
X5917143Y-13049314D01*
X5888571Y-13035029D01*
X5874286Y-13006457D01*
X5874286Y-12992171D01*
X5888571Y-12963600D01*
X5917143Y-12949314D01*
X5960000Y-12949314D01*
X5988571Y-12963600D01*
X6360000Y-13035029D02*
X6588571Y-13035029D01*
X6474286Y-13149314D02*
X6474286Y-12920743D01*
X6945714Y-12877886D02*
X6960000Y-12863600D01*
X6988571Y-12849314D01*
X7060000Y-12849314D01*
X7088571Y-12863600D01*
X7102857Y-12877886D01*
X7117143Y-12906457D01*
X7117143Y-12935029D01*
X7102857Y-12977886D01*
X6931428Y-13149314D01*
X7117143Y-13149314D01*
X7460000Y-13135029D02*
X7488571Y-13149314D01*
X7545714Y-13149314D01*
X7574286Y-13135029D01*
X7588571Y-13106457D01*
X7588571Y-13092171D01*
X7574286Y-13063600D01*
X7545714Y-13049314D01*
X7502857Y-13049314D01*
X7474286Y-13035029D01*
X7460000Y-13006457D01*
X7460000Y-12992171D01*
X7474286Y-12963600D01*
X7502857Y-12949314D01*
X7545714Y-12949314D01*
X7574286Y-12963600D01*
X7760000Y-13149314D02*
X7731428Y-13135029D01*
X7717143Y-13106457D01*
X7717143Y-12849314D01*
X7917143Y-13149314D02*
X7888571Y-13135029D01*
X7874286Y-13120743D01*
X7860000Y-13092171D01*
X7860000Y-13006457D01*
X7874286Y-12977886D01*
X7888571Y-12963600D01*
X7917143Y-12949314D01*
X7960000Y-12949314D01*
X7988571Y-12963600D01*
X8002857Y-12977886D01*
X8017143Y-13006457D01*
X8017143Y-13092171D01*
X8002857Y-13120743D01*
X7988571Y-13135029D01*
X7960000Y-13149314D01*
X7917143Y-13149314D01*
X8102857Y-12949314D02*
X8217143Y-12949314D01*
X8145714Y-12849314D02*
X8145714Y-13106457D01*
X8160000Y-13135029D01*
X8188571Y-13149314D01*
X8217143Y-13149314D01*
X8302857Y-13135029D02*
X8331428Y-13149314D01*
X8388571Y-13149314D01*
X8417143Y-13135029D01*
X8431428Y-13106457D01*
X8431428Y-13092171D01*
X8417143Y-13063600D01*
X8388571Y-13049314D01*
X8345714Y-13049314D01*
X8317143Y-13035029D01*
X8302857Y-13006457D01*
X8302857Y-12992171D01*
X8317143Y-12963600D01*
X8345714Y-12949314D01*
X8388571Y-12949314D01*
X8417143Y-12963600D01*
X8531428Y-13263600D02*
X8545714Y-13249314D01*
X8574286Y-13206457D01*
X8588571Y-13177886D01*
X8602857Y-13135029D01*
X8617143Y-13063600D01*
X8617143Y-13006457D01*
X8602857Y-12935029D01*
X8588571Y-12892171D01*
X8574286Y-12863600D01*
X8545714Y-12820743D01*
X8531428Y-12806457D01*
X-1175000Y-13299600D02*
X-955000Y-13519600D01*
X-955000Y-13299600D02*
X-1175000Y-13519600D01*
X-1065000Y-13299600D02*
X-1065000Y-13519600D01*
X-1175000Y-13409600D02*
X-955000Y-13409600D01*
X-682857Y-13273886D02*
X-668572Y-13259600D01*
X-640000Y-13245314D01*
X-568572Y-13245314D01*
X-540000Y-13259600D01*
X-525714Y-13273886D01*
X-511429Y-13302457D01*
X-511429Y-13331029D01*
X-525714Y-13373886D01*
X-697143Y-13545314D01*
X-511429Y-13545314D01*
X-382857Y-13516743D02*
X-368571Y-13531029D01*
X-382857Y-13545314D01*
X-397143Y-13531029D01*
X-382857Y-13516743D01*
X-382857Y-13545314D01*
X-254286Y-13273886D02*
X-240000Y-13259600D01*
X-211429Y-13245314D01*
X-140000Y-13245314D01*
X-111429Y-13259600D01*
X-97143Y-13273886D01*
X-82857Y-13302457D01*
X-82857Y-13331029D01*
X-97143Y-13373886D01*
X-268572Y-13545314D01*
X-82857Y-13545314D01*
X102857Y-13245314D02*
X131428Y-13245314D01*
X160000Y-13259600D01*
X174286Y-13273886D01*
X188571Y-13302457D01*
X202857Y-13359600D01*
X202857Y-13431029D01*
X188571Y-13488171D01*
X174286Y-13516743D01*
X160000Y-13531029D01*
X131428Y-13545314D01*
X102857Y-13545314D01*
X74286Y-13531029D01*
X60000Y-13516743D01*
X45714Y-13488171D01*
X31428Y-13431029D01*
X31428Y-13359600D01*
X45714Y-13302457D01*
X60000Y-13273886D01*
X74286Y-13259600D01*
X102857Y-13245314D01*
X388571Y-13245314D02*
X417143Y-13245314D01*
X445714Y-13259600D01*
X460000Y-13273886D01*
X474286Y-13302457D01*
X488571Y-13359600D01*
X488571Y-13431029D01*
X474286Y-13488171D01*
X460000Y-13516743D01*
X445714Y-13531029D01*
X417143Y-13545314D01*
X388571Y-13545314D01*
X360000Y-13531029D01*
X345714Y-13516743D01*
X331428Y-13488171D01*
X317143Y-13431029D01*
X317143Y-13359600D01*
X331428Y-13302457D01*
X345714Y-13273886D01*
X360000Y-13259600D01*
X388571Y-13245314D01*
X617143Y-13545314D02*
X617143Y-13345314D01*
X617143Y-13373886D02*
X631428Y-13359600D01*
X660000Y-13345314D01*
X702857Y-13345314D01*
X731428Y-13359600D01*
X745714Y-13388171D01*
X745714Y-13545314D01*
X745714Y-13388171D02*
X760000Y-13359600D01*
X788571Y-13345314D01*
X831428Y-13345314D01*
X860000Y-13359600D01*
X874286Y-13388171D01*
X874286Y-13545314D01*
X1017143Y-13545314D02*
X1017143Y-13345314D01*
X1017143Y-13373886D02*
X1031428Y-13359600D01*
X1060000Y-13345314D01*
X1102857Y-13345314D01*
X1131428Y-13359600D01*
X1145714Y-13388171D01*
X1145714Y-13545314D01*
X1145714Y-13388171D02*
X1160000Y-13359600D01*
X1188571Y-13345314D01*
X1231428Y-13345314D01*
X1260000Y-13359600D01*
X1274286Y-13388171D01*
X1274286Y-13545314D01*
X1860000Y-13231029D02*
X1602857Y-13616743D01*
X2245714Y-13245314D02*
X2274286Y-13245314D01*
X2302857Y-13259600D01*
X2317143Y-13273886D01*
X2331428Y-13302457D01*
X2345714Y-13359600D01*
X2345714Y-13431029D01*
X2331428Y-13488171D01*
X2317143Y-13516743D01*
X2302857Y-13531029D01*
X2274286Y-13545314D01*
X2245714Y-13545314D01*
X2217143Y-13531029D01*
X2202857Y-13516743D01*
X2188571Y-13488171D01*
X2174286Y-13431029D01*
X2174286Y-13359600D01*
X2188571Y-13302457D01*
X2202857Y-13273886D01*
X2217143Y-13259600D01*
X2245714Y-13245314D01*
X2474286Y-13516743D02*
X2488571Y-13531029D01*
X2474286Y-13545314D01*
X2460000Y-13531029D01*
X2474286Y-13516743D01*
X2474286Y-13545314D01*
X2674286Y-13245314D02*
X2702857Y-13245314D01*
X2731428Y-13259600D01*
X2745714Y-13273886D01*
X2760000Y-13302457D01*
X2774286Y-13359600D01*
X2774286Y-13431029D01*
X2760000Y-13488171D01*
X2745714Y-13516743D01*
X2731428Y-13531029D01*
X2702857Y-13545314D01*
X2674286Y-13545314D01*
X2645714Y-13531029D01*
X2631428Y-13516743D01*
X2617143Y-13488171D01*
X2602857Y-13431029D01*
X2602857Y-13359600D01*
X2617143Y-13302457D01*
X2631428Y-13273886D01*
X2645714Y-13259600D01*
X2674286Y-13245314D01*
X2945714Y-13373886D02*
X2917143Y-13359600D01*
X2902857Y-13345314D01*
X2888571Y-13316743D01*
X2888571Y-13302457D01*
X2902857Y-13273886D01*
X2917143Y-13259600D01*
X2945714Y-13245314D01*
X3002857Y-13245314D01*
X3031428Y-13259600D01*
X3045714Y-13273886D01*
X3060000Y-13302457D01*
X3060000Y-13316743D01*
X3045714Y-13345314D01*
X3031428Y-13359600D01*
X3002857Y-13373886D01*
X2945714Y-13373886D01*
X2917143Y-13388171D01*
X2902857Y-13402457D01*
X2888571Y-13431029D01*
X2888571Y-13488171D01*
X2902857Y-13516743D01*
X2917143Y-13531029D01*
X2945714Y-13545314D01*
X3002857Y-13545314D01*
X3031428Y-13531029D01*
X3045714Y-13516743D01*
X3060000Y-13488171D01*
X3060000Y-13431029D01*
X3045714Y-13402457D01*
X3031428Y-13388171D01*
X3002857Y-13373886D01*
X3317143Y-13245314D02*
X3260000Y-13245314D01*
X3231428Y-13259600D01*
X3217143Y-13273886D01*
X3188571Y-13316743D01*
X3174286Y-13373886D01*
X3174286Y-13488171D01*
X3188571Y-13516743D01*
X3202857Y-13531029D01*
X3231428Y-13545314D01*
X3288571Y-13545314D01*
X3317143Y-13531029D01*
X3331428Y-13516743D01*
X3345714Y-13488171D01*
X3345714Y-13416743D01*
X3331428Y-13388171D01*
X3317143Y-13373886D01*
X3288571Y-13359600D01*
X3231428Y-13359600D01*
X3202857Y-13373886D01*
X3188571Y-13388171D01*
X3174286Y-13416743D01*
X3602857Y-13245314D02*
X3545714Y-13245314D01*
X3517143Y-13259600D01*
X3502857Y-13273886D01*
X3474286Y-13316743D01*
X3460000Y-13373886D01*
X3460000Y-13488171D01*
X3474286Y-13516743D01*
X3488571Y-13531029D01*
X3517143Y-13545314D01*
X3574286Y-13545314D01*
X3602857Y-13531029D01*
X3617143Y-13516743D01*
X3631428Y-13488171D01*
X3631428Y-13416743D01*
X3617143Y-13388171D01*
X3602857Y-13373886D01*
X3574286Y-13359600D01*
X3517143Y-13359600D01*
X3488571Y-13373886D01*
X3474286Y-13388171D01*
X3460000Y-13416743D01*
X3745714Y-13245314D02*
X3745714Y-13302457D01*
X3860000Y-13245314D02*
X3860000Y-13302457D01*
X4302857Y-13659600D02*
X4288571Y-13645314D01*
X4260000Y-13602457D01*
X4245714Y-13573886D01*
X4231428Y-13531029D01*
X4217143Y-13459600D01*
X4217143Y-13402457D01*
X4231428Y-13331029D01*
X4245714Y-13288171D01*
X4260000Y-13259600D01*
X4288571Y-13216743D01*
X4302857Y-13202457D01*
X4574286Y-13545314D02*
X4402857Y-13545314D01*
X4488571Y-13545314D02*
X4488571Y-13245314D01*
X4460000Y-13288171D01*
X4431428Y-13316743D01*
X4402857Y-13331029D01*
X4760000Y-13245314D02*
X4788571Y-13245314D01*
X4817143Y-13259600D01*
X4831428Y-13273886D01*
X4845714Y-13302457D01*
X4860000Y-13359600D01*
X4860000Y-13431029D01*
X4845714Y-13488171D01*
X4831428Y-13516743D01*
X4817143Y-13531029D01*
X4788571Y-13545314D01*
X4760000Y-13545314D01*
X4731428Y-13531029D01*
X4717143Y-13516743D01*
X4702857Y-13488171D01*
X4688571Y-13431029D01*
X4688571Y-13359600D01*
X4702857Y-13302457D01*
X4717143Y-13273886D01*
X4731428Y-13259600D01*
X4760000Y-13245314D01*
X5217143Y-13545314D02*
X5217143Y-13245314D01*
X5345714Y-13545314D02*
X5345714Y-13388171D01*
X5331428Y-13359600D01*
X5302857Y-13345314D01*
X5260000Y-13345314D01*
X5231428Y-13359600D01*
X5217143Y-13373886D01*
X5531428Y-13545314D02*
X5502857Y-13531029D01*
X5488571Y-13516743D01*
X5474286Y-13488171D01*
X5474286Y-13402457D01*
X5488571Y-13373886D01*
X5502857Y-13359600D01*
X5531428Y-13345314D01*
X5574286Y-13345314D01*
X5602857Y-13359600D01*
X5617143Y-13373886D01*
X5631428Y-13402457D01*
X5631428Y-13488171D01*
X5617143Y-13516743D01*
X5602857Y-13531029D01*
X5574286Y-13545314D01*
X5531428Y-13545314D01*
X5802857Y-13545314D02*
X5774286Y-13531029D01*
X5760000Y-13502457D01*
X5760000Y-13245314D01*
X6031428Y-13531029D02*
X6002857Y-13545314D01*
X5945714Y-13545314D01*
X5917143Y-13531029D01*
X5902857Y-13502457D01*
X5902857Y-13388171D01*
X5917143Y-13359600D01*
X5945714Y-13345314D01*
X6002857Y-13345314D01*
X6031428Y-13359600D01*
X6045714Y-13388171D01*
X6045714Y-13416743D01*
X5902857Y-13445314D01*
X6160000Y-13531029D02*
X6188571Y-13545314D01*
X6245714Y-13545314D01*
X6274286Y-13531029D01*
X6288571Y-13502457D01*
X6288571Y-13488171D01*
X6274286Y-13459600D01*
X6245714Y-13445314D01*
X6202857Y-13445314D01*
X6174286Y-13431029D01*
X6160000Y-13402457D01*
X6160000Y-13388171D01*
X6174286Y-13359600D01*
X6202857Y-13345314D01*
X6245714Y-13345314D01*
X6274286Y-13359600D01*
X6388571Y-13659600D02*
X6402857Y-13645314D01*
X6431428Y-13602457D01*
X6445714Y-13573886D01*
X6460000Y-13531029D01*
X6474286Y-13459600D01*
X6474286Y-13402457D01*
X6460000Y-13331029D01*
X6445714Y-13288171D01*
X6431428Y-13259600D01*
X6402857Y-13216743D01*
X6388571Y-13202457D01*
X-1130000Y-13718100D02*
X-955000Y-13893100D01*
X-955000Y-13718100D02*
X-1130000Y-13893100D01*
X-980628Y-13867472D02*
X-980628Y-13743728D01*
X-1104373Y-13743728D01*
X-1104373Y-13867472D01*
X-980628Y-13867472D01*
X-511429Y-13941314D02*
X-682857Y-13941314D01*
X-597143Y-13941314D02*
X-597143Y-13641314D01*
X-625714Y-13684171D01*
X-654286Y-13712743D01*
X-682857Y-13727029D01*
X-382857Y-13912743D02*
X-368571Y-13927029D01*
X-382857Y-13941314D01*
X-397143Y-13927029D01*
X-382857Y-13912743D01*
X-382857Y-13941314D01*
X-268572Y-13641314D02*
X-68572Y-13641314D01*
X-197143Y-13941314D01*
X188571Y-13641314D02*
X45714Y-13641314D01*
X31428Y-13784171D01*
X45714Y-13769886D01*
X74286Y-13755600D01*
X145714Y-13755600D01*
X174286Y-13769886D01*
X188571Y-13784171D01*
X202857Y-13812743D01*
X202857Y-13884171D01*
X188571Y-13912743D01*
X174286Y-13927029D01*
X145714Y-13941314D01*
X74286Y-13941314D01*
X45714Y-13927029D01*
X31428Y-13912743D01*
X388571Y-13641314D02*
X417143Y-13641314D01*
X445714Y-13655600D01*
X460000Y-13669886D01*
X474286Y-13698457D01*
X488571Y-13755600D01*
X488571Y-13827029D01*
X474286Y-13884171D01*
X460000Y-13912743D01*
X445714Y-13927029D01*
X417143Y-13941314D01*
X388571Y-13941314D01*
X360000Y-13927029D01*
X345714Y-13912743D01*
X331428Y-13884171D01*
X317143Y-13827029D01*
X317143Y-13755600D01*
X331428Y-13698457D01*
X345714Y-13669886D01*
X360000Y-13655600D01*
X388571Y-13641314D01*
X617143Y-13941314D02*
X617143Y-13741314D01*
X617143Y-13769886D02*
X631428Y-13755600D01*
X660000Y-13741314D01*
X702857Y-13741314D01*
X731428Y-13755600D01*
X745714Y-13784171D01*
X745714Y-13941314D01*
X745714Y-13784171D02*
X760000Y-13755600D01*
X788571Y-13741314D01*
X831428Y-13741314D01*
X860000Y-13755600D01*
X874286Y-13784171D01*
X874286Y-13941314D01*
X1017143Y-13941314D02*
X1017143Y-13741314D01*
X1017143Y-13769886D02*
X1031428Y-13755600D01*
X1060000Y-13741314D01*
X1102857Y-13741314D01*
X1131428Y-13755600D01*
X1145714Y-13784171D01*
X1145714Y-13941314D01*
X1145714Y-13784171D02*
X1160000Y-13755600D01*
X1188571Y-13741314D01*
X1231428Y-13741314D01*
X1260000Y-13755600D01*
X1274286Y-13784171D01*
X1274286Y-13941314D01*
X1860000Y-13627029D02*
X1602857Y-14012743D01*
X2245714Y-13641314D02*
X2274286Y-13641314D01*
X2302857Y-13655600D01*
X2317143Y-13669886D01*
X2331428Y-13698457D01*
X2345714Y-13755600D01*
X2345714Y-13827029D01*
X2331428Y-13884171D01*
X2317143Y-13912743D01*
X2302857Y-13927029D01*
X2274286Y-13941314D01*
X2245714Y-13941314D01*
X2217143Y-13927029D01*
X2202857Y-13912743D01*
X2188571Y-13884171D01*
X2174286Y-13827029D01*
X2174286Y-13755600D01*
X2188571Y-13698457D01*
X2202857Y-13669886D01*
X2217143Y-13655600D01*
X2245714Y-13641314D01*
X2474286Y-13912743D02*
X2488571Y-13927029D01*
X2474286Y-13941314D01*
X2460000Y-13927029D01*
X2474286Y-13912743D01*
X2474286Y-13941314D01*
X2674286Y-13641314D02*
X2702857Y-13641314D01*
X2731428Y-13655600D01*
X2745714Y-13669886D01*
X2760000Y-13698457D01*
X2774286Y-13755600D01*
X2774286Y-13827029D01*
X2760000Y-13884171D01*
X2745714Y-13912743D01*
X2731428Y-13927029D01*
X2702857Y-13941314D01*
X2674286Y-13941314D01*
X2645714Y-13927029D01*
X2631428Y-13912743D01*
X2617143Y-13884171D01*
X2602857Y-13827029D01*
X2602857Y-13755600D01*
X2617143Y-13698457D01*
X2631428Y-13669886D01*
X2645714Y-13655600D01*
X2674286Y-13641314D01*
X3031428Y-13641314D02*
X2974286Y-13641314D01*
X2945714Y-13655600D01*
X2931428Y-13669886D01*
X2902857Y-13712743D01*
X2888571Y-13769886D01*
X2888571Y-13884171D01*
X2902857Y-13912743D01*
X2917143Y-13927029D01*
X2945714Y-13941314D01*
X3002857Y-13941314D01*
X3031428Y-13927029D01*
X3045714Y-13912743D01*
X3060000Y-13884171D01*
X3060000Y-13812743D01*
X3045714Y-13784171D01*
X3031428Y-13769886D01*
X3002857Y-13755600D01*
X2945714Y-13755600D01*
X2917143Y-13769886D01*
X2902857Y-13784171D01*
X2888571Y-13812743D01*
X3231428Y-13769886D02*
X3202857Y-13755600D01*
X3188571Y-13741314D01*
X3174286Y-13712743D01*
X3174286Y-13698457D01*
X3188571Y-13669886D01*
X3202857Y-13655600D01*
X3231428Y-13641314D01*
X3288571Y-13641314D01*
X3317143Y-13655600D01*
X3331428Y-13669886D01*
X3345714Y-13698457D01*
X3345714Y-13712743D01*
X3331428Y-13741314D01*
X3317143Y-13755600D01*
X3288571Y-13769886D01*
X3231428Y-13769886D01*
X3202857Y-13784171D01*
X3188571Y-13798457D01*
X3174286Y-13827029D01*
X3174286Y-13884171D01*
X3188571Y-13912743D01*
X3202857Y-13927029D01*
X3231428Y-13941314D01*
X3288571Y-13941314D01*
X3317143Y-13927029D01*
X3331428Y-13912743D01*
X3345714Y-13884171D01*
X3345714Y-13827029D01*
X3331428Y-13798457D01*
X3317143Y-13784171D01*
X3288571Y-13769886D01*
X3488571Y-13941314D02*
X3545714Y-13941314D01*
X3574286Y-13927029D01*
X3588571Y-13912743D01*
X3617143Y-13869886D01*
X3631428Y-13812743D01*
X3631428Y-13698457D01*
X3617143Y-13669886D01*
X3602857Y-13655600D01*
X3574286Y-13641314D01*
X3517143Y-13641314D01*
X3488571Y-13655600D01*
X3474286Y-13669886D01*
X3460000Y-13698457D01*
X3460000Y-13769886D01*
X3474286Y-13798457D01*
X3488571Y-13812743D01*
X3517143Y-13827029D01*
X3574286Y-13827029D01*
X3602857Y-13812743D01*
X3617143Y-13798457D01*
X3631428Y-13769886D01*
X3745714Y-13641314D02*
X3745714Y-13698457D01*
X3860000Y-13641314D02*
X3860000Y-13698457D01*
X4302857Y-14055600D02*
X4288571Y-14041314D01*
X4260000Y-13998457D01*
X4245714Y-13969886D01*
X4231428Y-13927029D01*
X4217143Y-13855600D01*
X4217143Y-13798457D01*
X4231428Y-13727029D01*
X4245714Y-13684171D01*
X4260000Y-13655600D01*
X4288571Y-13612743D01*
X4302857Y-13598457D01*
X4574286Y-13941314D02*
X4402857Y-13941314D01*
X4488571Y-13941314D02*
X4488571Y-13641314D01*
X4460000Y-13684171D01*
X4431428Y-13712743D01*
X4402857Y-13727029D01*
X4745714Y-13769886D02*
X4717143Y-13755600D01*
X4702857Y-13741314D01*
X4688571Y-13712743D01*
X4688571Y-13698457D01*
X4702857Y-13669886D01*
X4717143Y-13655600D01*
X4745714Y-13641314D01*
X4802857Y-13641314D01*
X4831428Y-13655600D01*
X4845714Y-13669886D01*
X4860000Y-13698457D01*
X4860000Y-13712743D01*
X4845714Y-13741314D01*
X4831428Y-13755600D01*
X4802857Y-13769886D01*
X4745714Y-13769886D01*
X4717143Y-13784171D01*
X4702857Y-13798457D01*
X4688571Y-13827029D01*
X4688571Y-13884171D01*
X4702857Y-13912743D01*
X4717143Y-13927029D01*
X4745714Y-13941314D01*
X4802857Y-13941314D01*
X4831428Y-13927029D01*
X4845714Y-13912743D01*
X4860000Y-13884171D01*
X4860000Y-13827029D01*
X4845714Y-13798457D01*
X4831428Y-13784171D01*
X4802857Y-13769886D01*
X5117143Y-13641314D02*
X5060000Y-13641314D01*
X5031428Y-13655600D01*
X5017143Y-13669886D01*
X4988571Y-13712743D01*
X4974286Y-13769886D01*
X4974286Y-13884171D01*
X4988571Y-13912743D01*
X5002857Y-13927029D01*
X5031428Y-13941314D01*
X5088571Y-13941314D01*
X5117143Y-13927029D01*
X5131428Y-13912743D01*
X5145714Y-13884171D01*
X5145714Y-13812743D01*
X5131428Y-13784171D01*
X5117143Y-13769886D01*
X5088571Y-13755600D01*
X5031428Y-13755600D01*
X5002857Y-13769886D01*
X4988571Y-13784171D01*
X4974286Y-13812743D01*
X5502857Y-13941314D02*
X5502857Y-13641314D01*
X5631428Y-13941314D02*
X5631428Y-13784171D01*
X5617143Y-13755600D01*
X5588571Y-13741314D01*
X5545714Y-13741314D01*
X5517143Y-13755600D01*
X5502857Y-13769886D01*
X5817143Y-13941314D02*
X5788571Y-13927029D01*
X5774286Y-13912743D01*
X5760000Y-13884171D01*
X5760000Y-13798457D01*
X5774286Y-13769886D01*
X5788571Y-13755600D01*
X5817143Y-13741314D01*
X5860000Y-13741314D01*
X5888571Y-13755600D01*
X5902857Y-13769886D01*
X5917143Y-13798457D01*
X5917143Y-13884171D01*
X5902857Y-13912743D01*
X5888571Y-13927029D01*
X5860000Y-13941314D01*
X5817143Y-13941314D01*
X6088571Y-13941314D02*
X6060000Y-13927029D01*
X6045714Y-13898457D01*
X6045714Y-13641314D01*
X6317143Y-13927029D02*
X6288571Y-13941314D01*
X6231428Y-13941314D01*
X6202857Y-13927029D01*
X6188571Y-13898457D01*
X6188571Y-13784171D01*
X6202857Y-13755600D01*
X6231428Y-13741314D01*
X6288571Y-13741314D01*
X6317143Y-13755600D01*
X6331428Y-13784171D01*
X6331428Y-13812743D01*
X6188571Y-13841314D01*
X6445714Y-13927029D02*
X6474286Y-13941314D01*
X6531428Y-13941314D01*
X6560000Y-13927029D01*
X6574286Y-13898457D01*
X6574286Y-13884171D01*
X6560000Y-13855600D01*
X6531428Y-13841314D01*
X6488571Y-13841314D01*
X6460000Y-13827029D01*
X6445714Y-13798457D01*
X6445714Y-13784171D01*
X6460000Y-13755600D01*
X6488571Y-13741314D01*
X6531428Y-13741314D01*
X6560000Y-13755600D01*
X6674286Y-14055600D02*
X6688571Y-14041314D01*
X6717143Y-13998457D01*
X6731428Y-13969886D01*
X6745714Y-13927029D01*
X6760000Y-13855600D01*
X6760000Y-13798457D01*
X6745714Y-13727029D01*
X6731428Y-13684171D01*
X6717143Y-13655600D01*
X6688571Y-13612743D01*
X6674286Y-13598457D01*
X7217143Y-14055600D02*
X7202857Y-14041314D01*
X7174286Y-13998457D01*
X7160000Y-13969886D01*
X7145714Y-13927029D01*
X7131428Y-13855600D01*
X7131428Y-13798457D01*
X7145714Y-13727029D01*
X7160000Y-13684171D01*
X7174286Y-13655600D01*
X7202857Y-13612743D01*
X7217143Y-13598457D01*
X7331428Y-13741314D02*
X7331428Y-13941314D01*
X7331428Y-13769886D02*
X7345714Y-13755600D01*
X7374286Y-13741314D01*
X7417143Y-13741314D01*
X7445714Y-13755600D01*
X7460000Y-13784171D01*
X7460000Y-13941314D01*
X7645714Y-13941314D02*
X7617143Y-13927029D01*
X7602857Y-13912743D01*
X7588571Y-13884171D01*
X7588571Y-13798457D01*
X7602857Y-13769886D01*
X7617143Y-13755600D01*
X7645714Y-13741314D01*
X7688571Y-13741314D01*
X7717143Y-13755600D01*
X7731428Y-13769886D01*
X7745714Y-13798457D01*
X7745714Y-13884171D01*
X7731428Y-13912743D01*
X7717143Y-13927029D01*
X7688571Y-13941314D01*
X7645714Y-13941314D01*
X7831428Y-13741314D02*
X7945714Y-13741314D01*
X7874286Y-13641314D02*
X7874286Y-13898457D01*
X7888571Y-13927029D01*
X7917143Y-13941314D01*
X7945714Y-13941314D01*
X8274286Y-13741314D02*
X8274286Y-14041314D01*
X8274286Y-13755600D02*
X8302857Y-13741314D01*
X8360000Y-13741314D01*
X8388571Y-13755600D01*
X8402857Y-13769886D01*
X8417143Y-13798457D01*
X8417143Y-13884171D01*
X8402857Y-13912743D01*
X8388571Y-13927029D01*
X8360000Y-13941314D01*
X8302857Y-13941314D01*
X8274286Y-13927029D01*
X8588571Y-13941314D02*
X8560000Y-13927029D01*
X8545714Y-13898457D01*
X8545714Y-13641314D01*
X8831428Y-13941314D02*
X8831428Y-13784171D01*
X8817143Y-13755600D01*
X8788571Y-13741314D01*
X8731428Y-13741314D01*
X8702857Y-13755600D01*
X8831428Y-13927029D02*
X8802857Y-13941314D01*
X8731428Y-13941314D01*
X8702857Y-13927029D01*
X8688571Y-13898457D01*
X8688571Y-13869886D01*
X8702857Y-13841314D01*
X8731428Y-13827029D01*
X8802857Y-13827029D01*
X8831428Y-13812743D01*
X8931428Y-13741314D02*
X9045714Y-13741314D01*
X8974286Y-13641314D02*
X8974286Y-13898457D01*
X8988571Y-13927029D01*
X9017143Y-13941314D01*
X9045714Y-13941314D01*
X9260000Y-13927029D02*
X9231428Y-13941314D01*
X9174286Y-13941314D01*
X9145714Y-13927029D01*
X9131428Y-13898457D01*
X9131428Y-13784171D01*
X9145714Y-13755600D01*
X9174286Y-13741314D01*
X9231428Y-13741314D01*
X9260000Y-13755600D01*
X9274286Y-13784171D01*
X9274286Y-13812743D01*
X9131428Y-13841314D01*
X9531428Y-13941314D02*
X9531428Y-13641314D01*
X9531428Y-13927029D02*
X9502857Y-13941314D01*
X9445714Y-13941314D01*
X9417143Y-13927029D01*
X9402857Y-13912743D01*
X9388571Y-13884171D01*
X9388571Y-13798457D01*
X9402857Y-13769886D01*
X9417143Y-13755600D01*
X9445714Y-13741314D01*
X9502857Y-13741314D01*
X9531428Y-13755600D01*
X9645714Y-14055600D02*
X9660000Y-14041314D01*
X9688571Y-13998457D01*
X9702857Y-13969886D01*
X9717143Y-13927029D01*
X9731428Y-13855600D01*
X9731428Y-13798457D01*
X9717143Y-13727029D01*
X9702857Y-13684171D01*
X9688571Y-13655600D01*
X9660000Y-13612743D01*
X9645714Y-13598457D01*
X-1259800Y-14049200D02*
X-955000Y-14354000D01*
X-955000Y-14049200D02*
X-1259800Y-14354000D01*
X-1107400Y-14354000D02*
X-955000Y-14201600D01*
X-1107400Y-14049200D01*
X-1259800Y-14201600D01*
X-1107400Y-14354000D01*
X-697143Y-14037314D02*
X-511429Y-14037314D01*
X-611429Y-14151600D01*
X-568572Y-14151600D01*
X-540000Y-14165886D01*
X-525714Y-14180171D01*
X-511429Y-14208743D01*
X-511429Y-14280171D01*
X-525714Y-14308743D01*
X-540000Y-14323029D01*
X-568572Y-14337314D01*
X-654286Y-14337314D01*
X-682857Y-14323029D01*
X-697143Y-14308743D01*
X-382857Y-14308743D02*
X-368571Y-14323029D01*
X-382857Y-14337314D01*
X-397143Y-14323029D01*
X-382857Y-14308743D01*
X-382857Y-14337314D01*
X-182857Y-14037314D02*
X-154286Y-14037314D01*
X-125714Y-14051600D01*
X-111429Y-14065886D01*
X-97143Y-14094457D01*
X-82857Y-14151600D01*
X-82857Y-14223029D01*
X-97143Y-14280171D01*
X-111429Y-14308743D01*
X-125714Y-14323029D01*
X-154286Y-14337314D01*
X-182857Y-14337314D01*
X-211429Y-14323029D01*
X-225714Y-14308743D01*
X-240000Y-14280171D01*
X-254286Y-14223029D01*
X-254286Y-14151600D01*
X-240000Y-14094457D01*
X-225714Y-14065886D01*
X-211429Y-14051600D01*
X-182857Y-14037314D01*
X174286Y-14137314D02*
X174286Y-14337314D01*
X102857Y-14023029D02*
X31428Y-14237314D01*
X217143Y-14237314D01*
X374286Y-14165886D02*
X345714Y-14151600D01*
X331428Y-14137314D01*
X317143Y-14108743D01*
X317143Y-14094457D01*
X331428Y-14065886D01*
X345714Y-14051600D01*
X374286Y-14037314D01*
X431428Y-14037314D01*
X460000Y-14051600D01*
X474286Y-14065886D01*
X488571Y-14094457D01*
X488571Y-14108743D01*
X474286Y-14137314D01*
X460000Y-14151600D01*
X431428Y-14165886D01*
X374286Y-14165886D01*
X345714Y-14180171D01*
X331428Y-14194457D01*
X317143Y-14223029D01*
X317143Y-14280171D01*
X331428Y-14308743D01*
X345714Y-14323029D01*
X374286Y-14337314D01*
X431428Y-14337314D01*
X460000Y-14323029D01*
X474286Y-14308743D01*
X488571Y-14280171D01*
X488571Y-14223029D01*
X474286Y-14194457D01*
X460000Y-14180171D01*
X431428Y-14165886D01*
X617143Y-14337314D02*
X617143Y-14137314D01*
X617143Y-14165886D02*
X631428Y-14151600D01*
X660000Y-14137314D01*
X702857Y-14137314D01*
X731428Y-14151600D01*
X745714Y-14180171D01*
X745714Y-14337314D01*
X745714Y-14180171D02*
X760000Y-14151600D01*
X788571Y-14137314D01*
X831428Y-14137314D01*
X860000Y-14151600D01*
X874286Y-14180171D01*
X874286Y-14337314D01*
X1017143Y-14337314D02*
X1017143Y-14137314D01*
X1017143Y-14165886D02*
X1031428Y-14151600D01*
X1060000Y-14137314D01*
X1102857Y-14137314D01*
X1131428Y-14151600D01*
X1145714Y-14180171D01*
X1145714Y-14337314D01*
X1145714Y-14180171D02*
X1160000Y-14151600D01*
X1188571Y-14137314D01*
X1231428Y-14137314D01*
X1260000Y-14151600D01*
X1274286Y-14180171D01*
X1274286Y-14337314D01*
X1860000Y-14023029D02*
X1602857Y-14408743D01*
X2245714Y-14037314D02*
X2274286Y-14037314D01*
X2302857Y-14051600D01*
X2317143Y-14065886D01*
X2331428Y-14094457D01*
X2345714Y-14151600D01*
X2345714Y-14223029D01*
X2331428Y-14280171D01*
X2317143Y-14308743D01*
X2302857Y-14323029D01*
X2274286Y-14337314D01*
X2245714Y-14337314D01*
X2217143Y-14323029D01*
X2202857Y-14308743D01*
X2188571Y-14280171D01*
X2174286Y-14223029D01*
X2174286Y-14151600D01*
X2188571Y-14094457D01*
X2202857Y-14065886D01*
X2217143Y-14051600D01*
X2245714Y-14037314D01*
X2474286Y-14308743D02*
X2488571Y-14323029D01*
X2474286Y-14337314D01*
X2460000Y-14323029D01*
X2474286Y-14308743D01*
X2474286Y-14337314D01*
X2774286Y-14337314D02*
X2602857Y-14337314D01*
X2688571Y-14337314D02*
X2688571Y-14037314D01*
X2660000Y-14080171D01*
X2631428Y-14108743D01*
X2602857Y-14123029D01*
X2888571Y-14065886D02*
X2902857Y-14051600D01*
X2931428Y-14037314D01*
X3002857Y-14037314D01*
X3031428Y-14051600D01*
X3045714Y-14065886D01*
X3060000Y-14094457D01*
X3060000Y-14123029D01*
X3045714Y-14165886D01*
X2874286Y-14337314D01*
X3060000Y-14337314D01*
X3245714Y-14037314D02*
X3274286Y-14037314D01*
X3302857Y-14051600D01*
X3317143Y-14065886D01*
X3331428Y-14094457D01*
X3345714Y-14151600D01*
X3345714Y-14223029D01*
X3331428Y-14280171D01*
X3317143Y-14308743D01*
X3302857Y-14323029D01*
X3274286Y-14337314D01*
X3245714Y-14337314D01*
X3217143Y-14323029D01*
X3202857Y-14308743D01*
X3188571Y-14280171D01*
X3174286Y-14223029D01*
X3174286Y-14151600D01*
X3188571Y-14094457D01*
X3202857Y-14065886D01*
X3217143Y-14051600D01*
X3245714Y-14037314D01*
X3531428Y-14037314D02*
X3560000Y-14037314D01*
X3588571Y-14051600D01*
X3602857Y-14065886D01*
X3617143Y-14094457D01*
X3631428Y-14151600D01*
X3631428Y-14223029D01*
X3617143Y-14280171D01*
X3602857Y-14308743D01*
X3588571Y-14323029D01*
X3560000Y-14337314D01*
X3531428Y-14337314D01*
X3502857Y-14323029D01*
X3488571Y-14308743D01*
X3474286Y-14280171D01*
X3460000Y-14223029D01*
X3460000Y-14151600D01*
X3474286Y-14094457D01*
X3488571Y-14065886D01*
X3502857Y-14051600D01*
X3531428Y-14037314D01*
X3745714Y-14037314D02*
X3745714Y-14094457D01*
X3860000Y-14037314D02*
X3860000Y-14094457D01*
X4302857Y-14451600D02*
X4288571Y-14437314D01*
X4260000Y-14394457D01*
X4245714Y-14365886D01*
X4231428Y-14323029D01*
X4217143Y-14251600D01*
X4217143Y-14194457D01*
X4231428Y-14123029D01*
X4245714Y-14080171D01*
X4260000Y-14051600D01*
X4288571Y-14008743D01*
X4302857Y-13994457D01*
X4402857Y-14065886D02*
X4417143Y-14051600D01*
X4445714Y-14037314D01*
X4517143Y-14037314D01*
X4545714Y-14051600D01*
X4560000Y-14065886D01*
X4574286Y-14094457D01*
X4574286Y-14123029D01*
X4560000Y-14165886D01*
X4388571Y-14337314D01*
X4574286Y-14337314D01*
X4760000Y-14037314D02*
X4788571Y-14037314D01*
X4817143Y-14051600D01*
X4831428Y-14065886D01*
X4845714Y-14094457D01*
X4860000Y-14151600D01*
X4860000Y-14223029D01*
X4845714Y-14280171D01*
X4831428Y-14308743D01*
X4817143Y-14323029D01*
X4788571Y-14337314D01*
X4760000Y-14337314D01*
X4731428Y-14323029D01*
X4717143Y-14308743D01*
X4702857Y-14280171D01*
X4688571Y-14223029D01*
X4688571Y-14151600D01*
X4702857Y-14094457D01*
X4717143Y-14065886D01*
X4731428Y-14051600D01*
X4760000Y-14037314D01*
X5217143Y-14337314D02*
X5217143Y-14037314D01*
X5345714Y-14337314D02*
X5345714Y-14180171D01*
X5331428Y-14151600D01*
X5302857Y-14137314D01*
X5260000Y-14137314D01*
X5231428Y-14151600D01*
X5217143Y-14165886D01*
X5531428Y-14337314D02*
X5502857Y-14323029D01*
X5488571Y-14308743D01*
X5474286Y-14280171D01*
X5474286Y-14194457D01*
X5488571Y-14165886D01*
X5502857Y-14151600D01*
X5531428Y-14137314D01*
X5574286Y-14137314D01*
X5602857Y-14151600D01*
X5617143Y-14165886D01*
X5631428Y-14194457D01*
X5631428Y-14280171D01*
X5617143Y-14308743D01*
X5602857Y-14323029D01*
X5574286Y-14337314D01*
X5531428Y-14337314D01*
X5802857Y-14337314D02*
X5774286Y-14323029D01*
X5760000Y-14294457D01*
X5760000Y-14037314D01*
X6031428Y-14323029D02*
X6002857Y-14337314D01*
X5945714Y-14337314D01*
X5917143Y-14323029D01*
X5902857Y-14294457D01*
X5902857Y-14180171D01*
X5917143Y-14151600D01*
X5945714Y-14137314D01*
X6002857Y-14137314D01*
X6031428Y-14151600D01*
X6045714Y-14180171D01*
X6045714Y-14208743D01*
X5902857Y-14237314D01*
X6160000Y-14323029D02*
X6188571Y-14337314D01*
X6245714Y-14337314D01*
X6274286Y-14323029D01*
X6288571Y-14294457D01*
X6288571Y-14280171D01*
X6274286Y-14251600D01*
X6245714Y-14237314D01*
X6202857Y-14237314D01*
X6174286Y-14223029D01*
X6160000Y-14194457D01*
X6160000Y-14180171D01*
X6174286Y-14151600D01*
X6202857Y-14137314D01*
X6245714Y-14137314D01*
X6274286Y-14151600D01*
X6388571Y-14451600D02*
X6402857Y-14437314D01*
X6431428Y-14394457D01*
X6445714Y-14365886D01*
X6460000Y-14323029D01*
X6474286Y-14251600D01*
X6474286Y-14194457D01*
X6460000Y-14123029D01*
X6445714Y-14080171D01*
X6431428Y-14051600D01*
X6402857Y-14008743D01*
X6388571Y-13994457D01*
X6931428Y-14451600D02*
X6917143Y-14437314D01*
X6888571Y-14394457D01*
X6874286Y-14365886D01*
X6860000Y-14323029D01*
X6845714Y-14251600D01*
X6845714Y-14194457D01*
X6860000Y-14123029D01*
X6874286Y-14080171D01*
X6888571Y-14051600D01*
X6917143Y-14008743D01*
X6931428Y-13994457D01*
X7045714Y-14137314D02*
X7045714Y-14337314D01*
X7045714Y-14165886D02*
X7060000Y-14151600D01*
X7088571Y-14137314D01*
X7131428Y-14137314D01*
X7160000Y-14151600D01*
X7174286Y-14180171D01*
X7174286Y-14337314D01*
X7360000Y-14337314D02*
X7331428Y-14323029D01*
X7317143Y-14308743D01*
X7302857Y-14280171D01*
X7302857Y-14194457D01*
X7317143Y-14165886D01*
X7331428Y-14151600D01*
X7360000Y-14137314D01*
X7402857Y-14137314D01*
X7431428Y-14151600D01*
X7445714Y-14165886D01*
X7460000Y-14194457D01*
X7460000Y-14280171D01*
X7445714Y-14308743D01*
X7431428Y-14323029D01*
X7402857Y-14337314D01*
X7360000Y-14337314D01*
X7545714Y-14137314D02*
X7660000Y-14137314D01*
X7588571Y-14037314D02*
X7588571Y-14294457D01*
X7602857Y-14323029D01*
X7631428Y-14337314D01*
X7660000Y-14337314D01*
X7988571Y-14137314D02*
X7988571Y-14437314D01*
X7988571Y-14151600D02*
X8017143Y-14137314D01*
X8074286Y-14137314D01*
X8102857Y-14151600D01*
X8117143Y-14165886D01*
X8131428Y-14194457D01*
X8131428Y-14280171D01*
X8117143Y-14308743D01*
X8102857Y-14323029D01*
X8074286Y-14337314D01*
X8017143Y-14337314D01*
X7988571Y-14323029D01*
X8302857Y-14337314D02*
X8274286Y-14323029D01*
X8260000Y-14294457D01*
X8260000Y-14037314D01*
X8545714Y-14337314D02*
X8545714Y-14180171D01*
X8531428Y-14151600D01*
X8502857Y-14137314D01*
X8445714Y-14137314D01*
X8417143Y-14151600D01*
X8545714Y-14323029D02*
X8517143Y-14337314D01*
X8445714Y-14337314D01*
X8417143Y-14323029D01*
X8402857Y-14294457D01*
X8402857Y-14265886D01*
X8417143Y-14237314D01*
X8445714Y-14223029D01*
X8517143Y-14223029D01*
X8545714Y-14208743D01*
X8645714Y-14137314D02*
X8760000Y-14137314D01*
X8688571Y-14037314D02*
X8688571Y-14294457D01*
X8702857Y-14323029D01*
X8731428Y-14337314D01*
X8760000Y-14337314D01*
X8974286Y-14323029D02*
X8945714Y-14337314D01*
X8888571Y-14337314D01*
X8860000Y-14323029D01*
X8845714Y-14294457D01*
X8845714Y-14180171D01*
X8860000Y-14151600D01*
X8888571Y-14137314D01*
X8945714Y-14137314D01*
X8974286Y-14151600D01*
X8988571Y-14180171D01*
X8988571Y-14208743D01*
X8845714Y-14237314D01*
X9245714Y-14337314D02*
X9245714Y-14037314D01*
X9245714Y-14323029D02*
X9217143Y-14337314D01*
X9160000Y-14337314D01*
X9131428Y-14323029D01*
X9117143Y-14308743D01*
X9102857Y-14280171D01*
X9102857Y-14194457D01*
X9117143Y-14165886D01*
X9131428Y-14151600D01*
X9160000Y-14137314D01*
X9217143Y-14137314D01*
X9245714Y-14151600D01*
X9360000Y-14451600D02*
X9374286Y-14437314D01*
X9402857Y-14394457D01*
X9417143Y-14365886D01*
X9431428Y-14323029D01*
X9445714Y-14251600D01*
X9445714Y-14194457D01*
X9431428Y-14123029D01*
X9417143Y-14080171D01*
X9402857Y-14051600D01*
X9374286Y-14008743D01*
X9360000Y-13994457D01*
X-1154390Y-14437010D02*
X-1154390Y-14835790D01*
X-1353780Y-14636400D02*
X-955000Y-14636400D01*
X-955000Y-14636400D02*
G75*
G03*
X-955000Y-14636400I-199390J0D01*
G01*
X-697143Y-14472114D02*
X-511429Y-14472114D01*
X-611429Y-14586400D01*
X-568572Y-14586400D01*
X-540000Y-14600686D01*
X-525714Y-14614971D01*
X-511429Y-14643543D01*
X-511429Y-14714971D01*
X-525714Y-14743543D01*
X-540000Y-14757829D01*
X-568572Y-14772114D01*
X-654286Y-14772114D01*
X-682857Y-14757829D01*
X-697143Y-14743543D01*
X-382857Y-14743543D02*
X-368571Y-14757829D01*
X-382857Y-14772114D01*
X-397143Y-14757829D01*
X-382857Y-14743543D01*
X-382857Y-14772114D01*
X-225714Y-14772114D02*
X-168572Y-14772114D01*
X-140000Y-14757829D01*
X-125714Y-14743543D01*
X-97143Y-14700686D01*
X-82857Y-14643543D01*
X-82857Y-14529257D01*
X-97143Y-14500686D01*
X-111429Y-14486400D01*
X-140000Y-14472114D01*
X-197143Y-14472114D01*
X-225714Y-14486400D01*
X-240000Y-14500686D01*
X-254286Y-14529257D01*
X-254286Y-14600686D01*
X-240000Y-14629257D01*
X-225714Y-14643543D01*
X-197143Y-14657829D01*
X-140000Y-14657829D01*
X-111429Y-14643543D01*
X-97143Y-14629257D01*
X-82857Y-14600686D01*
X88571Y-14600686D02*
X60000Y-14586400D01*
X45714Y-14572114D01*
X31428Y-14543543D01*
X31428Y-14529257D01*
X45714Y-14500686D01*
X60000Y-14486400D01*
X88571Y-14472114D01*
X145714Y-14472114D01*
X174286Y-14486400D01*
X188571Y-14500686D01*
X202857Y-14529257D01*
X202857Y-14543543D01*
X188571Y-14572114D01*
X174286Y-14586400D01*
X145714Y-14600686D01*
X88571Y-14600686D01*
X60000Y-14614971D01*
X45714Y-14629257D01*
X31428Y-14657829D01*
X31428Y-14714971D01*
X45714Y-14743543D01*
X60000Y-14757829D01*
X88571Y-14772114D01*
X145714Y-14772114D01*
X174286Y-14757829D01*
X188571Y-14743543D01*
X202857Y-14714971D01*
X202857Y-14657829D01*
X188571Y-14629257D01*
X174286Y-14614971D01*
X145714Y-14600686D01*
X374286Y-14600686D02*
X345714Y-14586400D01*
X331428Y-14572114D01*
X317143Y-14543543D01*
X317143Y-14529257D01*
X331428Y-14500686D01*
X345714Y-14486400D01*
X374286Y-14472114D01*
X431428Y-14472114D01*
X460000Y-14486400D01*
X474286Y-14500686D01*
X488571Y-14529257D01*
X488571Y-14543543D01*
X474286Y-14572114D01*
X460000Y-14586400D01*
X431428Y-14600686D01*
X374286Y-14600686D01*
X345714Y-14614971D01*
X331428Y-14629257D01*
X317143Y-14657829D01*
X317143Y-14714971D01*
X331428Y-14743543D01*
X345714Y-14757829D01*
X374286Y-14772114D01*
X431428Y-14772114D01*
X460000Y-14757829D01*
X474286Y-14743543D01*
X488571Y-14714971D01*
X488571Y-14657829D01*
X474286Y-14629257D01*
X460000Y-14614971D01*
X431428Y-14600686D01*
X617143Y-14772114D02*
X617143Y-14572114D01*
X617143Y-14600686D02*
X631428Y-14586400D01*
X660000Y-14572114D01*
X702857Y-14572114D01*
X731428Y-14586400D01*
X745714Y-14614971D01*
X745714Y-14772114D01*
X745714Y-14614971D02*
X760000Y-14586400D01*
X788571Y-14572114D01*
X831428Y-14572114D01*
X860000Y-14586400D01*
X874286Y-14614971D01*
X874286Y-14772114D01*
X1017143Y-14772114D02*
X1017143Y-14572114D01*
X1017143Y-14600686D02*
X1031428Y-14586400D01*
X1060000Y-14572114D01*
X1102857Y-14572114D01*
X1131428Y-14586400D01*
X1145714Y-14614971D01*
X1145714Y-14772114D01*
X1145714Y-14614971D02*
X1160000Y-14586400D01*
X1188571Y-14572114D01*
X1231428Y-14572114D01*
X1260000Y-14586400D01*
X1274286Y-14614971D01*
X1274286Y-14772114D01*
X1860000Y-14457829D02*
X1602857Y-14843543D01*
X2245714Y-14472114D02*
X2274286Y-14472114D01*
X2302857Y-14486400D01*
X2317143Y-14500686D01*
X2331428Y-14529257D01*
X2345714Y-14586400D01*
X2345714Y-14657829D01*
X2331428Y-14714971D01*
X2317143Y-14743543D01*
X2302857Y-14757829D01*
X2274286Y-14772114D01*
X2245714Y-14772114D01*
X2217143Y-14757829D01*
X2202857Y-14743543D01*
X2188571Y-14714971D01*
X2174286Y-14657829D01*
X2174286Y-14586400D01*
X2188571Y-14529257D01*
X2202857Y-14500686D01*
X2217143Y-14486400D01*
X2245714Y-14472114D01*
X2474286Y-14743543D02*
X2488571Y-14757829D01*
X2474286Y-14772114D01*
X2460000Y-14757829D01*
X2474286Y-14743543D01*
X2474286Y-14772114D01*
X2774286Y-14772114D02*
X2602857Y-14772114D01*
X2688571Y-14772114D02*
X2688571Y-14472114D01*
X2660000Y-14514971D01*
X2631428Y-14543543D01*
X2602857Y-14557829D01*
X3045714Y-14472114D02*
X2902857Y-14472114D01*
X2888571Y-14614971D01*
X2902857Y-14600686D01*
X2931428Y-14586400D01*
X3002857Y-14586400D01*
X3031428Y-14600686D01*
X3045714Y-14614971D01*
X3060000Y-14643543D01*
X3060000Y-14714971D01*
X3045714Y-14743543D01*
X3031428Y-14757829D01*
X3002857Y-14772114D01*
X2931428Y-14772114D01*
X2902857Y-14757829D01*
X2888571Y-14743543D01*
X3160000Y-14472114D02*
X3360000Y-14472114D01*
X3231428Y-14772114D01*
X3531428Y-14472114D02*
X3560000Y-14472114D01*
X3588571Y-14486400D01*
X3602857Y-14500686D01*
X3617143Y-14529257D01*
X3631428Y-14586400D01*
X3631428Y-14657829D01*
X3617143Y-14714971D01*
X3602857Y-14743543D01*
X3588571Y-14757829D01*
X3560000Y-14772114D01*
X3531428Y-14772114D01*
X3502857Y-14757829D01*
X3488571Y-14743543D01*
X3474286Y-14714971D01*
X3460000Y-14657829D01*
X3460000Y-14586400D01*
X3474286Y-14529257D01*
X3488571Y-14500686D01*
X3502857Y-14486400D01*
X3531428Y-14472114D01*
X3745714Y-14472114D02*
X3745714Y-14529257D01*
X3860000Y-14472114D02*
X3860000Y-14529257D01*
X4302857Y-14886400D02*
X4288571Y-14872114D01*
X4260000Y-14829257D01*
X4245714Y-14800686D01*
X4231428Y-14757829D01*
X4217143Y-14686400D01*
X4217143Y-14629257D01*
X4231428Y-14557829D01*
X4245714Y-14514971D01*
X4260000Y-14486400D01*
X4288571Y-14443543D01*
X4302857Y-14429257D01*
X4574286Y-14772114D02*
X4402857Y-14772114D01*
X4488571Y-14772114D02*
X4488571Y-14472114D01*
X4460000Y-14514971D01*
X4431428Y-14543543D01*
X4402857Y-14557829D01*
X4860000Y-14772114D02*
X4688571Y-14772114D01*
X4774286Y-14772114D02*
X4774286Y-14472114D01*
X4745714Y-14514971D01*
X4717143Y-14543543D01*
X4688571Y-14557829D01*
X4960000Y-14472114D02*
X5145714Y-14472114D01*
X5045714Y-14586400D01*
X5088571Y-14586400D01*
X5117143Y-14600686D01*
X5131428Y-14614971D01*
X5145714Y-14643543D01*
X5145714Y-14714971D01*
X5131428Y-14743543D01*
X5117143Y-14757829D01*
X5088571Y-14772114D01*
X5002857Y-14772114D01*
X4974286Y-14757829D01*
X4960000Y-14743543D01*
X5502857Y-14772114D02*
X5502857Y-14472114D01*
X5631428Y-14772114D02*
X5631428Y-14614971D01*
X5617143Y-14586400D01*
X5588571Y-14572114D01*
X5545714Y-14572114D01*
X5517143Y-14586400D01*
X5502857Y-14600686D01*
X5817143Y-14772114D02*
X5788571Y-14757829D01*
X5774286Y-14743543D01*
X5760000Y-14714971D01*
X5760000Y-14629257D01*
X5774286Y-14600686D01*
X5788571Y-14586400D01*
X5817143Y-14572114D01*
X5860000Y-14572114D01*
X5888571Y-14586400D01*
X5902857Y-14600686D01*
X5917143Y-14629257D01*
X5917143Y-14714971D01*
X5902857Y-14743543D01*
X5888571Y-14757829D01*
X5860000Y-14772114D01*
X5817143Y-14772114D01*
X6088571Y-14772114D02*
X6060000Y-14757829D01*
X6045714Y-14729257D01*
X6045714Y-14472114D01*
X6317143Y-14757829D02*
X6288571Y-14772114D01*
X6231428Y-14772114D01*
X6202857Y-14757829D01*
X6188571Y-14729257D01*
X6188571Y-14614971D01*
X6202857Y-14586400D01*
X6231428Y-14572114D01*
X6288571Y-14572114D01*
X6317143Y-14586400D01*
X6331428Y-14614971D01*
X6331428Y-14643543D01*
X6188571Y-14672114D01*
X6445714Y-14757829D02*
X6474286Y-14772114D01*
X6531428Y-14772114D01*
X6560000Y-14757829D01*
X6574286Y-14729257D01*
X6574286Y-14714971D01*
X6560000Y-14686400D01*
X6531428Y-14672114D01*
X6488571Y-14672114D01*
X6460000Y-14657829D01*
X6445714Y-14629257D01*
X6445714Y-14614971D01*
X6460000Y-14586400D01*
X6488571Y-14572114D01*
X6531428Y-14572114D01*
X6560000Y-14586400D01*
X6674286Y-14886400D02*
X6688571Y-14872114D01*
X6717143Y-14829257D01*
X6731428Y-14800686D01*
X6745714Y-14757829D01*
X6760000Y-14686400D01*
X6760000Y-14629257D01*
X6745714Y-14557829D01*
X6731428Y-14514971D01*
X6717143Y-14486400D01*
X6688571Y-14443543D01*
X6674286Y-14429257D01*
X7217143Y-14886400D02*
X7202857Y-14872114D01*
X7174286Y-14829257D01*
X7160000Y-14800686D01*
X7145714Y-14757829D01*
X7131428Y-14686400D01*
X7131428Y-14629257D01*
X7145714Y-14557829D01*
X7160000Y-14514971D01*
X7174286Y-14486400D01*
X7202857Y-14443543D01*
X7217143Y-14429257D01*
X7331428Y-14572114D02*
X7331428Y-14772114D01*
X7331428Y-14600686D02*
X7345714Y-14586400D01*
X7374286Y-14572114D01*
X7417143Y-14572114D01*
X7445714Y-14586400D01*
X7460000Y-14614971D01*
X7460000Y-14772114D01*
X7645714Y-14772114D02*
X7617143Y-14757829D01*
X7602857Y-14743543D01*
X7588571Y-14714971D01*
X7588571Y-14629257D01*
X7602857Y-14600686D01*
X7617143Y-14586400D01*
X7645714Y-14572114D01*
X7688571Y-14572114D01*
X7717143Y-14586400D01*
X7731428Y-14600686D01*
X7745714Y-14629257D01*
X7745714Y-14714971D01*
X7731428Y-14743543D01*
X7717143Y-14757829D01*
X7688571Y-14772114D01*
X7645714Y-14772114D01*
X7831428Y-14572114D02*
X7945714Y-14572114D01*
X7874286Y-14472114D02*
X7874286Y-14729257D01*
X7888571Y-14757829D01*
X7917143Y-14772114D01*
X7945714Y-14772114D01*
X8274286Y-14572114D02*
X8274286Y-14872114D01*
X8274286Y-14586400D02*
X8302857Y-14572114D01*
X8360000Y-14572114D01*
X8388571Y-14586400D01*
X8402857Y-14600686D01*
X8417143Y-14629257D01*
X8417143Y-14714971D01*
X8402857Y-14743543D01*
X8388571Y-14757829D01*
X8360000Y-14772114D01*
X8302857Y-14772114D01*
X8274286Y-14757829D01*
X8588571Y-14772114D02*
X8560000Y-14757829D01*
X8545714Y-14729257D01*
X8545714Y-14472114D01*
X8831428Y-14772114D02*
X8831428Y-14614971D01*
X8817143Y-14586400D01*
X8788571Y-14572114D01*
X8731428Y-14572114D01*
X8702857Y-14586400D01*
X8831428Y-14757829D02*
X8802857Y-14772114D01*
X8731428Y-14772114D01*
X8702857Y-14757829D01*
X8688571Y-14729257D01*
X8688571Y-14700686D01*
X8702857Y-14672114D01*
X8731428Y-14657829D01*
X8802857Y-14657829D01*
X8831428Y-14643543D01*
X8931428Y-14572114D02*
X9045714Y-14572114D01*
X8974286Y-14472114D02*
X8974286Y-14729257D01*
X8988571Y-14757829D01*
X9017143Y-14772114D01*
X9045714Y-14772114D01*
X9260000Y-14757829D02*
X9231428Y-14772114D01*
X9174286Y-14772114D01*
X9145714Y-14757829D01*
X9131428Y-14729257D01*
X9131428Y-14614971D01*
X9145714Y-14586400D01*
X9174286Y-14572114D01*
X9231428Y-14572114D01*
X9260000Y-14586400D01*
X9274286Y-14614971D01*
X9274286Y-14643543D01*
X9131428Y-14672114D01*
X9531428Y-14772114D02*
X9531428Y-14472114D01*
X9531428Y-14757829D02*
X9502857Y-14772114D01*
X9445714Y-14772114D01*
X9417143Y-14757829D01*
X9402857Y-14743543D01*
X9388571Y-14714971D01*
X9388571Y-14629257D01*
X9402857Y-14600686D01*
X9417143Y-14586400D01*
X9445714Y-14572114D01*
X9502857Y-14572114D01*
X9531428Y-14586400D01*
X9645714Y-14886400D02*
X9660000Y-14872114D01*
X9688571Y-14829257D01*
X9702857Y-14800686D01*
X9717143Y-14757829D01*
X9731428Y-14686400D01*
X9731428Y-14629257D01*
X9717143Y-14557829D01*
X9702857Y-14514971D01*
X9688571Y-14486400D01*
X9660000Y-14443543D01*
X9645714Y-14429257D01*
M02*
