M48
; DRILL file {KiCad (5.1.10)-1} date 01/23/22 15:25:33
; FORMAT={-:-/ absolute / metric / decimal}
; #@! TF.CreationDate,2022-01-23T15:25:33-08:00
; #@! TF.GenerationSoftware,Kicad,Pcbnew,(5.1.10)-1
FMAT,2
METRIC
T1C0.400
T2C0.813
T3C1.000
T4C1.092
T5C1.470
T6C1.500
T7C2.200
T8C1.750
T9C3.048
T10C3.988
%
G90
G05
T1
X9.525Y-65.025
X28.55Y-49.238
X28.575Y-26.925
X28.575Y-65.025
X28.575Y-84.994
X31.763Y-84.988
X35.661Y-68.325
X39.929Y-81.724
X44.844Y-59.995
X45.644Y-72.962
X47.625Y-26.925
X47.625Y-30.225
X47.625Y-49.275
X47.625Y-68.325
X47.625Y-84.994
X53.315Y-14.707
X71.476Y-30.645
X83.731Y-81.255
X92.869Y-84.517
X105.411Y-83.692
X109.868Y-50.66
X116.268Y-13.856
X116.681Y-81.218
X120.675Y-85.42
X122.098Y-82.614
X126.206Y-65.025
X126.206Y-68.325
X126.822Y-46.533
X141.179Y-49.326
X145.486Y-66.053
X154.47Y-52.654
X154.47Y-60.046
X155.118Y-79.489
X158.565Y-33.019
X159.858Y-54.194
X164.256Y-69.368
X167.069Y-73.215
X169.71Y-74.206
X177.33Y-70.879
X177.336Y-36.347
X179.28Y-52.68
X180.353Y-41.275
X180.353Y-48.095
X183.014Y-72.657
X188.029Y-96.265
X193.027Y-65.163
X198.158Y-33.896
X200.457Y-36.868
X201.168Y-79.235
X201.772Y-75.997
X206.812Y-99.567
X207.385Y-96.317
X210.591Y-22.265
X212.014Y-39.776
X213.462Y-62.725
X215.671Y-25.463
X216.129Y-33.566
X216.943Y-82.917
X217.348Y-56.706
X217.668Y-67.361
X218.014Y-96.381
X218.393Y-59.804
X218.542Y-99.631
X218.982Y-34.404
X219.215Y-65.761
X219.621Y-78.194
X221.983Y-54.102
X225.806Y-69.266
X234.043Y-77.584
X236.226Y-35.129
X244.227Y-53.087
X244.8Y-56.337
X249.377Y-69.304
X261.645Y-14.668
X263.57Y-53.047
X265.214Y-47.892
X266.522Y-49.187
X274.327Y-31.775
X279.311Y-84.95
X290.329Y-67.69
X294.284Y-33.807
X296.266Y-47.092
X297.789Y-26.925
X297.789Y-30.225
X303.873Y-69.748
X306.883Y-73.647
X307.314Y-49.275
X309.695Y-68.325
X313.029Y-52.229
X314.364Y-80.581
X319.549Y-84.028
X324.714Y-77.838
X326.364Y-49.275
X328.739Y-68.326
X328.745Y-84.994
X379.425Y-71.095
X383.324Y-84.994
T2
X404.19Y-6.477
X406.73Y-6.477
X409.27Y-6.477
X411.81Y-6.477
T3
X423.449Y2.5
X423.449Y0.0
X423.449Y-2.5
X437.949Y2.5
X437.949Y-2.5
T4
X205.511Y8.052
X205.511Y5.512
X205.511Y2.972
X205.511Y0.432
X205.511Y-2.108
X205.511Y-4.648
X205.511Y-7.188
X205.511Y-9.728
X205.511Y-12.268
X205.511Y-14.808
X205.511Y-17.348
X205.74Y-19.888
X208.051Y-19.888
X210.591Y-19.888
X213.131Y-19.888
X215.671Y-19.888
X218.211Y-19.888
X220.751Y8.052
X220.751Y5.512
X220.751Y2.972
X220.751Y0.432
X220.751Y-2.108
X220.751Y-4.648
X220.751Y-7.188
X220.751Y-9.728
X220.751Y-12.268
X220.751Y-14.808
X220.751Y-17.348
X220.751Y-19.888
T5
X-3.81Y2.54
X-3.81Y-16.51
X-3.81Y-35.56
X-3.81Y-54.61
X-3.81Y-73.66
X2.54Y5.08
X2.54Y-13.97
X2.54Y-33.02
X2.54Y-52.07
X2.54Y-71.12
X5.715Y-73.66
X12.065Y-71.12
X15.24Y2.54
X15.24Y-16.51
X15.24Y-35.56
X15.24Y-54.61
X15.24Y-73.66
X21.59Y5.08
X21.59Y-13.97
X21.59Y-33.02
X21.59Y-52.07
X21.59Y-71.12
X34.29Y2.54
X34.29Y-16.51
X34.29Y-35.56
X34.29Y-54.61
X34.29Y-73.66
X40.64Y5.08
X40.64Y-13.97
X40.64Y-33.02
X40.64Y-52.07
X40.64Y-71.12
X52.07Y-26.035
X52.07Y-64.135
X53.34Y2.54
X54.61Y-32.385
X54.61Y-70.485
X59.69Y5.08
X74.771Y4.921
X77.153Y-35.56
X77.153Y-73.66
X79.534Y-16.51
X81.121Y7.461
X81.915Y-35.56
X83.502Y-33.02
X83.502Y-71.12
X84.296Y-54.61
X85.884Y-13.97
X88.265Y-33.02
X90.646Y-52.07
X93.821Y2.54
X100.171Y5.08
X100.965Y-73.66
X103.346Y-16.51
X107.315Y-71.12
X108.109Y-35.56
X109.696Y-13.97
X112.871Y2.54
X112.871Y-54.61
X114.459Y-33.02
X119.221Y5.08
X119.221Y-52.07
X128.636Y-16.284
X130.019Y-35.872
X131.921Y4.921
X132.148Y-75.902
X133.746Y-55.873
X135.331Y-14.885
X136.713Y-34.473
X138.271Y7.461
X138.843Y-74.504
X140.44Y-54.474
X147.397Y-19.592
X148.779Y-39.18
X152.506Y-59.181
X153.05Y-1.245
X154.092Y-18.193
X155.474Y-37.781
X159.201Y-57.782
X159.745Y0.154
X164.979Y-81.691
X166.158Y-22.9
X167.54Y-42.488
X171.267Y-62.489
X171.674Y-80.293
X171.811Y-4.553
X172.852Y-21.501
X174.234Y-41.089
X177.962Y-61.09
X178.505Y-3.154
X184.918Y-26.208
X186.3Y-45.796
X190.028Y-65.797
X190.571Y-7.861
X191.613Y-24.809
X192.995Y-44.397
X195.631Y-86.129
X196.722Y-64.398
X197.266Y-6.462
X202.325Y-84.73
X218.953Y-68.774
X221.717Y-29.599
X224.765Y-65.17
X227.529Y-25.995
X227.789Y-9.184
X229.715Y-47.532
X233.602Y-5.58
X235.527Y-43.928
X237.713Y-65.466
X238.676Y-84.64
X240.477Y-26.291
X243.526Y-61.862
X244.488Y-81.036
X246.29Y-22.687
X246.55Y-5.876
X248.476Y-44.224
X252.362Y-2.272
X254.288Y-40.62
X256.474Y-62.158
X259.238Y-22.983
X262.286Y-58.554
X265.05Y-19.379
X265.31Y-2.568
X267.236Y-40.917
X271.123Y1.036
X273.049Y-37.312
X275.234Y-58.85
X276.197Y-78.024
X277.999Y-19.675
X281.047Y-55.246
X282.01Y-74.42
X283.811Y-16.071
X284.071Y0.74
X285.997Y-37.609
X289.883Y4.344
X291.809Y-34.004
X293.995Y-55.542
X296.759Y-16.367
X299.807Y-51.938
X302.572Y-12.763
X305.885Y4.921
X312.235Y7.461
X313.029Y-35.56
X313.029Y-73.66
X315.41Y-54.61
X317.792Y-16.51
X319.379Y-33.02
X319.379Y-71.12
X321.76Y-52.07
X324.142Y-13.97
X324.935Y2.54
X331.285Y5.08
X332.079Y-35.56
X336.842Y-16.51
X336.842Y-73.66
X338.429Y-33.02
X343.192Y-13.97
X343.192Y-71.12
X343.985Y2.54
X346.367Y-54.61
X350.335Y5.08
X351.129Y-54.61
X352.717Y-52.07
X357.479Y-52.07
X360.654Y-16.51
X360.654Y-73.66
X363.035Y-35.56
X367.004Y-13.97
X367.004Y-71.12
X369.385Y-33.02
X372.56Y2.54
X377.323Y-54.61
X378.91Y5.08
X383.673Y-52.07
X389.039Y-73.66
X395.389Y-71.12
X408.089Y-54.61
X408.089Y-73.66
X414.439Y-52.07
X414.439Y-71.12
X427.139Y-16.51
X427.139Y-35.56
X427.139Y-73.66
X433.489Y-13.97
X433.489Y-33.02
X433.489Y-71.12
T7
X28.575Y-0.432
X38.1Y-66.675
X122.441Y-38.163
X179.553Y4.508
X212.23Y-48.45
X212.23Y-91.542
X242.824Y4.508
X303.632Y-39.167
X395.592Y-0.432
X395.592Y-63.856
T8
X-5.08Y0.0
X-5.08Y-19.05
X-5.08Y-38.1
X-5.08Y-57.15
X-5.08Y-76.2
X4.445Y-76.2
X5.08Y0.0
X5.08Y-19.05
X5.08Y-38.1
X5.08Y-57.15
X5.08Y-76.2
X13.97Y0.0
X13.97Y-19.05
X13.97Y-38.1
X13.97Y-57.15
X13.97Y-76.2
X14.605Y-76.2
X24.13Y0.0
X24.13Y-19.05
X24.13Y-38.1
X24.13Y-57.15
X24.13Y-76.2
X33.02Y0.0
X33.02Y-19.05
X33.02Y-38.1
X33.02Y-57.15
X33.02Y-76.2
X43.18Y0.0
X43.18Y-19.05
X43.18Y-38.1
X43.18Y-57.15
X43.18Y-76.2
X52.07Y0.0
X57.15Y-23.495
X57.15Y-33.655
X57.15Y-61.595
X57.15Y-71.755
X62.23Y0.0
X73.501Y2.381
X75.882Y-38.1
X75.882Y-76.2
X78.264Y-19.05
X80.645Y-38.1
X83.026Y-57.15
X83.661Y2.381
X86.042Y-38.1
X86.042Y-76.2
X88.424Y-19.05
X90.805Y-38.1
X92.551Y0.0
X93.186Y-57.15
X99.695Y-76.2
X102.076Y-19.05
X102.711Y0.0
X106.839Y-38.1
X109.855Y-76.2
X111.601Y0.0
X111.601Y-57.15
X112.236Y-19.05
X116.999Y-38.1
X121.761Y0.0
X121.761Y-57.15
X126.945Y-18.565
X128.327Y-38.153
X130.457Y-78.183
X130.651Y2.381
X132.054Y-58.154
X136.95Y-20.329
X138.332Y-39.917
X140.462Y-79.947
X140.811Y2.381
X142.06Y-59.918
X145.705Y-21.873
X147.087Y-41.461
X150.815Y-61.462
X151.358Y-3.526
X155.711Y-23.637
X157.093Y-43.225
X160.82Y-63.226
X161.364Y-5.29
X163.288Y-83.972
X164.466Y-25.181
X165.848Y-44.769
X169.575Y-64.77
X170.119Y-6.834
X173.293Y-85.736
X174.471Y-26.945
X175.854Y-46.533
X179.581Y-66.534
X180.125Y-8.598
X183.226Y-28.489
X184.609Y-48.077
X188.336Y-68.078
X188.879Y-10.142
X193.232Y-30.253
X193.939Y-88.41
X194.614Y-49.841
X198.341Y-69.842
X198.885Y-11.906
X203.945Y-90.174
X218.143Y-71.496
X220.907Y-32.321
X226.979Y-11.906
X228.149Y-69.732
X228.905Y-50.254
X230.913Y-30.557
X236.903Y-68.188
X236.985Y-10.142
X237.866Y-87.362
X238.911Y-48.49
X239.668Y-29.013
X245.74Y-8.598
X246.909Y-66.424
X247.666Y-46.946
X247.872Y-85.598
X249.673Y-27.249
X255.664Y-64.88
X255.746Y-6.834
X257.672Y-45.182
X258.428Y-25.705
X264.501Y-5.29
X265.67Y-63.116
X266.426Y-43.638
X268.434Y-23.941
X274.425Y-61.572
X274.506Y-3.526
X275.388Y-80.746
X276.432Y-41.874
X277.189Y-22.397
X283.261Y-1.982
X284.43Y-59.808
X285.187Y-40.33
X285.393Y-78.982
X287.195Y-20.633
X293.185Y-58.264
X293.267Y-0.218
X295.193Y-38.566
X295.95Y-19.089
X303.191Y-56.5
X304.615Y2.381
X305.955Y-17.325
X311.759Y-38.1
X311.759Y-76.2
X314.14Y-57.15
X314.775Y2.381
X316.522Y-19.05
X321.919Y-38.1
X321.919Y-76.2
X323.665Y0.0
X324.3Y-57.15
X326.682Y-19.05
X330.809Y-38.1
X333.825Y0.0
X335.572Y-19.05
X335.572Y-76.2
X340.969Y-38.1
X342.715Y0.0
X345.097Y-57.15
X345.732Y-19.05
X345.732Y-76.2
X349.859Y-57.15
X352.875Y0.0
X355.257Y-57.15
X359.384Y-19.05
X359.384Y-76.2
X360.019Y-57.15
X361.765Y-38.1
X369.544Y-19.05
X369.544Y-76.2
X371.29Y0.0
X371.925Y-38.1
X376.053Y-57.15
X381.45Y0.0
X386.213Y-57.15
X387.769Y-76.2
X397.929Y-76.2
X406.819Y-57.15
X406.819Y-76.2
X416.979Y-57.15
X416.979Y-76.2
X425.869Y-19.05
X425.869Y-38.1
X425.869Y-76.2
X436.029Y-19.05
X436.029Y-38.1
X436.029Y-76.2
T9
X-2.381Y-83.185
X21.431Y-83.185
X50.165Y-16.669
X50.165Y-40.481
X50.165Y-54.769
X50.165Y-78.581
X76.2Y-50.165
X100.012Y-50.165
X155.352Y-89.666
X178.803Y-93.801
X232.357Y-95.426
X255.807Y-91.291
X338.27Y-50.165
X343.033Y-50.165
X354.939Y-31.115
X362.083Y-50.165
X364.464Y6.985
X366.845Y-50.165
X378.752Y-31.115
X388.277Y6.985
T10
X-2.381Y-67.945
X0.0Y0.0
X0.0Y-19.05
X0.0Y-38.1
X0.0Y-57.15
X0.0Y-76.2
X9.525Y-76.2
X19.05Y0.0
X19.05Y-19.05
X19.05Y-38.1
X19.05Y-57.15
X19.05Y-76.2
X21.431Y-67.945
X38.1Y0.0
X38.1Y-19.05
X38.1Y-38.1
X38.1Y-57.15
X38.1Y-76.2
X57.15Y0.0
X57.15Y-28.575
X57.15Y-66.675
X65.405Y-16.669
X65.405Y-40.481
X65.405Y-54.769
X65.405Y-78.581
X76.2Y-65.405
X78.581Y2.381
X80.962Y-38.1
X80.962Y-76.2
X83.344Y-19.05
X85.725Y-38.1
X88.106Y-57.15
X97.631Y0.0
X100.012Y-65.405
X104.775Y-76.2
X107.156Y-19.05
X111.919Y-38.1
X116.681Y0.0
X116.681Y-57.15
X131.947Y-19.447
X133.33Y-39.035
X135.459Y-79.065
X135.731Y2.381
X137.057Y-59.036
X150.708Y-22.755
X152.09Y-42.343
X155.817Y-62.344
X156.361Y-4.408
X157.999Y-74.657
X168.291Y-84.854
X169.469Y-26.063
X170.851Y-45.651
X174.578Y-65.652
X175.122Y-7.716
X181.449Y-78.792
X188.229Y-29.371
X189.611Y-48.959
X193.339Y-68.96
X193.882Y-11.024
X198.942Y-89.292
X223.146Y-70.614
X225.91Y-31.439
X229.71Y-80.418
X231.982Y-11.024
X233.908Y-49.372
X241.906Y-67.306
X242.869Y-86.48
X244.671Y-28.131
X250.743Y-7.716
X252.669Y-46.064
X253.161Y-76.283
X260.667Y-63.998
X263.431Y-24.823
X269.503Y-4.408
X271.429Y-42.756
X279.427Y-60.69
X280.39Y-79.864
X282.192Y-21.515
X288.264Y-1.1
X290.19Y-39.448
X298.188Y-57.382
X300.952Y-18.207
X309.695Y2.381
X316.839Y-38.1
X316.839Y-76.2
X319.22Y-57.15
X321.602Y-19.05
X328.745Y0.0
X335.889Y-38.1
X338.27Y-65.405
X340.652Y-19.05
X340.652Y-76.2
X343.033Y-65.405
X347.795Y0.0
X350.177Y-57.15
X354.939Y-46.355
X354.939Y-57.15
X362.083Y-65.405
X364.464Y-8.255
X364.464Y-19.05
X364.464Y-76.2
X366.845Y-38.1
X366.845Y-65.405
X376.37Y0.0
X378.752Y-46.355
X381.133Y-57.15
X388.277Y-8.255
X392.849Y-76.2
X411.899Y-57.15
X411.899Y-76.2
X430.949Y-19.05
X430.949Y-38.1
X430.949Y-76.2
T6
G00X430.299Y5.6
M15
G01X431.599Y5.6
M16
G05
G00X430.299Y-5.6
M15
G01X431.599Y-5.6
M16
G05
T0
M30
