%TF.GenerationSoftware,KiCad,Pcbnew,(5.1.10)-1*%
%TF.CreationDate,2021-07-27T21:23:13-07:00*%
%TF.ProjectId,V2,56322e6b-6963-4616-945f-706362585858,rev?*%
%TF.SameCoordinates,Original*%
%TF.FileFunction,Copper,L2,Bot*%
%TF.FilePolarity,Positive*%
%FSLAX46Y46*%
G04 Gerber Fmt 4.6, Leading zero omitted, Abs format (unit mm)*
G04 Created by KiCad (PCBNEW (5.1.10)-1) date 2021-07-27 21:23:13*
%MOMM*%
%LPD*%
G01*
G04 APERTURE LIST*
%TA.AperFunction,SMDPad,CuDef*%
%ADD10R,2.550000X2.500000*%
%TD*%
%TA.AperFunction,SMDPad,CuDef*%
%ADD11C,0.100000*%
%TD*%
%TA.AperFunction,ComponentPad*%
%ADD12C,1.752600*%
%TD*%
%TA.AperFunction,ComponentPad*%
%ADD13R,1.752600X1.752600*%
%TD*%
%TA.AperFunction,SMDPad,CuDef*%
%ADD14R,2.500000X2.550000*%
%TD*%
%TA.AperFunction,SMDPad,CuDef*%
%ADD15R,1.200000X0.900000*%
%TD*%
%TA.AperFunction,SMDPad,CuDef*%
%ADD16R,0.900000X1.200000*%
%TD*%
%TA.AperFunction,ViaPad*%
%ADD17C,0.800000*%
%TD*%
%TA.AperFunction,Conductor*%
%ADD18C,0.250000*%
%TD*%
G04 APERTURE END LIST*
D10*
%TO.P,MX92,2*%
%TO.N,Net-(D5-Pad2)*%
X15367000Y-71120000D03*
%TO.P,MX92,1*%
%TO.N,Col0*%
X2440000Y-73660000D03*
%TD*%
%TA.AperFunction,SMDPad,CuDef*%
D11*
%TO.P,MX53,2*%
%TO.N,Net-(D53-Pad2)*%
G36*
X253699666Y-1808874D02*
G01*
X253265546Y653145D01*
X255776806Y1095948D01*
X256210926Y-1366071D01*
X253699666Y-1808874D01*
G37*
%TD.AperFunction*%
%TA.AperFunction,SMDPad,CuDef*%
%TO.P,MX53,1*%
%TO.N,Col11*%
G36*
X241410123Y-6555036D02*
G01*
X240976003Y-4093017D01*
X243487263Y-3650214D01*
X243921383Y-6112233D01*
X241410123Y-6555036D01*
G37*
%TD.AperFunction*%
%TD*%
D12*
%TO.P,U1,25*%
%TO.N,Row0*%
X208040000Y-19310000D03*
%TO.P,U1,26*%
%TO.N,Row1*%
X210580000Y-19310000D03*
%TO.P,U1,27*%
%TO.N,Net-(U1-Pad27)*%
X213120000Y-19310000D03*
%TO.P,U1,28*%
%TO.N,Row2*%
X215660000Y-19310000D03*
%TO.P,U1,29*%
%TO.N,Row3*%
X218200000Y-19310000D03*
%TO.P,U1,24*%
%TO.N,Col18*%
X220740000Y8630000D03*
%TO.P,U1,12*%
%TO.N,Col9*%
X205728600Y-19310000D03*
%TO.P,U1,23*%
%TO.N,Net-(U1-Pad23)*%
X220740000Y6090000D03*
%TO.P,U1,22*%
%TO.N,Net-(U1-Pad22)*%
X220740000Y3550000D03*
%TO.P,U1,21*%
%TO.N,Net-(U1-Pad21)*%
X220740000Y1010000D03*
%TO.P,U1,20*%
%TO.N,Col17*%
X220740000Y-1530000D03*
%TO.P,U1,19*%
%TO.N,Col16*%
X220740000Y-4070000D03*
%TO.P,U1,18*%
%TO.N,Col15*%
X220740000Y-6610000D03*
%TO.P,U1,17*%
%TO.N,Col14*%
X220740000Y-9150000D03*
%TO.P,U1,16*%
%TO.N,Col13*%
X220740000Y-11690000D03*
%TO.P,U1,15*%
%TO.N,Col12*%
X220740000Y-14230000D03*
%TO.P,U1,14*%
%TO.N,Col11*%
X220740000Y-16770000D03*
%TO.P,U1,13*%
%TO.N,Col10*%
X220740000Y-19310000D03*
%TO.P,U1,11*%
%TO.N,Col8*%
X205500000Y-16770000D03*
%TO.P,U1,10*%
%TO.N,Col7*%
X205500000Y-14230000D03*
%TO.P,U1,9*%
%TO.N,Col6*%
X205500000Y-11690000D03*
%TO.P,U1,8*%
%TO.N,Col5*%
X205500000Y-9150000D03*
%TO.P,U1,7*%
%TO.N,Col4*%
X205500000Y-6610000D03*
%TO.P,U1,6*%
%TO.N,Col3*%
X205500000Y-4070000D03*
%TO.P,U1,5*%
%TO.N,Col2*%
X205500000Y-1530000D03*
%TO.P,U1,4*%
%TO.N,Net-(U1-Pad4)*%
X205500000Y1010000D03*
%TO.P,U1,3*%
%TO.N,Net-(U1-Pad3)*%
X205500000Y3550000D03*
%TO.P,U1,2*%
%TO.N,Col1*%
X205500000Y6090000D03*
D13*
%TO.P,U1,1*%
%TO.N,Col0*%
X205500000Y8630000D03*
%TD*%
D10*
%TO.P,MX91,2*%
%TO.N,Net-(D91-Pad2)*%
X428961546Y-71120000D03*
%TO.P,MX91,1*%
%TO.N,Col18*%
X416034546Y-73660000D03*
%TD*%
%TO.P,MX90,2*%
%TO.N,Net-(D90-Pad2)*%
X409911546Y-52070000D03*
%TO.P,MX90,1*%
%TO.N,Col18*%
X396984546Y-54610000D03*
%TD*%
%TO.P,MX89,2*%
%TO.N,Net-(D89-Pad2)*%
X428961546Y-33020000D03*
%TO.P,MX89,1*%
%TO.N,Col18*%
X416034546Y-35560000D03*
%TD*%
%TO.P,MX88,2*%
%TO.N,Net-(D88-Pad2)*%
X428961546Y-13970000D03*
%TO.P,MX88,1*%
%TO.N,Col18*%
X416034546Y-16510000D03*
%TD*%
%TO.P,MX87,2*%
%TO.N,Net-(D87-Pad2)*%
X428961546Y5080000D03*
%TO.P,MX87,1*%
%TO.N,Col18*%
X416034546Y2540000D03*
%TD*%
%TO.P,MX86,2*%
%TO.N,Net-(D86-Pad2)*%
X409911546Y-71120000D03*
%TO.P,MX86,1*%
%TO.N,Col17*%
X396984546Y-73660000D03*
%TD*%
%TO.P,MX85,2*%
%TO.N,Net-(D85-Pad2)*%
X390861546Y-52070000D03*
%TO.P,MX85,1*%
%TO.N,Col17*%
X377934546Y-54610000D03*
%TD*%
%TO.P,MX84,2*%
%TO.N,Net-(D84-Pad2)*%
X378955296Y-33020000D03*
%TO.P,MX84,1*%
%TO.N,Col17*%
X366028296Y-35560000D03*
%TD*%
%TO.P,MX83,2*%
%TO.N,Net-(D83-Pad2)*%
X386099046Y-13970000D03*
%TO.P,MX83,1*%
%TO.N,Col17*%
X373172046Y-16510000D03*
%TD*%
%TO.P,MX82,2*%
%TO.N,Net-(D82-Pad2)*%
X381336546Y5080000D03*
%TO.P,MX82,1*%
%TO.N,Col17*%
X368409546Y2540000D03*
%TD*%
%TO.P,MX81,2*%
%TO.N,Net-(D81-Pad2)*%
X390861546Y-71120000D03*
%TO.P,MX81,1*%
%TO.N,Col16*%
X377934546Y-73660000D03*
%TD*%
%TO.P,MX80,2*%
%TO.N,Net-(D80-Pad2)*%
X364667796Y-52070000D03*
%TO.P,MX80,1*%
%TO.N,Col16*%
X351740796Y-54610000D03*
%TD*%
%TO.P,MX79,2*%
%TO.N,Net-(D79-Pad2)*%
X347999046Y-33020000D03*
%TO.P,MX79,1*%
%TO.N,Col16*%
X335072046Y-35560000D03*
%TD*%
%TO.P,MX78,2*%
%TO.N,Net-(D78-Pad2)*%
X362286546Y-13970000D03*
%TO.P,MX78,1*%
%TO.N,Col16*%
X349359546Y-16510000D03*
%TD*%
%TO.P,MX77,2*%
%TO.N,Net-(D77-Pad2)*%
X352761546Y5080000D03*
%TO.P,MX77,1*%
%TO.N,Col16*%
X339834546Y2540000D03*
%TD*%
%TO.P,MX76,2*%
%TO.N,Net-(D76-Pad2)*%
X369430296Y-71120000D03*
%TO.P,MX76,1*%
%TO.N,Col15*%
X356503296Y-73660000D03*
%TD*%
%TO.P,MX75,2*%
%TO.N,Net-(D75-Pad2)*%
X338474046Y-52070000D03*
%TO.P,MX75,1*%
%TO.N,Col15*%
X325547046Y-54610000D03*
%TD*%
%TO.P,MX74,2*%
%TO.N,Net-(D74-Pad2)*%
X328949046Y-33020000D03*
%TO.P,MX74,1*%
%TO.N,Col15*%
X316022046Y-35560000D03*
%TD*%
%TO.P,MX73,2*%
%TO.N,Net-(D73-Pad2)*%
X343236546Y-13970000D03*
%TO.P,MX73,1*%
%TO.N,Col15*%
X330309546Y-16510000D03*
%TD*%
%TO.P,MX72,2*%
%TO.N,Net-(D72-Pad2)*%
X333711546Y5080000D03*
%TO.P,MX72,1*%
%TO.N,Col15*%
X320784546Y2540000D03*
%TD*%
%TO.P,MX71,2*%
%TO.N,Net-(D71-Pad2)*%
X345617796Y-71120000D03*
%TO.P,MX71,1*%
%TO.N,Col14*%
X332690796Y-73660000D03*
%TD*%
%TA.AperFunction,SMDPad,CuDef*%
D11*
%TO.P,MX70,2*%
%TO.N,Net-(D70-Pad2)*%
G36*
X303489906Y-51061142D02*
G01*
X303055786Y-48599123D01*
X305567046Y-48156320D01*
X306001166Y-50618339D01*
X303489906Y-51061142D01*
G37*
%TD.AperFunction*%
%TA.AperFunction,SMDPad,CuDef*%
%TO.P,MX70,1*%
%TO.N,Col14*%
G36*
X291200363Y-55807304D02*
G01*
X290766243Y-53345285D01*
X293277503Y-52902482D01*
X293711623Y-55364501D01*
X291200363Y-55807304D01*
G37*
%TD.AperFunction*%
%TD*%
D10*
%TO.P,MX69,2*%
%TO.N,Net-(D69-Pad2)*%
X324186546Y-13970000D03*
%TO.P,MX69,1*%
%TO.N,Col14*%
X311259546Y-16510000D03*
%TD*%
%TO.P,MX68,2*%
%TO.N,Net-(D68-Pad2)*%
X314661546Y5080000D03*
%TO.P,MX68,1*%
%TO.N,Col14*%
X301734546Y2540000D03*
%TD*%
%TO.P,MX67,2*%
%TO.N,Net-(D67-Pad2)*%
X321805296Y-71120000D03*
%TO.P,MX67,1*%
%TO.N,Col13*%
X308878296Y-73660000D03*
%TD*%
%TA.AperFunction,SMDPad,CuDef*%
D11*
%TO.P,MX66,2*%
%TO.N,Net-(D66-Pad2)*%
G36*
X284729319Y-54369139D02*
G01*
X284295199Y-51907120D01*
X286806459Y-51464317D01*
X287240579Y-53926336D01*
X284729319Y-54369139D01*
G37*
%TD.AperFunction*%
%TA.AperFunction,SMDPad,CuDef*%
%TO.P,MX66,1*%
%TO.N,Col13*%
G36*
X272439776Y-59115301D02*
G01*
X272005656Y-56653282D01*
X274516916Y-56210479D01*
X274951036Y-58672498D01*
X272439776Y-59115301D01*
G37*
%TD.AperFunction*%
%TD*%
%TA.AperFunction,SMDPad,CuDef*%
%TO.P,MX65,2*%
%TO.N,Net-(D65-Pad2)*%
G36*
X297836834Y-32714054D02*
G01*
X297402714Y-30252035D01*
X299913974Y-29809232D01*
X300348094Y-32271251D01*
X297836834Y-32714054D01*
G37*
%TD.AperFunction*%
%TA.AperFunction,SMDPad,CuDef*%
%TO.P,MX65,1*%
%TO.N,Col13*%
G36*
X285547291Y-37460216D02*
G01*
X285113171Y-34998197D01*
X287624431Y-34555394D01*
X288058551Y-37017413D01*
X285547291Y-37460216D01*
G37*
%TD.AperFunction*%
%TD*%
%TA.AperFunction,SMDPad,CuDef*%
%TO.P,MX64,2*%
%TO.N,Net-(D64-Pad2)*%
G36*
X285148543Y-15607466D02*
G01*
X284714423Y-13145447D01*
X287225683Y-12702644D01*
X287659803Y-15164663D01*
X285148543Y-15607466D01*
G37*
%TD.AperFunction*%
%TA.AperFunction,SMDPad,CuDef*%
%TO.P,MX64,1*%
%TO.N,Col13*%
G36*
X272859000Y-20353628D02*
G01*
X272424880Y-17891609D01*
X274936140Y-17448806D01*
X275370260Y-19910825D01*
X272859000Y-20353628D01*
G37*
%TD.AperFunction*%
%TD*%
%TA.AperFunction,SMDPad,CuDef*%
%TO.P,MX63,2*%
%TO.N,Net-(D63-Pad2)*%
G36*
X291220840Y4807120D02*
G01*
X290786720Y7269139D01*
X293297980Y7711942D01*
X293732100Y5249923D01*
X291220840Y4807120D01*
G37*
%TD.AperFunction*%
%TA.AperFunction,SMDPad,CuDef*%
%TO.P,MX63,1*%
%TO.N,Col13*%
G36*
X278931297Y60958D02*
G01*
X278497177Y2522977D01*
X281008437Y2965780D01*
X281442557Y503761D01*
X278931297Y60958D01*
G37*
%TD.AperFunction*%
%TD*%
%TA.AperFunction,SMDPad,CuDef*%
%TO.P,MX62,2*%
%TO.N,Net-(D62-Pad2)*%
G36*
X285692243Y-73543225D02*
G01*
X285258123Y-71081206D01*
X287769383Y-70638403D01*
X288203503Y-73100422D01*
X285692243Y-73543225D01*
G37*
%TD.AperFunction*%
%TA.AperFunction,SMDPad,CuDef*%
%TO.P,MX62,1*%
%TO.N,Col12*%
G36*
X273402700Y-78289387D02*
G01*
X272968580Y-75827368D01*
X275479840Y-75384565D01*
X275913960Y-77846584D01*
X273402700Y-78289387D01*
G37*
%TD.AperFunction*%
%TD*%
%TA.AperFunction,SMDPad,CuDef*%
%TO.P,MX61,2*%
%TO.N,Net-(D61-Pad2)*%
G36*
X265968732Y-57677136D02*
G01*
X265534612Y-55215117D01*
X268045872Y-54772314D01*
X268479992Y-57234333D01*
X265968732Y-57677136D01*
G37*
%TD.AperFunction*%
%TA.AperFunction,SMDPad,CuDef*%
%TO.P,MX61,1*%
%TO.N,Col12*%
G36*
X253679189Y-62423298D02*
G01*
X253245069Y-59961279D01*
X255756329Y-59518476D01*
X256190449Y-61980495D01*
X253679189Y-62423298D01*
G37*
%TD.AperFunction*%
%TD*%
%TA.AperFunction,SMDPad,CuDef*%
%TO.P,MX60,2*%
%TO.N,Net-(D60-Pad2)*%
G36*
X279076247Y-36022051D02*
G01*
X278642127Y-33560032D01*
X281153387Y-33117229D01*
X281587507Y-35579248D01*
X279076247Y-36022051D01*
G37*
%TD.AperFunction*%
%TA.AperFunction,SMDPad,CuDef*%
%TO.P,MX60,1*%
%TO.N,Col12*%
G36*
X266786704Y-40768213D02*
G01*
X266352584Y-38306194D01*
X268863844Y-37863391D01*
X269297964Y-40325410D01*
X266786704Y-40768213D01*
G37*
%TD.AperFunction*%
%TD*%
%TA.AperFunction,SMDPad,CuDef*%
%TO.P,MX59,2*%
%TO.N,Net-(D59-Pad2)*%
G36*
X266387956Y-18915463D02*
G01*
X265953836Y-16453444D01*
X268465096Y-16010641D01*
X268899216Y-18472660D01*
X266387956Y-18915463D01*
G37*
%TD.AperFunction*%
%TA.AperFunction,SMDPad,CuDef*%
%TO.P,MX59,1*%
%TO.N,Col12*%
G36*
X254098413Y-23661625D02*
G01*
X253664293Y-21199606D01*
X256175553Y-20756803D01*
X256609673Y-23218822D01*
X254098413Y-23661625D01*
G37*
%TD.AperFunction*%
%TD*%
%TA.AperFunction,SMDPad,CuDef*%
%TO.P,MX58,2*%
%TO.N,Net-(D58-Pad2)*%
G36*
X272460253Y1499123D02*
G01*
X272026133Y3961142D01*
X274537393Y4403945D01*
X274971513Y1941926D01*
X272460253Y1499123D01*
G37*
%TD.AperFunction*%
%TA.AperFunction,SMDPad,CuDef*%
%TO.P,MX58,1*%
%TO.N,Col12*%
G36*
X260170710Y-3247039D02*
G01*
X259736590Y-785020D01*
X262247850Y-342217D01*
X262681970Y-2804236D01*
X260170710Y-3247039D01*
G37*
%TD.AperFunction*%
%TD*%
%TA.AperFunction,SMDPad,CuDef*%
%TO.P,MX57,2*%
%TO.N,Net-(D57-Pad2)*%
G36*
X248171068Y-80159220D02*
G01*
X247736948Y-77697201D01*
X250248208Y-77254398D01*
X250682328Y-79716417D01*
X248171068Y-80159220D01*
G37*
%TD.AperFunction*%
%TA.AperFunction,SMDPad,CuDef*%
%TO.P,MX57,1*%
%TO.N,Col11*%
G36*
X235881525Y-84905382D02*
G01*
X235447405Y-82443363D01*
X237958665Y-82000560D01*
X238392785Y-84462579D01*
X235881525Y-84905382D01*
G37*
%TD.AperFunction*%
%TD*%
%TA.AperFunction,SMDPad,CuDef*%
%TO.P,MX56,2*%
%TO.N,Net-(D56-Pad2)*%
G36*
X247208145Y-60985133D02*
G01*
X246774025Y-58523114D01*
X249285285Y-58080311D01*
X249719405Y-60542330D01*
X247208145Y-60985133D01*
G37*
%TD.AperFunction*%
%TA.AperFunction,SMDPad,CuDef*%
%TO.P,MX56,1*%
%TO.N,Col11*%
G36*
X234918602Y-65731295D02*
G01*
X234484482Y-63269276D01*
X236995742Y-62826473D01*
X237429862Y-65288492D01*
X234918602Y-65731295D01*
G37*
%TD.AperFunction*%
%TD*%
%TA.AperFunction,SMDPad,CuDef*%
%TO.P,MX55,2*%
%TO.N,Net-(D55-Pad2)*%
G36*
X260315660Y-39330048D02*
G01*
X259881540Y-36868029D01*
X262392800Y-36425226D01*
X262826920Y-38887245D01*
X260315660Y-39330048D01*
G37*
%TD.AperFunction*%
%TA.AperFunction,SMDPad,CuDef*%
%TO.P,MX55,1*%
%TO.N,Col11*%
G36*
X248026117Y-44076210D02*
G01*
X247591997Y-41614191D01*
X250103257Y-41171388D01*
X250537377Y-43633407D01*
X248026117Y-44076210D01*
G37*
%TD.AperFunction*%
%TD*%
%TA.AperFunction,SMDPad,CuDef*%
%TO.P,MX54,2*%
%TO.N,Net-(D54-Pad2)*%
G36*
X247627369Y-22223460D02*
G01*
X247193249Y-19761441D01*
X249704509Y-19318638D01*
X250138629Y-21780657D01*
X247627369Y-22223460D01*
G37*
%TD.AperFunction*%
%TA.AperFunction,SMDPad,CuDef*%
%TO.P,MX54,1*%
%TO.N,Col11*%
G36*
X235337826Y-26969622D02*
G01*
X234903706Y-24507603D01*
X237414966Y-24064800D01*
X237849086Y-26526819D01*
X235337826Y-26969622D01*
G37*
%TD.AperFunction*%
%TD*%
%TA.AperFunction,SMDPad,CuDef*%
%TO.P,MX52,2*%
%TO.N,Net-(D52-Pad2)*%
G36*
X228447558Y-64293130D02*
G01*
X228013438Y-61831111D01*
X230524698Y-61388308D01*
X230958818Y-63850327D01*
X228447558Y-64293130D01*
G37*
%TD.AperFunction*%
%TA.AperFunction,SMDPad,CuDef*%
%TO.P,MX52,1*%
%TO.N,Col10*%
G36*
X216158015Y-69039292D02*
G01*
X215723895Y-66577273D01*
X218235155Y-66134470D01*
X218669275Y-68596489D01*
X216158015Y-69039292D01*
G37*
%TD.AperFunction*%
%TD*%
%TA.AperFunction,SMDPad,CuDef*%
%TO.P,MX51,2*%
%TO.N,Net-(D51-Pad2)*%
G36*
X241555073Y-42638045D02*
G01*
X241120953Y-40176026D01*
X243632213Y-39733223D01*
X244066333Y-42195242D01*
X241555073Y-42638045D01*
G37*
%TD.AperFunction*%
%TA.AperFunction,SMDPad,CuDef*%
%TO.P,MX51,1*%
%TO.N,Col10*%
G36*
X229265530Y-47384207D02*
G01*
X228831410Y-44922188D01*
X231342670Y-44479385D01*
X231776790Y-46941404D01*
X229265530Y-47384207D01*
G37*
%TD.AperFunction*%
%TD*%
%TA.AperFunction,SMDPad,CuDef*%
%TO.P,MX50,2*%
%TO.N,Net-(D50-Pad2)*%
G36*
X228866782Y-25531457D02*
G01*
X228432662Y-23069438D01*
X230943922Y-22626635D01*
X231378042Y-25088654D01*
X228866782Y-25531457D01*
G37*
%TD.AperFunction*%
%TA.AperFunction,SMDPad,CuDef*%
%TO.P,MX50,1*%
%TO.N,Col10*%
G36*
X216577239Y-30277619D02*
G01*
X216143119Y-27815600D01*
X218654379Y-27372797D01*
X219088499Y-29834816D01*
X216577239Y-30277619D01*
G37*
%TD.AperFunction*%
%TD*%
%TA.AperFunction,SMDPad,CuDef*%
%TO.P,MX49,2*%
%TO.N,Net-(D49-Pad2)*%
G36*
X234939079Y-5116871D02*
G01*
X234504959Y-2654852D01*
X237016219Y-2212049D01*
X237450339Y-4674068D01*
X234939079Y-5116871D01*
G37*
%TD.AperFunction*%
%TA.AperFunction,SMDPad,CuDef*%
%TO.P,MX49,1*%
%TO.N,Col10*%
G36*
X222649536Y-9863033D02*
G01*
X222215416Y-7401014D01*
X224726676Y-6958211D01*
X225160796Y-9420230D01*
X222649536Y-9863033D01*
G37*
%TD.AperFunction*%
%TD*%
%TA.AperFunction,SMDPad,CuDef*%
%TO.P,MX48,2*%
%TO.N,Net-(D48-Pad2)*%
G36*
X209692429Y-85880320D02*
G01*
X210126549Y-83418301D01*
X212637809Y-83861104D01*
X212203689Y-86323123D01*
X209692429Y-85880320D01*
G37*
%TD.AperFunction*%
%TA.AperFunction,SMDPad,CuDef*%
%TO.P,MX48,1*%
%TO.N,Col9*%
G36*
X196520752Y-86136982D02*
G01*
X196954872Y-83674963D01*
X199466132Y-84117766D01*
X199032012Y-86579785D01*
X196520752Y-86136982D01*
G37*
%TD.AperFunction*%
%TD*%
%TA.AperFunction,SMDPad,CuDef*%
%TO.P,MX47,2*%
%TO.N,Net-(D47-Pad2)*%
G36*
X205965204Y-65879232D02*
G01*
X206399324Y-63417213D01*
X208910584Y-63860016D01*
X208476464Y-66322035D01*
X205965204Y-65879232D01*
G37*
%TD.AperFunction*%
%TA.AperFunction,SMDPad,CuDef*%
%TO.P,MX47,1*%
%TO.N,Col9*%
G36*
X192793527Y-66135894D02*
G01*
X193227647Y-63673875D01*
X195738907Y-64116678D01*
X195304787Y-66578697D01*
X192793527Y-66135894D01*
G37*
%TD.AperFunction*%
%TD*%
%TA.AperFunction,SMDPad,CuDef*%
%TO.P,MX46,2*%
%TO.N,Net-(D46-Pad2)*%
G36*
X196609805Y-44885748D02*
G01*
X197043925Y-42423729D01*
X199555185Y-42866532D01*
X199121065Y-45328551D01*
X196609805Y-44885748D01*
G37*
%TD.AperFunction*%
%TA.AperFunction,SMDPad,CuDef*%
%TO.P,MX46,1*%
%TO.N,Col9*%
G36*
X183438128Y-45142410D02*
G01*
X183872248Y-42680391D01*
X186383508Y-43123194D01*
X185949388Y-45585213D01*
X183438128Y-45142410D01*
G37*
%TD.AperFunction*%
%TD*%
%TA.AperFunction,SMDPad,CuDef*%
%TO.P,MX45,2*%
%TO.N,Net-(D45-Pad2)*%
G36*
X192882582Y-24884662D02*
G01*
X193316702Y-22422643D01*
X195827962Y-22865446D01*
X195393842Y-25327465D01*
X192882582Y-24884662D01*
G37*
%TD.AperFunction*%
%TA.AperFunction,SMDPad,CuDef*%
%TO.P,MX45,1*%
%TO.N,Col9*%
G36*
X179710905Y-25141324D02*
G01*
X180145025Y-22679305D01*
X182656285Y-23122108D01*
X182222165Y-25584127D01*
X179710905Y-25141324D01*
G37*
%TD.AperFunction*%
%TD*%
%TA.AperFunction,SMDPad,CuDef*%
%TO.P,MX44,2*%
%TO.N,Net-(D44-Pad2)*%
G36*
X200880726Y-6951075D02*
G01*
X201314846Y-4489056D01*
X203826106Y-4931859D01*
X203391986Y-7393878D01*
X200880726Y-6951075D01*
G37*
%TD.AperFunction*%
%TA.AperFunction,SMDPad,CuDef*%
%TO.P,MX44,1*%
%TO.N,Col9*%
G36*
X187709049Y-7207737D02*
G01*
X188143169Y-4745718D01*
X190654429Y-5188521D01*
X190220309Y-7650540D01*
X187709049Y-7207737D01*
G37*
%TD.AperFunction*%
%TD*%
%TA.AperFunction,SMDPad,CuDef*%
%TO.P,MX43,2*%
%TO.N,Net-(D43-Pad2)*%
G36*
X179206474Y-80504824D02*
G01*
X179640594Y-78042805D01*
X182151854Y-78485608D01*
X181717734Y-80947627D01*
X179206474Y-80504824D01*
G37*
%TD.AperFunction*%
%TA.AperFunction,SMDPad,CuDef*%
%TO.P,MX43,1*%
%TO.N,Col8*%
G36*
X166034797Y-80761486D02*
G01*
X166468917Y-78299467D01*
X168980177Y-78742270D01*
X168546057Y-81204289D01*
X166034797Y-80761486D01*
G37*
%TD.AperFunction*%
%TD*%
%TA.AperFunction,SMDPad,CuDef*%
%TO.P,MX42,2*%
%TO.N,Net-(D42-Pad2)*%
G36*
X187204617Y-62571235D02*
G01*
X187638737Y-60109216D01*
X190149997Y-60552019D01*
X189715877Y-63014038D01*
X187204617Y-62571235D01*
G37*
%TD.AperFunction*%
%TA.AperFunction,SMDPad,CuDef*%
%TO.P,MX42,1*%
%TO.N,Col8*%
G36*
X174032940Y-62827897D02*
G01*
X174467060Y-60365878D01*
X176978320Y-60808681D01*
X176544200Y-63270700D01*
X174032940Y-62827897D01*
G37*
%TD.AperFunction*%
%TD*%
%TA.AperFunction,SMDPad,CuDef*%
%TO.P,MX41,2*%
%TO.N,Net-(D41-Pad2)*%
G36*
X177849218Y-41577751D02*
G01*
X178283338Y-39115732D01*
X180794598Y-39558535D01*
X180360478Y-42020554D01*
X177849218Y-41577751D01*
G37*
%TD.AperFunction*%
%TA.AperFunction,SMDPad,CuDef*%
%TO.P,MX41,1*%
%TO.N,Col8*%
G36*
X164677541Y-41834413D02*
G01*
X165111661Y-39372394D01*
X167622921Y-39815197D01*
X167188801Y-42277216D01*
X164677541Y-41834413D01*
G37*
%TD.AperFunction*%
%TD*%
%TA.AperFunction,SMDPad,CuDef*%
%TO.P,MX40,2*%
%TO.N,Net-(D40-Pad2)*%
G36*
X174121995Y-21576665D02*
G01*
X174556115Y-19114646D01*
X177067375Y-19557449D01*
X176633255Y-22019468D01*
X174121995Y-21576665D01*
G37*
%TD.AperFunction*%
%TA.AperFunction,SMDPad,CuDef*%
%TO.P,MX40,1*%
%TO.N,Col8*%
G36*
X160950318Y-21833327D02*
G01*
X161384438Y-19371308D01*
X163895698Y-19814111D01*
X163461578Y-22276130D01*
X160950318Y-21833327D01*
G37*
%TD.AperFunction*%
%TD*%
%TA.AperFunction,SMDPad,CuDef*%
%TO.P,MX39,2*%
%TO.N,Net-(D39-Pad2)*%
G36*
X182120139Y-3643078D02*
G01*
X182554259Y-1181059D01*
X185065519Y-1623862D01*
X184631399Y-4085881D01*
X182120139Y-3643078D01*
G37*
%TD.AperFunction*%
%TA.AperFunction,SMDPad,CuDef*%
%TO.P,MX39,1*%
%TO.N,Col8*%
G36*
X168948462Y-3899740D02*
G01*
X169382582Y-1437721D01*
X171893842Y-1880524D01*
X171459722Y-4342543D01*
X168948462Y-3899740D01*
G37*
%TD.AperFunction*%
%TD*%
%TA.AperFunction,SMDPad,CuDef*%
%TO.P,MX38,2*%
%TO.N,Net-(D38-Pad2)*%
G36*
X168444030Y-59263238D02*
G01*
X168878150Y-56801219D01*
X171389410Y-57244022D01*
X170955290Y-59706041D01*
X168444030Y-59263238D01*
G37*
%TD.AperFunction*%
%TA.AperFunction,SMDPad,CuDef*%
%TO.P,MX38,1*%
%TO.N,Col7*%
G36*
X155272353Y-59519900D02*
G01*
X155706473Y-57057881D01*
X158217733Y-57500684D01*
X157783613Y-59962703D01*
X155272353Y-59519900D01*
G37*
%TD.AperFunction*%
%TD*%
%TA.AperFunction,SMDPad,CuDef*%
%TO.P,MX37,2*%
%TO.N,Net-(D37-Pad2)*%
G36*
X159088631Y-38269754D02*
G01*
X159522751Y-35807735D01*
X162034011Y-36250538D01*
X161599891Y-38712557D01*
X159088631Y-38269754D01*
G37*
%TD.AperFunction*%
%TA.AperFunction,SMDPad,CuDef*%
%TO.P,MX37,1*%
%TO.N,Col7*%
G36*
X145916954Y-38526416D02*
G01*
X146351074Y-36064397D01*
X148862334Y-36507200D01*
X148428214Y-38969219D01*
X145916954Y-38526416D01*
G37*
%TD.AperFunction*%
%TD*%
%TA.AperFunction,SMDPad,CuDef*%
%TO.P,MX36,2*%
%TO.N,Net-(D36-Pad2)*%
G36*
X155361408Y-18268668D02*
G01*
X155795528Y-15806649D01*
X158306788Y-16249452D01*
X157872668Y-18711471D01*
X155361408Y-18268668D01*
G37*
%TD.AperFunction*%
%TA.AperFunction,SMDPad,CuDef*%
%TO.P,MX36,1*%
%TO.N,Col7*%
G36*
X142189731Y-18525330D02*
G01*
X142623851Y-16063311D01*
X145135111Y-16506114D01*
X144700991Y-18968133D01*
X142189731Y-18525330D01*
G37*
%TD.AperFunction*%
%TD*%
%TA.AperFunction,SMDPad,CuDef*%
%TO.P,MX35,2*%
%TO.N,Net-(D35-Pad2)*%
G36*
X163359552Y-335081D02*
G01*
X163793672Y2126938D01*
X166304932Y1684135D01*
X165870812Y-777884D01*
X163359552Y-335081D01*
G37*
%TD.AperFunction*%
%TA.AperFunction,SMDPad,CuDef*%
%TO.P,MX35,1*%
%TO.N,Col7*%
G36*
X150187875Y-591743D02*
G01*
X150621995Y1870276D01*
X153133255Y1427473D01*
X152699135Y-1034546D01*
X150187875Y-591743D01*
G37*
%TD.AperFunction*%
%TD*%
%TA.AperFunction,SMDPad,CuDef*%
%TO.P,MX34,2*%
%TO.N,Net-(D34-Pad2)*%
G36*
X146276206Y-75278646D02*
G01*
X146710326Y-72816627D01*
X149221586Y-73259430D01*
X148787466Y-75721449D01*
X146276206Y-75278646D01*
G37*
%TD.AperFunction*%
%TA.AperFunction,SMDPad,CuDef*%
%TO.P,MX34,1*%
%TO.N,Col6*%
G36*
X133104529Y-75535308D02*
G01*
X133538649Y-73073289D01*
X136049909Y-73516092D01*
X135615789Y-75978111D01*
X133104529Y-75535308D01*
G37*
%TD.AperFunction*%
%TD*%
%TA.AperFunction,SMDPad,CuDef*%
%TO.P,MX33,2*%
%TO.N,Net-(D33-Pad2)*%
G36*
X149683443Y-55955241D02*
G01*
X150117563Y-53493222D01*
X152628823Y-53936025D01*
X152194703Y-56398044D01*
X149683443Y-55955241D01*
G37*
%TD.AperFunction*%
%TA.AperFunction,SMDPad,CuDef*%
%TO.P,MX33,1*%
%TO.N,Col6*%
G36*
X136511766Y-56211903D02*
G01*
X136945886Y-53749884D01*
X139457146Y-54192687D01*
X139023026Y-56654706D01*
X136511766Y-56211903D01*
G37*
%TD.AperFunction*%
%TD*%
%TA.AperFunction,SMDPad,CuDef*%
%TO.P,MX32,2*%
%TO.N,Net-(D32-Pad2)*%
G36*
X140328044Y-34961757D02*
G01*
X140762164Y-32499738D01*
X143273424Y-32942541D01*
X142839304Y-35404560D01*
X140328044Y-34961757D01*
G37*
%TD.AperFunction*%
%TA.AperFunction,SMDPad,CuDef*%
%TO.P,MX32,1*%
%TO.N,Col6*%
G36*
X127156367Y-35218419D02*
G01*
X127590487Y-32756400D01*
X130101747Y-33199203D01*
X129667627Y-35661222D01*
X127156367Y-35218419D01*
G37*
%TD.AperFunction*%
%TD*%
%TA.AperFunction,SMDPad,CuDef*%
%TO.P,MX31,2*%
%TO.N,Net-(D31-Pad2)*%
G36*
X136600821Y-14960671D02*
G01*
X137034941Y-12498652D01*
X139546201Y-12941455D01*
X139112081Y-15403474D01*
X136600821Y-14960671D01*
G37*
%TD.AperFunction*%
%TA.AperFunction,SMDPad,CuDef*%
%TO.P,MX31,1*%
%TO.N,Col6*%
G36*
X123429144Y-15217333D02*
G01*
X123863264Y-12755314D01*
X126374524Y-13198117D01*
X125940404Y-15660136D01*
X123429144Y-15217333D01*
G37*
%TD.AperFunction*%
%TD*%
%TA.AperFunction,SMDPad,CuDef*%
%TO.P,MX30,2*%
%TO.N,Net-(D30-Pad2)*%
G36*
X144598965Y2972916D02*
G01*
X145033085Y5434935D01*
X147544345Y4992132D01*
X147110225Y2530113D01*
X144598965Y2972916D01*
G37*
%TD.AperFunction*%
%TA.AperFunction,SMDPad,CuDef*%
%TO.P,MX30,1*%
%TO.N,Col6*%
G36*
X131427288Y2716254D02*
G01*
X131861408Y5178273D01*
X134372668Y4735470D01*
X133938548Y2273451D01*
X131427288Y2716254D01*
G37*
%TD.AperFunction*%
%TD*%
D10*
%TO.P,MX29,2*%
%TO.N,Net-(D29-Pad2)*%
X129667000Y-52070000D03*
%TO.P,MX29,1*%
%TO.N,Col5*%
X116740000Y-54610000D03*
%TD*%
%TO.P,MX28,2*%
%TO.N,Net-(D28-Pad2)*%
X120142000Y-33020000D03*
%TO.P,MX28,1*%
%TO.N,Col5*%
X107215000Y-35560000D03*
%TD*%
%TO.P,MX27,2*%
%TO.N,Net-(D27-Pad2)*%
X115379500Y-13970000D03*
%TO.P,MX27,1*%
%TO.N,Col5*%
X102452500Y-16510000D03*
%TD*%
%TO.P,MX26,2*%
%TO.N,Net-(D26-Pad2)*%
X124904500Y7937500D03*
%TO.P,MX26,1*%
%TO.N,Col5*%
X111977500Y5397500D03*
%TD*%
%TO.P,MX25,2*%
%TO.N,Net-(D25-Pad2)*%
X105854500Y5080000D03*
%TO.P,MX25,1*%
%TO.N,Col5*%
X92927500Y2540000D03*
%TD*%
%TO.P,MX24,2*%
%TO.N,Net-(D24-Pad2)*%
X112998250Y-71120000D03*
%TO.P,MX24,1*%
%TO.N,Col4*%
X100071250Y-73660000D03*
%TD*%
%TO.P,MX23,2*%
%TO.N,Net-(D23-Pad2)*%
X98710750Y-52070000D03*
%TO.P,MX23,1*%
%TO.N,Col4*%
X85783750Y-54610000D03*
%TD*%
%TO.P,MX22,2*%
%TO.N,Net-(D22-Pad2)*%
X93948250Y-33020000D03*
%TO.P,MX22,1*%
%TO.N,Col4*%
X81021250Y-35560000D03*
%TD*%
%TO.P,MX21,2*%
%TO.N,Net-(D21-Pad2)*%
X91567000Y-13970000D03*
%TO.P,MX21,1*%
%TO.N,Col4*%
X78640000Y-16510000D03*
%TD*%
%TO.P,MX20,2*%
%TO.N,Net-(D20-Pad2)*%
X86804500Y5080000D03*
%TO.P,MX20,1*%
%TO.N,Col4*%
X73877500Y2540000D03*
%TD*%
%TO.P,MX19,2*%
%TO.N,Net-(D19-Pad2)*%
X89185750Y-71120000D03*
%TO.P,MX19,1*%
%TO.N,Col3*%
X76258750Y-73660000D03*
%TD*%
D14*
%TO.P,MX18,2*%
%TO.N,Net-(D18-Pad2)*%
X52070000Y-60833000D03*
%TO.P,MX18,1*%
%TO.N,Col3*%
X54610000Y-73760000D03*
%TD*%
%TO.P,MX17,2*%
%TO.N,Net-(D17-Pad2)*%
X52070000Y-22733000D03*
%TO.P,MX17,1*%
%TO.N,Col3*%
X54610000Y-35660000D03*
%TD*%
D10*
%TO.P,MX16,2*%
%TO.N,Net-(D16-Pad2)*%
X62992000Y5080000D03*
%TO.P,MX16,1*%
%TO.N,Col3*%
X50065000Y2540000D03*
%TD*%
%TO.P,MX15,2*%
%TO.N,Net-(D15-Pad2)*%
X43942000Y-71120000D03*
%TO.P,MX15,1*%
%TO.N,Col2*%
X31015000Y-73660000D03*
%TD*%
%TO.P,MX14,2*%
%TO.N,Net-(D14-Pad2)*%
X43942000Y-52070000D03*
%TO.P,MX14,1*%
%TO.N,Col2*%
X31015000Y-54610000D03*
%TD*%
%TO.P,MX13,2*%
%TO.N,Net-(D13-Pad2)*%
X43942000Y-33020000D03*
%TO.P,MX13,1*%
%TO.N,Col2*%
X31015000Y-35560000D03*
%TD*%
%TO.P,MX12,2*%
%TO.N,Net-(D12-Pad2)*%
X43942000Y-13970000D03*
%TO.P,MX12,1*%
%TO.N,Col2*%
X31015000Y-16510000D03*
%TD*%
%TO.P,MX11,2*%
%TO.N,Net-(D11-Pad2)*%
X43942000Y5080000D03*
%TO.P,MX11,1*%
%TO.N,Col2*%
X31015000Y2540000D03*
%TD*%
%TO.P,MX10,2*%
%TO.N,Net-(D10-Pad2)*%
X24892000Y-71120000D03*
%TO.P,MX10,1*%
%TO.N,Col1*%
X11965000Y-73660000D03*
%TD*%
%TO.P,MX9,2*%
%TO.N,Net-(D9-Pad2)*%
X24892000Y-52070000D03*
%TO.P,MX9,1*%
%TO.N,Col1*%
X11965000Y-54610000D03*
%TD*%
%TO.P,MX8,2*%
%TO.N,Net-(D8-Pad2)*%
X24892000Y-33020000D03*
%TO.P,MX8,1*%
%TO.N,Col1*%
X11965000Y-35560000D03*
%TD*%
%TO.P,MX7,2*%
%TO.N,Net-(D7-Pad2)*%
X24892000Y-13970000D03*
%TO.P,MX7,1*%
%TO.N,Col1*%
X11965000Y-16510000D03*
%TD*%
%TO.P,MX6,2*%
%TO.N,Net-(D6-Pad2)*%
X24892000Y5080000D03*
%TO.P,MX6,1*%
%TO.N,Col1*%
X11965000Y2540000D03*
%TD*%
%TO.P,MX5,2*%
%TO.N,Net-(D5-Pad2)*%
X5842000Y-71120000D03*
%TO.P,MX5,1*%
%TO.N,Col0*%
X-7085000Y-73660000D03*
%TD*%
%TO.P,MX4,2*%
%TO.N,Net-(D4-Pad2)*%
X5842000Y-52070000D03*
%TO.P,MX4,1*%
%TO.N,Col0*%
X-7085000Y-54610000D03*
%TD*%
%TO.P,MX3,2*%
%TO.N,Net-(D3-Pad2)*%
X5842000Y-33020000D03*
%TO.P,MX3,1*%
%TO.N,Col0*%
X-7085000Y-35560000D03*
%TD*%
%TO.P,MX2,2*%
%TO.N,Net-(D2-Pad2)*%
X5842000Y-13970000D03*
%TO.P,MX2,1*%
%TO.N,Col0*%
X-7085000Y-16510000D03*
%TD*%
%TO.P,MX1,2*%
%TO.N,Net-(D1-Pad2)*%
X5842000Y5080000D03*
%TO.P,MX1,1*%
%TO.N,Col0*%
X-7085000Y2540000D03*
%TD*%
D15*
%TO.P,D91,2*%
%TO.N,Net-(D91-Pad2)*%
X413590000Y-81560000D03*
%TO.P,D91,1*%
%TO.N,Row4*%
X413590000Y-84860000D03*
%TD*%
D16*
%TO.P,D90,2*%
%TO.N,Net-(D90-Pad2)*%
X411944546Y-66675000D03*
%TO.P,D90,1*%
%TO.N,Row3*%
X415244546Y-66675000D03*
%TD*%
D15*
%TO.P,D89,2*%
%TO.N,Net-(D89-Pad2)*%
X413594546Y-45975000D03*
%TO.P,D89,1*%
%TO.N,Row2*%
X413594546Y-49275000D03*
%TD*%
%TO.P,D88,2*%
%TO.N,Net-(D88-Pad2)*%
X413594546Y-26925000D03*
%TO.P,D88,1*%
%TO.N,Row1*%
X413594546Y-30225000D03*
%TD*%
%TO.P,D87,2*%
%TO.N,Net-(D87-Pad2)*%
X413594546Y-7875000D03*
%TO.P,D87,1*%
%TO.N,Row0*%
X413594546Y-11175000D03*
%TD*%
%TO.P,D86,2*%
%TO.N,Net-(D86-Pad2)*%
X394540000Y-81560000D03*
%TO.P,D86,1*%
%TO.N,Row4*%
X394540000Y-84860000D03*
%TD*%
D16*
%TO.P,D85,2*%
%TO.N,Net-(D85-Pad2)*%
X392894546Y-66675000D03*
%TO.P,D85,1*%
%TO.N,Row3*%
X396194546Y-66675000D03*
%TD*%
D15*
%TO.P,D84,2*%
%TO.N,Net-(D84-Pad2)*%
X394540000Y-45640000D03*
%TO.P,D84,1*%
%TO.N,Row2*%
X394540000Y-48940000D03*
%TD*%
%TO.P,D83,2*%
%TO.N,Net-(D83-Pad2)*%
X394540000Y-26910000D03*
%TO.P,D83,1*%
%TO.N,Row1*%
X394540000Y-30210000D03*
%TD*%
%TO.P,D82,2*%
%TO.N,Net-(D82-Pad2)*%
X394530000Y-7880000D03*
%TO.P,D82,1*%
%TO.N,Row0*%
X394530000Y-11180000D03*
%TD*%
%TO.P,D81,2*%
%TO.N,Net-(D81-Pad2)*%
X375490000Y-81530000D03*
%TO.P,D81,1*%
%TO.N,Row4*%
X375490000Y-84830000D03*
%TD*%
D16*
%TO.P,D80,2*%
%TO.N,Net-(D80-Pad2)*%
X373840000Y-66670000D03*
%TO.P,D80,1*%
%TO.N,Row3*%
X377140000Y-66670000D03*
%TD*%
%TO.P,D79,2*%
%TO.N,Net-(D79-Pad2)*%
X350032046Y-47625000D03*
%TO.P,D79,1*%
%TO.N,Row2*%
X353332046Y-47625000D03*
%TD*%
%TO.P,D78,2*%
%TO.N,Net-(D78-Pad2)*%
X364319546Y-28575000D03*
%TO.P,D78,1*%
%TO.N,Row1*%
X367619546Y-28575000D03*
%TD*%
%TO.P,D77,2*%
%TO.N,Net-(D77-Pad2)*%
X354794546Y-9525000D03*
%TO.P,D77,1*%
%TO.N,Row0*%
X358094546Y-9525000D03*
%TD*%
D15*
%TO.P,D76,2*%
%TO.N,Net-(D76-Pad2)*%
X351680000Y-81540000D03*
%TO.P,D76,1*%
%TO.N,Row4*%
X351680000Y-84840000D03*
%TD*%
D16*
%TO.P,D75,2*%
%TO.N,Net-(D75-Pad2)*%
X340507046Y-66675000D03*
%TO.P,D75,1*%
%TO.N,Row3*%
X343807046Y-66675000D03*
%TD*%
%TO.P,D74,2*%
%TO.N,Net-(D74-Pad2)*%
X330982046Y-47625000D03*
%TO.P,D74,1*%
%TO.N,Row2*%
X334282046Y-47625000D03*
%TD*%
%TO.P,D73,2*%
%TO.N,Net-(D73-Pad2)*%
X345269546Y-28575000D03*
%TO.P,D73,1*%
%TO.N,Row1*%
X348569546Y-28575000D03*
%TD*%
%TO.P,D72,2*%
%TO.N,Net-(D72-Pad2)*%
X335744546Y-9525000D03*
%TO.P,D72,1*%
%TO.N,Row0*%
X339044546Y-9525000D03*
%TD*%
D15*
%TO.P,D71,2*%
%TO.N,Net-(D71-Pad2)*%
X327860000Y-81540000D03*
%TO.P,D71,1*%
%TO.N,Row4*%
X327860000Y-84840000D03*
%TD*%
%TA.AperFunction,SMDPad,CuDef*%
D11*
%TO.P,D70,2*%
%TO.N,Net-(D70-Pad2)*%
G36*
X293215958Y-67042507D02*
G01*
X293007581Y-65860738D01*
X293893908Y-65704455D01*
X294102285Y-66886224D01*
X293215958Y-67042507D01*
G37*
%TD.AperFunction*%
%TA.AperFunction,SMDPad,CuDef*%
%TO.P,D70,1*%
%TO.N,Row3*%
G36*
X289966092Y-67615545D02*
G01*
X289757715Y-66433776D01*
X290644042Y-66277493D01*
X290852419Y-67459262D01*
X289966092Y-67615545D01*
G37*
%TD.AperFunction*%
%TD*%
D16*
%TO.P,D69,2*%
%TO.N,Net-(D69-Pad2)*%
X326219546Y-28575000D03*
%TO.P,D69,1*%
%TO.N,Row1*%
X329519546Y-28575000D03*
%TD*%
%TO.P,D68,2*%
%TO.N,Net-(D68-Pad2)*%
X316694546Y-9525000D03*
%TO.P,D68,1*%
%TO.N,Row0*%
X319994546Y-9525000D03*
%TD*%
D15*
%TO.P,D67,2*%
%TO.N,Net-(D67-Pad2)*%
X304060000Y-81540000D03*
%TO.P,D67,1*%
%TO.N,Row4*%
X304060000Y-84840000D03*
%TD*%
%TA.AperFunction,SMDPad,CuDef*%
D11*
%TO.P,D66,2*%
%TO.N,Net-(D66-Pad2)*%
G36*
X280515958Y-69272507D02*
G01*
X280307581Y-68090738D01*
X281193908Y-67934455D01*
X281402285Y-69116224D01*
X280515958Y-69272507D01*
G37*
%TD.AperFunction*%
%TA.AperFunction,SMDPad,CuDef*%
%TO.P,D66,1*%
%TO.N,Row3*%
G36*
X277266092Y-69845545D02*
G01*
X277057715Y-68663776D01*
X277944042Y-68507493D01*
X278152419Y-69689262D01*
X277266092Y-69845545D01*
G37*
%TD.AperFunction*%
%TD*%
%TA.AperFunction,SMDPad,CuDef*%
%TO.P,D65,2*%
%TO.N,Net-(D65-Pad2)*%
G36*
X296665958Y-47082507D02*
G01*
X296457581Y-45900738D01*
X297343908Y-45744455D01*
X297552285Y-46926224D01*
X296665958Y-47082507D01*
G37*
%TD.AperFunction*%
%TA.AperFunction,SMDPad,CuDef*%
%TO.P,D65,1*%
%TO.N,Row2*%
G36*
X293416092Y-47655545D02*
G01*
X293207715Y-46473776D01*
X294094042Y-46317493D01*
X294302419Y-47499262D01*
X293416092Y-47655545D01*
G37*
%TD.AperFunction*%
%TD*%
%TA.AperFunction,SMDPad,CuDef*%
%TO.P,D64,2*%
%TO.N,Net-(D64-Pad2)*%
G36*
X284255958Y-29932507D02*
G01*
X284047581Y-28750738D01*
X284933908Y-28594455D01*
X285142285Y-29776224D01*
X284255958Y-29932507D01*
G37*
%TD.AperFunction*%
%TA.AperFunction,SMDPad,CuDef*%
%TO.P,D64,1*%
%TO.N,Row1*%
G36*
X281006092Y-30505545D02*
G01*
X280797715Y-29323776D01*
X281684042Y-29167493D01*
X281892419Y-30349262D01*
X281006092Y-30505545D01*
G37*
%TD.AperFunction*%
%TD*%
%TA.AperFunction,SMDPad,CuDef*%
%TO.P,D63,2*%
%TO.N,Net-(D63-Pad2)*%
G36*
X290335958Y-9522507D02*
G01*
X290127581Y-8340738D01*
X291013908Y-8184455D01*
X291222285Y-9366224D01*
X290335958Y-9522507D01*
G37*
%TD.AperFunction*%
%TA.AperFunction,SMDPad,CuDef*%
%TO.P,D63,1*%
%TO.N,Row0*%
G36*
X287086092Y-10095545D02*
G01*
X286877715Y-8913776D01*
X287764042Y-8757493D01*
X287972419Y-9939262D01*
X287086092Y-10095545D01*
G37*
%TD.AperFunction*%
%TD*%
%TA.AperFunction,SMDPad,CuDef*%
%TO.P,D62,2*%
%TO.N,Net-(D62-Pad2)*%
G36*
X271732507Y-85774042D02*
G01*
X270550738Y-85982419D01*
X270394455Y-85096092D01*
X271576224Y-84887715D01*
X271732507Y-85774042D01*
G37*
%TD.AperFunction*%
%TA.AperFunction,SMDPad,CuDef*%
%TO.P,D62,1*%
%TO.N,Row4*%
G36*
X272305545Y-89023908D02*
G01*
X271123776Y-89232285D01*
X270967493Y-88345958D01*
X272149262Y-88137581D01*
X272305545Y-89023908D01*
G37*
%TD.AperFunction*%
%TD*%
%TA.AperFunction,SMDPad,CuDef*%
%TO.P,D61,2*%
%TO.N,Net-(D61-Pad2)*%
G36*
X265095958Y-71992507D02*
G01*
X264887581Y-70810738D01*
X265773908Y-70654455D01*
X265982285Y-71836224D01*
X265095958Y-71992507D01*
G37*
%TD.AperFunction*%
%TA.AperFunction,SMDPad,CuDef*%
%TO.P,D61,1*%
%TO.N,Row3*%
G36*
X261846092Y-72565545D02*
G01*
X261637715Y-71383776D01*
X262524042Y-71227493D01*
X262732419Y-72409262D01*
X261846092Y-72565545D01*
G37*
%TD.AperFunction*%
%TD*%
%TA.AperFunction,SMDPad,CuDef*%
%TO.P,D60,2*%
%TO.N,Net-(D60-Pad2)*%
G36*
X278725958Y-50252507D02*
G01*
X278517581Y-49070738D01*
X279403908Y-48914455D01*
X279612285Y-50096224D01*
X278725958Y-50252507D01*
G37*
%TD.AperFunction*%
%TA.AperFunction,SMDPad,CuDef*%
%TO.P,D60,1*%
%TO.N,Row2*%
G36*
X275476092Y-50825545D02*
G01*
X275267715Y-49643776D01*
X276154042Y-49487493D01*
X276362419Y-50669262D01*
X275476092Y-50825545D01*
G37*
%TD.AperFunction*%
%TD*%
%TA.AperFunction,SMDPad,CuDef*%
%TO.P,D59,2*%
%TO.N,Net-(D59-Pad2)*%
G36*
X265495958Y-33242507D02*
G01*
X265287581Y-32060738D01*
X266173908Y-31904455D01*
X266382285Y-33086224D01*
X265495958Y-33242507D01*
G37*
%TD.AperFunction*%
%TA.AperFunction,SMDPad,CuDef*%
%TO.P,D59,1*%
%TO.N,Row1*%
G36*
X262246092Y-33815545D02*
G01*
X262037715Y-32633776D01*
X262924042Y-32477493D01*
X263132419Y-33659262D01*
X262246092Y-33815545D01*
G37*
%TD.AperFunction*%
%TD*%
%TA.AperFunction,SMDPad,CuDef*%
%TO.P,D58,2*%
%TO.N,Net-(D58-Pad2)*%
G36*
X271567665Y-12828542D02*
G01*
X271359288Y-11646773D01*
X272245615Y-11490490D01*
X272453992Y-12672259D01*
X271567665Y-12828542D01*
G37*
%TD.AperFunction*%
%TA.AperFunction,SMDPad,CuDef*%
%TO.P,D58,1*%
%TO.N,Row0*%
G36*
X268317799Y-13401580D02*
G01*
X268109422Y-12219811D01*
X268995749Y-12063528D01*
X269204126Y-13245297D01*
X268317799Y-13401580D01*
G37*
%TD.AperFunction*%
%TD*%
%TA.AperFunction,SMDPad,CuDef*%
%TO.P,D57,2*%
%TO.N,Net-(D57-Pad2)*%
G36*
X220142507Y-94904042D02*
G01*
X218960738Y-95112419D01*
X218804455Y-94226092D01*
X219986224Y-94017715D01*
X220142507Y-94904042D01*
G37*
%TD.AperFunction*%
%TA.AperFunction,SMDPad,CuDef*%
%TO.P,D57,1*%
%TO.N,Row4*%
G36*
X220715545Y-98153908D02*
G01*
X219533776Y-98362285D01*
X219377493Y-97475958D01*
X220559262Y-97267581D01*
X220715545Y-98153908D01*
G37*
%TD.AperFunction*%
%TD*%
%TA.AperFunction,SMDPad,CuDef*%
%TO.P,D56,2*%
%TO.N,Net-(D56-Pad2)*%
G36*
X246315557Y-75312798D02*
G01*
X246107180Y-74131029D01*
X246993507Y-73974746D01*
X247201884Y-75156515D01*
X246315557Y-75312798D01*
G37*
%TD.AperFunction*%
%TA.AperFunction,SMDPad,CuDef*%
%TO.P,D56,1*%
%TO.N,Row3*%
G36*
X243065691Y-75885836D02*
G01*
X242857314Y-74704067D01*
X243743641Y-74547784D01*
X243952018Y-75729553D01*
X243065691Y-75885836D01*
G37*
%TD.AperFunction*%
%TD*%
%TA.AperFunction,SMDPad,CuDef*%
%TO.P,D55,2*%
%TO.N,Net-(D55-Pad2)*%
G36*
X259423072Y-53657713D02*
G01*
X259214695Y-52475944D01*
X260101022Y-52319661D01*
X260309399Y-53501430D01*
X259423072Y-53657713D01*
G37*
%TD.AperFunction*%
%TA.AperFunction,SMDPad,CuDef*%
%TO.P,D55,1*%
%TO.N,Row2*%
G36*
X256173206Y-54230751D02*
G01*
X255964829Y-53048982D01*
X256851156Y-52892699D01*
X257059533Y-54074468D01*
X256173206Y-54230751D01*
G37*
%TD.AperFunction*%
%TD*%
%TA.AperFunction,SMDPad,CuDef*%
%TO.P,D54,2*%
%TO.N,Net-(D54-Pad2)*%
G36*
X246735958Y-36552507D02*
G01*
X246527581Y-35370738D01*
X247413908Y-35214455D01*
X247622285Y-36396224D01*
X246735958Y-36552507D01*
G37*
%TD.AperFunction*%
%TA.AperFunction,SMDPad,CuDef*%
%TO.P,D54,1*%
%TO.N,Row1*%
G36*
X243486092Y-37125545D02*
G01*
X243277715Y-35943776D01*
X244164042Y-35787493D01*
X244372419Y-36969262D01*
X243486092Y-37125545D01*
G37*
%TD.AperFunction*%
%TD*%
%TA.AperFunction,SMDPad,CuDef*%
%TO.P,D53,2*%
%TO.N,Net-(D53-Pad2)*%
G36*
X252805958Y-16132507D02*
G01*
X252597581Y-14950738D01*
X253483908Y-14794455D01*
X253692285Y-15976224D01*
X252805958Y-16132507D01*
G37*
%TD.AperFunction*%
%TA.AperFunction,SMDPad,CuDef*%
%TO.P,D53,1*%
%TO.N,Row0*%
G36*
X249556092Y-16705545D02*
G01*
X249347715Y-15523776D01*
X250234042Y-15367493D01*
X250442419Y-16549262D01*
X249556092Y-16705545D01*
G37*
%TD.AperFunction*%
%TD*%
%TA.AperFunction,SMDPad,CuDef*%
%TO.P,D52,2*%
%TO.N,Net-(D52-Pad2)*%
G36*
X227554970Y-78620795D02*
G01*
X227346593Y-77439026D01*
X228232920Y-77282743D01*
X228441297Y-78464512D01*
X227554970Y-78620795D01*
G37*
%TD.AperFunction*%
%TA.AperFunction,SMDPad,CuDef*%
%TO.P,D52,1*%
%TO.N,Row3*%
G36*
X224305104Y-79193833D02*
G01*
X224096727Y-78012064D01*
X224983054Y-77855781D01*
X225191431Y-79037550D01*
X224305104Y-79193833D01*
G37*
%TD.AperFunction*%
%TD*%
%TA.AperFunction,SMDPad,CuDef*%
%TO.P,D51,2*%
%TO.N,Net-(D51-Pad2)*%
G36*
X240662485Y-56965710D02*
G01*
X240454108Y-55783941D01*
X241340435Y-55627658D01*
X241548812Y-56809427D01*
X240662485Y-56965710D01*
G37*
%TD.AperFunction*%
%TA.AperFunction,SMDPad,CuDef*%
%TO.P,D51,1*%
%TO.N,Row2*%
G36*
X237412619Y-57538748D02*
G01*
X237204242Y-56356979D01*
X238090569Y-56200696D01*
X238298946Y-57382465D01*
X237412619Y-57538748D01*
G37*
%TD.AperFunction*%
%TD*%
%TA.AperFunction,SMDPad,CuDef*%
%TO.P,D50,2*%
%TO.N,Net-(D50-Pad2)*%
G36*
X227974194Y-39859122D02*
G01*
X227765817Y-38677353D01*
X228652144Y-38521070D01*
X228860521Y-39702839D01*
X227974194Y-39859122D01*
G37*
%TD.AperFunction*%
%TA.AperFunction,SMDPad,CuDef*%
%TO.P,D50,1*%
%TO.N,Row1*%
G36*
X224724328Y-40432160D02*
G01*
X224515951Y-39250391D01*
X225402278Y-39094108D01*
X225610655Y-40275877D01*
X224724328Y-40432160D01*
G37*
%TD.AperFunction*%
%TD*%
%TA.AperFunction,SMDPad,CuDef*%
%TO.P,D49,2*%
%TO.N,Net-(D49-Pad2)*%
G36*
X234046491Y-19444536D02*
G01*
X233838114Y-18262767D01*
X234724441Y-18106484D01*
X234932818Y-19288253D01*
X234046491Y-19444536D01*
G37*
%TD.AperFunction*%
%TA.AperFunction,SMDPad,CuDef*%
%TO.P,D49,1*%
%TO.N,Row0*%
G36*
X230796625Y-20017574D02*
G01*
X230588248Y-18835805D01*
X231474575Y-18679522D01*
X231682952Y-19861291D01*
X230796625Y-20017574D01*
G37*
%TD.AperFunction*%
%TD*%
%TA.AperFunction,SMDPad,CuDef*%
%TO.P,D48,2*%
%TO.N,Net-(D48-Pad2)*%
G36*
X214709294Y-89435500D02*
G01*
X213527525Y-89227123D01*
X213683808Y-88340796D01*
X214865577Y-88549173D01*
X214709294Y-89435500D01*
G37*
%TD.AperFunction*%
%TA.AperFunction,SMDPad,CuDef*%
%TO.P,D48,1*%
%TO.N,Row4*%
G36*
X214136256Y-92685366D02*
G01*
X212954487Y-92476989D01*
X213110770Y-91590662D01*
X214292539Y-91799039D01*
X214136256Y-92685366D01*
G37*
%TD.AperFunction*%
%TD*%
%TA.AperFunction,SMDPad,CuDef*%
%TO.P,D47,2*%
%TO.N,Net-(D47-Pad2)*%
G36*
X210789262Y-70452419D02*
G01*
X209607493Y-70244042D01*
X209763776Y-69357715D01*
X210945545Y-69566092D01*
X210789262Y-70452419D01*
G37*
%TD.AperFunction*%
%TA.AperFunction,SMDPad,CuDef*%
%TO.P,D47,1*%
%TO.N,Row3*%
G36*
X210216224Y-73702285D02*
G01*
X209034455Y-73493908D01*
X209190738Y-72607581D01*
X210372507Y-72815958D01*
X210216224Y-73702285D01*
G37*
%TD.AperFunction*%
%TD*%
%TA.AperFunction,SMDPad,CuDef*%
%TO.P,D46,2*%
%TO.N,Net-(D46-Pad2)*%
G36*
X200247581Y-59699262D02*
G01*
X200455958Y-58517493D01*
X201342285Y-58673776D01*
X201133908Y-59855545D01*
X200247581Y-59699262D01*
G37*
%TD.AperFunction*%
%TA.AperFunction,SMDPad,CuDef*%
%TO.P,D46,1*%
%TO.N,Row2*%
G36*
X196997715Y-59126224D02*
G01*
X197206092Y-57944455D01*
X198092419Y-58100738D01*
X197884042Y-59282507D01*
X196997715Y-59126224D01*
G37*
%TD.AperFunction*%
%TD*%
%TA.AperFunction,SMDPad,CuDef*%
%TO.P,D45,2*%
%TO.N,Net-(D45-Pad2)*%
G36*
X194372419Y-38100738D02*
G01*
X194164042Y-39282507D01*
X193277715Y-39126224D01*
X193486092Y-37944455D01*
X194372419Y-38100738D01*
G37*
%TD.AperFunction*%
%TA.AperFunction,SMDPad,CuDef*%
%TO.P,D45,1*%
%TO.N,Row1*%
G36*
X197622285Y-38673776D02*
G01*
X197413908Y-39855545D01*
X196527581Y-39699262D01*
X196735958Y-38517493D01*
X197622285Y-38673776D01*
G37*
%TD.AperFunction*%
%TD*%
%TA.AperFunction,SMDPad,CuDef*%
%TO.P,D44,2*%
%TO.N,Net-(D44-Pad2)*%
G36*
X197672419Y-19340738D02*
G01*
X197464042Y-20522507D01*
X196577715Y-20366224D01*
X196786092Y-19184455D01*
X197672419Y-19340738D01*
G37*
%TD.AperFunction*%
%TA.AperFunction,SMDPad,CuDef*%
%TO.P,D44,1*%
%TO.N,Row0*%
G36*
X200922285Y-19913776D02*
G01*
X200713908Y-21095545D01*
X199827581Y-20939262D01*
X200035958Y-19757493D01*
X200922285Y-19913776D01*
G37*
%TD.AperFunction*%
%TD*%
%TA.AperFunction,SMDPad,CuDef*%
%TO.P,D43,2*%
%TO.N,Net-(D43-Pad2)*%
G36*
X194739262Y-93002419D02*
G01*
X193557493Y-92794042D01*
X193713776Y-91907715D01*
X194895545Y-92116092D01*
X194739262Y-93002419D01*
G37*
%TD.AperFunction*%
%TA.AperFunction,SMDPad,CuDef*%
%TO.P,D43,1*%
%TO.N,Row4*%
G36*
X194166224Y-96252285D02*
G01*
X192984455Y-96043908D01*
X193140738Y-95157581D01*
X194322507Y-95365958D01*
X194166224Y-96252285D01*
G37*
%TD.AperFunction*%
%TD*%
%TA.AperFunction,SMDPad,CuDef*%
%TO.P,D42,2*%
%TO.N,Net-(D42-Pad2)*%
G36*
X195732419Y-77020738D02*
G01*
X195524042Y-78202507D01*
X194637715Y-78046224D01*
X194846092Y-76864455D01*
X195732419Y-77020738D01*
G37*
%TD.AperFunction*%
%TA.AperFunction,SMDPad,CuDef*%
%TO.P,D42,1*%
%TO.N,Row3*%
G36*
X198982285Y-77593776D02*
G01*
X198773908Y-78775545D01*
X197887581Y-78619262D01*
X198095958Y-77437493D01*
X198982285Y-77593776D01*
G37*
%TD.AperFunction*%
%TD*%
%TA.AperFunction,SMDPad,CuDef*%
%TO.P,D41,2*%
%TO.N,Net-(D41-Pad2)*%
G36*
X181487581Y-56389262D02*
G01*
X181695958Y-55207493D01*
X182582285Y-55363776D01*
X182373908Y-56545545D01*
X181487581Y-56389262D01*
G37*
%TD.AperFunction*%
%TA.AperFunction,SMDPad,CuDef*%
%TO.P,D41,1*%
%TO.N,Row2*%
G36*
X178237715Y-55816224D02*
G01*
X178446092Y-54634455D01*
X179332419Y-54790738D01*
X179124042Y-55972507D01*
X178237715Y-55816224D01*
G37*
%TD.AperFunction*%
%TD*%
%TA.AperFunction,SMDPad,CuDef*%
%TO.P,D40,2*%
%TO.N,Net-(D40-Pad2)*%
G36*
X175612419Y-34790738D02*
G01*
X175404042Y-35972507D01*
X174517715Y-35816224D01*
X174726092Y-34634455D01*
X175612419Y-34790738D01*
G37*
%TD.AperFunction*%
%TA.AperFunction,SMDPad,CuDef*%
%TO.P,D40,1*%
%TO.N,Row1*%
G36*
X178862285Y-35363776D02*
G01*
X178653908Y-36545545D01*
X177767581Y-36389262D01*
X177975958Y-35207493D01*
X178862285Y-35363776D01*
G37*
%TD.AperFunction*%
%TD*%
%TA.AperFunction,SMDPad,CuDef*%
%TO.P,D39,2*%
%TO.N,Net-(D39-Pad2)*%
G36*
X183602419Y-16850738D02*
G01*
X183394042Y-18032507D01*
X182507715Y-17876224D01*
X182716092Y-16694455D01*
X183602419Y-16850738D01*
G37*
%TD.AperFunction*%
%TA.AperFunction,SMDPad,CuDef*%
%TO.P,D39,1*%
%TO.N,Row0*%
G36*
X186852285Y-17423776D02*
G01*
X186643908Y-18605545D01*
X185757581Y-18449262D01*
X185965958Y-17267493D01*
X186852285Y-17423776D01*
G37*
%TD.AperFunction*%
%TD*%
%TA.AperFunction,SMDPad,CuDef*%
%TO.P,D38,2*%
%TO.N,Net-(D38-Pad2)*%
G36*
X169912419Y-72470738D02*
G01*
X169704042Y-73652507D01*
X168817715Y-73496224D01*
X169026092Y-72314455D01*
X169912419Y-72470738D01*
G37*
%TD.AperFunction*%
%TA.AperFunction,SMDPad,CuDef*%
%TO.P,D38,1*%
%TO.N,Row3*%
G36*
X173162285Y-73043776D02*
G01*
X172953908Y-74225545D01*
X172067581Y-74069262D01*
X172275958Y-72887493D01*
X173162285Y-73043776D01*
G37*
%TD.AperFunction*%
%TD*%
%TA.AperFunction,SMDPad,CuDef*%
%TO.P,D37,2*%
%TO.N,Net-(D37-Pad2)*%
G36*
X160572419Y-51480738D02*
G01*
X160364042Y-52662507D01*
X159477715Y-52506224D01*
X159686092Y-51324455D01*
X160572419Y-51480738D01*
G37*
%TD.AperFunction*%
%TA.AperFunction,SMDPad,CuDef*%
%TO.P,D37,1*%
%TO.N,Row2*%
G36*
X163822285Y-52053776D02*
G01*
X163613908Y-53235545D01*
X162727581Y-53079262D01*
X162935958Y-51897493D01*
X163822285Y-52053776D01*
G37*
%TD.AperFunction*%
%TD*%
%TA.AperFunction,SMDPad,CuDef*%
%TO.P,D36,2*%
%TO.N,Net-(D36-Pad2)*%
G36*
X156842419Y-31480738D02*
G01*
X156634042Y-32662507D01*
X155747715Y-32506224D01*
X155956092Y-31324455D01*
X156842419Y-31480738D01*
G37*
%TD.AperFunction*%
%TA.AperFunction,SMDPad,CuDef*%
%TO.P,D36,1*%
%TO.N,Row1*%
G36*
X160092285Y-32053776D02*
G01*
X159883908Y-33235545D01*
X158997581Y-33079262D01*
X159205958Y-31897493D01*
X160092285Y-32053776D01*
G37*
%TD.AperFunction*%
%TD*%
%TA.AperFunction,SMDPad,CuDef*%
%TO.P,D35,2*%
%TO.N,Net-(D35-Pad2)*%
G36*
X164842419Y-13550738D02*
G01*
X164634042Y-14732507D01*
X163747715Y-14576224D01*
X163956092Y-13394455D01*
X164842419Y-13550738D01*
G37*
%TD.AperFunction*%
%TA.AperFunction,SMDPad,CuDef*%
%TO.P,D35,1*%
%TO.N,Row0*%
G36*
X168092285Y-14123776D02*
G01*
X167883908Y-15305545D01*
X166997581Y-15149262D01*
X167205958Y-13967493D01*
X168092285Y-14123776D01*
G37*
%TD.AperFunction*%
%TD*%
%TA.AperFunction,SMDPad,CuDef*%
%TO.P,D34,2*%
%TO.N,Net-(D34-Pad2)*%
G36*
X152439262Y-86072419D02*
G01*
X151257493Y-85864042D01*
X151413776Y-84977715D01*
X152595545Y-85186092D01*
X152439262Y-86072419D01*
G37*
%TD.AperFunction*%
%TA.AperFunction,SMDPad,CuDef*%
%TO.P,D34,1*%
%TO.N,Row4*%
G36*
X151866224Y-89322285D02*
G01*
X150684455Y-89113908D01*
X150840738Y-88227581D01*
X152022507Y-88435958D01*
X151866224Y-89322285D01*
G37*
%TD.AperFunction*%
%TD*%
%TA.AperFunction,SMDPad,CuDef*%
%TO.P,D33,2*%
%TO.N,Net-(D33-Pad2)*%
G36*
X153512419Y-69570738D02*
G01*
X153304042Y-70752507D01*
X152417715Y-70596224D01*
X152626092Y-69414455D01*
X153512419Y-69570738D01*
G37*
%TD.AperFunction*%
%TA.AperFunction,SMDPad,CuDef*%
%TO.P,D33,1*%
%TO.N,Row3*%
G36*
X156762285Y-70143776D02*
G01*
X156553908Y-71325545D01*
X155667581Y-71169262D01*
X155875958Y-69987493D01*
X156762285Y-70143776D01*
G37*
%TD.AperFunction*%
%TD*%
%TA.AperFunction,SMDPad,CuDef*%
%TO.P,D32,2*%
%TO.N,Net-(D32-Pad2)*%
G36*
X141812419Y-48160738D02*
G01*
X141604042Y-49342507D01*
X140717715Y-49186224D01*
X140926092Y-48004455D01*
X141812419Y-48160738D01*
G37*
%TD.AperFunction*%
%TA.AperFunction,SMDPad,CuDef*%
%TO.P,D32,1*%
%TO.N,Row2*%
G36*
X145062285Y-48733776D02*
G01*
X144853908Y-49915545D01*
X143967581Y-49759262D01*
X144175958Y-48577493D01*
X145062285Y-48733776D01*
G37*
%TD.AperFunction*%
%TD*%
%TA.AperFunction,SMDPad,CuDef*%
%TO.P,D31,2*%
%TO.N,Net-(D31-Pad2)*%
G36*
X138082419Y-28160738D02*
G01*
X137874042Y-29342507D01*
X136987715Y-29186224D01*
X137196092Y-28004455D01*
X138082419Y-28160738D01*
G37*
%TD.AperFunction*%
%TA.AperFunction,SMDPad,CuDef*%
%TO.P,D31,1*%
%TO.N,Row1*%
G36*
X141332285Y-28733776D02*
G01*
X141123908Y-29915545D01*
X140237581Y-29759262D01*
X140445958Y-28577493D01*
X141332285Y-28733776D01*
G37*
%TD.AperFunction*%
%TD*%
%TA.AperFunction,SMDPad,CuDef*%
%TO.P,D30,2*%
%TO.N,Net-(D30-Pad2)*%
G36*
X146082419Y-10230738D02*
G01*
X145874042Y-11412507D01*
X144987715Y-11256224D01*
X145196092Y-10074455D01*
X146082419Y-10230738D01*
G37*
%TD.AperFunction*%
%TA.AperFunction,SMDPad,CuDef*%
%TO.P,D30,1*%
%TO.N,Row0*%
G36*
X149332285Y-10803776D02*
G01*
X149123908Y-11985545D01*
X148237581Y-11829262D01*
X148445958Y-10647493D01*
X149332285Y-10803776D01*
G37*
%TD.AperFunction*%
%TD*%
D16*
%TO.P,D29,2*%
%TO.N,Net-(D29-Pad2)*%
X131700000Y-66675000D03*
%TO.P,D29,1*%
%TO.N,Row4*%
X135000000Y-66675000D03*
%TD*%
%TO.P,D28,2*%
%TO.N,Net-(D28-Pad2)*%
X122175000Y-47625000D03*
%TO.P,D28,1*%
%TO.N,Row3*%
X125475000Y-47625000D03*
%TD*%
%TO.P,D27,2*%
%TO.N,Net-(D27-Pad2)*%
X117412500Y-28575000D03*
%TO.P,D27,1*%
%TO.N,Row2*%
X120712500Y-28575000D03*
%TD*%
D15*
%TO.P,D26,2*%
%TO.N,Net-(D26-Pad2)*%
X128560000Y1090000D03*
%TO.P,D26,1*%
%TO.N,Row1*%
X128560000Y-2210000D03*
%TD*%
D16*
%TO.P,D25,2*%
%TO.N,Net-(D25-Pad2)*%
X107887500Y-9525000D03*
%TO.P,D25,1*%
%TO.N,Row0*%
X111187500Y-9525000D03*
%TD*%
D15*
%TO.P,D24,2*%
%TO.N,Net-(D24-Pad2)*%
X119060000Y-81540000D03*
%TO.P,D24,1*%
%TO.N,Row4*%
X119060000Y-84840000D03*
%TD*%
D16*
%TO.P,D23,2*%
%TO.N,Net-(D23-Pad2)*%
X112650000Y-66670000D03*
%TO.P,D23,1*%
%TO.N,Row3*%
X115950000Y-66670000D03*
%TD*%
D15*
%TO.P,D22,2*%
%TO.N,Net-(D22-Pad2)*%
X104800000Y-42440000D03*
%TO.P,D22,1*%
%TO.N,Row2*%
X104800000Y-45740000D03*
%TD*%
D16*
%TO.P,D21,2*%
%TO.N,Net-(D21-Pad2)*%
X98370000Y-28580000D03*
%TO.P,D21,1*%
%TO.N,Row1*%
X101670000Y-28580000D03*
%TD*%
%TO.P,D20,2*%
%TO.N,Net-(D20-Pad2)*%
X88837500Y-9525000D03*
%TO.P,D20,1*%
%TO.N,Row0*%
X92137500Y-9525000D03*
%TD*%
D15*
%TO.P,D19,2*%
%TO.N,Net-(D19-Pad2)*%
X95250000Y-81520000D03*
%TO.P,D19,1*%
%TO.N,Row4*%
X95250000Y-84820000D03*
%TD*%
%TO.P,D18,2*%
%TO.N,Net-(D18-Pad2)*%
X66675000Y-64999600D03*
%TO.P,D18,1*%
%TO.N,Row3*%
X66675000Y-68299600D03*
%TD*%
%TO.P,D17,2*%
%TO.N,Net-(D17-Pad2)*%
X66675000Y-26874200D03*
%TO.P,D17,1*%
%TO.N,Row2*%
X66675000Y-30174200D03*
%TD*%
%TO.P,D16,2*%
%TO.N,Net-(D16-Pad2)*%
X66675000Y-7875000D03*
%TO.P,D16,1*%
%TO.N,Row0*%
X66675000Y-11175000D03*
%TD*%
%TO.P,D15,2*%
%TO.N,Net-(D15-Pad2)*%
X47630000Y-81540000D03*
%TO.P,D15,1*%
%TO.N,Row4*%
X47630000Y-84840000D03*
%TD*%
D16*
%TO.P,D14,2*%
%TO.N,Net-(D14-Pad2)*%
X45975000Y-66675000D03*
%TO.P,D14,1*%
%TO.N,Row3*%
X49275000Y-66675000D03*
%TD*%
%TO.P,D13,2*%
%TO.N,Net-(D13-Pad2)*%
X45975000Y-47625000D03*
%TO.P,D13,1*%
%TO.N,Row2*%
X49275000Y-47625000D03*
%TD*%
%TO.P,D12,2*%
%TO.N,Net-(D12-Pad2)*%
X45975000Y-28575000D03*
%TO.P,D12,1*%
%TO.N,Row1*%
X49275000Y-28575000D03*
%TD*%
%TO.P,D11,2*%
%TO.N,Net-(D11-Pad2)*%
X45975000Y-9525000D03*
%TO.P,D11,1*%
%TO.N,Row0*%
X49275000Y-9525000D03*
%TD*%
D15*
%TO.P,D10,2*%
%TO.N,Net-(D10-Pad2)*%
X28575000Y-81550000D03*
%TO.P,D10,1*%
%TO.N,Row4*%
X28575000Y-84850000D03*
%TD*%
D16*
%TO.P,D9,2*%
%TO.N,Net-(D9-Pad2)*%
X26925000Y-66675000D03*
%TO.P,D9,1*%
%TO.N,Row3*%
X30225000Y-66675000D03*
%TD*%
%TO.P,D8,2*%
%TO.N,Net-(D8-Pad2)*%
X26925000Y-47625000D03*
%TO.P,D8,1*%
%TO.N,Row2*%
X30225000Y-47625000D03*
%TD*%
%TO.P,D7,2*%
%TO.N,Net-(D7-Pad2)*%
X26925000Y-28575000D03*
%TO.P,D7,1*%
%TO.N,Row1*%
X30225000Y-28575000D03*
%TD*%
%TO.P,D6,2*%
%TO.N,Net-(D6-Pad2)*%
X26925000Y-9525000D03*
%TO.P,D6,1*%
%TO.N,Row0*%
X30225000Y-9525000D03*
%TD*%
D15*
%TO.P,D5,2*%
%TO.N,Net-(D5-Pad2)*%
X9525000Y-81550000D03*
%TO.P,D5,1*%
%TO.N,Row4*%
X9525000Y-84850000D03*
%TD*%
D16*
%TO.P,D4,2*%
%TO.N,Net-(D4-Pad2)*%
X7875000Y-66675000D03*
%TO.P,D4,1*%
%TO.N,Row3*%
X11175000Y-66675000D03*
%TD*%
%TO.P,D3,2*%
%TO.N,Net-(D3-Pad2)*%
X7875000Y-47625000D03*
%TO.P,D3,1*%
%TO.N,Row2*%
X11175000Y-47625000D03*
%TD*%
%TO.P,D2,2*%
%TO.N,Net-(D2-Pad2)*%
X7875000Y-28575000D03*
%TO.P,D2,1*%
%TO.N,Row1*%
X11175000Y-28575000D03*
%TD*%
%TO.P,D1,2*%
%TO.N,Net-(D1-Pad2)*%
X7875000Y-9525000D03*
%TO.P,D1,1*%
%TO.N,Row0*%
X11175000Y-9525000D03*
%TD*%
D17*
%TO.N,Row0*%
X413600000Y-11190000D03*
X394560000Y-11170000D03*
X358080000Y-9520000D03*
X339050000Y-9520000D03*
X320030000Y-9520000D03*
X287410000Y-9410000D03*
X268660000Y-12720000D03*
X249900000Y-16010000D03*
X231120000Y-19380000D03*
X186300000Y-17960000D03*
X167550000Y-14680000D03*
X148800000Y-11340000D03*
X111210000Y-9530000D03*
X92140000Y-9520000D03*
X66680000Y-11190000D03*
X49290000Y-9520000D03*
X30280000Y-9510000D03*
X11200000Y-9520000D03*
%TO.N,Row1*%
X329510000Y-28580000D03*
X348550000Y-28580000D03*
X367620000Y-28560000D03*
X394540000Y-30210000D03*
X413600000Y-30210000D03*
X281350000Y-29840000D03*
X262570000Y-33130000D03*
X243820000Y-36470000D03*
X225030000Y-39760000D03*
X197060000Y-39200000D03*
X178320000Y-35870000D03*
X159540000Y-32590000D03*
X101710000Y-28590000D03*
X49270000Y-28580000D03*
X30250000Y-28580000D03*
X11200000Y-28510000D03*
X128580000Y-2230000D03*
X140784933Y-29246519D03*
%TO.N,Row2*%
X394550000Y-48930000D03*
X353340000Y-47610000D03*
X334270000Y-47630000D03*
X293740000Y-46970000D03*
X275790000Y-50160000D03*
X256480000Y-53550000D03*
X237750000Y-56860000D03*
X197530000Y-58580000D03*
X178800000Y-55290000D03*
X163290000Y-52550000D03*
X144530000Y-49240000D03*
X104770000Y-45750000D03*
X49270000Y-47630000D03*
X30230000Y-47620000D03*
X11200000Y-47620000D03*
X413620000Y-49280000D03*
X120750000Y-28570000D03*
X66680000Y-30180000D03*
%TO.N,Row3*%
X125470000Y-47600000D03*
X11190000Y-66680000D03*
X30210000Y-66680000D03*
X49290000Y-66670000D03*
X66680000Y-68320000D03*
X115950000Y-66660000D03*
X156250000Y-70670000D03*
X172620000Y-73540000D03*
X198440000Y-78090000D03*
X209720000Y-73160000D03*
X224650000Y-78520000D03*
X243400000Y-75210000D03*
X262190000Y-71900000D03*
X277590000Y-69180000D03*
X290290000Y-66940000D03*
X343810000Y-66680000D03*
X377150000Y-66670000D03*
X396260000Y-66670000D03*
X415280000Y-66670000D03*
%TO.N,Row4*%
X135000000Y-66680000D03*
X151353481Y-88774933D03*
%TO.N,Col5*%
X111977500Y5397500D03*
%TO.N,Col6*%
X132899978Y3725862D03*
%TO.N,Col7*%
X151660565Y-9908523D03*
%TO.N,Col8*%
X162423008Y-30433008D03*
%TO.N,Col11*%
X236376396Y-28503604D03*
%TO.N,Col12*%
X258405456Y-30434544D03*
%TO.N,Col13*%
X273897570Y-18901217D03*
%TO.N,Col14*%
X301734546Y2540000D03*
%TO.N,Col15*%
X320784546Y2540000D03*
%TD*%
D18*
%TO.N,Net-(D1-Pad2)*%
X7875000Y3047000D02*
X7875000Y-9525000D01*
X5842000Y5080000D02*
X7875000Y3047000D01*
%TO.N,Row0*%
X199953935Y-20847517D02*
X200374933Y-20426519D01*
X189215931Y-20847517D02*
X199953935Y-20847517D01*
X186304933Y-17936519D02*
X189215931Y-20847517D01*
X202692753Y-18108699D02*
X206638699Y-18108699D01*
X200374933Y-20426519D02*
X202692753Y-18108699D01*
X228787634Y-17000582D02*
X231135600Y-19348548D01*
X228787634Y-7015205D02*
X228787634Y-17000582D01*
X227181128Y-5408699D02*
X228787634Y-7015205D01*
X219338699Y-5408699D02*
X227181128Y-5408699D01*
X206638699Y-18108699D02*
X219338699Y-5408699D01*
X206838699Y-18108699D02*
X206638699Y-18108699D01*
X208040000Y-19310000D02*
X206838699Y-18108699D01*
%TO.N,Net-(D2-Pad2)*%
X7875000Y-16003000D02*
X7875000Y-28575000D01*
X5842000Y-13970000D02*
X7875000Y-16003000D01*
%TO.N,Row1*%
X140363935Y-29667517D02*
X140784933Y-29246519D01*
X137009373Y-29667517D02*
X140363935Y-29667517D01*
X135240953Y-27899097D02*
X137009373Y-29667517D01*
X135240953Y-18310282D02*
X135240953Y-27899097D01*
X128560000Y-11629329D02*
X135240953Y-18310282D01*
X128560000Y-2210000D02*
X128560000Y-11629329D01*
%TO.N,Net-(D3-Pad2)*%
X7875000Y-35053000D02*
X7875000Y-47625000D01*
X5842000Y-33020000D02*
X7875000Y-35053000D01*
%TO.N,Row2*%
X201268533Y-60180555D02*
X199112141Y-60180555D01*
X199112141Y-60180555D02*
X197545067Y-58613481D01*
X214783701Y-46665387D02*
X201268533Y-60180555D01*
X214783701Y-20186299D02*
X214783701Y-46665387D01*
X215660000Y-19310000D02*
X214783701Y-20186299D01*
%TO.N,Net-(D4-Pad2)*%
X7875000Y-54103000D02*
X7875000Y-66675000D01*
X5842000Y-52070000D02*
X7875000Y-54103000D01*
%TO.N,Row3*%
X215398885Y-67459529D02*
X209703481Y-73154933D01*
X215398885Y-22111115D02*
X215398885Y-67459529D01*
X218200000Y-19310000D02*
X215398885Y-22111115D01*
%TO.N,Net-(D5-Pad2)*%
X11031002Y-81550000D02*
X9525000Y-81550000D01*
X15805001Y-76776001D02*
X11031002Y-81550000D01*
X15805001Y-76013025D02*
X15805001Y-76776001D01*
X17065001Y-71293001D02*
X17065001Y-74753025D01*
X17065001Y-74753025D02*
X15805001Y-76013025D01*
X16892000Y-71120000D02*
X17065001Y-71293001D01*
X15367000Y-71120000D02*
X16892000Y-71120000D01*
X7206099Y-79231099D02*
X9525000Y-81550000D01*
X8396999Y-73896027D02*
X7206099Y-75086927D01*
X8396999Y-72149999D02*
X8396999Y-73896027D01*
X7367000Y-71120000D02*
X8396999Y-72149999D01*
X7206099Y-75086927D02*
X7206099Y-79231099D01*
X5842000Y-71120000D02*
X7367000Y-71120000D01*
%TO.N,Row4*%
X9525000Y-84850000D02*
X28575000Y-84850000D01*
X47620000Y-84850000D02*
X47630000Y-84840000D01*
X28575000Y-84850000D02*
X47620000Y-84850000D01*
X95230000Y-84840000D02*
X95250000Y-84820000D01*
X47630000Y-84840000D02*
X95230000Y-84840000D01*
X119040000Y-84820000D02*
X119060000Y-84840000D01*
X95250000Y-84820000D02*
X119040000Y-84820000D01*
X147418548Y-84840000D02*
X151353481Y-88774933D01*
X119060000Y-84840000D02*
X147418548Y-84840000D01*
X187137379Y-95704933D02*
X193653481Y-95704933D01*
X161168815Y-91120577D02*
X187137379Y-95704933D01*
X158823171Y-88774933D02*
X161168815Y-91120577D01*
X151353481Y-88774933D02*
X158823171Y-88774933D01*
X210056594Y-95704933D02*
X213623513Y-92138014D01*
X193653481Y-95704933D02*
X210056594Y-95704933D01*
X214369600Y-92138014D02*
X220046519Y-97814933D01*
X213623513Y-92138014D02*
X214369600Y-92138014D01*
X270979582Y-89341870D02*
X271636519Y-88684933D01*
X222988844Y-97814933D02*
X270979582Y-89341870D01*
X220046519Y-97814933D02*
X222988844Y-97814933D01*
X275481452Y-84840000D02*
X304060000Y-84840000D01*
X271636519Y-88684933D02*
X275481452Y-84840000D01*
X304060000Y-84840000D02*
X327860000Y-84840000D01*
X327860000Y-84840000D02*
X351680000Y-84840000D01*
X375480000Y-84840000D02*
X375490000Y-84830000D01*
X351680000Y-84840000D02*
X375480000Y-84840000D01*
X394510000Y-84830000D02*
X394540000Y-84860000D01*
X375490000Y-84830000D02*
X394510000Y-84830000D01*
X394540000Y-84860000D02*
X413590000Y-84860000D01*
%TO.N,Net-(D6-Pad2)*%
X26925000Y3047000D02*
X26925000Y-9525000D01*
X24892000Y5080000D02*
X26925000Y3047000D01*
%TO.N,Net-(D7-Pad2)*%
X26925000Y-16003000D02*
X26925000Y-28575000D01*
X24892000Y-13970000D02*
X26925000Y-16003000D01*
%TO.N,Net-(D8-Pad2)*%
X26925000Y-35053000D02*
X26925000Y-47625000D01*
X24892000Y-33020000D02*
X26925000Y-35053000D01*
%TO.N,Net-(D9-Pad2)*%
X26925000Y-54103000D02*
X26925000Y-66675000D01*
X24892000Y-52070000D02*
X26925000Y-54103000D01*
%TO.N,Net-(D10-Pad2)*%
X28575000Y-74803000D02*
X28575000Y-81550000D01*
X24892000Y-71120000D02*
X28575000Y-74803000D01*
%TO.N,Net-(D11-Pad2)*%
X45975000Y3047000D02*
X45975000Y-9525000D01*
X43942000Y5080000D02*
X45975000Y3047000D01*
%TO.N,Net-(D12-Pad2)*%
X45975000Y-16003000D02*
X45975000Y-28575000D01*
X43942000Y-13970000D02*
X45975000Y-16003000D01*
%TO.N,Net-(D13-Pad2)*%
X45975000Y-35053000D02*
X45975000Y-47625000D01*
X43942000Y-33020000D02*
X45975000Y-35053000D01*
%TO.N,Net-(D14-Pad2)*%
X45975000Y-54103000D02*
X45975000Y-66675000D01*
X43942000Y-52070000D02*
X45975000Y-54103000D01*
%TO.N,Net-(D15-Pad2)*%
X47630000Y-74808000D02*
X47630000Y-81540000D01*
X43942000Y-71120000D02*
X47630000Y-74808000D01*
%TO.N,Net-(D16-Pad2)*%
X66675000Y1397000D02*
X66675000Y-7875000D01*
X62992000Y5080000D02*
X66675000Y1397000D01*
%TO.N,Net-(D17-Pad2)*%
X62095799Y-22294999D02*
X66675000Y-26874200D01*
X52508001Y-22294999D02*
X62095799Y-22294999D01*
X52070000Y-22733000D02*
X52508001Y-22294999D01*
%TO.N,Net-(D18-Pad2)*%
X54032001Y-62795001D02*
X64470401Y-62795001D01*
X64470401Y-62795001D02*
X66675000Y-64999600D01*
X52070000Y-60833000D02*
X54032001Y-62795001D01*
%TO.N,Net-(D19-Pad2)*%
X95250000Y-77184250D02*
X95250000Y-81520000D01*
X89185750Y-71120000D02*
X95250000Y-77184250D01*
%TO.N,Net-(D20-Pad2)*%
X88837500Y3047000D02*
X88837500Y-9525000D01*
X86804500Y5080000D02*
X88837500Y3047000D01*
%TO.N,Net-(D21-Pad2)*%
X98370000Y-20773000D02*
X98370000Y-28580000D01*
X91567000Y-13970000D02*
X98370000Y-20773000D01*
%TO.N,Net-(D22-Pad2)*%
X95380000Y-33020000D02*
X104800000Y-42440000D01*
X93948250Y-33020000D02*
X95380000Y-33020000D01*
%TO.N,Net-(D23-Pad2)*%
X98710750Y-52730750D02*
X112650000Y-66670000D01*
X98710750Y-52070000D02*
X98710750Y-52730750D01*
%TO.N,Net-(D24-Pad2)*%
X119060000Y-77181750D02*
X119060000Y-81540000D01*
X112998250Y-71120000D02*
X119060000Y-77181750D01*
%TO.N,Net-(D25-Pad2)*%
X107887500Y3047000D02*
X107887500Y-9525000D01*
X105854500Y5080000D02*
X107887500Y3047000D01*
%TO.N,Net-(D26-Pad2)*%
X124904500Y4745500D02*
X128560000Y1090000D01*
X124904500Y7937500D02*
X124904500Y4745500D01*
%TO.N,Net-(D27-Pad2)*%
X117412500Y-16003000D02*
X117412500Y-28575000D01*
X115379500Y-13970000D02*
X117412500Y-16003000D01*
%TO.N,Net-(D28-Pad2)*%
X122175000Y-35053000D02*
X122175000Y-47625000D01*
X120142000Y-33020000D02*
X122175000Y-35053000D01*
%TO.N,Net-(D29-Pad2)*%
X131700000Y-54103000D02*
X131700000Y-66675000D01*
X129667000Y-52070000D02*
X131700000Y-54103000D01*
%TO.N,Net-(D30-Pad2)*%
X146071655Y-10206893D02*
X145535067Y-10743481D01*
X146071655Y3982524D02*
X146071655Y-10206893D01*
%TO.N,Net-(D31-Pad2)*%
X138073511Y-28135037D02*
X137535067Y-28673481D01*
X138073511Y-13951063D02*
X138073511Y-28135037D01*
%TO.N,Net-(D32-Pad2)*%
X141800734Y-48137814D02*
X141265067Y-48673481D01*
X141800734Y-33952149D02*
X141800734Y-48137814D01*
%TO.N,Net-(D33-Pad2)*%
X151156133Y-68274547D02*
X152965067Y-70083481D01*
X151156133Y-54945633D02*
X151156133Y-68274547D01*
%TO.N,Net-(D34-Pad2)*%
X147748896Y-81347444D02*
X151926519Y-85525067D01*
X147748896Y-74269038D02*
X147748896Y-81347444D01*
%TO.N,Net-(D35-Pad2)*%
X164832242Y-13526306D02*
X164295067Y-14063481D01*
X164832242Y674527D02*
X164832242Y-13526306D01*
%TO.N,Net-(D36-Pad2)*%
X156834098Y-31454450D02*
X156295067Y-31993481D01*
X156834098Y-17259060D02*
X156834098Y-31454450D01*
%TO.N,Net-(D37-Pad2)*%
X160561321Y-51457227D02*
X160025067Y-51993481D01*
X160561321Y-37260146D02*
X160561321Y-51457227D01*
%TO.N,Net-(D38-Pad2)*%
X169365067Y-63819232D02*
X169365067Y-72983481D01*
X169916720Y-63267579D02*
X169365067Y-63819232D01*
X169916720Y-58253630D02*
X169916720Y-63267579D01*
%TO.N,Net-(D39-Pad2)*%
X183592829Y-16825719D02*
X183055067Y-17363481D01*
X183592829Y-2633470D02*
X183592829Y-16825719D01*
%TO.N,Net-(D40-Pad2)*%
X175594685Y-34773863D02*
X175065067Y-35303481D01*
X175594685Y-20567057D02*
X175594685Y-34773863D01*
%TO.N,Net-(D41-Pad2)*%
X179321908Y-53163494D02*
X182034933Y-55876519D01*
X179321908Y-40568143D02*
X179321908Y-53163494D01*
%TO.N,Net-(D42-Pad2)*%
X188677307Y-71025721D02*
X195185067Y-77533481D01*
X188677307Y-61561627D02*
X188677307Y-71025721D01*
%TO.N,Net-(D43-Pad2)*%
X181266668Y-79495216D02*
X194226519Y-92455067D01*
X180679164Y-79495216D02*
X181266668Y-79495216D01*
%TO.N,Net-(D44-Pad2)*%
X197125067Y-12439099D02*
X197125067Y-19853481D01*
X202353416Y-7210750D02*
X197125067Y-12439099D01*
X202353416Y-5941467D02*
X202353416Y-7210750D01*
%TO.N,Net-(D45-Pad2)*%
X194355272Y-38083276D02*
X193825067Y-38613481D01*
X194355272Y-23875054D02*
X194355272Y-38083276D01*
%TO.N,Net-(D46-Pad2)*%
X198082495Y-56474081D02*
X200794933Y-59186519D01*
X198082495Y-43876140D02*
X198082495Y-56474081D01*
%TO.N,Net-(D47-Pad2)*%
X207437894Y-67066442D02*
X210276519Y-69905067D01*
X207437894Y-64869624D02*
X207437894Y-67066442D01*
%TO.N,Net-(D48-Pad2)*%
X211165119Y-85856716D02*
X214196551Y-88888148D01*
X211165119Y-84870712D02*
X211165119Y-85856716D01*
%TO.N,Net-(D49-Pad2)*%
X234909357Y-18251619D02*
X234385466Y-18775510D01*
X234909357Y-4732752D02*
X234909357Y-18251619D01*
X235977649Y-3664460D02*
X234909357Y-4732752D01*
%TO.N,Net-(D50-Pad2)*%
X228837060Y-38666205D02*
X228313169Y-39190096D01*
X228837060Y-25147338D02*
X228837060Y-38666205D01*
X229905352Y-24079046D02*
X228837060Y-25147338D01*
%TO.N,Net-(D51-Pad2)*%
X241525351Y-55772793D02*
X241001460Y-56296684D01*
X241525351Y-42253926D02*
X241525351Y-55772793D01*
X242593643Y-41185634D02*
X241525351Y-42253926D01*
%TO.N,Net-(D52-Pad2)*%
X227893945Y-64432902D02*
X227893945Y-77951769D01*
X229486128Y-62840719D02*
X227893945Y-64432902D01*
%TO.N,Net-(D53-Pad2)*%
X253669944Y-14938470D02*
X253144933Y-15463481D01*
X253669944Y-1424755D02*
X253669944Y-14938470D01*
X254738236Y-356463D02*
X253669944Y-1424755D01*
%TO.N,Net-(D54-Pad2)*%
X247597647Y-35360767D02*
X247074933Y-35883481D01*
X247597647Y-21839341D02*
X247597647Y-35360767D01*
X248665939Y-20771049D02*
X247597647Y-21839341D01*
%TO.N,Net-(D55-Pad2)*%
X259762047Y-42637953D02*
X259762047Y-52988687D01*
X261354230Y-41045770D02*
X259762047Y-42637953D01*
X261354230Y-37877637D02*
X261354230Y-41045770D01*
%TO.N,Net-(D56-Pad2)*%
X246654532Y-61124905D02*
X246654532Y-74643772D01*
X248246715Y-59532722D02*
X246654532Y-61124905D01*
%TO.N,Net-(D57-Pad2)*%
X222211570Y-91826978D02*
X219473481Y-94565067D01*
X246657425Y-85837158D02*
X240667605Y-91826978D01*
X246657425Y-84452575D02*
X246657425Y-85837158D01*
X240667605Y-91826978D02*
X222211570Y-91826978D01*
X249209638Y-81900362D02*
X246657425Y-84452575D01*
X249209638Y-78706809D02*
X249209638Y-81900362D01*
%TO.N,Net-(D58-Pad2)*%
X271906640Y1359351D02*
X271906640Y-12159516D01*
X273498823Y2951534D02*
X271906640Y1359351D01*
%TO.N,Net-(D59-Pad2)*%
X265834933Y-19054645D02*
X265834933Y-32573481D01*
X267426526Y-17463052D02*
X265834933Y-19054645D01*
%TO.N,Net-(D60-Pad2)*%
X279046525Y-49565073D02*
X279064933Y-49583481D01*
X279046525Y-35637932D02*
X279046525Y-49565073D01*
X280114817Y-34569640D02*
X279046525Y-35637932D01*
%TO.N,Net-(D61-Pad2)*%
X265939010Y-70819404D02*
X265434933Y-71323481D01*
X265939010Y-57293017D02*
X265939010Y-70819404D01*
X267007302Y-56224725D02*
X265939010Y-57293017D01*
%TO.N,Net-(D62-Pad2)*%
X272108558Y-84389990D02*
X271063481Y-85435067D01*
X279009773Y-84389990D02*
X272108558Y-84389990D01*
X284178600Y-79221163D02*
X279009773Y-84389990D01*
X284178600Y-77301400D02*
X284178600Y-79221163D01*
X286730813Y-74749187D02*
X284178600Y-77301400D01*
X286730813Y-72090814D02*
X286730813Y-74749187D01*
%TO.N,Net-(D63-Pad2)*%
X290674933Y4675054D02*
X290674933Y-8853481D01*
X292259410Y6259531D02*
X290674933Y4675054D01*
%TO.N,Net-(D64-Pad2)*%
X284594933Y-15747235D02*
X284594933Y-29263481D01*
X286187113Y-14155055D02*
X284594933Y-15747235D01*
%TO.N,Net-(D65-Pad2)*%
X297004933Y-36525067D02*
X297004933Y-46413481D01*
X298875404Y-34654596D02*
X297004933Y-36525067D01*
X298875404Y-31261643D02*
X298875404Y-34654596D01*
%TO.N,Net-(D66-Pad2)*%
X283215676Y-55468941D02*
X283215676Y-66242738D01*
X283215676Y-66242738D02*
X280854933Y-68603481D01*
X285767889Y-52916728D02*
X283215676Y-55468941D01*
%TO.N,Net-(D67-Pad2)*%
X314055270Y-81540000D02*
X304060000Y-81540000D01*
X318282197Y-77313073D02*
X314055270Y-81540000D01*
X318282197Y-74643099D02*
X318282197Y-77313073D01*
X321805296Y-71120000D02*
X318282197Y-74643099D01*
%TO.N,Net-(D68-Pad2)*%
X316694546Y3047000D02*
X316694546Y-9525000D01*
X314661546Y5080000D02*
X316694546Y3047000D01*
%TO.N,Net-(D69-Pad2)*%
X326219546Y-16003000D02*
X326219546Y-28575000D01*
X324186546Y-13970000D02*
X326219546Y-16003000D01*
%TO.N,Net-(D70-Pad2)*%
X303460184Y-56468230D02*
X293554933Y-66373481D01*
X303460184Y-50677023D02*
X303460184Y-56468230D01*
X304528476Y-49608731D02*
X303460184Y-50677023D01*
%TO.N,Net-(D71-Pad2)*%
X337867770Y-81540000D02*
X327860000Y-81540000D01*
X342094697Y-77313073D02*
X337867770Y-81540000D01*
X342094697Y-74643099D02*
X342094697Y-77313073D01*
X345617796Y-71120000D02*
X342094697Y-74643099D01*
%TO.N,Net-(D72-Pad2)*%
X335744546Y3047000D02*
X335744546Y-9525000D01*
X333711546Y5080000D02*
X335744546Y3047000D01*
%TO.N,Net-(D73-Pad2)*%
X345269546Y-16003000D02*
X345269546Y-28575000D01*
X343236546Y-13970000D02*
X345269546Y-16003000D01*
%TO.N,Net-(D74-Pad2)*%
X330982046Y-35053000D02*
X330982046Y-47625000D01*
X328949046Y-33020000D02*
X330982046Y-35053000D01*
%TO.N,Net-(D75-Pad2)*%
X340507046Y-54103000D02*
X340507046Y-66675000D01*
X338474046Y-52070000D02*
X340507046Y-54103000D01*
%TO.N,Net-(D76-Pad2)*%
X365907197Y-77313073D02*
X361680270Y-81540000D01*
X361680270Y-81540000D02*
X351680000Y-81540000D01*
X365907197Y-76143099D02*
X365907197Y-77313073D01*
X369430296Y-72620000D02*
X365907197Y-76143099D01*
X369430296Y-71120000D02*
X369430296Y-72620000D01*
%TO.N,Net-(D77-Pad2)*%
X354794546Y3047000D02*
X354794546Y-9525000D01*
X352761546Y5080000D02*
X354794546Y3047000D01*
%TO.N,Net-(D78-Pad2)*%
X364319546Y-16003000D02*
X364319546Y-28575000D01*
X362286546Y-13970000D02*
X364319546Y-16003000D01*
%TO.N,Net-(D79-Pad2)*%
X350032046Y-35053000D02*
X350032046Y-47625000D01*
X347999046Y-33020000D02*
X350032046Y-35053000D01*
%TO.N,Net-(D80-Pad2)*%
X373840000Y-61242204D02*
X373840000Y-66670000D01*
X364667796Y-52070000D02*
X373840000Y-61242204D01*
%TO.N,Net-(D81-Pad2)*%
X383121520Y-81530000D02*
X375490000Y-81530000D01*
X387338447Y-77313073D02*
X383121520Y-81530000D01*
X387338447Y-74643099D02*
X387338447Y-77313073D01*
X390861546Y-71120000D02*
X387338447Y-74643099D01*
%TO.N,Net-(D82-Pad2)*%
X381570000Y5080000D02*
X394530000Y-7880000D01*
X381336546Y5080000D02*
X381570000Y5080000D01*
%TO.N,Net-(D83-Pad2)*%
X394540000Y-22410954D02*
X394540000Y-26910000D01*
X386099046Y-13970000D02*
X394540000Y-22410954D01*
%TO.N,Net-(D84-Pad2)*%
X381920000Y-33020000D02*
X394540000Y-45640000D01*
X378955296Y-33020000D02*
X381920000Y-33020000D01*
%TO.N,Net-(D85-Pad2)*%
X392894546Y-54103000D02*
X392894546Y-66675000D01*
X390861546Y-52070000D02*
X392894546Y-54103000D01*
%TO.N,Net-(D86-Pad2)*%
X402141520Y-81560000D02*
X394540000Y-81560000D01*
X406388447Y-77313073D02*
X402141520Y-81560000D01*
X406388447Y-76143099D02*
X406388447Y-77313073D01*
X409911546Y-72620000D02*
X406388447Y-76143099D01*
X409911546Y-71120000D02*
X409911546Y-72620000D01*
%TO.N,Net-(D87-Pad2)*%
X413594546Y3210002D02*
X413594546Y-7875000D01*
X417289545Y6905001D02*
X413594546Y3210002D01*
X427136545Y6905001D02*
X417289545Y6905001D01*
X428961546Y5080000D02*
X427136545Y6905001D01*
%TO.N,Net-(D88-Pad2)*%
X418676520Y-26925000D02*
X413594546Y-26925000D01*
X425438447Y-17493099D02*
X425438447Y-20163073D01*
X425438447Y-20163073D02*
X418676520Y-26925000D01*
X428961546Y-13970000D02*
X425438447Y-17493099D01*
%TO.N,Net-(D89-Pad2)*%
X418676520Y-45975000D02*
X413594546Y-45975000D01*
X425438447Y-39213073D02*
X418676520Y-45975000D01*
X425438447Y-38043099D02*
X425438447Y-39213073D01*
X428961546Y-34520000D02*
X425438447Y-38043099D01*
X428961546Y-33020000D02*
X428961546Y-34520000D01*
%TO.N,Net-(D90-Pad2)*%
X411944546Y-54103000D02*
X411944546Y-66675000D01*
X409911546Y-52070000D02*
X411944546Y-54103000D01*
%TO.N,Net-(D91-Pad2)*%
X421191520Y-81560000D02*
X413590000Y-81560000D01*
X425438447Y-77313073D02*
X421191520Y-81560000D01*
X425438447Y-74643099D02*
X425438447Y-77313073D01*
X428961546Y-71120000D02*
X425438447Y-74643099D01*
%TO.N,Col0*%
X-7085000Y2540000D02*
X-7085000Y-16510000D01*
X-7085000Y-16510000D02*
X-7085000Y-35560000D01*
X-7085000Y-35560000D02*
X-7085000Y-54610000D01*
X205500000Y8630000D02*
X202110009Y12019991D01*
X2394991Y12019991D02*
X-7085000Y2540000D01*
X202110009Y12019991D02*
X2394991Y12019991D01*
X-129974Y-73660000D02*
X2440000Y-73660000D01*
X-7085000Y-66704974D02*
X-129974Y-73660000D01*
X-7085000Y-65515000D02*
X-7085000Y-66704974D01*
X-7085000Y-54610000D02*
X-7085000Y-65515000D01*
X-7085000Y-65515000D02*
X-7085000Y-73660000D01*
%TO.N,Col1*%
X11965000Y2540000D02*
X11965000Y-16510000D01*
X11965000Y-16510000D02*
X11965000Y-35560000D01*
X11965000Y-35560000D02*
X11965000Y-54610000D01*
X205500000Y6090000D02*
X200020019Y11569981D01*
X20994981Y11569981D02*
X11965000Y2540000D01*
X200020019Y11569981D02*
X20994981Y11569981D01*
X10239999Y-71996001D02*
X10239999Y-70290001D01*
X10239999Y-70290001D02*
X11965000Y-68565000D01*
X11188999Y-72945001D02*
X10239999Y-71996001D01*
X11775001Y-72945001D02*
X11188999Y-72945001D01*
X11965000Y-73135000D02*
X11775001Y-72945001D01*
X11965000Y-73660000D02*
X11965000Y-73135000D01*
X11965000Y-54610000D02*
X11965000Y-68565000D01*
%TO.N,Col2*%
X31015000Y-10370002D02*
X31015000Y-16510000D01*
X31015000Y2540000D02*
X31015000Y-10370002D01*
X31015000Y-29420002D02*
X31015000Y-35560000D01*
X31015000Y-16510000D02*
X31015000Y-29420002D01*
X31015000Y-35560000D02*
X31015000Y-54610000D01*
X31015000Y-54610000D02*
X31015000Y-73660000D01*
X205500000Y-1530000D02*
X192940000Y11030000D01*
X39505000Y11030000D02*
X31015000Y2540000D01*
X192940000Y11030000D02*
X39505000Y11030000D01*
%TO.N,Col3*%
X48315999Y790999D02*
X48315999Y-25354001D01*
X50065000Y2540000D02*
X48315999Y790999D01*
X48315999Y-25354001D02*
X52330000Y-29368002D01*
X52330000Y-33380000D02*
X54610000Y-35660000D01*
X52330000Y-29368002D02*
X52330000Y-33380000D01*
X76158750Y-73760000D02*
X76258750Y-73660000D01*
X54610000Y-73760000D02*
X76158750Y-73760000D01*
X54610000Y-53028522D02*
X54610000Y-35660000D01*
X50244999Y-57393523D02*
X54610000Y-53028522D01*
X50244999Y-70894999D02*
X50244999Y-57393523D01*
X53110000Y-73760000D02*
X50244999Y-70894999D01*
X54610000Y-73760000D02*
X53110000Y-73760000D01*
X205500000Y-4070000D02*
X190850010Y10579990D01*
X58104990Y10579990D02*
X50065000Y2540000D01*
X190850010Y10579990D02*
X58104990Y10579990D01*
%TO.N,Col4*%
X73877500Y-11747500D02*
X78640000Y-16510000D01*
X73877500Y2540000D02*
X73877500Y-11747500D01*
X78640000Y-33178750D02*
X81021250Y-35560000D01*
X78640000Y-16510000D02*
X78640000Y-33178750D01*
X85783750Y-52281478D02*
X85783750Y-54610000D01*
X81021250Y-47518978D02*
X85783750Y-52281478D01*
X81021250Y-35560000D02*
X81021250Y-47518978D01*
X85783750Y-59372500D02*
X100071250Y-73660000D01*
X85783750Y-54610000D02*
X85783750Y-59372500D01*
X204298699Y-5408699D02*
X204298699Y-3505109D01*
X205500000Y-6610000D02*
X204298699Y-5408699D01*
X81100001Y9762501D02*
X73877500Y2540000D01*
X191031089Y9762501D02*
X81100001Y9762501D01*
X204298699Y-3505109D02*
X191031089Y9762501D01*
%TO.N,Col5*%
X92927500Y-6985000D02*
X102452500Y-16510000D01*
X92927500Y2540000D02*
X92927500Y-6985000D01*
X107215000Y-34195002D02*
X107215000Y-35560000D01*
X102452500Y-29432502D02*
X107215000Y-34195002D01*
X102452500Y-16510000D02*
X102452500Y-29432502D01*
X107215000Y-45085000D02*
X116740000Y-54610000D01*
X107215000Y-35560000D02*
X107215000Y-45085000D01*
X97292501Y6905001D02*
X92927500Y2540000D01*
X110469999Y6905001D02*
X97292501Y6905001D01*
X111977500Y5397500D02*
X110469999Y6905001D01*
%TO.N,Col6*%
X137984456Y-71118463D02*
X134577219Y-74525700D01*
X137984456Y-55202295D02*
X137984456Y-71118463D01*
X128629057Y-45846896D02*
X137984456Y-55202295D01*
X128629057Y-34208811D02*
X128629057Y-45846896D01*
X124901834Y-30481588D02*
X128629057Y-34208811D01*
X124901834Y-14207725D02*
X124901834Y-30481588D01*
X127634999Y-11474560D02*
X124901834Y-14207725D01*
X127634999Y-1539117D02*
X127634999Y-11474560D01*
X132899978Y3725862D02*
X127634999Y-1539117D01*
%TO.N,Col7*%
X143662421Y-33789585D02*
X147389644Y-37516808D01*
X143662421Y-17515722D02*
X143662421Y-33789585D01*
X156745043Y-57592610D02*
X156745043Y-58510292D01*
X147389644Y-48237211D02*
X156745043Y-57592610D01*
X147389644Y-37516808D02*
X147389644Y-48237211D01*
X151660565Y-9908523D02*
X144053366Y-17515722D01*
X144053366Y-17515722D02*
X143662421Y-17515722D01*
X151660565Y417865D02*
X151660565Y-9908523D01*
%TO.N,Col8*%
X162825369Y-20823719D02*
X162423008Y-20823719D01*
X170421152Y-13227936D02*
X162825369Y-20823719D01*
X170421152Y-2890132D02*
X170421152Y-13227936D01*
X162423008Y-37097582D02*
X166150231Y-40824805D01*
X175505630Y-60900607D02*
X175505630Y-61818289D01*
X166150231Y-51545208D02*
X175505630Y-60900607D01*
X166150231Y-40824805D02*
X166150231Y-51545208D01*
X171742571Y-75516794D02*
X167507487Y-79751878D01*
X171742571Y-65581348D02*
X171742571Y-75516794D01*
X175505630Y-61818289D02*
X171742571Y-65581348D01*
X162423008Y-30433008D02*
X162423008Y-37097582D01*
X162423008Y-20823719D02*
X162423008Y-30433008D01*
%TO.N,Col9*%
X194266217Y-68218390D02*
X194266217Y-65126286D01*
X197562571Y-84696503D02*
X197562571Y-71514744D01*
X197562571Y-71514744D02*
X194266217Y-68218390D01*
X197993442Y-85127374D02*
X197562571Y-84696503D01*
X181183595Y-40405579D02*
X184910818Y-44132802D01*
X181183595Y-24131716D02*
X181183595Y-40405579D01*
X181183595Y-20702589D02*
X181183595Y-24131716D01*
X189181739Y-12704445D02*
X181183595Y-20702589D01*
X189181739Y-6198129D02*
X189181739Y-12704445D01*
X194266217Y-64208604D02*
X194266217Y-65126286D01*
X184910818Y-54853205D02*
X194266217Y-64208604D01*
X184910818Y-44132802D02*
X184910818Y-54853205D01*
X183838644Y-21476667D02*
X181183595Y-24131716D01*
X203561933Y-21476667D02*
X183838644Y-21476667D01*
X205728600Y-19310000D02*
X203561933Y-21476667D01*
%TO.N,Col10*%
X223688106Y-22752911D02*
X217615809Y-28825208D01*
X223688106Y-8410622D02*
X223688106Y-22752911D01*
X229009431Y-45931796D02*
X230304100Y-45931796D01*
X217615809Y-34538174D02*
X229009431Y-45931796D01*
X217615809Y-28825208D02*
X217615809Y-34538174D01*
X230304100Y-54479366D02*
X217196585Y-67586881D01*
X230304100Y-45931796D02*
X230304100Y-54479366D01*
X220740000Y-25701017D02*
X217615809Y-28825208D01*
X220740000Y-19310000D02*
X220740000Y-25701017D01*
%TO.N,Col11*%
X235957172Y-82490048D02*
X236920095Y-83452971D01*
X235957172Y-64278884D02*
X235957172Y-82490048D01*
X235957172Y-62860702D02*
X235957172Y-64278884D01*
X249064687Y-49753187D02*
X235957172Y-62860702D01*
X249064687Y-42623799D02*
X249064687Y-49753187D01*
X236376396Y-30475484D02*
X248524711Y-42623799D01*
X248524711Y-42623799D02*
X249064687Y-42623799D01*
X242448693Y-19444914D02*
X236376396Y-25517211D01*
X242448693Y-5102625D02*
X242448693Y-19444914D01*
X236376396Y-28503604D02*
X236376396Y-30475484D01*
X236376396Y-25517211D02*
X236376396Y-28503604D01*
%TO.N,Col12*%
X261209280Y-16136917D02*
X255136983Y-22209214D01*
X261209280Y-1794628D02*
X261209280Y-16136917D01*
X267286714Y-39315802D02*
X267825274Y-39315802D01*
X255136983Y-22209214D02*
X255136983Y-27166071D01*
X269070205Y-76836976D02*
X274441270Y-76836976D01*
X254717759Y-62484530D02*
X269070205Y-76836976D01*
X254717759Y-60970887D02*
X254717759Y-62484530D01*
X254717759Y-59552705D02*
X254717759Y-60970887D01*
X267825274Y-46445190D02*
X254717759Y-59552705D01*
X267825274Y-39315802D02*
X267825274Y-46445190D01*
X258405456Y-30434544D02*
X267286714Y-39315802D01*
X255136983Y-27166071D02*
X258405456Y-30434544D01*
%TO.N,Col13*%
X279969867Y-12828920D02*
X273897570Y-18901217D01*
X279969867Y1513369D02*
X279969867Y-12828920D01*
X284503599Y-36007805D02*
X286585861Y-36007805D01*
X273897570Y-25401776D02*
X284503599Y-36007805D01*
X273897570Y-18901217D02*
X273897570Y-25401776D01*
X286585861Y-44555375D02*
X273478346Y-57662890D01*
X286585861Y-36007805D02*
X286585861Y-44555375D01*
X287565589Y-45535103D02*
X286585861Y-44555375D01*
X299373816Y-73660000D02*
X287565589Y-61851773D01*
X287565589Y-61851773D02*
X287565589Y-45535103D01*
X308878296Y-73660000D02*
X299373816Y-73660000D01*
%TO.N,Col14*%
X311259546Y-35334280D02*
X311259546Y-16510000D01*
X292238933Y-54354893D02*
X311259546Y-35334280D01*
X311259546Y-52228750D02*
X311259546Y-35334280D01*
X332690796Y-73660000D02*
X311259546Y-52228750D01*
X301734546Y-6985000D02*
X311259546Y-16510000D01*
X301734546Y2540000D02*
X301734546Y-6985000D01*
%TO.N,Col15*%
X320784546Y-6985000D02*
X330309546Y-16510000D01*
X320784546Y2540000D02*
X320784546Y-6985000D01*
X352138295Y-69294999D02*
X356503296Y-73660000D01*
X337921043Y-69294999D02*
X352138295Y-69294999D01*
X325547046Y-56921002D02*
X337921043Y-69294999D01*
X325547046Y-54610000D02*
X325547046Y-56921002D01*
X320387047Y-31194999D02*
X316022046Y-35560000D01*
X325234549Y-31194999D02*
X320387047Y-31194999D01*
X330309546Y-26120002D02*
X325234549Y-31194999D01*
X330309546Y-16510000D02*
X330309546Y-26120002D01*
X316022046Y-45085000D02*
X325547046Y-54610000D01*
X316022046Y-35560000D02*
X316022046Y-45085000D01*
%TO.N,Col16*%
X339834546Y-6985000D02*
X349359546Y-16510000D01*
X339834546Y2540000D02*
X339834546Y-6985000D01*
X373569545Y-69294999D02*
X377934546Y-73660000D01*
X364114793Y-69294999D02*
X373569545Y-69294999D01*
X351740796Y-56921002D02*
X364114793Y-69294999D01*
X351740796Y-54610000D02*
X351740796Y-56921002D01*
X335072046Y-37941250D02*
X351740796Y-54610000D01*
X335072046Y-35560000D02*
X335072046Y-37941250D01*
X339437047Y-31194999D02*
X335072046Y-35560000D01*
X344284549Y-31194999D02*
X339437047Y-31194999D01*
X349359546Y-26120002D02*
X344284549Y-31194999D01*
X349359546Y-16510000D02*
X349359546Y-26120002D01*
X220740000Y-4070000D02*
X235860000Y11050000D01*
X331324546Y11050000D02*
X339834546Y2540000D01*
X235860000Y11050000D02*
X331324546Y11050000D01*
%TO.N,Col17*%
X368409546Y-11747500D02*
X373172046Y-16510000D01*
X368409546Y2540000D02*
X368409546Y-11747500D01*
X392869545Y-69544999D02*
X396984546Y-73660000D01*
X390558543Y-69544999D02*
X392869545Y-69544999D01*
X377934546Y-56921002D02*
X390558543Y-69544999D01*
X377934546Y-54610000D02*
X377934546Y-56921002D01*
X373172046Y-28416250D02*
X366028296Y-35560000D01*
X373172046Y-16510000D02*
X373172046Y-28416250D01*
X366028296Y-42703750D02*
X377934546Y-54610000D01*
X366028296Y-35560000D02*
X366028296Y-42703750D01*
X220740000Y-1530000D02*
X233839980Y11569980D01*
X368409546Y4868522D02*
X368409546Y2540000D01*
X361708088Y11569980D02*
X368409546Y4868522D01*
X233839980Y11569980D02*
X361708088Y11569980D01*
%TO.N,Col18*%
X416034546Y2540000D02*
X416034546Y-16510000D01*
X412669545Y-32194999D02*
X416034546Y-35560000D01*
X412669545Y-19875001D02*
X412669545Y-32194999D01*
X416034546Y-16510000D02*
X412669545Y-19875001D01*
X411919545Y-69544999D02*
X416034546Y-73660000D01*
X409608543Y-69544999D02*
X411919545Y-69544999D01*
X396984546Y-56921002D02*
X409608543Y-69544999D01*
X396984546Y-54610000D02*
X396984546Y-56921002D01*
X416034546Y-35560000D02*
X396984546Y-54610000D01*
X220740000Y8630000D02*
X224129990Y12019990D01*
X387504556Y12019990D02*
X416034546Y-16510000D01*
X224129990Y12019990D02*
X387504556Y12019990D01*
%TD*%
M02*
