%TF.GenerationSoftware,KiCad,Pcbnew,(5.1.10)-1*%
%TF.CreationDate,2021-07-27T21:23:13-07:00*%
%TF.ProjectId,V2,56322e6b-6963-4616-945f-706362585858,rev?*%
%TF.SameCoordinates,Original*%
%TF.FileFunction,Paste,Bot*%
%TF.FilePolarity,Positive*%
%FSLAX46Y46*%
G04 Gerber Fmt 4.6, Leading zero omitted, Abs format (unit mm)*
G04 Created by KiCad (PCBNEW (5.1.10)-1) date 2021-07-27 21:23:13*
%MOMM*%
%LPD*%
G01*
G04 APERTURE LIST*
%ADD10R,2.550000X2.500000*%
%ADD11C,0.100000*%
%ADD12R,2.500000X2.550000*%
%ADD13R,1.200000X0.900000*%
%ADD14R,0.900000X1.200000*%
G04 APERTURE END LIST*
D10*
%TO.C,MX92*%
X15367000Y-71120000D03*
X2440000Y-73660000D03*
%TD*%
D11*
%TO.C,MX53*%
G36*
X253699666Y-1808874D02*
G01*
X253265546Y653145D01*
X255776806Y1095948D01*
X256210926Y-1366071D01*
X253699666Y-1808874D01*
G37*
G36*
X241410123Y-6555036D02*
G01*
X240976003Y-4093017D01*
X243487263Y-3650214D01*
X243921383Y-6112233D01*
X241410123Y-6555036D01*
G37*
%TD*%
D10*
%TO.C,MX91*%
X428961546Y-71120000D03*
X416034546Y-73660000D03*
%TD*%
%TO.C,MX90*%
X409911546Y-52070000D03*
X396984546Y-54610000D03*
%TD*%
%TO.C,MX89*%
X428961546Y-33020000D03*
X416034546Y-35560000D03*
%TD*%
%TO.C,MX88*%
X428961546Y-13970000D03*
X416034546Y-16510000D03*
%TD*%
%TO.C,MX87*%
X428961546Y5080000D03*
X416034546Y2540000D03*
%TD*%
%TO.C,MX86*%
X409911546Y-71120000D03*
X396984546Y-73660000D03*
%TD*%
%TO.C,MX85*%
X390861546Y-52070000D03*
X377934546Y-54610000D03*
%TD*%
%TO.C,MX84*%
X378955296Y-33020000D03*
X366028296Y-35560000D03*
%TD*%
%TO.C,MX83*%
X386099046Y-13970000D03*
X373172046Y-16510000D03*
%TD*%
%TO.C,MX82*%
X381336546Y5080000D03*
X368409546Y2540000D03*
%TD*%
%TO.C,MX81*%
X390861546Y-71120000D03*
X377934546Y-73660000D03*
%TD*%
%TO.C,MX80*%
X364667796Y-52070000D03*
X351740796Y-54610000D03*
%TD*%
%TO.C,MX79*%
X347999046Y-33020000D03*
X335072046Y-35560000D03*
%TD*%
%TO.C,MX78*%
X362286546Y-13970000D03*
X349359546Y-16510000D03*
%TD*%
%TO.C,MX77*%
X352761546Y5080000D03*
X339834546Y2540000D03*
%TD*%
%TO.C,MX76*%
X369430296Y-71120000D03*
X356503296Y-73660000D03*
%TD*%
%TO.C,MX75*%
X338474046Y-52070000D03*
X325547046Y-54610000D03*
%TD*%
%TO.C,MX74*%
X328949046Y-33020000D03*
X316022046Y-35560000D03*
%TD*%
%TO.C,MX73*%
X343236546Y-13970000D03*
X330309546Y-16510000D03*
%TD*%
%TO.C,MX72*%
X333711546Y5080000D03*
X320784546Y2540000D03*
%TD*%
%TO.C,MX71*%
X345617796Y-71120000D03*
X332690796Y-73660000D03*
%TD*%
D11*
%TO.C,MX70*%
G36*
X303489906Y-51061142D02*
G01*
X303055786Y-48599123D01*
X305567046Y-48156320D01*
X306001166Y-50618339D01*
X303489906Y-51061142D01*
G37*
G36*
X291200363Y-55807304D02*
G01*
X290766243Y-53345285D01*
X293277503Y-52902482D01*
X293711623Y-55364501D01*
X291200363Y-55807304D01*
G37*
%TD*%
D10*
%TO.C,MX69*%
X324186546Y-13970000D03*
X311259546Y-16510000D03*
%TD*%
%TO.C,MX68*%
X314661546Y5080000D03*
X301734546Y2540000D03*
%TD*%
%TO.C,MX67*%
X321805296Y-71120000D03*
X308878296Y-73660000D03*
%TD*%
D11*
%TO.C,MX66*%
G36*
X284729319Y-54369139D02*
G01*
X284295199Y-51907120D01*
X286806459Y-51464317D01*
X287240579Y-53926336D01*
X284729319Y-54369139D01*
G37*
G36*
X272439776Y-59115301D02*
G01*
X272005656Y-56653282D01*
X274516916Y-56210479D01*
X274951036Y-58672498D01*
X272439776Y-59115301D01*
G37*
%TD*%
%TO.C,MX65*%
G36*
X297836834Y-32714054D02*
G01*
X297402714Y-30252035D01*
X299913974Y-29809232D01*
X300348094Y-32271251D01*
X297836834Y-32714054D01*
G37*
G36*
X285547291Y-37460216D02*
G01*
X285113171Y-34998197D01*
X287624431Y-34555394D01*
X288058551Y-37017413D01*
X285547291Y-37460216D01*
G37*
%TD*%
%TO.C,MX64*%
G36*
X285148543Y-15607466D02*
G01*
X284714423Y-13145447D01*
X287225683Y-12702644D01*
X287659803Y-15164663D01*
X285148543Y-15607466D01*
G37*
G36*
X272859000Y-20353628D02*
G01*
X272424880Y-17891609D01*
X274936140Y-17448806D01*
X275370260Y-19910825D01*
X272859000Y-20353628D01*
G37*
%TD*%
%TO.C,MX63*%
G36*
X291220840Y4807120D02*
G01*
X290786720Y7269139D01*
X293297980Y7711942D01*
X293732100Y5249923D01*
X291220840Y4807120D01*
G37*
G36*
X278931297Y60958D02*
G01*
X278497177Y2522977D01*
X281008437Y2965780D01*
X281442557Y503761D01*
X278931297Y60958D01*
G37*
%TD*%
%TO.C,MX62*%
G36*
X285692243Y-73543225D02*
G01*
X285258123Y-71081206D01*
X287769383Y-70638403D01*
X288203503Y-73100422D01*
X285692243Y-73543225D01*
G37*
G36*
X273402700Y-78289387D02*
G01*
X272968580Y-75827368D01*
X275479840Y-75384565D01*
X275913960Y-77846584D01*
X273402700Y-78289387D01*
G37*
%TD*%
%TO.C,MX61*%
G36*
X265968732Y-57677136D02*
G01*
X265534612Y-55215117D01*
X268045872Y-54772314D01*
X268479992Y-57234333D01*
X265968732Y-57677136D01*
G37*
G36*
X253679189Y-62423298D02*
G01*
X253245069Y-59961279D01*
X255756329Y-59518476D01*
X256190449Y-61980495D01*
X253679189Y-62423298D01*
G37*
%TD*%
%TO.C,MX60*%
G36*
X279076247Y-36022051D02*
G01*
X278642127Y-33560032D01*
X281153387Y-33117229D01*
X281587507Y-35579248D01*
X279076247Y-36022051D01*
G37*
G36*
X266786704Y-40768213D02*
G01*
X266352584Y-38306194D01*
X268863844Y-37863391D01*
X269297964Y-40325410D01*
X266786704Y-40768213D01*
G37*
%TD*%
%TO.C,MX59*%
G36*
X266387956Y-18915463D02*
G01*
X265953836Y-16453444D01*
X268465096Y-16010641D01*
X268899216Y-18472660D01*
X266387956Y-18915463D01*
G37*
G36*
X254098413Y-23661625D02*
G01*
X253664293Y-21199606D01*
X256175553Y-20756803D01*
X256609673Y-23218822D01*
X254098413Y-23661625D01*
G37*
%TD*%
%TO.C,MX58*%
G36*
X272460253Y1499123D02*
G01*
X272026133Y3961142D01*
X274537393Y4403945D01*
X274971513Y1941926D01*
X272460253Y1499123D01*
G37*
G36*
X260170710Y-3247039D02*
G01*
X259736590Y-785020D01*
X262247850Y-342217D01*
X262681970Y-2804236D01*
X260170710Y-3247039D01*
G37*
%TD*%
%TO.C,MX57*%
G36*
X248171068Y-80159220D02*
G01*
X247736948Y-77697201D01*
X250248208Y-77254398D01*
X250682328Y-79716417D01*
X248171068Y-80159220D01*
G37*
G36*
X235881525Y-84905382D02*
G01*
X235447405Y-82443363D01*
X237958665Y-82000560D01*
X238392785Y-84462579D01*
X235881525Y-84905382D01*
G37*
%TD*%
%TO.C,MX56*%
G36*
X247208145Y-60985133D02*
G01*
X246774025Y-58523114D01*
X249285285Y-58080311D01*
X249719405Y-60542330D01*
X247208145Y-60985133D01*
G37*
G36*
X234918602Y-65731295D02*
G01*
X234484482Y-63269276D01*
X236995742Y-62826473D01*
X237429862Y-65288492D01*
X234918602Y-65731295D01*
G37*
%TD*%
%TO.C,MX55*%
G36*
X260315660Y-39330048D02*
G01*
X259881540Y-36868029D01*
X262392800Y-36425226D01*
X262826920Y-38887245D01*
X260315660Y-39330048D01*
G37*
G36*
X248026117Y-44076210D02*
G01*
X247591997Y-41614191D01*
X250103257Y-41171388D01*
X250537377Y-43633407D01*
X248026117Y-44076210D01*
G37*
%TD*%
%TO.C,MX54*%
G36*
X247627369Y-22223460D02*
G01*
X247193249Y-19761441D01*
X249704509Y-19318638D01*
X250138629Y-21780657D01*
X247627369Y-22223460D01*
G37*
G36*
X235337826Y-26969622D02*
G01*
X234903706Y-24507603D01*
X237414966Y-24064800D01*
X237849086Y-26526819D01*
X235337826Y-26969622D01*
G37*
%TD*%
%TO.C,MX52*%
G36*
X228447558Y-64293130D02*
G01*
X228013438Y-61831111D01*
X230524698Y-61388308D01*
X230958818Y-63850327D01*
X228447558Y-64293130D01*
G37*
G36*
X216158015Y-69039292D02*
G01*
X215723895Y-66577273D01*
X218235155Y-66134470D01*
X218669275Y-68596489D01*
X216158015Y-69039292D01*
G37*
%TD*%
%TO.C,MX51*%
G36*
X241555073Y-42638045D02*
G01*
X241120953Y-40176026D01*
X243632213Y-39733223D01*
X244066333Y-42195242D01*
X241555073Y-42638045D01*
G37*
G36*
X229265530Y-47384207D02*
G01*
X228831410Y-44922188D01*
X231342670Y-44479385D01*
X231776790Y-46941404D01*
X229265530Y-47384207D01*
G37*
%TD*%
%TO.C,MX50*%
G36*
X228866782Y-25531457D02*
G01*
X228432662Y-23069438D01*
X230943922Y-22626635D01*
X231378042Y-25088654D01*
X228866782Y-25531457D01*
G37*
G36*
X216577239Y-30277619D02*
G01*
X216143119Y-27815600D01*
X218654379Y-27372797D01*
X219088499Y-29834816D01*
X216577239Y-30277619D01*
G37*
%TD*%
%TO.C,MX49*%
G36*
X234939079Y-5116871D02*
G01*
X234504959Y-2654852D01*
X237016219Y-2212049D01*
X237450339Y-4674068D01*
X234939079Y-5116871D01*
G37*
G36*
X222649536Y-9863033D02*
G01*
X222215416Y-7401014D01*
X224726676Y-6958211D01*
X225160796Y-9420230D01*
X222649536Y-9863033D01*
G37*
%TD*%
%TO.C,MX48*%
G36*
X209692429Y-85880320D02*
G01*
X210126549Y-83418301D01*
X212637809Y-83861104D01*
X212203689Y-86323123D01*
X209692429Y-85880320D01*
G37*
G36*
X196520752Y-86136982D02*
G01*
X196954872Y-83674963D01*
X199466132Y-84117766D01*
X199032012Y-86579785D01*
X196520752Y-86136982D01*
G37*
%TD*%
%TO.C,MX47*%
G36*
X205965204Y-65879232D02*
G01*
X206399324Y-63417213D01*
X208910584Y-63860016D01*
X208476464Y-66322035D01*
X205965204Y-65879232D01*
G37*
G36*
X192793527Y-66135894D02*
G01*
X193227647Y-63673875D01*
X195738907Y-64116678D01*
X195304787Y-66578697D01*
X192793527Y-66135894D01*
G37*
%TD*%
%TO.C,MX46*%
G36*
X196609805Y-44885748D02*
G01*
X197043925Y-42423729D01*
X199555185Y-42866532D01*
X199121065Y-45328551D01*
X196609805Y-44885748D01*
G37*
G36*
X183438128Y-45142410D02*
G01*
X183872248Y-42680391D01*
X186383508Y-43123194D01*
X185949388Y-45585213D01*
X183438128Y-45142410D01*
G37*
%TD*%
%TO.C,MX45*%
G36*
X192882582Y-24884662D02*
G01*
X193316702Y-22422643D01*
X195827962Y-22865446D01*
X195393842Y-25327465D01*
X192882582Y-24884662D01*
G37*
G36*
X179710905Y-25141324D02*
G01*
X180145025Y-22679305D01*
X182656285Y-23122108D01*
X182222165Y-25584127D01*
X179710905Y-25141324D01*
G37*
%TD*%
%TO.C,MX44*%
G36*
X200880726Y-6951075D02*
G01*
X201314846Y-4489056D01*
X203826106Y-4931859D01*
X203391986Y-7393878D01*
X200880726Y-6951075D01*
G37*
G36*
X187709049Y-7207737D02*
G01*
X188143169Y-4745718D01*
X190654429Y-5188521D01*
X190220309Y-7650540D01*
X187709049Y-7207737D01*
G37*
%TD*%
%TO.C,MX43*%
G36*
X179206474Y-80504824D02*
G01*
X179640594Y-78042805D01*
X182151854Y-78485608D01*
X181717734Y-80947627D01*
X179206474Y-80504824D01*
G37*
G36*
X166034797Y-80761486D02*
G01*
X166468917Y-78299467D01*
X168980177Y-78742270D01*
X168546057Y-81204289D01*
X166034797Y-80761486D01*
G37*
%TD*%
%TO.C,MX42*%
G36*
X187204617Y-62571235D02*
G01*
X187638737Y-60109216D01*
X190149997Y-60552019D01*
X189715877Y-63014038D01*
X187204617Y-62571235D01*
G37*
G36*
X174032940Y-62827897D02*
G01*
X174467060Y-60365878D01*
X176978320Y-60808681D01*
X176544200Y-63270700D01*
X174032940Y-62827897D01*
G37*
%TD*%
%TO.C,MX41*%
G36*
X177849218Y-41577751D02*
G01*
X178283338Y-39115732D01*
X180794598Y-39558535D01*
X180360478Y-42020554D01*
X177849218Y-41577751D01*
G37*
G36*
X164677541Y-41834413D02*
G01*
X165111661Y-39372394D01*
X167622921Y-39815197D01*
X167188801Y-42277216D01*
X164677541Y-41834413D01*
G37*
%TD*%
%TO.C,MX40*%
G36*
X174121995Y-21576665D02*
G01*
X174556115Y-19114646D01*
X177067375Y-19557449D01*
X176633255Y-22019468D01*
X174121995Y-21576665D01*
G37*
G36*
X160950318Y-21833327D02*
G01*
X161384438Y-19371308D01*
X163895698Y-19814111D01*
X163461578Y-22276130D01*
X160950318Y-21833327D01*
G37*
%TD*%
%TO.C,MX39*%
G36*
X182120139Y-3643078D02*
G01*
X182554259Y-1181059D01*
X185065519Y-1623862D01*
X184631399Y-4085881D01*
X182120139Y-3643078D01*
G37*
G36*
X168948462Y-3899740D02*
G01*
X169382582Y-1437721D01*
X171893842Y-1880524D01*
X171459722Y-4342543D01*
X168948462Y-3899740D01*
G37*
%TD*%
%TO.C,MX38*%
G36*
X168444030Y-59263238D02*
G01*
X168878150Y-56801219D01*
X171389410Y-57244022D01*
X170955290Y-59706041D01*
X168444030Y-59263238D01*
G37*
G36*
X155272353Y-59519900D02*
G01*
X155706473Y-57057881D01*
X158217733Y-57500684D01*
X157783613Y-59962703D01*
X155272353Y-59519900D01*
G37*
%TD*%
%TO.C,MX37*%
G36*
X159088631Y-38269754D02*
G01*
X159522751Y-35807735D01*
X162034011Y-36250538D01*
X161599891Y-38712557D01*
X159088631Y-38269754D01*
G37*
G36*
X145916954Y-38526416D02*
G01*
X146351074Y-36064397D01*
X148862334Y-36507200D01*
X148428214Y-38969219D01*
X145916954Y-38526416D01*
G37*
%TD*%
%TO.C,MX36*%
G36*
X155361408Y-18268668D02*
G01*
X155795528Y-15806649D01*
X158306788Y-16249452D01*
X157872668Y-18711471D01*
X155361408Y-18268668D01*
G37*
G36*
X142189731Y-18525330D02*
G01*
X142623851Y-16063311D01*
X145135111Y-16506114D01*
X144700991Y-18968133D01*
X142189731Y-18525330D01*
G37*
%TD*%
%TO.C,MX35*%
G36*
X163359552Y-335081D02*
G01*
X163793672Y2126938D01*
X166304932Y1684135D01*
X165870812Y-777884D01*
X163359552Y-335081D01*
G37*
G36*
X150187875Y-591743D02*
G01*
X150621995Y1870276D01*
X153133255Y1427473D01*
X152699135Y-1034546D01*
X150187875Y-591743D01*
G37*
%TD*%
%TO.C,MX34*%
G36*
X146276206Y-75278646D02*
G01*
X146710326Y-72816627D01*
X149221586Y-73259430D01*
X148787466Y-75721449D01*
X146276206Y-75278646D01*
G37*
G36*
X133104529Y-75535308D02*
G01*
X133538649Y-73073289D01*
X136049909Y-73516092D01*
X135615789Y-75978111D01*
X133104529Y-75535308D01*
G37*
%TD*%
%TO.C,MX33*%
G36*
X149683443Y-55955241D02*
G01*
X150117563Y-53493222D01*
X152628823Y-53936025D01*
X152194703Y-56398044D01*
X149683443Y-55955241D01*
G37*
G36*
X136511766Y-56211903D02*
G01*
X136945886Y-53749884D01*
X139457146Y-54192687D01*
X139023026Y-56654706D01*
X136511766Y-56211903D01*
G37*
%TD*%
%TO.C,MX32*%
G36*
X140328044Y-34961757D02*
G01*
X140762164Y-32499738D01*
X143273424Y-32942541D01*
X142839304Y-35404560D01*
X140328044Y-34961757D01*
G37*
G36*
X127156367Y-35218419D02*
G01*
X127590487Y-32756400D01*
X130101747Y-33199203D01*
X129667627Y-35661222D01*
X127156367Y-35218419D01*
G37*
%TD*%
%TO.C,MX31*%
G36*
X136600821Y-14960671D02*
G01*
X137034941Y-12498652D01*
X139546201Y-12941455D01*
X139112081Y-15403474D01*
X136600821Y-14960671D01*
G37*
G36*
X123429144Y-15217333D02*
G01*
X123863264Y-12755314D01*
X126374524Y-13198117D01*
X125940404Y-15660136D01*
X123429144Y-15217333D01*
G37*
%TD*%
%TO.C,MX30*%
G36*
X144598965Y2972916D02*
G01*
X145033085Y5434935D01*
X147544345Y4992132D01*
X147110225Y2530113D01*
X144598965Y2972916D01*
G37*
G36*
X131427288Y2716254D02*
G01*
X131861408Y5178273D01*
X134372668Y4735470D01*
X133938548Y2273451D01*
X131427288Y2716254D01*
G37*
%TD*%
D10*
%TO.C,MX29*%
X129667000Y-52070000D03*
X116740000Y-54610000D03*
%TD*%
%TO.C,MX28*%
X120142000Y-33020000D03*
X107215000Y-35560000D03*
%TD*%
%TO.C,MX27*%
X115379500Y-13970000D03*
X102452500Y-16510000D03*
%TD*%
%TO.C,MX26*%
X124904500Y7937500D03*
X111977500Y5397500D03*
%TD*%
%TO.C,MX25*%
X105854500Y5080000D03*
X92927500Y2540000D03*
%TD*%
%TO.C,MX24*%
X112998250Y-71120000D03*
X100071250Y-73660000D03*
%TD*%
%TO.C,MX23*%
X98710750Y-52070000D03*
X85783750Y-54610000D03*
%TD*%
%TO.C,MX22*%
X93948250Y-33020000D03*
X81021250Y-35560000D03*
%TD*%
%TO.C,MX21*%
X91567000Y-13970000D03*
X78640000Y-16510000D03*
%TD*%
%TO.C,MX20*%
X86804500Y5080000D03*
X73877500Y2540000D03*
%TD*%
%TO.C,MX19*%
X89185750Y-71120000D03*
X76258750Y-73660000D03*
%TD*%
D12*
%TO.C,MX18*%
X52070000Y-60833000D03*
X54610000Y-73760000D03*
%TD*%
%TO.C,MX17*%
X52070000Y-22733000D03*
X54610000Y-35660000D03*
%TD*%
D10*
%TO.C,MX16*%
X62992000Y5080000D03*
X50065000Y2540000D03*
%TD*%
%TO.C,MX15*%
X43942000Y-71120000D03*
X31015000Y-73660000D03*
%TD*%
%TO.C,MX14*%
X43942000Y-52070000D03*
X31015000Y-54610000D03*
%TD*%
%TO.C,MX13*%
X43942000Y-33020000D03*
X31015000Y-35560000D03*
%TD*%
%TO.C,MX12*%
X43942000Y-13970000D03*
X31015000Y-16510000D03*
%TD*%
%TO.C,MX11*%
X43942000Y5080000D03*
X31015000Y2540000D03*
%TD*%
%TO.C,MX10*%
X24892000Y-71120000D03*
X11965000Y-73660000D03*
%TD*%
%TO.C,MX9*%
X24892000Y-52070000D03*
X11965000Y-54610000D03*
%TD*%
%TO.C,MX8*%
X24892000Y-33020000D03*
X11965000Y-35560000D03*
%TD*%
%TO.C,MX7*%
X24892000Y-13970000D03*
X11965000Y-16510000D03*
%TD*%
%TO.C,MX6*%
X24892000Y5080000D03*
X11965000Y2540000D03*
%TD*%
%TO.C,MX5*%
X5842000Y-71120000D03*
X-7085000Y-73660000D03*
%TD*%
%TO.C,MX4*%
X5842000Y-52070000D03*
X-7085000Y-54610000D03*
%TD*%
%TO.C,MX3*%
X5842000Y-33020000D03*
X-7085000Y-35560000D03*
%TD*%
%TO.C,MX2*%
X5842000Y-13970000D03*
X-7085000Y-16510000D03*
%TD*%
%TO.C,MX1*%
X5842000Y5080000D03*
X-7085000Y2540000D03*
%TD*%
D13*
%TO.C,D91*%
X413590000Y-81560000D03*
X413590000Y-84860000D03*
%TD*%
D14*
%TO.C,D90*%
X411944546Y-66675000D03*
X415244546Y-66675000D03*
%TD*%
D13*
%TO.C,D89*%
X413594546Y-45975000D03*
X413594546Y-49275000D03*
%TD*%
%TO.C,D88*%
X413594546Y-26925000D03*
X413594546Y-30225000D03*
%TD*%
%TO.C,D87*%
X413594546Y-7875000D03*
X413594546Y-11175000D03*
%TD*%
%TO.C,D86*%
X394540000Y-81560000D03*
X394540000Y-84860000D03*
%TD*%
D14*
%TO.C,D85*%
X392894546Y-66675000D03*
X396194546Y-66675000D03*
%TD*%
D13*
%TO.C,D84*%
X394540000Y-45640000D03*
X394540000Y-48940000D03*
%TD*%
%TO.C,D83*%
X394540000Y-26910000D03*
X394540000Y-30210000D03*
%TD*%
%TO.C,D82*%
X394530000Y-7880000D03*
X394530000Y-11180000D03*
%TD*%
%TO.C,D81*%
X375490000Y-81530000D03*
X375490000Y-84830000D03*
%TD*%
D14*
%TO.C,D80*%
X373840000Y-66670000D03*
X377140000Y-66670000D03*
%TD*%
%TO.C,D79*%
X350032046Y-47625000D03*
X353332046Y-47625000D03*
%TD*%
%TO.C,D78*%
X364319546Y-28575000D03*
X367619546Y-28575000D03*
%TD*%
%TO.C,D77*%
X354794546Y-9525000D03*
X358094546Y-9525000D03*
%TD*%
D13*
%TO.C,D76*%
X351680000Y-81540000D03*
X351680000Y-84840000D03*
%TD*%
D14*
%TO.C,D75*%
X340507046Y-66675000D03*
X343807046Y-66675000D03*
%TD*%
%TO.C,D74*%
X330982046Y-47625000D03*
X334282046Y-47625000D03*
%TD*%
%TO.C,D73*%
X345269546Y-28575000D03*
X348569546Y-28575000D03*
%TD*%
%TO.C,D72*%
X335744546Y-9525000D03*
X339044546Y-9525000D03*
%TD*%
D13*
%TO.C,D71*%
X327860000Y-81540000D03*
X327860000Y-84840000D03*
%TD*%
D11*
%TO.C,D70*%
G36*
X293215958Y-67042507D02*
G01*
X293007581Y-65860738D01*
X293893908Y-65704455D01*
X294102285Y-66886224D01*
X293215958Y-67042507D01*
G37*
G36*
X289966092Y-67615545D02*
G01*
X289757715Y-66433776D01*
X290644042Y-66277493D01*
X290852419Y-67459262D01*
X289966092Y-67615545D01*
G37*
%TD*%
D14*
%TO.C,D69*%
X326219546Y-28575000D03*
X329519546Y-28575000D03*
%TD*%
%TO.C,D68*%
X316694546Y-9525000D03*
X319994546Y-9525000D03*
%TD*%
D13*
%TO.C,D67*%
X304060000Y-81540000D03*
X304060000Y-84840000D03*
%TD*%
D11*
%TO.C,D66*%
G36*
X280515958Y-69272507D02*
G01*
X280307581Y-68090738D01*
X281193908Y-67934455D01*
X281402285Y-69116224D01*
X280515958Y-69272507D01*
G37*
G36*
X277266092Y-69845545D02*
G01*
X277057715Y-68663776D01*
X277944042Y-68507493D01*
X278152419Y-69689262D01*
X277266092Y-69845545D01*
G37*
%TD*%
%TO.C,D65*%
G36*
X296665958Y-47082507D02*
G01*
X296457581Y-45900738D01*
X297343908Y-45744455D01*
X297552285Y-46926224D01*
X296665958Y-47082507D01*
G37*
G36*
X293416092Y-47655545D02*
G01*
X293207715Y-46473776D01*
X294094042Y-46317493D01*
X294302419Y-47499262D01*
X293416092Y-47655545D01*
G37*
%TD*%
%TO.C,D64*%
G36*
X284255958Y-29932507D02*
G01*
X284047581Y-28750738D01*
X284933908Y-28594455D01*
X285142285Y-29776224D01*
X284255958Y-29932507D01*
G37*
G36*
X281006092Y-30505545D02*
G01*
X280797715Y-29323776D01*
X281684042Y-29167493D01*
X281892419Y-30349262D01*
X281006092Y-30505545D01*
G37*
%TD*%
%TO.C,D63*%
G36*
X290335958Y-9522507D02*
G01*
X290127581Y-8340738D01*
X291013908Y-8184455D01*
X291222285Y-9366224D01*
X290335958Y-9522507D01*
G37*
G36*
X287086092Y-10095545D02*
G01*
X286877715Y-8913776D01*
X287764042Y-8757493D01*
X287972419Y-9939262D01*
X287086092Y-10095545D01*
G37*
%TD*%
%TO.C,D62*%
G36*
X271732507Y-85774042D02*
G01*
X270550738Y-85982419D01*
X270394455Y-85096092D01*
X271576224Y-84887715D01*
X271732507Y-85774042D01*
G37*
G36*
X272305545Y-89023908D02*
G01*
X271123776Y-89232285D01*
X270967493Y-88345958D01*
X272149262Y-88137581D01*
X272305545Y-89023908D01*
G37*
%TD*%
%TO.C,D61*%
G36*
X265095958Y-71992507D02*
G01*
X264887581Y-70810738D01*
X265773908Y-70654455D01*
X265982285Y-71836224D01*
X265095958Y-71992507D01*
G37*
G36*
X261846092Y-72565545D02*
G01*
X261637715Y-71383776D01*
X262524042Y-71227493D01*
X262732419Y-72409262D01*
X261846092Y-72565545D01*
G37*
%TD*%
%TO.C,D60*%
G36*
X278725958Y-50252507D02*
G01*
X278517581Y-49070738D01*
X279403908Y-48914455D01*
X279612285Y-50096224D01*
X278725958Y-50252507D01*
G37*
G36*
X275476092Y-50825545D02*
G01*
X275267715Y-49643776D01*
X276154042Y-49487493D01*
X276362419Y-50669262D01*
X275476092Y-50825545D01*
G37*
%TD*%
%TO.C,D59*%
G36*
X265495958Y-33242507D02*
G01*
X265287581Y-32060738D01*
X266173908Y-31904455D01*
X266382285Y-33086224D01*
X265495958Y-33242507D01*
G37*
G36*
X262246092Y-33815545D02*
G01*
X262037715Y-32633776D01*
X262924042Y-32477493D01*
X263132419Y-33659262D01*
X262246092Y-33815545D01*
G37*
%TD*%
%TO.C,D58*%
G36*
X271567665Y-12828542D02*
G01*
X271359288Y-11646773D01*
X272245615Y-11490490D01*
X272453992Y-12672259D01*
X271567665Y-12828542D01*
G37*
G36*
X268317799Y-13401580D02*
G01*
X268109422Y-12219811D01*
X268995749Y-12063528D01*
X269204126Y-13245297D01*
X268317799Y-13401580D01*
G37*
%TD*%
%TO.C,D57*%
G36*
X220142507Y-94904042D02*
G01*
X218960738Y-95112419D01*
X218804455Y-94226092D01*
X219986224Y-94017715D01*
X220142507Y-94904042D01*
G37*
G36*
X220715545Y-98153908D02*
G01*
X219533776Y-98362285D01*
X219377493Y-97475958D01*
X220559262Y-97267581D01*
X220715545Y-98153908D01*
G37*
%TD*%
%TO.C,D56*%
G36*
X246315557Y-75312798D02*
G01*
X246107180Y-74131029D01*
X246993507Y-73974746D01*
X247201884Y-75156515D01*
X246315557Y-75312798D01*
G37*
G36*
X243065691Y-75885836D02*
G01*
X242857314Y-74704067D01*
X243743641Y-74547784D01*
X243952018Y-75729553D01*
X243065691Y-75885836D01*
G37*
%TD*%
%TO.C,D55*%
G36*
X259423072Y-53657713D02*
G01*
X259214695Y-52475944D01*
X260101022Y-52319661D01*
X260309399Y-53501430D01*
X259423072Y-53657713D01*
G37*
G36*
X256173206Y-54230751D02*
G01*
X255964829Y-53048982D01*
X256851156Y-52892699D01*
X257059533Y-54074468D01*
X256173206Y-54230751D01*
G37*
%TD*%
%TO.C,D54*%
G36*
X246735958Y-36552507D02*
G01*
X246527581Y-35370738D01*
X247413908Y-35214455D01*
X247622285Y-36396224D01*
X246735958Y-36552507D01*
G37*
G36*
X243486092Y-37125545D02*
G01*
X243277715Y-35943776D01*
X244164042Y-35787493D01*
X244372419Y-36969262D01*
X243486092Y-37125545D01*
G37*
%TD*%
%TO.C,D53*%
G36*
X252805958Y-16132507D02*
G01*
X252597581Y-14950738D01*
X253483908Y-14794455D01*
X253692285Y-15976224D01*
X252805958Y-16132507D01*
G37*
G36*
X249556092Y-16705545D02*
G01*
X249347715Y-15523776D01*
X250234042Y-15367493D01*
X250442419Y-16549262D01*
X249556092Y-16705545D01*
G37*
%TD*%
%TO.C,D52*%
G36*
X227554970Y-78620795D02*
G01*
X227346593Y-77439026D01*
X228232920Y-77282743D01*
X228441297Y-78464512D01*
X227554970Y-78620795D01*
G37*
G36*
X224305104Y-79193833D02*
G01*
X224096727Y-78012064D01*
X224983054Y-77855781D01*
X225191431Y-79037550D01*
X224305104Y-79193833D01*
G37*
%TD*%
%TO.C,D51*%
G36*
X240662485Y-56965710D02*
G01*
X240454108Y-55783941D01*
X241340435Y-55627658D01*
X241548812Y-56809427D01*
X240662485Y-56965710D01*
G37*
G36*
X237412619Y-57538748D02*
G01*
X237204242Y-56356979D01*
X238090569Y-56200696D01*
X238298946Y-57382465D01*
X237412619Y-57538748D01*
G37*
%TD*%
%TO.C,D50*%
G36*
X227974194Y-39859122D02*
G01*
X227765817Y-38677353D01*
X228652144Y-38521070D01*
X228860521Y-39702839D01*
X227974194Y-39859122D01*
G37*
G36*
X224724328Y-40432160D02*
G01*
X224515951Y-39250391D01*
X225402278Y-39094108D01*
X225610655Y-40275877D01*
X224724328Y-40432160D01*
G37*
%TD*%
%TO.C,D49*%
G36*
X234046491Y-19444536D02*
G01*
X233838114Y-18262767D01*
X234724441Y-18106484D01*
X234932818Y-19288253D01*
X234046491Y-19444536D01*
G37*
G36*
X230796625Y-20017574D02*
G01*
X230588248Y-18835805D01*
X231474575Y-18679522D01*
X231682952Y-19861291D01*
X230796625Y-20017574D01*
G37*
%TD*%
%TO.C,D48*%
G36*
X214709294Y-89435500D02*
G01*
X213527525Y-89227123D01*
X213683808Y-88340796D01*
X214865577Y-88549173D01*
X214709294Y-89435500D01*
G37*
G36*
X214136256Y-92685366D02*
G01*
X212954487Y-92476989D01*
X213110770Y-91590662D01*
X214292539Y-91799039D01*
X214136256Y-92685366D01*
G37*
%TD*%
%TO.C,D47*%
G36*
X210789262Y-70452419D02*
G01*
X209607493Y-70244042D01*
X209763776Y-69357715D01*
X210945545Y-69566092D01*
X210789262Y-70452419D01*
G37*
G36*
X210216224Y-73702285D02*
G01*
X209034455Y-73493908D01*
X209190738Y-72607581D01*
X210372507Y-72815958D01*
X210216224Y-73702285D01*
G37*
%TD*%
%TO.C,D46*%
G36*
X200247581Y-59699262D02*
G01*
X200455958Y-58517493D01*
X201342285Y-58673776D01*
X201133908Y-59855545D01*
X200247581Y-59699262D01*
G37*
G36*
X196997715Y-59126224D02*
G01*
X197206092Y-57944455D01*
X198092419Y-58100738D01*
X197884042Y-59282507D01*
X196997715Y-59126224D01*
G37*
%TD*%
%TO.C,D45*%
G36*
X194372419Y-38100738D02*
G01*
X194164042Y-39282507D01*
X193277715Y-39126224D01*
X193486092Y-37944455D01*
X194372419Y-38100738D01*
G37*
G36*
X197622285Y-38673776D02*
G01*
X197413908Y-39855545D01*
X196527581Y-39699262D01*
X196735958Y-38517493D01*
X197622285Y-38673776D01*
G37*
%TD*%
%TO.C,D44*%
G36*
X197672419Y-19340738D02*
G01*
X197464042Y-20522507D01*
X196577715Y-20366224D01*
X196786092Y-19184455D01*
X197672419Y-19340738D01*
G37*
G36*
X200922285Y-19913776D02*
G01*
X200713908Y-21095545D01*
X199827581Y-20939262D01*
X200035958Y-19757493D01*
X200922285Y-19913776D01*
G37*
%TD*%
%TO.C,D43*%
G36*
X194739262Y-93002419D02*
G01*
X193557493Y-92794042D01*
X193713776Y-91907715D01*
X194895545Y-92116092D01*
X194739262Y-93002419D01*
G37*
G36*
X194166224Y-96252285D02*
G01*
X192984455Y-96043908D01*
X193140738Y-95157581D01*
X194322507Y-95365958D01*
X194166224Y-96252285D01*
G37*
%TD*%
%TO.C,D42*%
G36*
X195732419Y-77020738D02*
G01*
X195524042Y-78202507D01*
X194637715Y-78046224D01*
X194846092Y-76864455D01*
X195732419Y-77020738D01*
G37*
G36*
X198982285Y-77593776D02*
G01*
X198773908Y-78775545D01*
X197887581Y-78619262D01*
X198095958Y-77437493D01*
X198982285Y-77593776D01*
G37*
%TD*%
%TO.C,D41*%
G36*
X181487581Y-56389262D02*
G01*
X181695958Y-55207493D01*
X182582285Y-55363776D01*
X182373908Y-56545545D01*
X181487581Y-56389262D01*
G37*
G36*
X178237715Y-55816224D02*
G01*
X178446092Y-54634455D01*
X179332419Y-54790738D01*
X179124042Y-55972507D01*
X178237715Y-55816224D01*
G37*
%TD*%
%TO.C,D40*%
G36*
X175612419Y-34790738D02*
G01*
X175404042Y-35972507D01*
X174517715Y-35816224D01*
X174726092Y-34634455D01*
X175612419Y-34790738D01*
G37*
G36*
X178862285Y-35363776D02*
G01*
X178653908Y-36545545D01*
X177767581Y-36389262D01*
X177975958Y-35207493D01*
X178862285Y-35363776D01*
G37*
%TD*%
%TO.C,D39*%
G36*
X183602419Y-16850738D02*
G01*
X183394042Y-18032507D01*
X182507715Y-17876224D01*
X182716092Y-16694455D01*
X183602419Y-16850738D01*
G37*
G36*
X186852285Y-17423776D02*
G01*
X186643908Y-18605545D01*
X185757581Y-18449262D01*
X185965958Y-17267493D01*
X186852285Y-17423776D01*
G37*
%TD*%
%TO.C,D38*%
G36*
X169912419Y-72470738D02*
G01*
X169704042Y-73652507D01*
X168817715Y-73496224D01*
X169026092Y-72314455D01*
X169912419Y-72470738D01*
G37*
G36*
X173162285Y-73043776D02*
G01*
X172953908Y-74225545D01*
X172067581Y-74069262D01*
X172275958Y-72887493D01*
X173162285Y-73043776D01*
G37*
%TD*%
%TO.C,D37*%
G36*
X160572419Y-51480738D02*
G01*
X160364042Y-52662507D01*
X159477715Y-52506224D01*
X159686092Y-51324455D01*
X160572419Y-51480738D01*
G37*
G36*
X163822285Y-52053776D02*
G01*
X163613908Y-53235545D01*
X162727581Y-53079262D01*
X162935958Y-51897493D01*
X163822285Y-52053776D01*
G37*
%TD*%
%TO.C,D36*%
G36*
X156842419Y-31480738D02*
G01*
X156634042Y-32662507D01*
X155747715Y-32506224D01*
X155956092Y-31324455D01*
X156842419Y-31480738D01*
G37*
G36*
X160092285Y-32053776D02*
G01*
X159883908Y-33235545D01*
X158997581Y-33079262D01*
X159205958Y-31897493D01*
X160092285Y-32053776D01*
G37*
%TD*%
%TO.C,D35*%
G36*
X164842419Y-13550738D02*
G01*
X164634042Y-14732507D01*
X163747715Y-14576224D01*
X163956092Y-13394455D01*
X164842419Y-13550738D01*
G37*
G36*
X168092285Y-14123776D02*
G01*
X167883908Y-15305545D01*
X166997581Y-15149262D01*
X167205958Y-13967493D01*
X168092285Y-14123776D01*
G37*
%TD*%
%TO.C,D34*%
G36*
X152439262Y-86072419D02*
G01*
X151257493Y-85864042D01*
X151413776Y-84977715D01*
X152595545Y-85186092D01*
X152439262Y-86072419D01*
G37*
G36*
X151866224Y-89322285D02*
G01*
X150684455Y-89113908D01*
X150840738Y-88227581D01*
X152022507Y-88435958D01*
X151866224Y-89322285D01*
G37*
%TD*%
%TO.C,D33*%
G36*
X153512419Y-69570738D02*
G01*
X153304042Y-70752507D01*
X152417715Y-70596224D01*
X152626092Y-69414455D01*
X153512419Y-69570738D01*
G37*
G36*
X156762285Y-70143776D02*
G01*
X156553908Y-71325545D01*
X155667581Y-71169262D01*
X155875958Y-69987493D01*
X156762285Y-70143776D01*
G37*
%TD*%
%TO.C,D32*%
G36*
X141812419Y-48160738D02*
G01*
X141604042Y-49342507D01*
X140717715Y-49186224D01*
X140926092Y-48004455D01*
X141812419Y-48160738D01*
G37*
G36*
X145062285Y-48733776D02*
G01*
X144853908Y-49915545D01*
X143967581Y-49759262D01*
X144175958Y-48577493D01*
X145062285Y-48733776D01*
G37*
%TD*%
%TO.C,D31*%
G36*
X138082419Y-28160738D02*
G01*
X137874042Y-29342507D01*
X136987715Y-29186224D01*
X137196092Y-28004455D01*
X138082419Y-28160738D01*
G37*
G36*
X141332285Y-28733776D02*
G01*
X141123908Y-29915545D01*
X140237581Y-29759262D01*
X140445958Y-28577493D01*
X141332285Y-28733776D01*
G37*
%TD*%
%TO.C,D30*%
G36*
X146082419Y-10230738D02*
G01*
X145874042Y-11412507D01*
X144987715Y-11256224D01*
X145196092Y-10074455D01*
X146082419Y-10230738D01*
G37*
G36*
X149332285Y-10803776D02*
G01*
X149123908Y-11985545D01*
X148237581Y-11829262D01*
X148445958Y-10647493D01*
X149332285Y-10803776D01*
G37*
%TD*%
D14*
%TO.C,D29*%
X131700000Y-66675000D03*
X135000000Y-66675000D03*
%TD*%
%TO.C,D28*%
X122175000Y-47625000D03*
X125475000Y-47625000D03*
%TD*%
%TO.C,D27*%
X117412500Y-28575000D03*
X120712500Y-28575000D03*
%TD*%
D13*
%TO.C,D26*%
X128560000Y1090000D03*
X128560000Y-2210000D03*
%TD*%
D14*
%TO.C,D25*%
X107887500Y-9525000D03*
X111187500Y-9525000D03*
%TD*%
D13*
%TO.C,D24*%
X119060000Y-81540000D03*
X119060000Y-84840000D03*
%TD*%
D14*
%TO.C,D23*%
X112650000Y-66670000D03*
X115950000Y-66670000D03*
%TD*%
D13*
%TO.C,D22*%
X104800000Y-42440000D03*
X104800000Y-45740000D03*
%TD*%
D14*
%TO.C,D21*%
X98370000Y-28580000D03*
X101670000Y-28580000D03*
%TD*%
%TO.C,D20*%
X88837500Y-9525000D03*
X92137500Y-9525000D03*
%TD*%
D13*
%TO.C,D19*%
X95250000Y-81520000D03*
X95250000Y-84820000D03*
%TD*%
%TO.C,D18*%
X66675000Y-64999600D03*
X66675000Y-68299600D03*
%TD*%
%TO.C,D17*%
X66675000Y-26874200D03*
X66675000Y-30174200D03*
%TD*%
%TO.C,D16*%
X66675000Y-7875000D03*
X66675000Y-11175000D03*
%TD*%
%TO.C,D15*%
X47630000Y-81540000D03*
X47630000Y-84840000D03*
%TD*%
D14*
%TO.C,D14*%
X45975000Y-66675000D03*
X49275000Y-66675000D03*
%TD*%
%TO.C,D13*%
X45975000Y-47625000D03*
X49275000Y-47625000D03*
%TD*%
%TO.C,D12*%
X45975000Y-28575000D03*
X49275000Y-28575000D03*
%TD*%
%TO.C,D11*%
X45975000Y-9525000D03*
X49275000Y-9525000D03*
%TD*%
D13*
%TO.C,D10*%
X28575000Y-81550000D03*
X28575000Y-84850000D03*
%TD*%
D14*
%TO.C,D9*%
X26925000Y-66675000D03*
X30225000Y-66675000D03*
%TD*%
%TO.C,D8*%
X26925000Y-47625000D03*
X30225000Y-47625000D03*
%TD*%
%TO.C,D7*%
X26925000Y-28575000D03*
X30225000Y-28575000D03*
%TD*%
%TO.C,D6*%
X26925000Y-9525000D03*
X30225000Y-9525000D03*
%TD*%
D13*
%TO.C,D5*%
X9525000Y-81550000D03*
X9525000Y-84850000D03*
%TD*%
D14*
%TO.C,D4*%
X7875000Y-66675000D03*
X11175000Y-66675000D03*
%TD*%
%TO.C,D3*%
X7875000Y-47625000D03*
X11175000Y-47625000D03*
%TD*%
%TO.C,D2*%
X7875000Y-28575000D03*
X11175000Y-28575000D03*
%TD*%
%TO.C,D1*%
X7875000Y-9525000D03*
X11175000Y-9525000D03*
%TD*%
M02*
