%TF.GenerationSoftware,KiCad,Pcbnew,(5.1.10)-1*%
%TF.CreationDate,2021-08-22T14:11:54-07:00*%
%TF.ProjectId,V2,56322e6b-6963-4616-945f-706362585858,rev?*%
%TF.SameCoordinates,Original*%
%TF.FileFunction,Paste,Bot*%
%TF.FilePolarity,Positive*%
%FSLAX46Y46*%
G04 Gerber Fmt 4.6, Leading zero omitted, Abs format (unit mm)*
G04 Created by KiCad (PCBNEW (5.1.10)-1) date 2021-08-22 14:11:54*
%MOMM*%
%LPD*%
G01*
G04 APERTURE LIST*
%ADD10R,1.200000X0.900000*%
%ADD11C,0.100000*%
G04 APERTURE END LIST*
D10*
%TO.C,D92*%
X421424043Y-81693750D03*
X421424043Y-84993750D03*
%TD*%
%TO.C,D91*%
X421424043Y-45975000D03*
X421424043Y-49275000D03*
%TD*%
%TO.C,D89*%
X421424043Y-26925000D03*
X421424043Y-30225000D03*
%TD*%
%TO.C,D88*%
X402374043Y-81693750D03*
X402374043Y-84993750D03*
%TD*%
%TO.C,D87*%
X402374043Y-65025000D03*
X402374043Y-68325000D03*
%TD*%
%TO.C,D86*%
X371607793Y-65025000D03*
X371607793Y-68325000D03*
%TD*%
%TO.C,D85*%
X345414043Y-45975000D03*
X345414043Y-49275000D03*
%TD*%
%TO.C,D84*%
X354939043Y-24543750D03*
X354939043Y-27843750D03*
%TD*%
%TO.C,D83*%
X335889043Y-26925000D03*
X335889043Y-30225000D03*
%TD*%
%TO.C,D82*%
X357320293Y-7875000D03*
X357320293Y-11175000D03*
%TD*%
%TO.C,D81*%
X338270293Y-7875000D03*
X338270293Y-11175000D03*
%TD*%
%TO.C,D80*%
X383324043Y-81693750D03*
X383324043Y-84993750D03*
%TD*%
%TO.C,D79*%
X352557793Y-81693750D03*
X352557793Y-84993750D03*
%TD*%
%TO.C,D78*%
X328745293Y-65025000D03*
X328745293Y-68325000D03*
%TD*%
%TO.C,D77*%
X326364043Y-45975000D03*
X326364043Y-49275000D03*
%TD*%
%TO.C,D76*%
X316839043Y-26925000D03*
X316839043Y-30225000D03*
%TD*%
%TO.C,D75*%
X297789043Y-26925000D03*
X297789043Y-30225000D03*
%TD*%
%TO.C,D74*%
X319220293Y-7875000D03*
X319220293Y-11175000D03*
%TD*%
%TO.C,D73*%
X300170293Y-7875000D03*
X300170293Y-11175000D03*
%TD*%
%TO.C,D72*%
X307314043Y-45975000D03*
X307314043Y-49275000D03*
%TD*%
%TO.C,D71*%
X309695293Y-65025000D03*
X309695293Y-68325000D03*
%TD*%
%TO.C,D70*%
X328745293Y-81693750D03*
X328745293Y-84993750D03*
%TD*%
%TO.C,D69*%
X304932793Y-81693750D03*
X304932793Y-84993750D03*
%TD*%
D11*
%TO.C,D68*%
G36*
X290425107Y-64779442D02*
G01*
X289243338Y-64987819D01*
X289087055Y-64101492D01*
X290268824Y-63893115D01*
X290425107Y-64779442D01*
G37*
G36*
X290998145Y-68029308D02*
G01*
X289816376Y-68237685D01*
X289660093Y-67351358D01*
X290841862Y-67142981D01*
X290998145Y-68029308D01*
G37*
%TD*%
%TO.C,D67*%
G36*
X282436807Y-46821642D02*
G01*
X281255038Y-47030019D01*
X281098755Y-46143692D01*
X282280524Y-45935315D01*
X282436807Y-46821642D01*
G37*
G36*
X283009845Y-50071508D02*
G01*
X281828076Y-50279885D01*
X281671793Y-49393558D01*
X282853562Y-49185181D01*
X283009845Y-50071508D01*
G37*
%TD*%
%TO.C,D66*%
G36*
X274423107Y-28863842D02*
G01*
X273241338Y-29072219D01*
X273085055Y-28185892D01*
X274266824Y-27977515D01*
X274423107Y-28863842D01*
G37*
G36*
X274996145Y-32113708D02*
G01*
X273814376Y-32322085D01*
X273658093Y-31435758D01*
X274839862Y-31227381D01*
X274996145Y-32113708D01*
G37*
%TD*%
%TO.C,D65*%
G36*
X280506407Y-8454942D02*
G01*
X279324638Y-8663319D01*
X279168355Y-7776992D01*
X280350124Y-7568615D01*
X280506407Y-8454942D01*
G37*
G36*
X281079445Y-11704808D02*
G01*
X279897676Y-11913185D01*
X279741393Y-11026858D01*
X280923162Y-10818481D01*
X281079445Y-11704808D01*
G37*
%TD*%
%TO.C,D64*%
G36*
X271667207Y-68030642D02*
G01*
X270485438Y-68239019D01*
X270329155Y-67352692D01*
X271510924Y-67144315D01*
X271667207Y-68030642D01*
G37*
G36*
X272240245Y-71280508D02*
G01*
X271058476Y-71488885D01*
X270902193Y-70602558D01*
X272083962Y-70394181D01*
X272240245Y-71280508D01*
G37*
%TD*%
%TO.C,D63*%
G36*
X270282907Y-87626742D02*
G01*
X269101138Y-87835119D01*
X268944855Y-86948792D01*
X270126624Y-86740415D01*
X270282907Y-87626742D01*
G37*
G36*
X270855945Y-90876608D02*
G01*
X269674176Y-91084985D01*
X269517893Y-90198658D01*
X270699662Y-89990281D01*
X270855945Y-90876608D01*
G37*
%TD*%
%TO.C,D62*%
G36*
X252528307Y-69224442D02*
G01*
X251346538Y-69432819D01*
X251190255Y-68546492D01*
X252372024Y-68338115D01*
X252528307Y-69224442D01*
G37*
G36*
X253101345Y-72474308D02*
G01*
X251919576Y-72682685D01*
X251763293Y-71796358D01*
X252945062Y-71587981D01*
X253101345Y-72474308D01*
G37*
%TD*%
%TO.C,D61*%
G36*
X263666207Y-50136342D02*
G01*
X262484438Y-50344719D01*
X262328155Y-49458392D01*
X263509924Y-49250015D01*
X263666207Y-50136342D01*
G37*
G36*
X264239245Y-53386208D02*
G01*
X263057476Y-53594585D01*
X262901193Y-52708258D01*
X264082962Y-52499881D01*
X264239245Y-53386208D01*
G37*
%TD*%
%TO.C,D60*%
G36*
X255665207Y-32191242D02*
G01*
X254483438Y-32399619D01*
X254327155Y-31513292D01*
X255508924Y-31304915D01*
X255665207Y-32191242D01*
G37*
G36*
X256238245Y-35441108D02*
G01*
X255056476Y-35649485D01*
X254900193Y-34763158D01*
X256081962Y-34554781D01*
X256238245Y-35441108D01*
G37*
%TD*%
%TO.C,D59*%
G36*
X236894607Y-35467842D02*
G01*
X235712838Y-35676219D01*
X235556555Y-34789892D01*
X236738324Y-34581515D01*
X236894607Y-35467842D01*
G37*
G36*
X237467645Y-38717708D02*
G01*
X236285876Y-38926085D01*
X236129593Y-38039758D01*
X237311362Y-37831381D01*
X237467645Y-38717708D01*
G37*
%TD*%
%TO.C,D58*%
G36*
X261735807Y-11756942D02*
G01*
X260554038Y-11965319D01*
X260397755Y-11078992D01*
X261579524Y-10870615D01*
X261735807Y-11756942D01*
G37*
G36*
X262308845Y-15006808D02*
G01*
X261127076Y-15215185D01*
X260970793Y-14328858D01*
X262152562Y-14120481D01*
X262308845Y-15006808D01*
G37*
%TD*%
%TO.C,D57*%
G36*
X242977907Y-15058942D02*
G01*
X241796138Y-15267319D01*
X241639855Y-14380992D01*
X242821624Y-14172615D01*
X242977907Y-15058942D01*
G37*
G36*
X243550945Y-18308808D02*
G01*
X242369176Y-18517185D01*
X242212893Y-17630858D01*
X243394662Y-17422481D01*
X243550945Y-18308808D01*
G37*
%TD*%
%TO.C,D56*%
G36*
X244895607Y-53425642D02*
G01*
X243713838Y-53634019D01*
X243557555Y-52747692D01*
X244739324Y-52539315D01*
X244895607Y-53425642D01*
G37*
G36*
X245468645Y-56675508D02*
G01*
X244286876Y-56883885D01*
X244130593Y-55997558D01*
X245312362Y-55789181D01*
X245468645Y-56675508D01*
G37*
%TD*%
%TO.C,D55*%
G36*
X234138707Y-74672742D02*
G01*
X232956938Y-74881119D01*
X232800655Y-73994792D01*
X233982424Y-73786415D01*
X234138707Y-74672742D01*
G37*
G36*
X234711745Y-77922608D02*
G01*
X233529976Y-78130985D01*
X233373693Y-77244658D01*
X234555462Y-77036281D01*
X234711745Y-77922608D01*
G37*
%TD*%
%TO.C,D54*%
G36*
X218682807Y-96719942D02*
G01*
X217501038Y-96928319D01*
X217344755Y-96041992D01*
X218526524Y-95833615D01*
X218682807Y-96719942D01*
G37*
G36*
X219255845Y-99969808D02*
G01*
X218074076Y-100178185D01*
X217917793Y-99291858D01*
X219099562Y-99083481D01*
X219255845Y-99969808D01*
G37*
%TD*%
%TO.C,D53*%
G36*
X207898162Y-96864819D02*
G01*
X206716393Y-96656442D01*
X206872676Y-95770115D01*
X208054445Y-95978492D01*
X207898162Y-96864819D01*
G37*
G36*
X207325124Y-100114685D02*
G01*
X206143355Y-99906308D01*
X206299638Y-99019981D01*
X207481407Y-99228358D01*
X207325124Y-100114685D01*
G37*
%TD*%
%TO.C,D52*%
G36*
X215368107Y-77987442D02*
G01*
X214186338Y-78195819D01*
X214030055Y-77309492D01*
X215211824Y-77101115D01*
X215368107Y-77987442D01*
G37*
G36*
X215941145Y-81237308D02*
G01*
X214759376Y-81445685D01*
X214603093Y-80559358D01*
X215784862Y-80350981D01*
X215941145Y-81237308D01*
G37*
%TD*%
%TO.C,D51*%
G36*
X226150407Y-56740342D02*
G01*
X224968638Y-56948719D01*
X224812355Y-56062392D01*
X225994124Y-55854015D01*
X226150407Y-56740342D01*
G37*
G36*
X226723445Y-59990208D02*
G01*
X225541676Y-60198585D01*
X225385393Y-59312258D01*
X226567162Y-59103881D01*
X226723445Y-59990208D01*
G37*
%TD*%
%TO.C,D50*%
G36*
X218149407Y-38820642D02*
G01*
X216967638Y-39029019D01*
X216811355Y-38142692D01*
X217993124Y-37934315D01*
X218149407Y-38820642D01*
G37*
G36*
X218722445Y-42070508D02*
G01*
X217540676Y-42278885D01*
X217384393Y-41392558D01*
X218566162Y-41184181D01*
X218722445Y-42070508D01*
G37*
%TD*%
%TO.C,D49*%
G36*
X224207307Y-18386342D02*
G01*
X223025538Y-18594719D01*
X222869255Y-17708392D01*
X224051024Y-17500015D01*
X224207307Y-18386342D01*
G37*
G36*
X224780345Y-21636208D02*
G01*
X223598576Y-21844585D01*
X223442293Y-20958258D01*
X224624062Y-20749881D01*
X224780345Y-21636208D01*
G37*
%TD*%
%TO.C,D48*%
G36*
X202830862Y-18582019D02*
G01*
X201649093Y-18373642D01*
X201805376Y-17487315D01*
X202987145Y-17695692D01*
X202830862Y-18582019D01*
G37*
G36*
X202257824Y-21831885D02*
G01*
X201076055Y-21623508D01*
X201232338Y-20737181D01*
X202414107Y-20945558D01*
X202257824Y-21831885D01*
G37*
%TD*%
%TO.C,De*%
G36*
X190156262Y-35676219D02*
G01*
X188974493Y-35467842D01*
X189130776Y-34581515D01*
X190312545Y-34789892D01*
X190156262Y-35676219D01*
G37*
G36*
X189583224Y-38926085D02*
G01*
X188401455Y-38717708D01*
X188557738Y-37831381D01*
X189739507Y-38039758D01*
X189583224Y-38926085D01*
G37*
%TD*%
%TO.C,D46*%
G36*
X198550962Y-56529619D02*
G01*
X197369193Y-56321242D01*
X197525476Y-55434915D01*
X198707245Y-55643292D01*
X198550962Y-56529619D01*
G37*
G36*
X197977924Y-59779485D02*
G01*
X196796155Y-59571108D01*
X196952438Y-58684781D01*
X198134207Y-58893158D01*
X197977924Y-59779485D01*
G37*
%TD*%
%TO.C,D45*%
G36*
X202284762Y-76544819D02*
G01*
X201102993Y-76336442D01*
X201259276Y-75450115D01*
X202441045Y-75658492D01*
X202284762Y-76544819D01*
G37*
G36*
X201711724Y-79794685D02*
G01*
X200529955Y-79586308D01*
X200686238Y-78699981D01*
X201868007Y-78908358D01*
X201711724Y-79794685D01*
G37*
%TD*%
%TO.C,D44*%
G36*
X179793062Y-53227619D02*
G01*
X178611293Y-53019242D01*
X178767576Y-52132915D01*
X179949345Y-52341292D01*
X179793062Y-53227619D01*
G37*
G36*
X179220024Y-56477485D02*
G01*
X178038255Y-56269108D01*
X178194538Y-55382781D01*
X179376307Y-55591158D01*
X179220024Y-56477485D01*
G37*
%TD*%
%TO.C,D43*%
G36*
X171385662Y-32386919D02*
G01*
X170203893Y-32178542D01*
X170360176Y-31292215D01*
X171541945Y-31500592D01*
X171385662Y-32386919D01*
G37*
G36*
X170812624Y-35636785D02*
G01*
X169630855Y-35428408D01*
X169787138Y-34542081D01*
X170968907Y-34750458D01*
X170812624Y-35636785D01*
G37*
%TD*%
%TO.C,D42*%
G36*
X184060262Y-15280019D02*
G01*
X182878493Y-15071642D01*
X183034776Y-14185315D01*
X184216545Y-14393692D01*
X184060262Y-15280019D01*
G37*
G36*
X183487224Y-18529885D02*
G01*
X182305455Y-18321508D01*
X182461738Y-17435181D01*
X183643507Y-17643558D01*
X183487224Y-18529885D01*
G37*
%TD*%
%TO.C,D41*%
G36*
X165315062Y-11952619D02*
G01*
X164133293Y-11744242D01*
X164289576Y-10857915D01*
X165471345Y-11066292D01*
X165315062Y-11952619D01*
G37*
G36*
X164742024Y-15202485D02*
G01*
X163560255Y-14994108D01*
X163716538Y-14107781D01*
X164898307Y-14316158D01*
X164742024Y-15202485D01*
G37*
%TD*%
%TO.C,D40*%
G36*
X183526862Y-73204719D02*
G01*
X182345093Y-72996342D01*
X182501376Y-72110015D01*
X183683145Y-72318392D01*
X183526862Y-73204719D01*
G37*
G36*
X182953824Y-76454585D02*
G01*
X181772055Y-76246208D01*
X181928338Y-75359881D01*
X183110107Y-75568258D01*
X182953824Y-76454585D01*
G37*
%TD*%
%TO.C,D39*%
G36*
X189114862Y-93562819D02*
G01*
X187933093Y-93354442D01*
X188089376Y-92468115D01*
X189271145Y-92676492D01*
X189114862Y-93562819D01*
G37*
G36*
X188541824Y-96812685D02*
G01*
X187360055Y-96604308D01*
X187516338Y-95717981D01*
X188698107Y-95926358D01*
X188541824Y-96812685D01*
G37*
%TD*%
%TO.C,D38*%
G36*
X164768962Y-69915419D02*
G01*
X163587193Y-69707042D01*
X163743476Y-68820715D01*
X164925245Y-69029092D01*
X164768962Y-69915419D01*
G37*
G36*
X164195924Y-73165285D02*
G01*
X163014155Y-72956908D01*
X163170438Y-72070581D01*
X164352207Y-72278958D01*
X164195924Y-73165285D01*
G37*
%TD*%
%TO.C,D37*%
G36*
X161035162Y-49925619D02*
G01*
X159853393Y-49717242D01*
X160009676Y-48830915D01*
X161191445Y-49039292D01*
X161035162Y-49925619D01*
G37*
G36*
X160462124Y-53175485D02*
G01*
X159280355Y-52967108D01*
X159436638Y-52080781D01*
X160618407Y-52289158D01*
X160462124Y-53175485D01*
G37*
%TD*%
%TO.C,D36*%
G36*
X152615062Y-29097619D02*
G01*
X151433293Y-28889242D01*
X151589576Y-28002915D01*
X152771345Y-28211292D01*
X152615062Y-29097619D01*
G37*
G36*
X152042024Y-32347485D02*
G01*
X150860255Y-32139108D01*
X151016538Y-31252781D01*
X152198307Y-31461158D01*
X152042024Y-32347485D01*
G37*
%TD*%
%TO.C,D35*%
G36*
X133869862Y-25770219D02*
G01*
X132688093Y-25561842D01*
X132844376Y-24675515D01*
X134026145Y-24883892D01*
X133869862Y-25770219D01*
G37*
G36*
X133296824Y-29020085D02*
G01*
X132115055Y-28811708D01*
X132271338Y-27925381D01*
X133453107Y-28133758D01*
X133296824Y-29020085D01*
G37*
%TD*%
%TO.C,D34*%
G36*
X146544462Y-8676019D02*
G01*
X145362693Y-8467642D01*
X145518976Y-7581315D01*
X146700745Y-7789692D01*
X146544462Y-8676019D01*
G37*
G36*
X145971424Y-11925885D02*
G01*
X144789655Y-11717508D01*
X144945938Y-10831181D01*
X146127707Y-11039558D01*
X145971424Y-11925885D01*
G37*
%TD*%
D10*
%TO.C,D33*%
X126206250Y-5493750D03*
X126206250Y-8793750D03*
%TD*%
D11*
%TO.C,D32*%
G36*
X142264562Y-46623619D02*
G01*
X141082793Y-46415242D01*
X141239076Y-45528915D01*
X142420845Y-45737292D01*
X142264562Y-46623619D01*
G37*
G36*
X141691524Y-49873485D02*
G01*
X140509755Y-49665108D01*
X140666038Y-48778781D01*
X141847807Y-48987158D01*
X141691524Y-49873485D01*
G37*
%TD*%
%TO.C,D31*%
G36*
X145998362Y-66600719D02*
G01*
X144816593Y-66392342D01*
X144972876Y-65506015D01*
X146154645Y-65714392D01*
X145998362Y-66600719D01*
G37*
G36*
X145425324Y-69850585D02*
G01*
X144243555Y-69642208D01*
X144399838Y-68755881D01*
X145581607Y-68964258D01*
X145425324Y-69850585D01*
G37*
%TD*%
%TO.C,D30*%
G36*
X146722262Y-87111219D02*
G01*
X145540493Y-86902842D01*
X145696776Y-86016515D01*
X146878545Y-86224892D01*
X146722262Y-87111219D01*
G37*
G36*
X146149224Y-90361085D02*
G01*
X144967455Y-90152708D01*
X145123738Y-89266381D01*
X146305507Y-89474758D01*
X146149224Y-90361085D01*
G37*
%TD*%
D10*
%TO.C,D29*%
X116681250Y-81217500D03*
X116681250Y-84517500D03*
%TD*%
%TO.C,D28*%
X126206250Y-65025000D03*
X126206250Y-68325000D03*
%TD*%
%TO.C,D27*%
X121443750Y-45975000D03*
X121443750Y-49275000D03*
%TD*%
%TO.C,D26*%
X111918750Y-26925000D03*
X111918750Y-30225000D03*
%TD*%
%TO.C,D25*%
X107156250Y-7875000D03*
X107156250Y-11175000D03*
%TD*%
%TO.C,D24*%
X88106250Y-7875000D03*
X88106250Y-11175000D03*
%TD*%
%TO.C,D23*%
X92868750Y-26925000D03*
X92868750Y-30225000D03*
%TD*%
%TO.C,D22*%
X97631250Y-43593750D03*
X97631250Y-46893750D03*
%TD*%
%TO.C,D21*%
X107156250Y-65025000D03*
X107156250Y-68325000D03*
%TD*%
%TO.C,D20*%
X92868750Y-81217500D03*
X92868750Y-84517500D03*
%TD*%
%TO.C,D19*%
X66675000Y-25655000D03*
X66675000Y-28955000D03*
%TD*%
%TO.C,D18*%
X66675000Y-68299600D03*
X66675000Y-64999600D03*
%TD*%
%TO.C,D17*%
X66675000Y-7875000D03*
X66675000Y-11175000D03*
%TD*%
%TO.C,D16*%
X47625000Y-81693750D03*
X47625000Y-84993750D03*
%TD*%
%TO.C,D15*%
X47625000Y-65025000D03*
X47625000Y-68325000D03*
%TD*%
%TO.C,D14*%
X47625000Y-45975000D03*
X47625000Y-49275000D03*
%TD*%
%TO.C,D13*%
X28575000Y-45975000D03*
X28575000Y-49275000D03*
%TD*%
%TO.C,D12*%
X47625000Y-26925000D03*
X47625000Y-30225000D03*
%TD*%
%TO.C,D11*%
X28575000Y-26925000D03*
X28575000Y-30225000D03*
%TD*%
%TO.C,D10*%
X47625000Y-7875000D03*
X47625000Y-11175000D03*
%TD*%
%TO.C,D9*%
X28575000Y-7875000D03*
X28575000Y-11175000D03*
%TD*%
%TO.C,D8*%
X28575000Y-65025000D03*
X28575000Y-68325000D03*
%TD*%
%TO.C,D7*%
X25400000Y-81693750D03*
X25400000Y-84993750D03*
%TD*%
%TO.C,D6*%
X31750000Y-81693750D03*
X31750000Y-84993750D03*
%TD*%
%TO.C,D5*%
X28575000Y-81693750D03*
X28575000Y-84993750D03*
%TD*%
%TO.C,D4*%
X9525000Y-65025000D03*
X9525000Y-68325000D03*
%TD*%
%TO.C,D3*%
X9525000Y-45975000D03*
X9525000Y-49275000D03*
%TD*%
%TO.C,D2*%
X9525000Y-26925000D03*
X9525000Y-30225000D03*
%TD*%
%TO.C,D1*%
X9525000Y-7875000D03*
X9525000Y-11175000D03*
%TD*%
%TO.C,D90*%
X421424043Y-7875000D03*
X421424043Y-11175000D03*
%TD*%
M02*
