%FSLAX45Y45*%
G04 Gerber Fmt 4.5, Leading zero omitted, Abs format (unit mm)*
G04 Created by KiCad (PCBNEW (5.1.10)-1) date 2021-08-22 14:10:57*
%MOMM*%
%LPD*%
G01*
G04 APERTURE LIST*
%TA.AperFunction,Profile*%
%ADD10C,0.050000*%
%TD*%
%ADD11C,0.200000*%
%ADD12C,0.300000*%
G04 APERTURE END LIST*
D10*
X10799018Y-8573770D02*
X11666220Y-8572500D01*
X32296480Y-8572500D02*
X30492700Y-8572500D01*
X33296480Y1189990D02*
X43793410Y1189990D01*
X9795890Y1189990D02*
X12619077Y1189686D01*
X44046140Y-8319770D02*
G75*
G02*
X43793410Y-8572500I-252730J0D01*
G01*
X43793410Y1189990D02*
G75*
G02*
X44046140Y937260I0J-252730D01*
G01*
X-952500Y937260D02*
G75*
G02*
X-699770Y1189990I252730J0D01*
G01*
X-699770Y-8572500D02*
G75*
G02*
X-952500Y-8319770I0J252730D01*
G01*
X20134580Y-10071100D02*
X11666220Y-8572500D01*
X22038310Y-10071100D02*
X20134580Y-10071100D01*
X30492700Y-8572500D02*
X22038310Y-10071100D01*
X43793410Y-8572500D02*
X32296480Y-8572500D01*
X44046140Y-8319770D02*
X44046140Y937260D01*
X-699770Y-8572500D02*
X10799018Y-8573770D01*
X-952500Y937260D02*
X-952500Y-8319770D01*
X9795890Y1189990D02*
X-699770Y1189990D01*
X12619077Y1189686D02*
X33296480Y1189990D01*
D11*
X932500Y-6482500D02*
X972500Y-6522500D01*
X972500Y-6482500D02*
X932500Y-6522500D01*
X2834960Y-4903790D02*
X2874960Y-4943790D01*
X2874960Y-4903790D02*
X2834960Y-4943790D01*
X2837500Y-2672500D02*
X2877500Y-2712500D01*
X2877500Y-2672500D02*
X2837500Y-2712500D01*
X2837500Y-6482500D02*
X2877500Y-6522500D01*
X2877500Y-6482500D02*
X2837500Y-6522500D01*
X2837500Y-8479375D02*
X2877500Y-8519375D01*
X2877500Y-8479375D02*
X2837500Y-8519375D01*
X3156270Y-8478840D02*
X3196270Y-8518840D01*
X3196270Y-8478840D02*
X3156270Y-8518840D01*
X3546060Y-6812500D02*
X3586060Y-6852500D01*
X3586060Y-6812500D02*
X3546060Y-6852500D01*
X3972880Y-8152450D02*
X4012880Y-8192450D01*
X4012880Y-8152450D02*
X3972880Y-8192450D01*
X4464370Y-5979480D02*
X4504370Y-6019480D01*
X4504370Y-5979480D02*
X4464370Y-6019480D01*
X4544380Y-7276150D02*
X4584380Y-7316150D01*
X4584380Y-7276150D02*
X4544380Y-7316150D01*
X4742500Y-2672500D02*
X4782500Y-2712500D01*
X4782500Y-2672500D02*
X4742500Y-2712500D01*
X4742500Y-3002500D02*
X4782500Y-3042500D01*
X4782500Y-3002500D02*
X4742500Y-3042500D01*
X4742500Y-4907500D02*
X4782500Y-4947500D01*
X4782500Y-4907500D02*
X4742500Y-4947500D01*
X4742500Y-6812500D02*
X4782500Y-6852500D01*
X4782500Y-6812500D02*
X4742500Y-6852500D01*
X4742500Y-8479375D02*
X4782500Y-8519375D01*
X4782500Y-8479375D02*
X4742500Y-8519375D01*
X5311460Y-1450660D02*
X5351460Y-1490660D01*
X5351460Y-1450660D02*
X5311460Y-1490660D01*
X6646230Y-6477320D02*
X6686230Y-6517320D01*
X6686230Y-6477320D02*
X6646230Y-6517320D01*
X7127560Y-3044510D02*
X7167560Y-3084510D01*
X7167560Y-3044510D02*
X7127560Y-3084510D01*
X7206170Y-2750000D02*
X7246170Y-2790000D01*
X7246170Y-2750000D02*
X7206170Y-2790000D01*
X8353110Y-8105460D02*
X8393110Y-8145460D01*
X8393110Y-8105460D02*
X8353110Y-8145460D01*
X9266875Y-8431750D02*
X9306875Y-8471750D01*
X9306875Y-8431750D02*
X9266875Y-8471750D01*
X10521100Y-8349200D02*
X10561100Y-8389200D01*
X10561100Y-8349200D02*
X10521100Y-8389200D01*
X10966770Y-5046030D02*
X11006770Y-5086030D01*
X11006770Y-5046030D02*
X10966770Y-5086030D01*
X11606850Y-1365570D02*
X11646850Y-1405570D01*
X11646850Y-1365570D02*
X11606850Y-1405570D01*
X11648125Y-8101750D02*
X11688125Y-8141750D01*
X11688125Y-8101750D02*
X11648125Y-8141750D01*
X12047540Y-8522020D02*
X12087540Y-8562020D01*
X12087540Y-8522020D02*
X12047540Y-8562020D01*
X12189780Y-8241350D02*
X12229780Y-8281350D01*
X12229780Y-8241350D02*
X12189780Y-8281350D01*
X12600625Y-6482500D02*
X12640625Y-6522500D01*
X12640625Y-6482500D02*
X12600625Y-6522500D01*
X12600625Y-6812500D02*
X12640625Y-6852500D01*
X12640625Y-6812500D02*
X12600625Y-6852500D01*
X12662220Y-4633280D02*
X12702220Y-4673280D01*
X12702220Y-4633280D02*
X12662220Y-4673280D01*
X13315712Y-2502287D02*
X13355712Y-2542287D01*
X13355712Y-2502287D02*
X13315712Y-2542287D01*
X14097878Y-4912613D02*
X14137878Y-4952613D01*
X14137878Y-4912613D02*
X14097878Y-4952613D01*
X14528562Y-6585337D02*
X14568562Y-6625337D01*
X14568562Y-6585337D02*
X14528562Y-6625337D01*
X15132928Y-3160013D02*
X15172928Y-3200013D01*
X15172928Y-3160013D02*
X15132928Y-3200013D01*
X15190232Y-2835027D02*
X15230232Y-2875027D01*
X15230232Y-2835027D02*
X15190232Y-2875027D01*
X15427010Y-5245420D02*
X15467010Y-5285420D01*
X15467010Y-5245420D02*
X15427010Y-5285420D01*
X15427010Y-5984560D02*
X15467010Y-6024560D01*
X15467010Y-5984560D02*
X15427010Y-6024560D01*
X15491780Y-7928930D02*
X15531780Y-7968930D01*
X15531780Y-7928930D02*
X15491780Y-7968930D01*
X15965818Y-5399418D02*
X16005818Y-5439418D01*
X16005818Y-5399418D02*
X15965818Y-5439418D01*
X16405622Y-6916807D02*
X16445622Y-6956807D01*
X16445622Y-6916807D02*
X16405622Y-6956807D01*
X16686850Y-7301550D02*
X16726850Y-7341550D01*
X16726850Y-7301550D02*
X16686850Y-7341550D01*
X16951010Y-7400610D02*
X16991010Y-7440610D01*
X16991010Y-7400610D02*
X16951010Y-7440610D01*
X17067292Y-3163957D02*
X17107292Y-3203957D01*
X17107292Y-3163957D02*
X17067292Y-3203957D01*
X17713010Y-7067870D02*
X17753010Y-7107870D01*
X17753010Y-7067870D02*
X17713010Y-7107870D01*
X17908032Y-5248027D02*
X17948032Y-5288027D01*
X17948032Y-5248027D02*
X17908032Y-5288027D01*
X18015270Y-4107500D02*
X18055270Y-4147500D01*
X18055270Y-4107500D02*
X18015270Y-4147500D01*
X18015270Y-4789490D02*
X18055270Y-4829490D01*
X18055270Y-4789490D02*
X18015270Y-4829490D01*
X18281412Y-7245737D02*
X18321412Y-7285737D01*
X18321412Y-7245737D02*
X18281412Y-7285737D01*
X18782908Y-9606533D02*
X18822908Y-9646533D01*
X18822908Y-9606533D02*
X18782908Y-9646533D01*
X18887048Y-3817873D02*
X18927048Y-3857873D01*
X18927048Y-3817873D02*
X18887048Y-3857873D01*
X19282656Y-6496296D02*
X19322656Y-6536296D01*
X19322656Y-6496296D02*
X19282656Y-6536296D01*
X19595150Y-1869760D02*
X19635150Y-1909760D01*
X19635150Y-1869760D02*
X19595150Y-1909760D01*
X19602770Y-3729040D02*
X19642770Y-3769040D01*
X19642770Y-3729040D02*
X19602770Y-3769040D01*
X20096800Y-7903530D02*
X20136800Y-7943530D01*
X20136800Y-7903530D02*
X20096800Y-7943530D01*
X20157202Y-7579747D02*
X20197202Y-7619747D01*
X20197202Y-7579747D02*
X20157202Y-7619747D01*
X20661238Y-9936733D02*
X20701238Y-9976733D01*
X20701238Y-9936733D02*
X20661238Y-9976733D01*
X20718542Y-9611747D02*
X20758542Y-9651747D01*
X20758542Y-9611747D02*
X20718542Y-9651747D01*
X21181380Y-3957640D02*
X21221380Y-3997640D01*
X21221380Y-3957640D02*
X21181380Y-3997640D01*
X21326160Y-6252530D02*
X21366160Y-6292530D01*
X21366160Y-6252530D02*
X21326160Y-6292530D01*
X21592860Y-3336610D02*
X21632860Y-3376610D01*
X21632860Y-3336610D02*
X21592860Y-3376610D01*
X21674286Y-8271684D02*
X21714286Y-8311684D01*
X21714286Y-8271684D02*
X21674286Y-8311684D01*
X21714780Y-5650550D02*
X21754780Y-5690550D01*
X21754780Y-5650550D02*
X21714780Y-5690550D01*
X21746786Y-6716080D02*
X21786786Y-6756080D01*
X21786786Y-6716080D02*
X21746786Y-6756080D01*
X21781378Y-9618097D02*
X21821378Y-9658097D01*
X21821378Y-9618097D02*
X21781378Y-9658097D01*
X21819286Y-5960430D02*
X21859286Y-6000430D01*
X21859286Y-5960430D02*
X21819286Y-6000430D01*
X21834160Y-9943150D02*
X21874160Y-9983150D01*
X21874160Y-9943150D02*
X21834160Y-9983150D01*
X21878216Y-3420430D02*
X21918216Y-3460430D01*
X21918216Y-3420430D02*
X21878216Y-3460430D01*
X21901470Y-6556060D02*
X21941470Y-6596060D01*
X21941470Y-6556060D02*
X21901470Y-6596060D01*
X21942110Y-7799390D02*
X21982110Y-7839390D01*
X21982110Y-7799390D02*
X21942110Y-7839390D01*
X22178330Y-5390200D02*
X22218330Y-5430200D01*
X22218330Y-5390200D02*
X22178330Y-5430200D01*
X22560600Y-6906580D02*
X22600600Y-6946580D01*
X22600600Y-6906580D02*
X22560600Y-6946580D01*
X23384272Y-7738363D02*
X23424272Y-7778363D01*
X23424272Y-7738363D02*
X23384272Y-7778363D01*
X23602558Y-3492887D02*
X23642558Y-3532887D01*
X23642558Y-3492887D02*
X23602558Y-3532887D01*
X24402658Y-5288667D02*
X24442658Y-5328667D01*
X24442658Y-5288667D02*
X24402658Y-5328667D01*
X24459962Y-5613653D02*
X24499962Y-5653653D01*
X24499962Y-5613653D02*
X24459962Y-5653653D01*
X24917720Y-6910390D02*
X24957720Y-6950390D01*
X24957720Y-6910390D02*
X24917720Y-6950390D01*
X26144540Y-1446850D02*
X26184540Y-1486850D01*
X26184540Y-1446850D02*
X26144540Y-1486850D01*
X26337022Y-5284723D02*
X26377022Y-5324723D01*
X26377022Y-5284723D02*
X26337022Y-5324723D01*
X26501410Y-4769170D02*
X26541410Y-4809170D01*
X26541410Y-4769170D02*
X26501410Y-4809170D01*
X26632220Y-4898710D02*
X26672220Y-4938710D01*
X26672220Y-4898710D02*
X26632220Y-4938710D01*
X27412712Y-3157473D02*
X27452712Y-3197473D01*
X27452712Y-3157473D02*
X27412712Y-3197473D01*
X27911110Y-8475030D02*
X27951110Y-8515030D01*
X27951110Y-8475030D02*
X27911110Y-8515030D01*
X29012912Y-6749033D02*
X29052912Y-6789033D01*
X29052912Y-6749033D02*
X29012912Y-6789033D01*
X29408440Y-3360740D02*
X29448440Y-3400740D01*
X29448440Y-3360740D02*
X29408440Y-3400740D01*
X29606560Y-4689160D02*
X29646560Y-4729160D01*
X29646560Y-4689160D02*
X29606560Y-4729160D01*
X29758904Y-3002500D02*
X29798904Y-3042500D01*
X29798904Y-3002500D02*
X29758904Y-3042500D01*
X30367290Y-6954840D02*
X30407290Y-6994840D01*
X30407290Y-6954840D02*
X30367290Y-6994840D01*
X30668280Y-7344730D02*
X30708280Y-7384730D01*
X30708280Y-7344730D02*
X30668280Y-7384730D01*
X30711404Y-4907500D02*
X30751404Y-4947500D01*
X30751404Y-4907500D02*
X30711404Y-4947500D01*
X30949529Y-6812500D02*
X30989529Y-6852500D01*
X30989529Y-6812500D02*
X30949529Y-6852500D01*
X31282904Y-5202875D02*
X31322904Y-5242875D01*
X31322904Y-5202875D02*
X31282904Y-5242875D01*
X31416382Y-8038078D02*
X31456382Y-8078078D01*
X31456382Y-8038078D02*
X31416382Y-8078078D01*
X31934935Y-8382785D02*
X31974935Y-8422785D01*
X31974935Y-8382785D02*
X31934935Y-8422785D01*
X32451360Y-7763830D02*
X32491360Y-7803830D01*
X32491360Y-7763830D02*
X32451360Y-7803830D01*
X32616404Y-4907500D02*
X32656404Y-4947500D01*
X32656404Y-4907500D02*
X32616404Y-4947500D01*
X32853950Y-6812600D02*
X32893950Y-6852600D01*
X32893950Y-6812600D02*
X32853950Y-6852600D01*
X32854529Y-8479375D02*
X32894529Y-8519375D01*
X32894529Y-8479375D02*
X32854529Y-8519375D01*
X37922520Y-7089460D02*
X37962520Y-7129460D01*
X37962520Y-7089460D02*
X37922520Y-7129460D01*
X38312404Y-8479375D02*
X38352404Y-8519375D01*
X38352404Y-8479375D02*
X38312404Y-8519375D01*
X42394904Y250000D02*
G75*
G03*
X42394904Y250000I-50000J0D01*
G01*
X42394904Y0D02*
G75*
G03*
X42394904Y0I-50000J0D01*
G01*
X42394904Y-250000D02*
G75*
G03*
X42394904Y-250000I-50000J0D01*
G01*
X43844904Y250000D02*
G75*
G03*
X43844904Y250000I-50000J0D01*
G01*
X43844904Y-250000D02*
G75*
G03*
X43844904Y-250000I-50000J0D01*
G01*
X20551140Y859790D02*
X20551140Y750570D01*
X20496530Y805180D02*
X20605750Y805180D01*
X20551140Y605790D02*
X20551140Y496570D01*
X20496530Y551180D02*
X20605750Y551180D01*
X20551140Y351790D02*
X20551140Y242570D01*
X20496530Y297180D02*
X20605750Y297180D01*
X20551140Y97790D02*
X20551140Y-11430D01*
X20496530Y43180D02*
X20605750Y43180D01*
X20551140Y-156210D02*
X20551140Y-265430D01*
X20496530Y-210820D02*
X20605750Y-210820D01*
X20551140Y-410210D02*
X20551140Y-519430D01*
X20496530Y-464820D02*
X20605750Y-464820D01*
X20551140Y-664210D02*
X20551140Y-773430D01*
X20496530Y-718820D02*
X20605750Y-718820D01*
X20551140Y-918210D02*
X20551140Y-1027430D01*
X20496530Y-972820D02*
X20605750Y-972820D01*
X20551140Y-1172210D02*
X20551140Y-1281430D01*
X20496530Y-1226820D02*
X20605750Y-1226820D01*
X20551140Y-1426210D02*
X20551140Y-1535430D01*
X20496530Y-1480820D02*
X20605750Y-1480820D01*
X20551140Y-1680210D02*
X20551140Y-1789430D01*
X20496530Y-1734820D02*
X20605750Y-1734820D01*
X20574000Y-1934210D02*
X20574000Y-2043430D01*
X20519390Y-1988820D02*
X20628610Y-1988820D01*
X20805140Y-1934210D02*
X20805140Y-2043430D01*
X20750530Y-1988820D02*
X20859750Y-1988820D01*
X21059140Y-1934210D02*
X21059140Y-2043430D01*
X21004530Y-1988820D02*
X21113750Y-1988820D01*
X21313140Y-1934210D02*
X21313140Y-2043430D01*
X21258530Y-1988820D02*
X21367750Y-1988820D01*
X21567140Y-1934210D02*
X21567140Y-2043430D01*
X21512530Y-1988820D02*
X21621750Y-1988820D01*
X21821140Y-1934210D02*
X21821140Y-2043430D01*
X21766530Y-1988820D02*
X21875750Y-1988820D01*
X22075140Y859790D02*
X22075140Y750570D01*
X22020530Y805180D02*
X22129750Y805180D01*
X22075140Y605790D02*
X22075140Y496570D01*
X22020530Y551180D02*
X22129750Y551180D01*
X22075140Y351790D02*
X22075140Y242570D01*
X22020530Y297180D02*
X22129750Y297180D01*
X22075140Y97790D02*
X22075140Y-11430D01*
X22020530Y43180D02*
X22129750Y43180D01*
X22075140Y-156210D02*
X22075140Y-265430D01*
X22020530Y-210820D02*
X22129750Y-210820D01*
X22075140Y-410210D02*
X22075140Y-519430D01*
X22020530Y-464820D02*
X22129750Y-464820D01*
X22075140Y-664210D02*
X22075140Y-773430D01*
X22020530Y-718820D02*
X22129750Y-718820D01*
X22075140Y-918210D02*
X22075140Y-1027430D01*
X22020530Y-972820D02*
X22129750Y-972820D01*
X22075140Y-1172210D02*
X22075140Y-1281430D01*
X22020530Y-1226820D02*
X22129750Y-1226820D01*
X22075140Y-1426210D02*
X22075140Y-1535430D01*
X22020530Y-1480820D02*
X22129750Y-1480820D01*
X22075140Y-1680210D02*
X22075140Y-1789430D01*
X22020530Y-1734820D02*
X22129750Y-1734820D01*
X22075140Y-1934210D02*
X22075140Y-2043430D01*
X22020530Y-1988820D02*
X22129750Y-1988820D01*
X-329027Y202027D02*
X-329027Y305973D01*
X-432973Y305973D01*
X-432973Y202027D01*
X-329027Y202027D01*
X-329027Y-1702973D02*
X-329027Y-1599027D01*
X-432973Y-1599027D01*
X-432973Y-1702973D01*
X-329027Y-1702973D01*
X-329027Y-3607973D02*
X-329027Y-3504027D01*
X-432973Y-3504027D01*
X-432973Y-3607973D01*
X-329027Y-3607973D01*
X-329027Y-5512973D02*
X-329027Y-5409027D01*
X-432973Y-5409027D01*
X-432973Y-5512973D01*
X-329027Y-5512973D01*
X-329027Y-7417973D02*
X-329027Y-7314027D01*
X-432973Y-7314027D01*
X-432973Y-7417973D01*
X-329027Y-7417973D01*
X305973Y456027D02*
X305973Y559973D01*
X202027Y559973D01*
X202027Y456027D01*
X305973Y456027D01*
X305973Y-1448973D02*
X305973Y-1345027D01*
X202027Y-1345027D01*
X202027Y-1448973D01*
X305973Y-1448973D01*
X305973Y-3353973D02*
X305973Y-3250027D01*
X202027Y-3250027D01*
X202027Y-3353973D01*
X305973Y-3353973D01*
X305973Y-5258973D02*
X305973Y-5155027D01*
X202027Y-5155027D01*
X202027Y-5258973D01*
X305973Y-5258973D01*
X305973Y-7163973D02*
X305973Y-7060027D01*
X202027Y-7060027D01*
X202027Y-7163973D01*
X305973Y-7163973D01*
X623473Y-7417973D02*
X623473Y-7314027D01*
X519527Y-7314027D01*
X519527Y-7417973D01*
X623473Y-7417973D01*
X1258473Y-7163973D02*
X1258473Y-7060027D01*
X1154527Y-7060027D01*
X1154527Y-7163973D01*
X1258473Y-7163973D01*
X1575973Y202027D02*
X1575973Y305973D01*
X1472027Y305973D01*
X1472027Y202027D01*
X1575973Y202027D01*
X1575973Y-1702973D02*
X1575973Y-1599027D01*
X1472027Y-1599027D01*
X1472027Y-1702973D01*
X1575973Y-1702973D01*
X1575973Y-3607973D02*
X1575973Y-3504027D01*
X1472027Y-3504027D01*
X1472027Y-3607973D01*
X1575973Y-3607973D01*
X1575973Y-5512973D02*
X1575973Y-5409027D01*
X1472027Y-5409027D01*
X1472027Y-5512973D01*
X1575973Y-5512973D01*
X1575973Y-7417973D02*
X1575973Y-7314027D01*
X1472027Y-7314027D01*
X1472027Y-7417973D01*
X1575973Y-7417973D01*
X2210973Y456027D02*
X2210973Y559973D01*
X2107027Y559973D01*
X2107027Y456027D01*
X2210973Y456027D01*
X2210973Y-1448973D02*
X2210973Y-1345027D01*
X2107027Y-1345027D01*
X2107027Y-1448973D01*
X2210973Y-1448973D01*
X2210973Y-3353973D02*
X2210973Y-3250027D01*
X2107027Y-3250027D01*
X2107027Y-3353973D01*
X2210973Y-3353973D01*
X2210973Y-5258973D02*
X2210973Y-5155027D01*
X2107027Y-5155027D01*
X2107027Y-5258973D01*
X2210973Y-5258973D01*
X2210973Y-7163973D02*
X2210973Y-7060027D01*
X2107027Y-7060027D01*
X2107027Y-7163973D01*
X2210973Y-7163973D01*
X3480973Y202027D02*
X3480973Y305973D01*
X3377027Y305973D01*
X3377027Y202027D01*
X3480973Y202027D01*
X3480973Y-1702973D02*
X3480973Y-1599027D01*
X3377027Y-1599027D01*
X3377027Y-1702973D01*
X3480973Y-1702973D01*
X3480973Y-3607973D02*
X3480973Y-3504027D01*
X3377027Y-3504027D01*
X3377027Y-3607973D01*
X3480973Y-3607973D01*
X3480973Y-5512973D02*
X3480973Y-5409027D01*
X3377027Y-5409027D01*
X3377027Y-5512973D01*
X3480973Y-5512973D01*
X3480973Y-7417973D02*
X3480973Y-7314027D01*
X3377027Y-7314027D01*
X3377027Y-7417973D01*
X3480973Y-7417973D01*
X4115973Y456027D02*
X4115973Y559973D01*
X4012027Y559973D01*
X4012027Y456027D01*
X4115973Y456027D01*
X4115973Y-1448973D02*
X4115973Y-1345027D01*
X4012027Y-1345027D01*
X4012027Y-1448973D01*
X4115973Y-1448973D01*
X4115973Y-3353973D02*
X4115973Y-3250027D01*
X4012027Y-3250027D01*
X4012027Y-3353973D01*
X4115973Y-3353973D01*
X4115973Y-5258973D02*
X4115973Y-5155027D01*
X4012027Y-5155027D01*
X4012027Y-5258973D01*
X4115973Y-5258973D01*
X4115973Y-7163973D02*
X4115973Y-7060027D01*
X4012027Y-7060027D01*
X4012027Y-7163973D01*
X4115973Y-7163973D01*
X5258973Y-2655473D02*
X5258973Y-2551527D01*
X5155027Y-2551527D01*
X5155027Y-2655473D01*
X5258973Y-2655473D01*
X5258973Y-6465473D02*
X5258973Y-6361527D01*
X5155027Y-6361527D01*
X5155027Y-6465473D01*
X5258973Y-6465473D01*
X5385973Y202027D02*
X5385973Y305973D01*
X5282027Y305973D01*
X5282027Y202027D01*
X5385973Y202027D01*
X5512973Y-3290473D02*
X5512973Y-3186527D01*
X5409027Y-3186527D01*
X5409027Y-3290473D01*
X5512973Y-3290473D01*
X5512973Y-7100473D02*
X5512973Y-6996527D01*
X5409027Y-6996527D01*
X5409027Y-7100473D01*
X5512973Y-7100473D01*
X6020973Y456027D02*
X6020973Y559973D01*
X5917027Y559973D01*
X5917027Y456027D01*
X6020973Y456027D01*
X7529098Y202027D02*
X7529098Y305973D01*
X7425152Y305973D01*
X7425152Y202027D01*
X7529098Y202027D01*
X7767223Y-1702973D02*
X7767223Y-1599027D01*
X7663277Y-1599027D01*
X7663277Y-1702973D01*
X7767223Y-1702973D01*
X7767223Y-7417973D02*
X7767223Y-7314027D01*
X7663277Y-7314027D01*
X7663277Y-7417973D01*
X7767223Y-7417973D01*
X8005348Y-3607973D02*
X8005348Y-3504027D01*
X7901402Y-3504027D01*
X7901402Y-3607973D01*
X8005348Y-3607973D01*
X8164098Y456027D02*
X8164098Y559973D01*
X8060152Y559973D01*
X8060152Y456027D01*
X8164098Y456027D01*
X8243473Y-3607973D02*
X8243473Y-3504027D01*
X8139527Y-3504027D01*
X8139527Y-3607973D01*
X8243473Y-3607973D01*
X8402223Y-1448973D02*
X8402223Y-1345027D01*
X8298277Y-1345027D01*
X8298277Y-1448973D01*
X8402223Y-1448973D01*
X8402223Y-7163973D02*
X8402223Y-7060027D01*
X8298277Y-7060027D01*
X8298277Y-7163973D01*
X8402223Y-7163973D01*
X8481598Y-5512973D02*
X8481598Y-5409027D01*
X8377652Y-5409027D01*
X8377652Y-5512973D01*
X8481598Y-5512973D01*
X8640348Y-3353973D02*
X8640348Y-3250027D01*
X8536402Y-3250027D01*
X8536402Y-3353973D01*
X8640348Y-3353973D01*
X8878473Y-3353973D02*
X8878473Y-3250027D01*
X8774527Y-3250027D01*
X8774527Y-3353973D01*
X8878473Y-3353973D01*
X9116598Y-5258973D02*
X9116598Y-5155027D01*
X9012652Y-5155027D01*
X9012652Y-5258973D01*
X9116598Y-5258973D01*
X9434098Y202027D02*
X9434098Y305973D01*
X9330152Y305973D01*
X9330152Y202027D01*
X9434098Y202027D01*
X9910348Y-1702973D02*
X9910348Y-1599027D01*
X9806402Y-1599027D01*
X9806402Y-1702973D01*
X9910348Y-1702973D01*
X10069098Y456027D02*
X10069098Y559973D01*
X9965152Y559973D01*
X9965152Y456027D01*
X10069098Y456027D01*
X10148473Y-7417973D02*
X10148473Y-7314027D01*
X10044527Y-7314027D01*
X10044527Y-7417973D01*
X10148473Y-7417973D01*
X10545348Y-1448973D02*
X10545348Y-1345027D01*
X10441402Y-1345027D01*
X10441402Y-1448973D01*
X10545348Y-1448973D01*
X10783473Y-7163973D02*
X10783473Y-7060027D01*
X10679527Y-7060027D01*
X10679527Y-7163973D01*
X10783473Y-7163973D01*
X10862848Y-3607973D02*
X10862848Y-3504027D01*
X10758902Y-3504027D01*
X10758902Y-3607973D01*
X10862848Y-3607973D01*
X11339098Y440152D02*
X11339098Y544098D01*
X11235152Y544098D01*
X11235152Y440152D01*
X11339098Y440152D01*
X11339098Y-5512973D02*
X11339098Y-5409027D01*
X11235152Y-5409027D01*
X11235152Y-5512973D01*
X11339098Y-5512973D01*
X11497848Y-3353973D02*
X11497848Y-3250027D01*
X11393902Y-3250027D01*
X11393902Y-3353973D01*
X11497848Y-3353973D01*
X11974098Y694152D02*
X11974098Y798098D01*
X11870152Y798098D01*
X11870152Y694152D01*
X11974098Y694152D01*
X11974098Y-5258973D02*
X11974098Y-5155027D01*
X11870152Y-5155027D01*
X11870152Y-5258973D01*
X11974098Y-5258973D01*
X12212091Y-1556345D02*
X12212091Y-1452399D01*
X12108145Y-1452399D01*
X12108145Y-1556345D01*
X12212091Y-1556345D01*
X12881550Y-1416470D02*
X12881550Y-1312525D01*
X12777605Y-1312525D01*
X12777605Y-1416470D01*
X12881550Y-1416470D01*
X13053828Y-3639153D02*
X13053828Y-3535208D01*
X12949882Y-3535208D01*
X12949882Y-3639153D01*
X13053828Y-3639153D01*
X13266816Y-7642203D02*
X13266816Y-7538258D01*
X13162871Y-7538258D01*
X13162871Y-7642203D01*
X13266816Y-7642203D01*
X13426550Y-5639262D02*
X13426550Y-5535316D01*
X13322604Y-5535316D01*
X13322604Y-5639262D01*
X13426550Y-5639262D01*
X13480920Y154314D02*
X13480920Y258260D01*
X13376974Y258260D01*
X13376974Y154314D01*
X13480920Y154314D01*
X13723287Y-3499279D02*
X13723287Y-3395333D01*
X13619342Y-3395333D01*
X13619342Y-3499279D01*
X13723287Y-3499279D01*
X13936276Y-7502329D02*
X13936276Y-7398383D01*
X13832330Y-7398383D01*
X13832330Y-7502329D01*
X13936276Y-7502329D01*
X14088149Y-1887144D02*
X14088149Y-1783199D01*
X13984204Y-1783199D01*
X13984204Y-1887144D01*
X14088149Y-1887144D01*
X14096010Y-5499387D02*
X14096010Y-5395442D01*
X13992064Y-5395442D01*
X13992064Y-5499387D01*
X14096010Y-5499387D01*
X14150379Y294189D02*
X14150379Y398134D01*
X14046434Y398134D01*
X14046434Y294189D01*
X14150379Y294189D01*
X14757609Y-1747270D02*
X14757609Y-1643324D01*
X14653663Y-1643324D01*
X14653663Y-1747270D01*
X14757609Y-1747270D01*
X14929887Y-3969953D02*
X14929887Y-3866007D01*
X14825941Y-3866007D01*
X14825941Y-3969953D01*
X14929887Y-3969953D01*
X15302609Y-5970062D02*
X15302609Y-5866116D01*
X15198663Y-5866116D01*
X15198663Y-5970062D01*
X15302609Y-5970062D01*
X15356978Y-176486D02*
X15356978Y-72540D01*
X15253033Y-72540D01*
X15253033Y-176486D01*
X15356978Y-176486D01*
X15599346Y-3830078D02*
X15599346Y-3726133D01*
X15495400Y-3726133D01*
X15495400Y-3830078D01*
X15599346Y-3830078D01*
X15964208Y-2217944D02*
X15964208Y-2113999D01*
X15860263Y-2113999D01*
X15860263Y-2217944D01*
X15964208Y-2217944D01*
X15972068Y-5830187D02*
X15972068Y-5726241D01*
X15868123Y-5726241D01*
X15868123Y-5830187D01*
X15972068Y-5830187D01*
X16026438Y-36611D02*
X16026438Y67335D01*
X15922492Y67335D01*
X15922492Y-36611D01*
X16026438Y-36611D01*
X16549919Y-8221103D02*
X16549919Y-8117157D01*
X16445973Y-8117157D01*
X16445973Y-8221103D01*
X16549919Y-8221103D01*
X16633668Y-2078070D02*
X16633668Y-1974124D01*
X16529722Y-1974124D01*
X16529722Y-2078070D01*
X16633668Y-2078070D01*
X16805945Y-4300753D02*
X16805945Y-4196807D01*
X16702000Y-4196807D01*
X16702000Y-4300753D01*
X16805945Y-4300753D01*
X17178668Y-6300861D02*
X17178668Y-6196916D01*
X17074722Y-6196916D01*
X17074722Y-6300861D01*
X17178668Y-6300861D01*
X17219379Y-8081228D02*
X17219379Y-7977283D01*
X17115433Y-7977283D01*
X17115433Y-8081228D01*
X17219379Y-8081228D01*
X17233037Y-507285D02*
X17233037Y-403340D01*
X17129092Y-403340D01*
X17129092Y-507285D01*
X17233037Y-507285D01*
X17475405Y-4160878D02*
X17475405Y-4056933D01*
X17371459Y-4056933D01*
X17371459Y-4160878D01*
X17475405Y-4160878D01*
X17840267Y-2548744D02*
X17840267Y-2444798D01*
X17736321Y-2444798D01*
X17736321Y-2548744D01*
X17840267Y-2548744D01*
X17848127Y-6160987D02*
X17848127Y-6057041D01*
X17744181Y-6057041D01*
X17744181Y-6160987D01*
X17848127Y-6160987D01*
X17902497Y-367411D02*
X17902497Y-263465D01*
X17798551Y-263465D01*
X17798551Y-367411D01*
X17902497Y-367411D01*
X18509726Y-2408869D02*
X18509726Y-2304924D01*
X18405781Y-2304924D01*
X18405781Y-2408869D01*
X18509726Y-2408869D01*
X18682004Y-4631553D02*
X18682004Y-4527607D01*
X18578058Y-4527607D01*
X18578058Y-4631553D01*
X18682004Y-4631553D01*
X19054726Y-6631661D02*
X19054726Y-6527715D01*
X18950781Y-6527715D01*
X18950781Y-6631661D01*
X19054726Y-6631661D01*
X19109096Y-838085D02*
X19109096Y-734139D01*
X19005150Y-734139D01*
X19005150Y-838085D01*
X19109096Y-838085D01*
X19351464Y-4491678D02*
X19351464Y-4387732D01*
X19247518Y-4387732D01*
X19247518Y-4491678D01*
X19351464Y-4491678D01*
X19615055Y-8664850D02*
X19615055Y-8560904D01*
X19511109Y-8560904D01*
X19511109Y-8664850D01*
X19615055Y-8664850D01*
X19724186Y-6491786D02*
X19724186Y-6387841D01*
X19620240Y-6387841D01*
X19620240Y-6491786D01*
X19724186Y-6491786D01*
X19778555Y-698210D02*
X19778555Y-594265D01*
X19674610Y-594265D01*
X19674610Y-698210D01*
X19778555Y-698210D01*
X20284514Y-8524975D02*
X20284514Y-8421030D01*
X20180568Y-8421030D01*
X20180568Y-8524975D01*
X20284514Y-8524975D01*
X21947223Y-6929381D02*
X21947223Y-6825435D01*
X21843277Y-6825435D01*
X21843277Y-6929381D01*
X21947223Y-6929381D01*
X22223653Y-3011863D02*
X22223653Y-2907918D01*
X22119707Y-2907918D01*
X22119707Y-3011863D01*
X22223653Y-3011863D01*
X22528469Y-6568973D02*
X22528469Y-6465027D01*
X22424524Y-6465027D01*
X22424524Y-6568973D01*
X22528469Y-6568973D01*
X22804899Y-2651456D02*
X22804899Y-2547510D01*
X22700954Y-2547510D01*
X22700954Y-2651456D01*
X22804899Y-2651456D01*
X22830883Y-970405D02*
X22830883Y-866459D01*
X22726937Y-866459D01*
X22726937Y-970405D01*
X22830883Y-970405D01*
X23023467Y-4805222D02*
X23023467Y-4701277D01*
X22919522Y-4701277D01*
X22919522Y-4805222D01*
X23023467Y-4805222D01*
X23412129Y-609997D02*
X23412129Y-506051D01*
X23308183Y-506051D01*
X23308183Y-609997D01*
X23412129Y-609997D01*
X23604714Y-4444815D02*
X23604714Y-4340869D01*
X23500768Y-4340869D01*
X23500768Y-4444815D01*
X23604714Y-4444815D01*
X23823282Y-6598581D02*
X23823282Y-6494635D01*
X23719336Y-6494635D01*
X23719336Y-6598581D01*
X23823282Y-6598581D01*
X23919574Y-8515990D02*
X23919574Y-8412044D01*
X23815628Y-8412044D01*
X23815628Y-8515990D01*
X23919574Y-8515990D01*
X24099712Y-2681064D02*
X24099712Y-2577118D01*
X23995766Y-2577118D01*
X23995766Y-2681064D01*
X24099712Y-2681064D01*
X24404528Y-6238173D02*
X24404528Y-6134228D01*
X24300582Y-6134228D01*
X24300582Y-6238173D01*
X24404528Y-6238173D01*
X24500820Y-8155582D02*
X24500820Y-8051636D01*
X24396875Y-8051636D01*
X24396875Y-8155582D01*
X24500820Y-8155582D01*
X24680958Y-2320656D02*
X24680958Y-2216710D01*
X24577012Y-2216710D01*
X24577012Y-2320656D01*
X24680958Y-2320656D01*
X24706941Y-639605D02*
X24706941Y-535660D01*
X24602996Y-535660D01*
X24602996Y-639605D01*
X24706941Y-639605D01*
X24899526Y-4474423D02*
X24899526Y-4370477D01*
X24795580Y-4370477D01*
X24795580Y-4474423D01*
X24899526Y-4474423D01*
X25288188Y-279197D02*
X25288188Y-175252D01*
X25184242Y-175252D01*
X25184242Y-279197D01*
X25288188Y-279197D01*
X25480772Y-4114015D02*
X25480772Y-4010069D01*
X25376827Y-4010069D01*
X25376827Y-4114015D01*
X25480772Y-4114015D01*
X25699340Y-6267781D02*
X25699340Y-6163836D01*
X25595395Y-6163836D01*
X25595395Y-6267781D01*
X25699340Y-6267781D01*
X25975770Y-2350264D02*
X25975770Y-2246319D01*
X25871825Y-2246319D01*
X25871825Y-2350264D01*
X25975770Y-2350264D01*
X26280587Y-5907373D02*
X26280587Y-5803428D01*
X26176641Y-5803428D01*
X26176641Y-5907373D01*
X26280587Y-5907373D01*
X26557017Y-1989856D02*
X26557017Y-1885911D01*
X26453071Y-1885911D01*
X26453071Y-1989856D01*
X26557017Y-1989856D01*
X26583000Y-308806D02*
X26583000Y-204860D01*
X26479054Y-204860D01*
X26479054Y-308806D01*
X26583000Y-308806D01*
X26775585Y-4143623D02*
X26775585Y-4039677D01*
X26671639Y-4039677D01*
X26671639Y-4143623D01*
X26775585Y-4143623D01*
X27164246Y51602D02*
X27164246Y155548D01*
X27060301Y155548D01*
X27060301Y51602D01*
X27164246Y51602D01*
X27356831Y-3783215D02*
X27356831Y-3679269D01*
X27252885Y-3679269D01*
X27252885Y-3783215D01*
X27356831Y-3783215D01*
X27575399Y-5936982D02*
X27575399Y-5833036D01*
X27471453Y-5833036D01*
X27471453Y-5936982D01*
X27575399Y-5936982D01*
X27671691Y-7854390D02*
X27671691Y-7750445D01*
X27567746Y-7750445D01*
X27567746Y-7854390D01*
X27671691Y-7854390D01*
X27851829Y-2019464D02*
X27851829Y-1915519D01*
X27747883Y-1915519D01*
X27747883Y-2019464D01*
X27851829Y-2019464D01*
X28156645Y-5576574D02*
X28156645Y-5472628D01*
X28052700Y-5472628D01*
X28052700Y-5576574D01*
X28156645Y-5576574D01*
X28252938Y-7493982D02*
X28252938Y-7390037D01*
X28148992Y-7390037D01*
X28148992Y-7493982D01*
X28252938Y-7493982D01*
X28433075Y-1659057D02*
X28433075Y-1555111D01*
X28329130Y-1555111D01*
X28329130Y-1659057D01*
X28433075Y-1659057D01*
X28459059Y21994D02*
X28459059Y125940D01*
X28355113Y125940D01*
X28355113Y21994D01*
X28459059Y21994D01*
X28651643Y-3812823D02*
X28651643Y-3708878D01*
X28547698Y-3708878D01*
X28547698Y-3812823D01*
X28651643Y-3812823D01*
X29040305Y382402D02*
X29040305Y486348D01*
X28936359Y486348D01*
X28936359Y382402D01*
X29040305Y382402D01*
X29232890Y-3452415D02*
X29232890Y-3348470D01*
X29128944Y-3348470D01*
X29128944Y-3452415D01*
X29232890Y-3452415D01*
X29451458Y-5606182D02*
X29451458Y-5502236D01*
X29347512Y-5502236D01*
X29347512Y-5606182D01*
X29451458Y-5606182D01*
X30032704Y-5245774D02*
X30032704Y-5141829D01*
X29928758Y-5141829D01*
X29928758Y-5245774D01*
X30032704Y-5245774D01*
X30402377Y-1702973D02*
X30402377Y-1599027D01*
X30298431Y-1599027D01*
X30298431Y-1702973D01*
X30402377Y-1702973D01*
X30640502Y202027D02*
X30640502Y305973D01*
X30536556Y305973D01*
X30536556Y202027D01*
X30640502Y202027D01*
X31037377Y-1448973D02*
X31037377Y-1345027D01*
X30933431Y-1345027D01*
X30933431Y-1448973D01*
X31037377Y-1448973D01*
X31275502Y456027D02*
X31275502Y559973D01*
X31171556Y559973D01*
X31171556Y456027D01*
X31275502Y456027D01*
X31354877Y-3607973D02*
X31354877Y-3504027D01*
X31250931Y-3504027D01*
X31250931Y-3607973D01*
X31354877Y-3607973D01*
X31354877Y-7417973D02*
X31354877Y-7314027D01*
X31250931Y-7314027D01*
X31250931Y-7417973D01*
X31354877Y-7417973D01*
X31593002Y-5512973D02*
X31593002Y-5409027D01*
X31489056Y-5409027D01*
X31489056Y-5512973D01*
X31593002Y-5512973D01*
X31989877Y-3353973D02*
X31989877Y-3250027D01*
X31885931Y-3250027D01*
X31885931Y-3353973D01*
X31989877Y-3353973D01*
X31989877Y-7163973D02*
X31989877Y-7060027D01*
X31885931Y-7060027D01*
X31885931Y-7163973D01*
X31989877Y-7163973D01*
X32228002Y-5258973D02*
X32228002Y-5155027D01*
X32124056Y-5155027D01*
X32124056Y-5258973D01*
X32228002Y-5258973D01*
X32307377Y-1702973D02*
X32307377Y-1599027D01*
X32203431Y-1599027D01*
X32203431Y-1702973D01*
X32307377Y-1702973D01*
X32545502Y202027D02*
X32545502Y305973D01*
X32441556Y305973D01*
X32441556Y202027D01*
X32545502Y202027D01*
X32942377Y-1448973D02*
X32942377Y-1345027D01*
X32838431Y-1345027D01*
X32838431Y-1448973D01*
X32942377Y-1448973D01*
X33180502Y456027D02*
X33180502Y559973D01*
X33076556Y559973D01*
X33076556Y456027D01*
X33180502Y456027D01*
X33259877Y-3607973D02*
X33259877Y-3504027D01*
X33155931Y-3504027D01*
X33155931Y-3607973D01*
X33259877Y-3607973D01*
X33736127Y-7417973D02*
X33736127Y-7314027D01*
X33632182Y-7314027D01*
X33632182Y-7417973D01*
X33736127Y-7417973D01*
X33894877Y-3353973D02*
X33894877Y-3250027D01*
X33790932Y-3250027D01*
X33790932Y-3353973D01*
X33894877Y-3353973D01*
X34212377Y-1702973D02*
X34212377Y-1599027D01*
X34108432Y-1599027D01*
X34108432Y-1702973D01*
X34212377Y-1702973D01*
X34371127Y-7163973D02*
X34371127Y-7060027D01*
X34267182Y-7060027D01*
X34267182Y-7163973D01*
X34371127Y-7163973D01*
X34450502Y202027D02*
X34450502Y305973D01*
X34346557Y305973D01*
X34346557Y202027D01*
X34450502Y202027D01*
X34688627Y-5512973D02*
X34688627Y-5409027D01*
X34584682Y-5409027D01*
X34584682Y-5512973D01*
X34688627Y-5512973D01*
X34847377Y-1448973D02*
X34847377Y-1345027D01*
X34743432Y-1345027D01*
X34743432Y-1448973D01*
X34847377Y-1448973D01*
X35085502Y456027D02*
X35085502Y559973D01*
X34981557Y559973D01*
X34981557Y456027D01*
X35085502Y456027D01*
X35323627Y-5258973D02*
X35323627Y-5155027D01*
X35219682Y-5155027D01*
X35219682Y-5258973D01*
X35323627Y-5258973D01*
X36117377Y-3607973D02*
X36117377Y-3504027D01*
X36013432Y-3504027D01*
X36013432Y-3607973D01*
X36117377Y-3607973D01*
X36117377Y-7417973D02*
X36117377Y-7314027D01*
X36013432Y-7314027D01*
X36013432Y-7417973D01*
X36117377Y-7417973D01*
X36355502Y-1702973D02*
X36355502Y-1599027D01*
X36251557Y-1599027D01*
X36251557Y-1702973D01*
X36355502Y-1702973D01*
X36752377Y-3353973D02*
X36752377Y-3250027D01*
X36648432Y-3250027D01*
X36648432Y-3353973D01*
X36752377Y-3353973D01*
X36752377Y-7163973D02*
X36752377Y-7060027D01*
X36648432Y-7060027D01*
X36648432Y-7163973D01*
X36752377Y-7163973D01*
X36990502Y-1448973D02*
X36990502Y-1345027D01*
X36886557Y-1345027D01*
X36886557Y-1448973D01*
X36990502Y-1448973D01*
X37308002Y202027D02*
X37308002Y305973D01*
X37204057Y305973D01*
X37204057Y202027D01*
X37308002Y202027D01*
X37784252Y-5512973D02*
X37784252Y-5409027D01*
X37680307Y-5409027D01*
X37680307Y-5512973D01*
X37784252Y-5512973D01*
X37943002Y456027D02*
X37943002Y559973D01*
X37839057Y559973D01*
X37839057Y456027D01*
X37943002Y456027D01*
X38419252Y-5258973D02*
X38419252Y-5155027D01*
X38315307Y-5155027D01*
X38315307Y-5258973D01*
X38419252Y-5258973D01*
X38955877Y-7417973D02*
X38955877Y-7314027D01*
X38851932Y-7314027D01*
X38851932Y-7417973D01*
X38955877Y-7417973D01*
X39590877Y-7163973D02*
X39590877Y-7060027D01*
X39486932Y-7060027D01*
X39486932Y-7163973D01*
X39590877Y-7163973D01*
X40860877Y-5512973D02*
X40860877Y-5409027D01*
X40756932Y-5409027D01*
X40756932Y-5512973D01*
X40860877Y-5512973D01*
X40860877Y-7417973D02*
X40860877Y-7314027D01*
X40756932Y-7314027D01*
X40756932Y-7417973D01*
X40860877Y-7417973D01*
X41495877Y-5258973D02*
X41495877Y-5155027D01*
X41391932Y-5155027D01*
X41391932Y-5258973D01*
X41495877Y-5258973D01*
X41495877Y-7163973D02*
X41495877Y-7060027D01*
X41391932Y-7060027D01*
X41391932Y-7163973D01*
X41495877Y-7163973D01*
X42765877Y-1702973D02*
X42765877Y-1599027D01*
X42661932Y-1599027D01*
X42661932Y-1702973D01*
X42765877Y-1702973D01*
X42765877Y-3607973D02*
X42765877Y-3504027D01*
X42661932Y-3504027D01*
X42661932Y-3607973D01*
X42765877Y-3607973D01*
X42765877Y-7417973D02*
X42765877Y-7314027D01*
X42661932Y-7314027D01*
X42661932Y-7417973D01*
X42765877Y-7417973D01*
X43400877Y-1448973D02*
X43400877Y-1345027D01*
X43296932Y-1345027D01*
X43296932Y-1448973D01*
X43400877Y-1448973D01*
X43400877Y-3353973D02*
X43400877Y-3250027D01*
X43296932Y-3250027D01*
X43296932Y-3353973D01*
X43400877Y-3353973D01*
X43400877Y-7163973D02*
X43400877Y-7060027D01*
X43296932Y-7060027D01*
X43296932Y-7163973D01*
X43400877Y-7163973D01*
X43094904Y485000D02*
X43169904Y560000D01*
X43094904Y635000D01*
X43019904Y560000D01*
X43094904Y485000D01*
X43029904Y495000D02*
X43159904Y495000D01*
X43029904Y625000D02*
X43159904Y625000D01*
X43159904Y495000D02*
G75*
G03*
X43159904Y625000I0J65000D01*
G01*
X43029904Y625000D02*
G75*
G03*
X43029904Y495000I0J-65000D01*
G01*
X43094904Y-635000D02*
X43169904Y-560000D01*
X43094904Y-485000D01*
X43019904Y-560000D01*
X43094904Y-635000D01*
X43029904Y-625000D02*
X43159904Y-625000D01*
X43029904Y-495000D02*
X43159904Y-495000D01*
X43159904Y-625000D02*
G75*
G03*
X43159904Y-495000I0J65000D01*
G01*
X43029904Y-495000D02*
G75*
G03*
X43029904Y-625000I0J-65000D01*
G01*
X-595500Y87500D02*
X-420500Y-87500D01*
X-420500Y87500D02*
X-595500Y-87500D01*
X-420500Y0D02*
G75*
G03*
X-420500Y0I-87500J0D01*
G01*
X-595500Y-1817500D02*
X-420500Y-1992500D01*
X-420500Y-1817500D02*
X-595500Y-1992500D01*
X-420500Y-1905000D02*
G75*
G03*
X-420500Y-1905000I-87500J0D01*
G01*
X-595500Y-3722500D02*
X-420500Y-3897500D01*
X-420500Y-3722500D02*
X-595500Y-3897500D01*
X-420500Y-3810000D02*
G75*
G03*
X-420500Y-3810000I-87500J0D01*
G01*
X-595500Y-5627500D02*
X-420500Y-5802500D01*
X-420500Y-5627500D02*
X-595500Y-5802500D01*
X-420500Y-5715000D02*
G75*
G03*
X-420500Y-5715000I-87500J0D01*
G01*
X-595500Y-7532500D02*
X-420500Y-7707500D01*
X-420500Y-7532500D02*
X-595500Y-7707500D01*
X-420500Y-7620000D02*
G75*
G03*
X-420500Y-7620000I-87500J0D01*
G01*
X357000Y-7532500D02*
X532000Y-7707500D01*
X532000Y-7532500D02*
X357000Y-7707500D01*
X532000Y-7620000D02*
G75*
G03*
X532000Y-7620000I-87500J0D01*
G01*
X420500Y87500D02*
X595500Y-87500D01*
X595500Y87500D02*
X420500Y-87500D01*
X595500Y0D02*
G75*
G03*
X595500Y0I-87500J0D01*
G01*
X420500Y-1817500D02*
X595500Y-1992500D01*
X595500Y-1817500D02*
X420500Y-1992500D01*
X595500Y-1905000D02*
G75*
G03*
X595500Y-1905000I-87500J0D01*
G01*
X420500Y-3722500D02*
X595500Y-3897500D01*
X595500Y-3722500D02*
X420500Y-3897500D01*
X595500Y-3810000D02*
G75*
G03*
X595500Y-3810000I-87500J0D01*
G01*
X420500Y-5627500D02*
X595500Y-5802500D01*
X595500Y-5627500D02*
X420500Y-5802500D01*
X595500Y-5715000D02*
G75*
G03*
X595500Y-5715000I-87500J0D01*
G01*
X420500Y-7532500D02*
X595500Y-7707500D01*
X595500Y-7532500D02*
X420500Y-7707500D01*
X595500Y-7620000D02*
G75*
G03*
X595500Y-7620000I-87500J0D01*
G01*
X1309500Y87500D02*
X1484500Y-87500D01*
X1484500Y87500D02*
X1309500Y-87500D01*
X1484500Y0D02*
G75*
G03*
X1484500Y0I-87500J0D01*
G01*
X1309500Y-1817500D02*
X1484500Y-1992500D01*
X1484500Y-1817500D02*
X1309500Y-1992500D01*
X1484500Y-1905000D02*
G75*
G03*
X1484500Y-1905000I-87500J0D01*
G01*
X1309500Y-3722500D02*
X1484500Y-3897500D01*
X1484500Y-3722500D02*
X1309500Y-3897500D01*
X1484500Y-3810000D02*
G75*
G03*
X1484500Y-3810000I-87500J0D01*
G01*
X1309500Y-5627500D02*
X1484500Y-5802500D01*
X1484500Y-5627500D02*
X1309500Y-5802500D01*
X1484500Y-5715000D02*
G75*
G03*
X1484500Y-5715000I-87500J0D01*
G01*
X1309500Y-7532500D02*
X1484500Y-7707500D01*
X1484500Y-7532500D02*
X1309500Y-7707500D01*
X1484500Y-7620000D02*
G75*
G03*
X1484500Y-7620000I-87500J0D01*
G01*
X1373000Y-7532500D02*
X1548000Y-7707500D01*
X1548000Y-7532500D02*
X1373000Y-7707500D01*
X1548000Y-7620000D02*
G75*
G03*
X1548000Y-7620000I-87500J0D01*
G01*
X2325500Y87500D02*
X2500500Y-87500D01*
X2500500Y87500D02*
X2325500Y-87500D01*
X2500500Y0D02*
G75*
G03*
X2500500Y0I-87500J0D01*
G01*
X2325500Y-1817500D02*
X2500500Y-1992500D01*
X2500500Y-1817500D02*
X2325500Y-1992500D01*
X2500500Y-1905000D02*
G75*
G03*
X2500500Y-1905000I-87500J0D01*
G01*
X2325500Y-3722500D02*
X2500500Y-3897500D01*
X2500500Y-3722500D02*
X2325500Y-3897500D01*
X2500500Y-3810000D02*
G75*
G03*
X2500500Y-3810000I-87500J0D01*
G01*
X2325500Y-5627500D02*
X2500500Y-5802500D01*
X2500500Y-5627500D02*
X2325500Y-5802500D01*
X2500500Y-5715000D02*
G75*
G03*
X2500500Y-5715000I-87500J0D01*
G01*
X2325500Y-7532500D02*
X2500500Y-7707500D01*
X2500500Y-7532500D02*
X2325500Y-7707500D01*
X2500500Y-7620000D02*
G75*
G03*
X2500500Y-7620000I-87500J0D01*
G01*
X3214500Y87500D02*
X3389500Y-87500D01*
X3389500Y87500D02*
X3214500Y-87500D01*
X3389500Y0D02*
G75*
G03*
X3389500Y0I-87500J0D01*
G01*
X3214500Y-1817500D02*
X3389500Y-1992500D01*
X3389500Y-1817500D02*
X3214500Y-1992500D01*
X3389500Y-1905000D02*
G75*
G03*
X3389500Y-1905000I-87500J0D01*
G01*
X3214500Y-3722500D02*
X3389500Y-3897500D01*
X3389500Y-3722500D02*
X3214500Y-3897500D01*
X3389500Y-3810000D02*
G75*
G03*
X3389500Y-3810000I-87500J0D01*
G01*
X3214500Y-5627500D02*
X3389500Y-5802500D01*
X3389500Y-5627500D02*
X3214500Y-5802500D01*
X3389500Y-5715000D02*
G75*
G03*
X3389500Y-5715000I-87500J0D01*
G01*
X3214500Y-7532500D02*
X3389500Y-7707500D01*
X3389500Y-7532500D02*
X3214500Y-7707500D01*
X3389500Y-7620000D02*
G75*
G03*
X3389500Y-7620000I-87500J0D01*
G01*
X4230500Y87500D02*
X4405500Y-87500D01*
X4405500Y87500D02*
X4230500Y-87500D01*
X4405500Y0D02*
G75*
G03*
X4405500Y0I-87500J0D01*
G01*
X4230500Y-1817500D02*
X4405500Y-1992500D01*
X4405500Y-1817500D02*
X4230500Y-1992500D01*
X4405500Y-1905000D02*
G75*
G03*
X4405500Y-1905000I-87500J0D01*
G01*
X4230500Y-3722500D02*
X4405500Y-3897500D01*
X4405500Y-3722500D02*
X4230500Y-3897500D01*
X4405500Y-3810000D02*
G75*
G03*
X4405500Y-3810000I-87500J0D01*
G01*
X4230500Y-5627500D02*
X4405500Y-5802500D01*
X4405500Y-5627500D02*
X4230500Y-5802500D01*
X4405500Y-5715000D02*
G75*
G03*
X4405500Y-5715000I-87500J0D01*
G01*
X4230500Y-7532500D02*
X4405500Y-7707500D01*
X4405500Y-7532500D02*
X4230500Y-7707500D01*
X4405500Y-7620000D02*
G75*
G03*
X4405500Y-7620000I-87500J0D01*
G01*
X5119500Y87500D02*
X5294500Y-87500D01*
X5294500Y87500D02*
X5119500Y-87500D01*
X5294500Y0D02*
G75*
G03*
X5294500Y0I-87500J0D01*
G01*
X5627500Y-2262000D02*
X5802500Y-2437000D01*
X5802500Y-2262000D02*
X5627500Y-2437000D01*
X5802500Y-2349500D02*
G75*
G03*
X5802500Y-2349500I-87500J0D01*
G01*
X5627500Y-3278000D02*
X5802500Y-3453000D01*
X5802500Y-3278000D02*
X5627500Y-3453000D01*
X5802500Y-3365500D02*
G75*
G03*
X5802500Y-3365500I-87500J0D01*
G01*
X5627500Y-6072000D02*
X5802500Y-6247000D01*
X5802500Y-6072000D02*
X5627500Y-6247000D01*
X5802500Y-6159500D02*
G75*
G03*
X5802500Y-6159500I-87500J0D01*
G01*
X5627500Y-7088000D02*
X5802500Y-7263000D01*
X5802500Y-7088000D02*
X5627500Y-7263000D01*
X5802500Y-7175500D02*
G75*
G03*
X5802500Y-7175500I-87500J0D01*
G01*
X6135500Y87500D02*
X6310500Y-87500D01*
X6310500Y87500D02*
X6135500Y-87500D01*
X6310500Y0D02*
G75*
G03*
X6310500Y0I-87500J0D01*
G01*
X7262625Y87500D02*
X7437625Y-87500D01*
X7437625Y87500D02*
X7262625Y-87500D01*
X7437625Y0D02*
G75*
G03*
X7437625Y0I-87500J0D01*
G01*
X7500750Y-1817500D02*
X7675750Y-1992500D01*
X7675750Y-1817500D02*
X7500750Y-1992500D01*
X7675750Y-1905000D02*
G75*
G03*
X7675750Y-1905000I-87500J0D01*
G01*
X7500750Y-7532500D02*
X7675750Y-7707500D01*
X7675750Y-7532500D02*
X7500750Y-7707500D01*
X7675750Y-7620000D02*
G75*
G03*
X7675750Y-7620000I-87500J0D01*
G01*
X7738875Y-3722500D02*
X7913875Y-3897500D01*
X7913875Y-3722500D02*
X7738875Y-3897500D01*
X7913875Y-3810000D02*
G75*
G03*
X7913875Y-3810000I-87500J0D01*
G01*
X7977000Y-3722500D02*
X8152000Y-3897500D01*
X8152000Y-3722500D02*
X7977000Y-3897500D01*
X8152000Y-3810000D02*
G75*
G03*
X8152000Y-3810000I-87500J0D01*
G01*
X8215125Y-5627500D02*
X8390125Y-5802500D01*
X8390125Y-5627500D02*
X8215125Y-5802500D01*
X8390125Y-5715000D02*
G75*
G03*
X8390125Y-5715000I-87500J0D01*
G01*
X8278625Y87500D02*
X8453625Y-87500D01*
X8453625Y87500D02*
X8278625Y-87500D01*
X8453625Y0D02*
G75*
G03*
X8453625Y0I-87500J0D01*
G01*
X8516750Y-1817500D02*
X8691750Y-1992500D01*
X8691750Y-1817500D02*
X8516750Y-1992500D01*
X8691750Y-1905000D02*
G75*
G03*
X8691750Y-1905000I-87500J0D01*
G01*
X8516750Y-7532500D02*
X8691750Y-7707500D01*
X8691750Y-7532500D02*
X8516750Y-7707500D01*
X8691750Y-7620000D02*
G75*
G03*
X8691750Y-7620000I-87500J0D01*
G01*
X8754875Y-3722500D02*
X8929875Y-3897500D01*
X8929875Y-3722500D02*
X8754875Y-3897500D01*
X8929875Y-3810000D02*
G75*
G03*
X8929875Y-3810000I-87500J0D01*
G01*
X8993000Y-3722500D02*
X9168000Y-3897500D01*
X9168000Y-3722500D02*
X8993000Y-3897500D01*
X9168000Y-3810000D02*
G75*
G03*
X9168000Y-3810000I-87500J0D01*
G01*
X9167625Y87500D02*
X9342625Y-87500D01*
X9342625Y87500D02*
X9167625Y-87500D01*
X9342625Y0D02*
G75*
G03*
X9342625Y0I-87500J0D01*
G01*
X9231125Y-5627500D02*
X9406125Y-5802500D01*
X9406125Y-5627500D02*
X9231125Y-5802500D01*
X9406125Y-5715000D02*
G75*
G03*
X9406125Y-5715000I-87500J0D01*
G01*
X9643875Y-1817500D02*
X9818875Y-1992500D01*
X9818875Y-1817500D02*
X9643875Y-1992500D01*
X9818875Y-1905000D02*
G75*
G03*
X9818875Y-1905000I-87500J0D01*
G01*
X9882000Y-7532500D02*
X10057000Y-7707500D01*
X10057000Y-7532500D02*
X9882000Y-7707500D01*
X10057000Y-7620000D02*
G75*
G03*
X10057000Y-7620000I-87500J0D01*
G01*
X10183625Y87500D02*
X10358625Y-87500D01*
X10358625Y87500D02*
X10183625Y-87500D01*
X10358625Y0D02*
G75*
G03*
X10358625Y0I-87500J0D01*
G01*
X10596375Y-3722500D02*
X10771375Y-3897500D01*
X10771375Y-3722500D02*
X10596375Y-3897500D01*
X10771375Y-3810000D02*
G75*
G03*
X10771375Y-3810000I-87500J0D01*
G01*
X10659875Y-1817500D02*
X10834875Y-1992500D01*
X10834875Y-1817500D02*
X10659875Y-1992500D01*
X10834875Y-1905000D02*
G75*
G03*
X10834875Y-1905000I-87500J0D01*
G01*
X10898000Y-7532500D02*
X11073000Y-7707500D01*
X11073000Y-7532500D02*
X10898000Y-7707500D01*
X11073000Y-7620000D02*
G75*
G03*
X11073000Y-7620000I-87500J0D01*
G01*
X11072625Y325625D02*
X11247625Y150625D01*
X11247625Y325625D02*
X11072625Y150625D01*
X11247625Y238125D02*
G75*
G03*
X11247625Y238125I-87500J0D01*
G01*
X11072625Y-5627500D02*
X11247625Y-5802500D01*
X11247625Y-5627500D02*
X11072625Y-5802500D01*
X11247625Y-5715000D02*
G75*
G03*
X11247625Y-5715000I-87500J0D01*
G01*
X11612375Y-3722500D02*
X11787375Y-3897500D01*
X11787375Y-3722500D02*
X11612375Y-3897500D01*
X11787375Y-3810000D02*
G75*
G03*
X11787375Y-3810000I-87500J0D01*
G01*
X11903441Y-1644960D02*
X12078441Y-1819960D01*
X12078441Y-1644960D02*
X11903441Y-1819960D01*
X12078441Y-1732460D02*
G75*
G03*
X12078441Y-1732460I-87500J0D01*
G01*
X12088625Y325625D02*
X12263625Y150625D01*
X12263625Y325625D02*
X12088625Y150625D01*
X12263625Y238125D02*
G75*
G03*
X12263625Y238125I-87500J0D01*
G01*
X12088625Y-5627500D02*
X12263625Y-5802500D01*
X12263625Y-5627500D02*
X12088625Y-5802500D01*
X12263625Y-5715000D02*
G75*
G03*
X12263625Y-5715000I-87500J0D01*
G01*
X12745178Y-3727768D02*
X12920178Y-3902768D01*
X12920178Y-3727768D02*
X12745178Y-3902768D01*
X12920178Y-3815268D02*
G75*
G03*
X12920178Y-3815268I-87500J0D01*
G01*
X12904005Y-1821386D02*
X13079005Y-1996386D01*
X13079005Y-1821386D02*
X12904005Y-1996386D01*
X13079005Y-1908886D02*
G75*
G03*
X13079005Y-1908886I-87500J0D01*
G01*
X12958166Y-7730818D02*
X13133166Y-7905818D01*
X13133166Y-7730818D02*
X12958166Y-7905818D01*
X13133166Y-7818318D02*
G75*
G03*
X13133166Y-7818318I-87500J0D01*
G01*
X13117900Y-5727877D02*
X13292900Y-5902877D01*
X13292900Y-5727877D02*
X13117900Y-5902877D01*
X13292900Y-5815377D02*
G75*
G03*
X13292900Y-5815377I-87500J0D01*
G01*
X13172270Y65699D02*
X13347270Y-109301D01*
X13347270Y65699D02*
X13172270Y-109301D01*
X13347270Y-21801D02*
G75*
G03*
X13347270Y-21801I-87500J0D01*
G01*
X13745742Y-3904195D02*
X13920742Y-4079195D01*
X13920742Y-3904195D02*
X13745742Y-4079195D01*
X13920742Y-3991695D02*
G75*
G03*
X13920742Y-3991695I-87500J0D01*
G01*
X13779499Y-1975759D02*
X13954499Y-2150760D01*
X13954499Y-1975759D02*
X13779499Y-2150760D01*
X13954499Y-2063259D02*
G75*
G03*
X13954499Y-2063259I-87500J0D01*
G01*
X13958731Y-7907245D02*
X14133731Y-8082245D01*
X14133731Y-7907245D02*
X13958731Y-8082245D01*
X14133731Y-7994745D02*
G75*
G03*
X14133731Y-7994745I-87500J0D01*
G01*
X14118465Y-5904303D02*
X14293465Y-6079303D01*
X14293465Y-5904303D02*
X14118465Y-6079303D01*
X14293465Y-5991803D02*
G75*
G03*
X14293465Y-5991803I-87500J0D01*
G01*
X14172834Y-110727D02*
X14347834Y-285728D01*
X14347834Y-110727D02*
X14172834Y-285728D01*
X14347834Y-198227D02*
G75*
G03*
X14347834Y-198227I-87500J0D01*
G01*
X14621237Y-4058568D02*
X14796237Y-4233568D01*
X14796237Y-4058568D02*
X14621237Y-4233568D01*
X14796237Y-4146068D02*
G75*
G03*
X14796237Y-4146068I-87500J0D01*
G01*
X14780064Y-2152186D02*
X14955064Y-2327186D01*
X14955064Y-2152186D02*
X14780064Y-2327186D01*
X14955064Y-2239686D02*
G75*
G03*
X14955064Y-2239686I-87500J0D01*
G01*
X14993959Y-6058677D02*
X15168959Y-6233677D01*
X15168959Y-6058677D02*
X14993959Y-6233677D01*
X15168959Y-6146177D02*
G75*
G03*
X15168959Y-6146177I-87500J0D01*
G01*
X15048328Y-265101D02*
X15223328Y-440101D01*
X15223328Y-265101D02*
X15048328Y-440101D01*
X15223328Y-352601D02*
G75*
G03*
X15223328Y-352601I-87500J0D01*
G01*
X15621801Y-4234995D02*
X15796801Y-4409995D01*
X15796801Y-4234995D02*
X15621801Y-4409995D01*
X15796801Y-4322495D02*
G75*
G03*
X15796801Y-4322495I-87500J0D01*
G01*
X15655558Y-2306559D02*
X15830558Y-2481559D01*
X15830558Y-2306559D02*
X15655558Y-2481559D01*
X15830558Y-2394059D02*
G75*
G03*
X15830558Y-2394059I-87500J0D01*
G01*
X15994523Y-6235103D02*
X16169523Y-6410103D01*
X16169523Y-6235103D02*
X15994523Y-6410103D01*
X16169523Y-6322603D02*
G75*
G03*
X16169523Y-6322603I-87500J0D01*
G01*
X16048893Y-441527D02*
X16223893Y-616527D01*
X16223893Y-441527D02*
X16048893Y-616527D01*
X16223893Y-529027D02*
G75*
G03*
X16223893Y-529027I-87500J0D01*
G01*
X16241269Y-8309718D02*
X16416269Y-8484718D01*
X16416269Y-8309718D02*
X16241269Y-8484718D01*
X16416269Y-8397218D02*
G75*
G03*
X16416269Y-8397218I-87500J0D01*
G01*
X16497295Y-4389368D02*
X16672295Y-4564368D01*
X16672295Y-4389368D02*
X16497295Y-4564368D01*
X16672295Y-4476868D02*
G75*
G03*
X16672295Y-4476868I-87500J0D01*
G01*
X16656123Y-2482986D02*
X16831123Y-2657986D01*
X16831123Y-2482986D02*
X16656123Y-2657986D01*
X16831123Y-2570486D02*
G75*
G03*
X16831123Y-2570486I-87500J0D01*
G01*
X16870018Y-6389476D02*
X17045018Y-6564476D01*
X17045018Y-6389476D02*
X16870018Y-6564476D01*
X17045018Y-6476976D02*
G75*
G03*
X17045018Y-6476976I-87500J0D01*
G01*
X16924387Y-595900D02*
X17099387Y-770900D01*
X17099387Y-595900D02*
X16924387Y-770900D01*
X17099387Y-683400D02*
G75*
G03*
X17099387Y-683400I-87500J0D01*
G01*
X17241834Y-8486145D02*
X17416834Y-8661145D01*
X17416834Y-8486145D02*
X17241834Y-8661145D01*
X17416834Y-8573645D02*
G75*
G03*
X17416834Y-8573645I-87500J0D01*
G01*
X17497860Y-4565794D02*
X17672860Y-4740794D01*
X17672860Y-4565794D02*
X17497860Y-4740794D01*
X17672860Y-4653294D02*
G75*
G03*
X17672860Y-4653294I-87500J0D01*
G01*
X17531617Y-2637359D02*
X17706617Y-2812359D01*
X17706617Y-2637359D02*
X17531617Y-2812359D01*
X17706617Y-2724859D02*
G75*
G03*
X17706617Y-2724859I-87500J0D01*
G01*
X17870582Y-6565903D02*
X18045582Y-6740903D01*
X18045582Y-6565903D02*
X17870582Y-6740903D01*
X18045582Y-6653403D02*
G75*
G03*
X18045582Y-6653403I-87500J0D01*
G01*
X17924952Y-772327D02*
X18099952Y-947327D01*
X18099952Y-772327D02*
X17924952Y-947327D01*
X18099952Y-859827D02*
G75*
G03*
X18099952Y-859827I-87500J0D01*
G01*
X18373354Y-4720168D02*
X18548354Y-4895168D01*
X18548354Y-4720168D02*
X18373354Y-4895168D01*
X18548354Y-4807668D02*
G75*
G03*
X18548354Y-4807668I-87500J0D01*
G01*
X18532182Y-2813785D02*
X18707182Y-2988785D01*
X18707182Y-2813785D02*
X18532182Y-2988785D01*
X18707182Y-2901285D02*
G75*
G03*
X18707182Y-2901285I-87500J0D01*
G01*
X18746076Y-6720276D02*
X18921076Y-6895276D01*
X18921076Y-6720276D02*
X18746076Y-6895276D01*
X18921076Y-6807776D02*
G75*
G03*
X18921076Y-6807776I-87500J0D01*
G01*
X18800446Y-926700D02*
X18975446Y-1101700D01*
X18975446Y-926700D02*
X18800446Y-1101700D01*
X18975446Y-1014200D02*
G75*
G03*
X18975446Y-1014200I-87500J0D01*
G01*
X19306405Y-8753465D02*
X19481405Y-8928465D01*
X19481405Y-8753465D02*
X19306405Y-8928465D01*
X19481405Y-8840965D02*
G75*
G03*
X19481405Y-8840965I-87500J0D01*
G01*
X19373919Y-4896594D02*
X19548919Y-5071594D01*
X19548919Y-4896594D02*
X19373919Y-5071594D01*
X19548919Y-4984094D02*
G75*
G03*
X19548919Y-4984094I-87500J0D01*
G01*
X19746641Y-6896703D02*
X19921641Y-7071703D01*
X19921641Y-6896703D02*
X19746641Y-7071703D01*
X19921641Y-6984203D02*
G75*
G03*
X19921641Y-6984203I-87500J0D01*
G01*
X19801011Y-1103127D02*
X19976011Y-1278127D01*
X19976011Y-1103127D02*
X19801011Y-1278127D01*
X19976011Y-1190627D02*
G75*
G03*
X19976011Y-1190627I-87500J0D01*
G01*
X20306969Y-8929891D02*
X20481969Y-9104891D01*
X20481969Y-8929891D02*
X20306969Y-9104891D01*
X20481969Y-9017391D02*
G75*
G03*
X20481969Y-9017391I-87500J0D01*
G01*
X21726786Y-7062102D02*
X21901786Y-7237102D01*
X21901786Y-7062102D02*
X21726786Y-7237102D01*
X21901786Y-7149602D02*
G75*
G03*
X21901786Y-7149602I-87500J0D01*
G01*
X22003216Y-3144585D02*
X22178216Y-3319585D01*
X22178216Y-3144585D02*
X22003216Y-3319585D01*
X22178216Y-3232085D02*
G75*
G03*
X22178216Y-3232085I-87500J0D01*
G01*
X22610446Y-1103127D02*
X22785446Y-1278127D01*
X22785446Y-1103127D02*
X22610446Y-1278127D01*
X22785446Y-1190627D02*
G75*
G03*
X22785446Y-1190627I-87500J0D01*
G01*
X22727351Y-6885676D02*
X22902351Y-7060676D01*
X22902351Y-6885676D02*
X22727351Y-7060676D01*
X22902351Y-6973176D02*
G75*
G03*
X22902351Y-6973176I-87500J0D01*
G01*
X22803031Y-4937944D02*
X22978031Y-5112944D01*
X22978031Y-4937944D02*
X22803031Y-5112944D01*
X22978031Y-5025444D02*
G75*
G03*
X22978031Y-5025444I-87500J0D01*
G01*
X23003781Y-2968159D02*
X23178781Y-3143159D01*
X23178781Y-2968159D02*
X23003781Y-3143159D01*
X23178781Y-3055659D02*
G75*
G03*
X23178781Y-3055659I-87500J0D01*
G01*
X23602845Y-6731303D02*
X23777845Y-6906303D01*
X23777845Y-6731303D02*
X23602845Y-6906303D01*
X23777845Y-6818803D02*
G75*
G03*
X23777845Y-6818803I-87500J0D01*
G01*
X23611010Y-926700D02*
X23786010Y-1101700D01*
X23786010Y-926700D02*
X23611010Y-1101700D01*
X23786010Y-1014200D02*
G75*
G03*
X23786010Y-1014200I-87500J0D01*
G01*
X23699137Y-8648711D02*
X23874137Y-8823711D01*
X23874137Y-8648711D02*
X23699137Y-8823711D01*
X23874137Y-8736211D02*
G75*
G03*
X23874137Y-8736211I-87500J0D01*
G01*
X23803595Y-4761517D02*
X23978595Y-4936517D01*
X23978595Y-4761517D02*
X23803595Y-4936517D01*
X23978595Y-4849017D02*
G75*
G03*
X23978595Y-4849017I-87500J0D01*
G01*
X23879275Y-2813785D02*
X24054275Y-2988785D01*
X24054275Y-2813785D02*
X23879275Y-2988785D01*
X24054275Y-2901285D02*
G75*
G03*
X24054275Y-2901285I-87500J0D01*
G01*
X24486505Y-772327D02*
X24661505Y-947327D01*
X24661505Y-772327D02*
X24486505Y-947327D01*
X24661505Y-859827D02*
G75*
G03*
X24661505Y-859827I-87500J0D01*
G01*
X24603410Y-6554876D02*
X24778410Y-6729876D01*
X24778410Y-6554876D02*
X24603410Y-6729876D01*
X24778410Y-6642376D02*
G75*
G03*
X24778410Y-6642376I-87500J0D01*
G01*
X24679089Y-4607144D02*
X24854089Y-4782144D01*
X24854089Y-4607144D02*
X24679089Y-4782144D01*
X24854089Y-4694644D02*
G75*
G03*
X24854089Y-4694644I-87500J0D01*
G01*
X24699702Y-8472285D02*
X24874702Y-8647285D01*
X24874702Y-8472285D02*
X24699702Y-8647285D01*
X24874702Y-8559785D02*
G75*
G03*
X24874702Y-8559785I-87500J0D01*
G01*
X24879839Y-2637359D02*
X25054839Y-2812359D01*
X25054839Y-2637359D02*
X24879839Y-2812359D01*
X25054839Y-2724859D02*
G75*
G03*
X25054839Y-2724859I-87500J0D01*
G01*
X25478904Y-6400503D02*
X25653904Y-6575503D01*
X25653904Y-6400503D02*
X25478904Y-6575503D01*
X25653904Y-6488003D02*
G75*
G03*
X25653904Y-6488003I-87500J0D01*
G01*
X25487069Y-595900D02*
X25662069Y-770900D01*
X25662069Y-595900D02*
X25487069Y-770900D01*
X25662069Y-683400D02*
G75*
G03*
X25662069Y-683400I-87500J0D01*
G01*
X25679654Y-4430718D02*
X25854654Y-4605718D01*
X25854654Y-4430718D02*
X25679654Y-4605718D01*
X25854654Y-4518218D02*
G75*
G03*
X25854654Y-4518218I-87500J0D01*
G01*
X25755334Y-2482986D02*
X25930334Y-2657986D01*
X25930334Y-2482986D02*
X25755334Y-2657986D01*
X25930334Y-2570486D02*
G75*
G03*
X25930334Y-2570486I-87500J0D01*
G01*
X26362563Y-441527D02*
X26537563Y-616527D01*
X26537563Y-441527D02*
X26362563Y-616527D01*
X26537563Y-529027D02*
G75*
G03*
X26537563Y-529027I-87500J0D01*
G01*
X26479468Y-6224076D02*
X26654468Y-6399076D01*
X26654468Y-6224076D02*
X26479468Y-6399076D01*
X26654468Y-6311576D02*
G75*
G03*
X26654468Y-6311576I-87500J0D01*
G01*
X26555148Y-4276345D02*
X26730148Y-4451345D01*
X26730148Y-4276345D02*
X26555148Y-4451345D01*
X26730148Y-4363845D02*
G75*
G03*
X26730148Y-4363845I-87500J0D01*
G01*
X26755898Y-2306559D02*
X26930898Y-2481559D01*
X26930898Y-2306559D02*
X26755898Y-2481559D01*
X26930898Y-2394059D02*
G75*
G03*
X26930898Y-2394059I-87500J0D01*
G01*
X27354962Y-6069703D02*
X27529962Y-6244703D01*
X27529962Y-6069703D02*
X27354962Y-6244703D01*
X27529962Y-6157203D02*
G75*
G03*
X27529962Y-6157203I-87500J0D01*
G01*
X27363128Y-265101D02*
X27538128Y-440101D01*
X27538128Y-265101D02*
X27363128Y-440101D01*
X27538128Y-352601D02*
G75*
G03*
X27538128Y-352601I-87500J0D01*
G01*
X27451255Y-7987112D02*
X27626255Y-8162112D01*
X27626255Y-7987112D02*
X27451255Y-8162112D01*
X27626255Y-8074612D02*
G75*
G03*
X27626255Y-8074612I-87500J0D01*
G01*
X27555713Y-4099918D02*
X27730713Y-4274918D01*
X27730713Y-4099918D02*
X27555713Y-4274918D01*
X27730713Y-4187418D02*
G75*
G03*
X27730713Y-4187418I-87500J0D01*
G01*
X27631392Y-2152186D02*
X27806392Y-2327186D01*
X27806392Y-2152186D02*
X27631392Y-2327186D01*
X27806392Y-2239686D02*
G75*
G03*
X27806392Y-2239686I-87500J0D01*
G01*
X28238622Y-110727D02*
X28413622Y-285728D01*
X28413622Y-110727D02*
X28238622Y-285728D01*
X28413622Y-198227D02*
G75*
G03*
X28413622Y-198227I-87500J0D01*
G01*
X28355527Y-5893277D02*
X28530527Y-6068277D01*
X28530527Y-5893277D02*
X28355527Y-6068277D01*
X28530527Y-5980777D02*
G75*
G03*
X28530527Y-5980777I-87500J0D01*
G01*
X28431207Y-3945545D02*
X28606207Y-4120545D01*
X28606207Y-3945545D02*
X28431207Y-4120545D01*
X28606207Y-4033045D02*
G75*
G03*
X28606207Y-4033045I-87500J0D01*
G01*
X28451819Y-7810685D02*
X28626819Y-7985685D01*
X28626819Y-7810685D02*
X28451819Y-7985685D01*
X28626819Y-7898185D02*
G75*
G03*
X28626819Y-7898185I-87500J0D01*
G01*
X28631957Y-1975759D02*
X28806957Y-2150760D01*
X28806957Y-1975759D02*
X28631957Y-2150760D01*
X28806957Y-2063259D02*
G75*
G03*
X28806957Y-2063259I-87500J0D01*
G01*
X29231021Y-5738904D02*
X29406021Y-5913904D01*
X29406021Y-5738904D02*
X29231021Y-5913904D01*
X29406021Y-5826404D02*
G75*
G03*
X29406021Y-5826404I-87500J0D01*
G01*
X29239187Y65699D02*
X29414187Y-109301D01*
X29414187Y65699D02*
X29239187Y-109301D01*
X29414187Y-21801D02*
G75*
G03*
X29414187Y-21801I-87500J0D01*
G01*
X29431771Y-3769118D02*
X29606771Y-3944118D01*
X29606771Y-3769118D02*
X29431771Y-3944118D01*
X29606771Y-3856618D02*
G75*
G03*
X29606771Y-3856618I-87500J0D01*
G01*
X30135904Y-1817500D02*
X30310904Y-1992500D01*
X30310904Y-1817500D02*
X30135904Y-1992500D01*
X30310904Y-1905000D02*
G75*
G03*
X30310904Y-1905000I-87500J0D01*
G01*
X30231586Y-5562477D02*
X30406586Y-5737477D01*
X30406586Y-5562477D02*
X30231586Y-5737477D01*
X30406586Y-5649977D02*
G75*
G03*
X30406586Y-5649977I-87500J0D01*
G01*
X30374029Y87500D02*
X30549029Y-87500D01*
X30549029Y87500D02*
X30374029Y-87500D01*
X30549029Y0D02*
G75*
G03*
X30549029Y0I-87500J0D01*
G01*
X31088404Y-3722500D02*
X31263404Y-3897500D01*
X31263404Y-3722500D02*
X31088404Y-3897500D01*
X31263404Y-3810000D02*
G75*
G03*
X31263404Y-3810000I-87500J0D01*
G01*
X31088404Y-7532500D02*
X31263404Y-7707500D01*
X31263404Y-7532500D02*
X31088404Y-7707500D01*
X31263404Y-7620000D02*
G75*
G03*
X31263404Y-7620000I-87500J0D01*
G01*
X31151904Y-1817500D02*
X31326904Y-1992500D01*
X31326904Y-1817500D02*
X31151904Y-1992500D01*
X31326904Y-1905000D02*
G75*
G03*
X31326904Y-1905000I-87500J0D01*
G01*
X31326529Y-5627500D02*
X31501529Y-5802500D01*
X31501529Y-5627500D02*
X31326529Y-5802500D01*
X31501529Y-5715000D02*
G75*
G03*
X31501529Y-5715000I-87500J0D01*
G01*
X31390029Y87500D02*
X31565029Y-87500D01*
X31565029Y87500D02*
X31390029Y-87500D01*
X31565029Y0D02*
G75*
G03*
X31565029Y0I-87500J0D01*
G01*
X32040904Y-1817500D02*
X32215904Y-1992500D01*
X32215904Y-1817500D02*
X32040904Y-1992500D01*
X32215904Y-1905000D02*
G75*
G03*
X32215904Y-1905000I-87500J0D01*
G01*
X32104404Y-3722500D02*
X32279404Y-3897500D01*
X32279404Y-3722500D02*
X32104404Y-3897500D01*
X32279404Y-3810000D02*
G75*
G03*
X32279404Y-3810000I-87500J0D01*
G01*
X32104404Y-7532500D02*
X32279404Y-7707500D01*
X32279404Y-7532500D02*
X32104404Y-7707500D01*
X32279404Y-7620000D02*
G75*
G03*
X32279404Y-7620000I-87500J0D01*
G01*
X32279029Y87500D02*
X32454029Y-87500D01*
X32454029Y87500D02*
X32279029Y-87500D01*
X32454029Y0D02*
G75*
G03*
X32454029Y0I-87500J0D01*
G01*
X32342529Y-5627500D02*
X32517529Y-5802500D01*
X32517529Y-5627500D02*
X32342529Y-5802500D01*
X32517529Y-5715000D02*
G75*
G03*
X32517529Y-5715000I-87500J0D01*
G01*
X32993404Y-3722500D02*
X33168404Y-3897500D01*
X33168404Y-3722500D02*
X32993404Y-3897500D01*
X33168404Y-3810000D02*
G75*
G03*
X33168404Y-3810000I-87500J0D01*
G01*
X33056904Y-1817500D02*
X33231904Y-1992500D01*
X33231904Y-1817500D02*
X33056904Y-1992500D01*
X33231904Y-1905000D02*
G75*
G03*
X33231904Y-1905000I-87500J0D01*
G01*
X33295029Y87500D02*
X33470029Y-87500D01*
X33470029Y87500D02*
X33295029Y-87500D01*
X33470029Y0D02*
G75*
G03*
X33470029Y0I-87500J0D01*
G01*
X33469654Y-7532500D02*
X33644654Y-7707500D01*
X33644654Y-7532500D02*
X33469654Y-7707500D01*
X33644654Y-7620000D02*
G75*
G03*
X33644654Y-7620000I-87500J0D01*
G01*
X33945904Y-1817500D02*
X34120904Y-1992500D01*
X34120904Y-1817500D02*
X33945904Y-1992500D01*
X34120904Y-1905000D02*
G75*
G03*
X34120904Y-1905000I-87500J0D01*
G01*
X34009404Y-3722500D02*
X34184404Y-3897500D01*
X34184404Y-3722500D02*
X34009404Y-3897500D01*
X34184404Y-3810000D02*
G75*
G03*
X34184404Y-3810000I-87500J0D01*
G01*
X34184029Y87500D02*
X34359029Y-87500D01*
X34359029Y87500D02*
X34184029Y-87500D01*
X34359029Y0D02*
G75*
G03*
X34359029Y0I-87500J0D01*
G01*
X34422154Y-5627500D02*
X34597154Y-5802500D01*
X34597154Y-5627500D02*
X34422154Y-5802500D01*
X34597154Y-5715000D02*
G75*
G03*
X34597154Y-5715000I-87500J0D01*
G01*
X34485654Y-7532500D02*
X34660654Y-7707500D01*
X34660654Y-7532500D02*
X34485654Y-7707500D01*
X34660654Y-7620000D02*
G75*
G03*
X34660654Y-7620000I-87500J0D01*
G01*
X34961904Y-1817500D02*
X35136904Y-1992500D01*
X35136904Y-1817500D02*
X34961904Y-1992500D01*
X35136904Y-1905000D02*
G75*
G03*
X35136904Y-1905000I-87500J0D01*
G01*
X35200029Y87500D02*
X35375029Y-87500D01*
X35375029Y87500D02*
X35200029Y-87500D01*
X35375029Y0D02*
G75*
G03*
X35375029Y0I-87500J0D01*
G01*
X35438154Y-5627500D02*
X35613154Y-5802500D01*
X35613154Y-5627500D02*
X35438154Y-5802500D01*
X35613154Y-5715000D02*
G75*
G03*
X35613154Y-5715000I-87500J0D01*
G01*
X35850904Y-3722500D02*
X36025904Y-3897500D01*
X36025904Y-3722500D02*
X35850904Y-3897500D01*
X36025904Y-3810000D02*
G75*
G03*
X36025904Y-3810000I-87500J0D01*
G01*
X35850904Y-7532500D02*
X36025904Y-7707500D01*
X36025904Y-7532500D02*
X35850904Y-7707500D01*
X36025904Y-7620000D02*
G75*
G03*
X36025904Y-7620000I-87500J0D01*
G01*
X36089029Y-1817500D02*
X36264029Y-1992500D01*
X36264029Y-1817500D02*
X36089029Y-1992500D01*
X36264029Y-1905000D02*
G75*
G03*
X36264029Y-1905000I-87500J0D01*
G01*
X36866904Y-3722500D02*
X37041904Y-3897500D01*
X37041904Y-3722500D02*
X36866904Y-3897500D01*
X37041904Y-3810000D02*
G75*
G03*
X37041904Y-3810000I-87500J0D01*
G01*
X36866904Y-7532500D02*
X37041904Y-7707500D01*
X37041904Y-7532500D02*
X36866904Y-7707500D01*
X37041904Y-7620000D02*
G75*
G03*
X37041904Y-7620000I-87500J0D01*
G01*
X37041529Y87500D02*
X37216529Y-87500D01*
X37216529Y87500D02*
X37041529Y-87500D01*
X37216529Y0D02*
G75*
G03*
X37216529Y0I-87500J0D01*
G01*
X37105029Y-1817500D02*
X37280029Y-1992500D01*
X37280029Y-1817500D02*
X37105029Y-1992500D01*
X37280029Y-1905000D02*
G75*
G03*
X37280029Y-1905000I-87500J0D01*
G01*
X37517779Y-5627500D02*
X37692779Y-5802500D01*
X37692779Y-5627500D02*
X37517779Y-5802500D01*
X37692779Y-5715000D02*
G75*
G03*
X37692779Y-5715000I-87500J0D01*
G01*
X38057529Y87500D02*
X38232529Y-87500D01*
X38232529Y87500D02*
X38057529Y-87500D01*
X38232529Y0D02*
G75*
G03*
X38232529Y0I-87500J0D01*
G01*
X38533779Y-5627500D02*
X38708779Y-5802500D01*
X38708779Y-5627500D02*
X38533779Y-5802500D01*
X38708779Y-5715000D02*
G75*
G03*
X38708779Y-5715000I-87500J0D01*
G01*
X38689404Y-7532500D02*
X38864404Y-7707500D01*
X38864404Y-7532500D02*
X38689404Y-7707500D01*
X38864404Y-7620000D02*
G75*
G03*
X38864404Y-7620000I-87500J0D01*
G01*
X39705404Y-7532500D02*
X39880404Y-7707500D01*
X39880404Y-7532500D02*
X39705404Y-7707500D01*
X39880404Y-7620000D02*
G75*
G03*
X39880404Y-7620000I-87500J0D01*
G01*
X40594404Y-5627500D02*
X40769404Y-5802500D01*
X40769404Y-5627500D02*
X40594404Y-5802500D01*
X40769404Y-5715000D02*
G75*
G03*
X40769404Y-5715000I-87500J0D01*
G01*
X40594404Y-7532500D02*
X40769404Y-7707500D01*
X40769404Y-7532500D02*
X40594404Y-7707500D01*
X40769404Y-7620000D02*
G75*
G03*
X40769404Y-7620000I-87500J0D01*
G01*
X41610404Y-5627500D02*
X41785404Y-5802500D01*
X41785404Y-5627500D02*
X41610404Y-5802500D01*
X41785404Y-5715000D02*
G75*
G03*
X41785404Y-5715000I-87500J0D01*
G01*
X41610404Y-7532500D02*
X41785404Y-7707500D01*
X41785404Y-7532500D02*
X41610404Y-7707500D01*
X41785404Y-7620000D02*
G75*
G03*
X41785404Y-7620000I-87500J0D01*
G01*
X42499404Y-1817500D02*
X42674404Y-1992500D01*
X42674404Y-1817500D02*
X42499404Y-1992500D01*
X42674404Y-1905000D02*
G75*
G03*
X42674404Y-1905000I-87500J0D01*
G01*
X42499404Y-3722500D02*
X42674404Y-3897500D01*
X42674404Y-3722500D02*
X42499404Y-3897500D01*
X42674404Y-3810000D02*
G75*
G03*
X42674404Y-3810000I-87500J0D01*
G01*
X42499404Y-7532500D02*
X42674404Y-7707500D01*
X42674404Y-7532500D02*
X42499404Y-7707500D01*
X42674404Y-7620000D02*
G75*
G03*
X42674404Y-7620000I-87500J0D01*
G01*
X43515404Y-1817500D02*
X43690404Y-1992500D01*
X43690404Y-1817500D02*
X43515404Y-1992500D01*
X43690404Y-1905000D02*
G75*
G03*
X43690404Y-1905000I-87500J0D01*
G01*
X43515404Y-3722500D02*
X43690404Y-3897500D01*
X43690404Y-3722500D02*
X43515404Y-3897500D01*
X43690404Y-3810000D02*
G75*
G03*
X43690404Y-3810000I-87500J0D01*
G01*
X43515404Y-7532500D02*
X43690404Y-7707500D01*
X43690404Y-7532500D02*
X43515404Y-7707500D01*
X43690404Y-7620000D02*
G75*
G03*
X43690404Y-7620000I-87500J0D01*
G01*
X-390525Y-8166100D02*
X-85725Y-8470900D01*
X-85725Y-8166100D02*
X-390525Y-8470900D01*
X-238125Y-8166100D02*
X-238125Y-8470900D01*
X-390525Y-8318500D02*
X-85725Y-8318500D01*
X1990725Y-8166100D02*
X2295525Y-8470900D01*
X2295525Y-8166100D02*
X1990725Y-8470900D01*
X2143125Y-8166100D02*
X2143125Y-8470900D01*
X1990725Y-8318500D02*
X2295525Y-8318500D01*
X4864100Y-1514475D02*
X5168900Y-1819275D01*
X5168900Y-1514475D02*
X4864100Y-1819275D01*
X5016500Y-1514475D02*
X5016500Y-1819275D01*
X4864100Y-1666875D02*
X5168900Y-1666875D01*
X4864100Y-3895725D02*
X5168900Y-4200525D01*
X5168900Y-3895725D02*
X4864100Y-4200525D01*
X5016500Y-3895725D02*
X5016500Y-4200525D01*
X4864100Y-4048125D02*
X5168900Y-4048125D01*
X4864100Y-5324475D02*
X5168900Y-5629275D01*
X5168900Y-5324475D02*
X4864100Y-5629275D01*
X5016500Y-5324475D02*
X5016500Y-5629275D01*
X4864100Y-5476875D02*
X5168900Y-5476875D01*
X4864100Y-7705725D02*
X5168900Y-8010525D01*
X5168900Y-7705725D02*
X4864100Y-8010525D01*
X5016500Y-7705725D02*
X5016500Y-8010525D01*
X4864100Y-7858125D02*
X5168900Y-7858125D01*
X7467600Y-4864100D02*
X7772400Y-5168900D01*
X7772400Y-4864100D02*
X7467600Y-5168900D01*
X7620000Y-4864100D02*
X7620000Y-5168900D01*
X7467600Y-5016500D02*
X7772400Y-5016500D01*
X9848850Y-4864100D02*
X10153650Y-5168900D01*
X10153650Y-4864100D02*
X9848850Y-5168900D01*
X10001250Y-4864100D02*
X10001250Y-5168900D01*
X9848850Y-5016500D02*
X10153650Y-5016500D01*
X15382821Y-8814170D02*
X15687621Y-9118970D01*
X15687621Y-8814170D02*
X15382821Y-9118970D01*
X15535221Y-8814170D02*
X15535221Y-9118970D01*
X15382821Y-8966570D02*
X15687621Y-8966570D01*
X17727895Y-9227669D02*
X18032695Y-9532469D01*
X18032695Y-9227669D02*
X17727895Y-9532469D01*
X17880295Y-9227669D02*
X17880295Y-9532469D01*
X17727895Y-9380069D02*
X18032695Y-9380069D01*
X23083276Y-9390236D02*
X23388076Y-9695036D01*
X23388076Y-9390236D02*
X23083276Y-9695036D01*
X23235676Y-9390236D02*
X23235676Y-9695036D01*
X23083276Y-9542636D02*
X23388076Y-9542636D01*
X25428350Y-8976737D02*
X25733150Y-9281537D01*
X25733150Y-8976737D02*
X25428350Y-9281537D01*
X25580750Y-8976737D02*
X25580750Y-9281537D01*
X25428350Y-9129137D02*
X25733150Y-9129137D01*
X33674629Y-4864100D02*
X33979429Y-5168900D01*
X33979429Y-4864100D02*
X33674629Y-5168900D01*
X33827029Y-4864100D02*
X33827029Y-5168900D01*
X33674629Y-5016500D02*
X33979429Y-5016500D01*
X35103379Y-2959100D02*
X35408179Y-3263900D01*
X35408179Y-2959100D02*
X35103379Y-3263900D01*
X35255779Y-2959100D02*
X35255779Y-3263900D01*
X35103379Y-3111500D02*
X35408179Y-3111500D01*
X36055879Y-4864100D02*
X36360679Y-5168900D01*
X36360679Y-4864100D02*
X36055879Y-5168900D01*
X36208279Y-4864100D02*
X36208279Y-5168900D01*
X36055879Y-5016500D02*
X36360679Y-5016500D01*
X36294004Y850900D02*
X36598804Y546100D01*
X36598804Y850900D02*
X36294004Y546100D01*
X36446404Y850900D02*
X36446404Y546100D01*
X36294004Y698500D02*
X36598804Y698500D01*
X37484629Y-2959100D02*
X37789429Y-3263900D01*
X37789429Y-2959100D02*
X37484629Y-3263900D01*
X37637029Y-2959100D02*
X37637029Y-3263900D01*
X37484629Y-3111500D02*
X37789429Y-3111500D01*
X38675254Y850900D02*
X38980054Y546100D01*
X38980054Y850900D02*
X38675254Y546100D01*
X38827654Y850900D02*
X38827654Y546100D01*
X38675254Y698500D02*
X38980054Y698500D01*
X-437515Y-6595110D02*
X-38735Y-6993890D01*
X-38735Y-6595110D02*
X-437515Y-6993890D01*
X-97134Y-6935491D02*
X-97134Y-6653509D01*
X-379116Y-6653509D01*
X-379116Y-6935491D01*
X-97134Y-6935491D01*
X-199390Y199390D02*
X199390Y-199390D01*
X199390Y199390D02*
X-199390Y-199390D01*
X140991Y-140991D02*
X140991Y140991D01*
X-140991Y140991D01*
X-140991Y-140991D01*
X140991Y-140991D01*
X-199390Y-1705610D02*
X199390Y-2104390D01*
X199390Y-1705610D02*
X-199390Y-2104390D01*
X140991Y-2045991D02*
X140991Y-1764009D01*
X-140991Y-1764009D01*
X-140991Y-2045991D01*
X140991Y-2045991D01*
X-199390Y-3610610D02*
X199390Y-4009390D01*
X199390Y-3610610D02*
X-199390Y-4009390D01*
X140991Y-3950991D02*
X140991Y-3669009D01*
X-140991Y-3669009D01*
X-140991Y-3950991D01*
X140991Y-3950991D01*
X-199390Y-5515610D02*
X199390Y-5914390D01*
X199390Y-5515610D02*
X-199390Y-5914390D01*
X140991Y-5855991D02*
X140991Y-5574009D01*
X-140991Y-5574009D01*
X-140991Y-5855991D01*
X140991Y-5855991D01*
X-199390Y-7420610D02*
X199390Y-7819390D01*
X199390Y-7420610D02*
X-199390Y-7819390D01*
X140991Y-7760991D02*
X140991Y-7479009D01*
X-140991Y-7479009D01*
X-140991Y-7760991D01*
X140991Y-7760991D01*
X753110Y-7420610D02*
X1151890Y-7819390D01*
X1151890Y-7420610D02*
X753110Y-7819390D01*
X1093491Y-7760991D02*
X1093491Y-7479009D01*
X811509Y-7479009D01*
X811509Y-7760991D01*
X1093491Y-7760991D01*
X1705610Y199390D02*
X2104390Y-199390D01*
X2104390Y199390D02*
X1705610Y-199390D01*
X2045991Y-140991D02*
X2045991Y140991D01*
X1764009Y140991D01*
X1764009Y-140991D01*
X2045991Y-140991D01*
X1705610Y-1705610D02*
X2104390Y-2104390D01*
X2104390Y-1705610D02*
X1705610Y-2104390D01*
X2045991Y-2045991D02*
X2045991Y-1764009D01*
X1764009Y-1764009D01*
X1764009Y-2045991D01*
X2045991Y-2045991D01*
X1705610Y-3610610D02*
X2104390Y-4009390D01*
X2104390Y-3610610D02*
X1705610Y-4009390D01*
X2045991Y-3950991D02*
X2045991Y-3669009D01*
X1764009Y-3669009D01*
X1764009Y-3950991D01*
X2045991Y-3950991D01*
X1705610Y-5515610D02*
X2104390Y-5914390D01*
X2104390Y-5515610D02*
X1705610Y-5914390D01*
X2045991Y-5855991D02*
X2045991Y-5574009D01*
X1764009Y-5574009D01*
X1764009Y-5855991D01*
X2045991Y-5855991D01*
X1705610Y-7420610D02*
X2104390Y-7819390D01*
X2104390Y-7420610D02*
X1705610Y-7819390D01*
X2045991Y-7760991D02*
X2045991Y-7479009D01*
X1764009Y-7479009D01*
X1764009Y-7760991D01*
X2045991Y-7760991D01*
X1943735Y-6595110D02*
X2342515Y-6993890D01*
X2342515Y-6595110D02*
X1943735Y-6993890D01*
X2284116Y-6935491D02*
X2284116Y-6653509D01*
X2002134Y-6653509D01*
X2002134Y-6935491D01*
X2284116Y-6935491D01*
X3610610Y199390D02*
X4009390Y-199390D01*
X4009390Y199390D02*
X3610610Y-199390D01*
X3950991Y-140991D02*
X3950991Y140991D01*
X3669009Y140991D01*
X3669009Y-140991D01*
X3950991Y-140991D01*
X3610610Y-1705610D02*
X4009390Y-2104390D01*
X4009390Y-1705610D02*
X3610610Y-2104390D01*
X3950991Y-2045991D02*
X3950991Y-1764009D01*
X3669009Y-1764009D01*
X3669009Y-2045991D01*
X3950991Y-2045991D01*
X3610610Y-3610610D02*
X4009390Y-4009390D01*
X4009390Y-3610610D02*
X3610610Y-4009390D01*
X3950991Y-3950991D02*
X3950991Y-3669009D01*
X3669009Y-3669009D01*
X3669009Y-3950991D01*
X3950991Y-3950991D01*
X3610610Y-5515610D02*
X4009390Y-5914390D01*
X4009390Y-5515610D02*
X3610610Y-5914390D01*
X3950991Y-5855991D02*
X3950991Y-5574009D01*
X3669009Y-5574009D01*
X3669009Y-5855991D01*
X3950991Y-5855991D01*
X3610610Y-7420610D02*
X4009390Y-7819390D01*
X4009390Y-7420610D02*
X3610610Y-7819390D01*
X3950991Y-7760991D02*
X3950991Y-7479009D01*
X3669009Y-7479009D01*
X3669009Y-7760991D01*
X3950991Y-7760991D01*
X5515610Y199390D02*
X5914390Y-199390D01*
X5914390Y199390D02*
X5515610Y-199390D01*
X5855991Y-140991D02*
X5855991Y140991D01*
X5574009Y140991D01*
X5574009Y-140991D01*
X5855991Y-140991D01*
X5515610Y-2658110D02*
X5914390Y-3056890D01*
X5914390Y-2658110D02*
X5515610Y-3056890D01*
X5855991Y-2998491D02*
X5855991Y-2716509D01*
X5574009Y-2716509D01*
X5574009Y-2998491D01*
X5855991Y-2998491D01*
X5515610Y-6468110D02*
X5914390Y-6866890D01*
X5914390Y-6468110D02*
X5515610Y-6866890D01*
X5855991Y-6808491D02*
X5855991Y-6526509D01*
X5574009Y-6526509D01*
X5574009Y-6808491D01*
X5855991Y-6808491D01*
X6341110Y-1467485D02*
X6739890Y-1866265D01*
X6739890Y-1467485D02*
X6341110Y-1866265D01*
X6681491Y-1807866D02*
X6681491Y-1525884D01*
X6399509Y-1525884D01*
X6399509Y-1807866D01*
X6681491Y-1807866D01*
X6341110Y-3848735D02*
X6739890Y-4247515D01*
X6739890Y-3848735D02*
X6341110Y-4247515D01*
X6681491Y-4189116D02*
X6681491Y-3907134D01*
X6399509Y-3907134D01*
X6399509Y-4189116D01*
X6681491Y-4189116D01*
X6341110Y-5277485D02*
X6739890Y-5676265D01*
X6739890Y-5277485D02*
X6341110Y-5676265D01*
X6681491Y-5617866D02*
X6681491Y-5335884D01*
X6399509Y-5335884D01*
X6399509Y-5617866D01*
X6681491Y-5617866D01*
X6341110Y-7658735D02*
X6739890Y-8057515D01*
X6739890Y-7658735D02*
X6341110Y-8057515D01*
X6681491Y-7999116D02*
X6681491Y-7717134D01*
X6399509Y-7717134D01*
X6399509Y-7999116D01*
X6681491Y-7999116D01*
X7420610Y-6341110D02*
X7819390Y-6739890D01*
X7819390Y-6341110D02*
X7420610Y-6739890D01*
X7760991Y-6681491D02*
X7760991Y-6399509D01*
X7479009Y-6399509D01*
X7479009Y-6681491D01*
X7760991Y-6681491D01*
X7658735Y199390D02*
X8057515Y-199390D01*
X8057515Y199390D02*
X7658735Y-199390D01*
X7999116Y-140991D02*
X7999116Y140991D01*
X7717134Y140991D01*
X7717134Y-140991D01*
X7999116Y-140991D01*
X7896860Y-1705610D02*
X8295640Y-2104390D01*
X8295640Y-1705610D02*
X7896860Y-2104390D01*
X8237241Y-2045991D02*
X8237241Y-1764009D01*
X7955259Y-1764009D01*
X7955259Y-2045991D01*
X8237241Y-2045991D01*
X7896860Y-7420610D02*
X8295640Y-7819390D01*
X8295640Y-7420610D02*
X7896860Y-7819390D01*
X8237241Y-7760991D02*
X8237241Y-7479009D01*
X7955259Y-7479009D01*
X7955259Y-7760991D01*
X8237241Y-7760991D01*
X8134985Y-3610610D02*
X8533765Y-4009390D01*
X8533765Y-3610610D02*
X8134985Y-4009390D01*
X8475366Y-3950991D02*
X8475366Y-3669009D01*
X8193384Y-3669009D01*
X8193384Y-3950991D01*
X8475366Y-3950991D01*
X8373110Y-3610610D02*
X8771890Y-4009390D01*
X8771890Y-3610610D02*
X8373110Y-4009390D01*
X8713491Y-3950991D02*
X8713491Y-3669009D01*
X8431509Y-3669009D01*
X8431509Y-3950991D01*
X8713491Y-3950991D01*
X8611235Y-5515610D02*
X9010015Y-5914390D01*
X9010015Y-5515610D02*
X8611235Y-5914390D01*
X8951616Y-5855991D02*
X8951616Y-5574009D01*
X8669634Y-5574009D01*
X8669634Y-5855991D01*
X8951616Y-5855991D01*
X9563735Y199390D02*
X9962515Y-199390D01*
X9962515Y199390D02*
X9563735Y-199390D01*
X9904116Y-140991D02*
X9904116Y140991D01*
X9622134Y140991D01*
X9622134Y-140991D01*
X9904116Y-140991D01*
X9801860Y-6341110D02*
X10200640Y-6739890D01*
X10200640Y-6341110D02*
X9801860Y-6739890D01*
X10142241Y-6681491D02*
X10142241Y-6399509D01*
X9860259Y-6399509D01*
X9860259Y-6681491D01*
X10142241Y-6681491D01*
X10039985Y-1705610D02*
X10438765Y-2104390D01*
X10438765Y-1705610D02*
X10039985Y-2104390D01*
X10380366Y-2045991D02*
X10380366Y-1764009D01*
X10098384Y-1764009D01*
X10098384Y-2045991D01*
X10380366Y-2045991D01*
X10278110Y-7420610D02*
X10676890Y-7819390D01*
X10676890Y-7420610D02*
X10278110Y-7819390D01*
X10618491Y-7760991D02*
X10618491Y-7479009D01*
X10336509Y-7479009D01*
X10336509Y-7760991D01*
X10618491Y-7760991D01*
X10992485Y-3610610D02*
X11391265Y-4009390D01*
X11391265Y-3610610D02*
X10992485Y-4009390D01*
X11332866Y-3950991D02*
X11332866Y-3669009D01*
X11050884Y-3669009D01*
X11050884Y-3950991D01*
X11332866Y-3950991D01*
X11468735Y437515D02*
X11867515Y38735D01*
X11867515Y437515D02*
X11468735Y38735D01*
X11809116Y97134D02*
X11809116Y379116D01*
X11527134Y379116D01*
X11527134Y97134D01*
X11809116Y97134D01*
X11468735Y-5515610D02*
X11867515Y-5914390D01*
X11867515Y-5515610D02*
X11468735Y-5914390D01*
X11809116Y-5855991D02*
X11809116Y-5574009D01*
X11527134Y-5574009D01*
X11527134Y-5855991D01*
X11809116Y-5855991D01*
X12291833Y-1621283D02*
X12690613Y-2020063D01*
X12690613Y-1621283D02*
X12291833Y-2020063D01*
X12632214Y-1961664D02*
X12632214Y-1679682D01*
X12350232Y-1679682D01*
X12350232Y-1961664D01*
X12632214Y-1961664D01*
X13133570Y-3704092D02*
X13532350Y-4102872D01*
X13532350Y-3704092D02*
X13133570Y-4102872D01*
X13473952Y-4044473D02*
X13473952Y-3762490D01*
X13191969Y-3762490D01*
X13191969Y-4044473D01*
X13473952Y-4044473D01*
X13346558Y-7707142D02*
X13745338Y-8105922D01*
X13745338Y-7707142D02*
X13346558Y-8105922D01*
X13686940Y-8047523D02*
X13686940Y-7765540D01*
X13404957Y-7765540D01*
X13404957Y-8047523D01*
X13686940Y-8047523D01*
X13506292Y-5704200D02*
X13905072Y-6102980D01*
X13905072Y-5704200D02*
X13506292Y-6102980D01*
X13846674Y-6044582D02*
X13846674Y-5762599D01*
X13564691Y-5762599D01*
X13564691Y-6044582D01*
X13846674Y-6044582D01*
X13560662Y89376D02*
X13959442Y-309404D01*
X13959442Y89376D02*
X13560662Y-309404D01*
X13901043Y-251006D02*
X13901043Y30977D01*
X13619061Y30977D01*
X13619061Y-251006D01*
X13901043Y-251006D01*
X14167892Y-1952083D02*
X14566672Y-2350863D01*
X14566672Y-1952083D02*
X14167892Y-2350863D01*
X14508273Y-2292464D02*
X14508273Y-2010481D01*
X14226290Y-2010481D01*
X14226290Y-2292464D01*
X14508273Y-2292464D01*
X15009629Y-4034891D02*
X15408409Y-4433671D01*
X15408409Y-4034891D02*
X15009629Y-4433671D01*
X15350010Y-4375273D02*
X15350010Y-4093290D01*
X15068027Y-4093290D01*
X15068027Y-4375273D01*
X15350010Y-4375273D01*
X15382351Y-6035000D02*
X15781131Y-6433780D01*
X15781131Y-6035000D02*
X15382351Y-6433780D01*
X15722732Y-6375381D02*
X15722732Y-6093398D01*
X15440750Y-6093398D01*
X15440750Y-6375381D01*
X15722732Y-6375381D01*
X15436721Y-241424D02*
X15835501Y-640204D01*
X15835501Y-241424D02*
X15436721Y-640204D01*
X15777102Y-581805D02*
X15777102Y-299823D01*
X15495119Y-299823D01*
X15495119Y-581805D01*
X15777102Y-581805D01*
X15600471Y-7266333D02*
X15999251Y-7665113D01*
X15999251Y-7266333D02*
X15600471Y-7665113D01*
X15940852Y-7606714D02*
X15940852Y-7324731D01*
X15658870Y-7324731D01*
X15658870Y-7606714D01*
X15940852Y-7606714D01*
X16043950Y-2282883D02*
X16442730Y-2681663D01*
X16442730Y-2282883D02*
X16043950Y-2681663D01*
X16384332Y-2623264D02*
X16384332Y-2341281D01*
X16102349Y-2341281D01*
X16102349Y-2623264D01*
X16384332Y-2623264D01*
X16629661Y-8286041D02*
X17028441Y-8684821D01*
X17028441Y-8286041D02*
X16629661Y-8684821D01*
X16970043Y-8626423D02*
X16970043Y-8344440D01*
X16688060Y-8344440D01*
X16688060Y-8626423D01*
X16970043Y-8626423D01*
X16885688Y-4365691D02*
X17284468Y-4764471D01*
X17284468Y-4365691D02*
X16885688Y-4764471D01*
X17226069Y-4706073D02*
X17226069Y-4424090D01*
X16944086Y-4424090D01*
X16944086Y-4706073D01*
X17226069Y-4706073D01*
X17258410Y-6365800D02*
X17657190Y-6764580D01*
X17657190Y-6365800D02*
X17258410Y-6764580D01*
X17598791Y-6706181D02*
X17598791Y-6424198D01*
X17316808Y-6424198D01*
X17316808Y-6706181D01*
X17598791Y-6706181D01*
X17312780Y-572224D02*
X17711560Y-971004D01*
X17711560Y-572224D02*
X17312780Y-971004D01*
X17653161Y-912605D02*
X17653161Y-630622D01*
X17371178Y-630622D01*
X17371178Y-912605D01*
X17653161Y-912605D01*
X17920009Y-2613682D02*
X18318789Y-3012462D01*
X18318789Y-2613682D02*
X17920009Y-3012462D01*
X18260391Y-2954064D02*
X18260391Y-2672081D01*
X17978408Y-2672081D01*
X17978408Y-2954064D01*
X18260391Y-2954064D01*
X17945545Y-7679832D02*
X18344325Y-8078612D01*
X18344325Y-7679832D02*
X17945545Y-8078612D01*
X18285926Y-8020214D02*
X18285926Y-7738231D01*
X18003943Y-7738231D01*
X18003943Y-8020214D01*
X18285926Y-8020214D01*
X18761746Y-4696491D02*
X19160526Y-5095271D01*
X19160526Y-4696491D02*
X18761746Y-5095271D01*
X19102128Y-5036872D02*
X19102128Y-4754889D01*
X18820145Y-4754889D01*
X18820145Y-5036872D01*
X19102128Y-5036872D01*
X19134469Y-6696599D02*
X19533249Y-7095379D01*
X19533249Y-6696599D02*
X19134469Y-7095379D01*
X19474850Y-7036981D02*
X19474850Y-6754998D01*
X19192867Y-6754998D01*
X19192867Y-7036981D01*
X19474850Y-7036981D01*
X19188838Y-903023D02*
X19587618Y-1301803D01*
X19587618Y-903023D02*
X19188838Y-1301803D01*
X19529220Y-1243405D02*
X19529220Y-961422D01*
X19247237Y-961422D01*
X19247237Y-1243405D01*
X19529220Y-1243405D01*
X19694797Y-8729788D02*
X20093577Y-9128568D01*
X20093577Y-8729788D02*
X19694797Y-9128568D01*
X20035178Y-9070169D02*
X20035178Y-8788187D01*
X19753195Y-8788187D01*
X19753195Y-9070169D01*
X20035178Y-9070169D01*
X22115179Y-6861999D02*
X22513959Y-7260779D01*
X22513959Y-6861999D02*
X22115179Y-7260779D01*
X22455560Y-7202380D02*
X22455560Y-6920398D01*
X22173577Y-6920398D01*
X22173577Y-7202380D01*
X22455560Y-7202380D01*
X22391608Y-2944482D02*
X22790388Y-3343262D01*
X22790388Y-2944482D02*
X22391608Y-3343262D01*
X22731990Y-3284863D02*
X22731990Y-3002880D01*
X22450007Y-3002880D01*
X22450007Y-3284863D01*
X22731990Y-3284863D01*
X22771646Y-7842399D02*
X23170426Y-8241179D01*
X23170426Y-7842399D02*
X22771646Y-8241179D01*
X23112028Y-8182781D02*
X23112028Y-7900798D01*
X22830045Y-7900798D01*
X22830045Y-8182781D01*
X23112028Y-8182781D01*
X22998838Y-903023D02*
X23397618Y-1301803D01*
X23397618Y-903023D02*
X22998838Y-1301803D01*
X23339220Y-1243405D02*
X23339220Y-961422D01*
X23057237Y-961422D01*
X23057237Y-1243405D01*
X23339220Y-1243405D01*
X23191423Y-4737841D02*
X23590203Y-5136621D01*
X23590203Y-4737841D02*
X23191423Y-5136621D01*
X23531804Y-5078222D02*
X23531804Y-4796239D01*
X23249821Y-4796239D01*
X23249821Y-5078222D01*
X23531804Y-5078222D01*
X23991237Y-6531199D02*
X24390017Y-6929979D01*
X24390017Y-6531199D02*
X23991237Y-6929979D01*
X24331619Y-6871581D02*
X24331619Y-6589598D01*
X24049636Y-6589598D01*
X24049636Y-6871581D01*
X24331619Y-6871581D01*
X24087530Y-8448608D02*
X24486310Y-8847388D01*
X24486310Y-8448608D02*
X24087530Y-8847388D01*
X24427911Y-8788990D02*
X24427911Y-8507007D01*
X24145928Y-8507007D01*
X24145928Y-8788990D01*
X24427911Y-8788990D01*
X24267667Y-2613682D02*
X24666447Y-3012462D01*
X24666447Y-2613682D02*
X24267667Y-3012462D01*
X24608049Y-2954064D02*
X24608049Y-2672081D01*
X24326066Y-2672081D01*
X24326066Y-2954064D01*
X24608049Y-2954064D01*
X24874897Y-572224D02*
X25273677Y-971004D01*
X25273677Y-572224D02*
X24874897Y-971004D01*
X25215278Y-912605D02*
X25215278Y-630622D01*
X24933295Y-630622D01*
X24933295Y-912605D01*
X25215278Y-912605D01*
X25067482Y-4407041D02*
X25466262Y-4805821D01*
X25466262Y-4407041D02*
X25067482Y-4805821D01*
X25407863Y-4747422D02*
X25407863Y-4465440D01*
X25125880Y-4465440D01*
X25125880Y-4747422D01*
X25407863Y-4747422D01*
X25116720Y-7428899D02*
X25515500Y-7827679D01*
X25515500Y-7428899D02*
X25116720Y-7827679D01*
X25457101Y-7769281D02*
X25457101Y-7487298D01*
X25175118Y-7487298D01*
X25175118Y-7769281D01*
X25457101Y-7769281D01*
X25867296Y-6200400D02*
X26266076Y-6599180D01*
X26266076Y-6200400D02*
X25867296Y-6599180D01*
X26207677Y-6540781D02*
X26207677Y-6258798D01*
X25925695Y-6258798D01*
X25925695Y-6540781D01*
X26207677Y-6540781D01*
X26143726Y-2282883D02*
X26542506Y-2681663D01*
X26542506Y-2282883D02*
X26143726Y-2681663D01*
X26484107Y-2623264D02*
X26484107Y-2341281D01*
X26202124Y-2341281D01*
X26202124Y-2623264D01*
X26484107Y-2623264D01*
X26750956Y-241424D02*
X27149736Y-640204D01*
X27149736Y-241424D02*
X26750956Y-640204D01*
X27091337Y-581805D02*
X27091337Y-299823D01*
X26809354Y-299823D01*
X26809354Y-581805D01*
X27091337Y-581805D01*
X26943540Y-4076241D02*
X27342320Y-4475021D01*
X27342320Y-4076241D02*
X26943540Y-4475021D01*
X27283922Y-4416623D02*
X27283922Y-4134640D01*
X27001939Y-4134640D01*
X27001939Y-4416623D01*
X27283922Y-4416623D01*
X27743355Y-5869600D02*
X28142135Y-6268380D01*
X28142135Y-5869600D02*
X27743355Y-6268380D01*
X28083736Y-6209981D02*
X28083736Y-5927999D01*
X27801753Y-5927999D01*
X27801753Y-6209981D01*
X28083736Y-6209981D01*
X27839647Y-7787009D02*
X28238427Y-8185789D01*
X28238427Y-7787009D02*
X27839647Y-8185789D01*
X28180028Y-8127390D02*
X28180028Y-7845407D01*
X27898046Y-7845407D01*
X27898046Y-8127390D01*
X28180028Y-8127390D01*
X28019785Y-1952083D02*
X28418565Y-2350863D01*
X28418565Y-1952083D02*
X28019785Y-2350863D01*
X28360166Y-2292464D02*
X28360166Y-2010481D01*
X28078183Y-2010481D01*
X28078183Y-2292464D01*
X28360166Y-2292464D01*
X28627014Y89376D02*
X29025794Y-309404D01*
X29025794Y89376D02*
X28627014Y-309404D01*
X28967396Y-251006D02*
X28967396Y30977D01*
X28685413Y30977D01*
X28685413Y-251006D01*
X28967396Y-251006D01*
X28819599Y-3745442D02*
X29218379Y-4144222D01*
X29218379Y-3745442D02*
X28819599Y-4144222D01*
X29159980Y-4085823D02*
X29159980Y-3803840D01*
X28877998Y-3803840D01*
X28877998Y-4085823D01*
X29159980Y-4085823D01*
X29619413Y-5538800D02*
X30018193Y-5937580D01*
X30018193Y-5538800D02*
X29619413Y-5937580D01*
X29959795Y-5879182D02*
X29959795Y-5597199D01*
X29677812Y-5597199D01*
X29677812Y-5879182D01*
X29959795Y-5879182D01*
X30532014Y-1705610D02*
X30930794Y-2104390D01*
X30930794Y-1705610D02*
X30532014Y-2104390D01*
X30872396Y-2045991D02*
X30872396Y-1764009D01*
X30590413Y-1764009D01*
X30590413Y-2045991D01*
X30872396Y-2045991D01*
X30770139Y199390D02*
X31168919Y-199390D01*
X31168919Y199390D02*
X30770139Y-199390D01*
X31110521Y-140991D02*
X31110521Y140991D01*
X30828538Y140991D01*
X30828538Y-140991D01*
X31110521Y-140991D01*
X31484514Y-3610610D02*
X31883294Y-4009390D01*
X31883294Y-3610610D02*
X31484514Y-4009390D01*
X31824896Y-3950991D02*
X31824896Y-3669009D01*
X31542913Y-3669009D01*
X31542913Y-3950991D01*
X31824896Y-3950991D01*
X31484514Y-7420610D02*
X31883294Y-7819390D01*
X31883294Y-7420610D02*
X31484514Y-7819390D01*
X31824896Y-7760991D02*
X31824896Y-7479009D01*
X31542913Y-7479009D01*
X31542913Y-7760991D01*
X31824896Y-7760991D01*
X31722639Y-5515610D02*
X32121419Y-5914390D01*
X32121419Y-5515610D02*
X31722639Y-5914390D01*
X32063021Y-5855991D02*
X32063021Y-5574009D01*
X31781038Y-5574009D01*
X31781038Y-5855991D01*
X32063021Y-5855991D01*
X32437014Y-1705610D02*
X32835794Y-2104390D01*
X32835794Y-1705610D02*
X32437014Y-2104390D01*
X32777396Y-2045991D02*
X32777396Y-1764009D01*
X32495413Y-1764009D01*
X32495413Y-2045991D01*
X32777396Y-2045991D01*
X32675139Y199390D02*
X33073919Y-199390D01*
X33073919Y199390D02*
X32675139Y-199390D01*
X33015521Y-140991D02*
X33015521Y140991D01*
X32733538Y140991D01*
X32733538Y-140991D01*
X33015521Y-140991D01*
X33389514Y-3610610D02*
X33788294Y-4009390D01*
X33788294Y-3610610D02*
X33389514Y-4009390D01*
X33729896Y-3950991D02*
X33729896Y-3669009D01*
X33447913Y-3669009D01*
X33447913Y-3950991D01*
X33729896Y-3950991D01*
X33627639Y-6341110D02*
X34026419Y-6739890D01*
X34026419Y-6341110D02*
X33627639Y-6739890D01*
X33968021Y-6681491D02*
X33968021Y-6399509D01*
X33686038Y-6399509D01*
X33686038Y-6681491D01*
X33968021Y-6681491D01*
X33865764Y-7420610D02*
X34264544Y-7819390D01*
X34264544Y-7420610D02*
X33865764Y-7819390D01*
X34206146Y-7760991D02*
X34206146Y-7479009D01*
X33924163Y-7479009D01*
X33924163Y-7760991D01*
X34206146Y-7760991D01*
X34342014Y-1705610D02*
X34740794Y-2104390D01*
X34740794Y-1705610D02*
X34342014Y-2104390D01*
X34682396Y-2045991D02*
X34682396Y-1764009D01*
X34400413Y-1764009D01*
X34400413Y-2045991D01*
X34682396Y-2045991D01*
X34580139Y199390D02*
X34978919Y-199390D01*
X34978919Y199390D02*
X34580139Y-199390D01*
X34920521Y-140991D02*
X34920521Y140991D01*
X34638538Y140991D01*
X34638538Y-140991D01*
X34920521Y-140991D01*
X34818264Y-5515610D02*
X35217044Y-5914390D01*
X35217044Y-5515610D02*
X34818264Y-5914390D01*
X35158646Y-5855991D02*
X35158646Y-5574009D01*
X34876663Y-5574009D01*
X34876663Y-5855991D01*
X35158646Y-5855991D01*
X35056389Y-4436110D02*
X35455169Y-4834890D01*
X35455169Y-4436110D02*
X35056389Y-4834890D01*
X35396771Y-4776491D02*
X35396771Y-4494509D01*
X35114788Y-4494509D01*
X35114788Y-4776491D01*
X35396771Y-4776491D01*
X36008889Y-6341110D02*
X36407669Y-6739890D01*
X36407669Y-6341110D02*
X36008889Y-6739890D01*
X36349271Y-6681491D02*
X36349271Y-6399509D01*
X36067288Y-6399509D01*
X36067288Y-6681491D01*
X36349271Y-6681491D01*
X36247014Y-626110D02*
X36645794Y-1024890D01*
X36645794Y-626110D02*
X36247014Y-1024890D01*
X36587396Y-966491D02*
X36587396Y-684509D01*
X36305413Y-684509D01*
X36305413Y-966491D01*
X36587396Y-966491D01*
X36247014Y-3610610D02*
X36645794Y-4009390D01*
X36645794Y-3610610D02*
X36247014Y-4009390D01*
X36587396Y-3950991D02*
X36587396Y-3669009D01*
X36305413Y-3669009D01*
X36305413Y-3950991D01*
X36587396Y-3950991D01*
X36247014Y-7420610D02*
X36645794Y-7819390D01*
X36645794Y-7420610D02*
X36247014Y-7819390D01*
X36587396Y-7760991D02*
X36587396Y-7479009D01*
X36305413Y-7479009D01*
X36305413Y-7760991D01*
X36587396Y-7760991D01*
X36485139Y-1705610D02*
X36883919Y-2104390D01*
X36883919Y-1705610D02*
X36485139Y-2104390D01*
X36825521Y-2045991D02*
X36825521Y-1764009D01*
X36543538Y-1764009D01*
X36543538Y-2045991D01*
X36825521Y-2045991D01*
X37437639Y199390D02*
X37836419Y-199390D01*
X37836419Y199390D02*
X37437639Y-199390D01*
X37778021Y-140991D02*
X37778021Y140991D01*
X37496038Y140991D01*
X37496038Y-140991D01*
X37778021Y-140991D01*
X37437639Y-4436110D02*
X37836419Y-4834890D01*
X37836419Y-4436110D02*
X37437639Y-4834890D01*
X37778021Y-4776491D02*
X37778021Y-4494509D01*
X37496038Y-4494509D01*
X37496038Y-4776491D01*
X37778021Y-4776491D01*
X37913889Y-5515610D02*
X38312669Y-5914390D01*
X38312669Y-5515610D02*
X37913889Y-5914390D01*
X38254271Y-5855991D02*
X38254271Y-5574009D01*
X37972288Y-5574009D01*
X37972288Y-5855991D01*
X38254271Y-5855991D01*
X38628264Y-626110D02*
X39027044Y-1024890D01*
X39027044Y-626110D02*
X38628264Y-1024890D01*
X38968646Y-966491D02*
X38968646Y-684509D01*
X38686663Y-684509D01*
X38686663Y-966491D01*
X38968646Y-966491D01*
X39085514Y-7420610D02*
X39484294Y-7819390D01*
X39484294Y-7420610D02*
X39085514Y-7819390D01*
X39425896Y-7760991D02*
X39425896Y-7479009D01*
X39143913Y-7479009D01*
X39143913Y-7760991D01*
X39425896Y-7760991D01*
X40990514Y-5515610D02*
X41389294Y-5914390D01*
X41389294Y-5515610D02*
X40990514Y-5914390D01*
X41330896Y-5855991D02*
X41330896Y-5574009D01*
X41048913Y-5574009D01*
X41048913Y-5855991D01*
X41330896Y-5855991D01*
X40990514Y-7420610D02*
X41389294Y-7819390D01*
X41389294Y-7420610D02*
X40990514Y-7819390D01*
X41330896Y-7760991D02*
X41330896Y-7479009D01*
X41048913Y-7479009D01*
X41048913Y-7760991D01*
X41330896Y-7760991D01*
X42895514Y-1705610D02*
X43294294Y-2104390D01*
X43294294Y-1705610D02*
X42895514Y-2104390D01*
X43235896Y-2045991D02*
X43235896Y-1764009D01*
X42953913Y-1764009D01*
X42953913Y-2045991D01*
X43235896Y-2045991D01*
X42895514Y-3610610D02*
X43294294Y-4009390D01*
X43294294Y-3610610D02*
X42895514Y-4009390D01*
X43235896Y-3950991D02*
X43235896Y-3669009D01*
X42953913Y-3669009D01*
X42953913Y-3950991D01*
X43235896Y-3950991D01*
X42895514Y-7420610D02*
X43294294Y-7819390D01*
X43294294Y-7420610D02*
X42895514Y-7819390D01*
X43235896Y-7760991D02*
X43235896Y-7479009D01*
X42953913Y-7479009D01*
X42953913Y-7760991D01*
X43235896Y-7760991D01*
D12*
X-668572Y-10539314D02*
X-668572Y-10239314D01*
X-597143Y-10239314D01*
X-554286Y-10253600D01*
X-525714Y-10282172D01*
X-511429Y-10310743D01*
X-497143Y-10367886D01*
X-497143Y-10410743D01*
X-511429Y-10467886D01*
X-525714Y-10496457D01*
X-554286Y-10525029D01*
X-597143Y-10539314D01*
X-668572Y-10539314D01*
X-368571Y-10539314D02*
X-368571Y-10339314D01*
X-368571Y-10396457D02*
X-354286Y-10367886D01*
X-340000Y-10353600D01*
X-311429Y-10339314D01*
X-282857Y-10339314D01*
X-182857Y-10539314D02*
X-182857Y-10339314D01*
X-182857Y-10239314D02*
X-197143Y-10253600D01*
X-182857Y-10267886D01*
X-168572Y-10253600D01*
X-182857Y-10239314D01*
X-182857Y-10267886D01*
X2857Y-10539314D02*
X-25714Y-10525029D01*
X-40000Y-10496457D01*
X-40000Y-10239314D01*
X160000Y-10539314D02*
X131428Y-10525029D01*
X117143Y-10496457D01*
X117143Y-10239314D01*
X502857Y-10539314D02*
X502857Y-10239314D01*
X602857Y-10453600D01*
X702857Y-10239314D01*
X702857Y-10539314D01*
X974286Y-10539314D02*
X974286Y-10382172D01*
X960000Y-10353600D01*
X931428Y-10339314D01*
X874286Y-10339314D01*
X845714Y-10353600D01*
X974286Y-10525029D02*
X945714Y-10539314D01*
X874286Y-10539314D01*
X845714Y-10525029D01*
X831428Y-10496457D01*
X831428Y-10467886D01*
X845714Y-10439314D01*
X874286Y-10425029D01*
X945714Y-10425029D01*
X974286Y-10410743D01*
X1117143Y-10339314D02*
X1117143Y-10639314D01*
X1117143Y-10353600D02*
X1145714Y-10339314D01*
X1202857Y-10339314D01*
X1231428Y-10353600D01*
X1245714Y-10367886D01*
X1260000Y-10396457D01*
X1260000Y-10482172D01*
X1245714Y-10510743D01*
X1231428Y-10525029D01*
X1202857Y-10539314D01*
X1145714Y-10539314D01*
X1117143Y-10525029D01*
X1388571Y-10510743D02*
X1402857Y-10525029D01*
X1388571Y-10539314D01*
X1374286Y-10525029D01*
X1388571Y-10510743D01*
X1388571Y-10539314D01*
X1388571Y-10353600D02*
X1402857Y-10367886D01*
X1388571Y-10382172D01*
X1374286Y-10367886D01*
X1388571Y-10353600D01*
X1388571Y-10382172D01*
X-995000Y-11013600D02*
X-955000Y-11053600D01*
X-955000Y-11013600D02*
X-995000Y-11053600D01*
X-611429Y-10869314D02*
X-582857Y-10869314D01*
X-554286Y-10883600D01*
X-540000Y-10897886D01*
X-525714Y-10926457D01*
X-511429Y-10983600D01*
X-511429Y-11055029D01*
X-525714Y-11112172D01*
X-540000Y-11140743D01*
X-554286Y-11155029D01*
X-582857Y-11169314D01*
X-611429Y-11169314D01*
X-640000Y-11155029D01*
X-654286Y-11140743D01*
X-668572Y-11112172D01*
X-682857Y-11055029D01*
X-682857Y-10983600D01*
X-668572Y-10926457D01*
X-654286Y-10897886D01*
X-640000Y-10883600D01*
X-611429Y-10869314D01*
X-382857Y-11140743D02*
X-368571Y-11155029D01*
X-382857Y-11169314D01*
X-397143Y-11155029D01*
X-382857Y-11140743D01*
X-382857Y-11169314D01*
X-111429Y-10969314D02*
X-111429Y-11169314D01*
X-182857Y-10855029D02*
X-254286Y-11069314D01*
X-68572Y-11069314D01*
X102857Y-10869314D02*
X131428Y-10869314D01*
X160000Y-10883600D01*
X174286Y-10897886D01*
X188571Y-10926457D01*
X202857Y-10983600D01*
X202857Y-11055029D01*
X188571Y-11112172D01*
X174286Y-11140743D01*
X160000Y-11155029D01*
X131428Y-11169314D01*
X102857Y-11169314D01*
X74286Y-11155029D01*
X60000Y-11140743D01*
X45714Y-11112172D01*
X31428Y-11055029D01*
X31428Y-10983600D01*
X45714Y-10926457D01*
X60000Y-10897886D01*
X74286Y-10883600D01*
X102857Y-10869314D01*
X388571Y-10869314D02*
X417143Y-10869314D01*
X445714Y-10883600D01*
X460000Y-10897886D01*
X474286Y-10926457D01*
X488571Y-10983600D01*
X488571Y-11055029D01*
X474286Y-11112172D01*
X460000Y-11140743D01*
X445714Y-11155029D01*
X417143Y-11169314D01*
X388571Y-11169314D01*
X360000Y-11155029D01*
X345714Y-11140743D01*
X331428Y-11112172D01*
X317143Y-11055029D01*
X317143Y-10983600D01*
X331428Y-10926457D01*
X345714Y-10897886D01*
X360000Y-10883600D01*
X388571Y-10869314D01*
X617143Y-11169314D02*
X617143Y-10969314D01*
X617143Y-10997886D02*
X631428Y-10983600D01*
X660000Y-10969314D01*
X702857Y-10969314D01*
X731428Y-10983600D01*
X745714Y-11012172D01*
X745714Y-11169314D01*
X745714Y-11012172D02*
X760000Y-10983600D01*
X788571Y-10969314D01*
X831428Y-10969314D01*
X860000Y-10983600D01*
X874286Y-11012172D01*
X874286Y-11169314D01*
X1017143Y-11169314D02*
X1017143Y-10969314D01*
X1017143Y-10997886D02*
X1031428Y-10983600D01*
X1060000Y-10969314D01*
X1102857Y-10969314D01*
X1131428Y-10983600D01*
X1145714Y-11012172D01*
X1145714Y-11169314D01*
X1145714Y-11012172D02*
X1160000Y-10983600D01*
X1188571Y-10969314D01*
X1231428Y-10969314D01*
X1260000Y-10983600D01*
X1274286Y-11012172D01*
X1274286Y-11169314D01*
X1860000Y-10855029D02*
X1602857Y-11240743D01*
X2245714Y-10869314D02*
X2274286Y-10869314D01*
X2302857Y-10883600D01*
X2317143Y-10897886D01*
X2331428Y-10926457D01*
X2345714Y-10983600D01*
X2345714Y-11055029D01*
X2331428Y-11112172D01*
X2317143Y-11140743D01*
X2302857Y-11155029D01*
X2274286Y-11169314D01*
X2245714Y-11169314D01*
X2217143Y-11155029D01*
X2202857Y-11140743D01*
X2188571Y-11112172D01*
X2174286Y-11055029D01*
X2174286Y-10983600D01*
X2188571Y-10926457D01*
X2202857Y-10897886D01*
X2217143Y-10883600D01*
X2245714Y-10869314D01*
X2474286Y-11140743D02*
X2488571Y-11155029D01*
X2474286Y-11169314D01*
X2460000Y-11155029D01*
X2474286Y-11140743D01*
X2474286Y-11169314D01*
X2674286Y-10869314D02*
X2702857Y-10869314D01*
X2731428Y-10883600D01*
X2745714Y-10897886D01*
X2760000Y-10926457D01*
X2774286Y-10983600D01*
X2774286Y-11055029D01*
X2760000Y-11112172D01*
X2745714Y-11140743D01*
X2731428Y-11155029D01*
X2702857Y-11169314D01*
X2674286Y-11169314D01*
X2645714Y-11155029D01*
X2631428Y-11140743D01*
X2617143Y-11112172D01*
X2602857Y-11055029D01*
X2602857Y-10983600D01*
X2617143Y-10926457D01*
X2631428Y-10897886D01*
X2645714Y-10883600D01*
X2674286Y-10869314D01*
X3060000Y-11169314D02*
X2888571Y-11169314D01*
X2974286Y-11169314D02*
X2974286Y-10869314D01*
X2945714Y-10912172D01*
X2917143Y-10940743D01*
X2888571Y-10955029D01*
X3331428Y-10869314D02*
X3188571Y-10869314D01*
X3174286Y-11012172D01*
X3188571Y-10997886D01*
X3217143Y-10983600D01*
X3288571Y-10983600D01*
X3317143Y-10997886D01*
X3331428Y-11012172D01*
X3345714Y-11040743D01*
X3345714Y-11112172D01*
X3331428Y-11140743D01*
X3317143Y-11155029D01*
X3288571Y-11169314D01*
X3217143Y-11169314D01*
X3188571Y-11155029D01*
X3174286Y-11140743D01*
X3445714Y-10869314D02*
X3645714Y-10869314D01*
X3517143Y-11169314D01*
X3745714Y-10869314D02*
X3745714Y-10926457D01*
X3860000Y-10869314D02*
X3860000Y-10926457D01*
X4302857Y-11283600D02*
X4288571Y-11269314D01*
X4260000Y-11226457D01*
X4245714Y-11197886D01*
X4231428Y-11155029D01*
X4217143Y-11083600D01*
X4217143Y-11026457D01*
X4231428Y-10955029D01*
X4245714Y-10912172D01*
X4260000Y-10883600D01*
X4288571Y-10840743D01*
X4302857Y-10826457D01*
X4431428Y-11169314D02*
X4488571Y-11169314D01*
X4517143Y-11155029D01*
X4531428Y-11140743D01*
X4560000Y-11097886D01*
X4574286Y-11040743D01*
X4574286Y-10926457D01*
X4560000Y-10897886D01*
X4545714Y-10883600D01*
X4517143Y-10869314D01*
X4460000Y-10869314D01*
X4431428Y-10883600D01*
X4417143Y-10897886D01*
X4402857Y-10926457D01*
X4402857Y-10997886D01*
X4417143Y-11026457D01*
X4431428Y-11040743D01*
X4460000Y-11055029D01*
X4517143Y-11055029D01*
X4545714Y-11040743D01*
X4560000Y-11026457D01*
X4574286Y-10997886D01*
X4717143Y-11169314D02*
X4774286Y-11169314D01*
X4802857Y-11155029D01*
X4817143Y-11140743D01*
X4845714Y-11097886D01*
X4860000Y-11040743D01*
X4860000Y-10926457D01*
X4845714Y-10897886D01*
X4831428Y-10883600D01*
X4802857Y-10869314D01*
X4745714Y-10869314D01*
X4717143Y-10883600D01*
X4702857Y-10897886D01*
X4688571Y-10926457D01*
X4688571Y-10997886D01*
X4702857Y-11026457D01*
X4717143Y-11040743D01*
X4745714Y-11055029D01*
X4802857Y-11055029D01*
X4831428Y-11040743D01*
X4845714Y-11026457D01*
X4860000Y-10997886D01*
X5217143Y-11169314D02*
X5217143Y-10869314D01*
X5345714Y-11169314D02*
X5345714Y-11012172D01*
X5331428Y-10983600D01*
X5302857Y-10969314D01*
X5260000Y-10969314D01*
X5231428Y-10983600D01*
X5217143Y-10997886D01*
X5531428Y-11169314D02*
X5502857Y-11155029D01*
X5488571Y-11140743D01*
X5474286Y-11112172D01*
X5474286Y-11026457D01*
X5488571Y-10997886D01*
X5502857Y-10983600D01*
X5531428Y-10969314D01*
X5574286Y-10969314D01*
X5602857Y-10983600D01*
X5617143Y-10997886D01*
X5631428Y-11026457D01*
X5631428Y-11112172D01*
X5617143Y-11140743D01*
X5602857Y-11155029D01*
X5574286Y-11169314D01*
X5531428Y-11169314D01*
X5802857Y-11169314D02*
X5774286Y-11155029D01*
X5760000Y-11126457D01*
X5760000Y-10869314D01*
X6031428Y-11155029D02*
X6002857Y-11169314D01*
X5945714Y-11169314D01*
X5917143Y-11155029D01*
X5902857Y-11126457D01*
X5902857Y-11012172D01*
X5917143Y-10983600D01*
X5945714Y-10969314D01*
X6002857Y-10969314D01*
X6031428Y-10983600D01*
X6045714Y-11012172D01*
X6045714Y-11040743D01*
X5902857Y-11069314D01*
X6160000Y-11155029D02*
X6188571Y-11169314D01*
X6245714Y-11169314D01*
X6274286Y-11155029D01*
X6288571Y-11126457D01*
X6288571Y-11112172D01*
X6274286Y-11083600D01*
X6245714Y-11069314D01*
X6202857Y-11069314D01*
X6174286Y-11055029D01*
X6160000Y-11026457D01*
X6160000Y-11012172D01*
X6174286Y-10983600D01*
X6202857Y-10969314D01*
X6245714Y-10969314D01*
X6274286Y-10983600D01*
X6388571Y-11283600D02*
X6402857Y-11269314D01*
X6431428Y-11226457D01*
X6445714Y-11197886D01*
X6460000Y-11155029D01*
X6474286Y-11083600D01*
X6474286Y-11026457D01*
X6460000Y-10955029D01*
X6445714Y-10912172D01*
X6431428Y-10883600D01*
X6402857Y-10840743D01*
X6388571Y-10826457D01*
X-955000Y-11429600D02*
G75*
G03*
X-955000Y-11429600I-50000J0D01*
G01*
X-511429Y-11565314D02*
X-682857Y-11565314D01*
X-597143Y-11565314D02*
X-597143Y-11265314D01*
X-625714Y-11308171D01*
X-654286Y-11336743D01*
X-682857Y-11351029D01*
X-382857Y-11536743D02*
X-368571Y-11551029D01*
X-382857Y-11565314D01*
X-397143Y-11551029D01*
X-382857Y-11536743D01*
X-382857Y-11565314D01*
X-182857Y-11265314D02*
X-154286Y-11265314D01*
X-125714Y-11279600D01*
X-111429Y-11293886D01*
X-97143Y-11322457D01*
X-82857Y-11379600D01*
X-82857Y-11451029D01*
X-97143Y-11508171D01*
X-111429Y-11536743D01*
X-125714Y-11551029D01*
X-154286Y-11565314D01*
X-182857Y-11565314D01*
X-211429Y-11551029D01*
X-225714Y-11536743D01*
X-240000Y-11508171D01*
X-254286Y-11451029D01*
X-254286Y-11379600D01*
X-240000Y-11322457D01*
X-225714Y-11293886D01*
X-211429Y-11279600D01*
X-182857Y-11265314D01*
X102857Y-11265314D02*
X131428Y-11265314D01*
X160000Y-11279600D01*
X174286Y-11293886D01*
X188571Y-11322457D01*
X202857Y-11379600D01*
X202857Y-11451029D01*
X188571Y-11508171D01*
X174286Y-11536743D01*
X160000Y-11551029D01*
X131428Y-11565314D01*
X102857Y-11565314D01*
X74286Y-11551029D01*
X60000Y-11536743D01*
X45714Y-11508171D01*
X31428Y-11451029D01*
X31428Y-11379600D01*
X45714Y-11322457D01*
X60000Y-11293886D01*
X74286Y-11279600D01*
X102857Y-11265314D01*
X388571Y-11265314D02*
X417143Y-11265314D01*
X445714Y-11279600D01*
X460000Y-11293886D01*
X474286Y-11322457D01*
X488571Y-11379600D01*
X488571Y-11451029D01*
X474286Y-11508171D01*
X460000Y-11536743D01*
X445714Y-11551029D01*
X417143Y-11565314D01*
X388571Y-11565314D01*
X360000Y-11551029D01*
X345714Y-11536743D01*
X331428Y-11508171D01*
X317143Y-11451029D01*
X317143Y-11379600D01*
X331428Y-11322457D01*
X345714Y-11293886D01*
X360000Y-11279600D01*
X388571Y-11265314D01*
X617143Y-11565314D02*
X617143Y-11365314D01*
X617143Y-11393886D02*
X631428Y-11379600D01*
X660000Y-11365314D01*
X702857Y-11365314D01*
X731428Y-11379600D01*
X745714Y-11408171D01*
X745714Y-11565314D01*
X745714Y-11408171D02*
X760000Y-11379600D01*
X788571Y-11365314D01*
X831428Y-11365314D01*
X860000Y-11379600D01*
X874286Y-11408171D01*
X874286Y-11565314D01*
X1017143Y-11565314D02*
X1017143Y-11365314D01*
X1017143Y-11393886D02*
X1031428Y-11379600D01*
X1060000Y-11365314D01*
X1102857Y-11365314D01*
X1131428Y-11379600D01*
X1145714Y-11408171D01*
X1145714Y-11565314D01*
X1145714Y-11408171D02*
X1160000Y-11379600D01*
X1188571Y-11365314D01*
X1231428Y-11365314D01*
X1260000Y-11379600D01*
X1274286Y-11408171D01*
X1274286Y-11565314D01*
X1860000Y-11251029D02*
X1602857Y-11636743D01*
X2245714Y-11265314D02*
X2274286Y-11265314D01*
X2302857Y-11279600D01*
X2317143Y-11293886D01*
X2331428Y-11322457D01*
X2345714Y-11379600D01*
X2345714Y-11451029D01*
X2331428Y-11508171D01*
X2317143Y-11536743D01*
X2302857Y-11551029D01*
X2274286Y-11565314D01*
X2245714Y-11565314D01*
X2217143Y-11551029D01*
X2202857Y-11536743D01*
X2188571Y-11508171D01*
X2174286Y-11451029D01*
X2174286Y-11379600D01*
X2188571Y-11322457D01*
X2202857Y-11293886D01*
X2217143Y-11279600D01*
X2245714Y-11265314D01*
X2474286Y-11536743D02*
X2488571Y-11551029D01*
X2474286Y-11565314D01*
X2460000Y-11551029D01*
X2474286Y-11536743D01*
X2474286Y-11565314D01*
X2674286Y-11265314D02*
X2702857Y-11265314D01*
X2731428Y-11279600D01*
X2745714Y-11293886D01*
X2760000Y-11322457D01*
X2774286Y-11379600D01*
X2774286Y-11451029D01*
X2760000Y-11508171D01*
X2745714Y-11536743D01*
X2731428Y-11551029D01*
X2702857Y-11565314D01*
X2674286Y-11565314D01*
X2645714Y-11551029D01*
X2631428Y-11536743D01*
X2617143Y-11508171D01*
X2602857Y-11451029D01*
X2602857Y-11379600D01*
X2617143Y-11322457D01*
X2631428Y-11293886D01*
X2645714Y-11279600D01*
X2674286Y-11265314D01*
X2874286Y-11265314D02*
X3060000Y-11265314D01*
X2960000Y-11379600D01*
X3002857Y-11379600D01*
X3031428Y-11393886D01*
X3045714Y-11408171D01*
X3060000Y-11436743D01*
X3060000Y-11508171D01*
X3045714Y-11536743D01*
X3031428Y-11551029D01*
X3002857Y-11565314D01*
X2917143Y-11565314D01*
X2888571Y-11551029D01*
X2874286Y-11536743D01*
X3202857Y-11565314D02*
X3260000Y-11565314D01*
X3288571Y-11551029D01*
X3302857Y-11536743D01*
X3331428Y-11493886D01*
X3345714Y-11436743D01*
X3345714Y-11322457D01*
X3331428Y-11293886D01*
X3317143Y-11279600D01*
X3288571Y-11265314D01*
X3231428Y-11265314D01*
X3202857Y-11279600D01*
X3188571Y-11293886D01*
X3174286Y-11322457D01*
X3174286Y-11393886D01*
X3188571Y-11422457D01*
X3202857Y-11436743D01*
X3231428Y-11451029D01*
X3288571Y-11451029D01*
X3317143Y-11436743D01*
X3331428Y-11422457D01*
X3345714Y-11393886D01*
X3602857Y-11365314D02*
X3602857Y-11565314D01*
X3531428Y-11251029D02*
X3460000Y-11465314D01*
X3645714Y-11465314D01*
X3745714Y-11265314D02*
X3745714Y-11322457D01*
X3860000Y-11265314D02*
X3860000Y-11322457D01*
X4302857Y-11679600D02*
X4288571Y-11665314D01*
X4260000Y-11622457D01*
X4245714Y-11593886D01*
X4231428Y-11551029D01*
X4217143Y-11479600D01*
X4217143Y-11422457D01*
X4231428Y-11351029D01*
X4245714Y-11308171D01*
X4260000Y-11279600D01*
X4288571Y-11236743D01*
X4302857Y-11222457D01*
X4560000Y-11265314D02*
X4417143Y-11265314D01*
X4402857Y-11408171D01*
X4417143Y-11393886D01*
X4445714Y-11379600D01*
X4517143Y-11379600D01*
X4545714Y-11393886D01*
X4560000Y-11408171D01*
X4574286Y-11436743D01*
X4574286Y-11508171D01*
X4560000Y-11536743D01*
X4545714Y-11551029D01*
X4517143Y-11565314D01*
X4445714Y-11565314D01*
X4417143Y-11551029D01*
X4402857Y-11536743D01*
X4931428Y-11565314D02*
X4931428Y-11265314D01*
X5060000Y-11565314D02*
X5060000Y-11408171D01*
X5045714Y-11379600D01*
X5017143Y-11365314D01*
X4974286Y-11365314D01*
X4945714Y-11379600D01*
X4931428Y-11393886D01*
X5245714Y-11565314D02*
X5217143Y-11551029D01*
X5202857Y-11536743D01*
X5188571Y-11508171D01*
X5188571Y-11422457D01*
X5202857Y-11393886D01*
X5217143Y-11379600D01*
X5245714Y-11365314D01*
X5288571Y-11365314D01*
X5317143Y-11379600D01*
X5331428Y-11393886D01*
X5345714Y-11422457D01*
X5345714Y-11508171D01*
X5331428Y-11536743D01*
X5317143Y-11551029D01*
X5288571Y-11565314D01*
X5245714Y-11565314D01*
X5517143Y-11565314D02*
X5488571Y-11551029D01*
X5474286Y-11522457D01*
X5474286Y-11265314D01*
X5745714Y-11551029D02*
X5717143Y-11565314D01*
X5660000Y-11565314D01*
X5631428Y-11551029D01*
X5617143Y-11522457D01*
X5617143Y-11408171D01*
X5631428Y-11379600D01*
X5660000Y-11365314D01*
X5717143Y-11365314D01*
X5745714Y-11379600D01*
X5760000Y-11408171D01*
X5760000Y-11436743D01*
X5617143Y-11465314D01*
X5874286Y-11551029D02*
X5902857Y-11565314D01*
X5960000Y-11565314D01*
X5988571Y-11551029D01*
X6002857Y-11522457D01*
X6002857Y-11508171D01*
X5988571Y-11479600D01*
X5960000Y-11465314D01*
X5917143Y-11465314D01*
X5888571Y-11451029D01*
X5874286Y-11422457D01*
X5874286Y-11408171D01*
X5888571Y-11379600D01*
X5917143Y-11365314D01*
X5960000Y-11365314D01*
X5988571Y-11379600D01*
X6102857Y-11679600D02*
X6117143Y-11665314D01*
X6145714Y-11622457D01*
X6160000Y-11593886D01*
X6174286Y-11551029D01*
X6188571Y-11479600D01*
X6188571Y-11422457D01*
X6174286Y-11351029D01*
X6160000Y-11308171D01*
X6145714Y-11279600D01*
X6117143Y-11236743D01*
X6102857Y-11222457D01*
X-1009610Y-11770990D02*
X-1009610Y-11880210D01*
X-1064220Y-11825600D02*
X-955000Y-11825600D01*
X-511429Y-11961314D02*
X-682857Y-11961314D01*
X-597143Y-11961314D02*
X-597143Y-11661314D01*
X-625714Y-11704171D01*
X-654286Y-11732743D01*
X-682857Y-11747029D01*
X-382857Y-11932743D02*
X-368571Y-11947029D01*
X-382857Y-11961314D01*
X-397143Y-11947029D01*
X-382857Y-11932743D01*
X-382857Y-11961314D01*
X-182857Y-11661314D02*
X-154286Y-11661314D01*
X-125714Y-11675600D01*
X-111429Y-11689886D01*
X-97143Y-11718457D01*
X-82857Y-11775600D01*
X-82857Y-11847029D01*
X-97143Y-11904171D01*
X-111429Y-11932743D01*
X-125714Y-11947029D01*
X-154286Y-11961314D01*
X-182857Y-11961314D01*
X-211429Y-11947029D01*
X-225714Y-11932743D01*
X-240000Y-11904171D01*
X-254286Y-11847029D01*
X-254286Y-11775600D01*
X-240000Y-11718457D01*
X-225714Y-11689886D01*
X-211429Y-11675600D01*
X-182857Y-11661314D01*
X60000Y-11961314D02*
X117143Y-11961314D01*
X145714Y-11947029D01*
X160000Y-11932743D01*
X188571Y-11889886D01*
X202857Y-11832743D01*
X202857Y-11718457D01*
X188571Y-11689886D01*
X174286Y-11675600D01*
X145714Y-11661314D01*
X88571Y-11661314D01*
X60000Y-11675600D01*
X45714Y-11689886D01*
X31428Y-11718457D01*
X31428Y-11789886D01*
X45714Y-11818457D01*
X60000Y-11832743D01*
X88571Y-11847029D01*
X145714Y-11847029D01*
X174286Y-11832743D01*
X188571Y-11818457D01*
X202857Y-11789886D01*
X317143Y-11689886D02*
X331428Y-11675600D01*
X360000Y-11661314D01*
X431428Y-11661314D01*
X460000Y-11675600D01*
X474286Y-11689886D01*
X488571Y-11718457D01*
X488571Y-11747029D01*
X474286Y-11789886D01*
X302857Y-11961314D01*
X488571Y-11961314D01*
X617143Y-11961314D02*
X617143Y-11761314D01*
X617143Y-11789886D02*
X631428Y-11775600D01*
X660000Y-11761314D01*
X702857Y-11761314D01*
X731428Y-11775600D01*
X745714Y-11804171D01*
X745714Y-11961314D01*
X745714Y-11804171D02*
X760000Y-11775600D01*
X788571Y-11761314D01*
X831428Y-11761314D01*
X860000Y-11775600D01*
X874286Y-11804171D01*
X874286Y-11961314D01*
X1017143Y-11961314D02*
X1017143Y-11761314D01*
X1017143Y-11789886D02*
X1031428Y-11775600D01*
X1060000Y-11761314D01*
X1102857Y-11761314D01*
X1131428Y-11775600D01*
X1145714Y-11804171D01*
X1145714Y-11961314D01*
X1145714Y-11804171D02*
X1160000Y-11775600D01*
X1188571Y-11761314D01*
X1231428Y-11761314D01*
X1260000Y-11775600D01*
X1274286Y-11804171D01*
X1274286Y-11961314D01*
X1860000Y-11647029D02*
X1602857Y-12032743D01*
X2245714Y-11661314D02*
X2274286Y-11661314D01*
X2302857Y-11675600D01*
X2317143Y-11689886D01*
X2331428Y-11718457D01*
X2345714Y-11775600D01*
X2345714Y-11847029D01*
X2331428Y-11904171D01*
X2317143Y-11932743D01*
X2302857Y-11947029D01*
X2274286Y-11961314D01*
X2245714Y-11961314D01*
X2217143Y-11947029D01*
X2202857Y-11932743D01*
X2188571Y-11904171D01*
X2174286Y-11847029D01*
X2174286Y-11775600D01*
X2188571Y-11718457D01*
X2202857Y-11689886D01*
X2217143Y-11675600D01*
X2245714Y-11661314D01*
X2474286Y-11932743D02*
X2488571Y-11947029D01*
X2474286Y-11961314D01*
X2460000Y-11947029D01*
X2474286Y-11932743D01*
X2474286Y-11961314D01*
X2674286Y-11661314D02*
X2702857Y-11661314D01*
X2731428Y-11675600D01*
X2745714Y-11689886D01*
X2760000Y-11718457D01*
X2774286Y-11775600D01*
X2774286Y-11847029D01*
X2760000Y-11904171D01*
X2745714Y-11932743D01*
X2731428Y-11947029D01*
X2702857Y-11961314D01*
X2674286Y-11961314D01*
X2645714Y-11947029D01*
X2631428Y-11932743D01*
X2617143Y-11904171D01*
X2602857Y-11847029D01*
X2602857Y-11775600D01*
X2617143Y-11718457D01*
X2631428Y-11689886D01*
X2645714Y-11675600D01*
X2674286Y-11661314D01*
X3031428Y-11761314D02*
X3031428Y-11961314D01*
X2960000Y-11647029D02*
X2888571Y-11861314D01*
X3074286Y-11861314D01*
X3160000Y-11661314D02*
X3345714Y-11661314D01*
X3245714Y-11775600D01*
X3288571Y-11775600D01*
X3317143Y-11789886D01*
X3331428Y-11804171D01*
X3345714Y-11832743D01*
X3345714Y-11904171D01*
X3331428Y-11932743D01*
X3317143Y-11947029D01*
X3288571Y-11961314D01*
X3202857Y-11961314D01*
X3174286Y-11947029D01*
X3160000Y-11932743D01*
X3531428Y-11661314D02*
X3560000Y-11661314D01*
X3588571Y-11675600D01*
X3602857Y-11689886D01*
X3617143Y-11718457D01*
X3631428Y-11775600D01*
X3631428Y-11847029D01*
X3617143Y-11904171D01*
X3602857Y-11932743D01*
X3588571Y-11947029D01*
X3560000Y-11961314D01*
X3531428Y-11961314D01*
X3502857Y-11947029D01*
X3488571Y-11932743D01*
X3474286Y-11904171D01*
X3460000Y-11847029D01*
X3460000Y-11775600D01*
X3474286Y-11718457D01*
X3488571Y-11689886D01*
X3502857Y-11675600D01*
X3531428Y-11661314D01*
X3745714Y-11661314D02*
X3745714Y-11718457D01*
X3860000Y-11661314D02*
X3860000Y-11718457D01*
X4302857Y-12075600D02*
X4288571Y-12061314D01*
X4260000Y-12018457D01*
X4245714Y-11989886D01*
X4231428Y-11947029D01*
X4217143Y-11875600D01*
X4217143Y-11818457D01*
X4231428Y-11747029D01*
X4245714Y-11704171D01*
X4260000Y-11675600D01*
X4288571Y-11632743D01*
X4302857Y-11618457D01*
X4402857Y-11689886D02*
X4417143Y-11675600D01*
X4445714Y-11661314D01*
X4517143Y-11661314D01*
X4545714Y-11675600D01*
X4560000Y-11689886D01*
X4574286Y-11718457D01*
X4574286Y-11747029D01*
X4560000Y-11789886D01*
X4388571Y-11961314D01*
X4574286Y-11961314D01*
X4717143Y-11961314D02*
X4774286Y-11961314D01*
X4802857Y-11947029D01*
X4817143Y-11932743D01*
X4845714Y-11889886D01*
X4860000Y-11832743D01*
X4860000Y-11718457D01*
X4845714Y-11689886D01*
X4831428Y-11675600D01*
X4802857Y-11661314D01*
X4745714Y-11661314D01*
X4717143Y-11675600D01*
X4702857Y-11689886D01*
X4688571Y-11718457D01*
X4688571Y-11789886D01*
X4702857Y-11818457D01*
X4717143Y-11832743D01*
X4745714Y-11847029D01*
X4802857Y-11847029D01*
X4831428Y-11832743D01*
X4845714Y-11818457D01*
X4860000Y-11789886D01*
X5217143Y-11961314D02*
X5217143Y-11661314D01*
X5345714Y-11961314D02*
X5345714Y-11804171D01*
X5331428Y-11775600D01*
X5302857Y-11761314D01*
X5260000Y-11761314D01*
X5231428Y-11775600D01*
X5217143Y-11789886D01*
X5531428Y-11961314D02*
X5502857Y-11947029D01*
X5488571Y-11932743D01*
X5474286Y-11904171D01*
X5474286Y-11818457D01*
X5488571Y-11789886D01*
X5502857Y-11775600D01*
X5531428Y-11761314D01*
X5574286Y-11761314D01*
X5602857Y-11775600D01*
X5617143Y-11789886D01*
X5631428Y-11818457D01*
X5631428Y-11904171D01*
X5617143Y-11932743D01*
X5602857Y-11947029D01*
X5574286Y-11961314D01*
X5531428Y-11961314D01*
X5802857Y-11961314D02*
X5774286Y-11947029D01*
X5760000Y-11918457D01*
X5760000Y-11661314D01*
X6031428Y-11947029D02*
X6002857Y-11961314D01*
X5945714Y-11961314D01*
X5917143Y-11947029D01*
X5902857Y-11918457D01*
X5902857Y-11804171D01*
X5917143Y-11775600D01*
X5945714Y-11761314D01*
X6002857Y-11761314D01*
X6031428Y-11775600D01*
X6045714Y-11804171D01*
X6045714Y-11832743D01*
X5902857Y-11861314D01*
X6160000Y-11947029D02*
X6188571Y-11961314D01*
X6245714Y-11961314D01*
X6274286Y-11947029D01*
X6288571Y-11918457D01*
X6288571Y-11904171D01*
X6274286Y-11875600D01*
X6245714Y-11861314D01*
X6202857Y-11861314D01*
X6174286Y-11847029D01*
X6160000Y-11818457D01*
X6160000Y-11804171D01*
X6174286Y-11775600D01*
X6202857Y-11761314D01*
X6245714Y-11761314D01*
X6274286Y-11775600D01*
X6388571Y-12075600D02*
X6402857Y-12061314D01*
X6431428Y-12018457D01*
X6445714Y-11989886D01*
X6460000Y-11947029D01*
X6474286Y-11875600D01*
X6474286Y-11818457D01*
X6460000Y-11747029D01*
X6445714Y-11704171D01*
X6431428Y-11675600D01*
X6402857Y-11632743D01*
X6388571Y-11618457D01*
X-976527Y-12273573D02*
X-976527Y-12169627D01*
X-1080473Y-12169627D01*
X-1080473Y-12273573D01*
X-976527Y-12273573D01*
X-511429Y-12357314D02*
X-682857Y-12357314D01*
X-597143Y-12357314D02*
X-597143Y-12057314D01*
X-625714Y-12100171D01*
X-654286Y-12128743D01*
X-682857Y-12143029D01*
X-382857Y-12328743D02*
X-368571Y-12343029D01*
X-382857Y-12357314D01*
X-397143Y-12343029D01*
X-382857Y-12328743D01*
X-382857Y-12357314D01*
X-111429Y-12157314D02*
X-111429Y-12357314D01*
X-182857Y-12043029D02*
X-254286Y-12257314D01*
X-68572Y-12257314D01*
X17143Y-12057314D02*
X217143Y-12057314D01*
X88571Y-12357314D01*
X388571Y-12057314D02*
X417143Y-12057314D01*
X445714Y-12071600D01*
X460000Y-12085886D01*
X474286Y-12114457D01*
X488571Y-12171600D01*
X488571Y-12243029D01*
X474286Y-12300171D01*
X460000Y-12328743D01*
X445714Y-12343029D01*
X417143Y-12357314D01*
X388571Y-12357314D01*
X360000Y-12343029D01*
X345714Y-12328743D01*
X331428Y-12300171D01*
X317143Y-12243029D01*
X317143Y-12171600D01*
X331428Y-12114457D01*
X345714Y-12085886D01*
X360000Y-12071600D01*
X388571Y-12057314D01*
X617143Y-12357314D02*
X617143Y-12157314D01*
X617143Y-12185886D02*
X631428Y-12171600D01*
X660000Y-12157314D01*
X702857Y-12157314D01*
X731428Y-12171600D01*
X745714Y-12200171D01*
X745714Y-12357314D01*
X745714Y-12200171D02*
X760000Y-12171600D01*
X788571Y-12157314D01*
X831428Y-12157314D01*
X860000Y-12171600D01*
X874286Y-12200171D01*
X874286Y-12357314D01*
X1017143Y-12357314D02*
X1017143Y-12157314D01*
X1017143Y-12185886D02*
X1031428Y-12171600D01*
X1060000Y-12157314D01*
X1102857Y-12157314D01*
X1131428Y-12171600D01*
X1145714Y-12200171D01*
X1145714Y-12357314D01*
X1145714Y-12200171D02*
X1160000Y-12171600D01*
X1188571Y-12157314D01*
X1231428Y-12157314D01*
X1260000Y-12171600D01*
X1274286Y-12200171D01*
X1274286Y-12357314D01*
X1860000Y-12043029D02*
X1602857Y-12428743D01*
X2245714Y-12057314D02*
X2274286Y-12057314D01*
X2302857Y-12071600D01*
X2317143Y-12085886D01*
X2331428Y-12114457D01*
X2345714Y-12171600D01*
X2345714Y-12243029D01*
X2331428Y-12300171D01*
X2317143Y-12328743D01*
X2302857Y-12343029D01*
X2274286Y-12357314D01*
X2245714Y-12357314D01*
X2217143Y-12343029D01*
X2202857Y-12328743D01*
X2188571Y-12300171D01*
X2174286Y-12243029D01*
X2174286Y-12171600D01*
X2188571Y-12114457D01*
X2202857Y-12085886D01*
X2217143Y-12071600D01*
X2245714Y-12057314D01*
X2474286Y-12328743D02*
X2488571Y-12343029D01*
X2474286Y-12357314D01*
X2460000Y-12343029D01*
X2474286Y-12328743D01*
X2474286Y-12357314D01*
X2674286Y-12057314D02*
X2702857Y-12057314D01*
X2731428Y-12071600D01*
X2745714Y-12085886D01*
X2760000Y-12114457D01*
X2774286Y-12171600D01*
X2774286Y-12243029D01*
X2760000Y-12300171D01*
X2745714Y-12328743D01*
X2731428Y-12343029D01*
X2702857Y-12357314D01*
X2674286Y-12357314D01*
X2645714Y-12343029D01*
X2631428Y-12328743D01*
X2617143Y-12300171D01*
X2602857Y-12243029D01*
X2602857Y-12171600D01*
X2617143Y-12114457D01*
X2631428Y-12085886D01*
X2645714Y-12071600D01*
X2674286Y-12057314D01*
X3045714Y-12057314D02*
X2902857Y-12057314D01*
X2888571Y-12200171D01*
X2902857Y-12185886D01*
X2931428Y-12171600D01*
X3002857Y-12171600D01*
X3031428Y-12185886D01*
X3045714Y-12200171D01*
X3060000Y-12228743D01*
X3060000Y-12300171D01*
X3045714Y-12328743D01*
X3031428Y-12343029D01*
X3002857Y-12357314D01*
X2931428Y-12357314D01*
X2902857Y-12343029D01*
X2888571Y-12328743D01*
X3160000Y-12057314D02*
X3360000Y-12057314D01*
X3231428Y-12357314D01*
X3488571Y-12357314D02*
X3545714Y-12357314D01*
X3574286Y-12343029D01*
X3588571Y-12328743D01*
X3617143Y-12285886D01*
X3631428Y-12228743D01*
X3631428Y-12114457D01*
X3617143Y-12085886D01*
X3602857Y-12071600D01*
X3574286Y-12057314D01*
X3517143Y-12057314D01*
X3488571Y-12071600D01*
X3474286Y-12085886D01*
X3460000Y-12114457D01*
X3460000Y-12185886D01*
X3474286Y-12214457D01*
X3488571Y-12228743D01*
X3517143Y-12243029D01*
X3574286Y-12243029D01*
X3602857Y-12228743D01*
X3617143Y-12214457D01*
X3631428Y-12185886D01*
X3745714Y-12057314D02*
X3745714Y-12114457D01*
X3860000Y-12057314D02*
X3860000Y-12114457D01*
X4302857Y-12471600D02*
X4288571Y-12457314D01*
X4260000Y-12414457D01*
X4245714Y-12385886D01*
X4231428Y-12343029D01*
X4217143Y-12271600D01*
X4217143Y-12214457D01*
X4231428Y-12143029D01*
X4245714Y-12100171D01*
X4260000Y-12071600D01*
X4288571Y-12028743D01*
X4302857Y-12014457D01*
X4574286Y-12357314D02*
X4402857Y-12357314D01*
X4488571Y-12357314D02*
X4488571Y-12057314D01*
X4460000Y-12100171D01*
X4431428Y-12128743D01*
X4402857Y-12143029D01*
X4745714Y-12185886D02*
X4717143Y-12171600D01*
X4702857Y-12157314D01*
X4688571Y-12128743D01*
X4688571Y-12114457D01*
X4702857Y-12085886D01*
X4717143Y-12071600D01*
X4745714Y-12057314D01*
X4802857Y-12057314D01*
X4831428Y-12071600D01*
X4845714Y-12085886D01*
X4860000Y-12114457D01*
X4860000Y-12128743D01*
X4845714Y-12157314D01*
X4831428Y-12171600D01*
X4802857Y-12185886D01*
X4745714Y-12185886D01*
X4717143Y-12200171D01*
X4702857Y-12214457D01*
X4688571Y-12243029D01*
X4688571Y-12300171D01*
X4702857Y-12328743D01*
X4717143Y-12343029D01*
X4745714Y-12357314D01*
X4802857Y-12357314D01*
X4831428Y-12343029D01*
X4845714Y-12328743D01*
X4860000Y-12300171D01*
X4860000Y-12243029D01*
X4845714Y-12214457D01*
X4831428Y-12200171D01*
X4802857Y-12185886D01*
X5117143Y-12157314D02*
X5117143Y-12357314D01*
X5045714Y-12043029D02*
X4974286Y-12257314D01*
X5160000Y-12257314D01*
X5502857Y-12357314D02*
X5502857Y-12057314D01*
X5631428Y-12357314D02*
X5631428Y-12200171D01*
X5617143Y-12171600D01*
X5588571Y-12157314D01*
X5545714Y-12157314D01*
X5517143Y-12171600D01*
X5502857Y-12185886D01*
X5817143Y-12357314D02*
X5788571Y-12343029D01*
X5774286Y-12328743D01*
X5760000Y-12300171D01*
X5760000Y-12214457D01*
X5774286Y-12185886D01*
X5788571Y-12171600D01*
X5817143Y-12157314D01*
X5860000Y-12157314D01*
X5888571Y-12171600D01*
X5902857Y-12185886D01*
X5917143Y-12214457D01*
X5917143Y-12300171D01*
X5902857Y-12328743D01*
X5888571Y-12343029D01*
X5860000Y-12357314D01*
X5817143Y-12357314D01*
X6088571Y-12357314D02*
X6060000Y-12343029D01*
X6045714Y-12314457D01*
X6045714Y-12057314D01*
X6317143Y-12343029D02*
X6288571Y-12357314D01*
X6231428Y-12357314D01*
X6202857Y-12343029D01*
X6188571Y-12314457D01*
X6188571Y-12200171D01*
X6202857Y-12171600D01*
X6231428Y-12157314D01*
X6288571Y-12157314D01*
X6317143Y-12171600D01*
X6331428Y-12200171D01*
X6331428Y-12228743D01*
X6188571Y-12257314D01*
X6445714Y-12343029D02*
X6474286Y-12357314D01*
X6531428Y-12357314D01*
X6560000Y-12343029D01*
X6574286Y-12314457D01*
X6574286Y-12300171D01*
X6560000Y-12271600D01*
X6531428Y-12257314D01*
X6488571Y-12257314D01*
X6460000Y-12243029D01*
X6445714Y-12214457D01*
X6445714Y-12200171D01*
X6460000Y-12171600D01*
X6488571Y-12157314D01*
X6531428Y-12157314D01*
X6560000Y-12171600D01*
X6674286Y-12471600D02*
X6688571Y-12457314D01*
X6717143Y-12414457D01*
X6731428Y-12385886D01*
X6745714Y-12343029D01*
X6760000Y-12271600D01*
X6760000Y-12214457D01*
X6745714Y-12143029D01*
X6731428Y-12100171D01*
X6717143Y-12071600D01*
X6688571Y-12028743D01*
X6674286Y-12014457D01*
X-1030000Y-12692600D02*
X-955000Y-12617600D01*
X-1030000Y-12542600D01*
X-1105000Y-12617600D01*
X-1030000Y-12692600D01*
X-511429Y-12753314D02*
X-682857Y-12753314D01*
X-597143Y-12753314D02*
X-597143Y-12453314D01*
X-625714Y-12496171D01*
X-654286Y-12524743D01*
X-682857Y-12539029D01*
X-382857Y-12724743D02*
X-368571Y-12739029D01*
X-382857Y-12753314D01*
X-397143Y-12739029D01*
X-382857Y-12724743D01*
X-382857Y-12753314D01*
X-97143Y-12453314D02*
X-240000Y-12453314D01*
X-254286Y-12596171D01*
X-240000Y-12581886D01*
X-211429Y-12567600D01*
X-140000Y-12567600D01*
X-111429Y-12581886D01*
X-97143Y-12596171D01*
X-82857Y-12624743D01*
X-82857Y-12696171D01*
X-97143Y-12724743D01*
X-111429Y-12739029D01*
X-140000Y-12753314D01*
X-211429Y-12753314D01*
X-240000Y-12739029D01*
X-254286Y-12724743D01*
X102857Y-12453314D02*
X131428Y-12453314D01*
X160000Y-12467600D01*
X174286Y-12481886D01*
X188571Y-12510457D01*
X202857Y-12567600D01*
X202857Y-12639029D01*
X188571Y-12696171D01*
X174286Y-12724743D01*
X160000Y-12739029D01*
X131428Y-12753314D01*
X102857Y-12753314D01*
X74286Y-12739029D01*
X60000Y-12724743D01*
X45714Y-12696171D01*
X31428Y-12639029D01*
X31428Y-12567600D01*
X45714Y-12510457D01*
X60000Y-12481886D01*
X74286Y-12467600D01*
X102857Y-12453314D01*
X388571Y-12453314D02*
X417143Y-12453314D01*
X445714Y-12467600D01*
X460000Y-12481886D01*
X474286Y-12510457D01*
X488571Y-12567600D01*
X488571Y-12639029D01*
X474286Y-12696171D01*
X460000Y-12724743D01*
X445714Y-12739029D01*
X417143Y-12753314D01*
X388571Y-12753314D01*
X360000Y-12739029D01*
X345714Y-12724743D01*
X331428Y-12696171D01*
X317143Y-12639029D01*
X317143Y-12567600D01*
X331428Y-12510457D01*
X345714Y-12481886D01*
X360000Y-12467600D01*
X388571Y-12453314D01*
X617143Y-12753314D02*
X617143Y-12553314D01*
X617143Y-12581886D02*
X631428Y-12567600D01*
X660000Y-12553314D01*
X702857Y-12553314D01*
X731428Y-12567600D01*
X745714Y-12596171D01*
X745714Y-12753314D01*
X745714Y-12596171D02*
X760000Y-12567600D01*
X788571Y-12553314D01*
X831428Y-12553314D01*
X860000Y-12567600D01*
X874286Y-12596171D01*
X874286Y-12753314D01*
X1017143Y-12753314D02*
X1017143Y-12553314D01*
X1017143Y-12581886D02*
X1031428Y-12567600D01*
X1060000Y-12553314D01*
X1102857Y-12553314D01*
X1131428Y-12567600D01*
X1145714Y-12596171D01*
X1145714Y-12753314D01*
X1145714Y-12596171D02*
X1160000Y-12567600D01*
X1188571Y-12553314D01*
X1231428Y-12553314D01*
X1260000Y-12567600D01*
X1274286Y-12596171D01*
X1274286Y-12753314D01*
X1860000Y-12439029D02*
X1602857Y-12824743D01*
X2245714Y-12453314D02*
X2274286Y-12453314D01*
X2302857Y-12467600D01*
X2317143Y-12481886D01*
X2331428Y-12510457D01*
X2345714Y-12567600D01*
X2345714Y-12639029D01*
X2331428Y-12696171D01*
X2317143Y-12724743D01*
X2302857Y-12739029D01*
X2274286Y-12753314D01*
X2245714Y-12753314D01*
X2217143Y-12739029D01*
X2202857Y-12724743D01*
X2188571Y-12696171D01*
X2174286Y-12639029D01*
X2174286Y-12567600D01*
X2188571Y-12510457D01*
X2202857Y-12481886D01*
X2217143Y-12467600D01*
X2245714Y-12453314D01*
X2474286Y-12724743D02*
X2488571Y-12739029D01*
X2474286Y-12753314D01*
X2460000Y-12739029D01*
X2474286Y-12724743D01*
X2474286Y-12753314D01*
X2674286Y-12453314D02*
X2702857Y-12453314D01*
X2731428Y-12467600D01*
X2745714Y-12481886D01*
X2760000Y-12510457D01*
X2774286Y-12567600D01*
X2774286Y-12639029D01*
X2760000Y-12696171D01*
X2745714Y-12724743D01*
X2731428Y-12739029D01*
X2702857Y-12753314D01*
X2674286Y-12753314D01*
X2645714Y-12739029D01*
X2631428Y-12724743D01*
X2617143Y-12696171D01*
X2602857Y-12639029D01*
X2602857Y-12567600D01*
X2617143Y-12510457D01*
X2631428Y-12481886D01*
X2645714Y-12467600D01*
X2674286Y-12453314D01*
X3045714Y-12453314D02*
X2902857Y-12453314D01*
X2888571Y-12596171D01*
X2902857Y-12581886D01*
X2931428Y-12567600D01*
X3002857Y-12567600D01*
X3031428Y-12581886D01*
X3045714Y-12596171D01*
X3060000Y-12624743D01*
X3060000Y-12696171D01*
X3045714Y-12724743D01*
X3031428Y-12739029D01*
X3002857Y-12753314D01*
X2931428Y-12753314D01*
X2902857Y-12739029D01*
X2888571Y-12724743D01*
X3202857Y-12753314D02*
X3260000Y-12753314D01*
X3288571Y-12739029D01*
X3302857Y-12724743D01*
X3331428Y-12681886D01*
X3345714Y-12624743D01*
X3345714Y-12510457D01*
X3331428Y-12481886D01*
X3317143Y-12467600D01*
X3288571Y-12453314D01*
X3231428Y-12453314D01*
X3202857Y-12467600D01*
X3188571Y-12481886D01*
X3174286Y-12510457D01*
X3174286Y-12581886D01*
X3188571Y-12610457D01*
X3202857Y-12624743D01*
X3231428Y-12639029D01*
X3288571Y-12639029D01*
X3317143Y-12624743D01*
X3331428Y-12610457D01*
X3345714Y-12581886D01*
X3631428Y-12753314D02*
X3460000Y-12753314D01*
X3545714Y-12753314D02*
X3545714Y-12453314D01*
X3517143Y-12496171D01*
X3488571Y-12524743D01*
X3460000Y-12539029D01*
X3745714Y-12453314D02*
X3745714Y-12510457D01*
X3860000Y-12453314D02*
X3860000Y-12510457D01*
X4302857Y-12867600D02*
X4288571Y-12853314D01*
X4260000Y-12810457D01*
X4245714Y-12781886D01*
X4231428Y-12739029D01*
X4217143Y-12667600D01*
X4217143Y-12610457D01*
X4231428Y-12539029D01*
X4245714Y-12496171D01*
X4260000Y-12467600D01*
X4288571Y-12424743D01*
X4302857Y-12410457D01*
X4474286Y-12453314D02*
X4502857Y-12453314D01*
X4531428Y-12467600D01*
X4545714Y-12481886D01*
X4560000Y-12510457D01*
X4574286Y-12567600D01*
X4574286Y-12639029D01*
X4560000Y-12696171D01*
X4545714Y-12724743D01*
X4531428Y-12739029D01*
X4502857Y-12753314D01*
X4474286Y-12753314D01*
X4445714Y-12739029D01*
X4431428Y-12724743D01*
X4417143Y-12696171D01*
X4402857Y-12639029D01*
X4402857Y-12567600D01*
X4417143Y-12510457D01*
X4431428Y-12481886D01*
X4445714Y-12467600D01*
X4474286Y-12453314D01*
X4931428Y-12753314D02*
X4931428Y-12453314D01*
X5060000Y-12753314D02*
X5060000Y-12596171D01*
X5045714Y-12567600D01*
X5017143Y-12553314D01*
X4974286Y-12553314D01*
X4945714Y-12567600D01*
X4931428Y-12581886D01*
X5245714Y-12753314D02*
X5217143Y-12739029D01*
X5202857Y-12724743D01*
X5188571Y-12696171D01*
X5188571Y-12610457D01*
X5202857Y-12581886D01*
X5217143Y-12567600D01*
X5245714Y-12553314D01*
X5288571Y-12553314D01*
X5317143Y-12567600D01*
X5331428Y-12581886D01*
X5345714Y-12610457D01*
X5345714Y-12696171D01*
X5331428Y-12724743D01*
X5317143Y-12739029D01*
X5288571Y-12753314D01*
X5245714Y-12753314D01*
X5517143Y-12753314D02*
X5488571Y-12739029D01*
X5474286Y-12710457D01*
X5474286Y-12453314D01*
X5745714Y-12739029D02*
X5717143Y-12753314D01*
X5660000Y-12753314D01*
X5631428Y-12739029D01*
X5617143Y-12710457D01*
X5617143Y-12596171D01*
X5631428Y-12567600D01*
X5660000Y-12553314D01*
X5717143Y-12553314D01*
X5745714Y-12567600D01*
X5760000Y-12596171D01*
X5760000Y-12624743D01*
X5617143Y-12653314D01*
X5874286Y-12739029D02*
X5902857Y-12753314D01*
X5960000Y-12753314D01*
X5988571Y-12739029D01*
X6002857Y-12710457D01*
X6002857Y-12696171D01*
X5988571Y-12667600D01*
X5960000Y-12653314D01*
X5917143Y-12653314D01*
X5888571Y-12639029D01*
X5874286Y-12610457D01*
X5874286Y-12596171D01*
X5888571Y-12567600D01*
X5917143Y-12553314D01*
X5960000Y-12553314D01*
X5988571Y-12567600D01*
X6360000Y-12639029D02*
X6588571Y-12639029D01*
X6474286Y-12753314D02*
X6474286Y-12524743D01*
X6945714Y-12481886D02*
X6960000Y-12467600D01*
X6988571Y-12453314D01*
X7060000Y-12453314D01*
X7088571Y-12467600D01*
X7102857Y-12481886D01*
X7117143Y-12510457D01*
X7117143Y-12539029D01*
X7102857Y-12581886D01*
X6931428Y-12753314D01*
X7117143Y-12753314D01*
X7460000Y-12739029D02*
X7488571Y-12753314D01*
X7545714Y-12753314D01*
X7574286Y-12739029D01*
X7588571Y-12710457D01*
X7588571Y-12696171D01*
X7574286Y-12667600D01*
X7545714Y-12653314D01*
X7502857Y-12653314D01*
X7474286Y-12639029D01*
X7460000Y-12610457D01*
X7460000Y-12596171D01*
X7474286Y-12567600D01*
X7502857Y-12553314D01*
X7545714Y-12553314D01*
X7574286Y-12567600D01*
X7760000Y-12753314D02*
X7731428Y-12739029D01*
X7717143Y-12710457D01*
X7717143Y-12453314D01*
X7917143Y-12753314D02*
X7888571Y-12739029D01*
X7874286Y-12724743D01*
X7860000Y-12696171D01*
X7860000Y-12610457D01*
X7874286Y-12581886D01*
X7888571Y-12567600D01*
X7917143Y-12553314D01*
X7960000Y-12553314D01*
X7988571Y-12567600D01*
X8002857Y-12581886D01*
X8017143Y-12610457D01*
X8017143Y-12696171D01*
X8002857Y-12724743D01*
X7988571Y-12739029D01*
X7960000Y-12753314D01*
X7917143Y-12753314D01*
X8102857Y-12553314D02*
X8217143Y-12553314D01*
X8145714Y-12453314D02*
X8145714Y-12710457D01*
X8160000Y-12739029D01*
X8188571Y-12753314D01*
X8217143Y-12753314D01*
X8302857Y-12739029D02*
X8331428Y-12753314D01*
X8388571Y-12753314D01*
X8417143Y-12739029D01*
X8431428Y-12710457D01*
X8431428Y-12696171D01*
X8417143Y-12667600D01*
X8388571Y-12653314D01*
X8345714Y-12653314D01*
X8317143Y-12639029D01*
X8302857Y-12610457D01*
X8302857Y-12596171D01*
X8317143Y-12567600D01*
X8345714Y-12553314D01*
X8388571Y-12553314D01*
X8417143Y-12567600D01*
X8531428Y-12867600D02*
X8545714Y-12853314D01*
X8574286Y-12810457D01*
X8588571Y-12781886D01*
X8602857Y-12739029D01*
X8617143Y-12667600D01*
X8617143Y-12610457D01*
X8602857Y-12539029D01*
X8588571Y-12496171D01*
X8574286Y-12467600D01*
X8545714Y-12424743D01*
X8531428Y-12410457D01*
X-1130000Y-12926100D02*
X-955000Y-13101100D01*
X-955000Y-12926100D02*
X-1130000Y-13101100D01*
X-955000Y-13013600D02*
G75*
G03*
X-955000Y-13013600I-87500J0D01*
G01*
X-511429Y-13149314D02*
X-682857Y-13149314D01*
X-597143Y-13149314D02*
X-597143Y-12849314D01*
X-625714Y-12892171D01*
X-654286Y-12920743D01*
X-682857Y-12935029D01*
X-382857Y-13120743D02*
X-368571Y-13135029D01*
X-382857Y-13149314D01*
X-397143Y-13135029D01*
X-382857Y-13120743D01*
X-382857Y-13149314D01*
X-268572Y-12849314D02*
X-68572Y-12849314D01*
X-197143Y-13149314D01*
X188571Y-12849314D02*
X45714Y-12849314D01*
X31428Y-12992171D01*
X45714Y-12977886D01*
X74286Y-12963600D01*
X145714Y-12963600D01*
X174286Y-12977886D01*
X188571Y-12992171D01*
X202857Y-13020743D01*
X202857Y-13092171D01*
X188571Y-13120743D01*
X174286Y-13135029D01*
X145714Y-13149314D01*
X74286Y-13149314D01*
X45714Y-13135029D01*
X31428Y-13120743D01*
X388571Y-12849314D02*
X417143Y-12849314D01*
X445714Y-12863600D01*
X460000Y-12877886D01*
X474286Y-12906457D01*
X488571Y-12963600D01*
X488571Y-13035029D01*
X474286Y-13092171D01*
X460000Y-13120743D01*
X445714Y-13135029D01*
X417143Y-13149314D01*
X388571Y-13149314D01*
X360000Y-13135029D01*
X345714Y-13120743D01*
X331428Y-13092171D01*
X317143Y-13035029D01*
X317143Y-12963600D01*
X331428Y-12906457D01*
X345714Y-12877886D01*
X360000Y-12863600D01*
X388571Y-12849314D01*
X617143Y-13149314D02*
X617143Y-12949314D01*
X617143Y-12977886D02*
X631428Y-12963600D01*
X660000Y-12949314D01*
X702857Y-12949314D01*
X731428Y-12963600D01*
X745714Y-12992171D01*
X745714Y-13149314D01*
X745714Y-12992171D02*
X760000Y-12963600D01*
X788571Y-12949314D01*
X831428Y-12949314D01*
X860000Y-12963600D01*
X874286Y-12992171D01*
X874286Y-13149314D01*
X1017143Y-13149314D02*
X1017143Y-12949314D01*
X1017143Y-12977886D02*
X1031428Y-12963600D01*
X1060000Y-12949314D01*
X1102857Y-12949314D01*
X1131428Y-12963600D01*
X1145714Y-12992171D01*
X1145714Y-13149314D01*
X1145714Y-12992171D02*
X1160000Y-12963600D01*
X1188571Y-12949314D01*
X1231428Y-12949314D01*
X1260000Y-12963600D01*
X1274286Y-12992171D01*
X1274286Y-13149314D01*
X1860000Y-12835029D02*
X1602857Y-13220743D01*
X2245714Y-12849314D02*
X2274286Y-12849314D01*
X2302857Y-12863600D01*
X2317143Y-12877886D01*
X2331428Y-12906457D01*
X2345714Y-12963600D01*
X2345714Y-13035029D01*
X2331428Y-13092171D01*
X2317143Y-13120743D01*
X2302857Y-13135029D01*
X2274286Y-13149314D01*
X2245714Y-13149314D01*
X2217143Y-13135029D01*
X2202857Y-13120743D01*
X2188571Y-13092171D01*
X2174286Y-13035029D01*
X2174286Y-12963600D01*
X2188571Y-12906457D01*
X2202857Y-12877886D01*
X2217143Y-12863600D01*
X2245714Y-12849314D01*
X2474286Y-13120743D02*
X2488571Y-13135029D01*
X2474286Y-13149314D01*
X2460000Y-13135029D01*
X2474286Y-13120743D01*
X2474286Y-13149314D01*
X2674286Y-12849314D02*
X2702857Y-12849314D01*
X2731428Y-12863600D01*
X2745714Y-12877886D01*
X2760000Y-12906457D01*
X2774286Y-12963600D01*
X2774286Y-13035029D01*
X2760000Y-13092171D01*
X2745714Y-13120743D01*
X2731428Y-13135029D01*
X2702857Y-13149314D01*
X2674286Y-13149314D01*
X2645714Y-13135029D01*
X2631428Y-13120743D01*
X2617143Y-13092171D01*
X2602857Y-13035029D01*
X2602857Y-12963600D01*
X2617143Y-12906457D01*
X2631428Y-12877886D01*
X2645714Y-12863600D01*
X2674286Y-12849314D01*
X3031428Y-12849314D02*
X2974286Y-12849314D01*
X2945714Y-12863600D01*
X2931428Y-12877886D01*
X2902857Y-12920743D01*
X2888571Y-12977886D01*
X2888571Y-13092171D01*
X2902857Y-13120743D01*
X2917143Y-13135029D01*
X2945714Y-13149314D01*
X3002857Y-13149314D01*
X3031428Y-13135029D01*
X3045714Y-13120743D01*
X3060000Y-13092171D01*
X3060000Y-13020743D01*
X3045714Y-12992171D01*
X3031428Y-12977886D01*
X3002857Y-12963600D01*
X2945714Y-12963600D01*
X2917143Y-12977886D01*
X2902857Y-12992171D01*
X2888571Y-13020743D01*
X3231428Y-12977886D02*
X3202857Y-12963600D01*
X3188571Y-12949314D01*
X3174286Y-12920743D01*
X3174286Y-12906457D01*
X3188571Y-12877886D01*
X3202857Y-12863600D01*
X3231428Y-12849314D01*
X3288571Y-12849314D01*
X3317143Y-12863600D01*
X3331428Y-12877886D01*
X3345714Y-12906457D01*
X3345714Y-12920743D01*
X3331428Y-12949314D01*
X3317143Y-12963600D01*
X3288571Y-12977886D01*
X3231428Y-12977886D01*
X3202857Y-12992171D01*
X3188571Y-13006457D01*
X3174286Y-13035029D01*
X3174286Y-13092171D01*
X3188571Y-13120743D01*
X3202857Y-13135029D01*
X3231428Y-13149314D01*
X3288571Y-13149314D01*
X3317143Y-13135029D01*
X3331428Y-13120743D01*
X3345714Y-13092171D01*
X3345714Y-13035029D01*
X3331428Y-13006457D01*
X3317143Y-12992171D01*
X3288571Y-12977886D01*
X3488571Y-13149314D02*
X3545714Y-13149314D01*
X3574286Y-13135029D01*
X3588571Y-13120743D01*
X3617143Y-13077886D01*
X3631428Y-13020743D01*
X3631428Y-12906457D01*
X3617143Y-12877886D01*
X3602857Y-12863600D01*
X3574286Y-12849314D01*
X3517143Y-12849314D01*
X3488571Y-12863600D01*
X3474286Y-12877886D01*
X3460000Y-12906457D01*
X3460000Y-12977886D01*
X3474286Y-13006457D01*
X3488571Y-13020743D01*
X3517143Y-13035029D01*
X3574286Y-13035029D01*
X3602857Y-13020743D01*
X3617143Y-13006457D01*
X3631428Y-12977886D01*
X3745714Y-12849314D02*
X3745714Y-12906457D01*
X3860000Y-12849314D02*
X3860000Y-12906457D01*
X4302857Y-13263600D02*
X4288571Y-13249314D01*
X4260000Y-13206457D01*
X4245714Y-13177886D01*
X4231428Y-13135029D01*
X4217143Y-13063600D01*
X4217143Y-13006457D01*
X4231428Y-12935029D01*
X4245714Y-12892171D01*
X4260000Y-12863600D01*
X4288571Y-12820743D01*
X4302857Y-12806457D01*
X4574286Y-13149314D02*
X4402857Y-13149314D01*
X4488571Y-13149314D02*
X4488571Y-12849314D01*
X4460000Y-12892171D01*
X4431428Y-12920743D01*
X4402857Y-12935029D01*
X4745714Y-12977886D02*
X4717143Y-12963600D01*
X4702857Y-12949314D01*
X4688571Y-12920743D01*
X4688571Y-12906457D01*
X4702857Y-12877886D01*
X4717143Y-12863600D01*
X4745714Y-12849314D01*
X4802857Y-12849314D01*
X4831428Y-12863600D01*
X4845714Y-12877886D01*
X4860000Y-12906457D01*
X4860000Y-12920743D01*
X4845714Y-12949314D01*
X4831428Y-12963600D01*
X4802857Y-12977886D01*
X4745714Y-12977886D01*
X4717143Y-12992171D01*
X4702857Y-13006457D01*
X4688571Y-13035029D01*
X4688571Y-13092171D01*
X4702857Y-13120743D01*
X4717143Y-13135029D01*
X4745714Y-13149314D01*
X4802857Y-13149314D01*
X4831428Y-13135029D01*
X4845714Y-13120743D01*
X4860000Y-13092171D01*
X4860000Y-13035029D01*
X4845714Y-13006457D01*
X4831428Y-12992171D01*
X4802857Y-12977886D01*
X5117143Y-12949314D02*
X5117143Y-13149314D01*
X5045714Y-12835029D02*
X4974286Y-13049314D01*
X5160000Y-13049314D01*
X5502857Y-13149314D02*
X5502857Y-12849314D01*
X5631428Y-13149314D02*
X5631428Y-12992171D01*
X5617143Y-12963600D01*
X5588571Y-12949314D01*
X5545714Y-12949314D01*
X5517143Y-12963600D01*
X5502857Y-12977886D01*
X5817143Y-13149314D02*
X5788571Y-13135029D01*
X5774286Y-13120743D01*
X5760000Y-13092171D01*
X5760000Y-13006457D01*
X5774286Y-12977886D01*
X5788571Y-12963600D01*
X5817143Y-12949314D01*
X5860000Y-12949314D01*
X5888571Y-12963600D01*
X5902857Y-12977886D01*
X5917143Y-13006457D01*
X5917143Y-13092171D01*
X5902857Y-13120743D01*
X5888571Y-13135029D01*
X5860000Y-13149314D01*
X5817143Y-13149314D01*
X6088571Y-13149314D02*
X6060000Y-13135029D01*
X6045714Y-13106457D01*
X6045714Y-12849314D01*
X6317143Y-13135029D02*
X6288571Y-13149314D01*
X6231428Y-13149314D01*
X6202857Y-13135029D01*
X6188571Y-13106457D01*
X6188571Y-12992171D01*
X6202857Y-12963600D01*
X6231428Y-12949314D01*
X6288571Y-12949314D01*
X6317143Y-12963600D01*
X6331428Y-12992171D01*
X6331428Y-13020743D01*
X6188571Y-13049314D01*
X6445714Y-13135029D02*
X6474286Y-13149314D01*
X6531428Y-13149314D01*
X6560000Y-13135029D01*
X6574286Y-13106457D01*
X6574286Y-13092171D01*
X6560000Y-13063600D01*
X6531428Y-13049314D01*
X6488571Y-13049314D01*
X6460000Y-13035029D01*
X6445714Y-13006457D01*
X6445714Y-12992171D01*
X6460000Y-12963600D01*
X6488571Y-12949314D01*
X6531428Y-12949314D01*
X6560000Y-12963600D01*
X6674286Y-13263600D02*
X6688571Y-13249314D01*
X6717143Y-13206457D01*
X6731428Y-13177886D01*
X6745714Y-13135029D01*
X6760000Y-13063600D01*
X6760000Y-13006457D01*
X6745714Y-12935029D01*
X6731428Y-12892171D01*
X6717143Y-12863600D01*
X6688571Y-12820743D01*
X6674286Y-12806457D01*
X7217143Y-13263600D02*
X7202857Y-13249314D01*
X7174286Y-13206457D01*
X7160000Y-13177886D01*
X7145714Y-13135029D01*
X7131428Y-13063600D01*
X7131428Y-13006457D01*
X7145714Y-12935029D01*
X7160000Y-12892171D01*
X7174286Y-12863600D01*
X7202857Y-12820743D01*
X7217143Y-12806457D01*
X7331428Y-12949314D02*
X7331428Y-13149314D01*
X7331428Y-12977886D02*
X7345714Y-12963600D01*
X7374286Y-12949314D01*
X7417143Y-12949314D01*
X7445714Y-12963600D01*
X7460000Y-12992171D01*
X7460000Y-13149314D01*
X7645714Y-13149314D02*
X7617143Y-13135029D01*
X7602857Y-13120743D01*
X7588571Y-13092171D01*
X7588571Y-13006457D01*
X7602857Y-12977886D01*
X7617143Y-12963600D01*
X7645714Y-12949314D01*
X7688571Y-12949314D01*
X7717143Y-12963600D01*
X7731428Y-12977886D01*
X7745714Y-13006457D01*
X7745714Y-13092171D01*
X7731428Y-13120743D01*
X7717143Y-13135029D01*
X7688571Y-13149314D01*
X7645714Y-13149314D01*
X7831428Y-12949314D02*
X7945714Y-12949314D01*
X7874286Y-12849314D02*
X7874286Y-13106457D01*
X7888571Y-13135029D01*
X7917143Y-13149314D01*
X7945714Y-13149314D01*
X8274286Y-12949314D02*
X8274286Y-13249314D01*
X8274286Y-12963600D02*
X8302857Y-12949314D01*
X8360000Y-12949314D01*
X8388571Y-12963600D01*
X8402857Y-12977886D01*
X8417143Y-13006457D01*
X8417143Y-13092171D01*
X8402857Y-13120743D01*
X8388571Y-13135029D01*
X8360000Y-13149314D01*
X8302857Y-13149314D01*
X8274286Y-13135029D01*
X8588571Y-13149314D02*
X8560000Y-13135029D01*
X8545714Y-13106457D01*
X8545714Y-12849314D01*
X8831428Y-13149314D02*
X8831428Y-12992171D01*
X8817143Y-12963600D01*
X8788571Y-12949314D01*
X8731428Y-12949314D01*
X8702857Y-12963600D01*
X8831428Y-13135029D02*
X8802857Y-13149314D01*
X8731428Y-13149314D01*
X8702857Y-13135029D01*
X8688571Y-13106457D01*
X8688571Y-13077886D01*
X8702857Y-13049314D01*
X8731428Y-13035029D01*
X8802857Y-13035029D01*
X8831428Y-13020743D01*
X8931428Y-12949314D02*
X9045714Y-12949314D01*
X8974286Y-12849314D02*
X8974286Y-13106457D01*
X8988571Y-13135029D01*
X9017143Y-13149314D01*
X9045714Y-13149314D01*
X9260000Y-13135029D02*
X9231428Y-13149314D01*
X9174286Y-13149314D01*
X9145714Y-13135029D01*
X9131428Y-13106457D01*
X9131428Y-12992171D01*
X9145714Y-12963600D01*
X9174286Y-12949314D01*
X9231428Y-12949314D01*
X9260000Y-12963600D01*
X9274286Y-12992171D01*
X9274286Y-13020743D01*
X9131428Y-13049314D01*
X9531428Y-13149314D02*
X9531428Y-12849314D01*
X9531428Y-13135029D02*
X9502857Y-13149314D01*
X9445714Y-13149314D01*
X9417143Y-13135029D01*
X9402857Y-13120743D01*
X9388571Y-13092171D01*
X9388571Y-13006457D01*
X9402857Y-12977886D01*
X9417143Y-12963600D01*
X9445714Y-12949314D01*
X9502857Y-12949314D01*
X9531428Y-12963600D01*
X9645714Y-13263600D02*
X9660000Y-13249314D01*
X9688571Y-13206457D01*
X9702857Y-13177886D01*
X9717143Y-13135029D01*
X9731428Y-13063600D01*
X9731428Y-13006457D01*
X9717143Y-12935029D01*
X9702857Y-12892171D01*
X9688571Y-12863600D01*
X9660000Y-12820743D01*
X9645714Y-12806457D01*
X-1259800Y-13257200D02*
X-955000Y-13562000D01*
X-955000Y-13257200D02*
X-1259800Y-13562000D01*
X-1107400Y-13257200D02*
X-1107400Y-13562000D01*
X-1259800Y-13409600D02*
X-955000Y-13409600D01*
X-697143Y-13245314D02*
X-511429Y-13245314D01*
X-611429Y-13359600D01*
X-568572Y-13359600D01*
X-540000Y-13373886D01*
X-525714Y-13388171D01*
X-511429Y-13416743D01*
X-511429Y-13488171D01*
X-525714Y-13516743D01*
X-540000Y-13531029D01*
X-568572Y-13545314D01*
X-654286Y-13545314D01*
X-682857Y-13531029D01*
X-697143Y-13516743D01*
X-382857Y-13516743D02*
X-368571Y-13531029D01*
X-382857Y-13545314D01*
X-397143Y-13531029D01*
X-382857Y-13516743D01*
X-382857Y-13545314D01*
X-182857Y-13245314D02*
X-154286Y-13245314D01*
X-125714Y-13259600D01*
X-111429Y-13273886D01*
X-97143Y-13302457D01*
X-82857Y-13359600D01*
X-82857Y-13431029D01*
X-97143Y-13488171D01*
X-111429Y-13516743D01*
X-125714Y-13531029D01*
X-154286Y-13545314D01*
X-182857Y-13545314D01*
X-211429Y-13531029D01*
X-225714Y-13516743D01*
X-240000Y-13488171D01*
X-254286Y-13431029D01*
X-254286Y-13359600D01*
X-240000Y-13302457D01*
X-225714Y-13273886D01*
X-211429Y-13259600D01*
X-182857Y-13245314D01*
X174286Y-13345314D02*
X174286Y-13545314D01*
X102857Y-13231029D02*
X31428Y-13445314D01*
X217143Y-13445314D01*
X374286Y-13373886D02*
X345714Y-13359600D01*
X331428Y-13345314D01*
X317143Y-13316743D01*
X317143Y-13302457D01*
X331428Y-13273886D01*
X345714Y-13259600D01*
X374286Y-13245314D01*
X431428Y-13245314D01*
X460000Y-13259600D01*
X474286Y-13273886D01*
X488571Y-13302457D01*
X488571Y-13316743D01*
X474286Y-13345314D01*
X460000Y-13359600D01*
X431428Y-13373886D01*
X374286Y-13373886D01*
X345714Y-13388171D01*
X331428Y-13402457D01*
X317143Y-13431029D01*
X317143Y-13488171D01*
X331428Y-13516743D01*
X345714Y-13531029D01*
X374286Y-13545314D01*
X431428Y-13545314D01*
X460000Y-13531029D01*
X474286Y-13516743D01*
X488571Y-13488171D01*
X488571Y-13431029D01*
X474286Y-13402457D01*
X460000Y-13388171D01*
X431428Y-13373886D01*
X617143Y-13545314D02*
X617143Y-13345314D01*
X617143Y-13373886D02*
X631428Y-13359600D01*
X660000Y-13345314D01*
X702857Y-13345314D01*
X731428Y-13359600D01*
X745714Y-13388171D01*
X745714Y-13545314D01*
X745714Y-13388171D02*
X760000Y-13359600D01*
X788571Y-13345314D01*
X831428Y-13345314D01*
X860000Y-13359600D01*
X874286Y-13388171D01*
X874286Y-13545314D01*
X1017143Y-13545314D02*
X1017143Y-13345314D01*
X1017143Y-13373886D02*
X1031428Y-13359600D01*
X1060000Y-13345314D01*
X1102857Y-13345314D01*
X1131428Y-13359600D01*
X1145714Y-13388171D01*
X1145714Y-13545314D01*
X1145714Y-13388171D02*
X1160000Y-13359600D01*
X1188571Y-13345314D01*
X1231428Y-13345314D01*
X1260000Y-13359600D01*
X1274286Y-13388171D01*
X1274286Y-13545314D01*
X1860000Y-13231029D02*
X1602857Y-13616743D01*
X2245714Y-13245314D02*
X2274286Y-13245314D01*
X2302857Y-13259600D01*
X2317143Y-13273886D01*
X2331428Y-13302457D01*
X2345714Y-13359600D01*
X2345714Y-13431029D01*
X2331428Y-13488171D01*
X2317143Y-13516743D01*
X2302857Y-13531029D01*
X2274286Y-13545314D01*
X2245714Y-13545314D01*
X2217143Y-13531029D01*
X2202857Y-13516743D01*
X2188571Y-13488171D01*
X2174286Y-13431029D01*
X2174286Y-13359600D01*
X2188571Y-13302457D01*
X2202857Y-13273886D01*
X2217143Y-13259600D01*
X2245714Y-13245314D01*
X2474286Y-13516743D02*
X2488571Y-13531029D01*
X2474286Y-13545314D01*
X2460000Y-13531029D01*
X2474286Y-13516743D01*
X2474286Y-13545314D01*
X2774286Y-13545314D02*
X2602857Y-13545314D01*
X2688571Y-13545314D02*
X2688571Y-13245314D01*
X2660000Y-13288171D01*
X2631428Y-13316743D01*
X2602857Y-13331029D01*
X2888571Y-13273886D02*
X2902857Y-13259600D01*
X2931428Y-13245314D01*
X3002857Y-13245314D01*
X3031428Y-13259600D01*
X3045714Y-13273886D01*
X3060000Y-13302457D01*
X3060000Y-13331029D01*
X3045714Y-13373886D01*
X2874286Y-13545314D01*
X3060000Y-13545314D01*
X3245714Y-13245314D02*
X3274286Y-13245314D01*
X3302857Y-13259600D01*
X3317143Y-13273886D01*
X3331428Y-13302457D01*
X3345714Y-13359600D01*
X3345714Y-13431029D01*
X3331428Y-13488171D01*
X3317143Y-13516743D01*
X3302857Y-13531029D01*
X3274286Y-13545314D01*
X3245714Y-13545314D01*
X3217143Y-13531029D01*
X3202857Y-13516743D01*
X3188571Y-13488171D01*
X3174286Y-13431029D01*
X3174286Y-13359600D01*
X3188571Y-13302457D01*
X3202857Y-13273886D01*
X3217143Y-13259600D01*
X3245714Y-13245314D01*
X3531428Y-13245314D02*
X3560000Y-13245314D01*
X3588571Y-13259600D01*
X3602857Y-13273886D01*
X3617143Y-13302457D01*
X3631428Y-13359600D01*
X3631428Y-13431029D01*
X3617143Y-13488171D01*
X3602857Y-13516743D01*
X3588571Y-13531029D01*
X3560000Y-13545314D01*
X3531428Y-13545314D01*
X3502857Y-13531029D01*
X3488571Y-13516743D01*
X3474286Y-13488171D01*
X3460000Y-13431029D01*
X3460000Y-13359600D01*
X3474286Y-13302457D01*
X3488571Y-13273886D01*
X3502857Y-13259600D01*
X3531428Y-13245314D01*
X3745714Y-13245314D02*
X3745714Y-13302457D01*
X3860000Y-13245314D02*
X3860000Y-13302457D01*
X4302857Y-13659600D02*
X4288571Y-13645314D01*
X4260000Y-13602457D01*
X4245714Y-13573886D01*
X4231428Y-13531029D01*
X4217143Y-13459600D01*
X4217143Y-13402457D01*
X4231428Y-13331029D01*
X4245714Y-13288171D01*
X4260000Y-13259600D01*
X4288571Y-13216743D01*
X4302857Y-13202457D01*
X4574286Y-13545314D02*
X4402857Y-13545314D01*
X4488571Y-13545314D02*
X4488571Y-13245314D01*
X4460000Y-13288171D01*
X4431428Y-13316743D01*
X4402857Y-13331029D01*
X4745714Y-13373886D02*
X4717143Y-13359600D01*
X4702857Y-13345314D01*
X4688571Y-13316743D01*
X4688571Y-13302457D01*
X4702857Y-13273886D01*
X4717143Y-13259600D01*
X4745714Y-13245314D01*
X4802857Y-13245314D01*
X4831428Y-13259600D01*
X4845714Y-13273886D01*
X4860000Y-13302457D01*
X4860000Y-13316743D01*
X4845714Y-13345314D01*
X4831428Y-13359600D01*
X4802857Y-13373886D01*
X4745714Y-13373886D01*
X4717143Y-13388171D01*
X4702857Y-13402457D01*
X4688571Y-13431029D01*
X4688571Y-13488171D01*
X4702857Y-13516743D01*
X4717143Y-13531029D01*
X4745714Y-13545314D01*
X4802857Y-13545314D01*
X4831428Y-13531029D01*
X4845714Y-13516743D01*
X4860000Y-13488171D01*
X4860000Y-13431029D01*
X4845714Y-13402457D01*
X4831428Y-13388171D01*
X4802857Y-13373886D01*
X5217143Y-13545314D02*
X5217143Y-13245314D01*
X5345714Y-13545314D02*
X5345714Y-13388171D01*
X5331428Y-13359600D01*
X5302857Y-13345314D01*
X5260000Y-13345314D01*
X5231428Y-13359600D01*
X5217143Y-13373886D01*
X5531428Y-13545314D02*
X5502857Y-13531029D01*
X5488571Y-13516743D01*
X5474286Y-13488171D01*
X5474286Y-13402457D01*
X5488571Y-13373886D01*
X5502857Y-13359600D01*
X5531428Y-13345314D01*
X5574286Y-13345314D01*
X5602857Y-13359600D01*
X5617143Y-13373886D01*
X5631428Y-13402457D01*
X5631428Y-13488171D01*
X5617143Y-13516743D01*
X5602857Y-13531029D01*
X5574286Y-13545314D01*
X5531428Y-13545314D01*
X5802857Y-13545314D02*
X5774286Y-13531029D01*
X5760000Y-13502457D01*
X5760000Y-13245314D01*
X6031428Y-13531029D02*
X6002857Y-13545314D01*
X5945714Y-13545314D01*
X5917143Y-13531029D01*
X5902857Y-13502457D01*
X5902857Y-13388171D01*
X5917143Y-13359600D01*
X5945714Y-13345314D01*
X6002857Y-13345314D01*
X6031428Y-13359600D01*
X6045714Y-13388171D01*
X6045714Y-13416743D01*
X5902857Y-13445314D01*
X6160000Y-13531029D02*
X6188571Y-13545314D01*
X6245714Y-13545314D01*
X6274286Y-13531029D01*
X6288571Y-13502457D01*
X6288571Y-13488171D01*
X6274286Y-13459600D01*
X6245714Y-13445314D01*
X6202857Y-13445314D01*
X6174286Y-13431029D01*
X6160000Y-13402457D01*
X6160000Y-13388171D01*
X6174286Y-13359600D01*
X6202857Y-13345314D01*
X6245714Y-13345314D01*
X6274286Y-13359600D01*
X6388571Y-13659600D02*
X6402857Y-13645314D01*
X6431428Y-13602457D01*
X6445714Y-13573886D01*
X6460000Y-13531029D01*
X6474286Y-13459600D01*
X6474286Y-13402457D01*
X6460000Y-13331029D01*
X6445714Y-13288171D01*
X6431428Y-13259600D01*
X6402857Y-13216743D01*
X6388571Y-13202457D01*
X6931428Y-13659600D02*
X6917143Y-13645314D01*
X6888571Y-13602457D01*
X6874286Y-13573886D01*
X6860000Y-13531029D01*
X6845714Y-13459600D01*
X6845714Y-13402457D01*
X6860000Y-13331029D01*
X6874286Y-13288171D01*
X6888571Y-13259600D01*
X6917143Y-13216743D01*
X6931428Y-13202457D01*
X7045714Y-13345314D02*
X7045714Y-13545314D01*
X7045714Y-13373886D02*
X7060000Y-13359600D01*
X7088571Y-13345314D01*
X7131428Y-13345314D01*
X7160000Y-13359600D01*
X7174286Y-13388171D01*
X7174286Y-13545314D01*
X7360000Y-13545314D02*
X7331428Y-13531029D01*
X7317143Y-13516743D01*
X7302857Y-13488171D01*
X7302857Y-13402457D01*
X7317143Y-13373886D01*
X7331428Y-13359600D01*
X7360000Y-13345314D01*
X7402857Y-13345314D01*
X7431428Y-13359600D01*
X7445714Y-13373886D01*
X7460000Y-13402457D01*
X7460000Y-13488171D01*
X7445714Y-13516743D01*
X7431428Y-13531029D01*
X7402857Y-13545314D01*
X7360000Y-13545314D01*
X7545714Y-13345314D02*
X7660000Y-13345314D01*
X7588571Y-13245314D02*
X7588571Y-13502457D01*
X7602857Y-13531029D01*
X7631428Y-13545314D01*
X7660000Y-13545314D01*
X7988571Y-13345314D02*
X7988571Y-13645314D01*
X7988571Y-13359600D02*
X8017143Y-13345314D01*
X8074286Y-13345314D01*
X8102857Y-13359600D01*
X8117143Y-13373886D01*
X8131428Y-13402457D01*
X8131428Y-13488171D01*
X8117143Y-13516743D01*
X8102857Y-13531029D01*
X8074286Y-13545314D01*
X8017143Y-13545314D01*
X7988571Y-13531029D01*
X8302857Y-13545314D02*
X8274286Y-13531029D01*
X8260000Y-13502457D01*
X8260000Y-13245314D01*
X8545714Y-13545314D02*
X8545714Y-13388171D01*
X8531428Y-13359600D01*
X8502857Y-13345314D01*
X8445714Y-13345314D01*
X8417143Y-13359600D01*
X8545714Y-13531029D02*
X8517143Y-13545314D01*
X8445714Y-13545314D01*
X8417143Y-13531029D01*
X8402857Y-13502457D01*
X8402857Y-13473886D01*
X8417143Y-13445314D01*
X8445714Y-13431029D01*
X8517143Y-13431029D01*
X8545714Y-13416743D01*
X8645714Y-13345314D02*
X8760000Y-13345314D01*
X8688571Y-13245314D02*
X8688571Y-13502457D01*
X8702857Y-13531029D01*
X8731428Y-13545314D01*
X8760000Y-13545314D01*
X8974286Y-13531029D02*
X8945714Y-13545314D01*
X8888571Y-13545314D01*
X8860000Y-13531029D01*
X8845714Y-13502457D01*
X8845714Y-13388171D01*
X8860000Y-13359600D01*
X8888571Y-13345314D01*
X8945714Y-13345314D01*
X8974286Y-13359600D01*
X8988571Y-13388171D01*
X8988571Y-13416743D01*
X8845714Y-13445314D01*
X9245714Y-13545314D02*
X9245714Y-13245314D01*
X9245714Y-13531029D02*
X9217143Y-13545314D01*
X9160000Y-13545314D01*
X9131428Y-13531029D01*
X9117143Y-13516743D01*
X9102857Y-13488171D01*
X9102857Y-13402457D01*
X9117143Y-13373886D01*
X9131428Y-13359600D01*
X9160000Y-13345314D01*
X9217143Y-13345314D01*
X9245714Y-13359600D01*
X9360000Y-13659600D02*
X9374286Y-13645314D01*
X9402857Y-13602457D01*
X9417143Y-13573886D01*
X9431428Y-13531029D01*
X9445714Y-13459600D01*
X9445714Y-13402457D01*
X9431428Y-13331029D01*
X9417143Y-13288171D01*
X9402857Y-13259600D01*
X9374286Y-13216743D01*
X9360000Y-13202457D01*
X-1353780Y-13645010D02*
X-955000Y-14043790D01*
X-955000Y-13645010D02*
X-1353780Y-14043790D01*
X-1013399Y-13985391D02*
X-1013399Y-13703409D01*
X-1295382Y-13703409D01*
X-1295382Y-13985391D01*
X-1013399Y-13985391D01*
X-697143Y-13680114D02*
X-511429Y-13680114D01*
X-611429Y-13794400D01*
X-568572Y-13794400D01*
X-540000Y-13808686D01*
X-525714Y-13822971D01*
X-511429Y-13851543D01*
X-511429Y-13922971D01*
X-525714Y-13951543D01*
X-540000Y-13965829D01*
X-568572Y-13980114D01*
X-654286Y-13980114D01*
X-682857Y-13965829D01*
X-697143Y-13951543D01*
X-382857Y-13951543D02*
X-368571Y-13965829D01*
X-382857Y-13980114D01*
X-397143Y-13965829D01*
X-382857Y-13951543D01*
X-382857Y-13980114D01*
X-225714Y-13980114D02*
X-168572Y-13980114D01*
X-140000Y-13965829D01*
X-125714Y-13951543D01*
X-97143Y-13908686D01*
X-82857Y-13851543D01*
X-82857Y-13737257D01*
X-97143Y-13708686D01*
X-111429Y-13694400D01*
X-140000Y-13680114D01*
X-197143Y-13680114D01*
X-225714Y-13694400D01*
X-240000Y-13708686D01*
X-254286Y-13737257D01*
X-254286Y-13808686D01*
X-240000Y-13837257D01*
X-225714Y-13851543D01*
X-197143Y-13865829D01*
X-140000Y-13865829D01*
X-111429Y-13851543D01*
X-97143Y-13837257D01*
X-82857Y-13808686D01*
X88571Y-13808686D02*
X60000Y-13794400D01*
X45714Y-13780114D01*
X31428Y-13751543D01*
X31428Y-13737257D01*
X45714Y-13708686D01*
X60000Y-13694400D01*
X88571Y-13680114D01*
X145714Y-13680114D01*
X174286Y-13694400D01*
X188571Y-13708686D01*
X202857Y-13737257D01*
X202857Y-13751543D01*
X188571Y-13780114D01*
X174286Y-13794400D01*
X145714Y-13808686D01*
X88571Y-13808686D01*
X60000Y-13822971D01*
X45714Y-13837257D01*
X31428Y-13865829D01*
X31428Y-13922971D01*
X45714Y-13951543D01*
X60000Y-13965829D01*
X88571Y-13980114D01*
X145714Y-13980114D01*
X174286Y-13965829D01*
X188571Y-13951543D01*
X202857Y-13922971D01*
X202857Y-13865829D01*
X188571Y-13837257D01*
X174286Y-13822971D01*
X145714Y-13808686D01*
X374286Y-13808686D02*
X345714Y-13794400D01*
X331428Y-13780114D01*
X317143Y-13751543D01*
X317143Y-13737257D01*
X331428Y-13708686D01*
X345714Y-13694400D01*
X374286Y-13680114D01*
X431428Y-13680114D01*
X460000Y-13694400D01*
X474286Y-13708686D01*
X488571Y-13737257D01*
X488571Y-13751543D01*
X474286Y-13780114D01*
X460000Y-13794400D01*
X431428Y-13808686D01*
X374286Y-13808686D01*
X345714Y-13822971D01*
X331428Y-13837257D01*
X317143Y-13865829D01*
X317143Y-13922971D01*
X331428Y-13951543D01*
X345714Y-13965829D01*
X374286Y-13980114D01*
X431428Y-13980114D01*
X460000Y-13965829D01*
X474286Y-13951543D01*
X488571Y-13922971D01*
X488571Y-13865829D01*
X474286Y-13837257D01*
X460000Y-13822971D01*
X431428Y-13808686D01*
X617143Y-13980114D02*
X617143Y-13780114D01*
X617143Y-13808686D02*
X631428Y-13794400D01*
X660000Y-13780114D01*
X702857Y-13780114D01*
X731428Y-13794400D01*
X745714Y-13822971D01*
X745714Y-13980114D01*
X745714Y-13822971D02*
X760000Y-13794400D01*
X788571Y-13780114D01*
X831428Y-13780114D01*
X860000Y-13794400D01*
X874286Y-13822971D01*
X874286Y-13980114D01*
X1017143Y-13980114D02*
X1017143Y-13780114D01*
X1017143Y-13808686D02*
X1031428Y-13794400D01*
X1060000Y-13780114D01*
X1102857Y-13780114D01*
X1131428Y-13794400D01*
X1145714Y-13822971D01*
X1145714Y-13980114D01*
X1145714Y-13822971D02*
X1160000Y-13794400D01*
X1188571Y-13780114D01*
X1231428Y-13780114D01*
X1260000Y-13794400D01*
X1274286Y-13822971D01*
X1274286Y-13980114D01*
X1860000Y-13665829D02*
X1602857Y-14051543D01*
X2245714Y-13680114D02*
X2274286Y-13680114D01*
X2302857Y-13694400D01*
X2317143Y-13708686D01*
X2331428Y-13737257D01*
X2345714Y-13794400D01*
X2345714Y-13865829D01*
X2331428Y-13922971D01*
X2317143Y-13951543D01*
X2302857Y-13965829D01*
X2274286Y-13980114D01*
X2245714Y-13980114D01*
X2217143Y-13965829D01*
X2202857Y-13951543D01*
X2188571Y-13922971D01*
X2174286Y-13865829D01*
X2174286Y-13794400D01*
X2188571Y-13737257D01*
X2202857Y-13708686D01*
X2217143Y-13694400D01*
X2245714Y-13680114D01*
X2474286Y-13951543D02*
X2488571Y-13965829D01*
X2474286Y-13980114D01*
X2460000Y-13965829D01*
X2474286Y-13951543D01*
X2474286Y-13980114D01*
X2774286Y-13980114D02*
X2602857Y-13980114D01*
X2688571Y-13980114D02*
X2688571Y-13680114D01*
X2660000Y-13722971D01*
X2631428Y-13751543D01*
X2602857Y-13765829D01*
X3045714Y-13680114D02*
X2902857Y-13680114D01*
X2888571Y-13822971D01*
X2902857Y-13808686D01*
X2931428Y-13794400D01*
X3002857Y-13794400D01*
X3031428Y-13808686D01*
X3045714Y-13822971D01*
X3060000Y-13851543D01*
X3060000Y-13922971D01*
X3045714Y-13951543D01*
X3031428Y-13965829D01*
X3002857Y-13980114D01*
X2931428Y-13980114D01*
X2902857Y-13965829D01*
X2888571Y-13951543D01*
X3160000Y-13680114D02*
X3360000Y-13680114D01*
X3231428Y-13980114D01*
X3531428Y-13680114D02*
X3560000Y-13680114D01*
X3588571Y-13694400D01*
X3602857Y-13708686D01*
X3617143Y-13737257D01*
X3631428Y-13794400D01*
X3631428Y-13865829D01*
X3617143Y-13922971D01*
X3602857Y-13951543D01*
X3588571Y-13965829D01*
X3560000Y-13980114D01*
X3531428Y-13980114D01*
X3502857Y-13965829D01*
X3488571Y-13951543D01*
X3474286Y-13922971D01*
X3460000Y-13865829D01*
X3460000Y-13794400D01*
X3474286Y-13737257D01*
X3488571Y-13708686D01*
X3502857Y-13694400D01*
X3531428Y-13680114D01*
X3745714Y-13680114D02*
X3745714Y-13737257D01*
X3860000Y-13680114D02*
X3860000Y-13737257D01*
X4302857Y-14094400D02*
X4288571Y-14080114D01*
X4260000Y-14037257D01*
X4245714Y-14008686D01*
X4231428Y-13965829D01*
X4217143Y-13894400D01*
X4217143Y-13837257D01*
X4231428Y-13765829D01*
X4245714Y-13722971D01*
X4260000Y-13694400D01*
X4288571Y-13651543D01*
X4302857Y-13637257D01*
X4574286Y-13980114D02*
X4402857Y-13980114D01*
X4488571Y-13980114D02*
X4488571Y-13680114D01*
X4460000Y-13722971D01*
X4431428Y-13751543D01*
X4402857Y-13765829D01*
X4860000Y-13980114D02*
X4688571Y-13980114D01*
X4774286Y-13980114D02*
X4774286Y-13680114D01*
X4745714Y-13722971D01*
X4717143Y-13751543D01*
X4688571Y-13765829D01*
X5045714Y-13680114D02*
X5074286Y-13680114D01*
X5102857Y-13694400D01*
X5117143Y-13708686D01*
X5131428Y-13737257D01*
X5145714Y-13794400D01*
X5145714Y-13865829D01*
X5131428Y-13922971D01*
X5117143Y-13951543D01*
X5102857Y-13965829D01*
X5074286Y-13980114D01*
X5045714Y-13980114D01*
X5017143Y-13965829D01*
X5002857Y-13951543D01*
X4988571Y-13922971D01*
X4974286Y-13865829D01*
X4974286Y-13794400D01*
X4988571Y-13737257D01*
X5002857Y-13708686D01*
X5017143Y-13694400D01*
X5045714Y-13680114D01*
X5502857Y-13980114D02*
X5502857Y-13680114D01*
X5631428Y-13980114D02*
X5631428Y-13822971D01*
X5617143Y-13794400D01*
X5588571Y-13780114D01*
X5545714Y-13780114D01*
X5517143Y-13794400D01*
X5502857Y-13808686D01*
X5817143Y-13980114D02*
X5788571Y-13965829D01*
X5774286Y-13951543D01*
X5760000Y-13922971D01*
X5760000Y-13837257D01*
X5774286Y-13808686D01*
X5788571Y-13794400D01*
X5817143Y-13780114D01*
X5860000Y-13780114D01*
X5888571Y-13794400D01*
X5902857Y-13808686D01*
X5917143Y-13837257D01*
X5917143Y-13922971D01*
X5902857Y-13951543D01*
X5888571Y-13965829D01*
X5860000Y-13980114D01*
X5817143Y-13980114D01*
X6088571Y-13980114D02*
X6060000Y-13965829D01*
X6045714Y-13937257D01*
X6045714Y-13680114D01*
X6317143Y-13965829D02*
X6288571Y-13980114D01*
X6231428Y-13980114D01*
X6202857Y-13965829D01*
X6188571Y-13937257D01*
X6188571Y-13822971D01*
X6202857Y-13794400D01*
X6231428Y-13780114D01*
X6288571Y-13780114D01*
X6317143Y-13794400D01*
X6331428Y-13822971D01*
X6331428Y-13851543D01*
X6188571Y-13880114D01*
X6445714Y-13965829D02*
X6474286Y-13980114D01*
X6531428Y-13980114D01*
X6560000Y-13965829D01*
X6574286Y-13937257D01*
X6574286Y-13922971D01*
X6560000Y-13894400D01*
X6531428Y-13880114D01*
X6488571Y-13880114D01*
X6460000Y-13865829D01*
X6445714Y-13837257D01*
X6445714Y-13822971D01*
X6460000Y-13794400D01*
X6488571Y-13780114D01*
X6531428Y-13780114D01*
X6560000Y-13794400D01*
X6674286Y-14094400D02*
X6688571Y-14080114D01*
X6717143Y-14037257D01*
X6731428Y-14008686D01*
X6745714Y-13965829D01*
X6760000Y-13894400D01*
X6760000Y-13837257D01*
X6745714Y-13765829D01*
X6731428Y-13722971D01*
X6717143Y-13694400D01*
X6688571Y-13651543D01*
X6674286Y-13637257D01*
X7217143Y-14094400D02*
X7202857Y-14080114D01*
X7174286Y-14037257D01*
X7160000Y-14008686D01*
X7145714Y-13965829D01*
X7131428Y-13894400D01*
X7131428Y-13837257D01*
X7145714Y-13765829D01*
X7160000Y-13722971D01*
X7174286Y-13694400D01*
X7202857Y-13651543D01*
X7217143Y-13637257D01*
X7331428Y-13780114D02*
X7331428Y-13980114D01*
X7331428Y-13808686D02*
X7345714Y-13794400D01*
X7374286Y-13780114D01*
X7417143Y-13780114D01*
X7445714Y-13794400D01*
X7460000Y-13822971D01*
X7460000Y-13980114D01*
X7645714Y-13980114D02*
X7617143Y-13965829D01*
X7602857Y-13951543D01*
X7588571Y-13922971D01*
X7588571Y-13837257D01*
X7602857Y-13808686D01*
X7617143Y-13794400D01*
X7645714Y-13780114D01*
X7688571Y-13780114D01*
X7717143Y-13794400D01*
X7731428Y-13808686D01*
X7745714Y-13837257D01*
X7745714Y-13922971D01*
X7731428Y-13951543D01*
X7717143Y-13965829D01*
X7688571Y-13980114D01*
X7645714Y-13980114D01*
X7831428Y-13780114D02*
X7945714Y-13780114D01*
X7874286Y-13680114D02*
X7874286Y-13937257D01*
X7888571Y-13965829D01*
X7917143Y-13980114D01*
X7945714Y-13980114D01*
X8274286Y-13780114D02*
X8274286Y-14080114D01*
X8274286Y-13794400D02*
X8302857Y-13780114D01*
X8360000Y-13780114D01*
X8388571Y-13794400D01*
X8402857Y-13808686D01*
X8417143Y-13837257D01*
X8417143Y-13922971D01*
X8402857Y-13951543D01*
X8388571Y-13965829D01*
X8360000Y-13980114D01*
X8302857Y-13980114D01*
X8274286Y-13965829D01*
X8588571Y-13980114D02*
X8560000Y-13965829D01*
X8545714Y-13937257D01*
X8545714Y-13680114D01*
X8831428Y-13980114D02*
X8831428Y-13822971D01*
X8817143Y-13794400D01*
X8788571Y-13780114D01*
X8731428Y-13780114D01*
X8702857Y-13794400D01*
X8831428Y-13965829D02*
X8802857Y-13980114D01*
X8731428Y-13980114D01*
X8702857Y-13965829D01*
X8688571Y-13937257D01*
X8688571Y-13908686D01*
X8702857Y-13880114D01*
X8731428Y-13865829D01*
X8802857Y-13865829D01*
X8831428Y-13851543D01*
X8931428Y-13780114D02*
X9045714Y-13780114D01*
X8974286Y-13680114D02*
X8974286Y-13937257D01*
X8988571Y-13965829D01*
X9017143Y-13980114D01*
X9045714Y-13980114D01*
X9260000Y-13965829D02*
X9231428Y-13980114D01*
X9174286Y-13980114D01*
X9145714Y-13965829D01*
X9131428Y-13937257D01*
X9131428Y-13822971D01*
X9145714Y-13794400D01*
X9174286Y-13780114D01*
X9231428Y-13780114D01*
X9260000Y-13794400D01*
X9274286Y-13822971D01*
X9274286Y-13851543D01*
X9131428Y-13880114D01*
X9531428Y-13980114D02*
X9531428Y-13680114D01*
X9531428Y-13965829D02*
X9502857Y-13980114D01*
X9445714Y-13980114D01*
X9417143Y-13965829D01*
X9402857Y-13951543D01*
X9388571Y-13922971D01*
X9388571Y-13837257D01*
X9402857Y-13808686D01*
X9417143Y-13794400D01*
X9445714Y-13780114D01*
X9502857Y-13780114D01*
X9531428Y-13794400D01*
X9645714Y-14094400D02*
X9660000Y-14080114D01*
X9688571Y-14037257D01*
X9702857Y-14008686D01*
X9717143Y-13965829D01*
X9731428Y-13894400D01*
X9731428Y-13837257D01*
X9717143Y-13765829D01*
X9702857Y-13722971D01*
X9688571Y-13694400D01*
X9660000Y-13651543D01*
X9645714Y-13637257D01*
M02*
