%FSLAX45Y45*%
G04 Gerber Fmt 4.5, Leading zero omitted, Abs format (unit mm)*
G04 Created by KiCad (PCBNEW (5.1.10)-1) date 2021-07-27 21:23:01*
%MOMM*%
%LPD*%
G01*
G04 APERTURE LIST*
%TA.AperFunction,Profile*%
%ADD10C,0.050000*%
%TD*%
%ADD11C,0.200000*%
%ADD12C,0.300000*%
G04 APERTURE END LIST*
D10*
X42903580Y1237000D02*
G75*
G02*
X43264000Y876580I0J-360420D01*
G01*
X43264000Y-8212580D02*
G75*
G02*
X42903580Y-8573000I-360420J0D01*
G01*
X-592580Y-8573000D02*
G75*
G02*
X-953000Y-8212580I0J360420D01*
G01*
X-952076Y876571D02*
G75*
G02*
X-584580Y1237000I360076J429D01*
G01*
X29345000Y-8573000D02*
X21104000Y-10028000D01*
X42903580Y-8573000D02*
X29345000Y-8573000D01*
X12862000Y-8573000D02*
X21104000Y-10028000D01*
X-592580Y-8573000D02*
X12862000Y-8573000D01*
X-952076Y876571D02*
X-953000Y-8212580D01*
X10954000Y1237000D02*
X-584580Y1237000D01*
X43264000Y876580D02*
X43264000Y-8212580D01*
X10954000Y1237000D02*
X42903580Y1237000D01*
D11*
X1099000Y-6648000D02*
X1139000Y-6688000D01*
X1139000Y-6648000D02*
X1099000Y-6688000D01*
X1100000Y-932000D02*
X1140000Y-972000D01*
X1140000Y-932000D02*
X1100000Y-972000D01*
X1100000Y-2831000D02*
X1140000Y-2871000D01*
X1140000Y-2831000D02*
X1100000Y-2871000D01*
X1100000Y-4742000D02*
X1140000Y-4782000D01*
X1140000Y-4742000D02*
X1100000Y-4782000D01*
X3001000Y-6648000D02*
X3041000Y-6688000D01*
X3041000Y-6648000D02*
X3001000Y-6688000D01*
X3003000Y-4742000D02*
X3043000Y-4782000D01*
X3043000Y-4742000D02*
X3003000Y-4782000D01*
X3005000Y-2838000D02*
X3045000Y-2878000D01*
X3045000Y-2838000D02*
X3005000Y-2878000D01*
X3008000Y-931000D02*
X3048000Y-971000D01*
X3048000Y-931000D02*
X3008000Y-971000D01*
X4907000Y-2838000D02*
X4947000Y-2878000D01*
X4947000Y-2838000D02*
X4907000Y-2878000D01*
X4907000Y-4743000D02*
X4947000Y-4783000D01*
X4947000Y-4743000D02*
X4907000Y-4783000D01*
X4909000Y-932000D02*
X4949000Y-972000D01*
X4949000Y-932000D02*
X4909000Y-972000D01*
X4909000Y-6647000D02*
X4949000Y-6687000D01*
X4949000Y-6647000D02*
X4909000Y-6687000D01*
X6648000Y-1099000D02*
X6688000Y-1139000D01*
X6688000Y-1099000D02*
X6648000Y-1139000D01*
X6648000Y-2998000D02*
X6688000Y-3038000D01*
X6688000Y-2998000D02*
X6648000Y-3038000D01*
X6648000Y-6812000D02*
X6688000Y-6852000D01*
X6688000Y-6812000D02*
X6648000Y-6852000D01*
X9194000Y-932000D02*
X9234000Y-972000D01*
X9234000Y-932000D02*
X9194000Y-972000D01*
X10151000Y-2839000D02*
X10191000Y-2879000D01*
X10191000Y-2839000D02*
X10151000Y-2879000D01*
X10457000Y-4555000D02*
X10497000Y-4595000D01*
X10497000Y-4555000D02*
X10457000Y-4595000D01*
X11101000Y-933000D02*
X11141000Y-973000D01*
X11141000Y-933000D02*
X11101000Y-973000D01*
X11177750Y559750D02*
X11217750Y519750D01*
X11217750Y559750D02*
X11177750Y519750D01*
X11575000Y-6646000D02*
X11615000Y-6686000D01*
X11615000Y-6646000D02*
X11575000Y-6686000D01*
X12055000Y-2837000D02*
X12095000Y-2877000D01*
X12095000Y-2837000D02*
X12055000Y-2877000D01*
X12527000Y-4740000D02*
X12567000Y-4780000D01*
X12567000Y-4740000D02*
X12527000Y-4780000D01*
X12838000Y-203000D02*
X12878000Y-243000D01*
X12878000Y-203000D02*
X12838000Y-243000D01*
X13269998Y392586D02*
X13309998Y352586D01*
X13309998Y392586D02*
X13269998Y352586D01*
X13480000Y-6648000D02*
X13520000Y-6688000D01*
X13520000Y-6648000D02*
X13480000Y-6688000D01*
X14058493Y-2904652D02*
X14098493Y-2944652D01*
X14098493Y-2904652D02*
X14058493Y-2944652D01*
X14433000Y-4904000D02*
X14473000Y-4944000D01*
X14473000Y-4904000D02*
X14433000Y-4944000D01*
X14860000Y-1114000D02*
X14900000Y-1154000D01*
X14900000Y-1114000D02*
X14860000Y-1154000D01*
X15115348Y-8857493D02*
X15155348Y-8897493D01*
X15155348Y-8857493D02*
X15115348Y-8897493D01*
X15146056Y-970852D02*
X15186056Y-1010852D01*
X15186056Y-970852D02*
X15146056Y-1010852D01*
X15605000Y-7047000D02*
X15645000Y-7087000D01*
X15645000Y-7047000D02*
X15605000Y-7087000D01*
X15934000Y-3239000D02*
X15974000Y-3279000D01*
X15974000Y-3239000D02*
X15934000Y-3279000D01*
X16222301Y-3023301D02*
X16262301Y-3063301D01*
X16262301Y-3023301D02*
X16222301Y-3063301D01*
X16309000Y-5235000D02*
X16349000Y-5275000D01*
X16349000Y-5235000D02*
X16309000Y-5275000D01*
X16735000Y-1448000D02*
X16775000Y-1488000D01*
X16775000Y-1448000D02*
X16735000Y-1488000D01*
X17242000Y-7334000D02*
X17282000Y-7374000D01*
X17282000Y-7334000D02*
X17242000Y-7374000D01*
X17812000Y-3567000D02*
X17852000Y-3607000D01*
X17852000Y-3567000D02*
X17812000Y-3607000D01*
X17860000Y-5509000D02*
X17900000Y-5549000D01*
X17900000Y-5509000D02*
X17860000Y-5549000D01*
X18610000Y-1776000D02*
X18650000Y-1816000D01*
X18650000Y-1776000D02*
X18610000Y-1816000D01*
X19686000Y-3900000D02*
X19726000Y-3940000D01*
X19726000Y-3900000D02*
X19686000Y-3940000D01*
X19733000Y-5838000D02*
X19773000Y-5878000D01*
X19773000Y-5838000D02*
X19733000Y-5878000D01*
X19824000Y-7789000D02*
X19864000Y-7829000D01*
X19864000Y-7789000D02*
X19824000Y-7829000D01*
X20952000Y-7296000D02*
X20992000Y-7336000D01*
X20992000Y-7296000D02*
X20952000Y-7336000D01*
X22445000Y-7832000D02*
X22485000Y-7872000D01*
X22485000Y-7832000D02*
X22445000Y-7872000D01*
X22483000Y-3956000D02*
X22523000Y-3996000D01*
X22523000Y-3956000D02*
X22483000Y-3996000D01*
X23092000Y-1918000D02*
X23132000Y-1958000D01*
X23132000Y-1918000D02*
X23092000Y-1958000D01*
X23617640Y-2830360D02*
X23657640Y-2870360D01*
X23657640Y-2830360D02*
X23617640Y-2870360D01*
X23755000Y-5666000D02*
X23795000Y-5706000D01*
X23795000Y-5666000D02*
X23755000Y-5706000D01*
X24320000Y-7501000D02*
X24360000Y-7541000D01*
X24360000Y-7501000D02*
X24320000Y-7541000D01*
X24362000Y-3627000D02*
X24402000Y-3667000D01*
X24402000Y-3627000D02*
X24362000Y-3667000D01*
X24970000Y-1581000D02*
X25010000Y-1621000D01*
X25010000Y-1581000D02*
X24970000Y-1621000D01*
X25628000Y-5335000D02*
X25668000Y-5375000D01*
X25668000Y-5335000D02*
X25628000Y-5375000D01*
X25820546Y-3023454D02*
X25860546Y-3063454D01*
X25860546Y-3023454D02*
X25820546Y-3063454D01*
X26199000Y-7170000D02*
X26239000Y-7210000D01*
X26239000Y-7170000D02*
X26199000Y-7210000D01*
X26237000Y-3293000D02*
X26277000Y-3333000D01*
X26277000Y-3293000D02*
X26237000Y-3333000D01*
X26846000Y-1252000D02*
X26886000Y-1292000D01*
X26886000Y-1252000D02*
X26846000Y-1292000D01*
X27369757Y-1870122D02*
X27409757Y-1910122D01*
X27409757Y-1870122D02*
X27369757Y-1910122D01*
X27559000Y-4996000D02*
X27599000Y-5036000D01*
X27599000Y-4996000D02*
X27559000Y-5036000D01*
X27739000Y-6898000D02*
X27779000Y-6938000D01*
X27779000Y-6898000D02*
X27739000Y-6938000D01*
X28115000Y-2964000D02*
X28155000Y-3004000D01*
X28155000Y-2964000D02*
X28115000Y-3004000D01*
X28721000Y-921000D02*
X28761000Y-961000D01*
X28761000Y-921000D02*
X28721000Y-961000D01*
X29009000Y-6674000D02*
X29049000Y-6714000D01*
X29049000Y-6674000D02*
X29009000Y-6714000D01*
X29354000Y-4677000D02*
X29394000Y-4717000D01*
X29394000Y-4677000D02*
X29354000Y-4717000D01*
X30153455Y274000D02*
X30193455Y234000D01*
X30193455Y274000D02*
X30153455Y234000D01*
X31983000Y-932000D02*
X32023000Y-972000D01*
X32023000Y-932000D02*
X31983000Y-972000D01*
X32058455Y274000D02*
X32098455Y234000D01*
X32098455Y274000D02*
X32058455Y234000D01*
X32931000Y-2838000D02*
X32971000Y-2878000D01*
X32971000Y-2838000D02*
X32931000Y-2878000D01*
X33407000Y-4743000D02*
X33447000Y-4783000D01*
X33447000Y-4743000D02*
X33407000Y-4783000D01*
X33885000Y-932000D02*
X33925000Y-972000D01*
X33925000Y-932000D02*
X33885000Y-972000D01*
X34361000Y-6648000D02*
X34401000Y-6688000D01*
X34401000Y-6648000D02*
X34361000Y-6688000D01*
X34835000Y-2838000D02*
X34875000Y-2878000D01*
X34875000Y-2838000D02*
X34835000Y-2878000D01*
X35314000Y-4741000D02*
X35354000Y-4781000D01*
X35354000Y-4741000D02*
X35314000Y-4781000D01*
X35788000Y-932000D02*
X35828000Y-972000D01*
X35828000Y-932000D02*
X35788000Y-972000D01*
X36742000Y-2836000D02*
X36782000Y-2876000D01*
X36782000Y-2836000D02*
X36742000Y-2876000D01*
X37695000Y-6647000D02*
X37735000Y-6687000D01*
X37735000Y-6647000D02*
X37695000Y-6687000D01*
X39434000Y-3001000D02*
X39474000Y-3041000D01*
X39474000Y-3001000D02*
X39434000Y-3041000D01*
X39435000Y-4873000D02*
X39475000Y-4913000D01*
X39475000Y-4873000D02*
X39435000Y-4913000D01*
X39436000Y-1097000D02*
X39476000Y-1137000D01*
X39476000Y-1097000D02*
X39436000Y-1137000D01*
X39606000Y-6647000D02*
X39646000Y-6687000D01*
X39646000Y-6647000D02*
X39606000Y-6687000D01*
X41340000Y-1099000D02*
X41380000Y-1139000D01*
X41380000Y-1099000D02*
X41340000Y-1139000D01*
X41340000Y-3001000D02*
X41380000Y-3041000D01*
X41380000Y-3001000D02*
X41340000Y-3041000D01*
X41342000Y-4908000D02*
X41382000Y-4948000D01*
X41382000Y-4908000D02*
X41342000Y-4948000D01*
X41508000Y-6647000D02*
X41548000Y-6687000D01*
X41548000Y-6647000D02*
X41508000Y-6687000D01*
X20604610Y863000D02*
G75*
G03*
X20604610Y863000I-54610J0D01*
G01*
X20604610Y609000D02*
G75*
G03*
X20604610Y609000I-54610J0D01*
G01*
X20604610Y355000D02*
G75*
G03*
X20604610Y355000I-54610J0D01*
G01*
X20604610Y101000D02*
G75*
G03*
X20604610Y101000I-54610J0D01*
G01*
X20604610Y-153000D02*
G75*
G03*
X20604610Y-153000I-54610J0D01*
G01*
X20604610Y-407000D02*
G75*
G03*
X20604610Y-407000I-54610J0D01*
G01*
X20604610Y-661000D02*
G75*
G03*
X20604610Y-661000I-54610J0D01*
G01*
X20604610Y-915000D02*
G75*
G03*
X20604610Y-915000I-54610J0D01*
G01*
X20604610Y-1169000D02*
G75*
G03*
X20604610Y-1169000I-54610J0D01*
G01*
X20604610Y-1423000D02*
G75*
G03*
X20604610Y-1423000I-54610J0D01*
G01*
X20604610Y-1677000D02*
G75*
G03*
X20604610Y-1677000I-54610J0D01*
G01*
X20627470Y-1931000D02*
G75*
G03*
X20627470Y-1931000I-54610J0D01*
G01*
X20858610Y-1931000D02*
G75*
G03*
X20858610Y-1931000I-54610J0D01*
G01*
X21112610Y-1931000D02*
G75*
G03*
X21112610Y-1931000I-54610J0D01*
G01*
X21366610Y-1931000D02*
G75*
G03*
X21366610Y-1931000I-54610J0D01*
G01*
X21620610Y-1931000D02*
G75*
G03*
X21620610Y-1931000I-54610J0D01*
G01*
X21874610Y-1931000D02*
G75*
G03*
X21874610Y-1931000I-54610J0D01*
G01*
X22128610Y863000D02*
G75*
G03*
X22128610Y863000I-54610J0D01*
G01*
X22128610Y609000D02*
G75*
G03*
X22128610Y609000I-54610J0D01*
G01*
X22128610Y355000D02*
G75*
G03*
X22128610Y355000I-54610J0D01*
G01*
X22128610Y101000D02*
G75*
G03*
X22128610Y101000I-54610J0D01*
G01*
X22128610Y-153000D02*
G75*
G03*
X22128610Y-153000I-54610J0D01*
G01*
X22128610Y-407000D02*
G75*
G03*
X22128610Y-407000I-54610J0D01*
G01*
X22128610Y-661000D02*
G75*
G03*
X22128610Y-661000I-54610J0D01*
G01*
X22128610Y-915000D02*
G75*
G03*
X22128610Y-915000I-54610J0D01*
G01*
X22128610Y-1169000D02*
G75*
G03*
X22128610Y-1169000I-54610J0D01*
G01*
X22128610Y-1423000D02*
G75*
G03*
X22128610Y-1423000I-54610J0D01*
G01*
X22128610Y-1677000D02*
G75*
G03*
X22128610Y-1677000I-54610J0D01*
G01*
X22128610Y-1931000D02*
G75*
G03*
X22128610Y-1931000I-54610J0D01*
G01*
X-508000Y87500D02*
X-508000Y-87500D01*
X-595500Y0D02*
X-420500Y0D01*
X-508000Y-1817500D02*
X-508000Y-1992500D01*
X-595500Y-1905000D02*
X-420500Y-1905000D01*
X-508000Y-3722500D02*
X-508000Y-3897500D01*
X-595500Y-3810000D02*
X-420500Y-3810000D01*
X-508000Y-5627500D02*
X-508000Y-5802500D01*
X-595500Y-5715000D02*
X-420500Y-5715000D01*
X-508000Y-7532500D02*
X-508000Y-7707500D01*
X-595500Y-7620000D02*
X-420500Y-7620000D01*
X444500Y-7532500D02*
X444500Y-7707500D01*
X357000Y-7620000D02*
X532000Y-7620000D01*
X508000Y87500D02*
X508000Y-87500D01*
X420500Y0D02*
X595500Y0D01*
X508000Y-1817500D02*
X508000Y-1992500D01*
X420500Y-1905000D02*
X595500Y-1905000D01*
X508000Y-3722500D02*
X508000Y-3897500D01*
X420500Y-3810000D02*
X595500Y-3810000D01*
X508000Y-5627500D02*
X508000Y-5802500D01*
X420500Y-5715000D02*
X595500Y-5715000D01*
X508000Y-7532500D02*
X508000Y-7707500D01*
X420500Y-7620000D02*
X595500Y-7620000D01*
X1397000Y87500D02*
X1397000Y-87500D01*
X1309500Y0D02*
X1484500Y0D01*
X1397000Y-1817500D02*
X1397000Y-1992500D01*
X1309500Y-1905000D02*
X1484500Y-1905000D01*
X1397000Y-3722500D02*
X1397000Y-3897500D01*
X1309500Y-3810000D02*
X1484500Y-3810000D01*
X1397000Y-5627500D02*
X1397000Y-5802500D01*
X1309500Y-5715000D02*
X1484500Y-5715000D01*
X1397000Y-7532500D02*
X1397000Y-7707500D01*
X1309500Y-7620000D02*
X1484500Y-7620000D01*
X1460500Y-7532500D02*
X1460500Y-7707500D01*
X1373000Y-7620000D02*
X1548000Y-7620000D01*
X2413000Y87500D02*
X2413000Y-87500D01*
X2325500Y0D02*
X2500500Y0D01*
X2413000Y-1817500D02*
X2413000Y-1992500D01*
X2325500Y-1905000D02*
X2500500Y-1905000D01*
X2413000Y-3722500D02*
X2413000Y-3897500D01*
X2325500Y-3810000D02*
X2500500Y-3810000D01*
X2413000Y-5627500D02*
X2413000Y-5802500D01*
X2325500Y-5715000D02*
X2500500Y-5715000D01*
X2413000Y-7532500D02*
X2413000Y-7707500D01*
X2325500Y-7620000D02*
X2500500Y-7620000D01*
X3302000Y87500D02*
X3302000Y-87500D01*
X3214500Y0D02*
X3389500Y0D01*
X3302000Y-1817500D02*
X3302000Y-1992500D01*
X3214500Y-1905000D02*
X3389500Y-1905000D01*
X3302000Y-3722500D02*
X3302000Y-3897500D01*
X3214500Y-3810000D02*
X3389500Y-3810000D01*
X3302000Y-5627500D02*
X3302000Y-5802500D01*
X3214500Y-5715000D02*
X3389500Y-5715000D01*
X3302000Y-7532500D02*
X3302000Y-7707500D01*
X3214500Y-7620000D02*
X3389500Y-7620000D01*
X4318000Y87500D02*
X4318000Y-87500D01*
X4230500Y0D02*
X4405500Y0D01*
X4318000Y-1817500D02*
X4318000Y-1992500D01*
X4230500Y-1905000D02*
X4405500Y-1905000D01*
X4318000Y-3722500D02*
X4318000Y-3897500D01*
X4230500Y-3810000D02*
X4405500Y-3810000D01*
X4318000Y-5627500D02*
X4318000Y-5802500D01*
X4230500Y-5715000D02*
X4405500Y-5715000D01*
X4318000Y-7532500D02*
X4318000Y-7707500D01*
X4230500Y-7620000D02*
X4405500Y-7620000D01*
X5207000Y87500D02*
X5207000Y-87500D01*
X5119500Y0D02*
X5294500Y0D01*
X5715000Y-2262000D02*
X5715000Y-2437000D01*
X5627500Y-2349500D02*
X5802500Y-2349500D01*
X5715000Y-3278000D02*
X5715000Y-3453000D01*
X5627500Y-3365500D02*
X5802500Y-3365500D01*
X5715000Y-6072000D02*
X5715000Y-6247000D01*
X5627500Y-6159500D02*
X5802500Y-6159500D01*
X5715000Y-7088000D02*
X5715000Y-7263000D01*
X5627500Y-7175500D02*
X5802500Y-7175500D01*
X6223000Y87500D02*
X6223000Y-87500D01*
X6135500Y0D02*
X6310500Y0D01*
X7588250Y87500D02*
X7588250Y-87500D01*
X7500750Y0D02*
X7675750Y0D01*
X7826375Y-7532500D02*
X7826375Y-7707500D01*
X7738875Y-7620000D02*
X7913875Y-7620000D01*
X8064500Y-1817500D02*
X8064500Y-1992500D01*
X7977000Y-1905000D02*
X8152000Y-1905000D01*
X8302625Y-3722500D02*
X8302625Y-3897500D01*
X8215125Y-3810000D02*
X8390125Y-3810000D01*
X8604250Y87500D02*
X8604250Y-87500D01*
X8516750Y0D02*
X8691750Y0D01*
X8778875Y-5627500D02*
X8778875Y-5802500D01*
X8691375Y-5715000D02*
X8866375Y-5715000D01*
X8842375Y-7532500D02*
X8842375Y-7707500D01*
X8754875Y-7620000D02*
X8929875Y-7620000D01*
X9080500Y-1817500D02*
X9080500Y-1992500D01*
X8993000Y-1905000D02*
X9168000Y-1905000D01*
X9318625Y-3722500D02*
X9318625Y-3897500D01*
X9231125Y-3810000D02*
X9406125Y-3810000D01*
X9493250Y87500D02*
X9493250Y-87500D01*
X9405750Y0D02*
X9580750Y0D01*
X9794875Y-5627500D02*
X9794875Y-5802500D01*
X9707375Y-5715000D02*
X9882375Y-5715000D01*
X10207625Y-7532500D02*
X10207625Y-7707500D01*
X10120125Y-7620000D02*
X10295125Y-7620000D01*
X10445750Y-1817500D02*
X10445750Y-1992500D01*
X10358250Y-1905000D02*
X10533250Y-1905000D01*
X10509250Y87500D02*
X10509250Y-87500D01*
X10421750Y0D02*
X10596750Y0D01*
X10922000Y-3722500D02*
X10922000Y-3897500D01*
X10834500Y-3810000D02*
X11009500Y-3810000D01*
X11223625Y-7532500D02*
X11223625Y-7707500D01*
X11136125Y-7620000D02*
X11311125Y-7620000D01*
X11398250Y373250D02*
X11398250Y198250D01*
X11310750Y285750D02*
X11485750Y285750D01*
X11461750Y-1817500D02*
X11461750Y-1992500D01*
X11374250Y-1905000D02*
X11549250Y-1905000D01*
X11874500Y-5627500D02*
X11874500Y-5802500D01*
X11787000Y-5715000D02*
X11962000Y-5715000D01*
X11938000Y-3722500D02*
X11938000Y-3897500D01*
X11850500Y-3810000D02*
X12025500Y-3810000D01*
X12414250Y373250D02*
X12414250Y198250D01*
X12326750Y285750D02*
X12501750Y285750D01*
X12643531Y-1618230D02*
X12643531Y-1793230D01*
X12556031Y-1705730D02*
X12731031Y-1705730D01*
X12890500Y-5627500D02*
X12890500Y-5802500D01*
X12803000Y-5715000D02*
X12978000Y-5715000D01*
X13016253Y-3618339D02*
X13016253Y-3793339D01*
X12928753Y-3705839D02*
X13103753Y-3705839D01*
X13443345Y175129D02*
X13443345Y129D01*
X13355845Y87629D02*
X13530845Y87629D01*
X13611069Y-7650028D02*
X13611069Y-7825028D01*
X13523569Y-7737528D02*
X13698569Y-7737528D01*
X13644095Y-1794657D02*
X13644095Y-1969657D01*
X13556595Y-1882157D02*
X13731595Y-1882157D01*
X13951793Y-5717687D02*
X13951793Y-5892687D01*
X13864293Y-5805187D02*
X14039293Y-5805187D01*
X14016818Y-3794765D02*
X14016818Y-3969765D01*
X13929318Y-3882265D02*
X14104318Y-3882265D01*
X14443910Y-1298D02*
X14443910Y-176298D01*
X14356410Y-88798D02*
X14531410Y-88798D01*
X14519589Y-1949030D02*
X14519589Y-2124030D01*
X14432089Y-2036530D02*
X14607089Y-2036530D01*
X14611634Y-7826454D02*
X14611634Y-8001454D01*
X14524134Y-7913954D02*
X14699134Y-7913954D01*
X14892312Y-3949138D02*
X14892312Y-4124138D01*
X14804812Y-4036638D02*
X14979812Y-4036638D01*
X14952358Y-5894114D02*
X14952358Y-6069114D01*
X14864858Y-5981614D02*
X15039858Y-5981614D01*
X15319404Y-155671D02*
X15319404Y-330671D01*
X15231904Y-243171D02*
X15406904Y-243171D01*
X15520154Y-2125456D02*
X15520154Y-2300456D01*
X15432654Y-2212956D02*
X15607654Y-2212956D01*
X15827852Y-6048487D02*
X15827852Y-6223487D01*
X15740352Y-6135987D02*
X15915352Y-6135987D01*
X15892876Y-4125565D02*
X15892876Y-4300565D01*
X15805376Y-4213065D02*
X15980376Y-4213065D01*
X16319968Y-332098D02*
X16319968Y-507098D01*
X16232468Y-419598D02*
X16407468Y-419598D01*
X16395648Y-2279830D02*
X16395648Y-2454830D01*
X16308148Y-2367330D02*
X16483148Y-2367330D01*
X16768370Y-4279938D02*
X16768370Y-4454938D01*
X16680870Y-4367438D02*
X16855871Y-4367438D01*
X16828416Y-6224913D02*
X16828416Y-6399913D01*
X16740916Y-6312413D02*
X16915916Y-6312413D01*
X16904096Y-8172645D02*
X16904096Y-8347645D01*
X16816596Y-8260145D02*
X16991596Y-8260145D01*
X17195463Y-486471D02*
X17195463Y-661471D01*
X17107963Y-573971D02*
X17282963Y-573971D01*
X17396213Y-2456256D02*
X17396213Y-2631256D01*
X17308713Y-2543756D02*
X17483713Y-2543756D01*
X17703910Y-6379286D02*
X17703910Y-6554286D01*
X17616410Y-6466786D02*
X17791410Y-6466786D01*
X17768935Y-4456365D02*
X17768935Y-4631365D01*
X17681435Y-4543865D02*
X17856435Y-4543865D01*
X17904661Y-8349072D02*
X17904661Y-8524072D01*
X17817161Y-8436572D02*
X17992161Y-8436572D01*
X18196027Y-662897D02*
X18196027Y-837897D01*
X18108527Y-750397D02*
X18283527Y-750397D01*
X18271707Y-2610629D02*
X18271707Y-2785629D01*
X18184207Y-2698129D02*
X18359207Y-2698129D01*
X18644429Y-4610738D02*
X18644429Y-4785738D01*
X18556929Y-4698238D02*
X18731929Y-4698238D01*
X18704475Y-6555713D02*
X18704475Y-6730713D01*
X18616975Y-6643213D02*
X18791975Y-6643213D01*
X19071521Y-817270D02*
X19071521Y-992270D01*
X18984021Y-904770D02*
X19159021Y-904770D01*
X19272272Y-2787056D02*
X19272272Y-2962056D01*
X19184772Y-2874556D02*
X19359772Y-2874556D01*
X19579969Y-6710086D02*
X19579969Y-6885086D01*
X19492469Y-6797586D02*
X19667469Y-6797586D01*
X19644994Y-4787164D02*
X19644994Y-4962164D01*
X19557494Y-4874664D02*
X19732494Y-4874664D01*
X19952692Y-8710195D02*
X19952692Y-8885195D01*
X19865192Y-8797695D02*
X20040192Y-8797695D01*
X20072086Y-993697D02*
X20072086Y-1168697D01*
X19984586Y-1081197D02*
X20159586Y-1081197D01*
X20580534Y-6886513D02*
X20580534Y-7061513D01*
X20493034Y-6974013D02*
X20668034Y-6974013D01*
X20953256Y-8886622D02*
X20953256Y-9061622D01*
X20865756Y-8974122D02*
X21040756Y-8974122D01*
X21961219Y-6886513D02*
X21961219Y-7061513D01*
X21873719Y-6974013D02*
X22048719Y-6974013D01*
X22003142Y-3010345D02*
X22003142Y-3185345D01*
X21915642Y-3097845D02*
X22090642Y-3097845D01*
X22610371Y-968887D02*
X22610371Y-1143887D01*
X22522871Y-1056387D02*
X22697871Y-1056387D01*
X22961784Y-6710086D02*
X22961784Y-6885086D01*
X22874284Y-6797586D02*
X23049284Y-6797586D01*
X23003706Y-2833919D02*
X23003706Y-3008919D01*
X22916206Y-2921419D02*
X23091206Y-2921419D01*
X23271971Y-4721004D02*
X23271971Y-4896004D01*
X23184471Y-4808504D02*
X23359471Y-4808504D01*
X23610936Y-792460D02*
X23610936Y-967460D01*
X23523436Y-879960D02*
X23698436Y-879960D01*
X23837278Y-6555713D02*
X23837278Y-6730713D01*
X23749778Y-6643213D02*
X23924778Y-6643213D01*
X23879200Y-2679546D02*
X23879200Y-2854546D01*
X23791700Y-2767046D02*
X23966700Y-2767046D01*
X23933570Y-8473122D02*
X23933570Y-8648122D01*
X23846070Y-8560622D02*
X24021070Y-8560622D01*
X24272535Y-4544578D02*
X24272535Y-4719578D01*
X24185035Y-4632078D02*
X24360035Y-4632078D01*
X24486430Y-638087D02*
X24486430Y-813087D01*
X24398930Y-725587D02*
X24573930Y-725587D01*
X24837842Y-6379286D02*
X24837842Y-6554286D01*
X24750342Y-6466786D02*
X24925342Y-6466786D01*
X24879765Y-2503119D02*
X24879765Y-2678119D01*
X24792265Y-2590619D02*
X24967265Y-2590619D01*
X24934135Y-8296695D02*
X24934135Y-8471695D01*
X24846635Y-8384195D02*
X25021635Y-8384195D01*
X25148029Y-4390205D02*
X25148029Y-4565205D01*
X25060529Y-4477705D02*
X25235529Y-4477705D01*
X25486994Y-461661D02*
X25486994Y-636661D01*
X25399494Y-549161D02*
X25574494Y-549161D01*
X25713336Y-6224913D02*
X25713336Y-6399913D01*
X25625836Y-6312413D02*
X25800836Y-6312413D01*
X25755259Y-2348746D02*
X25755259Y-2523746D01*
X25667759Y-2436246D02*
X25842759Y-2436246D01*
X26148594Y-4213778D02*
X26148594Y-4388778D01*
X26061094Y-4301278D02*
X26236094Y-4301278D01*
X26362489Y-307288D02*
X26362489Y-482287D01*
X26274989Y-394787D02*
X26449989Y-394787D01*
X26713901Y-6048487D02*
X26713901Y-6223487D01*
X26626401Y-6135987D02*
X26801401Y-6135987D01*
X26755823Y-2172320D02*
X26755823Y-2347320D01*
X26668323Y-2259820D02*
X26843323Y-2259820D01*
X27024088Y-4059405D02*
X27024088Y-4234405D01*
X26936588Y-4146905D02*
X27111588Y-4146905D01*
X27363053Y-130861D02*
X27363053Y-305861D01*
X27275553Y-218361D02*
X27450553Y-218361D01*
X27589395Y-5894114D02*
X27589395Y-6069114D01*
X27501895Y-5981614D02*
X27676895Y-5981614D01*
X27631318Y-2017946D02*
X27631318Y-2192946D01*
X27543818Y-2105446D02*
X27718818Y-2105446D01*
X27685688Y-7811522D02*
X27685688Y-7986522D01*
X27598188Y-7899022D02*
X27773188Y-7899022D01*
X28024653Y-3882978D02*
X28024653Y-4057978D01*
X27937153Y-3970478D02*
X28112153Y-3970478D01*
X28238547Y23512D02*
X28238547Y-151488D01*
X28151047Y-63988D02*
X28326047Y-63988D01*
X28589960Y-5717687D02*
X28589960Y-5892687D01*
X28502460Y-5805187D02*
X28677460Y-5805187D01*
X28631882Y-1841520D02*
X28631882Y-2016520D01*
X28544382Y-1929020D02*
X28719382Y-1929020D01*
X28686252Y-7635096D02*
X28686252Y-7810096D01*
X28598752Y-7722596D02*
X28773752Y-7722596D01*
X28900147Y-3728605D02*
X28900147Y-3903605D01*
X28812647Y-3816105D02*
X28987647Y-3816105D01*
X29239112Y199939D02*
X29239112Y24939D01*
X29151612Y112439D02*
X29326612Y112439D01*
X29465454Y-5563314D02*
X29465454Y-5738314D01*
X29377954Y-5650814D02*
X29552954Y-5650814D01*
X29900711Y-3552179D02*
X29900711Y-3727179D01*
X29813211Y-3639679D02*
X29988211Y-3639679D01*
X30373955Y87500D02*
X30373955Y-87500D01*
X30286455Y0D02*
X30461455Y0D01*
X30466018Y-5386887D02*
X30466018Y-5561887D01*
X30378518Y-5474387D02*
X30553518Y-5474387D01*
X31088330Y-7532500D02*
X31088330Y-7707500D01*
X31000830Y-7620000D02*
X31175830Y-7620000D01*
X31326455Y-1817500D02*
X31326455Y-1992500D01*
X31238955Y-1905000D02*
X31413955Y-1905000D01*
X31389955Y87500D02*
X31389955Y-87500D01*
X31302455Y0D02*
X31477455Y0D01*
X31802705Y-3722500D02*
X31802705Y-3897500D01*
X31715205Y-3810000D02*
X31890205Y-3810000D01*
X32104330Y-7532500D02*
X32104330Y-7707500D01*
X32016830Y-7620000D02*
X32191830Y-7620000D01*
X32278955Y87500D02*
X32278955Y-87500D01*
X32191455Y0D02*
X32366455Y0D01*
X32342455Y-1817500D02*
X32342455Y-1992500D01*
X32254955Y-1905000D02*
X32429955Y-1905000D01*
X32755205Y-5627500D02*
X32755205Y-5802500D01*
X32667705Y-5715000D02*
X32842705Y-5715000D01*
X32818705Y-3722500D02*
X32818705Y-3897500D01*
X32731205Y-3810000D02*
X32906205Y-3810000D01*
X33231455Y-1817500D02*
X33231455Y-1992500D01*
X33143955Y-1905000D02*
X33318955Y-1905000D01*
X33294955Y87500D02*
X33294955Y-87500D01*
X33207455Y0D02*
X33382455Y0D01*
X33469580Y-7532500D02*
X33469580Y-7707500D01*
X33382080Y-7620000D02*
X33557080Y-7620000D01*
X33707705Y-3722500D02*
X33707705Y-3897500D01*
X33620205Y-3810000D02*
X33795205Y-3810000D01*
X33771205Y-5627500D02*
X33771205Y-5802500D01*
X33683705Y-5715000D02*
X33858705Y-5715000D01*
X34183955Y87500D02*
X34183955Y-87500D01*
X34096455Y0D02*
X34271455Y0D01*
X34247455Y-1817500D02*
X34247455Y-1992500D01*
X34159955Y-1905000D02*
X34334955Y-1905000D01*
X34485580Y-7532500D02*
X34485580Y-7707500D01*
X34398080Y-7620000D02*
X34573080Y-7620000D01*
X34723705Y-3722500D02*
X34723705Y-3897500D01*
X34636205Y-3810000D02*
X34811205Y-3810000D01*
X35136455Y-1817500D02*
X35136455Y-1992500D01*
X35048955Y-1905000D02*
X35223955Y-1905000D01*
X35199955Y87500D02*
X35199955Y-87500D01*
X35112455Y0D02*
X35287455Y0D01*
X35374580Y-5627500D02*
X35374580Y-5802500D01*
X35287080Y-5715000D02*
X35462080Y-5715000D01*
X35850830Y-7532500D02*
X35850830Y-7707500D01*
X35763330Y-7620000D02*
X35938330Y-7620000D01*
X36152455Y-1817500D02*
X36152455Y-1992500D01*
X36064955Y-1905000D02*
X36239955Y-1905000D01*
X36390580Y-5627500D02*
X36390580Y-5802500D01*
X36303080Y-5715000D02*
X36478080Y-5715000D01*
X36803330Y-3722500D02*
X36803330Y-3897500D01*
X36715830Y-3810000D02*
X36890830Y-3810000D01*
X36866830Y-7532500D02*
X36866830Y-7707500D01*
X36779330Y-7620000D02*
X36954330Y-7620000D01*
X37041455Y87500D02*
X37041455Y-87500D01*
X36953955Y0D02*
X37128955Y0D01*
X37517705Y-1817500D02*
X37517705Y-1992500D01*
X37430205Y-1905000D02*
X37605205Y-1905000D01*
X37819330Y-3722500D02*
X37819330Y-3897500D01*
X37731830Y-3810000D02*
X37906830Y-3810000D01*
X37993955Y-5627500D02*
X37993955Y-5802500D01*
X37906455Y-5715000D02*
X38081455Y-5715000D01*
X37993955Y-7532500D02*
X37993955Y-7707500D01*
X37906455Y-7620000D02*
X38081455Y-7620000D01*
X38057455Y87500D02*
X38057455Y-87500D01*
X37969955Y0D02*
X38144955Y0D01*
X38533705Y-1817500D02*
X38533705Y-1992500D01*
X38446205Y-1905000D02*
X38621205Y-1905000D01*
X39009955Y-5627500D02*
X39009955Y-5802500D01*
X38922455Y-5715000D02*
X39097455Y-5715000D01*
X39009955Y-7532500D02*
X39009955Y-7707500D01*
X38922455Y-7620000D02*
X39097455Y-7620000D01*
X39898955Y-5627500D02*
X39898955Y-5802500D01*
X39811455Y-5715000D02*
X39986455Y-5715000D01*
X39898955Y-7532500D02*
X39898955Y-7707500D01*
X39811455Y-7620000D02*
X39986455Y-7620000D01*
X40914955Y-5627500D02*
X40914955Y-5802500D01*
X40827455Y-5715000D02*
X41002455Y-5715000D01*
X40914955Y-7532500D02*
X40914955Y-7707500D01*
X40827455Y-7620000D02*
X41002455Y-7620000D01*
X41803955Y87500D02*
X41803955Y-87500D01*
X41716455Y0D02*
X41891455Y0D01*
X41803955Y-1817500D02*
X41803955Y-1992500D01*
X41716455Y-1905000D02*
X41891455Y-1905000D01*
X41803955Y-3722500D02*
X41803955Y-3897500D01*
X41716455Y-3810000D02*
X41891455Y-3810000D01*
X41803955Y-7532500D02*
X41803955Y-7707500D01*
X41716455Y-7620000D02*
X41891455Y-7620000D01*
X42819955Y87500D02*
X42819955Y-87500D01*
X42732455Y0D02*
X42907455Y0D01*
X42819955Y-1817500D02*
X42819955Y-1992500D01*
X42732455Y-1905000D02*
X42907455Y-1905000D01*
X42819955Y-3722500D02*
X42819955Y-3897500D01*
X42732455Y-3810000D02*
X42907455Y-3810000D01*
X42819955Y-7532500D02*
X42819955Y-7707500D01*
X42732455Y-7620000D02*
X42907455Y-7620000D01*
X-274933Y147933D02*
X-274933Y360067D01*
X-487067Y360067D01*
X-487067Y147933D01*
X-274933Y147933D01*
X-274933Y-1757067D02*
X-274933Y-1544933D01*
X-487067Y-1544933D01*
X-487067Y-1757067D01*
X-274933Y-1757067D01*
X-274933Y-3662067D02*
X-274933Y-3449933D01*
X-487067Y-3449933D01*
X-487067Y-3662067D01*
X-274933Y-3662067D01*
X-274933Y-5567067D02*
X-274933Y-5354933D01*
X-487067Y-5354933D01*
X-487067Y-5567067D01*
X-274933Y-5567067D01*
X-274933Y-7472067D02*
X-274933Y-7259933D01*
X-487067Y-7259933D01*
X-487067Y-7472067D01*
X-274933Y-7472067D01*
X360067Y401933D02*
X360067Y614067D01*
X147933Y614067D01*
X147933Y401933D01*
X360067Y401933D01*
X360067Y-1503067D02*
X360067Y-1290933D01*
X147933Y-1290933D01*
X147933Y-1503067D01*
X360067Y-1503067D01*
X360067Y-3408067D02*
X360067Y-3195933D01*
X147933Y-3195933D01*
X147933Y-3408067D01*
X360067Y-3408067D01*
X360067Y-5313067D02*
X360067Y-5100933D01*
X147933Y-5100933D01*
X147933Y-5313067D01*
X360067Y-5313067D01*
X360067Y-7218067D02*
X360067Y-7005933D01*
X147933Y-7005933D01*
X147933Y-7218067D01*
X360067Y-7218067D01*
X677567Y-7472067D02*
X677567Y-7259933D01*
X465433Y-7259933D01*
X465433Y-7472067D01*
X677567Y-7472067D01*
X1312567Y-7218067D02*
X1312567Y-7005933D01*
X1100433Y-7005933D01*
X1100433Y-7218067D01*
X1312567Y-7218067D01*
X1630067Y147933D02*
X1630067Y360067D01*
X1417933Y360067D01*
X1417933Y147933D01*
X1630067Y147933D01*
X1630067Y-1757067D02*
X1630067Y-1544933D01*
X1417933Y-1544933D01*
X1417933Y-1757067D01*
X1630067Y-1757067D01*
X1630067Y-3662067D02*
X1630067Y-3449933D01*
X1417933Y-3449933D01*
X1417933Y-3662067D01*
X1630067Y-3662067D01*
X1630067Y-5567067D02*
X1630067Y-5354933D01*
X1417933Y-5354933D01*
X1417933Y-5567067D01*
X1630067Y-5567067D01*
X1630067Y-7472067D02*
X1630067Y-7259933D01*
X1417933Y-7259933D01*
X1417933Y-7472067D01*
X1630067Y-7472067D01*
X2265067Y401933D02*
X2265067Y614067D01*
X2052933Y614067D01*
X2052933Y401933D01*
X2265067Y401933D01*
X2265067Y-1503067D02*
X2265067Y-1290933D01*
X2052933Y-1290933D01*
X2052933Y-1503067D01*
X2265067Y-1503067D01*
X2265067Y-3408067D02*
X2265067Y-3195933D01*
X2052933Y-3195933D01*
X2052933Y-3408067D01*
X2265067Y-3408067D01*
X2265067Y-5313067D02*
X2265067Y-5100933D01*
X2052933Y-5100933D01*
X2052933Y-5313067D01*
X2265067Y-5313067D01*
X2265067Y-7218067D02*
X2265067Y-7005933D01*
X2052933Y-7005933D01*
X2052933Y-7218067D01*
X2265067Y-7218067D01*
X3535067Y147933D02*
X3535067Y360067D01*
X3322933Y360067D01*
X3322933Y147933D01*
X3535067Y147933D01*
X3535067Y-1757067D02*
X3535067Y-1544933D01*
X3322933Y-1544933D01*
X3322933Y-1757067D01*
X3535067Y-1757067D01*
X3535067Y-3662067D02*
X3535067Y-3449933D01*
X3322933Y-3449933D01*
X3322933Y-3662067D01*
X3535067Y-3662067D01*
X3535067Y-5567067D02*
X3535067Y-5354933D01*
X3322933Y-5354933D01*
X3322933Y-5567067D01*
X3535067Y-5567067D01*
X3535067Y-7472067D02*
X3535067Y-7259933D01*
X3322933Y-7259933D01*
X3322933Y-7472067D01*
X3535067Y-7472067D01*
X4170067Y401933D02*
X4170067Y614067D01*
X3957933Y614067D01*
X3957933Y401933D01*
X4170067Y401933D01*
X4170067Y-1503067D02*
X4170067Y-1290933D01*
X3957933Y-1290933D01*
X3957933Y-1503067D01*
X4170067Y-1503067D01*
X4170067Y-3408067D02*
X4170067Y-3195933D01*
X3957933Y-3195933D01*
X3957933Y-3408067D01*
X4170067Y-3408067D01*
X4170067Y-5313067D02*
X4170067Y-5100933D01*
X3957933Y-5100933D01*
X3957933Y-5313067D01*
X4170067Y-5313067D01*
X4170067Y-7218067D02*
X4170067Y-7005933D01*
X3957933Y-7005933D01*
X3957933Y-7218067D01*
X4170067Y-7218067D01*
X5313067Y-2709567D02*
X5313067Y-2497433D01*
X5100933Y-2497433D01*
X5100933Y-2709567D01*
X5313067Y-2709567D01*
X5313067Y-6519567D02*
X5313067Y-6307433D01*
X5100933Y-6307433D01*
X5100933Y-6519567D01*
X5313067Y-6519567D01*
X5440067Y147933D02*
X5440067Y360067D01*
X5227933Y360067D01*
X5227933Y147933D01*
X5440067Y147933D01*
X5567067Y-3344567D02*
X5567067Y-3132433D01*
X5354933Y-3132433D01*
X5354933Y-3344567D01*
X5567067Y-3344567D01*
X5567067Y-7154567D02*
X5567067Y-6942433D01*
X5354933Y-6942433D01*
X5354933Y-7154567D01*
X5567067Y-7154567D01*
X6075067Y401933D02*
X6075067Y614067D01*
X5862933Y614067D01*
X5862933Y401933D01*
X6075067Y401933D01*
X7821317Y147933D02*
X7821317Y360067D01*
X7609183Y360067D01*
X7609183Y147933D01*
X7821317Y147933D01*
X8059442Y-7472067D02*
X8059442Y-7259933D01*
X7847308Y-7259933D01*
X7847308Y-7472067D01*
X8059442Y-7472067D01*
X8297567Y-1757067D02*
X8297567Y-1544933D01*
X8085433Y-1544933D01*
X8085433Y-1757067D01*
X8297567Y-1757067D01*
X8456317Y401933D02*
X8456317Y614067D01*
X8244183Y614067D01*
X8244183Y401933D01*
X8456317Y401933D01*
X8535692Y-3662067D02*
X8535692Y-3449933D01*
X8323558Y-3449933D01*
X8323558Y-3662067D01*
X8535692Y-3662067D01*
X8694442Y-7218067D02*
X8694442Y-7005933D01*
X8482308Y-7005933D01*
X8482308Y-7218067D01*
X8694442Y-7218067D01*
X8932567Y-1503067D02*
X8932567Y-1290933D01*
X8720433Y-1290933D01*
X8720433Y-1503067D01*
X8932567Y-1503067D01*
X9011942Y-5567067D02*
X9011942Y-5354933D01*
X8799808Y-5354933D01*
X8799808Y-5567067D01*
X9011942Y-5567067D01*
X9170692Y-3408067D02*
X9170692Y-3195933D01*
X8958558Y-3195933D01*
X8958558Y-3408067D01*
X9170692Y-3408067D01*
X9646942Y-5313067D02*
X9646942Y-5100933D01*
X9434808Y-5100933D01*
X9434808Y-5313067D01*
X9646942Y-5313067D01*
X9726317Y147933D02*
X9726317Y360067D01*
X9514183Y360067D01*
X9514183Y147933D01*
X9726317Y147933D01*
X10361317Y401933D02*
X10361317Y614067D01*
X10149183Y614067D01*
X10149183Y401933D01*
X10361317Y401933D01*
X10440692Y-7472067D02*
X10440692Y-7259933D01*
X10228558Y-7259933D01*
X10228558Y-7472067D01*
X10440692Y-7472067D01*
X10678817Y-1757067D02*
X10678817Y-1544933D01*
X10466683Y-1544933D01*
X10466683Y-1757067D01*
X10678817Y-1757067D01*
X11075692Y-7218067D02*
X11075692Y-7005933D01*
X10863558Y-7005933D01*
X10863558Y-7218067D01*
X11075692Y-7218067D01*
X11155067Y-3662067D02*
X11155067Y-3449933D01*
X10942933Y-3449933D01*
X10942933Y-3662067D01*
X11155067Y-3662067D01*
X11313817Y-1503067D02*
X11313817Y-1290933D01*
X11101683Y-1290933D01*
X11101683Y-1503067D01*
X11313817Y-1503067D01*
X11631317Y433683D02*
X11631317Y645817D01*
X11419183Y645817D01*
X11419183Y433683D01*
X11631317Y433683D01*
X11790067Y-3408067D02*
X11790067Y-3195933D01*
X11577933Y-3195933D01*
X11577933Y-3408067D01*
X11790067Y-3408067D01*
X12107567Y-5567067D02*
X12107567Y-5354933D01*
X11895433Y-5354933D01*
X11895433Y-5567067D01*
X12107567Y-5567067D01*
X12266317Y687683D02*
X12266317Y899817D01*
X12054183Y899817D01*
X12054183Y687683D01*
X12266317Y687683D01*
X12742567Y-5313067D02*
X12742567Y-5100933D01*
X12530433Y-5100933D01*
X12530433Y-5313067D01*
X12742567Y-5313067D01*
X12918775Y-1583709D02*
X12918775Y-1371575D01*
X12706641Y-1371575D01*
X12706641Y-1583709D01*
X12918775Y-1583709D01*
X13291497Y-3583818D02*
X13291497Y-3371684D01*
X13079363Y-3371684D01*
X13079363Y-3583818D01*
X13291497Y-3583818D01*
X13588234Y-1443835D02*
X13588234Y-1231701D01*
X13376100Y-1231701D01*
X13376100Y-1443835D01*
X13588234Y-1443835D01*
X13718589Y209649D02*
X13718589Y421783D01*
X13506455Y421783D01*
X13506455Y209649D01*
X13718589Y209649D01*
X13886313Y-7615507D02*
X13886313Y-7403373D01*
X13674179Y-7403373D01*
X13674179Y-7615507D01*
X13886313Y-7615507D01*
X13960957Y-3443943D02*
X13960957Y-3231809D01*
X13748823Y-3231809D01*
X13748823Y-3443943D01*
X13960957Y-3443943D01*
X14227037Y-5683166D02*
X14227037Y-5471032D01*
X14014903Y-5471032D01*
X14014903Y-5683166D01*
X14227037Y-5683166D01*
X14388049Y349524D02*
X14388049Y561658D01*
X14175915Y561658D01*
X14175915Y349524D01*
X14388049Y349524D01*
X14555773Y-7475632D02*
X14555773Y-7263498D01*
X14343639Y-7263498D01*
X14343639Y-7475632D01*
X14555773Y-7475632D01*
X14794834Y-1914509D02*
X14794834Y-1702375D01*
X14582700Y-1702375D01*
X14582700Y-1914509D01*
X14794834Y-1914509D01*
X14896497Y-5543292D02*
X14896497Y-5331158D01*
X14684363Y-5331158D01*
X14684363Y-5543292D01*
X14896497Y-5543292D01*
X15167556Y-3914618D02*
X15167556Y-3702484D01*
X14955422Y-3702484D01*
X14955422Y-3914618D01*
X15167556Y-3914618D01*
X15464293Y-1774634D02*
X15464293Y-1562500D01*
X15252159Y-1562500D01*
X15252159Y-1774634D01*
X15464293Y-1774634D01*
X15594648Y-121150D02*
X15594648Y90984D01*
X15382514Y90984D01*
X15382514Y-121150D01*
X15594648Y-121150D01*
X15837015Y-3774743D02*
X15837015Y-3562609D01*
X15624881Y-3562609D01*
X15624881Y-3774743D01*
X15837015Y-3774743D01*
X16103096Y-6013966D02*
X16103096Y-5801832D01*
X15890962Y-5801832D01*
X15890962Y-6013966D01*
X16103096Y-6013966D01*
X16264108Y18724D02*
X16264108Y230858D01*
X16051974Y230858D01*
X16051974Y18724D01*
X16264108Y18724D01*
X16670892Y-2245309D02*
X16670892Y-2033175D01*
X16458758Y-2033175D01*
X16458758Y-2245309D01*
X16670892Y-2245309D01*
X16772555Y-5874091D02*
X16772555Y-5661957D01*
X16560421Y-5661957D01*
X16560421Y-5874091D01*
X16772555Y-5874091D01*
X17043615Y-4245417D02*
X17043615Y-4033283D01*
X16831481Y-4033283D01*
X16831481Y-4245417D01*
X17043615Y-4245417D01*
X17179340Y-8138125D02*
X17179340Y-7925991D01*
X16967206Y-7925991D01*
X16967206Y-8138125D01*
X17179340Y-8138125D01*
X17340352Y-2105434D02*
X17340352Y-1893300D01*
X17128218Y-1893300D01*
X17128218Y-2105434D01*
X17340352Y-2105434D01*
X17470707Y-451950D02*
X17470707Y-239816D01*
X17258573Y-239816D01*
X17258573Y-451950D01*
X17470707Y-451950D01*
X17713074Y-4105543D02*
X17713074Y-3893409D01*
X17500940Y-3893409D01*
X17500940Y-4105543D01*
X17713074Y-4105543D01*
X17848800Y-7998250D02*
X17848800Y-7786116D01*
X17636666Y-7786116D01*
X17636666Y-7998250D01*
X17848800Y-7998250D01*
X17979155Y-6344766D02*
X17979155Y-6132632D01*
X17767021Y-6132632D01*
X17767021Y-6344766D01*
X17979155Y-6344766D01*
X18140166Y-312075D02*
X18140166Y-99941D01*
X17928032Y-99941D01*
X17928032Y-312075D01*
X18140166Y-312075D01*
X18546951Y-2576108D02*
X18546951Y-2363974D01*
X18334817Y-2363974D01*
X18334817Y-2576108D01*
X18546951Y-2576108D01*
X18648614Y-6204891D02*
X18648614Y-5992757D01*
X18436480Y-5992757D01*
X18436480Y-6204891D01*
X18648614Y-6204891D01*
X18919673Y-4576217D02*
X18919673Y-4364083D01*
X18707539Y-4364083D01*
X18707539Y-4576217D01*
X18919673Y-4576217D01*
X19216411Y-2436234D02*
X19216411Y-2224100D01*
X19004277Y-2224100D01*
X19004277Y-2436234D01*
X19216411Y-2436234D01*
X19346766Y-782750D02*
X19346766Y-570616D01*
X19134632Y-570616D01*
X19134632Y-782750D01*
X19346766Y-782750D01*
X19589133Y-4436342D02*
X19589133Y-4224208D01*
X19376999Y-4224208D01*
X19376999Y-4436342D01*
X19589133Y-4436342D01*
X19855213Y-6675565D02*
X19855213Y-6463431D01*
X19643079Y-6463431D01*
X19643079Y-6675565D01*
X19855213Y-6675565D01*
X20016225Y-642875D02*
X20016225Y-430741D01*
X19804091Y-430741D01*
X19804091Y-642875D01*
X20016225Y-642875D01*
X20227936Y-8675674D02*
X20227936Y-8463540D01*
X20015802Y-8463540D01*
X20015802Y-8675674D01*
X20227936Y-8675674D01*
X20524673Y-6535691D02*
X20524673Y-6323557D01*
X20312539Y-6323557D01*
X20312539Y-6535691D01*
X20524673Y-6535691D01*
X20897395Y-8535800D02*
X20897395Y-8323666D01*
X20685261Y-8323666D01*
X20685261Y-8535800D01*
X20897395Y-8535800D01*
X22148250Y-6807885D02*
X22148250Y-6595751D01*
X21936116Y-6595751D01*
X21936116Y-6807885D01*
X22148250Y-6807885D01*
X22190172Y-2931718D02*
X22190172Y-2719584D01*
X21978038Y-2719584D01*
X21978038Y-2931718D01*
X22190172Y-2931718D01*
X22729496Y-6447477D02*
X22729496Y-6235343D01*
X22517362Y-6235343D01*
X22517362Y-6447477D01*
X22729496Y-6447477D01*
X22771419Y-2571310D02*
X22771419Y-2359176D01*
X22559285Y-2359176D01*
X22559285Y-2571310D01*
X22771419Y-2571310D01*
X22797402Y-890259D02*
X22797402Y-678125D01*
X22585268Y-678125D01*
X22585268Y-890259D01*
X22797402Y-890259D01*
X23378648Y-529852D02*
X23378648Y-317718D01*
X23166514Y-317718D01*
X23166514Y-529852D01*
X23378648Y-529852D01*
X23459001Y-4642377D02*
X23459001Y-4430243D01*
X23246867Y-4430243D01*
X23246867Y-4642377D01*
X23459001Y-4642377D01*
X24024309Y-6477086D02*
X24024309Y-6264952D01*
X23812175Y-6264952D01*
X23812175Y-6477086D01*
X24024309Y-6477086D01*
X24040248Y-4281969D02*
X24040248Y-4069835D01*
X23828114Y-4069835D01*
X23828114Y-4281969D01*
X24040248Y-4281969D01*
X24066231Y-2600918D02*
X24066231Y-2388784D01*
X23854097Y-2388784D01*
X23854097Y-2600918D01*
X24066231Y-2600918D01*
X24120601Y-8394494D02*
X24120601Y-8182360D01*
X23908467Y-8182360D01*
X23908467Y-8394494D01*
X24120601Y-8394494D01*
X24605555Y-6116678D02*
X24605555Y-5904544D01*
X24393421Y-5904544D01*
X24393421Y-6116678D01*
X24605555Y-6116678D01*
X24647477Y-2240511D02*
X24647477Y-2028376D01*
X24435343Y-2028376D01*
X24435343Y-2240511D01*
X24647477Y-2240511D01*
X24673461Y-559460D02*
X24673461Y-347326D01*
X24461327Y-347326D01*
X24461327Y-559460D01*
X24673461Y-559460D01*
X24701847Y-8034086D02*
X24701847Y-7821952D01*
X24489713Y-7821952D01*
X24489713Y-8034086D01*
X24701847Y-8034086D01*
X25254707Y-199052D02*
X25254707Y13082D01*
X25042573Y13082D01*
X25042573Y-199052D01*
X25254707Y-199052D01*
X25335060Y-4311577D02*
X25335060Y-4099443D01*
X25122926Y-4099443D01*
X25122926Y-4311577D01*
X25335060Y-4311577D01*
X25900367Y-6146286D02*
X25900367Y-5934152D01*
X25688233Y-5934152D01*
X25688233Y-6146286D01*
X25900367Y-6146286D01*
X25916306Y-3951169D02*
X25916306Y-3739035D01*
X25704172Y-3739035D01*
X25704172Y-3951169D01*
X25916306Y-3951169D01*
X25942290Y-2270119D02*
X25942290Y-2057985D01*
X25730156Y-2057985D01*
X25730156Y-2270119D01*
X25942290Y-2270119D01*
X26481614Y-5785878D02*
X26481614Y-5573744D01*
X26269480Y-5573744D01*
X26269480Y-5785878D01*
X26481614Y-5785878D01*
X26523536Y-1909711D02*
X26523536Y-1697577D01*
X26311402Y-1697577D01*
X26311402Y-1909711D01*
X26523536Y-1909711D01*
X26549519Y-228660D02*
X26549519Y-16526D01*
X26337385Y-16526D01*
X26337385Y-228660D01*
X26549519Y-228660D01*
X27130766Y131748D02*
X27130766Y343882D01*
X26918632Y343882D01*
X26918632Y131748D01*
X27130766Y131748D01*
X27211119Y-3980777D02*
X27211119Y-3768643D01*
X26998985Y-3768643D01*
X26998985Y-3980777D01*
X27211119Y-3980777D01*
X27776426Y-5815486D02*
X27776426Y-5603352D01*
X27564292Y-5603352D01*
X27564292Y-5815486D01*
X27776426Y-5815486D01*
X27792365Y-3620370D02*
X27792365Y-3408236D01*
X27580231Y-3408236D01*
X27580231Y-3620370D01*
X27792365Y-3620370D01*
X27818348Y-1939319D02*
X27818348Y-1727185D01*
X27606214Y-1727185D01*
X27606214Y-1939319D01*
X27818348Y-1939319D01*
X27872718Y-7732895D02*
X27872718Y-7520761D01*
X27660584Y-7520761D01*
X27660584Y-7732895D01*
X27872718Y-7732895D01*
X28357672Y-5455078D02*
X28357672Y-5242944D01*
X28145538Y-5242944D01*
X28145538Y-5455078D01*
X28357672Y-5455078D01*
X28399595Y-1578911D02*
X28399595Y-1366777D01*
X28187461Y-1366777D01*
X28187461Y-1578911D01*
X28399595Y-1578911D01*
X28425578Y102140D02*
X28425578Y314274D01*
X28213444Y314274D01*
X28213444Y102140D01*
X28425578Y102140D01*
X28453965Y-7372487D02*
X28453965Y-7160353D01*
X28241831Y-7160353D01*
X28241831Y-7372487D01*
X28453965Y-7372487D01*
X29006824Y462547D02*
X29006824Y674682D01*
X28794690Y674682D01*
X28794690Y462547D01*
X29006824Y462547D01*
X29087178Y-3649978D02*
X29087178Y-3437844D01*
X28875044Y-3437844D01*
X28875044Y-3649978D01*
X29087178Y-3649978D01*
X29652485Y-5484687D02*
X29652485Y-5272553D01*
X29440351Y-5272553D01*
X29440351Y-5484687D01*
X29652485Y-5484687D01*
X29668424Y-3289570D02*
X29668424Y-3077436D01*
X29456290Y-3077436D01*
X29456290Y-3289570D01*
X29668424Y-3289570D01*
X30233731Y-5124279D02*
X30233731Y-4912145D01*
X30021597Y-4912145D01*
X30021597Y-5124279D01*
X30233731Y-5124279D01*
X30607022Y147933D02*
X30607022Y360067D01*
X30394888Y360067D01*
X30394888Y147933D01*
X30607022Y147933D01*
X31242022Y401933D02*
X31242022Y614067D01*
X31029888Y614067D01*
X31029888Y401933D01*
X31242022Y401933D01*
X31321397Y-7472067D02*
X31321397Y-7259933D01*
X31109263Y-7259933D01*
X31109263Y-7472067D01*
X31321397Y-7472067D01*
X31559522Y-1757067D02*
X31559522Y-1544933D01*
X31347388Y-1544933D01*
X31347388Y-1757067D01*
X31559522Y-1757067D01*
X31956397Y-7218067D02*
X31956397Y-7005933D01*
X31744263Y-7005933D01*
X31744263Y-7218067D01*
X31956397Y-7218067D01*
X32035772Y-3662067D02*
X32035772Y-3449933D01*
X31823638Y-3449933D01*
X31823638Y-3662067D01*
X32035772Y-3662067D01*
X32194522Y-1503067D02*
X32194522Y-1290933D01*
X31982388Y-1290933D01*
X31982388Y-1503067D01*
X32194522Y-1503067D01*
X32512022Y147933D02*
X32512022Y360067D01*
X32299888Y360067D01*
X32299888Y147933D01*
X32512022Y147933D01*
X32670772Y-3408067D02*
X32670772Y-3195933D01*
X32458638Y-3195933D01*
X32458638Y-3408067D01*
X32670772Y-3408067D01*
X32988272Y-5567067D02*
X32988272Y-5354933D01*
X32776138Y-5354933D01*
X32776138Y-5567067D01*
X32988272Y-5567067D01*
X33147022Y401933D02*
X33147022Y614067D01*
X32934888Y614067D01*
X32934888Y401933D01*
X33147022Y401933D01*
X33464522Y-1757067D02*
X33464522Y-1544933D01*
X33252388Y-1544933D01*
X33252388Y-1757067D01*
X33464522Y-1757067D01*
X33623272Y-5313067D02*
X33623272Y-5100933D01*
X33411138Y-5100933D01*
X33411138Y-5313067D01*
X33623272Y-5313067D01*
X33702647Y-7472067D02*
X33702647Y-7259933D01*
X33490513Y-7259933D01*
X33490513Y-7472067D01*
X33702647Y-7472067D01*
X33940772Y-3662067D02*
X33940772Y-3449933D01*
X33728638Y-3449933D01*
X33728638Y-3662067D01*
X33940772Y-3662067D01*
X34099522Y-1503067D02*
X34099522Y-1290933D01*
X33887388Y-1290933D01*
X33887388Y-1503067D01*
X34099522Y-1503067D01*
X34337647Y-7218067D02*
X34337647Y-7005933D01*
X34125513Y-7005933D01*
X34125513Y-7218067D01*
X34337647Y-7218067D01*
X34417022Y147933D02*
X34417022Y360067D01*
X34204888Y360067D01*
X34204888Y147933D01*
X34417022Y147933D01*
X34575772Y-3408067D02*
X34575772Y-3195933D01*
X34363638Y-3195933D01*
X34363638Y-3408067D01*
X34575772Y-3408067D01*
X35052022Y401933D02*
X35052022Y614067D01*
X34839888Y614067D01*
X34839888Y401933D01*
X35052022Y401933D01*
X35369522Y-1757067D02*
X35369522Y-1544933D01*
X35157388Y-1544933D01*
X35157388Y-1757067D01*
X35369522Y-1757067D01*
X35607647Y-5567067D02*
X35607647Y-5354933D01*
X35395513Y-5354933D01*
X35395513Y-5567067D01*
X35607647Y-5567067D01*
X36004522Y-1503067D02*
X36004522Y-1290933D01*
X35792388Y-1290933D01*
X35792388Y-1503067D01*
X36004522Y-1503067D01*
X36083897Y-7472067D02*
X36083897Y-7259933D01*
X35871763Y-7259933D01*
X35871763Y-7472067D01*
X36083897Y-7472067D01*
X36242647Y-5313067D02*
X36242647Y-5100933D01*
X36030513Y-5100933D01*
X36030513Y-5313067D01*
X36242647Y-5313067D01*
X36718897Y-7218067D02*
X36718897Y-7005933D01*
X36506763Y-7005933D01*
X36506763Y-7218067D01*
X36718897Y-7218067D01*
X37036397Y-3662067D02*
X37036397Y-3449933D01*
X36824263Y-3449933D01*
X36824263Y-3662067D01*
X37036397Y-3662067D01*
X37274522Y147933D02*
X37274522Y360067D01*
X37062388Y360067D01*
X37062388Y147933D01*
X37274522Y147933D01*
X37671397Y-3408067D02*
X37671397Y-3195933D01*
X37459263Y-3195933D01*
X37459263Y-3408067D01*
X37671397Y-3408067D01*
X37750772Y-1757067D02*
X37750772Y-1544933D01*
X37538638Y-1544933D01*
X37538638Y-1757067D01*
X37750772Y-1757067D01*
X37909522Y401933D02*
X37909522Y614067D01*
X37697388Y614067D01*
X37697388Y401933D01*
X37909522Y401933D01*
X38227022Y-5567067D02*
X38227022Y-5354933D01*
X38014888Y-5354933D01*
X38014888Y-5567067D01*
X38227022Y-5567067D01*
X38227022Y-7472067D02*
X38227022Y-7259933D01*
X38014888Y-7259933D01*
X38014888Y-7472067D01*
X38227022Y-7472067D01*
X38385772Y-1503067D02*
X38385772Y-1290933D01*
X38173638Y-1290933D01*
X38173638Y-1503067D01*
X38385772Y-1503067D01*
X38862022Y-5313067D02*
X38862022Y-5100933D01*
X38649888Y-5100933D01*
X38649888Y-5313067D01*
X38862022Y-5313067D01*
X38862022Y-7218067D02*
X38862022Y-7005933D01*
X38649888Y-7005933D01*
X38649888Y-7218067D01*
X38862022Y-7218067D01*
X40132022Y-5567067D02*
X40132022Y-5354933D01*
X39919888Y-5354933D01*
X39919888Y-5567067D01*
X40132022Y-5567067D01*
X40132022Y-7472067D02*
X40132022Y-7259933D01*
X39919888Y-7259933D01*
X39919888Y-7472067D01*
X40132022Y-7472067D01*
X40767022Y-5313067D02*
X40767022Y-5100933D01*
X40554888Y-5100933D01*
X40554888Y-5313067D01*
X40767022Y-5313067D01*
X40767022Y-7218067D02*
X40767022Y-7005933D01*
X40554888Y-7005933D01*
X40554888Y-7218067D01*
X40767022Y-7218067D01*
X42037022Y147933D02*
X42037022Y360067D01*
X41824888Y360067D01*
X41824888Y147933D01*
X42037022Y147933D01*
X42037022Y-1757067D02*
X42037022Y-1544933D01*
X41824888Y-1544933D01*
X41824888Y-1757067D01*
X42037022Y-1757067D01*
X42037022Y-3662067D02*
X42037022Y-3449933D01*
X41824888Y-3449933D01*
X41824888Y-3662067D01*
X42037022Y-3662067D01*
X42037022Y-7472067D02*
X42037022Y-7259933D01*
X41824888Y-7259933D01*
X41824888Y-7472067D01*
X42037022Y-7472067D01*
X42672022Y401933D02*
X42672022Y614067D01*
X42459888Y614067D01*
X42459888Y401933D01*
X42672022Y401933D01*
X42672022Y-1503067D02*
X42672022Y-1290933D01*
X42459888Y-1290933D01*
X42459888Y-1503067D01*
X42672022Y-1503067D01*
X42672022Y-3408067D02*
X42672022Y-3195933D01*
X42459888Y-3195933D01*
X42459888Y-3408067D01*
X42672022Y-3408067D01*
X42672022Y-7218067D02*
X42672022Y-7005933D01*
X42459888Y-7005933D01*
X42459888Y-7218067D01*
X42672022Y-7218067D01*
X-241300Y-8470900D02*
X-88900Y-8318500D01*
X-241300Y-8166100D01*
X-393700Y-8318500D01*
X-241300Y-8470900D01*
X2146300Y-8470900D02*
X2298700Y-8318500D01*
X2146300Y-8166100D01*
X1993900Y-8318500D01*
X2146300Y-8470900D01*
X5016500Y-1816100D02*
X5168900Y-1663700D01*
X5016500Y-1511300D01*
X4864100Y-1663700D01*
X5016500Y-1816100D01*
X5016500Y-4203700D02*
X5168900Y-4051300D01*
X5016500Y-3898900D01*
X4864100Y-4051300D01*
X5016500Y-4203700D01*
X5016500Y-5626100D02*
X5168900Y-5473700D01*
X5016500Y-5321300D01*
X4864100Y-5473700D01*
X5016500Y-5626100D01*
X5016500Y-8013700D02*
X5168900Y-7861300D01*
X5016500Y-7708900D01*
X4864100Y-7861300D01*
X5016500Y-8013700D01*
X8093075Y-5168900D02*
X8245475Y-5016500D01*
X8093075Y-4864100D01*
X7940675Y-5016500D01*
X8093075Y-5168900D01*
X10480675Y-5168900D02*
X10633075Y-5016500D01*
X10480675Y-4864100D01*
X10328275Y-5016500D01*
X10480675Y-5168900D01*
X16107422Y-8981346D02*
X16259822Y-8828946D01*
X16107422Y-8676546D01*
X15955022Y-8828946D01*
X16107422Y-8981346D01*
X18458749Y-9395948D02*
X18611149Y-9243548D01*
X18458749Y-9091148D01*
X18306349Y-9243548D01*
X18458749Y-9395948D01*
X23379482Y-9519998D02*
X23531882Y-9367598D01*
X23379482Y-9215198D01*
X23227082Y-9367598D01*
X23379482Y-9519998D01*
X25730809Y-9105396D02*
X25883209Y-8952996D01*
X25730809Y-8800596D01*
X25578409Y-8952996D01*
X25730809Y-9105396D01*
X36117530Y-3263900D02*
X36269930Y-3111500D01*
X36117530Y-2959100D01*
X35965130Y-3111500D01*
X36117530Y-3263900D01*
X36355655Y546100D02*
X36508055Y698500D01*
X36355655Y850900D01*
X36203255Y698500D01*
X36355655Y546100D01*
X38505130Y-3263900D02*
X38657530Y-3111500D01*
X38505130Y-2959100D01*
X38352730Y-3111500D01*
X38505130Y-3263900D01*
X38743255Y546100D02*
X38895655Y698500D01*
X38743255Y850900D01*
X38590855Y698500D01*
X38743255Y546100D01*
X-440690Y-6595110D02*
X-41910Y-6993890D01*
X-41910Y-6595110D02*
X-440690Y-6993890D01*
X-41910Y-6794500D02*
G75*
G03*
X-41910Y-6794500I-199390J0D01*
G01*
X-199390Y199390D02*
X199390Y-199390D01*
X199390Y199390D02*
X-199390Y-199390D01*
X199390Y0D02*
G75*
G03*
X199390Y0I-199390J0D01*
G01*
X-199390Y-1705610D02*
X199390Y-2104390D01*
X199390Y-1705610D02*
X-199390Y-2104390D01*
X199390Y-1905000D02*
G75*
G03*
X199390Y-1905000I-199390J0D01*
G01*
X-199390Y-3610610D02*
X199390Y-4009390D01*
X199390Y-3610610D02*
X-199390Y-4009390D01*
X199390Y-3810000D02*
G75*
G03*
X199390Y-3810000I-199390J0D01*
G01*
X-199390Y-5515610D02*
X199390Y-5914390D01*
X199390Y-5515610D02*
X-199390Y-5914390D01*
X199390Y-5715000D02*
G75*
G03*
X199390Y-5715000I-199390J0D01*
G01*
X-199390Y-7420610D02*
X199390Y-7819390D01*
X199390Y-7420610D02*
X-199390Y-7819390D01*
X199390Y-7620000D02*
G75*
G03*
X199390Y-7620000I-199390J0D01*
G01*
X753110Y-7420610D02*
X1151890Y-7819390D01*
X1151890Y-7420610D02*
X753110Y-7819390D01*
X1151890Y-7620000D02*
G75*
G03*
X1151890Y-7620000I-199390J0D01*
G01*
X1705610Y199390D02*
X2104390Y-199390D01*
X2104390Y199390D02*
X1705610Y-199390D01*
X2104390Y0D02*
G75*
G03*
X2104390Y0I-199390J0D01*
G01*
X1705610Y-1705610D02*
X2104390Y-2104390D01*
X2104390Y-1705610D02*
X1705610Y-2104390D01*
X2104390Y-1905000D02*
G75*
G03*
X2104390Y-1905000I-199390J0D01*
G01*
X1705610Y-3610610D02*
X2104390Y-4009390D01*
X2104390Y-3610610D02*
X1705610Y-4009390D01*
X2104390Y-3810000D02*
G75*
G03*
X2104390Y-3810000I-199390J0D01*
G01*
X1705610Y-5515610D02*
X2104390Y-5914390D01*
X2104390Y-5515610D02*
X1705610Y-5914390D01*
X2104390Y-5715000D02*
G75*
G03*
X2104390Y-5715000I-199390J0D01*
G01*
X1705610Y-7420610D02*
X2104390Y-7819390D01*
X2104390Y-7420610D02*
X1705610Y-7819390D01*
X2104390Y-7620000D02*
G75*
G03*
X2104390Y-7620000I-199390J0D01*
G01*
X1946910Y-6595110D02*
X2345690Y-6993890D01*
X2345690Y-6595110D02*
X1946910Y-6993890D01*
X2345690Y-6794500D02*
G75*
G03*
X2345690Y-6794500I-199390J0D01*
G01*
X3610610Y199390D02*
X4009390Y-199390D01*
X4009390Y199390D02*
X3610610Y-199390D01*
X4009390Y0D02*
G75*
G03*
X4009390Y0I-199390J0D01*
G01*
X3610610Y-1705610D02*
X4009390Y-2104390D01*
X4009390Y-1705610D02*
X3610610Y-2104390D01*
X4009390Y-1905000D02*
G75*
G03*
X4009390Y-1905000I-199390J0D01*
G01*
X3610610Y-3610610D02*
X4009390Y-4009390D01*
X4009390Y-3610610D02*
X3610610Y-4009390D01*
X4009390Y-3810000D02*
G75*
G03*
X4009390Y-3810000I-199390J0D01*
G01*
X3610610Y-5515610D02*
X4009390Y-5914390D01*
X4009390Y-5515610D02*
X3610610Y-5914390D01*
X4009390Y-5715000D02*
G75*
G03*
X4009390Y-5715000I-199390J0D01*
G01*
X3610610Y-7420610D02*
X4009390Y-7819390D01*
X4009390Y-7420610D02*
X3610610Y-7819390D01*
X4009390Y-7620000D02*
G75*
G03*
X4009390Y-7620000I-199390J0D01*
G01*
X5515610Y199390D02*
X5914390Y-199390D01*
X5914390Y199390D02*
X5515610Y-199390D01*
X5914390Y0D02*
G75*
G03*
X5914390Y0I-199390J0D01*
G01*
X5515610Y-2658110D02*
X5914390Y-3056890D01*
X5914390Y-2658110D02*
X5515610Y-3056890D01*
X5914390Y-2857500D02*
G75*
G03*
X5914390Y-2857500I-199390J0D01*
G01*
X5515610Y-6468110D02*
X5914390Y-6866890D01*
X5914390Y-6468110D02*
X5515610Y-6866890D01*
X5914390Y-6667500D02*
G75*
G03*
X5914390Y-6667500I-199390J0D01*
G01*
X6341110Y-1464310D02*
X6739890Y-1863090D01*
X6739890Y-1464310D02*
X6341110Y-1863090D01*
X6739890Y-1663700D02*
G75*
G03*
X6739890Y-1663700I-199390J0D01*
G01*
X6341110Y-3851910D02*
X6739890Y-4250690D01*
X6739890Y-3851910D02*
X6341110Y-4250690D01*
X6739890Y-4051300D02*
G75*
G03*
X6739890Y-4051300I-199390J0D01*
G01*
X6341110Y-5274310D02*
X6739890Y-5673090D01*
X6739890Y-5274310D02*
X6341110Y-5673090D01*
X6739890Y-5473700D02*
G75*
G03*
X6739890Y-5473700I-199390J0D01*
G01*
X6341110Y-7661910D02*
X6739890Y-8060690D01*
X6739890Y-7661910D02*
X6341110Y-8060690D01*
X6739890Y-7861300D02*
G75*
G03*
X6739890Y-7861300I-199390J0D01*
G01*
X7893685Y-6341110D02*
X8292465Y-6739890D01*
X8292465Y-6341110D02*
X7893685Y-6739890D01*
X8292465Y-6540500D02*
G75*
G03*
X8292465Y-6540500I-199390J0D01*
G01*
X7896860Y199390D02*
X8295640Y-199390D01*
X8295640Y199390D02*
X7896860Y-199390D01*
X8295640Y0D02*
G75*
G03*
X8295640Y0I-199390J0D01*
G01*
X8134985Y-7420610D02*
X8533765Y-7819390D01*
X8533765Y-7420610D02*
X8134985Y-7819390D01*
X8533765Y-7620000D02*
G75*
G03*
X8533765Y-7620000I-199390J0D01*
G01*
X8373110Y-1705610D02*
X8771890Y-2104390D01*
X8771890Y-1705610D02*
X8373110Y-2104390D01*
X8771890Y-1905000D02*
G75*
G03*
X8771890Y-1905000I-199390J0D01*
G01*
X8611235Y-3610610D02*
X9010015Y-4009390D01*
X9010015Y-3610610D02*
X8611235Y-4009390D01*
X9010015Y-3810000D02*
G75*
G03*
X9010015Y-3810000I-199390J0D01*
G01*
X9087485Y-5515610D02*
X9486265Y-5914390D01*
X9486265Y-5515610D02*
X9087485Y-5914390D01*
X9486265Y-5715000D02*
G75*
G03*
X9486265Y-5715000I-199390J0D01*
G01*
X9801860Y199390D02*
X10200640Y-199390D01*
X10200640Y199390D02*
X9801860Y-199390D01*
X10200640Y0D02*
G75*
G03*
X10200640Y0I-199390J0D01*
G01*
X10281285Y-6341110D02*
X10680065Y-6739890D01*
X10680065Y-6341110D02*
X10281285Y-6739890D01*
X10680065Y-6540500D02*
G75*
G03*
X10680065Y-6540500I-199390J0D01*
G01*
X10516235Y-7420610D02*
X10915015Y-7819390D01*
X10915015Y-7420610D02*
X10516235Y-7819390D01*
X10915015Y-7620000D02*
G75*
G03*
X10915015Y-7620000I-199390J0D01*
G01*
X10754360Y-1705610D02*
X11153140Y-2104390D01*
X11153140Y-1705610D02*
X10754360Y-2104390D01*
X11153140Y-1905000D02*
G75*
G03*
X11153140Y-1905000I-199390J0D01*
G01*
X11230610Y-3610610D02*
X11629390Y-4009390D01*
X11629390Y-3610610D02*
X11230610Y-4009390D01*
X11629390Y-3810000D02*
G75*
G03*
X11629390Y-3810000I-199390J0D01*
G01*
X11706860Y485140D02*
X12105640Y86360D01*
X12105640Y485140D02*
X11706860Y86360D01*
X12105640Y285750D02*
G75*
G03*
X12105640Y285750I-199390J0D01*
G01*
X12183110Y-5515610D02*
X12581890Y-5914390D01*
X12581890Y-5515610D02*
X12183110Y-5914390D01*
X12581890Y-5715000D02*
G75*
G03*
X12581890Y-5715000I-199390J0D01*
G01*
X12944423Y-1594553D02*
X13343203Y-1993333D01*
X13343203Y-1594553D02*
X12944423Y-1993333D01*
X13343203Y-1793943D02*
G75*
G03*
X13343203Y-1793943I-199390J0D01*
G01*
X13317145Y-3594662D02*
X13715925Y-3993442D01*
X13715925Y-3594662D02*
X13317145Y-3993442D01*
X13715925Y-3794052D02*
G75*
G03*
X13715925Y-3794052I-199390J0D01*
G01*
X13744237Y198805D02*
X14143017Y-199975D01*
X14143017Y198805D02*
X13744237Y-199975D01*
X14143017Y-585D02*
G75*
G03*
X14143017Y-585I-199390J0D01*
G01*
X13911962Y-7626351D02*
X14310742Y-8025131D01*
X14310742Y-7626351D02*
X13911962Y-8025131D01*
X14310742Y-7825741D02*
G75*
G03*
X14310742Y-7825741I-199390J0D01*
G01*
X14252685Y-5694010D02*
X14651465Y-6092790D01*
X14651465Y-5694010D02*
X14252685Y-6092790D01*
X14651465Y-5893400D02*
G75*
G03*
X14651465Y-5893400I-199390J0D01*
G01*
X14820482Y-1925353D02*
X15219262Y-2324133D01*
X15219262Y-1925353D02*
X14820482Y-2324133D01*
X15219262Y-2124743D02*
G75*
G03*
X15219262Y-2124743I-199390J0D01*
G01*
X15193204Y-3925462D02*
X15591984Y-4324242D01*
X15591984Y-3925462D02*
X15193204Y-4324242D01*
X15591984Y-4124852D02*
G75*
G03*
X15591984Y-4124852I-199390J0D01*
G01*
X15620296Y-131994D02*
X16019076Y-530774D01*
X16019076Y-131994D02*
X15620296Y-530774D01*
X16019076Y-331384D02*
G75*
G03*
X16019076Y-331384I-199390J0D01*
G01*
X16128744Y-6024810D02*
X16527524Y-6423590D01*
X16527524Y-6024810D02*
X16128744Y-6423590D01*
X16527524Y-6224200D02*
G75*
G03*
X16527524Y-6224200I-199390J0D01*
G01*
X16172671Y-7128709D02*
X16571451Y-7527489D01*
X16571451Y-7128709D02*
X16172671Y-7527489D01*
X16571451Y-7328099D02*
G75*
G03*
X16571451Y-7328099I-199390J0D01*
G01*
X16696540Y-2256153D02*
X17095321Y-2654933D01*
X17095321Y-2256153D02*
X16696540Y-2654933D01*
X17095321Y-2455543D02*
G75*
G03*
X17095321Y-2455543I-199390J0D01*
G01*
X17069263Y-4256261D02*
X17468043Y-4655041D01*
X17468043Y-4256261D02*
X17069263Y-4655041D01*
X17468043Y-4455651D02*
G75*
G03*
X17468043Y-4455651I-199390J0D01*
G01*
X17204988Y-8148969D02*
X17603768Y-8547749D01*
X17603768Y-8148969D02*
X17204988Y-8547749D01*
X17603768Y-8348359D02*
G75*
G03*
X17603768Y-8348359I-199390J0D01*
G01*
X17496355Y-462794D02*
X17895135Y-861574D01*
X17895135Y-462794D02*
X17496355Y-861574D01*
X17895135Y-662184D02*
G75*
G03*
X17895135Y-662184I-199390J0D01*
G01*
X18004803Y-6355610D02*
X18403583Y-6754390D01*
X18403583Y-6355610D02*
X18004803Y-6754390D01*
X18403583Y-6555000D02*
G75*
G03*
X18403583Y-6555000I-199390J0D01*
G01*
X18523999Y-7543311D02*
X18922779Y-7942091D01*
X18922779Y-7543311D02*
X18523999Y-7942091D01*
X18922779Y-7742701D02*
G75*
G03*
X18922779Y-7742701I-199390J0D01*
G01*
X18572599Y-2586953D02*
X18971379Y-2985732D01*
X18971379Y-2586953D02*
X18572599Y-2985732D01*
X18971379Y-2786343D02*
G75*
G03*
X18971379Y-2786343I-199390J0D01*
G01*
X18945322Y-4587061D02*
X19344102Y-4985841D01*
X19344102Y-4587061D02*
X18945322Y-4985841D01*
X19344102Y-4786451D02*
G75*
G03*
X19344102Y-4786451I-199390J0D01*
G01*
X19372414Y-793594D02*
X19771194Y-1192374D01*
X19771194Y-793594D02*
X19372414Y-1192374D01*
X19771194Y-992984D02*
G75*
G03*
X19771194Y-992984I-199390J0D01*
G01*
X19880861Y-6686409D02*
X20279641Y-7085189D01*
X20279641Y-6686409D02*
X19880861Y-7085189D01*
X20279641Y-6885799D02*
G75*
G03*
X20279641Y-6885799I-199390J0D01*
G01*
X20253584Y-8686518D02*
X20652364Y-9085298D01*
X20652364Y-8686518D02*
X20253584Y-9085298D01*
X20652364Y-8885908D02*
G75*
G03*
X20652364Y-8885908I-199390J0D01*
G01*
X22262111Y-6686409D02*
X22660891Y-7085189D01*
X22660891Y-6686409D02*
X22262111Y-7085189D01*
X22660891Y-6885799D02*
G75*
G03*
X22660891Y-6885799I-199390J0D01*
G01*
X22304034Y-2810242D02*
X22702814Y-3209022D01*
X22702814Y-2810242D02*
X22304034Y-3209022D01*
X22702814Y-3009632D02*
G75*
G03*
X22702814Y-3009632I-199390J0D01*
G01*
X22911263Y-768784D02*
X23310043Y-1167564D01*
X23310043Y-768784D02*
X22911263Y-1167564D01*
X23310043Y-968174D02*
G75*
G03*
X23310043Y-968174I-199390J0D01*
G01*
X22915452Y-7667361D02*
X23314232Y-8066141D01*
X23314232Y-7667361D02*
X22915452Y-8066141D01*
X23314232Y-7866751D02*
G75*
G03*
X23314232Y-7866751I-199390J0D01*
G01*
X23572863Y-4520901D02*
X23971643Y-4919681D01*
X23971643Y-4520901D02*
X23572863Y-4919681D01*
X23971643Y-4720291D02*
G75*
G03*
X23971643Y-4720291I-199390J0D01*
G01*
X24138170Y-6355610D02*
X24536950Y-6754390D01*
X24536950Y-6355610D02*
X24138170Y-6754390D01*
X24536950Y-6555000D02*
G75*
G03*
X24536950Y-6555000I-199390J0D01*
G01*
X24180092Y-2479443D02*
X24578872Y-2878222D01*
X24578872Y-2479443D02*
X24180092Y-2878222D01*
X24578872Y-2678833D02*
G75*
G03*
X24578872Y-2678833I-199390J0D01*
G01*
X24234462Y-8273018D02*
X24633242Y-8671799D01*
X24633242Y-8273018D02*
X24234462Y-8671799D01*
X24633242Y-8472409D02*
G75*
G03*
X24633242Y-8472409I-199390J0D01*
G01*
X24787322Y-437984D02*
X25186102Y-836764D01*
X25186102Y-437984D02*
X24787322Y-836764D01*
X25186102Y-637374D02*
G75*
G03*
X25186102Y-637374I-199390J0D01*
G01*
X25266779Y-7252758D02*
X25665559Y-7651538D01*
X25665559Y-7252758D02*
X25266779Y-7651538D01*
X25665559Y-7452148D02*
G75*
G03*
X25665559Y-7452148I-199390J0D01*
G01*
X25448922Y-4190101D02*
X25847702Y-4588881D01*
X25847702Y-4190101D02*
X25448922Y-4588881D01*
X25847702Y-4389491D02*
G75*
G03*
X25847702Y-4389491I-199390J0D01*
G01*
X26014229Y-6024810D02*
X26413009Y-6423590D01*
X26413009Y-6024810D02*
X26014229Y-6423590D01*
X26413009Y-6224200D02*
G75*
G03*
X26413009Y-6224200I-199390J0D01*
G01*
X26056151Y-2148643D02*
X26454931Y-2547423D01*
X26454931Y-2148643D02*
X26056151Y-2547423D01*
X26454931Y-2348033D02*
G75*
G03*
X26454931Y-2348033I-199390J0D01*
G01*
X26663381Y-107184D02*
X27062161Y-505964D01*
X27062161Y-107184D02*
X26663381Y-505964D01*
X27062161Y-306574D02*
G75*
G03*
X27062161Y-306574I-199390J0D01*
G01*
X27324980Y-3859302D02*
X27723760Y-4258082D01*
X27723760Y-3859302D02*
X27324980Y-4258082D01*
X27723760Y-4058692D02*
G75*
G03*
X27723760Y-4058692I-199390J0D01*
G01*
X27890287Y-5694010D02*
X28289067Y-6092790D01*
X28289067Y-5694010D02*
X27890287Y-6092790D01*
X28289067Y-5893400D02*
G75*
G03*
X28289067Y-5893400I-199390J0D01*
G01*
X27932210Y-1817843D02*
X28330990Y-2216623D01*
X28330990Y-1817843D02*
X27932210Y-2216623D01*
X28330990Y-2017233D02*
G75*
G03*
X28330990Y-2017233I-199390J0D01*
G01*
X27986580Y-7611419D02*
X28385360Y-8010199D01*
X28385360Y-7611419D02*
X27986580Y-8010199D01*
X28385360Y-7810809D02*
G75*
G03*
X28385360Y-7810809I-199390J0D01*
G01*
X28539440Y223615D02*
X28938220Y-175164D01*
X28938220Y223615D02*
X28539440Y-175164D01*
X28938220Y24225D02*
G75*
G03*
X28938220Y24225I-199390J0D01*
G01*
X29201039Y-3528502D02*
X29599819Y-3927282D01*
X29599819Y-3528502D02*
X29201039Y-3927282D01*
X29599819Y-3727892D02*
G75*
G03*
X29599819Y-3727892I-199390J0D01*
G01*
X29766346Y-5363211D02*
X30165126Y-5761991D01*
X30165126Y-5363211D02*
X29766346Y-5761991D01*
X30165126Y-5562601D02*
G75*
G03*
X30165126Y-5562601I-199390J0D01*
G01*
X30682565Y199390D02*
X31081345Y-199390D01*
X31081345Y199390D02*
X30682565Y-199390D01*
X31081345Y0D02*
G75*
G03*
X31081345Y0I-199390J0D01*
G01*
X31396940Y-7420610D02*
X31795720Y-7819390D01*
X31795720Y-7420610D02*
X31396940Y-7819390D01*
X31795720Y-7620000D02*
G75*
G03*
X31795720Y-7620000I-199390J0D01*
G01*
X31635065Y-1705610D02*
X32033845Y-2104390D01*
X32033845Y-1705610D02*
X31635065Y-2104390D01*
X32033845Y-1905000D02*
G75*
G03*
X32033845Y-1905000I-199390J0D01*
G01*
X32111315Y-3610610D02*
X32510095Y-4009390D01*
X32510095Y-3610610D02*
X32111315Y-4009390D01*
X32510095Y-3810000D02*
G75*
G03*
X32510095Y-3810000I-199390J0D01*
G01*
X32587565Y199390D02*
X32986345Y-199390D01*
X32986345Y199390D02*
X32587565Y-199390D01*
X32986345Y0D02*
G75*
G03*
X32986345Y0I-199390J0D01*
G01*
X33063815Y-5515610D02*
X33462595Y-5914390D01*
X33462595Y-5515610D02*
X33063815Y-5914390D01*
X33462595Y-5715000D02*
G75*
G03*
X33462595Y-5715000I-199390J0D01*
G01*
X33540065Y-1705610D02*
X33938845Y-2104390D01*
X33938845Y-1705610D02*
X33540065Y-2104390D01*
X33938845Y-1905000D02*
G75*
G03*
X33938845Y-1905000I-199390J0D01*
G01*
X33778190Y-7420610D02*
X34176970Y-7819390D01*
X34176970Y-7420610D02*
X33778190Y-7819390D01*
X34176970Y-7620000D02*
G75*
G03*
X34176970Y-7620000I-199390J0D01*
G01*
X34016315Y-3610610D02*
X34415095Y-4009390D01*
X34415095Y-3610610D02*
X34016315Y-4009390D01*
X34415095Y-3810000D02*
G75*
G03*
X34415095Y-3810000I-199390J0D01*
G01*
X34492565Y199390D02*
X34891345Y-199390D01*
X34891345Y199390D02*
X34492565Y-199390D01*
X34891345Y0D02*
G75*
G03*
X34891345Y0I-199390J0D01*
G01*
X35445065Y-1705610D02*
X35843845Y-2104390D01*
X35843845Y-1705610D02*
X35445065Y-2104390D01*
X35843845Y-1905000D02*
G75*
G03*
X35843845Y-1905000I-199390J0D01*
G01*
X35683190Y-5515610D02*
X36081970Y-5914390D01*
X36081970Y-5515610D02*
X35683190Y-5914390D01*
X36081970Y-5715000D02*
G75*
G03*
X36081970Y-5715000I-199390J0D01*
G01*
X35918140Y-4436110D02*
X36316920Y-4834890D01*
X36316920Y-4436110D02*
X35918140Y-4834890D01*
X36316920Y-4635500D02*
G75*
G03*
X36316920Y-4635500I-199390J0D01*
G01*
X36156265Y-626110D02*
X36555045Y-1024890D01*
X36555045Y-626110D02*
X36156265Y-1024890D01*
X36555045Y-825500D02*
G75*
G03*
X36555045Y-825500I-199390J0D01*
G01*
X36159440Y-7420610D02*
X36558220Y-7819390D01*
X36558220Y-7420610D02*
X36159440Y-7819390D01*
X36558220Y-7620000D02*
G75*
G03*
X36558220Y-7620000I-199390J0D01*
G01*
X37111940Y-3610610D02*
X37510720Y-4009390D01*
X37510720Y-3610610D02*
X37111940Y-4009390D01*
X37510720Y-3810000D02*
G75*
G03*
X37510720Y-3810000I-199390J0D01*
G01*
X37350065Y199390D02*
X37748845Y-199390D01*
X37748845Y199390D02*
X37350065Y-199390D01*
X37748845Y0D02*
G75*
G03*
X37748845Y0I-199390J0D01*
G01*
X37826315Y-1705610D02*
X38225095Y-2104390D01*
X38225095Y-1705610D02*
X37826315Y-2104390D01*
X38225095Y-1905000D02*
G75*
G03*
X38225095Y-1905000I-199390J0D01*
G01*
X38302565Y-5515610D02*
X38701345Y-5914390D01*
X38701345Y-5515610D02*
X38302565Y-5914390D01*
X38701345Y-5715000D02*
G75*
G03*
X38701345Y-5715000I-199390J0D01*
G01*
X38302565Y-7420610D02*
X38701345Y-7819390D01*
X38701345Y-7420610D02*
X38302565Y-7819390D01*
X38701345Y-7620000D02*
G75*
G03*
X38701345Y-7620000I-199390J0D01*
G01*
X38305740Y-4436110D02*
X38704520Y-4834890D01*
X38704520Y-4436110D02*
X38305740Y-4834890D01*
X38704520Y-4635500D02*
G75*
G03*
X38704520Y-4635500I-199390J0D01*
G01*
X38543865Y-626110D02*
X38942645Y-1024890D01*
X38942645Y-626110D02*
X38543865Y-1024890D01*
X38942645Y-825500D02*
G75*
G03*
X38942645Y-825500I-199390J0D01*
G01*
X40207565Y-5515610D02*
X40606345Y-5914390D01*
X40606345Y-5515610D02*
X40207565Y-5914390D01*
X40606345Y-5715000D02*
G75*
G03*
X40606345Y-5715000I-199390J0D01*
G01*
X40207565Y-7420610D02*
X40606345Y-7819390D01*
X40606345Y-7420610D02*
X40207565Y-7819390D01*
X40606345Y-7620000D02*
G75*
G03*
X40606345Y-7620000I-199390J0D01*
G01*
X42112565Y199390D02*
X42511345Y-199390D01*
X42511345Y199390D02*
X42112565Y-199390D01*
X42511345Y0D02*
G75*
G03*
X42511345Y0I-199390J0D01*
G01*
X42112565Y-1705610D02*
X42511345Y-2104390D01*
X42511345Y-1705610D02*
X42112565Y-2104390D01*
X42511345Y-1905000D02*
G75*
G03*
X42511345Y-1905000I-199390J0D01*
G01*
X42112565Y-3610610D02*
X42511345Y-4009390D01*
X42511345Y-3610610D02*
X42112565Y-4009390D01*
X42511345Y-3810000D02*
G75*
G03*
X42511345Y-3810000I-199390J0D01*
G01*
X42112565Y-7420610D02*
X42511345Y-7819390D01*
X42511345Y-7420610D02*
X42112565Y-7819390D01*
X42511345Y-7620000D02*
G75*
G03*
X42511345Y-7620000I-199390J0D01*
G01*
D12*
X-669072Y-10496214D02*
X-669072Y-10196214D01*
X-597643Y-10196214D01*
X-554786Y-10210500D01*
X-526214Y-10239072D01*
X-511929Y-10267643D01*
X-497643Y-10324786D01*
X-497643Y-10367643D01*
X-511929Y-10424786D01*
X-526214Y-10453357D01*
X-554786Y-10481929D01*
X-597643Y-10496214D01*
X-669072Y-10496214D01*
X-369071Y-10496214D02*
X-369071Y-10296214D01*
X-369071Y-10353357D02*
X-354786Y-10324786D01*
X-340500Y-10310500D01*
X-311929Y-10296214D01*
X-283357Y-10296214D01*
X-183357Y-10496214D02*
X-183357Y-10296214D01*
X-183357Y-10196214D02*
X-197643Y-10210500D01*
X-183357Y-10224786D01*
X-169072Y-10210500D01*
X-183357Y-10196214D01*
X-183357Y-10224786D01*
X2357Y-10496214D02*
X-26214Y-10481929D01*
X-40500Y-10453357D01*
X-40500Y-10196214D01*
X159500Y-10496214D02*
X130928Y-10481929D01*
X116643Y-10453357D01*
X116643Y-10196214D01*
X502357Y-10496214D02*
X502357Y-10196214D01*
X602357Y-10410500D01*
X702357Y-10196214D01*
X702357Y-10496214D01*
X973786Y-10496214D02*
X973786Y-10339072D01*
X959500Y-10310500D01*
X930928Y-10296214D01*
X873786Y-10296214D01*
X845214Y-10310500D01*
X973786Y-10481929D02*
X945214Y-10496214D01*
X873786Y-10496214D01*
X845214Y-10481929D01*
X830928Y-10453357D01*
X830928Y-10424786D01*
X845214Y-10396214D01*
X873786Y-10381929D01*
X945214Y-10381929D01*
X973786Y-10367643D01*
X1116643Y-10296214D02*
X1116643Y-10596214D01*
X1116643Y-10310500D02*
X1145214Y-10296214D01*
X1202357Y-10296214D01*
X1230928Y-10310500D01*
X1245214Y-10324786D01*
X1259500Y-10353357D01*
X1259500Y-10439072D01*
X1245214Y-10467643D01*
X1230928Y-10481929D01*
X1202357Y-10496214D01*
X1145214Y-10496214D01*
X1116643Y-10481929D01*
X1388071Y-10467643D02*
X1402357Y-10481929D01*
X1388071Y-10496214D01*
X1373786Y-10481929D01*
X1388071Y-10467643D01*
X1388071Y-10496214D01*
X1388071Y-10310500D02*
X1402357Y-10324786D01*
X1388071Y-10339072D01*
X1373786Y-10324786D01*
X1388071Y-10310500D01*
X1388071Y-10339072D01*
X-995500Y-10970500D02*
X-955500Y-11010500D01*
X-955500Y-10970500D02*
X-995500Y-11010500D01*
X-611929Y-10826214D02*
X-583357Y-10826214D01*
X-554786Y-10840500D01*
X-540500Y-10854786D01*
X-526214Y-10883357D01*
X-511929Y-10940500D01*
X-511929Y-11011929D01*
X-526214Y-11069072D01*
X-540500Y-11097643D01*
X-554786Y-11111929D01*
X-583357Y-11126214D01*
X-611929Y-11126214D01*
X-640500Y-11111929D01*
X-654786Y-11097643D01*
X-669072Y-11069072D01*
X-683357Y-11011929D01*
X-683357Y-10940500D01*
X-669072Y-10883357D01*
X-654786Y-10854786D01*
X-640500Y-10840500D01*
X-611929Y-10826214D01*
X-383357Y-11097643D02*
X-369071Y-11111929D01*
X-383357Y-11126214D01*
X-397643Y-11111929D01*
X-383357Y-11097643D01*
X-383357Y-11126214D01*
X-111929Y-10926214D02*
X-111929Y-11126214D01*
X-183357Y-10811929D02*
X-254786Y-11026214D01*
X-69072Y-11026214D01*
X102357Y-10826214D02*
X130928Y-10826214D01*
X159500Y-10840500D01*
X173786Y-10854786D01*
X188071Y-10883357D01*
X202357Y-10940500D01*
X202357Y-11011929D01*
X188071Y-11069072D01*
X173786Y-11097643D01*
X159500Y-11111929D01*
X130928Y-11126214D01*
X102357Y-11126214D01*
X73786Y-11111929D01*
X59500Y-11097643D01*
X45214Y-11069072D01*
X30928Y-11011929D01*
X30928Y-10940500D01*
X45214Y-10883357D01*
X59500Y-10854786D01*
X73786Y-10840500D01*
X102357Y-10826214D01*
X388071Y-10826214D02*
X416643Y-10826214D01*
X445214Y-10840500D01*
X459500Y-10854786D01*
X473786Y-10883357D01*
X488071Y-10940500D01*
X488071Y-11011929D01*
X473786Y-11069072D01*
X459500Y-11097643D01*
X445214Y-11111929D01*
X416643Y-11126214D01*
X388071Y-11126214D01*
X359500Y-11111929D01*
X345214Y-11097643D01*
X330928Y-11069072D01*
X316643Y-11011929D01*
X316643Y-10940500D01*
X330928Y-10883357D01*
X345214Y-10854786D01*
X359500Y-10840500D01*
X388071Y-10826214D01*
X616643Y-11126214D02*
X616643Y-10926214D01*
X616643Y-10954786D02*
X630928Y-10940500D01*
X659500Y-10926214D01*
X702357Y-10926214D01*
X730928Y-10940500D01*
X745214Y-10969072D01*
X745214Y-11126214D01*
X745214Y-10969072D02*
X759500Y-10940500D01*
X788071Y-10926214D01*
X830928Y-10926214D01*
X859500Y-10940500D01*
X873786Y-10969072D01*
X873786Y-11126214D01*
X1016643Y-11126214D02*
X1016643Y-10926214D01*
X1016643Y-10954786D02*
X1030928Y-10940500D01*
X1059500Y-10926214D01*
X1102357Y-10926214D01*
X1130928Y-10940500D01*
X1145214Y-10969072D01*
X1145214Y-11126214D01*
X1145214Y-10969072D02*
X1159500Y-10940500D01*
X1188071Y-10926214D01*
X1230928Y-10926214D01*
X1259500Y-10940500D01*
X1273786Y-10969072D01*
X1273786Y-11126214D01*
X1859500Y-10811929D02*
X1602357Y-11197643D01*
X2245214Y-10826214D02*
X2273786Y-10826214D01*
X2302357Y-10840500D01*
X2316643Y-10854786D01*
X2330928Y-10883357D01*
X2345214Y-10940500D01*
X2345214Y-11011929D01*
X2330928Y-11069072D01*
X2316643Y-11097643D01*
X2302357Y-11111929D01*
X2273786Y-11126214D01*
X2245214Y-11126214D01*
X2216643Y-11111929D01*
X2202357Y-11097643D01*
X2188071Y-11069072D01*
X2173786Y-11011929D01*
X2173786Y-10940500D01*
X2188071Y-10883357D01*
X2202357Y-10854786D01*
X2216643Y-10840500D01*
X2245214Y-10826214D01*
X2473786Y-11097643D02*
X2488071Y-11111929D01*
X2473786Y-11126214D01*
X2459500Y-11111929D01*
X2473786Y-11097643D01*
X2473786Y-11126214D01*
X2673786Y-10826214D02*
X2702357Y-10826214D01*
X2730928Y-10840500D01*
X2745214Y-10854786D01*
X2759500Y-10883357D01*
X2773786Y-10940500D01*
X2773786Y-11011929D01*
X2759500Y-11069072D01*
X2745214Y-11097643D01*
X2730928Y-11111929D01*
X2702357Y-11126214D01*
X2673786Y-11126214D01*
X2645214Y-11111929D01*
X2630928Y-11097643D01*
X2616643Y-11069072D01*
X2602357Y-11011929D01*
X2602357Y-10940500D01*
X2616643Y-10883357D01*
X2630928Y-10854786D01*
X2645214Y-10840500D01*
X2673786Y-10826214D01*
X3059500Y-11126214D02*
X2888071Y-11126214D01*
X2973786Y-11126214D02*
X2973786Y-10826214D01*
X2945214Y-10869072D01*
X2916643Y-10897643D01*
X2888071Y-10911929D01*
X3330928Y-10826214D02*
X3188071Y-10826214D01*
X3173786Y-10969072D01*
X3188071Y-10954786D01*
X3216643Y-10940500D01*
X3288071Y-10940500D01*
X3316643Y-10954786D01*
X3330928Y-10969072D01*
X3345214Y-10997643D01*
X3345214Y-11069072D01*
X3330928Y-11097643D01*
X3316643Y-11111929D01*
X3288071Y-11126214D01*
X3216643Y-11126214D01*
X3188071Y-11111929D01*
X3173786Y-11097643D01*
X3445214Y-10826214D02*
X3645214Y-10826214D01*
X3516643Y-11126214D01*
X3745214Y-10826214D02*
X3745214Y-10883357D01*
X3859500Y-10826214D02*
X3859500Y-10883357D01*
X4302357Y-11240500D02*
X4288071Y-11226214D01*
X4259500Y-11183357D01*
X4245214Y-11154786D01*
X4230928Y-11111929D01*
X4216643Y-11040500D01*
X4216643Y-10983357D01*
X4230928Y-10911929D01*
X4245214Y-10869072D01*
X4259500Y-10840500D01*
X4288071Y-10797643D01*
X4302357Y-10783357D01*
X4459500Y-10954786D02*
X4430928Y-10940500D01*
X4416643Y-10926214D01*
X4402357Y-10897643D01*
X4402357Y-10883357D01*
X4416643Y-10854786D01*
X4430928Y-10840500D01*
X4459500Y-10826214D01*
X4516643Y-10826214D01*
X4545214Y-10840500D01*
X4559500Y-10854786D01*
X4573786Y-10883357D01*
X4573786Y-10897643D01*
X4559500Y-10926214D01*
X4545214Y-10940500D01*
X4516643Y-10954786D01*
X4459500Y-10954786D01*
X4430928Y-10969072D01*
X4416643Y-10983357D01*
X4402357Y-11011929D01*
X4402357Y-11069072D01*
X4416643Y-11097643D01*
X4430928Y-11111929D01*
X4459500Y-11126214D01*
X4516643Y-11126214D01*
X4545214Y-11111929D01*
X4559500Y-11097643D01*
X4573786Y-11069072D01*
X4573786Y-11011929D01*
X4559500Y-10983357D01*
X4545214Y-10969072D01*
X4516643Y-10954786D01*
X4830928Y-10926214D02*
X4830928Y-11126214D01*
X4759500Y-10811929D02*
X4688071Y-11026214D01*
X4873786Y-11026214D01*
X5216643Y-11126214D02*
X5216643Y-10826214D01*
X5345214Y-11126214D02*
X5345214Y-10969072D01*
X5330928Y-10940500D01*
X5302357Y-10926214D01*
X5259500Y-10926214D01*
X5230928Y-10940500D01*
X5216643Y-10954786D01*
X5530928Y-11126214D02*
X5502357Y-11111929D01*
X5488071Y-11097643D01*
X5473786Y-11069072D01*
X5473786Y-10983357D01*
X5488071Y-10954786D01*
X5502357Y-10940500D01*
X5530928Y-10926214D01*
X5573786Y-10926214D01*
X5602357Y-10940500D01*
X5616643Y-10954786D01*
X5630928Y-10983357D01*
X5630928Y-11069072D01*
X5616643Y-11097643D01*
X5602357Y-11111929D01*
X5573786Y-11126214D01*
X5530928Y-11126214D01*
X5802357Y-11126214D02*
X5773786Y-11111929D01*
X5759500Y-11083357D01*
X5759500Y-10826214D01*
X6030928Y-11111929D02*
X6002357Y-11126214D01*
X5945214Y-11126214D01*
X5916643Y-11111929D01*
X5902357Y-11083357D01*
X5902357Y-10969072D01*
X5916643Y-10940500D01*
X5945214Y-10926214D01*
X6002357Y-10926214D01*
X6030928Y-10940500D01*
X6045214Y-10969072D01*
X6045214Y-10997643D01*
X5902357Y-11026214D01*
X6159500Y-11111929D02*
X6188071Y-11126214D01*
X6245214Y-11126214D01*
X6273786Y-11111929D01*
X6288071Y-11083357D01*
X6288071Y-11069072D01*
X6273786Y-11040500D01*
X6245214Y-11026214D01*
X6202357Y-11026214D01*
X6173786Y-11011929D01*
X6159500Y-10983357D01*
X6159500Y-10969072D01*
X6173786Y-10940500D01*
X6202357Y-10926214D01*
X6245214Y-10926214D01*
X6273786Y-10940500D01*
X6388071Y-11240500D02*
X6402357Y-11226214D01*
X6430928Y-11183357D01*
X6445214Y-11154786D01*
X6459500Y-11111929D01*
X6473786Y-11040500D01*
X6473786Y-10983357D01*
X6459500Y-10911929D01*
X6445214Y-10869072D01*
X6430928Y-10840500D01*
X6402357Y-10797643D01*
X6388071Y-10783357D01*
X-955500Y-11386500D02*
G75*
G03*
X-955500Y-11386500I-54610J0D01*
G01*
X-511929Y-11522214D02*
X-683357Y-11522214D01*
X-597643Y-11522214D02*
X-597643Y-11222214D01*
X-626214Y-11265071D01*
X-654786Y-11293643D01*
X-683357Y-11307929D01*
X-383357Y-11493643D02*
X-369071Y-11507929D01*
X-383357Y-11522214D01*
X-397643Y-11507929D01*
X-383357Y-11493643D01*
X-383357Y-11522214D01*
X-183357Y-11222214D02*
X-154786Y-11222214D01*
X-126214Y-11236500D01*
X-111929Y-11250786D01*
X-97643Y-11279357D01*
X-83357Y-11336500D01*
X-83357Y-11407929D01*
X-97643Y-11465071D01*
X-111929Y-11493643D01*
X-126214Y-11507929D01*
X-154786Y-11522214D01*
X-183357Y-11522214D01*
X-211929Y-11507929D01*
X-226214Y-11493643D01*
X-240500Y-11465071D01*
X-254786Y-11407929D01*
X-254786Y-11336500D01*
X-240500Y-11279357D01*
X-226214Y-11250786D01*
X-211929Y-11236500D01*
X-183357Y-11222214D01*
X59500Y-11522214D02*
X116643Y-11522214D01*
X145214Y-11507929D01*
X159500Y-11493643D01*
X188071Y-11450786D01*
X202357Y-11393643D01*
X202357Y-11279357D01*
X188071Y-11250786D01*
X173786Y-11236500D01*
X145214Y-11222214D01*
X88071Y-11222214D01*
X59500Y-11236500D01*
X45214Y-11250786D01*
X30928Y-11279357D01*
X30928Y-11350786D01*
X45214Y-11379357D01*
X59500Y-11393643D01*
X88071Y-11407929D01*
X145214Y-11407929D01*
X173786Y-11393643D01*
X188071Y-11379357D01*
X202357Y-11350786D01*
X316643Y-11250786D02*
X330928Y-11236500D01*
X359500Y-11222214D01*
X430928Y-11222214D01*
X459500Y-11236500D01*
X473786Y-11250786D01*
X488071Y-11279357D01*
X488071Y-11307929D01*
X473786Y-11350786D01*
X302357Y-11522214D01*
X488071Y-11522214D01*
X616643Y-11522214D02*
X616643Y-11322214D01*
X616643Y-11350786D02*
X630928Y-11336500D01*
X659500Y-11322214D01*
X702357Y-11322214D01*
X730928Y-11336500D01*
X745214Y-11365071D01*
X745214Y-11522214D01*
X745214Y-11365071D02*
X759500Y-11336500D01*
X788071Y-11322214D01*
X830928Y-11322214D01*
X859500Y-11336500D01*
X873786Y-11365071D01*
X873786Y-11522214D01*
X1016643Y-11522214D02*
X1016643Y-11322214D01*
X1016643Y-11350786D02*
X1030928Y-11336500D01*
X1059500Y-11322214D01*
X1102357Y-11322214D01*
X1130928Y-11336500D01*
X1145214Y-11365071D01*
X1145214Y-11522214D01*
X1145214Y-11365071D02*
X1159500Y-11336500D01*
X1188071Y-11322214D01*
X1230928Y-11322214D01*
X1259500Y-11336500D01*
X1273786Y-11365071D01*
X1273786Y-11522214D01*
X1859500Y-11207929D02*
X1602357Y-11593643D01*
X2245214Y-11222214D02*
X2273786Y-11222214D01*
X2302357Y-11236500D01*
X2316643Y-11250786D01*
X2330928Y-11279357D01*
X2345214Y-11336500D01*
X2345214Y-11407929D01*
X2330928Y-11465071D01*
X2316643Y-11493643D01*
X2302357Y-11507929D01*
X2273786Y-11522214D01*
X2245214Y-11522214D01*
X2216643Y-11507929D01*
X2202357Y-11493643D01*
X2188071Y-11465071D01*
X2173786Y-11407929D01*
X2173786Y-11336500D01*
X2188071Y-11279357D01*
X2202357Y-11250786D01*
X2216643Y-11236500D01*
X2245214Y-11222214D01*
X2473786Y-11493643D02*
X2488071Y-11507929D01*
X2473786Y-11522214D01*
X2459500Y-11507929D01*
X2473786Y-11493643D01*
X2473786Y-11522214D01*
X2673786Y-11222214D02*
X2702357Y-11222214D01*
X2730928Y-11236500D01*
X2745214Y-11250786D01*
X2759500Y-11279357D01*
X2773786Y-11336500D01*
X2773786Y-11407929D01*
X2759500Y-11465071D01*
X2745214Y-11493643D01*
X2730928Y-11507929D01*
X2702357Y-11522214D01*
X2673786Y-11522214D01*
X2645214Y-11507929D01*
X2630928Y-11493643D01*
X2616643Y-11465071D01*
X2602357Y-11407929D01*
X2602357Y-11336500D01*
X2616643Y-11279357D01*
X2630928Y-11250786D01*
X2645214Y-11236500D01*
X2673786Y-11222214D01*
X3030928Y-11322214D02*
X3030928Y-11522214D01*
X2959500Y-11207929D02*
X2888071Y-11422214D01*
X3073786Y-11422214D01*
X3159500Y-11222214D02*
X3345214Y-11222214D01*
X3245214Y-11336500D01*
X3288071Y-11336500D01*
X3316643Y-11350786D01*
X3330928Y-11365071D01*
X3345214Y-11393643D01*
X3345214Y-11465071D01*
X3330928Y-11493643D01*
X3316643Y-11507929D01*
X3288071Y-11522214D01*
X3202357Y-11522214D01*
X3173786Y-11507929D01*
X3159500Y-11493643D01*
X3530928Y-11222214D02*
X3559500Y-11222214D01*
X3588071Y-11236500D01*
X3602357Y-11250786D01*
X3616643Y-11279357D01*
X3630928Y-11336500D01*
X3630928Y-11407929D01*
X3616643Y-11465071D01*
X3602357Y-11493643D01*
X3588071Y-11507929D01*
X3559500Y-11522214D01*
X3530928Y-11522214D01*
X3502357Y-11507929D01*
X3488071Y-11493643D01*
X3473786Y-11465071D01*
X3459500Y-11407929D01*
X3459500Y-11336500D01*
X3473786Y-11279357D01*
X3488071Y-11250786D01*
X3502357Y-11236500D01*
X3530928Y-11222214D01*
X3745214Y-11222214D02*
X3745214Y-11279357D01*
X3859500Y-11222214D02*
X3859500Y-11279357D01*
X4302357Y-11636500D02*
X4288071Y-11622214D01*
X4259500Y-11579357D01*
X4245214Y-11550786D01*
X4230928Y-11507929D01*
X4216643Y-11436500D01*
X4216643Y-11379357D01*
X4230928Y-11307929D01*
X4245214Y-11265071D01*
X4259500Y-11236500D01*
X4288071Y-11193643D01*
X4302357Y-11179357D01*
X4402357Y-11250786D02*
X4416643Y-11236500D01*
X4445214Y-11222214D01*
X4516643Y-11222214D01*
X4545214Y-11236500D01*
X4559500Y-11250786D01*
X4573786Y-11279357D01*
X4573786Y-11307929D01*
X4559500Y-11350786D01*
X4388071Y-11522214D01*
X4573786Y-11522214D01*
X4716643Y-11522214D02*
X4773786Y-11522214D01*
X4802357Y-11507929D01*
X4816643Y-11493643D01*
X4845214Y-11450786D01*
X4859500Y-11393643D01*
X4859500Y-11279357D01*
X4845214Y-11250786D01*
X4830928Y-11236500D01*
X4802357Y-11222214D01*
X4745214Y-11222214D01*
X4716643Y-11236500D01*
X4702357Y-11250786D01*
X4688071Y-11279357D01*
X4688071Y-11350786D01*
X4702357Y-11379357D01*
X4716643Y-11393643D01*
X4745214Y-11407929D01*
X4802357Y-11407929D01*
X4830928Y-11393643D01*
X4845214Y-11379357D01*
X4859500Y-11350786D01*
X5216643Y-11522214D02*
X5216643Y-11222214D01*
X5345214Y-11522214D02*
X5345214Y-11365071D01*
X5330928Y-11336500D01*
X5302357Y-11322214D01*
X5259500Y-11322214D01*
X5230928Y-11336500D01*
X5216643Y-11350786D01*
X5530928Y-11522214D02*
X5502357Y-11507929D01*
X5488071Y-11493643D01*
X5473786Y-11465071D01*
X5473786Y-11379357D01*
X5488071Y-11350786D01*
X5502357Y-11336500D01*
X5530928Y-11322214D01*
X5573786Y-11322214D01*
X5602357Y-11336500D01*
X5616643Y-11350786D01*
X5630928Y-11379357D01*
X5630928Y-11465071D01*
X5616643Y-11493643D01*
X5602357Y-11507929D01*
X5573786Y-11522214D01*
X5530928Y-11522214D01*
X5802357Y-11522214D02*
X5773786Y-11507929D01*
X5759500Y-11479357D01*
X5759500Y-11222214D01*
X6030928Y-11507929D02*
X6002357Y-11522214D01*
X5945214Y-11522214D01*
X5916643Y-11507929D01*
X5902357Y-11479357D01*
X5902357Y-11365071D01*
X5916643Y-11336500D01*
X5945214Y-11322214D01*
X6002357Y-11322214D01*
X6030928Y-11336500D01*
X6045214Y-11365071D01*
X6045214Y-11393643D01*
X5902357Y-11422214D01*
X6159500Y-11507929D02*
X6188071Y-11522214D01*
X6245214Y-11522214D01*
X6273786Y-11507929D01*
X6288071Y-11479357D01*
X6288071Y-11465071D01*
X6273786Y-11436500D01*
X6245214Y-11422214D01*
X6202357Y-11422214D01*
X6173786Y-11407929D01*
X6159500Y-11379357D01*
X6159500Y-11365071D01*
X6173786Y-11336500D01*
X6202357Y-11322214D01*
X6245214Y-11322214D01*
X6273786Y-11336500D01*
X6388071Y-11636500D02*
X6402357Y-11622214D01*
X6430928Y-11579357D01*
X6445214Y-11550786D01*
X6459500Y-11507929D01*
X6473786Y-11436500D01*
X6473786Y-11379357D01*
X6459500Y-11307929D01*
X6445214Y-11265071D01*
X6430928Y-11236500D01*
X6402357Y-11193643D01*
X6388071Y-11179357D01*
X-1043000Y-11695000D02*
X-1043000Y-11870000D01*
X-1130500Y-11782500D02*
X-955500Y-11782500D01*
X-511929Y-11918214D02*
X-683357Y-11918214D01*
X-597643Y-11918214D02*
X-597643Y-11618214D01*
X-626214Y-11661071D01*
X-654786Y-11689643D01*
X-683357Y-11703929D01*
X-383357Y-11889643D02*
X-369071Y-11903929D01*
X-383357Y-11918214D01*
X-397643Y-11903929D01*
X-383357Y-11889643D01*
X-383357Y-11918214D01*
X-269072Y-11618214D02*
X-69072Y-11618214D01*
X-197643Y-11918214D01*
X188071Y-11618214D02*
X45214Y-11618214D01*
X30928Y-11761071D01*
X45214Y-11746786D01*
X73786Y-11732500D01*
X145214Y-11732500D01*
X173786Y-11746786D01*
X188071Y-11761071D01*
X202357Y-11789643D01*
X202357Y-11861071D01*
X188071Y-11889643D01*
X173786Y-11903929D01*
X145214Y-11918214D01*
X73786Y-11918214D01*
X45214Y-11903929D01*
X30928Y-11889643D01*
X388071Y-11618214D02*
X416643Y-11618214D01*
X445214Y-11632500D01*
X459500Y-11646786D01*
X473786Y-11675357D01*
X488071Y-11732500D01*
X488071Y-11803929D01*
X473786Y-11861071D01*
X459500Y-11889643D01*
X445214Y-11903929D01*
X416643Y-11918214D01*
X388071Y-11918214D01*
X359500Y-11903929D01*
X345214Y-11889643D01*
X330928Y-11861071D01*
X316643Y-11803929D01*
X316643Y-11732500D01*
X330928Y-11675357D01*
X345214Y-11646786D01*
X359500Y-11632500D01*
X388071Y-11618214D01*
X616643Y-11918214D02*
X616643Y-11718214D01*
X616643Y-11746786D02*
X630928Y-11732500D01*
X659500Y-11718214D01*
X702357Y-11718214D01*
X730928Y-11732500D01*
X745214Y-11761071D01*
X745214Y-11918214D01*
X745214Y-11761071D02*
X759500Y-11732500D01*
X788071Y-11718214D01*
X830928Y-11718214D01*
X859500Y-11732500D01*
X873786Y-11761071D01*
X873786Y-11918214D01*
X1016643Y-11918214D02*
X1016643Y-11718214D01*
X1016643Y-11746786D02*
X1030928Y-11732500D01*
X1059500Y-11718214D01*
X1102357Y-11718214D01*
X1130928Y-11732500D01*
X1145214Y-11761071D01*
X1145214Y-11918214D01*
X1145214Y-11761071D02*
X1159500Y-11732500D01*
X1188071Y-11718214D01*
X1230928Y-11718214D01*
X1259500Y-11732500D01*
X1273786Y-11761071D01*
X1273786Y-11918214D01*
X1859500Y-11603929D02*
X1602357Y-11989643D01*
X2245214Y-11618214D02*
X2273786Y-11618214D01*
X2302357Y-11632500D01*
X2316643Y-11646786D01*
X2330928Y-11675357D01*
X2345214Y-11732500D01*
X2345214Y-11803929D01*
X2330928Y-11861071D01*
X2316643Y-11889643D01*
X2302357Y-11903929D01*
X2273786Y-11918214D01*
X2245214Y-11918214D01*
X2216643Y-11903929D01*
X2202357Y-11889643D01*
X2188071Y-11861071D01*
X2173786Y-11803929D01*
X2173786Y-11732500D01*
X2188071Y-11675357D01*
X2202357Y-11646786D01*
X2216643Y-11632500D01*
X2245214Y-11618214D01*
X2473786Y-11889643D02*
X2488071Y-11903929D01*
X2473786Y-11918214D01*
X2459500Y-11903929D01*
X2473786Y-11889643D01*
X2473786Y-11918214D01*
X2673786Y-11618214D02*
X2702357Y-11618214D01*
X2730928Y-11632500D01*
X2745214Y-11646786D01*
X2759500Y-11675357D01*
X2773786Y-11732500D01*
X2773786Y-11803929D01*
X2759500Y-11861071D01*
X2745214Y-11889643D01*
X2730928Y-11903929D01*
X2702357Y-11918214D01*
X2673786Y-11918214D01*
X2645214Y-11903929D01*
X2630928Y-11889643D01*
X2616643Y-11861071D01*
X2602357Y-11803929D01*
X2602357Y-11732500D01*
X2616643Y-11675357D01*
X2630928Y-11646786D01*
X2645214Y-11632500D01*
X2673786Y-11618214D01*
X3030928Y-11618214D02*
X2973786Y-11618214D01*
X2945214Y-11632500D01*
X2930928Y-11646786D01*
X2902357Y-11689643D01*
X2888071Y-11746786D01*
X2888071Y-11861071D01*
X2902357Y-11889643D01*
X2916643Y-11903929D01*
X2945214Y-11918214D01*
X3002357Y-11918214D01*
X3030928Y-11903929D01*
X3045214Y-11889643D01*
X3059500Y-11861071D01*
X3059500Y-11789643D01*
X3045214Y-11761071D01*
X3030928Y-11746786D01*
X3002357Y-11732500D01*
X2945214Y-11732500D01*
X2916643Y-11746786D01*
X2902357Y-11761071D01*
X2888071Y-11789643D01*
X3230928Y-11746786D02*
X3202357Y-11732500D01*
X3188071Y-11718214D01*
X3173786Y-11689643D01*
X3173786Y-11675357D01*
X3188071Y-11646786D01*
X3202357Y-11632500D01*
X3230928Y-11618214D01*
X3288071Y-11618214D01*
X3316643Y-11632500D01*
X3330928Y-11646786D01*
X3345214Y-11675357D01*
X3345214Y-11689643D01*
X3330928Y-11718214D01*
X3316643Y-11732500D01*
X3288071Y-11746786D01*
X3230928Y-11746786D01*
X3202357Y-11761071D01*
X3188071Y-11775357D01*
X3173786Y-11803929D01*
X3173786Y-11861071D01*
X3188071Y-11889643D01*
X3202357Y-11903929D01*
X3230928Y-11918214D01*
X3288071Y-11918214D01*
X3316643Y-11903929D01*
X3330928Y-11889643D01*
X3345214Y-11861071D01*
X3345214Y-11803929D01*
X3330928Y-11775357D01*
X3316643Y-11761071D01*
X3288071Y-11746786D01*
X3488071Y-11918214D02*
X3545214Y-11918214D01*
X3573786Y-11903929D01*
X3588071Y-11889643D01*
X3616643Y-11846786D01*
X3630928Y-11789643D01*
X3630928Y-11675357D01*
X3616643Y-11646786D01*
X3602357Y-11632500D01*
X3573786Y-11618214D01*
X3516643Y-11618214D01*
X3488071Y-11632500D01*
X3473786Y-11646786D01*
X3459500Y-11675357D01*
X3459500Y-11746786D01*
X3473786Y-11775357D01*
X3488071Y-11789643D01*
X3516643Y-11803929D01*
X3573786Y-11803929D01*
X3602357Y-11789643D01*
X3616643Y-11775357D01*
X3630928Y-11746786D01*
X3745214Y-11618214D02*
X3745214Y-11675357D01*
X3859500Y-11618214D02*
X3859500Y-11675357D01*
X4302357Y-12032500D02*
X4288071Y-12018214D01*
X4259500Y-11975357D01*
X4245214Y-11946786D01*
X4230928Y-11903929D01*
X4216643Y-11832500D01*
X4216643Y-11775357D01*
X4230928Y-11703929D01*
X4245214Y-11661071D01*
X4259500Y-11632500D01*
X4288071Y-11589643D01*
X4302357Y-11575357D01*
X4573786Y-11918214D02*
X4402357Y-11918214D01*
X4488071Y-11918214D02*
X4488071Y-11618214D01*
X4459500Y-11661071D01*
X4430928Y-11689643D01*
X4402357Y-11703929D01*
X4745214Y-11746786D02*
X4716643Y-11732500D01*
X4702357Y-11718214D01*
X4688071Y-11689643D01*
X4688071Y-11675357D01*
X4702357Y-11646786D01*
X4716643Y-11632500D01*
X4745214Y-11618214D01*
X4802357Y-11618214D01*
X4830928Y-11632500D01*
X4845214Y-11646786D01*
X4859500Y-11675357D01*
X4859500Y-11689643D01*
X4845214Y-11718214D01*
X4830928Y-11732500D01*
X4802357Y-11746786D01*
X4745214Y-11746786D01*
X4716643Y-11761071D01*
X4702357Y-11775357D01*
X4688071Y-11803929D01*
X4688071Y-11861071D01*
X4702357Y-11889643D01*
X4716643Y-11903929D01*
X4745214Y-11918214D01*
X4802357Y-11918214D01*
X4830928Y-11903929D01*
X4845214Y-11889643D01*
X4859500Y-11861071D01*
X4859500Y-11803929D01*
X4845214Y-11775357D01*
X4830928Y-11761071D01*
X4802357Y-11746786D01*
X5116643Y-11718214D02*
X5116643Y-11918214D01*
X5045214Y-11603929D02*
X4973786Y-11818214D01*
X5159500Y-11818214D01*
X5502357Y-11918214D02*
X5502357Y-11618214D01*
X5630928Y-11918214D02*
X5630928Y-11761071D01*
X5616643Y-11732500D01*
X5588071Y-11718214D01*
X5545214Y-11718214D01*
X5516643Y-11732500D01*
X5502357Y-11746786D01*
X5816643Y-11918214D02*
X5788071Y-11903929D01*
X5773786Y-11889643D01*
X5759500Y-11861071D01*
X5759500Y-11775357D01*
X5773786Y-11746786D01*
X5788071Y-11732500D01*
X5816643Y-11718214D01*
X5859500Y-11718214D01*
X5888071Y-11732500D01*
X5902357Y-11746786D01*
X5916643Y-11775357D01*
X5916643Y-11861071D01*
X5902357Y-11889643D01*
X5888071Y-11903929D01*
X5859500Y-11918214D01*
X5816643Y-11918214D01*
X6088071Y-11918214D02*
X6059500Y-11903929D01*
X6045214Y-11875357D01*
X6045214Y-11618214D01*
X6316643Y-11903929D02*
X6288071Y-11918214D01*
X6230928Y-11918214D01*
X6202357Y-11903929D01*
X6188071Y-11875357D01*
X6188071Y-11761071D01*
X6202357Y-11732500D01*
X6230928Y-11718214D01*
X6288071Y-11718214D01*
X6316643Y-11732500D01*
X6330928Y-11761071D01*
X6330928Y-11789643D01*
X6188071Y-11818214D01*
X6445214Y-11903929D02*
X6473786Y-11918214D01*
X6530928Y-11918214D01*
X6559500Y-11903929D01*
X6573786Y-11875357D01*
X6573786Y-11861071D01*
X6559500Y-11832500D01*
X6530928Y-11818214D01*
X6488071Y-11818214D01*
X6459500Y-11803929D01*
X6445214Y-11775357D01*
X6445214Y-11761071D01*
X6459500Y-11732500D01*
X6488071Y-11718214D01*
X6530928Y-11718214D01*
X6559500Y-11732500D01*
X6673786Y-12032500D02*
X6688071Y-12018214D01*
X6716643Y-11975357D01*
X6730928Y-11946786D01*
X6745214Y-11903929D01*
X6759500Y-11832500D01*
X6759500Y-11775357D01*
X6745214Y-11703929D01*
X6730928Y-11661071D01*
X6716643Y-11632500D01*
X6688071Y-11589643D01*
X6673786Y-11575357D01*
X7216643Y-12032500D02*
X7202357Y-12018214D01*
X7173786Y-11975357D01*
X7159500Y-11946786D01*
X7145214Y-11903929D01*
X7130928Y-11832500D01*
X7130928Y-11775357D01*
X7145214Y-11703929D01*
X7159500Y-11661071D01*
X7173786Y-11632500D01*
X7202357Y-11589643D01*
X7216643Y-11575357D01*
X7330928Y-11718214D02*
X7330928Y-11918214D01*
X7330928Y-11746786D02*
X7345214Y-11732500D01*
X7373786Y-11718214D01*
X7416643Y-11718214D01*
X7445214Y-11732500D01*
X7459500Y-11761071D01*
X7459500Y-11918214D01*
X7645214Y-11918214D02*
X7616643Y-11903929D01*
X7602357Y-11889643D01*
X7588071Y-11861071D01*
X7588071Y-11775357D01*
X7602357Y-11746786D01*
X7616643Y-11732500D01*
X7645214Y-11718214D01*
X7688071Y-11718214D01*
X7716643Y-11732500D01*
X7730928Y-11746786D01*
X7745214Y-11775357D01*
X7745214Y-11861071D01*
X7730928Y-11889643D01*
X7716643Y-11903929D01*
X7688071Y-11918214D01*
X7645214Y-11918214D01*
X7830928Y-11718214D02*
X7945214Y-11718214D01*
X7873786Y-11618214D02*
X7873786Y-11875357D01*
X7888071Y-11903929D01*
X7916643Y-11918214D01*
X7945214Y-11918214D01*
X8273786Y-11718214D02*
X8273786Y-12018214D01*
X8273786Y-11732500D02*
X8302357Y-11718214D01*
X8359500Y-11718214D01*
X8388071Y-11732500D01*
X8402357Y-11746786D01*
X8416643Y-11775357D01*
X8416643Y-11861071D01*
X8402357Y-11889643D01*
X8388071Y-11903929D01*
X8359500Y-11918214D01*
X8302357Y-11918214D01*
X8273786Y-11903929D01*
X8588071Y-11918214D02*
X8559500Y-11903929D01*
X8545214Y-11875357D01*
X8545214Y-11618214D01*
X8830928Y-11918214D02*
X8830928Y-11761071D01*
X8816643Y-11732500D01*
X8788071Y-11718214D01*
X8730928Y-11718214D01*
X8702357Y-11732500D01*
X8830928Y-11903929D02*
X8802357Y-11918214D01*
X8730928Y-11918214D01*
X8702357Y-11903929D01*
X8688071Y-11875357D01*
X8688071Y-11846786D01*
X8702357Y-11818214D01*
X8730928Y-11803929D01*
X8802357Y-11803929D01*
X8830928Y-11789643D01*
X8930928Y-11718214D02*
X9045214Y-11718214D01*
X8973786Y-11618214D02*
X8973786Y-11875357D01*
X8988071Y-11903929D01*
X9016643Y-11918214D01*
X9045214Y-11918214D01*
X9259500Y-11903929D02*
X9230928Y-11918214D01*
X9173786Y-11918214D01*
X9145214Y-11903929D01*
X9130928Y-11875357D01*
X9130928Y-11761071D01*
X9145214Y-11732500D01*
X9173786Y-11718214D01*
X9230928Y-11718214D01*
X9259500Y-11732500D01*
X9273786Y-11761071D01*
X9273786Y-11789643D01*
X9130928Y-11818214D01*
X9530928Y-11918214D02*
X9530928Y-11618214D01*
X9530928Y-11903929D02*
X9502357Y-11918214D01*
X9445214Y-11918214D01*
X9416643Y-11903929D01*
X9402357Y-11889643D01*
X9388071Y-11861071D01*
X9388071Y-11775357D01*
X9402357Y-11746786D01*
X9416643Y-11732500D01*
X9445214Y-11718214D01*
X9502357Y-11718214D01*
X9530928Y-11732500D01*
X9645214Y-12032500D02*
X9659500Y-12018214D01*
X9688071Y-11975357D01*
X9702357Y-11946786D01*
X9716643Y-11903929D01*
X9730928Y-11832500D01*
X9730928Y-11775357D01*
X9716643Y-11703929D01*
X9702357Y-11661071D01*
X9688071Y-11632500D01*
X9659500Y-11589643D01*
X9645214Y-11575357D01*
X-999433Y-12284567D02*
X-999433Y-12072433D01*
X-1211567Y-12072433D01*
X-1211567Y-12284567D01*
X-999433Y-12284567D01*
X-697643Y-12014214D02*
X-511929Y-12014214D01*
X-611929Y-12128500D01*
X-569072Y-12128500D01*
X-540500Y-12142786D01*
X-526214Y-12157071D01*
X-511929Y-12185643D01*
X-511929Y-12257071D01*
X-526214Y-12285643D01*
X-540500Y-12299929D01*
X-569072Y-12314214D01*
X-654786Y-12314214D01*
X-683357Y-12299929D01*
X-697643Y-12285643D01*
X-383357Y-12285643D02*
X-369071Y-12299929D01*
X-383357Y-12314214D01*
X-397643Y-12299929D01*
X-383357Y-12285643D01*
X-383357Y-12314214D01*
X-183357Y-12014214D02*
X-154786Y-12014214D01*
X-126214Y-12028500D01*
X-111929Y-12042786D01*
X-97643Y-12071357D01*
X-83357Y-12128500D01*
X-83357Y-12199929D01*
X-97643Y-12257071D01*
X-111929Y-12285643D01*
X-126214Y-12299929D01*
X-154786Y-12314214D01*
X-183357Y-12314214D01*
X-211929Y-12299929D01*
X-226214Y-12285643D01*
X-240500Y-12257071D01*
X-254786Y-12199929D01*
X-254786Y-12128500D01*
X-240500Y-12071357D01*
X-226214Y-12042786D01*
X-211929Y-12028500D01*
X-183357Y-12014214D01*
X102357Y-12014214D02*
X130928Y-12014214D01*
X159500Y-12028500D01*
X173786Y-12042786D01*
X188071Y-12071357D01*
X202357Y-12128500D01*
X202357Y-12199929D01*
X188071Y-12257071D01*
X173786Y-12285643D01*
X159500Y-12299929D01*
X130928Y-12314214D01*
X102357Y-12314214D01*
X73786Y-12299929D01*
X59500Y-12285643D01*
X45214Y-12257071D01*
X30928Y-12199929D01*
X30928Y-12128500D01*
X45214Y-12071357D01*
X59500Y-12042786D01*
X73786Y-12028500D01*
X102357Y-12014214D01*
X388071Y-12014214D02*
X416643Y-12014214D01*
X445214Y-12028500D01*
X459500Y-12042786D01*
X473786Y-12071357D01*
X488071Y-12128500D01*
X488071Y-12199929D01*
X473786Y-12257071D01*
X459500Y-12285643D01*
X445214Y-12299929D01*
X416643Y-12314214D01*
X388071Y-12314214D01*
X359500Y-12299929D01*
X345214Y-12285643D01*
X330928Y-12257071D01*
X316643Y-12199929D01*
X316643Y-12128500D01*
X330928Y-12071357D01*
X345214Y-12042786D01*
X359500Y-12028500D01*
X388071Y-12014214D01*
X616643Y-12314214D02*
X616643Y-12114214D01*
X616643Y-12142786D02*
X630928Y-12128500D01*
X659500Y-12114214D01*
X702357Y-12114214D01*
X730928Y-12128500D01*
X745214Y-12157071D01*
X745214Y-12314214D01*
X745214Y-12157071D02*
X759500Y-12128500D01*
X788071Y-12114214D01*
X830928Y-12114214D01*
X859500Y-12128500D01*
X873786Y-12157071D01*
X873786Y-12314214D01*
X1016643Y-12314214D02*
X1016643Y-12114214D01*
X1016643Y-12142786D02*
X1030928Y-12128500D01*
X1059500Y-12114214D01*
X1102357Y-12114214D01*
X1130928Y-12128500D01*
X1145214Y-12157071D01*
X1145214Y-12314214D01*
X1145214Y-12157071D02*
X1159500Y-12128500D01*
X1188071Y-12114214D01*
X1230928Y-12114214D01*
X1259500Y-12128500D01*
X1273786Y-12157071D01*
X1273786Y-12314214D01*
X1859500Y-11999929D02*
X1602357Y-12385643D01*
X2245214Y-12014214D02*
X2273786Y-12014214D01*
X2302357Y-12028500D01*
X2316643Y-12042786D01*
X2330928Y-12071357D01*
X2345214Y-12128500D01*
X2345214Y-12199929D01*
X2330928Y-12257071D01*
X2316643Y-12285643D01*
X2302357Y-12299929D01*
X2273786Y-12314214D01*
X2245214Y-12314214D01*
X2216643Y-12299929D01*
X2202357Y-12285643D01*
X2188071Y-12257071D01*
X2173786Y-12199929D01*
X2173786Y-12128500D01*
X2188071Y-12071357D01*
X2202357Y-12042786D01*
X2216643Y-12028500D01*
X2245214Y-12014214D01*
X2473786Y-12285643D02*
X2488071Y-12299929D01*
X2473786Y-12314214D01*
X2459500Y-12299929D01*
X2473786Y-12285643D01*
X2473786Y-12314214D01*
X2773786Y-12314214D02*
X2602357Y-12314214D01*
X2688071Y-12314214D02*
X2688071Y-12014214D01*
X2659500Y-12057071D01*
X2630928Y-12085643D01*
X2602357Y-12099929D01*
X3059500Y-12314214D02*
X2888071Y-12314214D01*
X2973786Y-12314214D02*
X2973786Y-12014214D01*
X2945214Y-12057071D01*
X2916643Y-12085643D01*
X2888071Y-12099929D01*
X3230928Y-12142786D02*
X3202357Y-12128500D01*
X3188071Y-12114214D01*
X3173786Y-12085643D01*
X3173786Y-12071357D01*
X3188071Y-12042786D01*
X3202357Y-12028500D01*
X3230928Y-12014214D01*
X3288071Y-12014214D01*
X3316643Y-12028500D01*
X3330928Y-12042786D01*
X3345214Y-12071357D01*
X3345214Y-12085643D01*
X3330928Y-12114214D01*
X3316643Y-12128500D01*
X3288071Y-12142786D01*
X3230928Y-12142786D01*
X3202357Y-12157071D01*
X3188071Y-12171357D01*
X3173786Y-12199929D01*
X3173786Y-12257071D01*
X3188071Y-12285643D01*
X3202357Y-12299929D01*
X3230928Y-12314214D01*
X3288071Y-12314214D01*
X3316643Y-12299929D01*
X3330928Y-12285643D01*
X3345214Y-12257071D01*
X3345214Y-12199929D01*
X3330928Y-12171357D01*
X3316643Y-12157071D01*
X3288071Y-12142786D01*
X3630928Y-12314214D02*
X3459500Y-12314214D01*
X3545214Y-12314214D02*
X3545214Y-12014214D01*
X3516643Y-12057071D01*
X3488071Y-12085643D01*
X3459500Y-12099929D01*
X3745214Y-12014214D02*
X3745214Y-12071357D01*
X3859500Y-12014214D02*
X3859500Y-12071357D01*
X4302357Y-12428500D02*
X4288071Y-12414214D01*
X4259500Y-12371357D01*
X4245214Y-12342786D01*
X4230928Y-12299929D01*
X4216643Y-12228500D01*
X4216643Y-12171357D01*
X4230928Y-12099929D01*
X4245214Y-12057071D01*
X4259500Y-12028500D01*
X4288071Y-11985643D01*
X4302357Y-11971357D01*
X4573786Y-12314214D02*
X4402357Y-12314214D01*
X4488071Y-12314214D02*
X4488071Y-12014214D01*
X4459500Y-12057071D01*
X4430928Y-12085643D01*
X4402357Y-12099929D01*
X4745214Y-12142786D02*
X4716643Y-12128500D01*
X4702357Y-12114214D01*
X4688071Y-12085643D01*
X4688071Y-12071357D01*
X4702357Y-12042786D01*
X4716643Y-12028500D01*
X4745214Y-12014214D01*
X4802357Y-12014214D01*
X4830928Y-12028500D01*
X4845214Y-12042786D01*
X4859500Y-12071357D01*
X4859500Y-12085643D01*
X4845214Y-12114214D01*
X4830928Y-12128500D01*
X4802357Y-12142786D01*
X4745214Y-12142786D01*
X4716643Y-12157071D01*
X4702357Y-12171357D01*
X4688071Y-12199929D01*
X4688071Y-12257071D01*
X4702357Y-12285643D01*
X4716643Y-12299929D01*
X4745214Y-12314214D01*
X4802357Y-12314214D01*
X4830928Y-12299929D01*
X4845214Y-12285643D01*
X4859500Y-12257071D01*
X4859500Y-12199929D01*
X4845214Y-12171357D01*
X4830928Y-12157071D01*
X4802357Y-12142786D01*
X5116643Y-12114214D02*
X5116643Y-12314214D01*
X5045214Y-11999929D02*
X4973786Y-12214214D01*
X5159500Y-12214214D01*
X5502357Y-12314214D02*
X5502357Y-12014214D01*
X5630928Y-12314214D02*
X5630928Y-12157071D01*
X5616643Y-12128500D01*
X5588071Y-12114214D01*
X5545214Y-12114214D01*
X5516643Y-12128500D01*
X5502357Y-12142786D01*
X5816643Y-12314214D02*
X5788071Y-12299929D01*
X5773786Y-12285643D01*
X5759500Y-12257071D01*
X5759500Y-12171357D01*
X5773786Y-12142786D01*
X5788071Y-12128500D01*
X5816643Y-12114214D01*
X5859500Y-12114214D01*
X5888071Y-12128500D01*
X5902357Y-12142786D01*
X5916643Y-12171357D01*
X5916643Y-12257071D01*
X5902357Y-12285643D01*
X5888071Y-12299929D01*
X5859500Y-12314214D01*
X5816643Y-12314214D01*
X6088071Y-12314214D02*
X6059500Y-12299929D01*
X6045214Y-12271357D01*
X6045214Y-12014214D01*
X6316643Y-12299929D02*
X6288071Y-12314214D01*
X6230928Y-12314214D01*
X6202357Y-12299929D01*
X6188071Y-12271357D01*
X6188071Y-12157071D01*
X6202357Y-12128500D01*
X6230928Y-12114214D01*
X6288071Y-12114214D01*
X6316643Y-12128500D01*
X6330928Y-12157071D01*
X6330928Y-12185643D01*
X6188071Y-12214214D01*
X6445214Y-12299929D02*
X6473786Y-12314214D01*
X6530928Y-12314214D01*
X6559500Y-12299929D01*
X6573786Y-12271357D01*
X6573786Y-12257071D01*
X6559500Y-12228500D01*
X6530928Y-12214214D01*
X6488071Y-12214214D01*
X6459500Y-12199929D01*
X6445214Y-12171357D01*
X6445214Y-12157071D01*
X6459500Y-12128500D01*
X6488071Y-12114214D01*
X6530928Y-12114214D01*
X6559500Y-12128500D01*
X6673786Y-12428500D02*
X6688071Y-12414214D01*
X6716643Y-12371357D01*
X6730928Y-12342786D01*
X6745214Y-12299929D01*
X6759500Y-12228500D01*
X6759500Y-12171357D01*
X6745214Y-12099929D01*
X6730928Y-12057071D01*
X6716643Y-12028500D01*
X6688071Y-11985643D01*
X6673786Y-11971357D01*
X7216643Y-12428500D02*
X7202357Y-12414214D01*
X7173786Y-12371357D01*
X7159500Y-12342786D01*
X7145214Y-12299929D01*
X7130928Y-12228500D01*
X7130928Y-12171357D01*
X7145214Y-12099929D01*
X7159500Y-12057071D01*
X7173786Y-12028500D01*
X7202357Y-11985643D01*
X7216643Y-11971357D01*
X7330928Y-12114214D02*
X7330928Y-12314214D01*
X7330928Y-12142786D02*
X7345214Y-12128500D01*
X7373786Y-12114214D01*
X7416643Y-12114214D01*
X7445214Y-12128500D01*
X7459500Y-12157071D01*
X7459500Y-12314214D01*
X7645214Y-12314214D02*
X7616643Y-12299929D01*
X7602357Y-12285643D01*
X7588071Y-12257071D01*
X7588071Y-12171357D01*
X7602357Y-12142786D01*
X7616643Y-12128500D01*
X7645214Y-12114214D01*
X7688071Y-12114214D01*
X7716643Y-12128500D01*
X7730928Y-12142786D01*
X7745214Y-12171357D01*
X7745214Y-12257071D01*
X7730928Y-12285643D01*
X7716643Y-12299929D01*
X7688071Y-12314214D01*
X7645214Y-12314214D01*
X7830928Y-12114214D02*
X7945214Y-12114214D01*
X7873786Y-12014214D02*
X7873786Y-12271357D01*
X7888071Y-12299929D01*
X7916643Y-12314214D01*
X7945214Y-12314214D01*
X8273786Y-12114214D02*
X8273786Y-12414214D01*
X8273786Y-12128500D02*
X8302357Y-12114214D01*
X8359500Y-12114214D01*
X8388071Y-12128500D01*
X8402357Y-12142786D01*
X8416643Y-12171357D01*
X8416643Y-12257071D01*
X8402357Y-12285643D01*
X8388071Y-12299929D01*
X8359500Y-12314214D01*
X8302357Y-12314214D01*
X8273786Y-12299929D01*
X8588071Y-12314214D02*
X8559500Y-12299929D01*
X8545214Y-12271357D01*
X8545214Y-12014214D01*
X8830928Y-12314214D02*
X8830928Y-12157071D01*
X8816643Y-12128500D01*
X8788071Y-12114214D01*
X8730928Y-12114214D01*
X8702357Y-12128500D01*
X8830928Y-12299929D02*
X8802357Y-12314214D01*
X8730928Y-12314214D01*
X8702357Y-12299929D01*
X8688071Y-12271357D01*
X8688071Y-12242786D01*
X8702357Y-12214214D01*
X8730928Y-12199929D01*
X8802357Y-12199929D01*
X8830928Y-12185643D01*
X8930928Y-12114214D02*
X9045214Y-12114214D01*
X8973786Y-12014214D02*
X8973786Y-12271357D01*
X8988071Y-12299929D01*
X9016643Y-12314214D01*
X9045214Y-12314214D01*
X9259500Y-12299929D02*
X9230928Y-12314214D01*
X9173786Y-12314214D01*
X9145214Y-12299929D01*
X9130928Y-12271357D01*
X9130928Y-12157071D01*
X9145214Y-12128500D01*
X9173786Y-12114214D01*
X9230928Y-12114214D01*
X9259500Y-12128500D01*
X9273786Y-12157071D01*
X9273786Y-12185643D01*
X9130928Y-12214214D01*
X9530928Y-12314214D02*
X9530928Y-12014214D01*
X9530928Y-12299929D02*
X9502357Y-12314214D01*
X9445214Y-12314214D01*
X9416643Y-12299929D01*
X9402357Y-12285643D01*
X9388071Y-12257071D01*
X9388071Y-12171357D01*
X9402357Y-12142786D01*
X9416643Y-12128500D01*
X9445214Y-12114214D01*
X9502357Y-12114214D01*
X9530928Y-12128500D01*
X9645214Y-12428500D02*
X9659500Y-12414214D01*
X9688071Y-12371357D01*
X9702357Y-12342786D01*
X9716643Y-12299929D01*
X9730928Y-12228500D01*
X9730928Y-12171357D01*
X9716643Y-12099929D01*
X9702357Y-12057071D01*
X9688071Y-12028500D01*
X9659500Y-11985643D01*
X9645214Y-11971357D01*
X-1107900Y-12760900D02*
X-955500Y-12608500D01*
X-1107900Y-12456100D01*
X-1260300Y-12608500D01*
X-1107900Y-12760900D01*
X-697643Y-12444214D02*
X-511929Y-12444214D01*
X-611929Y-12558500D01*
X-569072Y-12558500D01*
X-540500Y-12572786D01*
X-526214Y-12587071D01*
X-511929Y-12615643D01*
X-511929Y-12687071D01*
X-526214Y-12715643D01*
X-540500Y-12729929D01*
X-569072Y-12744214D01*
X-654786Y-12744214D01*
X-683357Y-12729929D01*
X-697643Y-12715643D01*
X-383357Y-12715643D02*
X-369071Y-12729929D01*
X-383357Y-12744214D01*
X-397643Y-12729929D01*
X-383357Y-12715643D01*
X-383357Y-12744214D01*
X-183357Y-12444214D02*
X-154786Y-12444214D01*
X-126214Y-12458500D01*
X-111929Y-12472786D01*
X-97643Y-12501357D01*
X-83357Y-12558500D01*
X-83357Y-12629929D01*
X-97643Y-12687071D01*
X-111929Y-12715643D01*
X-126214Y-12729929D01*
X-154786Y-12744214D01*
X-183357Y-12744214D01*
X-211929Y-12729929D01*
X-226214Y-12715643D01*
X-240500Y-12687071D01*
X-254786Y-12629929D01*
X-254786Y-12558500D01*
X-240500Y-12501357D01*
X-226214Y-12472786D01*
X-211929Y-12458500D01*
X-183357Y-12444214D01*
X173786Y-12544214D02*
X173786Y-12744214D01*
X102357Y-12429929D02*
X30928Y-12644214D01*
X216643Y-12644214D01*
X373786Y-12572786D02*
X345214Y-12558500D01*
X330928Y-12544214D01*
X316643Y-12515643D01*
X316643Y-12501357D01*
X330928Y-12472786D01*
X345214Y-12458500D01*
X373786Y-12444214D01*
X430928Y-12444214D01*
X459500Y-12458500D01*
X473786Y-12472786D01*
X488071Y-12501357D01*
X488071Y-12515643D01*
X473786Y-12544214D01*
X459500Y-12558500D01*
X430928Y-12572786D01*
X373786Y-12572786D01*
X345214Y-12587071D01*
X330928Y-12601357D01*
X316643Y-12629929D01*
X316643Y-12687071D01*
X330928Y-12715643D01*
X345214Y-12729929D01*
X373786Y-12744214D01*
X430928Y-12744214D01*
X459500Y-12729929D01*
X473786Y-12715643D01*
X488071Y-12687071D01*
X488071Y-12629929D01*
X473786Y-12601357D01*
X459500Y-12587071D01*
X430928Y-12572786D01*
X616643Y-12744214D02*
X616643Y-12544214D01*
X616643Y-12572786D02*
X630928Y-12558500D01*
X659500Y-12544214D01*
X702357Y-12544214D01*
X730928Y-12558500D01*
X745214Y-12587071D01*
X745214Y-12744214D01*
X745214Y-12587071D02*
X759500Y-12558500D01*
X788071Y-12544214D01*
X830928Y-12544214D01*
X859500Y-12558500D01*
X873786Y-12587071D01*
X873786Y-12744214D01*
X1016643Y-12744214D02*
X1016643Y-12544214D01*
X1016643Y-12572786D02*
X1030928Y-12558500D01*
X1059500Y-12544214D01*
X1102357Y-12544214D01*
X1130928Y-12558500D01*
X1145214Y-12587071D01*
X1145214Y-12744214D01*
X1145214Y-12587071D02*
X1159500Y-12558500D01*
X1188071Y-12544214D01*
X1230928Y-12544214D01*
X1259500Y-12558500D01*
X1273786Y-12587071D01*
X1273786Y-12744214D01*
X1859500Y-12429929D02*
X1602357Y-12815643D01*
X2245214Y-12444214D02*
X2273786Y-12444214D01*
X2302357Y-12458500D01*
X2316643Y-12472786D01*
X2330928Y-12501357D01*
X2345214Y-12558500D01*
X2345214Y-12629929D01*
X2330928Y-12687071D01*
X2316643Y-12715643D01*
X2302357Y-12729929D01*
X2273786Y-12744214D01*
X2245214Y-12744214D01*
X2216643Y-12729929D01*
X2202357Y-12715643D01*
X2188071Y-12687071D01*
X2173786Y-12629929D01*
X2173786Y-12558500D01*
X2188071Y-12501357D01*
X2202357Y-12472786D01*
X2216643Y-12458500D01*
X2245214Y-12444214D01*
X2473786Y-12715643D02*
X2488071Y-12729929D01*
X2473786Y-12744214D01*
X2459500Y-12729929D01*
X2473786Y-12715643D01*
X2473786Y-12744214D01*
X2773786Y-12744214D02*
X2602357Y-12744214D01*
X2688071Y-12744214D02*
X2688071Y-12444214D01*
X2659500Y-12487071D01*
X2630928Y-12515643D01*
X2602357Y-12529929D01*
X2888071Y-12472786D02*
X2902357Y-12458500D01*
X2930928Y-12444214D01*
X3002357Y-12444214D01*
X3030928Y-12458500D01*
X3045214Y-12472786D01*
X3059500Y-12501357D01*
X3059500Y-12529929D01*
X3045214Y-12572786D01*
X2873786Y-12744214D01*
X3059500Y-12744214D01*
X3245214Y-12444214D02*
X3273786Y-12444214D01*
X3302357Y-12458500D01*
X3316643Y-12472786D01*
X3330928Y-12501357D01*
X3345214Y-12558500D01*
X3345214Y-12629929D01*
X3330928Y-12687071D01*
X3316643Y-12715643D01*
X3302357Y-12729929D01*
X3273786Y-12744214D01*
X3245214Y-12744214D01*
X3216643Y-12729929D01*
X3202357Y-12715643D01*
X3188071Y-12687071D01*
X3173786Y-12629929D01*
X3173786Y-12558500D01*
X3188071Y-12501357D01*
X3202357Y-12472786D01*
X3216643Y-12458500D01*
X3245214Y-12444214D01*
X3530928Y-12444214D02*
X3559500Y-12444214D01*
X3588071Y-12458500D01*
X3602357Y-12472786D01*
X3616643Y-12501357D01*
X3630928Y-12558500D01*
X3630928Y-12629929D01*
X3616643Y-12687071D01*
X3602357Y-12715643D01*
X3588071Y-12729929D01*
X3559500Y-12744214D01*
X3530928Y-12744214D01*
X3502357Y-12729929D01*
X3488071Y-12715643D01*
X3473786Y-12687071D01*
X3459500Y-12629929D01*
X3459500Y-12558500D01*
X3473786Y-12501357D01*
X3488071Y-12472786D01*
X3502357Y-12458500D01*
X3530928Y-12444214D01*
X3745214Y-12444214D02*
X3745214Y-12501357D01*
X3859500Y-12444214D02*
X3859500Y-12501357D01*
X4302357Y-12858500D02*
X4288071Y-12844214D01*
X4259500Y-12801357D01*
X4245214Y-12772786D01*
X4230928Y-12729929D01*
X4216643Y-12658500D01*
X4216643Y-12601357D01*
X4230928Y-12529929D01*
X4245214Y-12487071D01*
X4259500Y-12458500D01*
X4288071Y-12415643D01*
X4302357Y-12401357D01*
X4573786Y-12744214D02*
X4402357Y-12744214D01*
X4488071Y-12744214D02*
X4488071Y-12444214D01*
X4459500Y-12487071D01*
X4430928Y-12515643D01*
X4402357Y-12529929D01*
X4830928Y-12444214D02*
X4773786Y-12444214D01*
X4745214Y-12458500D01*
X4730928Y-12472786D01*
X4702357Y-12515643D01*
X4688071Y-12572786D01*
X4688071Y-12687071D01*
X4702357Y-12715643D01*
X4716643Y-12729929D01*
X4745214Y-12744214D01*
X4802357Y-12744214D01*
X4830928Y-12729929D01*
X4845214Y-12715643D01*
X4859500Y-12687071D01*
X4859500Y-12615643D01*
X4845214Y-12587071D01*
X4830928Y-12572786D01*
X4802357Y-12558500D01*
X4745214Y-12558500D01*
X4716643Y-12572786D01*
X4702357Y-12587071D01*
X4688071Y-12615643D01*
X5216643Y-12744214D02*
X5216643Y-12444214D01*
X5345214Y-12744214D02*
X5345214Y-12587071D01*
X5330928Y-12558500D01*
X5302357Y-12544214D01*
X5259500Y-12544214D01*
X5230928Y-12558500D01*
X5216643Y-12572786D01*
X5530928Y-12744214D02*
X5502357Y-12729929D01*
X5488071Y-12715643D01*
X5473786Y-12687071D01*
X5473786Y-12601357D01*
X5488071Y-12572786D01*
X5502357Y-12558500D01*
X5530928Y-12544214D01*
X5573786Y-12544214D01*
X5602357Y-12558500D01*
X5616643Y-12572786D01*
X5630928Y-12601357D01*
X5630928Y-12687071D01*
X5616643Y-12715643D01*
X5602357Y-12729929D01*
X5573786Y-12744214D01*
X5530928Y-12744214D01*
X5802357Y-12744214D02*
X5773786Y-12729929D01*
X5759500Y-12701357D01*
X5759500Y-12444214D01*
X6030928Y-12729929D02*
X6002357Y-12744214D01*
X5945214Y-12744214D01*
X5916643Y-12729929D01*
X5902357Y-12701357D01*
X5902357Y-12587071D01*
X5916643Y-12558500D01*
X5945214Y-12544214D01*
X6002357Y-12544214D01*
X6030928Y-12558500D01*
X6045214Y-12587071D01*
X6045214Y-12615643D01*
X5902357Y-12644214D01*
X6159500Y-12729929D02*
X6188071Y-12744214D01*
X6245214Y-12744214D01*
X6273786Y-12729929D01*
X6288071Y-12701357D01*
X6288071Y-12687071D01*
X6273786Y-12658500D01*
X6245214Y-12644214D01*
X6202357Y-12644214D01*
X6173786Y-12629929D01*
X6159500Y-12601357D01*
X6159500Y-12587071D01*
X6173786Y-12558500D01*
X6202357Y-12544214D01*
X6245214Y-12544214D01*
X6273786Y-12558500D01*
X6388071Y-12858500D02*
X6402357Y-12844214D01*
X6430928Y-12801357D01*
X6445214Y-12772786D01*
X6459500Y-12729929D01*
X6473786Y-12658500D01*
X6473786Y-12601357D01*
X6459500Y-12529929D01*
X6445214Y-12487071D01*
X6430928Y-12458500D01*
X6402357Y-12415643D01*
X6388071Y-12401357D01*
X6930928Y-12858500D02*
X6916643Y-12844214D01*
X6888071Y-12801357D01*
X6873786Y-12772786D01*
X6859500Y-12729929D01*
X6845214Y-12658500D01*
X6845214Y-12601357D01*
X6859500Y-12529929D01*
X6873786Y-12487071D01*
X6888071Y-12458500D01*
X6916643Y-12415643D01*
X6930928Y-12401357D01*
X7045214Y-12544214D02*
X7045214Y-12744214D01*
X7045214Y-12572786D02*
X7059500Y-12558500D01*
X7088071Y-12544214D01*
X7130928Y-12544214D01*
X7159500Y-12558500D01*
X7173786Y-12587071D01*
X7173786Y-12744214D01*
X7359500Y-12744214D02*
X7330928Y-12729929D01*
X7316643Y-12715643D01*
X7302357Y-12687071D01*
X7302357Y-12601357D01*
X7316643Y-12572786D01*
X7330928Y-12558500D01*
X7359500Y-12544214D01*
X7402357Y-12544214D01*
X7430928Y-12558500D01*
X7445214Y-12572786D01*
X7459500Y-12601357D01*
X7459500Y-12687071D01*
X7445214Y-12715643D01*
X7430928Y-12729929D01*
X7402357Y-12744214D01*
X7359500Y-12744214D01*
X7545214Y-12544214D02*
X7659500Y-12544214D01*
X7588071Y-12444214D02*
X7588071Y-12701357D01*
X7602357Y-12729929D01*
X7630928Y-12744214D01*
X7659500Y-12744214D01*
X7988071Y-12544214D02*
X7988071Y-12844214D01*
X7988071Y-12558500D02*
X8016643Y-12544214D01*
X8073786Y-12544214D01*
X8102357Y-12558500D01*
X8116643Y-12572786D01*
X8130928Y-12601357D01*
X8130928Y-12687071D01*
X8116643Y-12715643D01*
X8102357Y-12729929D01*
X8073786Y-12744214D01*
X8016643Y-12744214D01*
X7988071Y-12729929D01*
X8302357Y-12744214D02*
X8273786Y-12729929D01*
X8259500Y-12701357D01*
X8259500Y-12444214D01*
X8545214Y-12744214D02*
X8545214Y-12587071D01*
X8530928Y-12558500D01*
X8502357Y-12544214D01*
X8445214Y-12544214D01*
X8416643Y-12558500D01*
X8545214Y-12729929D02*
X8516643Y-12744214D01*
X8445214Y-12744214D01*
X8416643Y-12729929D01*
X8402357Y-12701357D01*
X8402357Y-12672786D01*
X8416643Y-12644214D01*
X8445214Y-12629929D01*
X8516643Y-12629929D01*
X8545214Y-12615643D01*
X8645214Y-12544214D02*
X8759500Y-12544214D01*
X8688071Y-12444214D02*
X8688071Y-12701357D01*
X8702357Y-12729929D01*
X8730928Y-12744214D01*
X8759500Y-12744214D01*
X8973786Y-12729929D02*
X8945214Y-12744214D01*
X8888071Y-12744214D01*
X8859500Y-12729929D01*
X8845214Y-12701357D01*
X8845214Y-12587071D01*
X8859500Y-12558500D01*
X8888071Y-12544214D01*
X8945214Y-12544214D01*
X8973786Y-12558500D01*
X8988071Y-12587071D01*
X8988071Y-12615643D01*
X8845214Y-12644214D01*
X9245214Y-12744214D02*
X9245214Y-12444214D01*
X9245214Y-12729929D02*
X9216643Y-12744214D01*
X9159500Y-12744214D01*
X9130928Y-12729929D01*
X9116643Y-12715643D01*
X9102357Y-12687071D01*
X9102357Y-12601357D01*
X9116643Y-12572786D01*
X9130928Y-12558500D01*
X9159500Y-12544214D01*
X9216643Y-12544214D01*
X9245214Y-12558500D01*
X9359500Y-12858500D02*
X9373786Y-12844214D01*
X9402357Y-12801357D01*
X9416643Y-12772786D01*
X9430928Y-12729929D01*
X9445214Y-12658500D01*
X9445214Y-12601357D01*
X9430928Y-12529929D01*
X9416643Y-12487071D01*
X9402357Y-12458500D01*
X9373786Y-12415643D01*
X9359500Y-12401357D01*
X-1354280Y-12843910D02*
X-955500Y-13242690D01*
X-955500Y-12843910D02*
X-1354280Y-13242690D01*
X-955500Y-13043300D02*
G75*
G03*
X-955500Y-13043300I-199390J0D01*
G01*
X-697643Y-12879014D02*
X-511929Y-12879014D01*
X-611929Y-12993300D01*
X-569072Y-12993300D01*
X-540500Y-13007586D01*
X-526214Y-13021871D01*
X-511929Y-13050443D01*
X-511929Y-13121871D01*
X-526214Y-13150443D01*
X-540500Y-13164729D01*
X-569072Y-13179014D01*
X-654786Y-13179014D01*
X-683357Y-13164729D01*
X-697643Y-13150443D01*
X-383357Y-13150443D02*
X-369071Y-13164729D01*
X-383357Y-13179014D01*
X-397643Y-13164729D01*
X-383357Y-13150443D01*
X-383357Y-13179014D01*
X-226214Y-13179014D02*
X-169072Y-13179014D01*
X-140500Y-13164729D01*
X-126214Y-13150443D01*
X-97643Y-13107586D01*
X-83357Y-13050443D01*
X-83357Y-12936157D01*
X-97643Y-12907586D01*
X-111929Y-12893300D01*
X-140500Y-12879014D01*
X-197643Y-12879014D01*
X-226214Y-12893300D01*
X-240500Y-12907586D01*
X-254786Y-12936157D01*
X-254786Y-13007586D01*
X-240500Y-13036157D01*
X-226214Y-13050443D01*
X-197643Y-13064729D01*
X-140500Y-13064729D01*
X-111929Y-13050443D01*
X-97643Y-13036157D01*
X-83357Y-13007586D01*
X88071Y-13007586D02*
X59500Y-12993300D01*
X45214Y-12979014D01*
X30928Y-12950443D01*
X30928Y-12936157D01*
X45214Y-12907586D01*
X59500Y-12893300D01*
X88071Y-12879014D01*
X145214Y-12879014D01*
X173786Y-12893300D01*
X188071Y-12907586D01*
X202357Y-12936157D01*
X202357Y-12950443D01*
X188071Y-12979014D01*
X173786Y-12993300D01*
X145214Y-13007586D01*
X88071Y-13007586D01*
X59500Y-13021871D01*
X45214Y-13036157D01*
X30928Y-13064729D01*
X30928Y-13121871D01*
X45214Y-13150443D01*
X59500Y-13164729D01*
X88071Y-13179014D01*
X145214Y-13179014D01*
X173786Y-13164729D01*
X188071Y-13150443D01*
X202357Y-13121871D01*
X202357Y-13064729D01*
X188071Y-13036157D01*
X173786Y-13021871D01*
X145214Y-13007586D01*
X373786Y-13007586D02*
X345214Y-12993300D01*
X330928Y-12979014D01*
X316643Y-12950443D01*
X316643Y-12936157D01*
X330928Y-12907586D01*
X345214Y-12893300D01*
X373786Y-12879014D01*
X430928Y-12879014D01*
X459500Y-12893300D01*
X473786Y-12907586D01*
X488071Y-12936157D01*
X488071Y-12950443D01*
X473786Y-12979014D01*
X459500Y-12993300D01*
X430928Y-13007586D01*
X373786Y-13007586D01*
X345214Y-13021871D01*
X330928Y-13036157D01*
X316643Y-13064729D01*
X316643Y-13121871D01*
X330928Y-13150443D01*
X345214Y-13164729D01*
X373786Y-13179014D01*
X430928Y-13179014D01*
X459500Y-13164729D01*
X473786Y-13150443D01*
X488071Y-13121871D01*
X488071Y-13064729D01*
X473786Y-13036157D01*
X459500Y-13021871D01*
X430928Y-13007586D01*
X616643Y-13179014D02*
X616643Y-12979014D01*
X616643Y-13007586D02*
X630928Y-12993300D01*
X659500Y-12979014D01*
X702357Y-12979014D01*
X730928Y-12993300D01*
X745214Y-13021871D01*
X745214Y-13179014D01*
X745214Y-13021871D02*
X759500Y-12993300D01*
X788071Y-12979014D01*
X830928Y-12979014D01*
X859500Y-12993300D01*
X873786Y-13021871D01*
X873786Y-13179014D01*
X1016643Y-13179014D02*
X1016643Y-12979014D01*
X1016643Y-13007586D02*
X1030928Y-12993300D01*
X1059500Y-12979014D01*
X1102357Y-12979014D01*
X1130928Y-12993300D01*
X1145214Y-13021871D01*
X1145214Y-13179014D01*
X1145214Y-13021871D02*
X1159500Y-12993300D01*
X1188071Y-12979014D01*
X1230928Y-12979014D01*
X1259500Y-12993300D01*
X1273786Y-13021871D01*
X1273786Y-13179014D01*
X1859500Y-12864729D02*
X1602357Y-13250443D01*
X2245214Y-12879014D02*
X2273786Y-12879014D01*
X2302357Y-12893300D01*
X2316643Y-12907586D01*
X2330928Y-12936157D01*
X2345214Y-12993300D01*
X2345214Y-13064729D01*
X2330928Y-13121871D01*
X2316643Y-13150443D01*
X2302357Y-13164729D01*
X2273786Y-13179014D01*
X2245214Y-13179014D01*
X2216643Y-13164729D01*
X2202357Y-13150443D01*
X2188071Y-13121871D01*
X2173786Y-13064729D01*
X2173786Y-12993300D01*
X2188071Y-12936157D01*
X2202357Y-12907586D01*
X2216643Y-12893300D01*
X2245214Y-12879014D01*
X2473786Y-13150443D02*
X2488071Y-13164729D01*
X2473786Y-13179014D01*
X2459500Y-13164729D01*
X2473786Y-13150443D01*
X2473786Y-13179014D01*
X2773786Y-13179014D02*
X2602357Y-13179014D01*
X2688071Y-13179014D02*
X2688071Y-12879014D01*
X2659500Y-12921871D01*
X2630928Y-12950443D01*
X2602357Y-12964729D01*
X3045214Y-12879014D02*
X2902357Y-12879014D01*
X2888071Y-13021871D01*
X2902357Y-13007586D01*
X2930928Y-12993300D01*
X3002357Y-12993300D01*
X3030928Y-13007586D01*
X3045214Y-13021871D01*
X3059500Y-13050443D01*
X3059500Y-13121871D01*
X3045214Y-13150443D01*
X3030928Y-13164729D01*
X3002357Y-13179014D01*
X2930928Y-13179014D01*
X2902357Y-13164729D01*
X2888071Y-13150443D01*
X3159500Y-12879014D02*
X3359500Y-12879014D01*
X3230928Y-13179014D01*
X3530928Y-12879014D02*
X3559500Y-12879014D01*
X3588071Y-12893300D01*
X3602357Y-12907586D01*
X3616643Y-12936157D01*
X3630928Y-12993300D01*
X3630928Y-13064729D01*
X3616643Y-13121871D01*
X3602357Y-13150443D01*
X3588071Y-13164729D01*
X3559500Y-13179014D01*
X3530928Y-13179014D01*
X3502357Y-13164729D01*
X3488071Y-13150443D01*
X3473786Y-13121871D01*
X3459500Y-13064729D01*
X3459500Y-12993300D01*
X3473786Y-12936157D01*
X3488071Y-12907586D01*
X3502357Y-12893300D01*
X3530928Y-12879014D01*
X3745214Y-12879014D02*
X3745214Y-12936157D01*
X3859500Y-12879014D02*
X3859500Y-12936157D01*
X4302357Y-13293300D02*
X4288071Y-13279014D01*
X4259500Y-13236157D01*
X4245214Y-13207586D01*
X4230928Y-13164729D01*
X4216643Y-13093300D01*
X4216643Y-13036157D01*
X4230928Y-12964729D01*
X4245214Y-12921871D01*
X4259500Y-12893300D01*
X4288071Y-12850443D01*
X4302357Y-12836157D01*
X4573786Y-13179014D02*
X4402357Y-13179014D01*
X4488071Y-13179014D02*
X4488071Y-12879014D01*
X4459500Y-12921871D01*
X4430928Y-12950443D01*
X4402357Y-12964729D01*
X4759500Y-12879014D02*
X4788071Y-12879014D01*
X4816643Y-12893300D01*
X4830928Y-12907586D01*
X4845214Y-12936157D01*
X4859500Y-12993300D01*
X4859500Y-13064729D01*
X4845214Y-13121871D01*
X4830928Y-13150443D01*
X4816643Y-13164729D01*
X4788071Y-13179014D01*
X4759500Y-13179014D01*
X4730928Y-13164729D01*
X4716643Y-13150443D01*
X4702357Y-13121871D01*
X4688071Y-13064729D01*
X4688071Y-12993300D01*
X4702357Y-12936157D01*
X4716643Y-12907586D01*
X4730928Y-12893300D01*
X4759500Y-12879014D01*
X5030928Y-13007586D02*
X5002357Y-12993300D01*
X4988071Y-12979014D01*
X4973786Y-12950443D01*
X4973786Y-12936157D01*
X4988071Y-12907586D01*
X5002357Y-12893300D01*
X5030928Y-12879014D01*
X5088071Y-12879014D01*
X5116643Y-12893300D01*
X5130928Y-12907586D01*
X5145214Y-12936157D01*
X5145214Y-12950443D01*
X5130928Y-12979014D01*
X5116643Y-12993300D01*
X5088071Y-13007586D01*
X5030928Y-13007586D01*
X5002357Y-13021871D01*
X4988071Y-13036157D01*
X4973786Y-13064729D01*
X4973786Y-13121871D01*
X4988071Y-13150443D01*
X5002357Y-13164729D01*
X5030928Y-13179014D01*
X5088071Y-13179014D01*
X5116643Y-13164729D01*
X5130928Y-13150443D01*
X5145214Y-13121871D01*
X5145214Y-13064729D01*
X5130928Y-13036157D01*
X5116643Y-13021871D01*
X5088071Y-13007586D01*
X5502357Y-13179014D02*
X5502357Y-12879014D01*
X5630928Y-13179014D02*
X5630928Y-13021871D01*
X5616643Y-12993300D01*
X5588071Y-12979014D01*
X5545214Y-12979014D01*
X5516643Y-12993300D01*
X5502357Y-13007586D01*
X5816643Y-13179014D02*
X5788071Y-13164729D01*
X5773786Y-13150443D01*
X5759500Y-13121871D01*
X5759500Y-13036157D01*
X5773786Y-13007586D01*
X5788071Y-12993300D01*
X5816643Y-12979014D01*
X5859500Y-12979014D01*
X5888071Y-12993300D01*
X5902357Y-13007586D01*
X5916643Y-13036157D01*
X5916643Y-13121871D01*
X5902357Y-13150443D01*
X5888071Y-13164729D01*
X5859500Y-13179014D01*
X5816643Y-13179014D01*
X6088071Y-13179014D02*
X6059500Y-13164729D01*
X6045214Y-13136157D01*
X6045214Y-12879014D01*
X6316643Y-13164729D02*
X6288071Y-13179014D01*
X6230928Y-13179014D01*
X6202357Y-13164729D01*
X6188071Y-13136157D01*
X6188071Y-13021871D01*
X6202357Y-12993300D01*
X6230928Y-12979014D01*
X6288071Y-12979014D01*
X6316643Y-12993300D01*
X6330928Y-13021871D01*
X6330928Y-13050443D01*
X6188071Y-13079014D01*
X6445214Y-13164729D02*
X6473786Y-13179014D01*
X6530928Y-13179014D01*
X6559500Y-13164729D01*
X6573786Y-13136157D01*
X6573786Y-13121871D01*
X6559500Y-13093300D01*
X6530928Y-13079014D01*
X6488071Y-13079014D01*
X6459500Y-13064729D01*
X6445214Y-13036157D01*
X6445214Y-13021871D01*
X6459500Y-12993300D01*
X6488071Y-12979014D01*
X6530928Y-12979014D01*
X6559500Y-12993300D01*
X6673786Y-13293300D02*
X6688071Y-13279014D01*
X6716643Y-13236157D01*
X6730928Y-13207586D01*
X6745214Y-13164729D01*
X6759500Y-13093300D01*
X6759500Y-13036157D01*
X6745214Y-12964729D01*
X6730928Y-12921871D01*
X6716643Y-12893300D01*
X6688071Y-12850443D01*
X6673786Y-12836157D01*
X7216643Y-13293300D02*
X7202357Y-13279014D01*
X7173786Y-13236157D01*
X7159500Y-13207586D01*
X7145214Y-13164729D01*
X7130928Y-13093300D01*
X7130928Y-13036157D01*
X7145214Y-12964729D01*
X7159500Y-12921871D01*
X7173786Y-12893300D01*
X7202357Y-12850443D01*
X7216643Y-12836157D01*
X7330928Y-12979014D02*
X7330928Y-13179014D01*
X7330928Y-13007586D02*
X7345214Y-12993300D01*
X7373786Y-12979014D01*
X7416643Y-12979014D01*
X7445214Y-12993300D01*
X7459500Y-13021871D01*
X7459500Y-13179014D01*
X7645214Y-13179014D02*
X7616643Y-13164729D01*
X7602357Y-13150443D01*
X7588071Y-13121871D01*
X7588071Y-13036157D01*
X7602357Y-13007586D01*
X7616643Y-12993300D01*
X7645214Y-12979014D01*
X7688071Y-12979014D01*
X7716643Y-12993300D01*
X7730928Y-13007586D01*
X7745214Y-13036157D01*
X7745214Y-13121871D01*
X7730928Y-13150443D01*
X7716643Y-13164729D01*
X7688071Y-13179014D01*
X7645214Y-13179014D01*
X7830928Y-12979014D02*
X7945214Y-12979014D01*
X7873786Y-12879014D02*
X7873786Y-13136157D01*
X7888071Y-13164729D01*
X7916643Y-13179014D01*
X7945214Y-13179014D01*
X8273786Y-12979014D02*
X8273786Y-13279014D01*
X8273786Y-12993300D02*
X8302357Y-12979014D01*
X8359500Y-12979014D01*
X8388071Y-12993300D01*
X8402357Y-13007586D01*
X8416643Y-13036157D01*
X8416643Y-13121871D01*
X8402357Y-13150443D01*
X8388071Y-13164729D01*
X8359500Y-13179014D01*
X8302357Y-13179014D01*
X8273786Y-13164729D01*
X8588071Y-13179014D02*
X8559500Y-13164729D01*
X8545214Y-13136157D01*
X8545214Y-12879014D01*
X8830928Y-13179014D02*
X8830928Y-13021871D01*
X8816643Y-12993300D01*
X8788071Y-12979014D01*
X8730928Y-12979014D01*
X8702357Y-12993300D01*
X8830928Y-13164729D02*
X8802357Y-13179014D01*
X8730928Y-13179014D01*
X8702357Y-13164729D01*
X8688071Y-13136157D01*
X8688071Y-13107586D01*
X8702357Y-13079014D01*
X8730928Y-13064729D01*
X8802357Y-13064729D01*
X8830928Y-13050443D01*
X8930928Y-12979014D02*
X9045214Y-12979014D01*
X8973786Y-12879014D02*
X8973786Y-13136157D01*
X8988071Y-13164729D01*
X9016643Y-13179014D01*
X9045214Y-13179014D01*
X9259500Y-13164729D02*
X9230928Y-13179014D01*
X9173786Y-13179014D01*
X9145214Y-13164729D01*
X9130928Y-13136157D01*
X9130928Y-13021871D01*
X9145214Y-12993300D01*
X9173786Y-12979014D01*
X9230928Y-12979014D01*
X9259500Y-12993300D01*
X9273786Y-13021871D01*
X9273786Y-13050443D01*
X9130928Y-13079014D01*
X9530928Y-13179014D02*
X9530928Y-12879014D01*
X9530928Y-13164729D02*
X9502357Y-13179014D01*
X9445214Y-13179014D01*
X9416643Y-13164729D01*
X9402357Y-13150443D01*
X9388071Y-13121871D01*
X9388071Y-13036157D01*
X9402357Y-13007586D01*
X9416643Y-12993300D01*
X9445214Y-12979014D01*
X9502357Y-12979014D01*
X9530928Y-12993300D01*
X9645214Y-13293300D02*
X9659500Y-13279014D01*
X9688071Y-13236157D01*
X9702357Y-13207586D01*
X9716643Y-13164729D01*
X9730928Y-13093300D01*
X9730928Y-13036157D01*
X9716643Y-12964729D01*
X9702357Y-12921871D01*
X9688071Y-12893300D01*
X9659500Y-12850443D01*
X9645214Y-12836157D01*
M02*
