  0
SECTION
  2
HEADER
  9
$ANGBASE
  50
0.0
  9
$ANGDIR
  70
1
  9
$MEASUREMENT
  70
0
  0
ENDSEC
  0
SECTION
  2
TABLES
  0
TABLE
  2
LTYPE
  70
4
  0
LTYPE
  5
40F
  2
CONTINUOUS
  70
0
  3
Solid line
  72
65
  73
0
  40
0.0
  0
LTYPE
  5
410
  2
DASHDOT
 70
0
  3
Dash Dot ____ _ ____ _
 72
65
 73
4
 40
2.0
 49
1.25
 49
-0.25
 49
0.25
 49
-0.25
  0
LTYPE
  5
411
  2
DASHED
 70
0
  3
Dashed __ __ __ __ __
 72
65
 73
2
 40
0.75
 49
0.5
 49
-0.25
  0
LTYPE
  5
43B
  2
DOTTED
 70
0
  3
Dotted .  .  .  .
 72
65
 73
2
 40
0.2
 49
0.0
 49
-0.2
  0
ENDTAB
  0
TABLE
  2
STYLE
  70
4
  0
STYLE
  2
KICAD
  70
0
  40
0
  41
1
  42
1
  50
0
  71
0
  3
isocp.shx
  0
STYLE
  2
KICADB
  70
0
  40
0
  41
1
  42
1
  50
0
  71
0
  3
isocp.shx
  0
STYLE
  2
KICADI
  70
0
  40
0
  41
1
  42
1
  50
15
  71
0
  3
isocp.shx
  0
STYLE
  2
KICADBI
  70
0
  40
0
  41
1
  42
1
  50
15
  71
0
  3
isocp.shx
  0
ENDTAB
  0
TABLE
  2
LAYER
  70
1
  0
LAYER
  2
BLACK
  70
0
  62
7
  6
CONTINUOUS
  0
ENDTAB
  0
ENDSEC
  0
SECTION
  2
ENTITIES
0
LINE
8
BLACK
6
CONTINUOUS
10
8.67673
20
-3.96596
11
8.67669
21
-3.96597
0
LINE
8
BLACK
6
CONTINUOUS
10
8.67669
20
-3.96597
11
8.67663
21
-3.96598
0
LINE
8
BLACK
6
CONTINUOUS
10
8.67663
20
-3.96598
11
8.67662
21
-3.96598
0
LINE
8
BLACK
6
CONTINUOUS
10
8.67662
20
-3.96598
11
8.67659
21
-3.96598
0
LINE
8
BLACK
6
CONTINUOUS
10
8.67659
20
-3.96598
11
8.67655
21
-3.96598
0
LINE
8
BLACK
6
CONTINUOUS
10
8.67655
20
-3.96598
11
8.67654
21
-3.96598
0
LINE
8
BLACK
6
CONTINUOUS
10
8.67654
20
-3.96598
11
8.67648
21
-3.96599
0
LINE
8
BLACK
6
CONTINUOUS
10
8.67648
20
-3.96599
11
8.67644
21
-3.96598
0
LINE
8
BLACK
6
CONTINUOUS
10
8.67644
20
-3.96598
11
7.92706
21
-3.96598
0
LINE
8
BLACK
6
CONTINUOUS
10
7.92706
20
-3.96598
11
7.92702
21
-3.96599
0
LINE
8
BLACK
6
CONTINUOUS
10
7.92702
20
-3.96599
11
7.92696
21
-3.96598
0
LINE
8
BLACK
6
CONTINUOUS
10
7.92696
20
-3.96598
11
7.92695
21
-3.96598
0
LINE
8
BLACK
6
CONTINUOUS
10
7.92695
20
-3.96598
11
7.92691
21
-3.96598
0
LINE
8
BLACK
6
CONTINUOUS
10
7.92691
20
-3.96598
11
7.92688
21
-3.96598
0
LINE
8
BLACK
6
CONTINUOUS
10
7.92688
20
-3.96598
11
7.92687
21
-3.96598
0
LINE
8
BLACK
6
CONTINUOUS
10
7.92687
20
-3.96598
11
7.92681
21
-3.96597
0
LINE
8
BLACK
6
CONTINUOUS
10
7.92681
20
-3.96597
11
7.92677
21
-3.96596
0
LINE
8
BLACK
6
CONTINUOUS
10
7.92677
20
-3.96596
11
4.59291
21
-3.37598
0
LINE
8
BLACK
6
CONTINUOUS
10
4.59291
20
-3.37598
11
4.25163
21
-3.37648
0
LINE
8
BLACK
6
CONTINUOUS
10
4.25163
20
-3.37648
11
4.25163
21
-3.37648
0
LINE
8
BLACK
6
CONTINUOUS
10
4.25163
20
-3.37648
11
4.25157
21
-3.37648
0
LINE
8
BLACK
6
CONTINUOUS
10
4.25157
20
-3.37648
11
4.25154
21
-3.37648
0
LINE
8
BLACK
6
CONTINUOUS
10
4.25154
20
-3.37648
11
4.25153
21
-3.37648
0
LINE
8
BLACK
6
CONTINUOUS
10
4.25153
20
-3.37648
11
-0.275548
21
-3.37598
0
LINE
8
BLACK
6
CONTINUOUS
10
-0.275548
20
-3.37598
11
-0.275595
21
-3.37598
0
LINE
8
BLACK
6
CONTINUOUS
10
-0.275595
20
-3.37598
11
-0.275596
21
-3.37598
0
LINE
8
BLACK
6
CONTINUOUS
10
-0.275596
20
-3.37598
11
-0.294922
21
-3.37408
0
LINE
8
BLACK
6
CONTINUOUS
10
-0.294922
20
-3.37408
11
-0.294936
21
-3.37408
0
LINE
8
BLACK
6
CONTINUOUS
10
-0.294936
20
-3.37408
11
-0.295024
21
-3.37406
0
LINE
8
BLACK
6
CONTINUOUS
10
-0.295024
20
-3.37406
11
-0.295111
21
-3.37405
0
LINE
8
BLACK
6
CONTINUOUS
10
-0.295111
20
-3.37405
11
-0.313701
21
-3.36843
0
LINE
8
BLACK
6
CONTINUOUS
10
-0.313701
20
-3.36843
11
-0.313714
21
-3.36843
0
LINE
8
BLACK
6
CONTINUOUS
10
-0.313714
20
-3.36843
11
-0.313796
21
-3.3684
0
LINE
8
BLACK
6
CONTINUOUS
10
-0.313796
20
-3.3684
11
-0.313879
21
-3.36836
0
LINE
8
BLACK
6
CONTINUOUS
10
-0.313879
20
-3.36836
11
-0.331025
21
-3.35924
0
LINE
8
BLACK
6
CONTINUOUS
10
-0.331025
20
-3.35924
11
-0.331037
21
-3.35924
0
LINE
8
BLACK
6
CONTINUOUS
10
-0.331037
20
-3.35924
11
-0.33111
21
-3.35919
0
LINE
8
BLACK
6
CONTINUOUS
10
-0.33111
20
-3.35919
11
-0.331185
21
-3.35914
0
LINE
8
BLACK
6
CONTINUOUS
10
-0.331185
20
-3.35914
11
-0.346233
21
-3.34687
0
LINE
8
BLACK
6
CONTINUOUS
10
-0.346233
20
-3.34687
11
-0.346244
21
-3.34686
0
LINE
8
BLACK
6
CONTINUOUS
10
-0.346244
20
-3.34686
11
-0.346306
21
-3.34679
0
LINE
8
BLACK
6
CONTINUOUS
10
-0.346306
20
-3.34679
11
-0.346369
21
-3.34673
0
LINE
8
BLACK
6
CONTINUOUS
10
-0.346369
20
-3.34673
11
-0.358748
21
-3.33177
0
LINE
8
BLACK
6
CONTINUOUS
10
-0.358748
20
-3.33177
11
-0.358756
21
-3.33176
0
LINE
8
BLACK
6
CONTINUOUS
10
-0.358756
20
-3.33176
11
-0.358806
21
-3.33168
0
LINE
8
BLACK
6
CONTINUOUS
10
-0.358806
20
-3.33168
11
-0.358855
21
-3.33161
0
LINE
8
BLACK
6
CONTINUOUS
10
-0.358855
20
-3.33161
11
-0.368091
21
-3.31453
0
LINE
8
BLACK
6
CONTINUOUS
10
-0.368091
20
-3.31453
11
-0.368098
21
-3.31451
0
LINE
8
BLACK
6
CONTINUOUS
10
-0.368098
20
-3.31451
11
-0.368131
21
-3.31443
0
LINE
8
BLACK
6
CONTINUOUS
10
-0.368131
20
-3.31443
11
-0.368166
21
-3.31435
0
LINE
8
BLACK
6
CONTINUOUS
10
-0.368166
20
-3.31435
11
-0.373908
21
-3.2958
0
LINE
8
BLACK
6
CONTINUOUS
10
-0.373908
20
-3.2958
11
-0.373912
21
-3.29579
0
LINE
8
BLACK
6
CONTINUOUS
10
-0.373912
20
-3.29579
11
-0.373929
21
-3.2957
0
LINE
8
BLACK
6
CONTINUOUS
10
-0.373929
20
-3.2957
11
-0.373947
21
-3.29561
0
LINE
8
BLACK
6
CONTINUOUS
10
-0.373947
20
-3.29561
11
-0.375976
21
-3.2763
0
LINE
8
BLACK
6
CONTINUOUS
10
-0.375976
20
-3.2763
11
-0.375978
21
-3.27628
0
LINE
8
BLACK
6
CONTINUOUS
10
-0.375978
20
-3.27628
11
-0.375977
21
-3.27624
0
LINE
8
BLACK
6
CONTINUOUS
10
-0.375977
20
-3.27624
11
-0.375982
21
-3.2762
0
LINE
8
BLACK
6
CONTINUOUS
10
-0.375982
20
-3.2762
11
-0.375984
21
-3.27555
0
LINE
8
BLACK
6
CONTINUOUS
10
-0.375984
20
-3.27555
11
-0.375984
21
-3.27555
0
LINE
8
BLACK
6
CONTINUOUS
10
-0.375984
20
-3.27555
11
-0.375984
21
-3.27551
0
LINE
8
BLACK
6
CONTINUOUS
10
-0.375984
20
-3.27551
11
-0.375984
21
-3.2755
0
LINE
8
BLACK
6
CONTINUOUS
10
-0.375984
20
-3.2755
11
-0.375984
21
-3.27549
0
LINE
8
BLACK
6
CONTINUOUS
10
-0.375984
20
-3.27549
11
-0.375984
21
0.369048
0
LINE
8
BLACK
6
CONTINUOUS
10
-0.375984
20
0.369048
11
-0.37598
21
0.369095
0
LINE
8
BLACK
6
CONTINUOUS
10
-0.37598
20
0.369095
11
-0.37598
21
0.369096
0
LINE
8
BLACK
6
CONTINUOUS
10
-0.37598
20
0.369096
11
-0.374085
21
0.388422
0
LINE
8
BLACK
6
CONTINUOUS
10
-0.374085
20
0.388422
11
-0.374083
21
0.388436
0
LINE
8
BLACK
6
CONTINUOUS
10
-0.374083
20
0.388436
11
-0.374064
21
0.388524
0
LINE
8
BLACK
6
CONTINUOUS
10
-0.374064
20
0.388524
11
-0.374047
21
0.388611
0
LINE
8
BLACK
6
CONTINUOUS
10
-0.374047
20
0.388611
11
-0.368435
21
0.407201
0
LINE
8
BLACK
6
CONTINUOUS
10
-0.368435
20
0.407201
11
-0.368431
21
0.407214
0
LINE
8
BLACK
6
CONTINUOUS
10
-0.368431
20
0.407214
11
-0.368395
21
0.407296
0
LINE
8
BLACK
6
CONTINUOUS
10
-0.368395
20
0.407296
11
-0.368361
21
0.407379
0
LINE
8
BLACK
6
CONTINUOUS
10
-0.368361
20
0.407379
11
-0.359245
21
0.424525
0
LINE
8
BLACK
6
CONTINUOUS
10
-0.359245
20
0.424525
11
-0.359238
21
0.424537
0
LINE
8
BLACK
6
CONTINUOUS
10
-0.359238
20
0.424537
11
-0.359188
21
0.42461
0
LINE
8
BLACK
6
CONTINUOUS
10
-0.359188
20
0.42461
11
-0.359138
21
0.424685
0
LINE
8
BLACK
6
CONTINUOUS
10
-0.359138
20
0.424685
11
-0.346865
21
0.439733
0
LINE
8
BLACK
6
CONTINUOUS
10
-0.346865
20
0.439733
11
-0.346856
21
0.439744
0
LINE
8
BLACK
6
CONTINUOUS
10
-0.346856
20
0.439744
11
-0.346792
21
0.439807
0
LINE
8
BLACK
6
CONTINUOUS
10
-0.346792
20
0.439807
11
-0.34673
21
0.439869
0
LINE
8
BLACK
6
CONTINUOUS
10
-0.34673
20
0.439869
11
-0.331767
21
0.452247
0
LINE
8
BLACK
6
CONTINUOUS
10
-0.331767
20
0.452247
11
-0.331767
21
0.452248
0
LINE
8
BLACK
6
CONTINUOUS
10
-0.331767
20
0.452248
11
-0.331767
21
0.452248
0
LINE
8
BLACK
6
CONTINUOUS
10
-0.331767
20
0.452248
11
-0.331756
21
0.452256
0
LINE
8
BLACK
6
CONTINUOUS
10
-0.331756
20
0.452256
11
-0.331681
21
0.452306
0
LINE
8
BLACK
6
CONTINUOUS
10
-0.331681
20
0.452306
11
-0.331608
21
0.452355
0
LINE
8
BLACK
6
CONTINUOUS
10
-0.331608
20
0.452355
11
-0.314526
21
0.461591
0
LINE
8
BLACK
6
CONTINUOUS
10
-0.314526
20
0.461591
11
-0.314514
21
0.461598
0
LINE
8
BLACK
6
CONTINUOUS
10
-0.314514
20
0.461598
11
-0.314431
21
0.461631
0
LINE
8
BLACK
6
CONTINUOUS
10
-0.314431
20
0.461631
11
-0.314349
21
0.461666
0
LINE
8
BLACK
6
CONTINUOUS
10
-0.314349
20
0.461666
11
-0.295798
21
0.467408
0
LINE
8
BLACK
6
CONTINUOUS
10
-0.295798
20
0.467408
11
-0.295798
21
0.467408
0
LINE
8
BLACK
6
CONTINUOUS
10
-0.295798
20
0.467408
11
-0.295785
21
0.467412
0
LINE
8
BLACK
6
CONTINUOUS
10
-0.295785
20
0.467412
11
-0.295696
21
0.467429
0
LINE
8
BLACK
6
CONTINUOUS
10
-0.295696
20
0.467429
11
-0.29561
21
0.467447
0
LINE
8
BLACK
6
CONTINUOUS
10
-0.29561
20
0.467447
11
-0.276298
21
0.469476
0
LINE
8
BLACK
6
CONTINUOUS
10
-0.276298
20
0.469476
11
-0.276284
21
0.469478
0
LINE
8
BLACK
6
CONTINUOUS
10
-0.276284
20
0.469478
11
-0.276241
21
0.469477
0
LINE
8
BLACK
6
CONTINUOUS
10
-0.276241
20
0.469477
11
-0.276198
21
0.469482
0
LINE
8
BLACK
6
CONTINUOUS
10
-0.276198
20
0.469482
11
-0.27555
21
0.469484
0
LINE
8
BLACK
6
CONTINUOUS
10
-0.27555
20
0.469484
11
-0.275548
21
0.469484
0
LINE
8
BLACK
6
CONTINUOUS
10
-0.275548
20
0.469484
11
3.8567
21
0.469484
0
LINE
8
BLACK
6
CONTINUOUS
10
3.8567
20
0.469484
11
4.96818
21
0.469364
0
LINE
8
BLACK
6
CONTINUOUS
10
4.96818
20
0.469364
11
13.1088
21
0.469484
0
LINE
8
BLACK
6
CONTINUOUS
10
13.1088
20
0.469484
11
17.2415
21
0.469484
0
LINE
8
BLACK
6
CONTINUOUS
10
17.2415
20
0.469484
11
17.2416
21
0.46948
0
LINE
8
BLACK
6
CONTINUOUS
10
17.2416
20
0.46948
11
17.2416
21
0.46948
0
LINE
8
BLACK
6
CONTINUOUS
10
17.2416
20
0.46948
11
17.2609
21
0.467585
0
LINE
8
BLACK
6
CONTINUOUS
10
17.2609
20
0.467585
11
17.2609
21
0.467583
0
LINE
8
BLACK
6
CONTINUOUS
10
17.2609
20
0.467583
11
17.261
21
0.467564
0
LINE
8
BLACK
6
CONTINUOUS
10
17.261
20
0.467564
11
17.2611
21
0.467547
0
LINE
8
BLACK
6
CONTINUOUS
10
17.2611
20
0.467547
11
17.2797
21
0.461935
0
LINE
8
BLACK
6
CONTINUOUS
10
17.2797
20
0.461935
11
17.2797
21
0.461931
0
LINE
8
BLACK
6
CONTINUOUS
10
17.2797
20
0.461931
11
17.2798
21
0.461895
0
LINE
8
BLACK
6
CONTINUOUS
10
17.2798
20
0.461895
11
17.2799
21
0.461861
0
LINE
8
BLACK
6
CONTINUOUS
10
17.2799
20
0.461861
11
17.297
21
0.452745
0
LINE
8
BLACK
6
CONTINUOUS
10
17.297
20
0.452745
11
17.297
21
0.452738
0
LINE
8
BLACK
6
CONTINUOUS
10
17.297
20
0.452738
11
17.2971
21
0.452688
0
LINE
8
BLACK
6
CONTINUOUS
10
17.2971
20
0.452688
11
17.2972
21
0.452638
0
LINE
8
BLACK
6
CONTINUOUS
10
17.2972
20
0.452638
11
17.3122
21
0.440365
0
LINE
8
BLACK
6
CONTINUOUS
10
17.3122
20
0.440365
11
17.3122
21
0.440356
0
LINE
8
BLACK
6
CONTINUOUS
10
17.3122
20
0.440356
11
17.3123
21
0.440292
0
LINE
8
BLACK
6
CONTINUOUS
10
17.3123
20
0.440292
11
17.3124
21
0.44023
0
LINE
8
BLACK
6
CONTINUOUS
10
17.3124
20
0.44023
11
17.3247
21
0.425267
0
LINE
8
BLACK
6
CONTINUOUS
10
17.3247
20
0.425267
11
17.3247
21
0.425267
0
LINE
8
BLACK
6
CONTINUOUS
10
17.3247
20
0.425267
11
17.3247
21
0.425267
0
LINE
8
BLACK
6
CONTINUOUS
10
17.3247
20
0.425267
11
17.3248
21
0.425256
0
LINE
8
BLACK
6
CONTINUOUS
10
17.3248
20
0.425256
11
17.3248
21
0.425181
0
LINE
8
BLACK
6
CONTINUOUS
10
17.3248
20
0.425181
11
17.3249
21
0.425108
0
LINE
8
BLACK
6
CONTINUOUS
10
17.3249
20
0.425108
11
17.3341
21
0.408026
0
LINE
8
BLACK
6
CONTINUOUS
10
17.3341
20
0.408026
11
17.3341
21
0.408014
0
LINE
8
BLACK
6
CONTINUOUS
10
17.3341
20
0.408014
11
17.3341
21
0.407931
0
LINE
8
BLACK
6
CONTINUOUS
10
17.3341
20
0.407931
11
17.3342
21
0.407849
0
LINE
8
BLACK
6
CONTINUOUS
10
17.3342
20
0.407849
11
17.3399
21
0.389298
0
LINE
8
BLACK
6
CONTINUOUS
10
17.3399
20
0.389298
11
17.3399
21
0.389285
0
LINE
8
BLACK
6
CONTINUOUS
10
17.3399
20
0.389285
11
17.3399
21
0.389196
0
LINE
8
BLACK
6
CONTINUOUS
10
17.3399
20
0.389196
11
17.3399
21
0.38911
0
LINE
8
BLACK
6
CONTINUOUS
10
17.3399
20
0.38911
11
17.342
21
0.369798
0
LINE
8
BLACK
6
CONTINUOUS
10
17.342
20
0.369798
11
17.342
21
0.369784
0
LINE
8
BLACK
6
CONTINUOUS
10
17.342
20
0.369784
11
17.342
21
0.369741
0
LINE
8
BLACK
6
CONTINUOUS
10
17.342
20
0.369741
11
17.342
21
0.369698
0
LINE
8
BLACK
6
CONTINUOUS
10
17.342
20
0.369698
11
17.342
21
0.36905
0
LINE
8
BLACK
6
CONTINUOUS
10
17.342
20
0.36905
11
17.342
21
0.369048
0
LINE
8
BLACK
6
CONTINUOUS
10
17.342
20
0.369048
11
17.342
21
-3.27555
0
LINE
8
BLACK
6
CONTINUOUS
10
17.342
20
-3.27555
11
17.342
21
-3.2756
0
LINE
8
BLACK
6
CONTINUOUS
10
17.342
20
-3.2756
11
17.342
21
-3.2756
0
LINE
8
BLACK
6
CONTINUOUS
10
17.342
20
-3.2756
11
17.3401
21
-3.29492
0
LINE
8
BLACK
6
CONTINUOUS
10
17.3401
20
-3.29492
11
17.3401
21
-3.29494
0
LINE
8
BLACK
6
CONTINUOUS
10
17.3401
20
-3.29494
11
17.3401
21
-3.29502
0
LINE
8
BLACK
6
CONTINUOUS
10
17.3401
20
-3.29502
11
17.34
21
-3.29511
0
LINE
8
BLACK
6
CONTINUOUS
10
17.34
20
-3.29511
11
17.3344
21
-3.3137
0
LINE
8
BLACK
6
CONTINUOUS
10
17.3344
20
-3.3137
11
17.3344
21
-3.31371
0
LINE
8
BLACK
6
CONTINUOUS
10
17.3344
20
-3.31371
11
17.3344
21
-3.3138
0
LINE
8
BLACK
6
CONTINUOUS
10
17.3344
20
-3.3138
11
17.3344
21
-3.31388
0
LINE
8
BLACK
6
CONTINUOUS
10
17.3344
20
-3.31388
11
17.3252
21
-3.33102
0
LINE
8
BLACK
6
CONTINUOUS
10
17.3252
20
-3.33102
11
17.3252
21
-3.33104
0
LINE
8
BLACK
6
CONTINUOUS
10
17.3252
20
-3.33104
11
17.3252
21
-3.33111
0
LINE
8
BLACK
6
CONTINUOUS
10
17.3252
20
-3.33111
11
17.3251
21
-3.33118
0
LINE
8
BLACK
6
CONTINUOUS
10
17.3251
20
-3.33118
11
17.3129
21
-3.34623
0
LINE
8
BLACK
6
CONTINUOUS
10
17.3129
20
-3.34623
11
17.3129
21
-3.34624
0
LINE
8
BLACK
6
CONTINUOUS
10
17.3129
20
-3.34624
11
17.3128
21
-3.34631
0
LINE
8
BLACK
6
CONTINUOUS
10
17.3128
20
-3.34631
11
17.3127
21
-3.34637
0
LINE
8
BLACK
6
CONTINUOUS
10
17.3127
20
-3.34637
11
17.2978
21
-3.35875
0
LINE
8
BLACK
6
CONTINUOUS
10
17.2978
20
-3.35875
11
17.2978
21
-3.35876
0
LINE
8
BLACK
6
CONTINUOUS
10
17.2978
20
-3.35876
11
17.2977
21
-3.35881
0
LINE
8
BLACK
6
CONTINUOUS
10
17.2977
20
-3.35881
11
17.2976
21
-3.35886
0
LINE
8
BLACK
6
CONTINUOUS
10
17.2976
20
-3.35886
11
17.2805
21
-3.36809
0
LINE
8
BLACK
6
CONTINUOUS
10
17.2805
20
-3.36809
11
17.2805
21
-3.3681
0
LINE
8
BLACK
6
CONTINUOUS
10
17.2805
20
-3.3681
11
17.2804
21
-3.36813
0
LINE
8
BLACK
6
CONTINUOUS
10
17.2804
20
-3.36813
11
17.2803
21
-3.36817
0
LINE
8
BLACK
6
CONTINUOUS
10
17.2803
20
-3.36817
11
17.2618
21
-3.37391
0
LINE
8
BLACK
6
CONTINUOUS
10
17.2618
20
-3.37391
11
17.2618
21
-3.37391
0
LINE
8
BLACK
6
CONTINUOUS
10
17.2618
20
-3.37391
11
17.2617
21
-3.37393
0
LINE
8
BLACK
6
CONTINUOUS
10
17.2617
20
-3.37393
11
17.2616
21
-3.37395
0
LINE
8
BLACK
6
CONTINUOUS
10
17.2616
20
-3.37395
11
17.2423
21
-3.37598
0
LINE
8
BLACK
6
CONTINUOUS
10
17.2423
20
-3.37598
11
17.2423
21
-3.37598
0
LINE
8
BLACK
6
CONTINUOUS
10
17.2423
20
-3.37598
11
17.2422
21
-3.37598
0
LINE
8
BLACK
6
CONTINUOUS
10
17.2422
20
-3.37598
11
17.2422
21
-3.37598
0
LINE
8
BLACK
6
CONTINUOUS
10
17.2422
20
-3.37598
11
17.2415
21
-3.37598
0
LINE
8
BLACK
6
CONTINUOUS
10
17.2415
20
-3.37598
11
17.2415
21
-3.37598
0
LINE
8
BLACK
6
CONTINUOUS
10
17.2415
20
-3.37598
11
12.0051
21
-3.37598
0
LINE
8
BLACK
6
CONTINUOUS
10
12.0051
20
-3.37598
11
8.67673
21
-3.96596
0
LINE
8
BLACK
6
CONTINUOUS
10
3.8567
20
0.467516
11
3.8567
21
0.467516
0
LINE
8
BLACK
6
CONTINUOUS
10
3.8567
20
0.467516
11
-0.275497
21
0.467516
0
LINE
8
BLACK
6
CONTINUOUS
10
-0.275497
20
0.467516
11
-0.276141
21
0.467513
0
LINE
8
BLACK
6
CONTINUOUS
10
-0.276141
20
0.467513
11
-0.295308
21
0.465499
0
LINE
8
BLACK
6
CONTINUOUS
10
-0.295308
20
0.465499
11
-0.313675
21
0.459814
0
LINE
8
BLACK
6
CONTINUOUS
10
-0.313675
20
0.459814
11
-0.330587
21
0.450669
0
LINE
8
BLACK
6
CONTINUOUS
10
-0.330587
20
0.450669
11
-0.345401
21
0.438414
0
LINE
8
BLACK
6
CONTINUOUS
10
-0.345401
20
0.438414
11
-0.357552
21
0.423515
0
LINE
8
BLACK
6
CONTINUOUS
10
-0.357552
20
0.423515
11
-0.366578
21
0.40654
0
LINE
8
BLACK
6
CONTINUOUS
10
-0.366578
20
0.40654
11
-0.372135
21
0.388134
0
LINE
8
BLACK
6
CONTINUOUS
10
-0.372135
20
0.388134
11
-0.374016
21
0.368952
0
LINE
8
BLACK
6
CONTINUOUS
10
-0.374016
20
0.368952
11
-0.374016
21
-3.2755
0
LINE
8
BLACK
6
CONTINUOUS
10
-0.374016
20
-3.2755
11
-0.374013
21
-3.27614
0
LINE
8
BLACK
6
CONTINUOUS
10
-0.374013
20
-3.27614
11
-0.371999
21
-3.29531
0
LINE
8
BLACK
6
CONTINUOUS
10
-0.371999
20
-3.29531
11
-0.366314
21
-3.31367
0
LINE
8
BLACK
6
CONTINUOUS
10
-0.366314
20
-3.31367
11
-0.357169
21
-3.33059
0
LINE
8
BLACK
6
CONTINUOUS
10
-0.357169
20
-3.33059
11
-0.344914
21
-3.3454
0
LINE
8
BLACK
6
CONTINUOUS
10
-0.344914
20
-3.3454
11
-0.330015
21
-3.35755
0
LINE
8
BLACK
6
CONTINUOUS
10
-0.330015
20
-3.35755
11
-0.31304
21
-3.36658
0
LINE
8
BLACK
6
CONTINUOUS
10
-0.31304
20
-3.36658
11
-0.294634
21
-3.37213
0
LINE
8
BLACK
6
CONTINUOUS
10
-0.294634
20
-3.37213
11
-0.275452
21
-3.37402
0
LINE
8
BLACK
6
CONTINUOUS
10
-0.275452
20
-3.37402
11
4.25156
21
-3.37452
0
LINE
8
BLACK
6
CONTINUOUS
10
4.25156
20
-3.37452
11
4.59294
21
-3.37402
0
LINE
8
BLACK
6
CONTINUOUS
10
4.59294
20
-3.37402
11
4.59298
21
-3.37401
0
LINE
8
BLACK
6
CONTINUOUS
10
4.59298
20
-3.37401
11
4.59304
21
-3.37402
0
LINE
8
BLACK
6
CONTINUOUS
10
4.59304
20
-3.37402
11
4.59305
21
-3.37402
0
LINE
8
BLACK
6
CONTINUOUS
10
4.59305
20
-3.37402
11
4.59309
21
-3.37402
0
LINE
8
BLACK
6
CONTINUOUS
10
4.59309
20
-3.37402
11
4.59312
21
-3.37402
0
LINE
8
BLACK
6
CONTINUOUS
10
4.59312
20
-3.37402
11
4.59313
21
-3.37402
0
LINE
8
BLACK
6
CONTINUOUS
10
4.59313
20
-3.37402
11
4.59319
21
-3.37403
0
LINE
8
BLACK
6
CONTINUOUS
10
4.59319
20
-3.37403
11
4.59323
21
-3.37404
0
LINE
8
BLACK
6
CONTINUOUS
10
4.59323
20
-3.37404
11
7.92709
21
-3.96402
0
LINE
8
BLACK
6
CONTINUOUS
10
7.92709
20
-3.96402
11
8.67641
21
-3.96402
0
LINE
8
BLACK
6
CONTINUOUS
10
8.67641
20
-3.96402
11
12.0048
21
-3.37404
0
LINE
8
BLACK
6
CONTINUOUS
10
12.0048
20
-3.37404
11
12.0048
21
-3.37403
0
LINE
8
BLACK
6
CONTINUOUS
10
12.0048
20
-3.37403
11
12.0049
21
-3.37402
0
LINE
8
BLACK
6
CONTINUOUS
10
12.0049
20
-3.37402
11
12.0049
21
-3.37402
0
LINE
8
BLACK
6
CONTINUOUS
10
12.0049
20
-3.37402
11
12.0049
21
-3.37402
0
LINE
8
BLACK
6
CONTINUOUS
10
12.0049
20
-3.37402
11
12.005
21
-3.37402
0
LINE
8
BLACK
6
CONTINUOUS
10
12.005
20
-3.37402
11
12.005
21
-3.37402
0
LINE
8
BLACK
6
CONTINUOUS
10
12.005
20
-3.37402
11
12.005
21
-3.37401
0
LINE
8
BLACK
6
CONTINUOUS
10
12.005
20
-3.37401
11
12.0051
21
-3.37402
0
LINE
8
BLACK
6
CONTINUOUS
10
12.0051
20
-3.37402
11
17.2415
21
-3.37402
0
LINE
8
BLACK
6
CONTINUOUS
10
17.2415
20
-3.37402
11
17.2421
21
-3.37401
0
LINE
8
BLACK
6
CONTINUOUS
10
17.2421
20
-3.37401
11
17.2613
21
-3.372
0
LINE
8
BLACK
6
CONTINUOUS
10
17.2613
20
-3.372
11
17.2797
21
-3.36631
0
LINE
8
BLACK
6
CONTINUOUS
10
17.2797
20
-3.36631
11
17.2966
21
-3.35717
0
LINE
8
BLACK
6
CONTINUOUS
10
17.2966
20
-3.35717
11
17.3114
21
-3.34491
0
LINE
8
BLACK
6
CONTINUOUS
10
17.3114
20
-3.34491
11
17.3236
21
-3.33002
0
LINE
8
BLACK
6
CONTINUOUS
10
17.3236
20
-3.33002
11
17.3326
21
-3.31304
0
LINE
8
BLACK
6
CONTINUOUS
10
17.3326
20
-3.31304
11
17.3381
21
-3.29463
0
LINE
8
BLACK
6
CONTINUOUS
10
17.3381
20
-3.29463
11
17.34
21
-3.27545
0
LINE
8
BLACK
6
CONTINUOUS
10
17.34
20
-3.27545
11
17.34
21
0.368996
0
LINE
8
BLACK
6
CONTINUOUS
10
17.34
20
0.368996
11
17.34
21
0.368997
0
LINE
8
BLACK
6
CONTINUOUS
10
17.34
20
0.368997
11
17.34
21
0.369641
0
LINE
8
BLACK
6
CONTINUOUS
10
17.34
20
0.369641
11
17.338
21
0.388808
0
LINE
8
BLACK
6
CONTINUOUS
10
17.338
20
0.388808
11
17.3323
21
0.407175
0
LINE
8
BLACK
6
CONTINUOUS
10
17.3323
20
0.407175
11
17.3232
21
0.424087
0
LINE
8
BLACK
6
CONTINUOUS
10
17.3232
20
0.424087
11
17.3109
21
0.438901
0
LINE
8
BLACK
6
CONTINUOUS
10
17.3109
20
0.438901
11
17.296
21
0.451052
0
LINE
8
BLACK
6
CONTINUOUS
10
17.296
20
0.451052
11
17.279
21
0.460078
0
LINE
8
BLACK
6
CONTINUOUS
10
17.279
20
0.460078
11
17.2606
21
0.465635
0
LINE
8
BLACK
6
CONTINUOUS
10
17.2606
20
0.465635
11
17.2415
21
0.467516
0
LINE
8
BLACK
6
CONTINUOUS
10
17.2415
20
0.467516
11
13.1088
21
0.467516
0
LINE
8
BLACK
6
CONTINUOUS
10
13.1088
20
0.467516
11
13.1088
21
0.467516
0
LINE
8
BLACK
6
CONTINUOUS
10
13.1088
20
0.467516
11
4.96819
21
0.467396
0
LINE
8
BLACK
6
CONTINUOUS
10
4.96819
20
0.467396
11
4.96809
21
0.467396
0
LINE
8
BLACK
6
CONTINUOUS
10
4.96809
20
0.467396
11
3.8567
21
0.467516
  0
ENDSEC
  0
EOF
