%TF.GenerationSoftware,KiCad,Pcbnew,(5.1.10)-1*%
%TF.CreationDate,2021-07-27T21:23:13-07:00*%
%TF.ProjectId,V2,56322e6b-6963-4616-945f-706362585858,rev?*%
%TF.SameCoordinates,Original*%
%TF.FileFunction,Soldermask,Top*%
%TF.FilePolarity,Negative*%
%FSLAX46Y46*%
G04 Gerber Fmt 4.6, Leading zero omitted, Abs format (unit mm)*
G04 Created by KiCad (PCBNEW (5.1.10)-1) date 2021-07-27 21:23:13*
%MOMM*%
%LPD*%
G01*
G04 APERTURE LIST*
%ADD10C,3.987800*%
%ADD11C,3.048000*%
%ADD12C,1.750000*%
%ADD13C,3.000000*%
%ADD14R,2.000000X3.250000*%
%ADD15R,3.250000X2.000000*%
%ADD16C,1.752600*%
%ADD17R,1.752600X1.752600*%
G04 APERTURE END LIST*
D10*
%TO.C,MX92*%
X-2413000Y-67945000D03*
X21463000Y-67945000D03*
D11*
X-2413000Y-83185000D03*
X21463000Y-83185000D03*
D12*
X14605000Y-76200000D03*
X4445000Y-76200000D03*
D13*
X5715000Y-73660000D03*
D10*
X9525000Y-76200000D03*
D13*
X12065000Y-71120000D03*
%TD*%
D12*
%TO.C,MX53*%
X254869945Y-5491606D03*
X244864299Y-7255872D03*
D13*
X245673938Y-4533927D03*
D10*
X249867122Y-6373739D03*
D13*
X251486401Y-929849D03*
%TD*%
D14*
%TO.C,U1*%
X218200000Y-21215000D03*
X215660000Y-21215000D03*
X213120000Y-21215000D03*
X210580000Y-21215000D03*
X208040000Y-21215000D03*
D15*
X222518000Y8630000D03*
X222518000Y6090000D03*
X222518000Y3550000D03*
X222518000Y1010000D03*
X222518000Y-1530000D03*
X222518000Y-4070000D03*
X222518000Y-6610000D03*
X222518000Y-9150000D03*
X222518000Y-11690000D03*
X222518000Y-14230000D03*
X222518000Y-16770000D03*
X222518000Y-19310000D03*
X203722000Y-19310000D03*
X203722000Y-16770000D03*
X203722000Y-14230000D03*
X203722000Y-11690000D03*
X203722000Y-9150000D03*
X203722000Y-6610000D03*
X203722000Y-4070000D03*
X203722000Y-1530000D03*
X203722000Y1010000D03*
X203722000Y3550000D03*
X203722000Y6090000D03*
X203722000Y8630000D03*
D16*
X208040000Y-19310000D03*
X210580000Y-19310000D03*
X213120000Y-19310000D03*
X215660000Y-19310000D03*
X218200000Y-19310000D03*
X220740000Y8630000D03*
X205728600Y-19310000D03*
X220740000Y6090000D03*
X220740000Y3550000D03*
X220740000Y1010000D03*
X220740000Y-1530000D03*
X220740000Y-4070000D03*
X220740000Y-6610000D03*
X220740000Y-9150000D03*
X220740000Y-11690000D03*
X220740000Y-14230000D03*
X220740000Y-16770000D03*
X220740000Y-19310000D03*
X205500000Y-16770000D03*
X205500000Y-14230000D03*
X205500000Y-11690000D03*
X205500000Y-9150000D03*
X205500000Y-6610000D03*
X205500000Y-4070000D03*
X205500000Y-1530000D03*
X205500000Y1010000D03*
X205500000Y3550000D03*
X205500000Y6090000D03*
D17*
X205500000Y8630000D03*
%TD*%
D12*
%TO.C,MX91*%
X428199546Y-76200000D03*
X418039546Y-76200000D03*
D13*
X419309546Y-73660000D03*
D10*
X423119546Y-76200000D03*
D13*
X425659546Y-71120000D03*
%TD*%
D12*
%TO.C,MX90*%
X409149546Y-57150000D03*
X398989546Y-57150000D03*
D13*
X400259546Y-54610000D03*
D10*
X404069546Y-57150000D03*
D13*
X406609546Y-52070000D03*
%TD*%
D12*
%TO.C,MX89*%
X428199546Y-38100000D03*
X418039546Y-38100000D03*
D13*
X419309546Y-35560000D03*
D10*
X423119546Y-38100000D03*
D13*
X425659546Y-33020000D03*
%TD*%
D12*
%TO.C,MX88*%
X428199546Y-19050000D03*
X418039546Y-19050000D03*
D13*
X419309546Y-16510000D03*
D10*
X423119546Y-19050000D03*
D13*
X425659546Y-13970000D03*
%TD*%
D12*
%TO.C,MX87*%
X428199546Y0D03*
X418039546Y0D03*
D13*
X419309546Y2540000D03*
D10*
X423119546Y0D03*
D13*
X425659546Y5080000D03*
%TD*%
D12*
%TO.C,MX86*%
X409149546Y-76200000D03*
X398989546Y-76200000D03*
D13*
X400259546Y-73660000D03*
D10*
X404069546Y-76200000D03*
D13*
X406609546Y-71120000D03*
%TD*%
D12*
%TO.C,MX85*%
X390099546Y-57150000D03*
X379939546Y-57150000D03*
D13*
X381209546Y-54610000D03*
D10*
X385019546Y-57150000D03*
D13*
X387559546Y-52070000D03*
%TD*%
D10*
%TO.C,MX84*%
X361175296Y-46355000D03*
X385051296Y-46355000D03*
D11*
X361175296Y-31115000D03*
X385051296Y-31115000D03*
D12*
X378193296Y-38100000D03*
X368033296Y-38100000D03*
D13*
X369303296Y-35560000D03*
D10*
X373113296Y-38100000D03*
D13*
X375653296Y-33020000D03*
%TD*%
D12*
%TO.C,MX83*%
X385337046Y-19050000D03*
X375177046Y-19050000D03*
D13*
X376447046Y-16510000D03*
D10*
X380257046Y-19050000D03*
D13*
X382797046Y-13970000D03*
%TD*%
D10*
%TO.C,MX82*%
X363556546Y-8255000D03*
X387432546Y-8255000D03*
D11*
X363556546Y6985000D03*
X387432546Y6985000D03*
D12*
X380574546Y0D03*
X370414546Y0D03*
D13*
X371684546Y2540000D03*
D10*
X375494546Y0D03*
D13*
X378034546Y5080000D03*
%TD*%
D12*
%TO.C,MX81*%
X390099546Y-76200000D03*
X379939546Y-76200000D03*
D13*
X381209546Y-73660000D03*
D10*
X385019546Y-76200000D03*
D13*
X387559546Y-71120000D03*
%TD*%
D12*
%TO.C,MX80*%
X363905796Y-57150000D03*
X353745796Y-57150000D03*
D13*
X355015796Y-54610000D03*
D10*
X358825796Y-57150000D03*
D13*
X361365796Y-52070000D03*
%TD*%
D12*
%TO.C,MX79*%
X347237046Y-38100000D03*
X337077046Y-38100000D03*
D13*
X338347046Y-35560000D03*
D10*
X342157046Y-38100000D03*
D13*
X344697046Y-33020000D03*
%TD*%
D12*
%TO.C,MX78*%
X361524546Y-19050000D03*
X351364546Y-19050000D03*
D13*
X352634546Y-16510000D03*
D10*
X356444546Y-19050000D03*
D13*
X358984546Y-13970000D03*
%TD*%
D12*
%TO.C,MX77*%
X351999546Y0D03*
X341839546Y0D03*
D13*
X343109546Y2540000D03*
D10*
X346919546Y0D03*
D13*
X349459546Y5080000D03*
%TD*%
D12*
%TO.C,MX76*%
X368668296Y-76200000D03*
X358508296Y-76200000D03*
D13*
X359778296Y-73660000D03*
D10*
X363588296Y-76200000D03*
D13*
X366128296Y-71120000D03*
%TD*%
D12*
%TO.C,MX75*%
X337712046Y-57150000D03*
X327552046Y-57150000D03*
D13*
X328822046Y-54610000D03*
D10*
X332632046Y-57150000D03*
D13*
X335172046Y-52070000D03*
%TD*%
D12*
%TO.C,MX74*%
X328187046Y-38100000D03*
X318027046Y-38100000D03*
D13*
X319297046Y-35560000D03*
D10*
X323107046Y-38100000D03*
D13*
X325647046Y-33020000D03*
%TD*%
D12*
%TO.C,MX73*%
X342474546Y-19050000D03*
X332314546Y-19050000D03*
D13*
X333584546Y-16510000D03*
D10*
X337394546Y-19050000D03*
D13*
X339934546Y-13970000D03*
%TD*%
D12*
%TO.C,MX72*%
X332949546Y0D03*
X322789546Y0D03*
D13*
X324059546Y2540000D03*
D10*
X327869546Y0D03*
D13*
X330409546Y5080000D03*
%TD*%
D12*
%TO.C,MX71*%
X344855796Y-76200000D03*
X334695796Y-76200000D03*
D13*
X335965796Y-73660000D03*
D10*
X339775796Y-76200000D03*
D13*
X342315796Y-71120000D03*
%TD*%
D12*
%TO.C,MX70*%
X304660185Y-54743874D03*
X294654539Y-56508140D03*
D13*
X295464178Y-53786195D03*
D10*
X299657362Y-55626007D03*
D13*
X301276641Y-50182117D03*
%TD*%
D12*
%TO.C,MX69*%
X323424546Y-19050000D03*
X313264546Y-19050000D03*
D13*
X314534546Y-16510000D03*
D10*
X318344546Y-19050000D03*
D13*
X320884546Y-13970000D03*
%TD*%
D12*
%TO.C,MX68*%
X313899546Y0D03*
X303739546Y0D03*
D13*
X305009546Y2540000D03*
D10*
X308819546Y0D03*
D13*
X311359546Y5080000D03*
%TD*%
D12*
%TO.C,MX67*%
X321043296Y-76200000D03*
X310883296Y-76200000D03*
D13*
X312153296Y-73660000D03*
D10*
X315963296Y-76200000D03*
D13*
X318503296Y-71120000D03*
%TD*%
D12*
%TO.C,MX66*%
X285899598Y-58051871D03*
X275893952Y-59816137D03*
D13*
X276703591Y-57094192D03*
D10*
X280896775Y-58934004D03*
D13*
X282516054Y-53490114D03*
%TD*%
D12*
%TO.C,MX65*%
X299007113Y-36396786D03*
X289001467Y-38161052D03*
D13*
X289811106Y-35439107D03*
D10*
X294004290Y-37278919D03*
D13*
X295623569Y-31835029D03*
%TD*%
D12*
%TO.C,MX64*%
X286318822Y-19290198D03*
X276313176Y-21054464D03*
D13*
X277122815Y-18332519D03*
D10*
X281315999Y-20172331D03*
D13*
X282935278Y-14728441D03*
%TD*%
D12*
%TO.C,MX63*%
X292391119Y1124388D03*
X282385473Y-639878D03*
D13*
X283195112Y2082067D03*
D10*
X287388296Y242255D03*
D13*
X289007575Y5686145D03*
%TD*%
D12*
%TO.C,MX62*%
X286862522Y-77225957D03*
X276856876Y-78990223D03*
D13*
X277666515Y-76268278D03*
D10*
X281859699Y-78108090D03*
D13*
X283478978Y-72664200D03*
%TD*%
D12*
%TO.C,MX61*%
X267139011Y-61359868D03*
X257133365Y-63124134D03*
D13*
X257943004Y-60402189D03*
D10*
X262136188Y-62242001D03*
D13*
X263755467Y-56798111D03*
%TD*%
D12*
%TO.C,MX60*%
X280246526Y-39704783D03*
X270240880Y-41469049D03*
D13*
X271050519Y-38747104D03*
D10*
X275243703Y-40586916D03*
D13*
X276862982Y-35143026D03*
%TD*%
D12*
%TO.C,MX59*%
X267558235Y-22598195D03*
X257552589Y-24362461D03*
D13*
X258362228Y-21640516D03*
D10*
X262555412Y-23480328D03*
D13*
X264174691Y-18036438D03*
%TD*%
D12*
%TO.C,MX58*%
X273630532Y-2183609D03*
X263624886Y-3947875D03*
D13*
X264434525Y-1225930D03*
D10*
X268627709Y-3065742D03*
D13*
X270246988Y2378148D03*
%TD*%
D10*
%TO.C,MX57*%
X231148423Y-78667509D03*
X254661693Y-74521485D03*
D11*
X233794822Y-93675979D03*
X257308091Y-89529955D03*
D12*
X249341347Y-83841952D03*
X239335701Y-85606218D03*
D13*
X240145340Y-82884273D03*
D10*
X244338524Y-84724085D03*
D13*
X245957803Y-79280195D03*
%TD*%
D12*
%TO.C,MX56*%
X248378424Y-64667865D03*
X238372778Y-66432131D03*
D13*
X239182417Y-63710186D03*
D10*
X243375601Y-65549998D03*
D13*
X244994880Y-60106108D03*
%TD*%
D12*
%TO.C,MX55*%
X261485939Y-43012780D03*
X251480293Y-44777046D03*
D13*
X252289932Y-42055101D03*
D10*
X256483116Y-43894913D03*
D13*
X258102395Y-38451023D03*
%TD*%
D12*
%TO.C,MX54*%
X248797648Y-25906192D03*
X238792002Y-27670458D03*
D13*
X239601641Y-24948513D03*
D10*
X243794825Y-26788325D03*
D13*
X245414104Y-21344435D03*
%TD*%
D12*
%TO.C,MX52*%
X229617837Y-67975862D03*
X219612191Y-69740128D03*
D13*
X220421830Y-67018183D03*
D10*
X224615014Y-68857995D03*
D13*
X226234293Y-63414105D03*
%TD*%
D12*
%TO.C,MX51*%
X242725352Y-46320777D03*
X232719706Y-48085043D03*
D13*
X233529345Y-45363098D03*
D10*
X237722529Y-47202910D03*
D13*
X239341808Y-41759020D03*
%TD*%
D12*
%TO.C,MX50*%
X230037061Y-29214189D03*
X220031415Y-30978455D03*
D13*
X220841054Y-28256510D03*
D10*
X225034238Y-30096322D03*
D13*
X226653517Y-24652432D03*
%TD*%
D12*
%TO.C,MX49*%
X236109358Y-8799603D03*
X226103712Y-10563869D03*
D13*
X226913351Y-7841924D03*
D10*
X231106535Y-9681736D03*
D13*
X232725814Y-4237846D03*
%TD*%
D12*
%TO.C,MX48*%
X209532562Y-89741216D03*
X199526916Y-87976950D03*
D13*
X201218688Y-85696072D03*
D10*
X204529739Y-88859083D03*
D13*
X207913283Y-84297326D03*
%TD*%
D12*
%TO.C,MX47*%
X205805337Y-69740128D03*
X195799691Y-67975862D03*
D13*
X197491463Y-65694984D03*
D10*
X200802514Y-68857995D03*
D13*
X204186058Y-64296238D03*
%TD*%
D12*
%TO.C,MX46*%
X196449938Y-48746644D03*
X186444292Y-46982378D03*
D13*
X188136064Y-44701500D03*
D10*
X191447115Y-47864511D03*
D13*
X194830659Y-43302754D03*
%TD*%
D12*
%TO.C,MX45*%
X192722715Y-28745558D03*
X182717069Y-26981292D03*
D13*
X184408841Y-24700414D03*
D10*
X187719892Y-27863425D03*
D13*
X191103436Y-23301668D03*
%TD*%
D12*
%TO.C,MX44*%
X200720859Y-10811971D03*
X190715213Y-9047705D03*
D13*
X192406985Y-6766827D03*
D10*
X195718036Y-9929838D03*
D13*
X199101580Y-5368081D03*
%TD*%
D10*
%TO.C,MX43*%
X163720615Y-73280987D03*
X187233885Y-77427011D03*
D11*
X161074217Y-88289457D03*
X184587486Y-92435481D03*
D12*
X179046607Y-84365720D03*
X169040961Y-82601454D03*
D13*
X170732733Y-80320576D03*
D10*
X174043784Y-83483587D03*
D13*
X177427328Y-78921830D03*
%TD*%
D12*
%TO.C,MX42*%
X187044750Y-66432131D03*
X177039104Y-64667865D03*
D13*
X178730876Y-62386987D03*
D10*
X182041927Y-65549998D03*
D13*
X185425471Y-60988241D03*
%TD*%
D12*
%TO.C,MX41*%
X177689351Y-45438647D03*
X167683705Y-43674381D03*
D13*
X169375477Y-41393503D03*
D10*
X172686528Y-44556514D03*
D13*
X176070072Y-39994757D03*
%TD*%
D12*
%TO.C,MX40*%
X173962128Y-25437561D03*
X163956482Y-23673295D03*
D13*
X165648254Y-21392417D03*
D10*
X168959305Y-24555428D03*
D13*
X172342849Y-19993671D03*
%TD*%
D12*
%TO.C,MX39*%
X181960272Y-7503974D03*
X171954626Y-5739708D03*
D13*
X173646398Y-3458830D03*
D10*
X176957449Y-6621841D03*
D13*
X180340993Y-2060084D03*
%TD*%
D12*
%TO.C,MX38*%
X168284163Y-63124134D03*
X158278517Y-61359868D03*
D13*
X159970289Y-59078990D03*
D10*
X163281340Y-62242001D03*
D13*
X166664884Y-57680244D03*
%TD*%
D12*
%TO.C,MX37*%
X158928764Y-42130650D03*
X148923118Y-40366384D03*
D13*
X150614890Y-38085506D03*
D10*
X153925941Y-41248517D03*
D13*
X157309485Y-36686760D03*
%TD*%
D12*
%TO.C,MX36*%
X155201541Y-22129564D03*
X145195895Y-20365298D03*
D13*
X146887667Y-18084420D03*
D10*
X150198718Y-21247431D03*
D13*
X153582262Y-16685674D03*
%TD*%
D12*
%TO.C,MX35*%
X163199685Y-4195977D03*
X153194039Y-2431711D03*
D13*
X154885811Y-150833D03*
D10*
X158196862Y-3313844D03*
D13*
X161580406Y1247913D03*
%TD*%
D12*
%TO.C,MX34*%
X146116339Y-79139542D03*
X136110693Y-77375276D03*
D13*
X137802465Y-75094398D03*
D10*
X141113516Y-78257409D03*
D13*
X144497060Y-73695652D03*
%TD*%
D12*
%TO.C,MX33*%
X149523576Y-59816137D03*
X139517930Y-58051871D03*
D13*
X141209702Y-55770993D03*
D10*
X144520753Y-58934004D03*
D13*
X147904297Y-54372247D03*
%TD*%
D12*
%TO.C,MX32*%
X140168177Y-38822653D03*
X130162531Y-37058387D03*
D13*
X131854303Y-34777509D03*
D10*
X135165354Y-37940520D03*
D13*
X138548898Y-33378763D03*
%TD*%
D12*
%TO.C,MX31*%
X136440954Y-18821567D03*
X126435308Y-17057301D03*
D13*
X128127080Y-14776423D03*
D10*
X131438131Y-17939434D03*
D13*
X134821675Y-13377677D03*
%TD*%
D12*
%TO.C,MX30*%
X144439098Y-887980D03*
X134433452Y876286D03*
D13*
X136125224Y3157164D03*
D10*
X139436275Y-5847D03*
D13*
X142819819Y4555910D03*
%TD*%
D12*
%TO.C,MX29*%
X128905000Y-57150000D03*
X118745000Y-57150000D03*
D13*
X120015000Y-54610000D03*
D10*
X123825000Y-57150000D03*
D13*
X126365000Y-52070000D03*
%TD*%
D12*
%TO.C,MX28*%
X119380000Y-38100000D03*
X109220000Y-38100000D03*
D13*
X110490000Y-35560000D03*
D10*
X114300000Y-38100000D03*
D13*
X116840000Y-33020000D03*
%TD*%
D12*
%TO.C,MX27*%
X114617500Y-19050000D03*
X104457500Y-19050000D03*
D13*
X105727500Y-16510000D03*
D10*
X109537500Y-19050000D03*
D13*
X112077500Y-13970000D03*
%TD*%
D12*
%TO.C,MX26*%
X124142500Y2857500D03*
X113982500Y2857500D03*
D13*
X115252500Y5397500D03*
D10*
X119062500Y2857500D03*
D13*
X121602500Y7937500D03*
%TD*%
D12*
%TO.C,MX25*%
X105092500Y0D03*
X94932500Y0D03*
D13*
X96202500Y2540000D03*
D10*
X100012500Y0D03*
D13*
X102552500Y5080000D03*
%TD*%
D12*
%TO.C,MX24*%
X112236250Y-76200000D03*
X102076250Y-76200000D03*
D13*
X103346250Y-73660000D03*
D10*
X107156250Y-76200000D03*
D13*
X109696250Y-71120000D03*
%TD*%
D10*
%TO.C,MX23*%
X80930750Y-65405000D03*
X104806750Y-65405000D03*
D11*
X80930750Y-50165000D03*
X104806750Y-50165000D03*
D12*
X97948750Y-57150000D03*
X87788750Y-57150000D03*
D13*
X89058750Y-54610000D03*
D10*
X92868750Y-57150000D03*
D13*
X95408750Y-52070000D03*
%TD*%
D12*
%TO.C,MX22*%
X93186250Y-38100000D03*
X83026250Y-38100000D03*
D13*
X84296250Y-35560000D03*
D10*
X88106250Y-38100000D03*
D13*
X90646250Y-33020000D03*
%TD*%
D12*
%TO.C,MX21*%
X90805000Y-19050000D03*
X80645000Y-19050000D03*
D13*
X81915000Y-16510000D03*
D10*
X85725000Y-19050000D03*
D13*
X88265000Y-13970000D03*
%TD*%
D12*
%TO.C,MX20*%
X86042500Y0D03*
X75882500Y0D03*
D13*
X77152500Y2540000D03*
D10*
X80962500Y0D03*
D13*
X83502500Y5080000D03*
%TD*%
D12*
%TO.C,MX19*%
X88423750Y-76200000D03*
X78263750Y-76200000D03*
D13*
X79533750Y-73660000D03*
D10*
X83343750Y-76200000D03*
D13*
X85883750Y-71120000D03*
%TD*%
D10*
%TO.C,MX18*%
X65405000Y-78613000D03*
X65405000Y-54737000D03*
D11*
X50165000Y-78613000D03*
X50165000Y-54737000D03*
D12*
X57150000Y-61595000D03*
X57150000Y-71755000D03*
D13*
X54610000Y-70485000D03*
D10*
X57150000Y-66675000D03*
D13*
X52070000Y-64135000D03*
%TD*%
D10*
%TO.C,MX17*%
X65405000Y-40513000D03*
X65405000Y-16637000D03*
D11*
X50165000Y-40513000D03*
X50165000Y-16637000D03*
D12*
X57150000Y-23495000D03*
X57150000Y-33655000D03*
D13*
X54610000Y-32385000D03*
D10*
X57150000Y-28575000D03*
D13*
X52070000Y-26035000D03*
%TD*%
D12*
%TO.C,MX16*%
X62230000Y0D03*
X52070000Y0D03*
D13*
X53340000Y2540000D03*
D10*
X57150000Y0D03*
D13*
X59690000Y5080000D03*
%TD*%
D12*
%TO.C,MX15*%
X43180000Y-76200000D03*
X33020000Y-76200000D03*
D13*
X34290000Y-73660000D03*
D10*
X38100000Y-76200000D03*
D13*
X40640000Y-71120000D03*
%TD*%
D12*
%TO.C,MX14*%
X43180000Y-57150000D03*
X33020000Y-57150000D03*
D13*
X34290000Y-54610000D03*
D10*
X38100000Y-57150000D03*
D13*
X40640000Y-52070000D03*
%TD*%
D12*
%TO.C,MX13*%
X43180000Y-38100000D03*
X33020000Y-38100000D03*
D13*
X34290000Y-35560000D03*
D10*
X38100000Y-38100000D03*
D13*
X40640000Y-33020000D03*
%TD*%
D12*
%TO.C,MX12*%
X43180000Y-19050000D03*
X33020000Y-19050000D03*
D13*
X34290000Y-16510000D03*
D10*
X38100000Y-19050000D03*
D13*
X40640000Y-13970000D03*
%TD*%
D12*
%TO.C,MX11*%
X43180000Y0D03*
X33020000Y0D03*
D13*
X34290000Y2540000D03*
D10*
X38100000Y0D03*
D13*
X40640000Y5080000D03*
%TD*%
D12*
%TO.C,MX10*%
X24130000Y-76200000D03*
X13970000Y-76200000D03*
D13*
X15240000Y-73660000D03*
D10*
X19050000Y-76200000D03*
D13*
X21590000Y-71120000D03*
%TD*%
D12*
%TO.C,MX9*%
X24130000Y-57150000D03*
X13970000Y-57150000D03*
D13*
X15240000Y-54610000D03*
D10*
X19050000Y-57150000D03*
D13*
X21590000Y-52070000D03*
%TD*%
D12*
%TO.C,MX8*%
X24130000Y-38100000D03*
X13970000Y-38100000D03*
D13*
X15240000Y-35560000D03*
D10*
X19050000Y-38100000D03*
D13*
X21590000Y-33020000D03*
%TD*%
D12*
%TO.C,MX7*%
X24130000Y-19050000D03*
X13970000Y-19050000D03*
D13*
X15240000Y-16510000D03*
D10*
X19050000Y-19050000D03*
D13*
X21590000Y-13970000D03*
%TD*%
D12*
%TO.C,MX6*%
X24130000Y0D03*
X13970000Y0D03*
D13*
X15240000Y2540000D03*
D10*
X19050000Y0D03*
D13*
X21590000Y5080000D03*
%TD*%
D12*
%TO.C,MX5*%
X5080000Y-76200000D03*
X-5080000Y-76200000D03*
D13*
X-3810000Y-73660000D03*
D10*
X0Y-76200000D03*
D13*
X2540000Y-71120000D03*
%TD*%
D12*
%TO.C,MX4*%
X5080000Y-57150000D03*
X-5080000Y-57150000D03*
D13*
X-3810000Y-54610000D03*
D10*
X0Y-57150000D03*
D13*
X2540000Y-52070000D03*
%TD*%
D12*
%TO.C,MX3*%
X5080000Y-38100000D03*
X-5080000Y-38100000D03*
D13*
X-3810000Y-35560000D03*
D10*
X0Y-38100000D03*
D13*
X2540000Y-33020000D03*
%TD*%
D12*
%TO.C,MX2*%
X5080000Y-19050000D03*
X-5080000Y-19050000D03*
D13*
X-3810000Y-16510000D03*
D10*
X0Y-19050000D03*
D13*
X2540000Y-13970000D03*
%TD*%
D12*
%TO.C,MX1*%
X5080000Y0D03*
X-5080000Y0D03*
D13*
X-3810000Y2540000D03*
D10*
X0Y0D03*
D13*
X2540000Y5080000D03*
%TD*%
M02*
