%TF.GenerationSoftware,KiCad,Pcbnew,(5.1.10)-1*%
%TF.CreationDate,2021-09-04T11:57:45-07:00*%
%TF.ProjectId,V2,56322e6b-6963-4616-945f-706362585858,rev?*%
%TF.SameCoordinates,Original*%
%TF.FileFunction,Soldermask,Top*%
%TF.FilePolarity,Negative*%
%FSLAX46Y46*%
G04 Gerber Fmt 4.6, Leading zero omitted, Abs format (unit mm)*
G04 Created by KiCad (PCBNEW (5.1.10)-1) date 2021-09-04 11:57:45*
%MOMM*%
%LPD*%
G01*
G04 APERTURE LIST*
%ADD10R,2.000000X3.250000*%
%ADD11R,3.250000X2.000000*%
%ADD12C,1.752600*%
%ADD13R,1.752600X1.752600*%
%ADD14C,3.987800*%
%ADD15C,1.750000*%
%ADD16C,4.400000*%
%ADD17C,3.048000*%
%ADD18C,2.000000*%
%ADD19R,3.200000X2.000000*%
%ADD20R,2.000000X2.000000*%
G04 APERTURE END LIST*
D10*
%TO.C,U1*%
X218211400Y-21793200D03*
X215671400Y-21793200D03*
X213131400Y-21793200D03*
X210591400Y-21793200D03*
X208051400Y-21793200D03*
D11*
X222529400Y8051800D03*
X222529400Y5511800D03*
X222529400Y2971800D03*
X222529400Y431800D03*
X222529400Y-2108200D03*
X222529400Y-4648200D03*
X222529400Y-7188200D03*
X222529400Y-9728200D03*
X222529400Y-12268200D03*
X222529400Y-14808200D03*
X222529400Y-17348200D03*
X222529400Y-19888200D03*
X203733400Y-19888200D03*
X203733400Y-17348200D03*
X203733400Y-14808200D03*
X203733400Y-12268200D03*
X203733400Y-9728200D03*
X203733400Y-7188200D03*
X203733400Y-4648200D03*
X203733400Y-2108200D03*
X203733400Y431800D03*
X203733400Y2971800D03*
X203733400Y5511800D03*
X203733400Y8051800D03*
D12*
X208051400Y-19888200D03*
X210591400Y-19888200D03*
X213131400Y-19888200D03*
X215671400Y-19888200D03*
X218211400Y-19888200D03*
X220751400Y8051800D03*
X205740000Y-19888200D03*
X220751400Y5511800D03*
X220751400Y2971800D03*
X220751400Y431800D03*
X220751400Y-2108200D03*
X220751400Y-4648200D03*
X220751400Y-7188200D03*
X220751400Y-9728200D03*
X220751400Y-12268200D03*
X220751400Y-14808200D03*
X220751400Y-17348200D03*
X220751400Y-19888200D03*
X205511400Y-17348200D03*
X205511400Y-14808200D03*
X205511400Y-12268200D03*
X205511400Y-9728200D03*
X205511400Y-7188200D03*
X205511400Y-4648200D03*
X205511400Y-2108200D03*
X205511400Y431800D03*
X205511400Y2971800D03*
X205511400Y5511800D03*
D13*
X205511400Y8051800D03*
%TD*%
D14*
%TO.C,MX90*%
X80962500Y-38100000D03*
D15*
X75882500Y-38100000D03*
X86042500Y-38100000D03*
%TD*%
D16*
%TO.C,H11*%
X395592300Y-431800D03*
%TD*%
%TO.C,H9*%
X179552600Y4508500D03*
%TD*%
%TO.C,H8*%
X395592300Y-63855600D03*
%TD*%
%TO.C,H7*%
X38100000Y-66675000D03*
%TD*%
%TO.C,H6*%
X28575000Y-431800D03*
%TD*%
%TO.C,H5*%
X212229700Y-91541600D03*
%TD*%
%TO.C,H4*%
X212229700Y-48450500D03*
%TD*%
%TO.C,H3*%
X303631600Y-39166800D03*
%TD*%
%TO.C,H2*%
X242824000Y4508500D03*
%TD*%
%TO.C,H1*%
X122440700Y-38163500D03*
%TD*%
D14*
%TO.C,MX23*%
X80962500Y-19050000D03*
D15*
X75882500Y-19050000D03*
X86042500Y-19050000D03*
%TD*%
D14*
%TO.C,MX5*%
X9525000Y-76200000D03*
D15*
X4445000Y-76200000D03*
X14605000Y-76200000D03*
D17*
X-2381250Y-83185000D03*
X21431250Y-83185000D03*
D14*
X-2381250Y-67945000D03*
X21431250Y-67945000D03*
%TD*%
%TO.C,MX78*%
X350176543Y-57150000D03*
D15*
X345096543Y-57150000D03*
X355256543Y-57150000D03*
D17*
X338270293Y-50165000D03*
X362082793Y-50165000D03*
D14*
X338270293Y-65405000D03*
X362082793Y-65405000D03*
%TD*%
%TO.C,MX92*%
X430949043Y-76200000D03*
D15*
X425869043Y-76200000D03*
X436029043Y-76200000D03*
%TD*%
D14*
%TO.C,MX91*%
X430949043Y-38100000D03*
D15*
X425869043Y-38100000D03*
X436029043Y-38100000D03*
%TD*%
D14*
%TO.C,MX89*%
X430949043Y-19050000D03*
D15*
X425869043Y-19050000D03*
X436029043Y-19050000D03*
%TD*%
D14*
%TO.C,MX88*%
X411899043Y-76200000D03*
D15*
X406819043Y-76200000D03*
X416979043Y-76200000D03*
%TD*%
D14*
%TO.C,MX87*%
X411899043Y-57150000D03*
D15*
X406819043Y-57150000D03*
X416979043Y-57150000D03*
%TD*%
D14*
%TO.C,MX86*%
X381132793Y-57150000D03*
D15*
X376052793Y-57150000D03*
X386212793Y-57150000D03*
%TD*%
D14*
%TO.C,MX85*%
X364464043Y-38100000D03*
D15*
X359384043Y-38100000D03*
X369544043Y-38100000D03*
D17*
X352557793Y-31115000D03*
X376370293Y-31115000D03*
D14*
X352557793Y-46355000D03*
X376370293Y-46355000D03*
%TD*%
%TO.C,MX84*%
X362082793Y-19050000D03*
D15*
X357002793Y-19050000D03*
X367162793Y-19050000D03*
%TD*%
D14*
%TO.C,MX83*%
X340651543Y-19050000D03*
D15*
X335571543Y-19050000D03*
X345731543Y-19050000D03*
%TD*%
D14*
%TO.C,MX82*%
X376370293Y0D03*
D15*
X371290293Y0D03*
X381450293Y0D03*
D17*
X364464043Y6985000D03*
X388276543Y6985000D03*
D14*
X364464043Y-8255000D03*
X388276543Y-8255000D03*
%TD*%
%TO.C,MX81*%
X347795293Y0D03*
D15*
X342715293Y0D03*
X352875293Y0D03*
%TD*%
D14*
%TO.C,MX80*%
X392849043Y-76200000D03*
D15*
X387769043Y-76200000D03*
X397929043Y-76200000D03*
%TD*%
D14*
%TO.C,MX79*%
X364464043Y-76200000D03*
D15*
X359384043Y-76200000D03*
X369544043Y-76200000D03*
%TD*%
D14*
%TO.C,MX77*%
X335889043Y-38100000D03*
D15*
X330809043Y-38100000D03*
X340969043Y-38100000D03*
%TD*%
D14*
%TO.C,MX76*%
X321601543Y-19050000D03*
D15*
X316521543Y-19050000D03*
X326681543Y-19050000D03*
%TD*%
D14*
%TO.C,MX75*%
X300952333Y-18206731D03*
D15*
X295949510Y-19088864D03*
X305955156Y-17324598D03*
%TD*%
D14*
%TO.C,MX74*%
X328745293Y0D03*
D15*
X323665293Y0D03*
X333825293Y0D03*
%TD*%
D14*
%TO.C,MX73*%
X309695293Y2381250D03*
D15*
X304615293Y2381250D03*
X314775293Y2381250D03*
%TD*%
D14*
%TO.C,MX72*%
X316839043Y-38100000D03*
D15*
X311759043Y-38100000D03*
X321919043Y-38100000D03*
%TD*%
D14*
%TO.C,MX71*%
X319220293Y-57150000D03*
D15*
X314140293Y-57150000D03*
X324300293Y-57150000D03*
%TD*%
D14*
%TO.C,MX70*%
X340651543Y-76200000D03*
D15*
X335571543Y-76200000D03*
X345731543Y-76200000D03*
%TD*%
D14*
%TO.C,MX69*%
X316839043Y-76200000D03*
D15*
X311759043Y-76200000D03*
X321919043Y-76200000D03*
%TD*%
D14*
%TO.C,MX68*%
X298188034Y-57381903D03*
D15*
X293185211Y-58264036D03*
X303190857Y-56499770D03*
%TD*%
D14*
%TO.C,MX67*%
X290189890Y-39448316D03*
D15*
X285187067Y-40330449D03*
X295192713Y-38566183D03*
%TD*%
D14*
%TO.C,MX66*%
X282191746Y-21514728D03*
D15*
X277188923Y-22396861D03*
X287194569Y-20632595D03*
%TD*%
D14*
%TO.C,MX65*%
X288264043Y-1100142D03*
D15*
X283261220Y-1982275D03*
X293266866Y-218009D03*
%TD*%
D14*
%TO.C,MX64*%
X279427447Y-60689900D03*
D15*
X274424624Y-61572033D03*
X284430270Y-59807767D03*
%TD*%
D14*
%TO.C,MX63*%
X280390371Y-79863986D03*
D15*
X275387548Y-80746119D03*
X285393194Y-78981853D03*
%TD*%
D14*
%TO.C,MX62*%
X260666860Y-63997897D03*
D15*
X255664037Y-64880030D03*
X265669683Y-63115764D03*
%TD*%
D14*
%TO.C,MX61*%
X271429303Y-42756313D03*
D15*
X266426480Y-43638446D03*
X276432126Y-41874180D03*
%TD*%
D14*
%TO.C,MX60*%
X263431159Y-24822725D03*
D15*
X258428336Y-25704858D03*
X268433982Y-23940592D03*
%TD*%
D14*
%TO.C,MX59*%
X244670572Y-28130722D03*
D15*
X239667749Y-29012855D03*
X249673395Y-27248589D03*
%TD*%
D14*
%TO.C,MX58*%
X269503456Y-4408139D03*
D15*
X264500633Y-5290272D03*
X274506279Y-3526006D03*
%TD*%
D14*
%TO.C,MX57*%
X250742869Y-7716136D03*
D15*
X245740046Y-8598269D03*
X255745692Y-6834003D03*
%TD*%
D14*
%TO.C,MX56*%
X252668716Y-46064310D03*
D15*
X247665893Y-46946443D03*
X257671539Y-45182177D03*
%TD*%
D14*
%TO.C,MX55*%
X241906273Y-67305894D03*
D15*
X236903450Y-68188027D03*
X246909096Y-66423761D03*
%TD*%
D14*
%TO.C,MX54*%
X242869196Y-86479981D03*
D15*
X237866373Y-87362114D03*
X247872019Y-85597848D03*
D17*
X232356761Y-95426362D03*
X255807496Y-91291365D03*
D14*
X229710363Y-80417892D03*
X253161098Y-76282894D03*
%TD*%
%TO.C,MX53*%
X198941868Y-89291780D03*
D15*
X193939045Y-88409647D03*
X203944691Y-90173913D03*
%TD*%
D14*
%TO.C,MX52*%
X223145686Y-70613891D03*
D15*
X218142863Y-71496024D03*
X228148509Y-69731758D03*
%TD*%
D14*
%TO.C,MX51*%
X233908129Y-49372307D03*
D15*
X228905306Y-50254440D03*
X238910952Y-48490174D03*
%TD*%
D14*
%TO.C,MX50*%
X225909985Y-31438719D03*
D15*
X220907162Y-32320852D03*
X230912808Y-30556586D03*
%TD*%
D14*
%TO.C,MX49*%
X231982282Y-11024133D03*
D15*
X226979459Y-11906266D03*
X236985105Y-10142000D03*
%TD*%
D14*
%TO.C,MX48*%
X193882282Y-11024133D03*
D15*
X188879459Y-10142000D03*
X198885105Y-11906266D03*
%TD*%
D14*
%TO.C,MX47*%
X181193992Y-28130722D03*
D15*
X176191169Y-27248589D03*
X186196815Y-29012855D03*
%TD*%
D14*
%TO.C,MX46*%
X189611363Y-48958808D03*
D15*
X184608540Y-48076675D03*
X194614186Y-49840941D03*
%TD*%
D14*
%TO.C,MX45*%
X193338585Y-68959893D03*
D15*
X188335762Y-68077760D03*
X198341408Y-69842026D03*
%TD*%
D14*
%TO.C,MX44*%
X170850776Y-45650811D03*
D15*
X165847953Y-44768678D03*
X175853599Y-46532944D03*
%TD*%
D14*
%TO.C,MX43*%
X162433405Y-24822725D03*
D15*
X157430582Y-23940592D03*
X167436228Y-25704858D03*
%TD*%
D14*
%TO.C,MX42*%
X175121695Y-7716136D03*
D15*
X170118872Y-6834003D03*
X180124518Y-8598269D03*
%TD*%
D14*
%TO.C,MX41*%
X156361108Y-4408139D03*
D15*
X151358285Y-3526006D03*
X161363931Y-5290272D03*
%TD*%
D14*
%TO.C,MX40*%
X174577998Y-65651896D03*
D15*
X169575175Y-64769763D03*
X179580821Y-66534029D03*
%TD*%
D14*
%TO.C,MX39*%
X168290513Y-84854313D03*
D15*
X163287690Y-83972180D03*
X173293336Y-85736446D03*
D17*
X155352213Y-89665697D03*
X178802948Y-93800694D03*
D14*
X157998611Y-74657226D03*
X181449346Y-78792224D03*
%TD*%
%TO.C,MX38*%
X155817411Y-62343899D03*
D15*
X150814588Y-61461766D03*
X160820234Y-63226032D03*
%TD*%
D14*
%TO.C,MX37*%
X152090189Y-42342814D03*
D15*
X147087366Y-41460681D03*
X157093012Y-43224947D03*
%TD*%
D14*
%TO.C,MX36*%
X143672818Y-21514728D03*
D15*
X138669995Y-20632595D03*
X148675641Y-22396861D03*
%TD*%
D14*
%TO.C,MX35*%
X124912231Y-18206731D03*
D15*
X119909408Y-17324598D03*
X129915054Y-19088864D03*
%TD*%
D14*
%TO.C,MX34*%
X137600521Y-1100142D03*
D15*
X132597698Y-218009D03*
X142603344Y-1982275D03*
%TD*%
D14*
%TO.C,MX33*%
X116681250Y2381250D03*
D15*
X111601250Y2381250D03*
X121761250Y2381250D03*
%TD*%
D14*
%TO.C,MX32*%
X133329602Y-39034817D03*
D15*
X128326779Y-38152684D03*
X138332425Y-39916950D03*
%TD*%
D14*
%TO.C,MX31*%
X137056824Y-59035902D03*
D15*
X132054001Y-58153769D03*
X142059647Y-59918035D03*
%TD*%
D14*
%TO.C,MX30*%
X135459485Y-79065317D03*
D15*
X130456662Y-78183184D03*
X140462308Y-79947450D03*
%TD*%
D14*
%TO.C,MX29*%
X104775000Y-76200000D03*
D15*
X99695000Y-76200000D03*
X109855000Y-76200000D03*
%TD*%
D14*
%TO.C,MX28*%
X116681250Y-57150000D03*
D15*
X111601250Y-57150000D03*
X121761250Y-57150000D03*
%TD*%
D14*
%TO.C,MX27*%
X111918750Y-38100000D03*
D15*
X106838750Y-38100000D03*
X116998750Y-38100000D03*
%TD*%
D14*
%TO.C,MX26*%
X102393750Y-19050000D03*
D15*
X97313750Y-19050000D03*
X107473750Y-19050000D03*
%TD*%
D14*
%TO.C,MX25*%
X97631250Y0D03*
D15*
X92551250Y0D03*
X102711250Y0D03*
%TD*%
D14*
%TO.C,MX24*%
X78581250Y0D03*
D15*
X73501250Y0D03*
X83661250Y0D03*
%TD*%
%TO.C,MX22*%
X90805000Y-38100000D03*
X80645000Y-38100000D03*
D14*
X85725000Y-38100000D03*
%TD*%
%TO.C,MX21*%
X88106250Y-57150000D03*
D15*
X83026250Y-57150000D03*
X93186250Y-57150000D03*
D17*
X76200000Y-50165000D03*
X100012500Y-50165000D03*
D14*
X76200000Y-65405000D03*
X100012500Y-65405000D03*
%TD*%
%TO.C,MX20*%
X80962500Y-76200000D03*
D15*
X75882500Y-76200000D03*
X86042500Y-76200000D03*
%TD*%
D14*
%TO.C,MX19*%
X57150000Y-28575000D03*
D15*
X57150000Y-33655000D03*
X57150000Y-23495000D03*
D17*
X50165000Y-40481250D03*
X50165000Y-16668750D03*
D14*
X65405000Y-40481250D03*
X65405000Y-16668750D03*
%TD*%
%TO.C,MX18*%
X57150000Y-66675000D03*
D15*
X57150000Y-71755000D03*
X57150000Y-61595000D03*
D17*
X50165000Y-78581250D03*
X50165000Y-54768750D03*
D14*
X65405000Y-78581250D03*
X65405000Y-54768750D03*
%TD*%
%TO.C,MX17*%
X57150000Y0D03*
D15*
X52070000Y0D03*
X62230000Y0D03*
%TD*%
D14*
%TO.C,MX16*%
X38100000Y-76200000D03*
D15*
X33020000Y-76200000D03*
X43180000Y-76200000D03*
%TD*%
D14*
%TO.C,MX15*%
X38100000Y-57150000D03*
D15*
X33020000Y-57150000D03*
X43180000Y-57150000D03*
%TD*%
D14*
%TO.C,MX14*%
X38100000Y-38100000D03*
D15*
X33020000Y-38100000D03*
X43180000Y-38100000D03*
%TD*%
D14*
%TO.C,MX13*%
X19050000Y-38100000D03*
D15*
X13970000Y-38100000D03*
X24130000Y-38100000D03*
%TD*%
D14*
%TO.C,MX12*%
X38100000Y-19050000D03*
D15*
X33020000Y-19050000D03*
X43180000Y-19050000D03*
%TD*%
D14*
%TO.C,MX11*%
X19050000Y-19050000D03*
D15*
X13970000Y-19050000D03*
X24130000Y-19050000D03*
%TD*%
D14*
%TO.C,MX10*%
X38100000Y0D03*
D15*
X33020000Y0D03*
X43180000Y0D03*
%TD*%
D14*
%TO.C,MX9*%
X19050000Y0D03*
D15*
X13970000Y0D03*
X24130000Y0D03*
%TD*%
D14*
%TO.C,MX8*%
X19050000Y-57150000D03*
D15*
X13970000Y-57150000D03*
X24130000Y-57150000D03*
%TD*%
D14*
%TO.C,MX7*%
X0Y-76200000D03*
D15*
X-5080000Y-76200000D03*
X5080000Y-76200000D03*
%TD*%
D14*
%TO.C,MX6*%
X19050000Y-76200000D03*
D15*
X13970000Y-76200000D03*
X24130000Y-76200000D03*
%TD*%
D14*
%TO.C,MX4*%
X0Y-57150000D03*
D15*
X-5080000Y-57150000D03*
X5080000Y-57150000D03*
%TD*%
D14*
%TO.C,MX3*%
X0Y-38100000D03*
D15*
X-5080000Y-38100000D03*
X5080000Y-38100000D03*
%TD*%
D14*
%TO.C,MX2*%
X0Y-19050000D03*
D15*
X-5080000Y-19050000D03*
X5080000Y-19050000D03*
%TD*%
D14*
%TO.C,MX1*%
X0Y0D03*
D15*
X-5080000Y0D03*
X5080000Y0D03*
%TD*%
D18*
%TO.C,SW1*%
X437949043Y-2500000D03*
X437949043Y2500000D03*
D19*
X430949043Y-5600000D03*
X430949043Y5600000D03*
D18*
X423449043Y-2500000D03*
X423449043Y0D03*
D20*
X423449043Y2500000D03*
%TD*%
M02*
