%TF.GenerationSoftware,KiCad,Pcbnew,(5.1.10)-1*%
%TF.CreationDate,2021-09-04T11:57:45-07:00*%
%TF.ProjectId,V2,56322e6b-6963-4616-945f-706362585858,rev?*%
%TF.SameCoordinates,Original*%
%TF.FileFunction,Legend,Top*%
%TF.FilePolarity,Positive*%
%FSLAX46Y46*%
G04 Gerber Fmt 4.6, Leading zero omitted, Abs format (unit mm)*
G04 Created by KiCad (PCBNEW (5.1.10)-1) date 2021-09-04 11:57:45*
%MOMM*%
%LPD*%
G01*
G04 APERTURE LIST*
%ADD10C,0.381000*%
%ADD11C,0.150000*%
%ADD12C,0.120000*%
G04 APERTURE END LIST*
D10*
%TO.C,U1*%
X204241400Y9321800D02*
X204241400Y-21158200D01*
X204241400Y-21158200D02*
X222021400Y-21158200D01*
X222021400Y-21158200D02*
X222021400Y9321800D01*
X206781400Y9321800D02*
X206781400Y6781800D01*
X206781400Y6781800D02*
X204241400Y6781800D01*
D11*
G36*
X218062968Y3442440D02*
G01*
X218062968Y3142440D01*
X217962968Y3142440D01*
X217962968Y3442440D01*
X218062968Y3442440D01*
G37*
X218062968Y3442440D02*
X218062968Y3142440D01*
X217962968Y3142440D01*
X217962968Y3442440D01*
X218062968Y3442440D01*
G36*
X217862968Y3042440D02*
G01*
X217862968Y2942440D01*
X217762968Y2942440D01*
X217762968Y3042440D01*
X217862968Y3042440D01*
G37*
X217862968Y3042440D02*
X217862968Y2942440D01*
X217762968Y2942440D01*
X217762968Y3042440D01*
X217862968Y3042440D01*
G36*
X218062968Y3442440D02*
G01*
X218062968Y3342440D01*
X217562968Y3342440D01*
X217562968Y3442440D01*
X218062968Y3442440D01*
G37*
X218062968Y3442440D02*
X218062968Y3342440D01*
X217562968Y3342440D01*
X217562968Y3442440D01*
X218062968Y3442440D01*
G36*
X217662968Y3442440D02*
G01*
X217662968Y2642440D01*
X217562968Y2642440D01*
X217562968Y3442440D01*
X217662968Y3442440D01*
G37*
X217662968Y3442440D02*
X217662968Y2642440D01*
X217562968Y2642440D01*
X217562968Y3442440D01*
X217662968Y3442440D01*
G36*
X218062968Y2842440D02*
G01*
X218062968Y2642440D01*
X217962968Y2642440D01*
X217962968Y2842440D01*
X218062968Y2842440D01*
G37*
X218062968Y2842440D02*
X218062968Y2642440D01*
X217962968Y2642440D01*
X217962968Y2842440D01*
X218062968Y2842440D01*
D10*
X222021400Y9321800D02*
X222021400Y11861800D01*
X222021400Y11861800D02*
X204241400Y11861800D01*
X204241400Y11861800D02*
X204241400Y9321800D01*
X206781400Y9321800D02*
X204241400Y9321800D01*
D12*
%TO.C,SW1*%
X433949043Y0D02*
G75*
G03*
X433949043Y0I-3000000J0D01*
G01*
X432949043Y5900000D02*
X437049043Y5900000D01*
X437049043Y-5900000D02*
X432949043Y-5900000D01*
X428949043Y-5900000D02*
X424849043Y-5900000D01*
X428949043Y5900000D02*
X424849043Y5900000D01*
X424849043Y5900000D02*
X424849043Y-5900000D01*
X423449043Y3800000D02*
X423149043Y4100000D01*
X423149043Y4100000D02*
X423749043Y4100000D01*
X423749043Y4100000D02*
X423449043Y3800000D01*
X437049043Y5900000D02*
X437049043Y3500000D01*
X437049043Y1300000D02*
X437049043Y-1300000D01*
X437049043Y-3500000D02*
X437049043Y-5900000D01*
X430949043Y500000D02*
X430949043Y-500000D01*
X430449043Y0D02*
X431449043Y0D01*
%TO.C,OL1*%
D11*
X406547819Y-7479380D02*
X406738295Y-7479380D01*
X406833533Y-7527000D01*
X406928771Y-7622238D01*
X406976390Y-7812714D01*
X406976390Y-8146047D01*
X406928771Y-8336523D01*
X406833533Y-8431761D01*
X406738295Y-8479380D01*
X406547819Y-8479380D01*
X406452580Y-8431761D01*
X406357342Y-8336523D01*
X406309723Y-8146047D01*
X406309723Y-7812714D01*
X406357342Y-7622238D01*
X406452580Y-7527000D01*
X406547819Y-7479380D01*
X407881152Y-8479380D02*
X407404961Y-8479380D01*
X407404961Y-7479380D01*
X408214485Y-7955571D02*
X408547819Y-7955571D01*
X408690676Y-8479380D02*
X408214485Y-8479380D01*
X408214485Y-7479380D01*
X408690676Y-7479380D01*
X409119247Y-8479380D02*
X409119247Y-7479380D01*
X409357342Y-7479380D01*
X409500200Y-7527000D01*
X409595438Y-7622238D01*
X409643057Y-7717476D01*
X409690676Y-7907952D01*
X409690676Y-8050809D01*
X409643057Y-8241285D01*
X409595438Y-8336523D01*
X409500200Y-8431761D01*
X409357342Y-8479380D01*
X409119247Y-8479380D01*
%TO.C,U1*%
X218268590Y-17291057D02*
X218382876Y-17329152D01*
X218420971Y-17367247D01*
X218459066Y-17443438D01*
X218459066Y-17557723D01*
X218420971Y-17633914D01*
X218382876Y-17672009D01*
X218306685Y-17710104D01*
X218001923Y-17710104D01*
X218001923Y-16910104D01*
X218268590Y-16910104D01*
X218344780Y-16948200D01*
X218382876Y-16986295D01*
X218420971Y-17062485D01*
X218420971Y-17138676D01*
X218382876Y-17214866D01*
X218344780Y-17252961D01*
X218268590Y-17291057D01*
X218001923Y-17291057D01*
X218763828Y-16986295D02*
X218801923Y-16948200D01*
X218878114Y-16910104D01*
X219068590Y-16910104D01*
X219144780Y-16948200D01*
X219182876Y-16986295D01*
X219220971Y-17062485D01*
X219220971Y-17138676D01*
X219182876Y-17252961D01*
X218725733Y-17710104D01*
X219220971Y-17710104D01*
X218325733Y-9671057D02*
X218059066Y-9671057D01*
X218059066Y-10090104D02*
X218059066Y-9290104D01*
X218440019Y-9290104D01*
X218668590Y-9290104D02*
X219201923Y-9290104D01*
X218859066Y-10090104D01*
X218325733Y-7131057D02*
X218059066Y-7131057D01*
X218059066Y-7550104D02*
X218059066Y-6750104D01*
X218440019Y-6750104D01*
X219087638Y-6750104D02*
X218935257Y-6750104D01*
X218859066Y-6788200D01*
X218820971Y-6826295D01*
X218744780Y-6940580D01*
X218706685Y-7092961D01*
X218706685Y-7397723D01*
X218744780Y-7473914D01*
X218782876Y-7512009D01*
X218859066Y-7550104D01*
X219011447Y-7550104D01*
X219087638Y-7512009D01*
X219125733Y-7473914D01*
X219163828Y-7397723D01*
X219163828Y-7207247D01*
X219125733Y-7131057D01*
X219087638Y-7092961D01*
X219011447Y-7054866D01*
X218859066Y-7054866D01*
X218782876Y-7092961D01*
X218744780Y-7131057D01*
X218706685Y-7207247D01*
X218325733Y-4591057D02*
X218059066Y-4591057D01*
X218059066Y-5010104D02*
X218059066Y-4210104D01*
X218440019Y-4210104D01*
X219125733Y-4210104D02*
X218744780Y-4210104D01*
X218706685Y-4591057D01*
X218744780Y-4552961D01*
X218820971Y-4514866D01*
X219011447Y-4514866D01*
X219087638Y-4552961D01*
X219125733Y-4591057D01*
X219163828Y-4667247D01*
X219163828Y-4857723D01*
X219125733Y-4933914D01*
X219087638Y-4972009D01*
X219011447Y-5010104D01*
X218820971Y-5010104D01*
X218744780Y-4972009D01*
X218706685Y-4933914D01*
X218268590Y8108942D02*
X218382876Y8070847D01*
X218420971Y8032752D01*
X218459066Y7956561D01*
X218459066Y7842276D01*
X218420971Y7766085D01*
X218382876Y7727990D01*
X218306685Y7689895D01*
X218001923Y7689895D01*
X218001923Y8489895D01*
X218268590Y8489895D01*
X218344780Y8451800D01*
X218382876Y8413704D01*
X218420971Y8337514D01*
X218420971Y8261323D01*
X218382876Y8185133D01*
X218344780Y8147038D01*
X218268590Y8108942D01*
X218001923Y8108942D01*
X218954304Y8489895D02*
X219030495Y8489895D01*
X219106685Y8451800D01*
X219144780Y8413704D01*
X219182876Y8337514D01*
X219220971Y8185133D01*
X219220971Y7994657D01*
X219182876Y7842276D01*
X219144780Y7766085D01*
X219106685Y7727990D01*
X219030495Y7689895D01*
X218954304Y7689895D01*
X218878114Y7727990D01*
X218840019Y7766085D01*
X218801923Y7842276D01*
X218763828Y7994657D01*
X218763828Y8185133D01*
X218801923Y8337514D01*
X218840019Y8413704D01*
X218878114Y8451800D01*
X218954304Y8489895D01*
X217982876Y5911800D02*
X217906685Y5949895D01*
X217792400Y5949895D01*
X217678114Y5911800D01*
X217601923Y5835609D01*
X217563828Y5759419D01*
X217525733Y5607038D01*
X217525733Y5492752D01*
X217563828Y5340371D01*
X217601923Y5264180D01*
X217678114Y5187990D01*
X217792400Y5149895D01*
X217868590Y5149895D01*
X217982876Y5187990D01*
X218020971Y5226085D01*
X218020971Y5492752D01*
X217868590Y5492752D01*
X218363828Y5149895D02*
X218363828Y5949895D01*
X218820971Y5149895D01*
X218820971Y5949895D01*
X219201923Y5149895D02*
X219201923Y5949895D01*
X219392400Y5949895D01*
X219506685Y5911800D01*
X219582876Y5835609D01*
X219620971Y5759419D01*
X219659066Y5607038D01*
X219659066Y5492752D01*
X219620971Y5340371D01*
X219582876Y5264180D01*
X219506685Y5187990D01*
X219392400Y5149895D01*
X219201923Y5149895D01*
X218331186Y2677990D02*
X218445472Y2639895D01*
X218635948Y2639895D01*
X218712139Y2677990D01*
X218750234Y2716085D01*
X218788329Y2792276D01*
X218788329Y2868466D01*
X218750234Y2944657D01*
X218712139Y2982752D01*
X218635948Y3020847D01*
X218483567Y3058942D01*
X218407377Y3097038D01*
X218369281Y3135133D01*
X218331186Y3211323D01*
X218331186Y3287514D01*
X218369281Y3363704D01*
X218407377Y3401800D01*
X218483567Y3439895D01*
X218674043Y3439895D01*
X218788329Y3401800D01*
X219016900Y3439895D02*
X219474043Y3439895D01*
X219245472Y2639895D02*
X219245472Y3439895D01*
X217525733Y869895D02*
X217792400Y69895D01*
X218059066Y869895D01*
X218782876Y146085D02*
X218744780Y107990D01*
X218630495Y69895D01*
X218554304Y69895D01*
X218440019Y107990D01*
X218363828Y184180D01*
X218325733Y260371D01*
X218287638Y412752D01*
X218287638Y527038D01*
X218325733Y679419D01*
X218363828Y755609D01*
X218440019Y831800D01*
X218554304Y869895D01*
X218630495Y869895D01*
X218744780Y831800D01*
X218782876Y793704D01*
X219582876Y146085D02*
X219544780Y107990D01*
X219430495Y69895D01*
X219354304Y69895D01*
X219240019Y107990D01*
X219163828Y184180D01*
X219125733Y260371D01*
X219087638Y412752D01*
X219087638Y527038D01*
X219125733Y679419D01*
X219163828Y755609D01*
X219240019Y831800D01*
X219354304Y869895D01*
X219430495Y869895D01*
X219544780Y831800D01*
X219582876Y793704D01*
X218325733Y-2051057D02*
X218059066Y-2051057D01*
X218059066Y-2470104D02*
X218059066Y-1670104D01*
X218440019Y-1670104D01*
X219087638Y-1936771D02*
X219087638Y-2470104D01*
X218897161Y-1632009D02*
X218706685Y-2203438D01*
X219201923Y-2203438D01*
X218268590Y-12211057D02*
X218382876Y-12249152D01*
X218420971Y-12287247D01*
X218459066Y-12363438D01*
X218459066Y-12477723D01*
X218420971Y-12553914D01*
X218382876Y-12592009D01*
X218306685Y-12630104D01*
X218001923Y-12630104D01*
X218001923Y-11830104D01*
X218268590Y-11830104D01*
X218344780Y-11868200D01*
X218382876Y-11906295D01*
X218420971Y-11982485D01*
X218420971Y-12058676D01*
X218382876Y-12134866D01*
X218344780Y-12172961D01*
X218268590Y-12211057D01*
X218001923Y-12211057D01*
X219220971Y-12630104D02*
X218763828Y-12630104D01*
X218992400Y-12630104D02*
X218992400Y-11830104D01*
X218916209Y-11944390D01*
X218840019Y-12020580D01*
X218763828Y-12058676D01*
X218268590Y-14751057D02*
X218382876Y-14789152D01*
X218420971Y-14827247D01*
X218459066Y-14903438D01*
X218459066Y-15017723D01*
X218420971Y-15093914D01*
X218382876Y-15132009D01*
X218306685Y-15170104D01*
X218001923Y-15170104D01*
X218001923Y-14370104D01*
X218268590Y-14370104D01*
X218344780Y-14408200D01*
X218382876Y-14446295D01*
X218420971Y-14522485D01*
X218420971Y-14598676D01*
X218382876Y-14674866D01*
X218344780Y-14712961D01*
X218268590Y-14751057D01*
X218001923Y-14751057D01*
X218725733Y-14370104D02*
X219220971Y-14370104D01*
X218954304Y-14674866D01*
X219068590Y-14674866D01*
X219144780Y-14712961D01*
X219182876Y-14751057D01*
X219220971Y-14827247D01*
X219220971Y-15017723D01*
X219182876Y-15093914D01*
X219144780Y-15132009D01*
X219068590Y-15170104D01*
X218840019Y-15170104D01*
X218763828Y-15132009D01*
X218725733Y-15093914D01*
X206566408Y-18382497D02*
X206613548Y-18476778D01*
X206613548Y-18523919D01*
X206589978Y-18594629D01*
X206519267Y-18665340D01*
X206448557Y-18688910D01*
X206401416Y-18688910D01*
X206330706Y-18665340D01*
X206142144Y-18476778D01*
X206637119Y-17981803D01*
X206802110Y-18146795D01*
X206825680Y-18217506D01*
X206825680Y-18264646D01*
X206802110Y-18335357D01*
X206754970Y-18382497D01*
X206684259Y-18406067D01*
X206637119Y-18406067D01*
X206566408Y-18382497D01*
X206401416Y-18217506D01*
X207367796Y-18712480D02*
X207132093Y-18476778D01*
X206872821Y-18688910D01*
X206919961Y-18688910D01*
X206990672Y-18712480D01*
X207108523Y-18830332D01*
X207132093Y-18901042D01*
X207132093Y-18948183D01*
X207108523Y-19018893D01*
X206990672Y-19136744D01*
X206919961Y-19160315D01*
X206872821Y-19160315D01*
X206802110Y-19136744D01*
X206684259Y-19018893D01*
X206660689Y-18948183D01*
X206660689Y-18901042D01*
X207346590Y-17291057D02*
X207460876Y-17329152D01*
X207498971Y-17367247D01*
X207537066Y-17443438D01*
X207537066Y-17557723D01*
X207498971Y-17633914D01*
X207460876Y-17672009D01*
X207384685Y-17710104D01*
X207079923Y-17710104D01*
X207079923Y-16910104D01*
X207346590Y-16910104D01*
X207422780Y-16948200D01*
X207460876Y-16986295D01*
X207498971Y-17062485D01*
X207498971Y-17138676D01*
X207460876Y-17214866D01*
X207422780Y-17252961D01*
X207346590Y-17291057D01*
X207079923Y-17291057D01*
X208222780Y-17176771D02*
X208222780Y-17710104D01*
X208032304Y-16872009D02*
X207841828Y-17443438D01*
X208337066Y-17443438D01*
X207118019Y-14751057D02*
X207384685Y-14751057D01*
X207498971Y-15170104D02*
X207118019Y-15170104D01*
X207118019Y-14370104D01*
X207498971Y-14370104D01*
X208184685Y-14370104D02*
X208032304Y-14370104D01*
X207956114Y-14408200D01*
X207918019Y-14446295D01*
X207841828Y-14560580D01*
X207803733Y-14712961D01*
X207803733Y-15017723D01*
X207841828Y-15093914D01*
X207879923Y-15132009D01*
X207956114Y-15170104D01*
X208108495Y-15170104D01*
X208184685Y-15132009D01*
X208222780Y-15093914D01*
X208260876Y-15017723D01*
X208260876Y-14827247D01*
X208222780Y-14751057D01*
X208184685Y-14712961D01*
X208108495Y-14674866D01*
X207956114Y-14674866D01*
X207879923Y-14712961D01*
X207841828Y-14751057D01*
X207803733Y-14827247D01*
X207079923Y-12630104D02*
X207079923Y-11830104D01*
X207270400Y-11830104D01*
X207384685Y-11868200D01*
X207460876Y-11944390D01*
X207498971Y-12020580D01*
X207537066Y-12172961D01*
X207537066Y-12287247D01*
X207498971Y-12439628D01*
X207460876Y-12515819D01*
X207384685Y-12592009D01*
X207270400Y-12630104D01*
X207079923Y-12630104D01*
X207803733Y-11830104D02*
X208337066Y-11830104D01*
X207994209Y-12630104D01*
X207537066Y-10013914D02*
X207498971Y-10052009D01*
X207384685Y-10090104D01*
X207308495Y-10090104D01*
X207194209Y-10052009D01*
X207118019Y-9975819D01*
X207079923Y-9899628D01*
X207041828Y-9747247D01*
X207041828Y-9632961D01*
X207079923Y-9480580D01*
X207118019Y-9404390D01*
X207194209Y-9328200D01*
X207308495Y-9290104D01*
X207384685Y-9290104D01*
X207498971Y-9328200D01*
X207537066Y-9366295D01*
X208222780Y-9290104D02*
X208070400Y-9290104D01*
X207994209Y-9328200D01*
X207956114Y-9366295D01*
X207879923Y-9480580D01*
X207841828Y-9632961D01*
X207841828Y-9937723D01*
X207879923Y-10013914D01*
X207918019Y-10052009D01*
X207994209Y-10090104D01*
X208146590Y-10090104D01*
X208222780Y-10052009D01*
X208260876Y-10013914D01*
X208298971Y-9937723D01*
X208298971Y-9747247D01*
X208260876Y-9671057D01*
X208222780Y-9632961D01*
X208146590Y-9594866D01*
X207994209Y-9594866D01*
X207918019Y-9632961D01*
X207879923Y-9671057D01*
X207841828Y-9747247D01*
X207079923Y-7550104D02*
X207079923Y-6750104D01*
X207270400Y-6750104D01*
X207384685Y-6788200D01*
X207460876Y-6864390D01*
X207498971Y-6940580D01*
X207537066Y-7092961D01*
X207537066Y-7207247D01*
X207498971Y-7359628D01*
X207460876Y-7435819D01*
X207384685Y-7512009D01*
X207270400Y-7550104D01*
X207079923Y-7550104D01*
X208222780Y-7016771D02*
X208222780Y-7550104D01*
X208032304Y-6712009D02*
X207841828Y-7283438D01*
X208337066Y-7283438D01*
X207060876Y3371800D02*
X206984685Y3409895D01*
X206870400Y3409895D01*
X206756114Y3371800D01*
X206679923Y3295609D01*
X206641828Y3219419D01*
X206603733Y3067038D01*
X206603733Y2952752D01*
X206641828Y2800371D01*
X206679923Y2724180D01*
X206756114Y2647990D01*
X206870400Y2609895D01*
X206946590Y2609895D01*
X207060876Y2647990D01*
X207098971Y2686085D01*
X207098971Y2952752D01*
X206946590Y2952752D01*
X207441828Y2609895D02*
X207441828Y3409895D01*
X207898971Y2609895D01*
X207898971Y3409895D01*
X208279923Y2609895D02*
X208279923Y3409895D01*
X208470400Y3409895D01*
X208584685Y3371800D01*
X208660876Y3295609D01*
X208698971Y3219419D01*
X208737066Y3067038D01*
X208737066Y2952752D01*
X208698971Y2800371D01*
X208660876Y2724180D01*
X208584685Y2647990D01*
X208470400Y2609895D01*
X208279923Y2609895D01*
X207060876Y831800D02*
X206984685Y869895D01*
X206870400Y869895D01*
X206756114Y831800D01*
X206679923Y755609D01*
X206641828Y679419D01*
X206603733Y527038D01*
X206603733Y412752D01*
X206641828Y260371D01*
X206679923Y184180D01*
X206756114Y107990D01*
X206870400Y69895D01*
X206946590Y69895D01*
X207060876Y107990D01*
X207098971Y146085D01*
X207098971Y412752D01*
X206946590Y412752D01*
X207441828Y69895D02*
X207441828Y869895D01*
X207898971Y69895D01*
X207898971Y869895D01*
X208279923Y69895D02*
X208279923Y869895D01*
X208470400Y869895D01*
X208584685Y831800D01*
X208660876Y755609D01*
X208698971Y679419D01*
X208737066Y527038D01*
X208737066Y412752D01*
X208698971Y260371D01*
X208660876Y184180D01*
X208584685Y107990D01*
X208470400Y69895D01*
X208279923Y69895D01*
X207079923Y-2470104D02*
X207079923Y-1670104D01*
X207270400Y-1670104D01*
X207384685Y-1708200D01*
X207460876Y-1784390D01*
X207498971Y-1860580D01*
X207537066Y-2012961D01*
X207537066Y-2127247D01*
X207498971Y-2279628D01*
X207460876Y-2355819D01*
X207384685Y-2432009D01*
X207270400Y-2470104D01*
X207079923Y-2470104D01*
X208298971Y-2470104D02*
X207841828Y-2470104D01*
X208070400Y-2470104D02*
X208070400Y-1670104D01*
X207994209Y-1784390D01*
X207918019Y-1860580D01*
X207841828Y-1898676D01*
X207079923Y-5010104D02*
X207079923Y-4210104D01*
X207270400Y-4210104D01*
X207384685Y-4248200D01*
X207460876Y-4324390D01*
X207498971Y-4400580D01*
X207537066Y-4552961D01*
X207537066Y-4667247D01*
X207498971Y-4819628D01*
X207460876Y-4895819D01*
X207384685Y-4972009D01*
X207270400Y-5010104D01*
X207079923Y-5010104D01*
X208032304Y-4210104D02*
X208108495Y-4210104D01*
X208184685Y-4248200D01*
X208222780Y-4286295D01*
X208260876Y-4362485D01*
X208298971Y-4514866D01*
X208298971Y-4705342D01*
X208260876Y-4857723D01*
X208222780Y-4933914D01*
X208184685Y-4972009D01*
X208108495Y-5010104D01*
X208032304Y-5010104D01*
X207956114Y-4972009D01*
X207918019Y-4933914D01*
X207879923Y-4857723D01*
X207841828Y-4705342D01*
X207841828Y-4514866D01*
X207879923Y-4362485D01*
X207918019Y-4286295D01*
X207956114Y-4248200D01*
X208032304Y-4210104D01*
X207079923Y5149895D02*
X207079923Y5949895D01*
X207270400Y5949895D01*
X207384685Y5911800D01*
X207460876Y5835609D01*
X207498971Y5759419D01*
X207537066Y5607038D01*
X207537066Y5492752D01*
X207498971Y5340371D01*
X207460876Y5264180D01*
X207384685Y5187990D01*
X207270400Y5149895D01*
X207079923Y5149895D01*
X207841828Y5873704D02*
X207879923Y5911800D01*
X207956114Y5949895D01*
X208146590Y5949895D01*
X208222780Y5911800D01*
X208260876Y5873704D01*
X208298971Y5797514D01*
X208298971Y5721323D01*
X208260876Y5607038D01*
X207803733Y5149895D01*
X208298971Y5149895D01*
X207369051Y8489895D02*
X207826194Y8489895D01*
X207597623Y7689895D02*
X207597623Y8489895D01*
X208016670Y8489895D02*
X208550004Y7689895D01*
X208550004Y8489895D02*
X208016670Y7689895D01*
X209007147Y8489895D02*
X209083337Y8489895D01*
X209159528Y8451800D01*
X209197623Y8413704D01*
X209235718Y8337514D01*
X209273813Y8185133D01*
X209273813Y7994657D01*
X209235718Y7842276D01*
X209197623Y7766085D01*
X209159528Y7727990D01*
X209083337Y7689895D01*
X209007147Y7689895D01*
X208930956Y7727990D01*
X208892861Y7766085D01*
X208854766Y7842276D01*
X208816670Y7994657D01*
X208816670Y8185133D01*
X208854766Y8337514D01*
X208892861Y8413704D01*
X208930956Y8451800D01*
X209007147Y8489895D01*
X210188099Y8527990D02*
X209502385Y7499419D01*
X210454766Y7689895D02*
X210454766Y8489895D01*
X210645242Y8489895D01*
X210759528Y8451800D01*
X210835718Y8375609D01*
X210873813Y8299419D01*
X210911908Y8147038D01*
X210911908Y8032752D01*
X210873813Y7880371D01*
X210835718Y7804180D01*
X210759528Y7727990D01*
X210645242Y7689895D01*
X210454766Y7689895D01*
X211178575Y8489895D02*
X211673813Y8489895D01*
X211407147Y8185133D01*
X211521432Y8185133D01*
X211597623Y8147038D01*
X211635718Y8108942D01*
X211673813Y8032752D01*
X211673813Y7842276D01*
X211635718Y7766085D01*
X211597623Y7727990D01*
X211521432Y7689895D01*
X211292861Y7689895D01*
X211216670Y7727990D01*
X211178575Y7766085D01*
X208348066Y-18468200D02*
X208448066Y-18501533D01*
X208481400Y-18534866D01*
X208514733Y-18601533D01*
X208514733Y-18701533D01*
X208481400Y-18768200D01*
X208448066Y-18801533D01*
X208381400Y-18834866D01*
X208114733Y-18834866D01*
X208114733Y-18134866D01*
X208348066Y-18134866D01*
X208414733Y-18168200D01*
X208448066Y-18201533D01*
X208481400Y-18268200D01*
X208481400Y-18334866D01*
X208448066Y-18401533D01*
X208414733Y-18434866D01*
X208348066Y-18468200D01*
X208114733Y-18468200D01*
X208748066Y-18134866D02*
X209214733Y-18134866D01*
X208914733Y-18834866D01*
X217398066Y-18468200D02*
X217164733Y-18468200D01*
X217164733Y-18834866D02*
X217164733Y-18134866D01*
X217498066Y-18134866D01*
X217898066Y-18134866D02*
X217964733Y-18134866D01*
X218031400Y-18168200D01*
X218064733Y-18201533D01*
X218098066Y-18268200D01*
X218131400Y-18401533D01*
X218131400Y-18568200D01*
X218098066Y-18701533D01*
X218064733Y-18768200D01*
X218031400Y-18801533D01*
X217964733Y-18834866D01*
X217898066Y-18834866D01*
X217831400Y-18801533D01*
X217798066Y-18768200D01*
X217764733Y-18701533D01*
X217731400Y-18568200D01*
X217731400Y-18401533D01*
X217764733Y-18268200D01*
X217798066Y-18201533D01*
X217831400Y-18168200D01*
X217898066Y-18134866D01*
X219295697Y-18783191D02*
X219389978Y-18736051D01*
X219437119Y-18736051D01*
X219507829Y-18759621D01*
X219578540Y-18830332D01*
X219602110Y-18901042D01*
X219602110Y-18948183D01*
X219578540Y-19018893D01*
X219389978Y-19207455D01*
X218895003Y-18712480D01*
X219059995Y-18547489D01*
X219130706Y-18523919D01*
X219177846Y-18523919D01*
X219248557Y-18547489D01*
X219295697Y-18594629D01*
X219319267Y-18665340D01*
X219319267Y-18712480D01*
X219295697Y-18783191D01*
X219130706Y-18948183D01*
X219602110Y-18005374D02*
X219507829Y-18099655D01*
X219484259Y-18170365D01*
X219484259Y-18217506D01*
X219507829Y-18335357D01*
X219578540Y-18453208D01*
X219767102Y-18641770D01*
X219837812Y-18665340D01*
X219884953Y-18665340D01*
X219955664Y-18641770D01*
X220049944Y-18547489D01*
X220073515Y-18476778D01*
X220073515Y-18429638D01*
X220049944Y-18358927D01*
X219932093Y-18241076D01*
X219861383Y-18217506D01*
X219814242Y-18217506D01*
X219743532Y-18241076D01*
X219649251Y-18335357D01*
X219625680Y-18406067D01*
X219625680Y-18453208D01*
X219649251Y-18523919D01*
X212998066Y-18603914D02*
X212959971Y-18642009D01*
X212845685Y-18680104D01*
X212769495Y-18680104D01*
X212655209Y-18642009D01*
X212579019Y-18565819D01*
X212540923Y-18489628D01*
X212502828Y-18337247D01*
X212502828Y-18222961D01*
X212540923Y-18070580D01*
X212579019Y-17994390D01*
X212655209Y-17918200D01*
X212769495Y-17880104D01*
X212845685Y-17880104D01*
X212959971Y-17918200D01*
X212998066Y-17956295D01*
X213264733Y-17880104D02*
X213798066Y-17880104D01*
X213455209Y-18680104D01*
X215404733Y-18261057D02*
X215138066Y-18261057D01*
X215138066Y-18680104D02*
X215138066Y-17880104D01*
X215519019Y-17880104D01*
X216242828Y-18680104D02*
X215785685Y-18680104D01*
X216014257Y-18680104D02*
X216014257Y-17880104D01*
X215938066Y-17994390D01*
X215861876Y-18070580D01*
X215785685Y-18108676D01*
X210000923Y-18680104D02*
X210000923Y-17880104D01*
X210191400Y-17880104D01*
X210305685Y-17918200D01*
X210381876Y-17994390D01*
X210419971Y-18070580D01*
X210458066Y-18222961D01*
X210458066Y-18337247D01*
X210419971Y-18489628D01*
X210381876Y-18565819D01*
X210305685Y-18642009D01*
X210191400Y-18680104D01*
X210000923Y-18680104D01*
X211181876Y-17880104D02*
X210800923Y-17880104D01*
X210762828Y-18261057D01*
X210800923Y-18222961D01*
X210877114Y-18184866D01*
X211067590Y-18184866D01*
X211143780Y-18222961D01*
X211181876Y-18261057D01*
X211219971Y-18337247D01*
X211219971Y-18527723D01*
X211181876Y-18603914D01*
X211143780Y-18642009D01*
X211067590Y-18680104D01*
X210877114Y-18680104D01*
X210800923Y-18642009D01*
X210762828Y-18603914D01*
%TO.C,H11*%
X394354204Y2315819D02*
X394354204Y3315819D01*
X394354204Y2839628D02*
X394925633Y2839628D01*
X394925633Y2315819D02*
X394925633Y3315819D01*
X395925633Y2315819D02*
X395354204Y2315819D01*
X395639919Y2315819D02*
X395639919Y3315819D01*
X395544680Y3172961D01*
X395449442Y3077723D01*
X395354204Y3030104D01*
X396878014Y2315819D02*
X396306585Y2315819D01*
X396592300Y2315819D02*
X396592300Y3315819D01*
X396497061Y3172961D01*
X396401823Y3077723D01*
X396306585Y3030104D01*
%TO.C,H9*%
X178790695Y856119D02*
X178790695Y1856119D01*
X178790695Y1379928D02*
X179362123Y1379928D01*
X179362123Y856119D02*
X179362123Y1856119D01*
X179885933Y856119D02*
X180076409Y856119D01*
X180171647Y903738D01*
X180219266Y951357D01*
X180314504Y1094214D01*
X180362123Y1284690D01*
X180362123Y1665642D01*
X180314504Y1760880D01*
X180266885Y1808500D01*
X180171647Y1856119D01*
X179981171Y1856119D01*
X179885933Y1808500D01*
X179838314Y1760880D01*
X179790695Y1665642D01*
X179790695Y1427547D01*
X179838314Y1332309D01*
X179885933Y1284690D01*
X179981171Y1237071D01*
X180171647Y1237071D01*
X180266885Y1284690D01*
X180314504Y1332309D01*
X180362123Y1427547D01*
%TO.C,H8*%
X394830395Y-61107980D02*
X394830395Y-60107980D01*
X394830395Y-60584171D02*
X395401823Y-60584171D01*
X395401823Y-61107980D02*
X395401823Y-60107980D01*
X396020871Y-60536552D02*
X395925633Y-60488933D01*
X395878014Y-60441314D01*
X395830395Y-60346076D01*
X395830395Y-60298457D01*
X395878014Y-60203219D01*
X395925633Y-60155600D01*
X396020871Y-60107980D01*
X396211347Y-60107980D01*
X396306585Y-60155600D01*
X396354204Y-60203219D01*
X396401823Y-60298457D01*
X396401823Y-60346076D01*
X396354204Y-60441314D01*
X396306585Y-60488933D01*
X396211347Y-60536552D01*
X396020871Y-60536552D01*
X395925633Y-60584171D01*
X395878014Y-60631790D01*
X395830395Y-60727028D01*
X395830395Y-60917504D01*
X395878014Y-61012742D01*
X395925633Y-61060361D01*
X396020871Y-61107980D01*
X396211347Y-61107980D01*
X396306585Y-61060361D01*
X396354204Y-61012742D01*
X396401823Y-60917504D01*
X396401823Y-60727028D01*
X396354204Y-60631790D01*
X396306585Y-60584171D01*
X396211347Y-60536552D01*
%TO.C,H7*%
X37338095Y-63927380D02*
X37338095Y-62927380D01*
X37338095Y-63403571D02*
X37909523Y-63403571D01*
X37909523Y-63927380D02*
X37909523Y-62927380D01*
X38290476Y-62927380D02*
X38957142Y-62927380D01*
X38528571Y-63927380D01*
%TO.C,H6*%
X27813095Y2315819D02*
X27813095Y3315819D01*
X27813095Y2839628D02*
X28384523Y2839628D01*
X28384523Y2315819D02*
X28384523Y3315819D01*
X29289285Y3315819D02*
X29098809Y3315819D01*
X29003571Y3268200D01*
X28955952Y3220580D01*
X28860714Y3077723D01*
X28813095Y2887247D01*
X28813095Y2506295D01*
X28860714Y2411057D01*
X28908333Y2363438D01*
X29003571Y2315819D01*
X29194047Y2315819D01*
X29289285Y2363438D01*
X29336904Y2411057D01*
X29384523Y2506295D01*
X29384523Y2744390D01*
X29336904Y2839628D01*
X29289285Y2887247D01*
X29194047Y2934866D01*
X29003571Y2934866D01*
X28908333Y2887247D01*
X28860714Y2839628D01*
X28813095Y2744390D01*
%TO.C,H5*%
X211467795Y-88793980D02*
X211467795Y-87793980D01*
X211467795Y-88270171D02*
X212039223Y-88270171D01*
X212039223Y-88793980D02*
X212039223Y-87793980D01*
X212991604Y-87793980D02*
X212515414Y-87793980D01*
X212467795Y-88270171D01*
X212515414Y-88222552D01*
X212610652Y-88174933D01*
X212848747Y-88174933D01*
X212943985Y-88222552D01*
X212991604Y-88270171D01*
X213039223Y-88365409D01*
X213039223Y-88603504D01*
X212991604Y-88698742D01*
X212943985Y-88746361D01*
X212848747Y-88793980D01*
X212610652Y-88793980D01*
X212515414Y-88746361D01*
X212467795Y-88698742D01*
%TO.C,H4*%
X211467795Y-45702880D02*
X211467795Y-44702880D01*
X211467795Y-45179071D02*
X212039223Y-45179071D01*
X212039223Y-45702880D02*
X212039223Y-44702880D01*
X212943985Y-45036214D02*
X212943985Y-45702880D01*
X212705890Y-44655261D02*
X212467795Y-45369547D01*
X213086842Y-45369547D01*
%TO.C,H3*%
X302869695Y-36419180D02*
X302869695Y-35419180D01*
X302869695Y-35895371D02*
X303441123Y-35895371D01*
X303441123Y-36419180D02*
X303441123Y-35419180D01*
X303822076Y-35419180D02*
X304441123Y-35419180D01*
X304107790Y-35800133D01*
X304250647Y-35800133D01*
X304345885Y-35847752D01*
X304393504Y-35895371D01*
X304441123Y-35990609D01*
X304441123Y-36228704D01*
X304393504Y-36323942D01*
X304345885Y-36371561D01*
X304250647Y-36419180D01*
X303964933Y-36419180D01*
X303869695Y-36371561D01*
X303822076Y-36323942D01*
%TO.C,H2*%
X242062095Y7256119D02*
X242062095Y8256119D01*
X242062095Y7779928D02*
X242633523Y7779928D01*
X242633523Y7256119D02*
X242633523Y8256119D01*
X243062095Y8160880D02*
X243109714Y8208500D01*
X243204952Y8256119D01*
X243443047Y8256119D01*
X243538285Y8208500D01*
X243585904Y8160880D01*
X243633523Y8065642D01*
X243633523Y7970404D01*
X243585904Y7827547D01*
X243014476Y7256119D01*
X243633523Y7256119D01*
%TO.C,H1*%
X121678795Y-35415880D02*
X121678795Y-34415880D01*
X121678795Y-34892071D02*
X122250223Y-34892071D01*
X122250223Y-35415880D02*
X122250223Y-34415880D01*
X123250223Y-35415880D02*
X122678795Y-35415880D01*
X122964509Y-35415880D02*
X122964509Y-34415880D01*
X122869271Y-34558738D01*
X122774033Y-34653976D01*
X122678795Y-34701595D01*
%TO.C,SW1*%
X424915709Y6795238D02*
X425058566Y6747619D01*
X425296662Y6747619D01*
X425391900Y6795238D01*
X425439519Y6842857D01*
X425487138Y6938095D01*
X425487138Y7033333D01*
X425439519Y7128571D01*
X425391900Y7176190D01*
X425296662Y7223809D01*
X425106185Y7271428D01*
X425010947Y7319047D01*
X424963328Y7366666D01*
X424915709Y7461904D01*
X424915709Y7557142D01*
X424963328Y7652380D01*
X425010947Y7700000D01*
X425106185Y7747619D01*
X425344281Y7747619D01*
X425487138Y7700000D01*
X425820471Y7747619D02*
X426058566Y6747619D01*
X426249043Y7461904D01*
X426439519Y6747619D01*
X426677614Y7747619D01*
X427582376Y6747619D02*
X427010947Y6747619D01*
X427296662Y6747619D02*
X427296662Y7747619D01*
X427201423Y7604761D01*
X427106185Y7509523D01*
X427010947Y7461904D01*
%TD*%
M02*
