%TF.GenerationSoftware,KiCad,Pcbnew,(5.1.10)-1*%
%TF.CreationDate,2021-07-27T21:23:13-07:00*%
%TF.ProjectId,V2,56322e6b-6963-4616-945f-706362585858,rev?*%
%TF.SameCoordinates,Original*%
%TF.FileFunction,Copper,L1,Top*%
%TF.FilePolarity,Positive*%
%FSLAX46Y46*%
G04 Gerber Fmt 4.6, Leading zero omitted, Abs format (unit mm)*
G04 Created by KiCad (PCBNEW (5.1.10)-1) date 2021-07-27 21:23:13*
%MOMM*%
%LPD*%
G01*
G04 APERTURE LIST*
%TA.AperFunction,SMDPad,CuDef*%
%ADD10R,2.000000X3.250000*%
%TD*%
%TA.AperFunction,SMDPad,CuDef*%
%ADD11R,3.250000X2.000000*%
%TD*%
%TA.AperFunction,ComponentPad*%
%ADD12C,1.752600*%
%TD*%
%TA.AperFunction,ComponentPad*%
%ADD13R,1.752600X1.752600*%
%TD*%
%TA.AperFunction,ViaPad*%
%ADD14C,0.800000*%
%TD*%
%TA.AperFunction,Conductor*%
%ADD15C,0.250000*%
%TD*%
G04 APERTURE END LIST*
D10*
%TO.P,U1,29*%
%TO.N,Row3*%
X218200000Y-21215000D03*
%TO.P,U1,28*%
%TO.N,Row2*%
X215660000Y-21215000D03*
%TO.P,U1,27*%
%TO.N,Net-(U1-Pad27)*%
X213120000Y-21215000D03*
%TO.P,U1,26*%
%TO.N,Row1*%
X210580000Y-21215000D03*
%TO.P,U1,25*%
%TO.N,Row0*%
X208040000Y-21215000D03*
D11*
%TO.P,U1,24*%
%TO.N,Col18*%
X222518000Y8630000D03*
%TO.P,U1,23*%
%TO.N,Net-(U1-Pad23)*%
X222518000Y6090000D03*
%TO.P,U1,22*%
%TO.N,Net-(U1-Pad22)*%
X222518000Y3550000D03*
%TO.P,U1,21*%
%TO.N,Net-(U1-Pad21)*%
X222518000Y1010000D03*
%TO.P,U1,20*%
%TO.N,Col17*%
X222518000Y-1530000D03*
%TO.P,U1,19*%
%TO.N,Col16*%
X222518000Y-4070000D03*
%TO.P,U1,18*%
%TO.N,Col15*%
X222518000Y-6610000D03*
%TO.P,U1,17*%
%TO.N,Col14*%
X222518000Y-9150000D03*
%TO.P,U1,16*%
%TO.N,Col13*%
X222518000Y-11690000D03*
%TO.P,U1,15*%
%TO.N,Col12*%
X222518000Y-14230000D03*
%TO.P,U1,14*%
%TO.N,Col11*%
X222518000Y-16770000D03*
%TO.P,U1,13*%
%TO.N,Col10*%
X222518000Y-19310000D03*
%TO.P,U1,12*%
%TO.N,Col9*%
X203722000Y-19310000D03*
%TO.P,U1,11*%
%TO.N,Col8*%
X203722000Y-16770000D03*
%TO.P,U1,10*%
%TO.N,Col7*%
X203722000Y-14230000D03*
%TO.P,U1,9*%
%TO.N,Col6*%
X203722000Y-11690000D03*
%TO.P,U1,8*%
%TO.N,Col5*%
X203722000Y-9150000D03*
%TO.P,U1,7*%
%TO.N,Col4*%
X203722000Y-6610000D03*
%TO.P,U1,6*%
%TO.N,Col3*%
X203722000Y-4070000D03*
%TO.P,U1,5*%
%TO.N,Col2*%
X203722000Y-1530000D03*
%TO.P,U1,4*%
%TO.N,Net-(U1-Pad4)*%
X203722000Y1010000D03*
%TO.P,U1,3*%
%TO.N,Net-(U1-Pad3)*%
X203722000Y3550000D03*
%TO.P,U1,2*%
%TO.N,Col1*%
X203722000Y6090000D03*
%TO.P,U1,1*%
%TO.N,Col0*%
X203722000Y8630000D03*
D12*
%TO.P,U1,25*%
%TO.N,Row0*%
X208040000Y-19310000D03*
%TO.P,U1,26*%
%TO.N,Row1*%
X210580000Y-19310000D03*
%TO.P,U1,27*%
%TO.N,Net-(U1-Pad27)*%
X213120000Y-19310000D03*
%TO.P,U1,28*%
%TO.N,Row2*%
X215660000Y-19310000D03*
%TO.P,U1,29*%
%TO.N,Row3*%
X218200000Y-19310000D03*
%TO.P,U1,24*%
%TO.N,Col18*%
X220740000Y8630000D03*
%TO.P,U1,12*%
%TO.N,Col9*%
X205728600Y-19310000D03*
%TO.P,U1,23*%
%TO.N,Net-(U1-Pad23)*%
X220740000Y6090000D03*
%TO.P,U1,22*%
%TO.N,Net-(U1-Pad22)*%
X220740000Y3550000D03*
%TO.P,U1,21*%
%TO.N,Net-(U1-Pad21)*%
X220740000Y1010000D03*
%TO.P,U1,20*%
%TO.N,Col17*%
X220740000Y-1530000D03*
%TO.P,U1,19*%
%TO.N,Col16*%
X220740000Y-4070000D03*
%TO.P,U1,18*%
%TO.N,Col15*%
X220740000Y-6610000D03*
%TO.P,U1,17*%
%TO.N,Col14*%
X220740000Y-9150000D03*
%TO.P,U1,16*%
%TO.N,Col13*%
X220740000Y-11690000D03*
%TO.P,U1,15*%
%TO.N,Col12*%
X220740000Y-14230000D03*
%TO.P,U1,14*%
%TO.N,Col11*%
X220740000Y-16770000D03*
%TO.P,U1,13*%
%TO.N,Col10*%
X220740000Y-19310000D03*
%TO.P,U1,11*%
%TO.N,Col8*%
X205500000Y-16770000D03*
%TO.P,U1,10*%
%TO.N,Col7*%
X205500000Y-14230000D03*
%TO.P,U1,9*%
%TO.N,Col6*%
X205500000Y-11690000D03*
%TO.P,U1,8*%
%TO.N,Col5*%
X205500000Y-9150000D03*
%TO.P,U1,7*%
%TO.N,Col4*%
X205500000Y-6610000D03*
%TO.P,U1,6*%
%TO.N,Col3*%
X205500000Y-4070000D03*
%TO.P,U1,5*%
%TO.N,Col2*%
X205500000Y-1530000D03*
%TO.P,U1,4*%
%TO.N,Net-(U1-Pad4)*%
X205500000Y1010000D03*
%TO.P,U1,3*%
%TO.N,Net-(U1-Pad3)*%
X205500000Y3550000D03*
%TO.P,U1,2*%
%TO.N,Col1*%
X205500000Y6090000D03*
D13*
%TO.P,U1,1*%
%TO.N,Col0*%
X205500000Y8630000D03*
%TD*%
D14*
%TO.N,Row0*%
X413600000Y-11190000D03*
X394560000Y-11170000D03*
X358080000Y-9520000D03*
X339050000Y-9520000D03*
X320030000Y-9520000D03*
X287410000Y-9410000D03*
X268660000Y-12720000D03*
X249900000Y-16010000D03*
X231120000Y-19380000D03*
X186300000Y-17960000D03*
X167550000Y-14680000D03*
X148800000Y-11340000D03*
X111210000Y-9530000D03*
X92140000Y-9520000D03*
X66680000Y-11190000D03*
X49290000Y-9520000D03*
X30280000Y-9510000D03*
X11200000Y-9520000D03*
%TO.N,Row1*%
X329510000Y-28580000D03*
X348550000Y-28580000D03*
X367620000Y-28560000D03*
X394540000Y-30210000D03*
X413600000Y-30210000D03*
X281350000Y-29840000D03*
X262570000Y-33130000D03*
X243820000Y-36470000D03*
X225030000Y-39760000D03*
X197060000Y-39200000D03*
X178320000Y-35870000D03*
X159540000Y-32590000D03*
X101710000Y-28590000D03*
X49270000Y-28580000D03*
X30250000Y-28580000D03*
X11200000Y-28510000D03*
X128580000Y-2230000D03*
X140784933Y-29246519D03*
%TO.N,Row2*%
X394550000Y-48930000D03*
X353340000Y-47610000D03*
X334270000Y-47630000D03*
X293740000Y-46970000D03*
X275790000Y-50160000D03*
X256480000Y-53550000D03*
X237750000Y-56860000D03*
X197530000Y-58580000D03*
X178800000Y-55290000D03*
X163290000Y-52550000D03*
X144530000Y-49240000D03*
X104770000Y-45750000D03*
X49270000Y-47630000D03*
X30230000Y-47620000D03*
X11200000Y-47620000D03*
X413620000Y-49280000D03*
X120750000Y-28570000D03*
X66680000Y-30180000D03*
%TO.N,Row3*%
X125470000Y-47600000D03*
X11190000Y-66680000D03*
X30210000Y-66680000D03*
X49290000Y-66670000D03*
X66680000Y-68320000D03*
X115950000Y-66660000D03*
X156250000Y-70670000D03*
X172620000Y-73540000D03*
X198440000Y-78090000D03*
X209720000Y-73160000D03*
X224650000Y-78520000D03*
X243400000Y-75210000D03*
X262190000Y-71900000D03*
X277590000Y-69180000D03*
X290290000Y-66940000D03*
X343810000Y-66680000D03*
X377150000Y-66670000D03*
X396260000Y-66670000D03*
X415280000Y-66670000D03*
%TO.N,Row4*%
X135000000Y-66680000D03*
X151353481Y-88774933D03*
%TO.N,Col5*%
X111977500Y5397500D03*
%TO.N,Col6*%
X132899978Y3725862D03*
%TO.N,Col7*%
X151660565Y-9908523D03*
%TO.N,Col8*%
X162423008Y-30433008D03*
%TO.N,Col11*%
X236376396Y-28503604D03*
%TO.N,Col12*%
X258405456Y-30434544D03*
%TO.N,Col13*%
X273897570Y-18901217D03*
%TO.N,Col14*%
X301734546Y2540000D03*
%TO.N,Col15*%
X320784546Y2540000D03*
%TD*%
D15*
%TO.N,Row0*%
X30270000Y-9520000D02*
X30280000Y-9510000D01*
X11200000Y-9520000D02*
X30270000Y-9520000D01*
X49280000Y-9510000D02*
X49290000Y-9520000D01*
X30280000Y-9510000D02*
X49280000Y-9510000D01*
X65010000Y-9520000D02*
X66680000Y-11190000D01*
X49290000Y-9520000D02*
X65010000Y-9520000D01*
X90470000Y-11190000D02*
X92140000Y-9520000D01*
X66680000Y-11190000D02*
X90470000Y-11190000D01*
X111200000Y-9520000D02*
X111210000Y-9530000D01*
X92140000Y-9520000D02*
X111200000Y-9520000D01*
X146990000Y-9530000D02*
X148800000Y-11340000D01*
X111210000Y-9530000D02*
X146990000Y-9530000D01*
X164210000Y-11340000D02*
X167550000Y-14680000D01*
X148800000Y-11340000D02*
X164210000Y-11340000D01*
X183020000Y-14680000D02*
X186300000Y-17960000D01*
X167550000Y-14680000D02*
X183020000Y-14680000D01*
X246530000Y-19380000D02*
X249900000Y-16010000D01*
X231120000Y-19380000D02*
X246530000Y-19380000D01*
X265370000Y-16010000D02*
X268660000Y-12720000D01*
X249900000Y-16010000D02*
X265370000Y-16010000D01*
X284100000Y-12720000D02*
X287410000Y-9410000D01*
X268660000Y-12720000D02*
X284100000Y-12720000D01*
X319920000Y-9410000D02*
X320030000Y-9520000D01*
X287410000Y-9410000D02*
X319920000Y-9410000D01*
X320030000Y-9520000D02*
X339050000Y-9520000D01*
X339050000Y-9520000D02*
X358080000Y-9520000D01*
X393963901Y-10573901D02*
X394560000Y-11170000D01*
X359133901Y-10573901D02*
X393963901Y-10573901D01*
X358080000Y-9520000D02*
X359133901Y-10573901D01*
X413580000Y-11170000D02*
X413600000Y-11190000D01*
X394560000Y-11170000D02*
X413580000Y-11170000D01*
X208040000Y-21215000D02*
X208040000Y-19310000D01*
%TO.N,Row1*%
X30180000Y-28510000D02*
X30250000Y-28580000D01*
X11200000Y-28510000D02*
X30180000Y-28510000D01*
X30250000Y-28580000D02*
X49270000Y-28580000D01*
X140736451Y-29295001D02*
X140784933Y-29246519D01*
X156196519Y-29246519D02*
X159540000Y-32590000D01*
X140784933Y-29246519D02*
X156196519Y-29246519D01*
X175040000Y-32590000D02*
X178320000Y-35870000D01*
X159540000Y-32590000D02*
X175040000Y-32590000D01*
X193730000Y-35870000D02*
X197060000Y-39200000D01*
X178320000Y-35870000D02*
X193730000Y-35870000D01*
X224470000Y-39200000D02*
X225030000Y-39760000D01*
X197060000Y-39200000D02*
X224470000Y-39200000D01*
X240530000Y-39760000D02*
X243820000Y-36470000D01*
X225030000Y-39760000D02*
X240530000Y-39760000D01*
X259230000Y-36470000D02*
X262570000Y-33130000D01*
X243820000Y-36470000D02*
X259230000Y-36470000D01*
X278060000Y-33130000D02*
X281350000Y-29840000D01*
X262570000Y-33130000D02*
X278060000Y-33130000D01*
X328250000Y-29840000D02*
X329510000Y-28580000D01*
X281350000Y-29840000D02*
X328250000Y-29840000D01*
X329510000Y-28580000D02*
X348550000Y-28580000D01*
X367600000Y-28580000D02*
X367620000Y-28560000D01*
X348550000Y-28580000D02*
X367600000Y-28580000D01*
X392890000Y-28560000D02*
X394540000Y-30210000D01*
X367620000Y-28560000D02*
X392890000Y-28560000D01*
X394540000Y-30210000D02*
X413600000Y-30210000D01*
X101710000Y-28590000D02*
X104730000Y-25570000D01*
X137108414Y-25570000D02*
X140784933Y-29246519D01*
X104730000Y-25570000D02*
X137108414Y-25570000D01*
X56036927Y-26256099D02*
X79846099Y-26256099D01*
X53713026Y-28580000D02*
X56036927Y-26256099D01*
X49270000Y-28580000D02*
X53713026Y-28580000D01*
X82180000Y-28590000D02*
X101710000Y-28590000D01*
X79846099Y-26256099D02*
X82180000Y-28590000D01*
X210580000Y-21215000D02*
X210580000Y-19310000D01*
X210580000Y-25680000D02*
X197060000Y-39200000D01*
X210580000Y-21215000D02*
X210580000Y-25680000D01*
%TO.N,Row2*%
X394900000Y-49280000D02*
X394550000Y-48930000D01*
X413620000Y-49280000D02*
X394900000Y-49280000D01*
X354660000Y-48930000D02*
X353340000Y-47610000D01*
X394550000Y-48930000D02*
X354660000Y-48930000D01*
X334290000Y-47610000D02*
X334270000Y-47630000D01*
X353340000Y-47610000D02*
X334290000Y-47610000D01*
X294400000Y-47630000D02*
X293740000Y-46970000D01*
X334270000Y-47630000D02*
X294400000Y-47630000D01*
X278980000Y-46970000D02*
X275790000Y-50160000D01*
X293740000Y-46970000D02*
X278980000Y-46970000D01*
X259870000Y-50160000D02*
X256480000Y-53550000D01*
X275790000Y-50160000D02*
X259870000Y-50160000D01*
X241060000Y-53550000D02*
X237750000Y-56860000D01*
X256480000Y-53550000D02*
X241060000Y-53550000D01*
X199250000Y-56860000D02*
X197530000Y-58580000D01*
X237750000Y-56860000D02*
X199250000Y-56860000D01*
X182090000Y-58580000D02*
X178800000Y-55290000D01*
X197530000Y-58580000D02*
X182090000Y-58580000D01*
X166030000Y-55290000D02*
X163290000Y-52550000D01*
X178800000Y-55290000D02*
X166030000Y-55290000D01*
X159980000Y-49240000D02*
X144530000Y-49240000D01*
X163290000Y-52550000D02*
X159980000Y-49240000D01*
X120750000Y-29421858D02*
X120750000Y-28570000D01*
X144530000Y-49240000D02*
X140568142Y-49240000D01*
X137078142Y-45750000D02*
X137179071Y-45850929D01*
X104770000Y-45750000D02*
X137078142Y-45750000D01*
X137179071Y-45850929D02*
X120750000Y-29421858D01*
X140568142Y-49240000D02*
X137179071Y-45850929D01*
X82250000Y-45750000D02*
X104770000Y-45750000D01*
X80200000Y-47630000D02*
X82165000Y-45665000D01*
X49270000Y-47630000D02*
X80200000Y-47630000D01*
X82165000Y-45665000D02*
X82250000Y-45750000D01*
X66680000Y-30180000D02*
X82165000Y-45665000D01*
X30240000Y-47630000D02*
X30230000Y-47620000D01*
X49270000Y-47630000D02*
X30240000Y-47630000D01*
X30230000Y-47620000D02*
X11200000Y-47620000D01*
X215660000Y-21215000D02*
X215660000Y-19310000D01*
%TO.N,Row3*%
X11190000Y-66680000D02*
X30210000Y-66680000D01*
X49280000Y-66680000D02*
X49290000Y-66670000D01*
X30210000Y-66680000D02*
X49280000Y-66680000D01*
X66006099Y-68993901D02*
X66680000Y-68320000D01*
X56036927Y-68993901D02*
X66006099Y-68993901D01*
X53713026Y-66670000D02*
X56036927Y-68993901D01*
X49290000Y-66670000D02*
X53713026Y-66670000D01*
X114290000Y-68320000D02*
X115950000Y-66660000D01*
X66680000Y-68320000D02*
X114290000Y-68320000D01*
X151534999Y-65954999D02*
X156250000Y-70670000D01*
X116655001Y-65954999D02*
X151534999Y-65954999D01*
X115950000Y-66660000D02*
X116655001Y-65954999D01*
X121506099Y-56036927D02*
X121506099Y-61103901D01*
X121840001Y-55703025D02*
X121506099Y-56036927D01*
X121840001Y-51229999D02*
X121840001Y-55703025D01*
X121506099Y-61103901D02*
X115950000Y-66660000D01*
X125470000Y-47600000D02*
X121840001Y-51229999D01*
X191020000Y-70670000D02*
X198440000Y-78090000D01*
X204790000Y-78090000D02*
X209720000Y-73160000D01*
X198440000Y-78090000D02*
X204790000Y-78090000D01*
X219290000Y-73160000D02*
X224650000Y-78520000D01*
X209720000Y-73160000D02*
X219290000Y-73160000D01*
X237623590Y-80986410D02*
X243400000Y-75210000D01*
X227116410Y-80986410D02*
X237623590Y-80986410D01*
X224650000Y-78520000D02*
X227116410Y-80986410D01*
X261887416Y-72202584D02*
X262190000Y-71900000D01*
X246407416Y-72202584D02*
X261887416Y-72202584D01*
X243400000Y-75210000D02*
X246407416Y-72202584D01*
X274870000Y-71900000D02*
X277590000Y-69180000D01*
X262190000Y-71900000D02*
X274870000Y-71900000D01*
X288050000Y-69180000D02*
X290290000Y-66940000D01*
X277590000Y-69180000D02*
X288050000Y-69180000D01*
X343550000Y-66940000D02*
X343810000Y-66680000D01*
X290290000Y-66940000D02*
X343550000Y-66940000D01*
X377140000Y-66680000D02*
X377150000Y-66670000D01*
X343810000Y-66680000D02*
X377140000Y-66680000D01*
X377150000Y-66670000D02*
X396260000Y-66670000D01*
X396260000Y-66670000D02*
X415280000Y-66670000D01*
X169750000Y-70670000D02*
X172620000Y-73540000D01*
X168210000Y-70670000D02*
X169750000Y-70670000D01*
X156250000Y-70670000D02*
X168210000Y-70670000D01*
X168210000Y-70670000D02*
X191020000Y-70670000D01*
X218200000Y-21215000D02*
X218200000Y-19310000D01*
%TO.N,Row4*%
X148199066Y-88774933D02*
X151353481Y-88774933D01*
X138794615Y-77144336D02*
X138794615Y-79370482D01*
X138794615Y-79370482D02*
X148199066Y-88774933D01*
X139627466Y-76311485D02*
X138794615Y-77144336D01*
X139627466Y-71307466D02*
X139627466Y-76311485D01*
X135000000Y-66680000D02*
X139627466Y-71307466D01*
%TO.N,Col0*%
X205500000Y8630000D02*
X203722000Y8630000D01*
%TO.N,Col1*%
X205500000Y6090000D02*
X203722000Y6090000D01*
%TO.N,Col2*%
X205500000Y-1530000D02*
X203722000Y-1530000D01*
%TO.N,Col3*%
X205500000Y-4070000D02*
X203722000Y-4070000D01*
%TO.N,Col4*%
X203722000Y-6610000D02*
X205500000Y-6610000D01*
%TO.N,Col5*%
X203722000Y-9150000D02*
X205500000Y-9150000D01*
X186672000Y9762501D02*
X115582501Y9762501D01*
X200926581Y-4492080D02*
X186672000Y9762501D01*
X200926581Y-7024583D02*
X200926581Y-4492080D01*
X203051998Y-9150000D02*
X200926581Y-7024583D01*
X203722000Y-9150000D02*
X203051998Y-9150000D01*
X111977500Y6157500D02*
X111977500Y5397500D01*
X115582501Y9762501D02*
X111977500Y6157500D01*
%TO.N,Col6*%
X203722000Y-11690000D02*
X205500000Y-11690000D01*
X135555027Y6380911D02*
X132899978Y3725862D01*
X182839261Y6380911D02*
X135555027Y6380911D01*
X198036937Y-8816765D02*
X182839261Y6380911D01*
X198036937Y-9904051D02*
X198036937Y-8816765D01*
X200144858Y-12011972D02*
X198036937Y-9904051D01*
X203400028Y-12011972D02*
X200144858Y-12011972D01*
X203722000Y-11690000D02*
X203400028Y-12011972D01*
%TO.N,Col7*%
X203722000Y-14230000D02*
X205500000Y-14230000D01*
X163851525Y-9908523D02*
X151660565Y-9908523D01*
X168173002Y-14230000D02*
X163851525Y-9908523D01*
X203722000Y-14230000D02*
X168173002Y-14230000D01*
%TO.N,Col8*%
X203722000Y-16770000D02*
X205500000Y-16770000D01*
X188563002Y-16770000D02*
X177823002Y-27510000D01*
X203722000Y-16770000D02*
X188563002Y-16770000D01*
X165346016Y-27510000D02*
X162423008Y-30433008D01*
X177823002Y-27510000D02*
X165346016Y-27510000D01*
%TO.N,Col9*%
X203722000Y-19310000D02*
X205728600Y-19310000D01*
%TO.N,Col10*%
X222518000Y-19310000D02*
X220740000Y-19310000D01*
%TO.N,Col11*%
X222518000Y-16770000D02*
X220740000Y-16770000D01*
X224642792Y-16770000D02*
X236376396Y-28503604D01*
X222518000Y-16770000D02*
X224642792Y-16770000D01*
%TO.N,Col12*%
X222518000Y-14230000D02*
X220740000Y-14230000D01*
X239347544Y-30434544D02*
X258405456Y-30434544D01*
X223143000Y-14230000D02*
X239347544Y-30434544D01*
X222518000Y-14230000D02*
X223143000Y-14230000D01*
%TO.N,Col13*%
X222518000Y-11690000D02*
X220740000Y-11690000D01*
X265692594Y-27106193D02*
X273897570Y-18901217D01*
X248221647Y-27106193D02*
X265692594Y-27106193D01*
X244238966Y-23123512D02*
X248221647Y-27106193D01*
X233790510Y-23123512D02*
X244238966Y-23123512D01*
X225453841Y-14786843D02*
X233790510Y-23123512D01*
X225453841Y-12750841D02*
X225453841Y-14786843D01*
X224393000Y-11690000D02*
X225453841Y-12750841D01*
X222518000Y-11690000D02*
X224393000Y-11690000D01*
%TO.N,Col14*%
X222518000Y-9150000D02*
X220740000Y-9150000D01*
X278230352Y-2076646D02*
X297117900Y-2076646D01*
X268306361Y-12000637D02*
X278230352Y-2076646D01*
X225764478Y-12000637D02*
X268306361Y-12000637D01*
X224468001Y-10704160D02*
X225764478Y-12000637D01*
X297117900Y-2076646D02*
X301734546Y2540000D01*
X224468001Y-9225001D02*
X224468001Y-10704160D01*
X224393000Y-9150000D02*
X224468001Y-9225001D01*
X222518000Y-9150000D02*
X224393000Y-9150000D01*
%TO.N,Col15*%
X222518000Y-6610000D02*
X220740000Y-6610000D01*
X225444273Y-6610000D02*
X242514273Y10460000D01*
X222518000Y-6610000D02*
X225444273Y-6610000D01*
X312864546Y10460000D02*
X320784546Y2540000D01*
X242514273Y10460000D02*
X312864546Y10460000D01*
%TO.N,Col16*%
X222518000Y-4070000D02*
X220740000Y-4070000D01*
%TO.N,Col17*%
X222518000Y-1530000D02*
X220740000Y-1530000D01*
%TO.N,Col18*%
X222518000Y8630000D02*
X220740000Y8630000D01*
%TO.N,Net-(U1-Pad27)*%
X213120000Y-21215000D02*
X213120000Y-19310000D01*
%TO.N,Net-(U1-Pad23)*%
X222518000Y6090000D02*
X220740000Y6090000D01*
%TO.N,Net-(U1-Pad22)*%
X222518000Y3550000D02*
X220740000Y3550000D01*
%TO.N,Net-(U1-Pad21)*%
X222518000Y1010000D02*
X220740000Y1010000D01*
%TO.N,Net-(U1-Pad4)*%
X205500000Y1010000D02*
X203722000Y1010000D01*
%TO.N,Net-(U1-Pad3)*%
X205500000Y3550000D02*
X203722000Y3550000D01*
%TD*%
M02*
