M48
; DRILL file {KiCad (5.1.10)-1} date 07/27/21 21:22:50
; FORMAT={-:-/ absolute / inch / decimal}
; #@! TF.CreationDate,2021-07-27T21:22:50-07:00
; #@! TF.GenerationSoftware,Kicad,Pcbnew,(5.1.10)-1
FMAT,2
INCH
T1C0.0157
T2C0.0430
T3C0.0689
T4C0.1181
T5C0.1200
T6C0.1570
%
G90
G05
T1
X0.4406Y-2.6252
X0.4409Y-0.3748
X0.4409Y-1.1224
X0.4409Y-1.8748
X1.1894Y-2.6252
X1.1902Y-1.8748
X1.1909Y-1.1252
X1.1921Y-0.3744
X1.9398Y-1.1252
X1.9398Y-1.8752
X1.9406Y-0.3748
X1.9406Y-2.6248
X2.6252Y-0.4406
X2.6252Y-1.1882
X2.6252Y-2.6898
X3.6276Y-0.3748
X4.0043Y-1.1256
X4.1248Y-1.8012
X4.3783Y-0.3752
X4.4086Y0.2125
X4.565Y-2.6244
X4.7539Y-1.1248
X4.9398Y-1.874
X5.0622Y-0.0878
X5.2323Y0.1467
X5.315Y-2.6252
X5.5427Y-1.1514
X5.6902Y-1.9386
X5.8583Y-0.4465
X5.9588Y-3.4951
X5.9709Y-0.3901
X6.1516Y-2.7823
X6.2811Y-1.2831
X6.3946Y-1.1981
X6.4287Y-2.0689
X6.5965Y-0.578
X6.7961Y-2.8953
X7.0205Y-1.4122
X7.0394Y-2.1768
X7.3346Y-0.7071
X7.7583Y-1.5433
X7.7768Y-2.3063
X7.8126Y-3.0744
X8.2567Y-2.8803
X8.8445Y-3.0913
X8.8594Y-1.5654
X9.0992Y-0.763
X9.3062Y-1.1222
X9.3602Y-2.2386
X9.5827Y-2.961
X9.5992Y-1.4358
X9.8386Y-0.6303
X10.0976Y-2.1083
X10.1734Y-1.1982
X10.3224Y-2.8307
X10.3374Y-1.3043
X10.5772Y-0.5008
X10.7834Y-0.7441
X10.8579Y-1.9748
X10.9287Y-2.7236
X11.0768Y-1.1748
X11.3154Y-0.3705
X11.4287Y-2.6354
X11.5646Y-1.8492
X11.8793Y0.1
X12.5996Y-0.3748
X12.6293Y0.1
X12.9728Y-1.1252
X13.1602Y-1.8752
X13.3484Y-0.3748
X13.5358Y-2.6252
X13.7224Y-1.1252
X13.911Y-1.8744
X14.0976Y-0.3748
X14.4732Y-1.1244
X14.8484Y-2.6248
X15.5331Y-1.1894
X15.5335Y-1.9264
X15.5339Y-0.4398
X15.6008Y-2.6248
X16.2835Y-0.4406
X16.2835Y-1.1894
X16.2843Y-1.9402
X16.3496Y-2.6248
T2
X8.0906Y0.3398
X8.0906Y0.2398
X8.0906Y0.1398
X8.0906Y0.0398
X8.0906Y-0.0602
X8.0906Y-0.1602
X8.0906Y-0.2602
X8.0906Y-0.3602
X8.0906Y-0.4602
X8.0906Y-0.5602
X8.0906Y-0.6602
X8.0996Y-0.7602
X8.1906Y-0.7602
X8.2906Y-0.7602
X8.3906Y-0.7602
X8.4906Y-0.7602
X8.5906Y-0.7602
X8.6906Y0.3398
X8.6906Y0.2398
X8.6906Y0.1398
X8.6906Y0.0398
X8.6906Y-0.0602
X8.6906Y-0.1602
X8.6906Y-0.2602
X8.6906Y-0.3602
X8.6906Y-0.4602
X8.6906Y-0.5602
X8.6906Y-0.6602
X8.6906Y-0.7602
T3
X-0.2Y0.0
X-0.2Y-0.75
X-0.2Y-1.5
X-0.2Y-2.25
X-0.2Y-3.0
X0.175Y-3.0
X0.2Y0.0
X0.2Y-0.75
X0.2Y-1.5
X0.2Y-2.25
X0.2Y-3.0
X0.55Y0.0
X0.55Y-0.75
X0.55Y-1.5
X0.55Y-2.25
X0.55Y-3.0
X0.575Y-3.0
X0.95Y0.0
X0.95Y-0.75
X0.95Y-1.5
X0.95Y-2.25
X0.95Y-3.0
X1.3Y0.0
X1.3Y-0.75
X1.3Y-1.5
X1.3Y-2.25
X1.3Y-3.0
X1.7Y0.0
X1.7Y-0.75
X1.7Y-1.5
X1.7Y-2.25
X1.7Y-3.0
X2.05Y0.0
X2.25Y-0.925
X2.25Y-1.325
X2.25Y-2.425
X2.25Y-2.825
X2.45Y0.0
X2.9875Y0.0
X3.0812Y-3.0
X3.175Y-0.75
X3.2687Y-1.5
X3.3875Y0.0
X3.4562Y-2.25
X3.4812Y-3.0
X3.575Y-0.75
X3.6687Y-1.5
X3.7375Y0.0
X3.8562Y-2.25
X4.0187Y-3.0
X4.1125Y-0.75
X4.1375Y0.0
X4.3Y-1.5
X4.4188Y-3.0
X4.4875Y0.1125
X4.5125Y-0.75
X4.675Y-2.25
X4.7Y-1.5
X4.8875Y0.1125
X4.9778Y-0.6715
X5.075Y-2.25
X5.1245Y-1.459
X5.2927Y0.0345
X5.3587Y-3.0463
X5.3717Y-0.741
X5.4928Y-2.2855
X5.5184Y-1.5285
X5.6866Y-0.035
X5.7164Y-0.8018
X5.7526Y-3.1157
X5.8631Y-1.5892
X5.8868Y-2.355
X6.0313Y-0.0957
X6.1103Y-0.8712
X6.2314Y-2.4157
X6.257Y-1.6587
X6.4252Y-0.1652
X6.455Y-0.932
X6.6017Y-1.7195
X6.6254Y-2.4852
X6.6552Y-3.252
X6.7699Y-0.226
X6.8489Y-1.0015
X6.97Y-2.546
X6.9956Y-1.7889
X7.0491Y-3.3215
X7.1638Y-0.2954
X7.1936Y-1.0623
X7.3403Y-1.8497
X7.364Y-2.6154
X7.5085Y-0.3562
X7.5875Y-1.1317
X7.7086Y-2.6762
X7.7342Y-1.9192
X7.8554Y-3.4637
X7.9024Y-0.4257
X8.1026Y-2.7457
X8.2493Y-3.5331
X8.6461Y-2.7457
X8.6627Y-1.2196
X8.9017Y-0.4159
X9.0401Y-2.6762
X9.0566Y-1.1502
X9.1622Y-1.8931
X9.2956Y-0.3464
X9.3848Y-2.6154
X9.4013Y-1.0894
X9.4227Y-3.3703
X9.5561Y-1.8237
X9.6403Y-0.2857
X9.7787Y-2.546
X9.7952Y-1.0199
X9.8166Y-3.3009
X9.9008Y-1.7629
X10.0342Y-0.2162
X10.1234Y-2.4852
X10.1399Y-0.9592
X10.2947Y-1.6934
X10.3789Y-0.1554
X10.5173Y-2.4157
X10.5338Y-0.8897
X10.6394Y-1.6326
X10.7729Y-0.086
X10.862Y-2.355
X10.8785Y-0.8289
X10.8999Y-3.1099
X11.0333Y-1.5632
X11.1175Y-0.0252
X11.2559Y-2.2855
X11.2724Y-0.7595
X11.2938Y-3.0404
X11.378Y-1.5024
X11.5115Y0.0443
X11.6006Y-2.2247
X11.7719Y-1.4329
X11.9582Y0.0
X11.9945Y-2.1553
X12.2395Y-3.0
X12.3332Y-0.75
X12.3582Y0.0
X12.5207Y-1.5
X12.6395Y-3.0
X12.7082Y0.0
X12.7332Y-0.75
X12.8957Y-2.25
X12.9207Y-1.5
X13.0832Y-0.75
X13.1082Y0.0
X13.177Y-3.0
X13.2707Y-1.5
X13.2957Y-2.25
X13.4582Y0.0
X13.4832Y-0.75
X13.577Y-3.0
X13.6707Y-1.5
X13.8332Y-0.75
X13.8582Y0.0
X13.927Y-2.25
X14.1145Y-3.0
X14.2332Y-0.75
X14.327Y-2.25
X14.4895Y-1.5
X14.5145Y-3.0
X14.5832Y0.0
X14.7707Y-0.75
X14.8895Y-1.5
X14.9582Y-2.25
X14.9582Y-3.0
X14.9832Y0.0
X15.1707Y-0.75
X15.3582Y-2.25
X15.3582Y-3.0
X15.7082Y-2.25
X15.7082Y-3.0
X16.1082Y-2.25
X16.1082Y-3.0
X16.4582Y0.0
X16.4582Y-0.75
X16.4582Y-1.5
X16.4582Y-3.0
X16.8582Y0.0
X16.8582Y-0.75
X16.8582Y-1.5
X16.8582Y-3.0
T4
X-0.15Y0.1
X-0.15Y-0.65
X-0.15Y-1.4
X-0.15Y-2.15
X-0.15Y-2.9
X0.1Y0.2
X0.1Y-0.55
X0.1Y-1.3
X0.1Y-2.05
X0.1Y-2.8
X0.225Y-2.9
X0.475Y-2.8
X0.6Y0.1
X0.6Y-0.65
X0.6Y-1.4
X0.6Y-2.15
X0.6Y-2.9
X0.85Y0.2
X0.85Y-0.55
X0.85Y-1.3
X0.85Y-2.05
X0.85Y-2.8
X1.35Y0.1
X1.35Y-0.65
X1.35Y-1.4
X1.35Y-2.15
X1.35Y-2.9
X1.6Y0.2
X1.6Y-0.55
X1.6Y-1.3
X1.6Y-2.05
X1.6Y-2.8
X2.05Y-1.025
X2.05Y-2.525
X2.1Y0.1
X2.15Y-1.275
X2.15Y-2.775
X2.35Y0.2
X3.0375Y0.1
X3.1313Y-2.9
X3.225Y-0.65
X3.2875Y0.2
X3.3188Y-1.4
X3.3813Y-2.8
X3.475Y-0.55
X3.5063Y-2.15
X3.5688Y-1.3
X3.7563Y-2.05
X3.7875Y0.1
X4.0375Y0.2
X4.0687Y-2.9
X4.1625Y-0.65
X4.3187Y-2.8
X4.35Y-1.4
X4.4125Y-0.55
X4.5375Y0.2125
X4.6Y-1.3
X4.725Y-2.15
X4.7875Y0.3125
X4.975Y-2.05
X5.0444Y-0.5817
X5.1911Y-1.3692
X5.3079Y-0.5267
X5.3593Y0.1243
X5.4253Y-2.9565
X5.4547Y-1.3141
X5.5594Y-2.1957
X5.6228Y0.1794
X5.6889Y-2.9014
X5.783Y-0.712
X5.823Y-2.1406
X5.9297Y-1.4994
X6.0465Y-0.6569
X6.0979Y-0.0059
X6.1933Y-1.4444
X6.298Y-2.3259
X6.3614Y0.0491
X6.5216Y-0.8422
X6.5616Y-2.2709
X6.6683Y-1.6297
X6.7218Y-3.1622
X6.7852Y-0.7872
X6.8365Y-0.1362
X6.9319Y-1.5746
X6.9853Y-3.1072
X7.0366Y-2.4562
X7.1Y-0.0811
X7.2602Y-0.9725
X7.3002Y-2.4011
X7.4069Y-1.7599
X7.5238Y-0.9174
X7.5751Y-0.2664
X7.6705Y-1.7048
X7.7753Y-2.5864
X7.8386Y-0.2113
X7.922Y-3.3739
X8.0388Y-2.5313
X8.1856Y-3.3188
X8.678Y-2.6385
X8.6945Y-1.1125
X8.9069Y-2.4966
X8.9234Y-0.9706
X8.9336Y-0.3087
X9.1624Y-0.1668
X9.1941Y-1.7859
X9.4166Y-2.5083
X9.4229Y-1.6441
X9.4331Y-0.9822
X9.4545Y-3.2632
X9.6455Y-2.3664
X9.662Y-0.8403
X9.6722Y-0.1785
X9.6834Y-3.1213
X9.901Y-0.0366
X9.9327Y-1.6557
X10.1552Y-2.378
X10.1615Y-1.5138
X10.1717Y-0.852
X10.3841Y-2.2361
X10.4006Y-0.7101
X10.4108Y-0.0483
X10.6396Y0.0936
X10.6713Y-1.5255
X10.8938Y-2.2478
X10.9001Y-1.3836
X10.9103Y-0.7218
X10.9318Y-3.0027
X11.1227Y-2.1059
X11.1392Y-0.5799
X11.1494Y0.082
X11.1606Y-2.8608
X11.3783Y0.2239
X11.4099Y-1.3952
X11.6324Y-2.1176
X11.6387Y-1.2533
X11.8613Y-1.9757
X12.0082Y0.1
X12.2582Y0.2
X12.2895Y-2.9
X12.3832Y-0.65
X12.5395Y-2.8
X12.5707Y-1.4
X12.6332Y-0.55
X12.7582Y0.1
X12.8207Y-1.3
X12.9457Y-2.15
X13.0082Y0.2
X13.1332Y-0.65
X13.1957Y-2.05
X13.227Y-2.9
X13.3207Y-1.4
X13.3832Y-0.55
X13.477Y-2.8
X13.5082Y0.1
X13.5707Y-1.3
X13.7582Y0.2
X13.8832Y-0.65
X13.977Y-2.15
X14.1332Y-0.55
X14.1645Y-2.9
X14.227Y-2.05
X14.4145Y-2.8
X14.5395Y-1.4
X14.6332Y0.1
X14.7895Y-1.3
X14.8207Y-0.65
X14.8832Y0.2
X15.0082Y-2.15
X15.0082Y-2.9
X15.0707Y-0.55
X15.2582Y-2.05
X15.2582Y-2.8
X15.7582Y-2.15
X15.7582Y-2.9
X16.0082Y-2.05
X16.0082Y-2.8
X16.5082Y0.1
X16.5082Y-0.65
X16.5082Y-1.4
X16.5082Y-2.9
X16.7582Y0.2
X16.7582Y-0.55
X16.7582Y-1.3
X16.7582Y-2.8
T5
X-0.095Y-3.275
X0.845Y-3.275
X1.975Y-0.655
X1.975Y-1.595
X1.975Y-2.155
X1.975Y-3.095
X3.1862Y-1.975
X4.1262Y-1.975
X6.3415Y-3.476
X7.2672Y-3.6392
X9.2045Y-3.688
X10.1302Y-3.5248
X14.2195Y-1.225
X14.3132Y0.275
X15.1595Y-1.225
X15.2532Y0.275
T6
X-0.095Y-2.675
X0.0Y0.0
X0.0Y-0.75
X0.0Y-1.5
X0.0Y-2.25
X0.0Y-3.0
X0.375Y-3.0
X0.75Y0.0
X0.75Y-0.75
X0.75Y-1.5
X0.75Y-2.25
X0.75Y-3.0
X0.845Y-2.675
X1.5Y0.0
X1.5Y-0.75
X1.5Y-1.5
X1.5Y-2.25
X1.5Y-3.0
X2.25Y0.0
X2.25Y-1.125
X2.25Y-2.625
X2.575Y-0.655
X2.575Y-1.595
X2.575Y-2.155
X2.575Y-3.095
X3.1862Y-2.575
X3.1875Y0.0
X3.2812Y-3.0
X3.375Y-0.75
X3.4688Y-1.5
X3.6562Y-2.25
X3.9375Y0.0
X4.1262Y-2.575
X4.2188Y-3.0
X4.3125Y-0.75
X4.5Y-1.5
X4.6875Y0.1125
X4.875Y-2.25
X5.1747Y-0.7063
X5.3215Y-1.4937
X5.4896Y-0.0002
X5.5557Y-3.081
X5.6898Y-2.3202
X5.9133Y-0.8365
X6.0601Y-1.624
X6.2282Y-0.1305
X6.4284Y-2.4505
X6.4457Y-2.8851
X6.6519Y-0.9667
X6.7987Y-1.7542
X6.8521Y-3.2868
X6.9668Y-0.2607
X7.167Y-2.5807
X7.3714Y-3.0483
X7.3905Y-1.097
X7.5373Y-1.8844
X7.7054Y-0.3909
X7.9056Y-2.7109
X8.0524Y-3.4984
X8.8431Y-2.7109
X8.8596Y-1.1849
X9.0987Y-0.3812
X9.1003Y-3.0971
X9.3592Y-1.8584
X9.5817Y-2.5807
X9.5982Y-1.0547
X9.6196Y-3.3356
X9.8373Y-0.2509
X10.0261Y-2.9339
X10.0978Y-1.7281
X10.3203Y-2.4505
X10.3368Y-0.9244
X10.5759Y-0.1207
X10.8364Y-1.5979
X11.0589Y-2.3202
X11.0754Y-0.7942
X11.0968Y-3.0751
X11.3145Y0.0095
X11.575Y-1.4677
X11.7975Y-2.19
X12.1582Y0.0
X12.4395Y-3.0
X12.5332Y-0.75
X12.7207Y-1.5
X12.9082Y0.0
X13.0957Y-2.25
X13.2832Y-0.75
X13.377Y-3.0
X13.4707Y-1.5
X13.6582Y0.0
X14.0332Y-0.75
X14.127Y-2.25
X14.2195Y-1.825
X14.3132Y-0.325
X14.3145Y-3.0
X14.6895Y-1.5
X14.7832Y0.0
X14.9707Y-0.75
X15.1582Y-2.25
X15.1582Y-3.0
X15.1595Y-1.825
X15.2532Y-0.325
X15.9082Y-2.25
X15.9082Y-3.0
X16.6582Y0.0
X16.6582Y-0.75
X16.6582Y-1.5
X16.6582Y-3.0
T0
M30
