M48
; DRILL file {KiCad (5.1.10)-1} date 08/22/21 14:10:54
; FORMAT={-:-/ absolute / inch / decimal}
; #@! TF.CreationDate,2021-08-22T14:10:54-07:00
; #@! TF.GenerationSoftware,Kicad,Pcbnew,(5.1.10)-1
FMAT,2
INCH
T1C0.0157
T2C0.0394
T3C0.0430
T4C0.0579
T5C0.0591
T6C0.0689
T7C0.1200
T8C0.1570
%
G90
G05
T1
X0.375Y-2.56
X1.124Y-1.9385
X1.125Y-1.06
X1.125Y-2.56
X1.125Y-3.3462
X1.2505Y-3.346
X1.404Y-2.69
X1.572Y-3.2175
X1.7655Y-2.362
X1.797Y-2.8725
X1.875Y-1.06
X1.875Y-1.19
X1.875Y-1.94
X1.875Y-2.69
X1.875Y-3.3462
X2.099Y-0.579
X2.6245Y-2.558
X2.814Y-1.2065
X2.8449Y-1.0906
X3.2965Y-3.199
X3.6562Y-3.3275
X4.15Y-3.295
X4.3255Y-1.9945
X4.5775Y-0.5455
X4.5938Y-3.1975
X4.751Y-3.363
X4.807Y-3.2525
X4.9688Y-2.56
X4.9688Y-2.69
X4.993Y-1.832
X5.2503Y-0.993
X5.5582Y-1.942
X5.7278Y-2.6005
X5.9657Y-1.252
X5.9883Y-1.124
X6.0815Y-2.073
X6.0815Y-2.364
X6.107Y-3.1295
X6.2936Y-2.1336
X6.4668Y-2.731
X6.5775Y-2.8825
X6.6815Y-2.9215
X6.7273Y-1.2535
X6.9815Y-2.7905
X7.0583Y-2.074
X7.1005Y-1.625
X7.1005Y-1.8935
X7.2053Y-2.8605
X7.4027Y-3.79
X7.4437Y-1.511
X7.5995Y-2.5655
X7.7225Y-0.744
X7.7255Y-1.476
X7.92Y-3.1195
X7.9438Y-2.992
X8.1422Y-3.92
X8.1648Y-3.792
X8.347Y-1.566
X8.404Y-2.4695
X8.509Y-1.3215
X8.5411Y-3.2644
X8.557Y-2.2325
X8.5696Y-2.652
X8.5832Y-3.7945
X8.5981Y-2.3545
X8.604Y-3.9225
X8.6213Y-1.3545
X8.6305Y-2.589
X8.6465Y-3.0785
X8.7395Y-2.13
X8.89Y-2.727
X9.2143Y-3.0545
X9.3002Y-1.383
X9.6152Y-2.09
X9.6378Y-2.218
X9.818Y-2.7285
X10.301Y-0.5775
X10.3768Y-2.0885
X10.4415Y-1.8855
X10.493Y-1.9365
X10.8003Y-1.251
X10.9965Y-3.3445
X11.4303Y-2.665
X11.586Y-1.331
X11.664Y-1.854
X11.724Y-1.19
X11.9635Y-2.746
X12.082Y-2.8995
X12.099Y-1.94
X12.1927Y-2.69
X12.324Y-2.0562
X12.3765Y-3.1725
X12.5807Y-3.3082
X12.784Y-3.0645
X12.849Y-1.94
X12.9425Y-2.69
X12.9427Y-3.3462
X14.938Y-2.799
X15.0915Y-3.3462
T2
X16.6712Y0.0984
X16.6712Y0.0
X16.6712Y-0.0984
X17.2421Y0.0984
X17.2421Y-0.0984
T3
X8.091Y0.317
X8.091Y0.217
X8.091Y0.117
X8.091Y0.017
X8.091Y-0.083
X8.091Y-0.183
X8.091Y-0.283
X8.091Y-0.383
X8.091Y-0.483
X8.091Y-0.583
X8.091Y-0.683
X8.1Y-0.783
X8.191Y-0.783
X8.291Y-0.783
X8.391Y-0.783
X8.491Y-0.783
X8.591Y-0.783
X8.691Y0.317
X8.691Y0.217
X8.691Y0.117
X8.691Y0.017
X8.691Y-0.083
X8.691Y-0.183
X8.691Y-0.283
X8.691Y-0.383
X8.691Y-0.483
X8.691Y-0.583
X8.691Y-0.683
X8.691Y-0.783
T4
X-0.15Y0.1
X-0.15Y-0.65
X-0.15Y-1.4
X-0.15Y-2.15
X-0.15Y-2.9
X0.1Y0.2
X0.1Y-0.55
X0.1Y-1.3
X0.1Y-2.05
X0.1Y-2.8
X0.225Y-2.9
X0.475Y-2.8
X0.6Y0.1
X0.6Y-0.65
X0.6Y-1.4
X0.6Y-2.15
X0.6Y-2.9
X0.85Y0.2
X0.85Y-0.55
X0.85Y-1.3
X0.85Y-2.05
X0.85Y-2.8
X1.35Y0.1
X1.35Y-0.65
X1.35Y-1.4
X1.35Y-2.15
X1.35Y-2.9
X1.6Y0.2
X1.6Y-0.55
X1.6Y-1.3
X1.6Y-2.05
X1.6Y-2.8
X2.05Y-1.025
X2.05Y-2.525
X2.1Y0.1
X2.15Y-1.275
X2.15Y-2.775
X2.35Y0.2
X2.9438Y0.1
X3.0375Y-0.65
X3.0375Y-2.9
X3.1313Y-1.4
X3.1938Y0.2
X3.225Y-1.4
X3.2875Y-0.55
X3.2875Y-2.8
X3.3188Y-2.15
X3.3813Y-1.3
X3.475Y-1.3
X3.5688Y-2.05
X3.6938Y0.1
X3.8813Y-0.65
X3.9438Y0.2
X3.975Y-2.9
X4.1312Y-0.55
X4.225Y-2.8
X4.2562Y-1.4
X4.4437Y0.1938
X4.4437Y-2.15
X4.5062Y-1.3
X4.6937Y0.2938
X4.6937Y-2.05
X4.7874Y-0.5923
X5.051Y-0.5372
X5.1188Y-1.4123
X5.2027Y-2.9883
X5.2656Y-2.1997
X5.287Y0.0812
X5.3824Y-1.3572
X5.4663Y-2.9332
X5.5261Y-0.7225
X5.5291Y-2.1447
X5.5506Y0.1363
X5.7896Y-0.6674
X5.8574Y-1.5425
X6.0042Y-2.33
X6.0256Y-0.049
X6.121Y-1.4874
X6.2647Y-0.8527
X6.2678Y-2.2749
X6.2892Y0.006
X6.4953Y-3.2162
X6.5282Y-0.7977
X6.5961Y-1.6727
X6.7428Y-2.4602
X6.7588Y-3.1611
X6.7642Y-0.1793
X6.8596Y-1.6177
X7.0033Y-0.983
X7.0064Y-2.4051
X7.0278Y-0.1242
X7.2668Y-0.9279
X7.3347Y-1.803
X7.4814Y-2.5904
X7.5028Y-0.3095
X7.5982Y-1.7479
X7.702Y-3.3909
X7.745Y-2.5354
X7.7664Y-0.2544
X7.9656Y-3.3358
X8.6202Y-2.7076
X8.729Y-1.1653
X8.849Y-2.5657
X8.9578Y-1.0234
X8.9681Y-0.3616
X9.0439Y-1.8714
X9.1969Y-0.2197
X9.2727Y-1.7295
X9.3588Y-2.5774
X9.3967Y-3.3323
X9.4676Y-1.0351
X9.5876Y-2.4355
X9.6255Y-3.1904
X9.6965Y-0.8932
X9.7067Y-0.2314
X9.7825Y-1.7411
X9.9355Y-0.0895
X10.0113Y-1.5992
X10.0974Y-2.4472
X10.2062Y-0.9048
X10.3262Y-2.3053
X10.4351Y-0.7629
X10.4453Y-0.1011
X10.5211Y-1.6109
X10.6741Y0.0408
X10.7499Y-1.469
X10.836Y-2.3169
X10.8739Y-3.0718
X10.9448Y-0.7746
X11.0648Y-2.175
X11.1027Y-2.9299
X11.1737Y-0.6327
X11.1839Y0.0291
X11.2597Y-1.4806
X11.4127Y0.171
X11.4885Y-1.3388
X11.5746Y-2.1867
X11.8034Y-2.0448
X11.949Y-0.65
X12.0427Y0.1
X12.199Y-0.55
X12.2927Y0.2
X12.324Y-1.4
X12.324Y-2.9
X12.4177Y-2.15
X12.574Y-1.3
X12.574Y-2.8
X12.6677Y-2.05
X12.699Y-0.65
X12.7927Y0.1
X12.949Y-0.55
X13.0427Y0.2
X13.074Y-1.4
X13.2615Y-2.9
X13.324Y-1.3
X13.449Y-0.65
X13.5115Y-2.8
X13.5427Y0.1
X13.6365Y-2.15
X13.699Y-0.55
X13.7927Y0.2
X13.8865Y-2.05
X14.199Y-1.4
X14.199Y-2.9
X14.2927Y-0.65
X14.449Y-1.3
X14.449Y-2.8
X14.5427Y-0.55
X14.6677Y0.1
X14.8552Y-2.15
X14.9177Y0.2
X15.1052Y-2.05
X15.3165Y-2.9
X15.5665Y-2.8
X16.0665Y-2.15
X16.0665Y-2.9
X16.3165Y-2.05
X16.3165Y-2.8
X16.8165Y-0.65
X16.8165Y-1.4
X16.8165Y-2.9
X17.0665Y-0.55
X17.0665Y-1.3
X17.0665Y-2.8
T6
X-0.2Y0.0
X-0.2Y-0.75
X-0.2Y-1.5
X-0.2Y-2.25
X-0.2Y-3.0
X0.175Y-3.0
X0.2Y0.0
X0.2Y-0.75
X0.2Y-1.5
X0.2Y-2.25
X0.2Y-3.0
X0.55Y0.0
X0.55Y-0.75
X0.55Y-1.5
X0.55Y-2.25
X0.55Y-3.0
X0.575Y-3.0
X0.95Y0.0
X0.95Y-0.75
X0.95Y-1.5
X0.95Y-2.25
X0.95Y-3.0
X1.3Y0.0
X1.3Y-0.75
X1.3Y-1.5
X1.3Y-2.25
X1.3Y-3.0
X1.7Y0.0
X1.7Y-0.75
X1.7Y-1.5
X1.7Y-2.25
X1.7Y-3.0
X2.05Y0.0
X2.25Y-0.925
X2.25Y-1.325
X2.25Y-2.425
X2.25Y-2.825
X2.45Y0.0
X2.8937Y0.0
X2.9875Y-0.75
X2.9875Y-3.0
X3.0812Y-1.5
X3.175Y-1.5
X3.2687Y-2.25
X3.2937Y0.0
X3.3875Y-0.75
X3.3875Y-3.0
X3.4812Y-1.5
X3.575Y-1.5
X3.6437Y0.0
X3.6687Y-2.25
X3.8312Y-0.75
X3.925Y-3.0
X4.0438Y0.0
X4.2062Y-1.5
X4.2313Y-0.75
X4.325Y-3.0
X4.3937Y0.0938
X4.3937Y-2.25
X4.6063Y-1.5
X4.7208Y-0.6821
X4.7938Y0.0938
X4.7938Y-2.25
X5.0522Y-1.5021
X5.1148Y-0.7515
X5.1361Y-3.0781
X5.199Y-2.2895
X5.2204Y-0.0086
X5.4462Y-1.5715
X5.4594Y-0.8123
X5.53Y-3.1475
X5.5929Y-2.359
X5.6143Y-0.078
X5.7908Y-1.6323
X5.8534Y-0.8818
X5.9376Y-2.4198
X5.959Y-0.1388
X6.1848Y-1.7018
X6.1981Y-0.9425
X6.3315Y-2.4892
X6.3529Y-0.2083
X6.4286Y-3.306
X6.5294Y-1.7625
X6.592Y-1.012
X6.6762Y-2.55
X6.6976Y-0.2691
X6.8226Y-3.3755
X6.9234Y-1.832
X6.9367Y-1.0728
X7.0701Y-2.6194
X7.0915Y-0.3385
X7.2681Y-1.8928
X7.3306Y-1.1422
X7.4148Y-2.6802
X7.4362Y-0.3993
X7.6354Y-3.4807
X7.662Y-1.9622
X7.8087Y-2.7497
X7.8301Y-0.4688
X8.0293Y-3.5502
X8.5883Y-2.8148
X8.6971Y-1.2725
X8.9362Y-0.4688
X8.9822Y-2.7453
X9.012Y-1.9785
X9.0911Y-1.203
X9.3269Y-2.6846
X9.3301Y-0.3993
X9.3648Y-3.4395
X9.4059Y-1.9091
X9.4357Y-1.1422
X9.6748Y-0.3385
X9.7208Y-2.6151
X9.7506Y-1.8483
X9.7587Y-3.37
X9.8297Y-1.0728
X10.0655Y-2.5543
X10.0687Y-0.2691
X10.1445Y-1.7788
X10.1743Y-1.012
X10.4134Y-0.2083
X10.4594Y-2.4849
X10.4892Y-1.718
X10.5683Y-0.9425
X10.8041Y-2.4241
X10.8073Y-0.1388
X10.842Y-3.179
X10.8832Y-1.6486
X10.9129Y-0.8818
X11.152Y-0.078
X11.198Y-2.3546
X11.2278Y-1.5878
X11.236Y-3.1095
X11.3069Y-0.8123
X11.5427Y-2.2939
X11.5459Y-0.0086
X11.6218Y-1.5184
X11.899Y-0.75
X11.9366Y-2.2244
X11.9927Y0.0
X12.274Y-1.5
X12.274Y-3.0
X12.299Y-0.75
X12.3677Y-2.25
X12.3927Y0.0
X12.649Y-0.75
X12.674Y-1.5
X12.674Y-3.0
X12.7427Y0.0
X12.7677Y-2.25
X13.024Y-1.5
X13.049Y-0.75
X13.1427Y0.0
X13.2115Y-3.0
X13.399Y-0.75
X13.424Y-1.5
X13.4927Y0.0
X13.5865Y-2.25
X13.6115Y-3.0
X13.799Y-0.75
X13.8927Y0.0
X13.9865Y-2.25
X14.149Y-1.5
X14.149Y-3.0
X14.2427Y-0.75
X14.549Y-1.5
X14.549Y-3.0
X14.6177Y0.0
X14.6427Y-0.75
X14.8052Y-2.25
X15.0177Y0.0
X15.2052Y-2.25
X15.2665Y-3.0
X15.6665Y-3.0
X16.0165Y-2.25
X16.0165Y-3.0
X16.4165Y-2.25
X16.4165Y-3.0
X16.7665Y-0.75
X16.7665Y-1.5
X16.7665Y-3.0
X17.1665Y-0.75
X17.1665Y-1.5
X17.1665Y-3.0
T7
X-0.0938Y-3.275
X0.8438Y-3.275
X1.975Y-0.6562
X1.975Y-1.5938
X1.975Y-2.1562
X1.975Y-3.0938
X3.0Y-1.975
X3.9375Y-1.975
X6.1162Y-3.5301
X7.0395Y-3.6929
X9.1479Y-3.7569
X10.0712Y-3.5941
X13.3177Y-1.975
X13.8802Y-1.225
X14.2552Y-1.975
X14.349Y0.275
X14.8177Y-1.225
X15.2865Y0.275
T8
X-0.0938Y-2.675
X0.0Y0.0
X0.0Y-0.75
X0.0Y-1.5
X0.0Y-2.25
X0.0Y-3.0
X0.375Y-3.0
X0.75Y0.0
X0.75Y-0.75
X0.75Y-1.5
X0.75Y-2.25
X0.75Y-3.0
X0.8438Y-2.675
X1.5Y0.0
X1.5Y-0.75
X1.5Y-1.5
X1.5Y-2.25
X1.5Y-3.0
X2.25Y0.0
X2.25Y-1.125
X2.25Y-2.625
X2.575Y-0.6562
X2.575Y-1.5938
X2.575Y-2.1562
X2.575Y-3.0938
X3.0Y-2.575
X3.0938Y0.0
X3.1875Y-0.75
X3.1875Y-3.0
X3.2812Y-1.5
X3.375Y-1.5
X3.4688Y-2.25
X3.8438Y0.0
X3.9375Y-2.575
X4.0312Y-0.75
X4.125Y-3.0
X4.4062Y-1.5
X4.5938Y0.0938
X4.5938Y-2.25
X4.9178Y-0.7168
X5.2492Y-1.5368
X5.3331Y-3.1128
X5.3959Y-2.3242
X5.4173Y-0.0433
X5.6564Y-0.847
X5.9878Y-1.667
X6.1345Y-2.4545
X6.1559Y-0.1735
X6.2204Y-2.9393
X6.395Y-0.9773
X6.6256Y-3.3407
X6.7264Y-1.7973
X6.8731Y-2.5847
X6.8946Y-0.3038
X7.1336Y-1.1075
X7.1437Y-3.1021
X7.465Y-1.9275
X7.6118Y-2.715
X7.6332Y-0.434
X7.8324Y-3.5154
X8.7853Y-2.7801
X8.8941Y-1.2377
X9.0437Y-3.1661
X9.1332Y-0.434
X9.209Y-1.9438
X9.5239Y-2.6498
X9.5618Y-3.4047
X9.6327Y-1.1075
X9.8718Y-0.3038
X9.9476Y-1.8136
X9.967Y-3.0033
X10.2625Y-2.5196
X10.3713Y-0.9773
X10.6104Y-0.1735
X10.6862Y-1.6833
X11.0011Y-2.3894
X11.039Y-3.1443
X11.1099Y-0.847
X11.349Y-0.0433
X11.4248Y-1.5531
X11.7397Y-2.2591
X12.099Y-0.75
X12.1927Y0.0
X12.474Y-1.5
X12.474Y-3.0
X12.5677Y-2.25
X12.849Y-0.75
X12.9427Y0.0
X13.224Y-1.5
X13.3177Y-2.575
X13.4115Y-3.0
X13.599Y-0.75
X13.6927Y0.0
X13.7865Y-2.25
X13.8802Y-1.825
X14.2552Y-2.575
X14.349Y-0.325
X14.349Y-1.5
X14.349Y-3.0
X14.4427Y-0.75
X14.8177Y0.0
X14.8177Y-1.825
X15.0052Y-2.25
X15.2865Y-0.325
X15.4665Y-3.0
X16.2165Y-2.25
X16.2165Y-3.0
X16.9665Y-0.75
X16.9665Y-1.5
X16.9665Y-3.0
T5
G00X16.9409Y0.2205
M15
G01X16.9921Y0.2205
M16
G05
G00X16.9409Y-0.2205
M15
G01X16.9921Y-0.2205
M16
G05
T0
M30
